<svg width="50" height="50" viewBox="0 0 50 50" fill="none" xmlns="http://www.w3.org/2000/svg">
<g id="grommet-icons:vm-maintenance">
<path id="Vector" d="M39.5837 20.8334V4.16675H14.5837V29.1667H29.167V14.5834H4.16699V39.5834H20.8337M29.167 47.9167L41.667 35.4167M43.7503 29.1667C42.9262 29.1667 42.1207 29.4111 41.4354 29.869C40.7502 30.3268 40.2162 30.9775 39.9008 31.7389C39.5855 32.5003 39.5029 33.338 39.6637 34.1463C39.8245 34.9545 40.2213 35.697 40.804 36.2797C41.3868 36.8624 42.1292 37.2592 42.9374 37.42C43.7457 37.5808 44.5835 37.4983 45.3448 37.1829C46.1062 36.8675 46.7569 36.3335 47.2148 35.6483C47.6726 34.9631 47.917 34.1575 47.917 33.3334" stroke="#F1553F" stroke-width="3"/>
</g>
</svg>
