<svg width="52" height="40" viewBox="0 0 52 40" fill="none" xmlns="http://www.w3.org/2000/svg">
<g id="Vector">
<mask id="path-1-outside-1_332_205" maskUnits="userSpaceOnUse" x="0" y="0" width="52" height="40" fill="black">
<rect fill="white" width="52" height="40"/>
<path d="M29.1014 19.2527V20.5635H31.6995C32.3858 20.5635 32.9373 21.1148 32.9373 21.8008V25.3411C32.9373 25.6841 32.8025 25.9903 32.5819 26.2108C32.3613 26.4313 32.0427 26.5783 31.7118 26.5783H29.1382V27.8891H31.7118C32.3981 27.8891 32.9496 28.4404 32.9496 29.1264V32.6667C32.9496 33.0097 32.8148 33.3159 32.5942 33.5364C32.3736 33.7569 32.0549 33.9039 31.724 33.9039H25.5474C24.8733 33.9039 24.3096 33.3404 24.3096 32.6667V29.1264C24.3096 28.4526 24.8611 27.8891 25.5474 27.8891H28.1455V26.5783H25.5474C24.8733 26.5783 24.3096 26.0148 24.3096 25.3411V21.8008C24.3096 21.127 24.8611 20.5635 25.5474 20.5635H28.121V19.2527H25.5474C24.8733 19.2527 24.3096 18.6892 24.3096 18.0155V14.4752C24.3096 13.7892 24.8611 13.2379 25.5474 13.2379H31.6995C32.3858 13.2379 32.9373 13.7892 32.9373 14.4752V18.0155C32.9373 18.3585 32.8025 18.6647 32.5819 18.8852C32.3613 19.1057 32.0427 19.2527 31.7118 19.2527H29.1014ZM31.6995 28.8691H25.5474C25.4126 28.8691 25.29 28.9794 25.29 29.1264V32.6667C25.29 32.8137 25.4003 32.9239 25.5474 32.9239H31.6995L31.8834 32.8504C31.9324 32.8014 31.9569 32.7402 31.9569 32.6667V29.1264C31.9569 28.9916 31.8466 28.8691 31.6995 28.8691ZM31.6995 21.5435H25.5474C25.4126 21.5435 25.29 21.6538 25.29 21.8008V25.3411C25.29 25.4881 25.4003 25.5983 25.5474 25.5983H31.6995L31.8834 25.5248C31.9324 25.4758 31.9569 25.4146 31.9569 25.3411V21.8008C31.9569 21.6538 31.8466 21.5435 31.6995 21.5435ZM40.4253 29.9594C39.4571 28.8814 38.0968 28.2321 36.6384 28.1586L36.0869 34.1734L40.4253 29.9594ZM36.8345 27.1908C38.4399 27.3011 39.9473 28.0239 41.0503 29.1999L43.82 23.381L44.4941 20.7718C44.5063 20.735 44.5186 20.7105 44.5308 20.686L49.9354 9.35461C49.1388 8.3501 47.9378 7.78659 46.6632 7.79884L41.2587 19.1302C41.2464 19.167 41.2219 19.2037 41.1974 19.2405L39.6164 21.3843L36.8345 27.1908ZM40.3885 18.6525L44.1019 10.8859H9.52969V13.7769H18.2064C19.9957 13.7769 21.4664 15.2469 21.4664 17.0355V30.7434C21.4664 32.5319 20.008 34.0019 18.2064 34.0019H9.52969V35.3372C9.52969 36.8072 10.7307 38.0077 12.2013 38.0077H43.195C44.6656 38.0077 45.8666 36.8072 45.8666 35.3372V20.1838L45.45 21.0658L44.7759 23.6383C44.7637 23.675 44.7514 23.7241 44.7392 23.7608L41.7734 29.9716C41.7489 30.0206 41.7121 30.0696 41.6753 30.1064L35.8418 35.7782C35.5232 36.0967 34.9717 35.8395 35.0207 35.3862L35.756 27.3256C35.756 27.2521 35.7683 27.1908 35.805 27.1173L38.7708 20.9065L40.3885 18.6525ZM44.5676 9.90587L45.8544 7.21083V4.6628C45.8544 3.19278 44.6534 1.99226 43.1827 1.99226H12.2013C10.7307 1.99226 9.52969 3.19278 9.52969 4.6628V9.90587H44.5676ZM46.8348 6.81883C47.5579 6.84333 48.2687 7.01483 48.906 7.30883C49.6781 7.67634 50.3643 8.2521 50.8913 8.98711C51.0016 9.13411 51.0384 9.33011 50.9526 9.51386L46.8348 18.138V35.3494C46.8348 37.3585 45.1926 39 43.1827 39H12.2013C10.1915 39 8.54926 37.3585 8.54926 35.3494V34.0142C7.1154 34.0142 5.68152 34.0142 4.25991 34.0142C2.47064 34.0142 1 32.5442 1 30.7556V17.0355C1 15.2469 2.47064 13.7769 4.25991 13.7769H8.54926V4.65055C8.54926 2.64152 10.1915 1 12.2013 1H43.195C45.2049 1 46.8471 2.64152 46.8471 4.65055V6.81883H46.8348ZM11.2332 19.5345C13.3166 19.5345 15.0078 21.225 15.0078 23.3075C15.0078 24.5571 14.395 25.6841 13.4269 26.3823C16.5152 27.2031 18.2555 29.7756 18.4148 33.0219C19.5668 32.9117 20.4737 31.9317 20.4737 30.7556V17.0355C20.4737 15.7859 19.4442 14.7569 18.1942 14.7569H4.24765C2.99761 14.7569 1.96817 15.7859 1.96817 17.0355V30.7434C1.96817 31.9194 2.87506 32.8994 4.02706 33.0097C4.18638 29.7634 5.92663 27.1908 9.01497 26.3701C7.12765 25.0103 6.8948 22.2785 8.54926 20.637C9.24782 19.9633 10.1915 19.5345 11.2332 19.5345ZM13.2063 21.3353C11.4538 19.5835 8.43897 20.833 8.43897 23.3075C8.43897 25.7821 11.4538 27.0438 13.2063 25.2921C14.297 24.2018 14.297 22.4255 13.2063 21.3353ZM11.2332 27.0928C7.49531 27.0928 5.21582 29.4326 5.01974 33.0342H17.4344C17.2505 29.4326 14.9588 27.0928 11.2332 27.0928ZM31.6995 14.2179H25.5474C25.4126 14.2179 25.29 14.3282 25.29 14.4752V18.0155C25.29 18.1625 25.4003 18.2727 25.5474 18.2727H31.6995L31.8834 18.1992C31.9324 18.1502 31.9569 18.089 31.9569 18.0155V14.4752C31.9569 14.3282 31.8466 14.2179 31.6995 14.2179ZM31.8588 4.33204H42.0307C42.8764 4.33204 43.5749 5.0303 43.5749 5.87556C43.5749 6.42682 43.5627 6.84333 43.1215 7.28433C42.8396 7.56609 42.4597 7.73759 42.0307 7.73759H31.8588C31.0132 7.73759 30.3147 7.03933 30.3147 6.19407C30.3147 5.64281 30.3269 5.22631 30.7681 4.7853C31.05 4.5158 31.4422 4.33204 31.8588 4.33204ZM42.0307 5.31206H31.8588C31.5525 5.31206 31.2951 5.56931 31.2951 5.87556C31.2951 6.15732 31.2583 6.39007 31.4667 6.58607C31.577 6.69632 31.7118 6.75757 31.8711 6.75757H42.043C42.3616 6.75757 42.6067 6.50032 42.6067 6.19407C42.6067 5.91231 42.6435 5.67956 42.4352 5.48356C42.3371 5.38556 42.1901 5.31206 42.0307 5.31206ZM23.5498 4.33204C25.0572 4.33204 25.8292 6.16957 24.7508 7.23533C23.6723 8.31335 21.834 7.54159 21.834 6.03482C21.8463 5.1038 22.6061 4.33204 23.5498 4.33204ZM24.0645 5.53256C23.611 5.0793 22.8267 5.39781 22.8267 6.04707C22.8267 6.69633 23.611 7.01483 24.0645 6.56157C24.3463 6.26757 24.3463 5.81431 24.0645 5.53256ZM18.5251 4.33204C20.0447 4.33204 20.8046 6.16957 19.7261 7.23533C18.6599 8.31335 16.8093 7.54159 16.8093 6.03482C16.8216 5.1038 17.5814 4.33204 18.5251 4.33204ZM19.0398 5.53256C18.5864 5.0793 17.802 5.39781 17.802 6.04707C17.802 6.69633 18.5864 7.01483 19.0398 6.56157C19.3217 6.26757 19.3217 5.81431 19.0398 5.53256ZM13.5127 4.33204C15.0201 4.33204 15.7921 6.16957 14.7137 7.23533C13.6352 8.31335 11.7969 7.54159 11.7969 6.03482C11.7969 5.1038 12.569 4.33204 13.5127 4.33204ZM14.0151 5.53256C13.5617 5.0793 12.7773 5.39781 12.7773 6.04707C12.7773 6.69633 13.5617 7.01483 14.0151 6.56157C14.297 6.26757 14.297 5.81431 14.0151 5.53256Z"/>
</mask>
<path d="M29.1014 19.2527V20.5635H31.6995C32.3858 20.5635 32.9373 21.1148 32.9373 21.8008V25.3411C32.9373 25.6841 32.8025 25.9903 32.5819 26.2108C32.3613 26.4313 32.0427 26.5783 31.7118 26.5783H29.1382V27.8891H31.7118C32.3981 27.8891 32.9496 28.4404 32.9496 29.1264V32.6667C32.9496 33.0097 32.8148 33.3159 32.5942 33.5364C32.3736 33.7569 32.0549 33.9039 31.724 33.9039H25.5474C24.8733 33.9039 24.3096 33.3404 24.3096 32.6667V29.1264C24.3096 28.4526 24.8611 27.8891 25.5474 27.8891H28.1455V26.5783H25.5474C24.8733 26.5783 24.3096 26.0148 24.3096 25.3411V21.8008C24.3096 21.127 24.8611 20.5635 25.5474 20.5635H28.121V19.2527H25.5474C24.8733 19.2527 24.3096 18.6892 24.3096 18.0155V14.4752C24.3096 13.7892 24.8611 13.2379 25.5474 13.2379H31.6995C32.3858 13.2379 32.9373 13.7892 32.9373 14.4752V18.0155C32.9373 18.3585 32.8025 18.6647 32.5819 18.8852C32.3613 19.1057 32.0427 19.2527 31.7118 19.2527H29.1014ZM31.6995 28.8691H25.5474C25.4126 28.8691 25.29 28.9794 25.29 29.1264V32.6667C25.29 32.8137 25.4003 32.9239 25.5474 32.9239H31.6995L31.8834 32.8504C31.9324 32.8014 31.9569 32.7402 31.9569 32.6667V29.1264C31.9569 28.9916 31.8466 28.8691 31.6995 28.8691ZM31.6995 21.5435H25.5474C25.4126 21.5435 25.29 21.6538 25.29 21.8008V25.3411C25.29 25.4881 25.4003 25.5983 25.5474 25.5983H31.6995L31.8834 25.5248C31.9324 25.4758 31.9569 25.4146 31.9569 25.3411V21.8008C31.9569 21.6538 31.8466 21.5435 31.6995 21.5435ZM40.4253 29.9594C39.4571 28.8814 38.0968 28.2321 36.6384 28.1586L36.0869 34.1734L40.4253 29.9594ZM36.8345 27.1908C38.4399 27.3011 39.9473 28.0239 41.0503 29.1999L43.82 23.381L44.4941 20.7718C44.5063 20.735 44.5186 20.7105 44.5308 20.686L49.9354 9.35461C49.1388 8.3501 47.9378 7.78659 46.6632 7.79884L41.2587 19.1302C41.2464 19.167 41.2219 19.2037 41.1974 19.2405L39.6164 21.3843L36.8345 27.1908ZM40.3885 18.6525L44.1019 10.8859H9.52969V13.7769H18.2064C19.9957 13.7769 21.4664 15.2469 21.4664 17.0355V30.7434C21.4664 32.5319 20.008 34.0019 18.2064 34.0019H9.52969V35.3372C9.52969 36.8072 10.7307 38.0077 12.2013 38.0077H43.195C44.6656 38.0077 45.8666 36.8072 45.8666 35.3372V20.1838L45.45 21.0658L44.7759 23.6383C44.7637 23.675 44.7514 23.7241 44.7392 23.7608L41.7734 29.9716C41.7489 30.0206 41.7121 30.0696 41.6753 30.1064L35.8418 35.7782C35.5232 36.0967 34.9717 35.8395 35.0207 35.3862L35.756 27.3256C35.756 27.2521 35.7683 27.1908 35.805 27.1173L38.7708 20.9065L40.3885 18.6525ZM44.5676 9.90587L45.8544 7.21083V4.6628C45.8544 3.19278 44.6534 1.99226 43.1827 1.99226H12.2013C10.7307 1.99226 9.52969 3.19278 9.52969 4.6628V9.90587H44.5676ZM46.8348 6.81883C47.5579 6.84333 48.2687 7.01483 48.906 7.30883C49.6781 7.67634 50.3643 8.2521 50.8913 8.98711C51.0016 9.13411 51.0384 9.33011 50.9526 9.51386L46.8348 18.138V35.3494C46.8348 37.3585 45.1926 39 43.1827 39H12.2013C10.1915 39 8.54926 37.3585 8.54926 35.3494V34.0142C7.1154 34.0142 5.68152 34.0142 4.25991 34.0142C2.47064 34.0142 1 32.5442 1 30.7556V17.0355C1 15.2469 2.47064 13.7769 4.25991 13.7769H8.54926V4.65055C8.54926 2.64152 10.1915 1 12.2013 1H43.195C45.2049 1 46.8471 2.64152 46.8471 4.65055V6.81883H46.8348ZM11.2332 19.5345C13.3166 19.5345 15.0078 21.225 15.0078 23.3075C15.0078 24.5571 14.395 25.6841 13.4269 26.3823C16.5152 27.2031 18.2555 29.7756 18.4148 33.0219C19.5668 32.9117 20.4737 31.9317 20.4737 30.7556V17.0355C20.4737 15.7859 19.4442 14.7569 18.1942 14.7569H4.24765C2.99761 14.7569 1.96817 15.7859 1.96817 17.0355V30.7434C1.96817 31.9194 2.87506 32.8994 4.02706 33.0097C4.18638 29.7634 5.92663 27.1908 9.01497 26.3701C7.12765 25.0103 6.8948 22.2785 8.54926 20.637C9.24782 19.9633 10.1915 19.5345 11.2332 19.5345ZM13.2063 21.3353C11.4538 19.5835 8.43897 20.833 8.43897 23.3075C8.43897 25.7821 11.4538 27.0438 13.2063 25.2921C14.297 24.2018 14.297 22.4255 13.2063 21.3353ZM11.2332 27.0928C7.49531 27.0928 5.21582 29.4326 5.01974 33.0342H17.4344C17.2505 29.4326 14.9588 27.0928 11.2332 27.0928ZM31.6995 14.2179H25.5474C25.4126 14.2179 25.29 14.3282 25.29 14.4752V18.0155C25.29 18.1625 25.4003 18.2727 25.5474 18.2727H31.6995L31.8834 18.1992C31.9324 18.1502 31.9569 18.089 31.9569 18.0155V14.4752C31.9569 14.3282 31.8466 14.2179 31.6995 14.2179ZM31.8588 4.33204H42.0307C42.8764 4.33204 43.5749 5.0303 43.5749 5.87556C43.5749 6.42682 43.5627 6.84333 43.1215 7.28433C42.8396 7.56609 42.4597 7.73759 42.0307 7.73759H31.8588C31.0132 7.73759 30.3147 7.03933 30.3147 6.19407C30.3147 5.64281 30.3269 5.22631 30.7681 4.7853C31.05 4.5158 31.4422 4.33204 31.8588 4.33204ZM42.0307 5.31206H31.8588C31.5525 5.31206 31.2951 5.56931 31.2951 5.87556C31.2951 6.15732 31.2583 6.39007 31.4667 6.58607C31.577 6.69632 31.7118 6.75757 31.8711 6.75757H42.043C42.3616 6.75757 42.6067 6.50032 42.6067 6.19407C42.6067 5.91231 42.6435 5.67956 42.4352 5.48356C42.3371 5.38556 42.1901 5.31206 42.0307 5.31206ZM23.5498 4.33204C25.0572 4.33204 25.8292 6.16957 24.7508 7.23533C23.6723 8.31335 21.834 7.54159 21.834 6.03482C21.8463 5.1038 22.6061 4.33204 23.5498 4.33204ZM24.0645 5.53256C23.611 5.0793 22.8267 5.39781 22.8267 6.04707C22.8267 6.69633 23.611 7.01483 24.0645 6.56157C24.3463 6.26757 24.3463 5.81431 24.0645 5.53256ZM18.5251 4.33204C20.0447 4.33204 20.8046 6.16957 19.7261 7.23533C18.6599 8.31335 16.8093 7.54159 16.8093 6.03482C16.8216 5.1038 17.5814 4.33204 18.5251 4.33204ZM19.0398 5.53256C18.5864 5.0793 17.802 5.39781 17.802 6.04707C17.802 6.69633 18.5864 7.01483 19.0398 6.56157C19.3217 6.26757 19.3217 5.81431 19.0398 5.53256ZM13.5127 4.33204C15.0201 4.33204 15.7921 6.16957 14.7137 7.23533C13.6352 8.31335 11.7969 7.54159 11.7969 6.03482C11.7969 5.1038 12.569 4.33204 13.5127 4.33204ZM14.0151 5.53256C13.5617 5.0793 12.7773 5.39781 12.7773 6.04707C12.7773 6.69633 13.5617 7.01483 14.0151 6.56157C14.297 6.26757 14.297 5.81431 14.0151 5.53256Z" fill="#248EC8"/>
<path d="M29.1014 19.2527V20.5635H31.6995C32.3858 20.5635 32.9373 21.1148 32.9373 21.8008V25.3411C32.9373 25.6841 32.8025 25.9903 32.5819 26.2108C32.3613 26.4313 32.0427 26.5783 31.7118 26.5783H29.1382V27.8891H31.7118C32.3981 27.8891 32.9496 28.4404 32.9496 29.1264V32.6667C32.9496 33.0097 32.8148 33.3159 32.5942 33.5364C32.3736 33.7569 32.0549 33.9039 31.724 33.9039H25.5474C24.8733 33.9039 24.3096 33.3404 24.3096 32.6667V29.1264C24.3096 28.4526 24.8611 27.8891 25.5474 27.8891H28.1455V26.5783H25.5474C24.8733 26.5783 24.3096 26.0148 24.3096 25.3411V21.8008C24.3096 21.127 24.8611 20.5635 25.5474 20.5635H28.121V19.2527H25.5474C24.8733 19.2527 24.3096 18.6892 24.3096 18.0155V14.4752C24.3096 13.7892 24.8611 13.2379 25.5474 13.2379H31.6995C32.3858 13.2379 32.9373 13.7892 32.9373 14.4752V18.0155C32.9373 18.3585 32.8025 18.6647 32.5819 18.8852C32.3613 19.1057 32.0427 19.2527 31.7118 19.2527H29.1014ZM31.6995 28.8691H25.5474C25.4126 28.8691 25.29 28.9794 25.29 29.1264V32.6667C25.29 32.8137 25.4003 32.9239 25.5474 32.9239H31.6995L31.8834 32.8504C31.9324 32.8014 31.9569 32.7402 31.9569 32.6667V29.1264C31.9569 28.9916 31.8466 28.8691 31.6995 28.8691ZM31.6995 21.5435H25.5474C25.4126 21.5435 25.29 21.6538 25.29 21.8008V25.3411C25.29 25.4881 25.4003 25.5983 25.5474 25.5983H31.6995L31.8834 25.5248C31.9324 25.4758 31.9569 25.4146 31.9569 25.3411V21.8008C31.9569 21.6538 31.8466 21.5435 31.6995 21.5435ZM40.4253 29.9594C39.4571 28.8814 38.0968 28.2321 36.6384 28.1586L36.0869 34.1734L40.4253 29.9594ZM36.8345 27.1908C38.4399 27.3011 39.9473 28.0239 41.0503 29.1999L43.82 23.381L44.4941 20.7718C44.5063 20.735 44.5186 20.7105 44.5308 20.686L49.9354 9.35461C49.1388 8.3501 47.9378 7.78659 46.6632 7.79884L41.2587 19.1302C41.2464 19.167 41.2219 19.2037 41.1974 19.2405L39.6164 21.3843L36.8345 27.1908ZM40.3885 18.6525L44.1019 10.8859H9.52969V13.7769H18.2064C19.9957 13.7769 21.4664 15.2469 21.4664 17.0355V30.7434C21.4664 32.5319 20.008 34.0019 18.2064 34.0019H9.52969V35.3372C9.52969 36.8072 10.7307 38.0077 12.2013 38.0077H43.195C44.6656 38.0077 45.8666 36.8072 45.8666 35.3372V20.1838L45.45 21.0658L44.7759 23.6383C44.7637 23.675 44.7514 23.7241 44.7392 23.7608L41.7734 29.9716C41.7489 30.0206 41.7121 30.0696 41.6753 30.1064L35.8418 35.7782C35.5232 36.0967 34.9717 35.8395 35.0207 35.3862L35.756 27.3256C35.756 27.2521 35.7683 27.1908 35.805 27.1173L38.7708 20.9065L40.3885 18.6525ZM44.5676 9.90587L45.8544 7.21083V4.6628C45.8544 3.19278 44.6534 1.99226 43.1827 1.99226H12.2013C10.7307 1.99226 9.52969 3.19278 9.52969 4.6628V9.90587H44.5676ZM46.8348 6.81883C47.5579 6.84333 48.2687 7.01483 48.906 7.30883C49.6781 7.67634 50.3643 8.2521 50.8913 8.98711C51.0016 9.13411 51.0384 9.33011 50.9526 9.51386L46.8348 18.138V35.3494C46.8348 37.3585 45.1926 39 43.1827 39H12.2013C10.1915 39 8.54926 37.3585 8.54926 35.3494V34.0142C7.1154 34.0142 5.68152 34.0142 4.25991 34.0142C2.47064 34.0142 1 32.5442 1 30.7556V17.0355C1 15.2469 2.47064 13.7769 4.25991 13.7769H8.54926V4.65055C8.54926 2.64152 10.1915 1 12.2013 1H43.195C45.2049 1 46.8471 2.64152 46.8471 4.65055V6.81883H46.8348ZM11.2332 19.5345C13.3166 19.5345 15.0078 21.225 15.0078 23.3075C15.0078 24.5571 14.395 25.6841 13.4269 26.3823C16.5152 27.2031 18.2555 29.7756 18.4148 33.0219C19.5668 32.9117 20.4737 31.9317 20.4737 30.7556V17.0355C20.4737 15.7859 19.4442 14.7569 18.1942 14.7569H4.24765C2.99761 14.7569 1.96817 15.7859 1.96817 17.0355V30.7434C1.96817 31.9194 2.87506 32.8994 4.02706 33.0097C4.18638 29.7634 5.92663 27.1908 9.01497 26.3701C7.12765 25.0103 6.8948 22.2785 8.54926 20.637C9.24782 19.9633 10.1915 19.5345 11.2332 19.5345ZM13.2063 21.3353C11.4538 19.5835 8.43897 20.833 8.43897 23.3075C8.43897 25.7821 11.4538 27.0438 13.2063 25.2921C14.297 24.2018 14.297 22.4255 13.2063 21.3353ZM11.2332 27.0928C7.49531 27.0928 5.21582 29.4326 5.01974 33.0342H17.4344C17.2505 29.4326 14.9588 27.0928 11.2332 27.0928ZM31.6995 14.2179H25.5474C25.4126 14.2179 25.29 14.3282 25.29 14.4752V18.0155C25.29 18.1625 25.4003 18.2727 25.5474 18.2727H31.6995L31.8834 18.1992C31.9324 18.1502 31.9569 18.089 31.9569 18.0155V14.4752C31.9569 14.3282 31.8466 14.2179 31.6995 14.2179ZM31.8588 4.33204H42.0307C42.8764 4.33204 43.5749 5.0303 43.5749 5.87556C43.5749 6.42682 43.5627 6.84333 43.1215 7.28433C42.8396 7.56609 42.4597 7.73759 42.0307 7.73759H31.8588C31.0132 7.73759 30.3147 7.03933 30.3147 6.19407C30.3147 5.64281 30.3269 5.22631 30.7681 4.7853C31.05 4.5158 31.4422 4.33204 31.8588 4.33204ZM42.0307 5.31206H31.8588C31.5525 5.31206 31.2951 5.56931 31.2951 5.87556C31.2951 6.15732 31.2583 6.39007 31.4667 6.58607C31.577 6.69632 31.7118 6.75757 31.8711 6.75757H42.043C42.3616 6.75757 42.6067 6.50032 42.6067 6.19407C42.6067 5.91231 42.6435 5.67956 42.4352 5.48356C42.3371 5.38556 42.1901 5.31206 42.0307 5.31206ZM23.5498 4.33204C25.0572 4.33204 25.8292 6.16957 24.7508 7.23533C23.6723 8.31335 21.834 7.54159 21.834 6.03482C21.8463 5.1038 22.6061 4.33204 23.5498 4.33204ZM24.0645 5.53256C23.611 5.0793 22.8267 5.39781 22.8267 6.04707C22.8267 6.69633 23.611 7.01483 24.0645 6.56157C24.3463 6.26757 24.3463 5.81431 24.0645 5.53256ZM18.5251 4.33204C20.0447 4.33204 20.8046 6.16957 19.7261 7.23533C18.6599 8.31335 16.8093 7.54159 16.8093 6.03482C16.8216 5.1038 17.5814 4.33204 18.5251 4.33204ZM19.0398 5.53256C18.5864 5.0793 17.802 5.39781 17.802 6.04707C17.802 6.69633 18.5864 7.01483 19.0398 6.56157C19.3217 6.26757 19.3217 5.81431 19.0398 5.53256ZM13.5127 4.33204C15.0201 4.33204 15.7921 6.16957 14.7137 7.23533C13.6352 8.31335 11.7969 7.54159 11.7969 6.03482C11.7969 5.1038 12.569 4.33204 13.5127 4.33204ZM14.0151 5.53256C13.5617 5.0793 12.7773 5.39781 12.7773 6.04707C12.7773 6.69633 13.5617 7.01483 14.0151 6.56157C14.297 6.26757 14.297 5.81431 14.0151 5.53256Z" stroke="#248EC8" stroke-width="0.6" mask="url(#path-1-outside-1_332_205)"/>
</g>
</svg>
