<?xml version="1.0" encoding="UTF-8" standalone="no"?>
<!-- Generator: Adobe Illustrator 22.1.0, SVG Export Plug-In . SVG Version: 6.00 Build 0)  -->
<svg id="Layer_1" style="enable-background:new 0 0 249.3 105.9" xmlns="http://www.w3.org/2000/svg" xml:space="preserve" viewBox="0 0 249.3 105.9" version="1.1" y="0px" x="0px" xmlns:xlink="http://www.w3.org/1999/xlink">
<style type="text/css">
	.st0{fill:#007481;}
</style>
	<path d="m106.8 80.9h-17.8v-80.9h17.8v80.9zm32.7-80.9h17.8v80.8h-17.8v-80.8z"/>
	<path d="m175.7 0h56.8v15h-39.1v65.9h-17.8v-80.9z"/>
	<polygon points="39.5 20 60.7 80.9 60.7 80.9 79.1 80.9 48.9 0 30.7 0 0 80.9 18 80.9"/>
			<path d="m0.5 89.8h10.5c4.4 0 5.5 2.6 5.5 4.7 0 3.3-1.8 5.3-5.2 5.3h-6.5v5.6h-4.3v-15.6zm4.3 7.2h4.6c1.3 0 2.8 0 2.8-2.1 0-2-1.2-2.2-2.4-2.2h-5v4.3z"/>
			<path d="m18.7 89.8h11.4c4.3 0 5.1 2.6 5.1 4.2 0 1.9-0.8 3.1-2.5 3.8 1.9 0.3 2.1 2.6 2.1 4.2 0 0.8 0.1 2.6 0.8 3.4h-4.6c-0.4-0.7-0.4-1.4-0.4-3 0-2.2-0.9-2.7-2.3-2.7h-5.3v5.7h-4.2v-15.6zm4.3 6.9h5.6c0.9 0 2-0.5 2-2 0-1.6-1.2-1.9-2.3-1.9h-5.3v3.9z"/>
			<path d="m46.2 89.4c8.4 0 9.7 5 9.7 8.2s-1.3 8.2-9.7 8.2-9.7-5-9.7-8.2 1.3-8.2 9.7-8.2zm0 13.5c3.9 0 5.2-2.8 5.2-5.3 0-2.4-1.4-5.3-5.2-5.3s-5.2 2.8-5.2 5.3 1.4 5.3 5.2 5.3z"/>
			<path d="m58 89.8h9.7c5.4 0 7.7 3.1 7.7 7.8s-2.4 7.8-7.3 7.8h-10.1v-15.6zm4.3 12.7h4.7c2.8 0 4.1-1.7 4.1-5 0-2.9-1.2-4.7-4.5-4.7h-4.3v9.7z"/>
			<path d="m77.7 89.8h4.2v9c0 1.5 0.1 4.1 4 4.1s4-2.6 4-4.1v-9h4.2v10c0 1.8-0.2 6-8.2 6s-8.2-4.3-8.2-6v-10z"/>
			<path d="m110.1 95.7c-0.4-2.3-2.3-3.4-4.5-3.4-4 0-4.9 3.2-4.9 5.3s0.9 5.3 4.9 5.3c2.1 0 4-1 4.5-3.5h4.6c-0.5 4.6-4.3 6.4-9.2 6.4-5.7 0-9.2-2.5-9.2-8.2 0-5.8 3.5-8.2 9.2-8.2 3.8 0 8.6 1 9.2 6.3h-4.6z"/>
			<path d="m121 92.8h-5.8v-3h15.8v3h-5.8v12.6h-4.2v-12.6z"/>
			<path d="m143.1 94.3c-0.3-2-2.2-2.3-3.9-2.3-1.8 0-2.9 0.8-2.9 1.8 0 0.8 0.7 1.3 1.8 1.5l5.3 0.9c2.8 0.5 5 1.5 5 4.4s-2 5.3-8.1 5.3c-3.8 0-8.8-0.5-8.8-5.4h4.8c0 2.1 2.2 2.5 4 2.5 2 0 3.3-0.6 3.3-1.9 0-1.2-1-1.5-2.6-1.8l-3.9-0.6c-2.7-0.4-5.3-1.2-5.3-4.4 0-3.5 2.8-4.9 7.7-4.9 3.2 0 8 0.5 8.3 5h-4.7z"/>
	<path class="st0" d="m0 80.9c66.5-66.6 227.4-47.2 227.4-47.2v13.8s-124.8-17-209.4 33.4h-18z"/>
	<rect y="89.8" x="153.2" height="15.7" class="st0" width="79"/>
	<path d="m240.8 0.9h-2.1v5.7h-1.1v-5.7h-2.1v-0.9h5.2v0.9zm8.5 5.7h-1.1v-5.5l-2.2 5.5h-0.7l-2.2-5.5v5.5h-1.1v-6.6h1.7l2 5 1.9-5h1.7v6.6z"/>
</svg>
