<?xml version="1.0" encoding="utf-8"?>
<!-- Generator: Adobe Illustrator 25.3.1, SVG Export Plug-In . SVG Version: 6.00 Build 0)  -->
<svg version="1.1" id="Layer_1" xmlns="http://www.w3.org/2000/svg" xmlns:xlink="http://www.w3.org/1999/xlink" x="0px" y="0px"
	 viewBox="0 0 2563.74 659.22" style="enable-background:new 0 0 2563.74 659.22;" xml:space="preserve">
<style type="text/css">
	.st0{fill:#1657F5;}
	.st1{fill:#15C7F4;}
</style>
<g>
	<g>
		<path class="st0" d="M851.61,193.03c38.91,0,64.25,12.49,89.6,31.41l-22.85,42.12c-18.2-13.92-38.19-24.27-66.4-24.27
			c-50.69,0-81.39,34.98-81.39,79.6s30.7,79.6,81.39,79.6c28.2,0,48.19-10.35,66.4-24.27l22.85,42.12
			c-25.34,18.92-50.69,31.41-89.6,31.41c-84.6,0-137.07-59.26-137.07-128.86S767.01,193.03,851.61,193.03z"/>
		<path class="st0" d="M1022.94,303.68c6.07-33.2,34.27-43.91,50.33-43.91c6.07,0,7.85,0.36,13.56,1.43v52.47
			c-7.5-1.78-17.13-2.5-22.49-2.5c-19.99,0-39.98,11.78-39.98,36.05v99.59h-53.19V263.7h51.76V303.68z"/>
		<path class="st0" d="M1242.47,263.7h58.54L1182.5,530.36h-53.54l41.76-98.88L1095.4,263.7h59.97l43.55,114.58L1242.47,263.7z"/>
		<path class="st0" d="M1326.7,530.36V263.7h53.19v26.77c13.21-18.92,30.7-30.7,57.47-30.7c55.69,0,89.24,42.84,89.24,96.38
			c0,51.4-31.05,94.59-88.17,94.59c-24.63,0-46.05-12.14-58.54-28.91v108.52H1326.7z M1426.29,302.97
			c-26.06,0-47.83,16.78-47.83,49.97c0,33.91,20.35,54.62,49.26,54.62c29.27,0,45.69-23.56,45.69-51.76
			C1473.41,326.53,1455.56,302.97,1426.29,302.97z"/>
	</g>
	<g>
		<polygon class="st1" points="658.45,321.09 466.21,128.86 466.11,128.97 466.01,128.86 273.78,321.09 313.54,360.85 
			466.11,208.28 579.08,321.25 426.46,473.87 466.21,513.63 658.45,321.4 658.29,321.25 		"/>
		<polygon class="st0" points="128.86,321.4 321.09,513.63 321.2,513.53 321.3,513.63 513.53,321.4 473.77,281.64 321.2,434.22 
			208.23,321.25 360.85,168.62 321.09,128.86 128.86,321.09 129.02,321.25 		"/>
	</g>
	<g>
		<g>
			<path class="st1" d="M2324.04,379.7c5.24,20.63,23.43,26.92,37.76,26.92c11.54,0,23.43-4.54,23.43-13.64
				c0-5.94-3.5-10.14-13.29-13.64l-31.46-13.29c-42.66-15.03-44.75-43.35-44.75-51.39c0-36.01,31.81-54.89,70.27-54.89
				c20.63,0,47.9,5.59,64.68,37.76l-40.21,18.53c-4.55-14.33-17.48-17.13-25.52-17.13c-9.79,0-19.93,5.59-19.93,14.68
				c0,7.69,7.69,11.89,16.78,15.38l26.92,10.49c42.3,12.24,46.15,39.86,46.15,51.74c0,36.71-33.91,55.59-73.42,55.59
				c-26.57,0-62.93-8.39-75.17-45.8L2324.04,379.7z"/>
		</g>
		<path class="st1" d="M1901.04,414.7c-26.06,28.56-60.68,36.05-85.31,36.05c-67.82,0-104.95-42.48-104.95-94.59
			c0-53.9,42.12-96.38,101.02-96.38c50.69,0,99.23,34.98,99.23,107.8h-147.42c1.07,22.85,22.13,39.62,56.04,39.62
			c18.92,0,37.84-9.64,50.69-21.77L1901.04,414.7z M1764.68,335.45h91.74c-3.57-23.56-27.49-32.48-45.33-32.48
			C1793.96,302.97,1771.11,310.82,1764.68,335.45z"/>
		<path class="st1" d="M1993.85,303.68c6.07-33.2,34.27-43.91,50.33-43.91c6.07,0,7.85,0.36,13.56,1.43v52.47
			c-7.5-1.78-17.13-2.5-22.49-2.5c-19.99,0-39.98,11.78-39.98,36.05v99.59h-53.19V263.7h51.76V303.68z"/>
		<path class="st1" d="M2085.23,263.7h53.19v24.99c15.35-21.42,34.62-28.91,56.76-28.91c51.4,0,65.32,41.05,65.32,87.46v99.59
			h-53.19V348.3c0-25.34-9.28-44.62-33.91-44.62c-24.63,0-34.98,19.63-34.98,44.98v98.16h-53.19V263.7z"/>
		<path class="st1" d="M1588.46,450.75V296.51h-44.18v-45.73h44.18v-53.48h53.48v53.48h51.16v45.73h-51.16v154.24H1588.46z"/>
	</g>
</g>
</svg>
