<svg id="Layer_1" data-name="Layer 1" xmlns="http://www.w3.org/2000/svg" viewBox="0 0 300 82"><defs><style>.cls-1{fill:#ffcc09;}</style></defs><title>Untitled-2</title><path class="cls-1" d="M143.14,37.56C137.93,27.05,130,21.84,119.38,21.84h-2.83a26.1,26.1,0,0,0-14.36,4.54A28,28,0,0,0,90.75,49.71v3l.37,5.08c3.6,15.25,12.7,22.79,27.11,22.79a31.15,31.15,0,0,0,10.65-1.82c11.22-5,16.83-14.21,16.83-27.58A39.41,39.41,0,0,0,143.14,37.56ZM113.53,67.37c-6-2.55-9-7.76-9-15.9v-.2a34,34,0,0,1,.89-7.23c2.58-6.52,6.67-9.86,12.4-9.86a15.63,15.63,0,0,1,4.54.74c6,2.59,9.28,7.83,9.28,16V52a21.6,21.6,0,0,1-1,6.64c-2.5,6.49-6.59,9.71-12.46,9.71A16.15,16.15,0,0,1,113.53,67.37Z"/><path class="cls-1" d="M78.92,79v-75a1.7,1.7,0,0,0-1.83-1.78H67c-1.2,0-1.67.79-1.67,1.9v74.7c0,1.07.42,1.87,1.68,1.87H77A1.69,1.69,0,0,0,78.92,79Z"/><path class="cls-1" d="M12,3.69H2.26C.87,3.69.47,4.42.47,5.44V53.09L.85,59C1.24,63.77,3.91,68.19,7,71.89c7,8.28,14,8.74,21.18,8.74A29.9,29.9,0,0,0,39,78.42c10-5.24,14.89-14,14.89-26.12V50.61a33.71,33.71,0,0,0-2-11.5C47.41,27.68,39.4,21.91,28,21.91c-6.1,0-10.8,1.57-14.3,4.41V5.56C13.71,4.2,13,3.69,12,3.69ZM21.8,67.38c-5.52-2.61-8.29-7.58-8.29-15.23V50.48L14,45.73c2-7.68,5.84-11.29,12.15-11.29a16.37,16.37,0,0,1,5.2.71c5.83,2.56,8.72,7.68,8.72,15.69A30.15,30.15,0,0,1,39.22,58c-1.86,7-5.43,10.22-11.21,10.22C27.21,68.25,23.64,68.32,21.8,67.38Z"/><path class="cls-1" d="M280.13,35.75c1.4.38,6.52,1.73,6.52,14.78V78.77a1.64,1.64,0,0,0,1.7,1.86h9.87A1.65,1.65,0,0,0,300,78.87v-32a30.76,30.76,0,0,0-1.48-9.15c-4.15-10.59-11.39-15.88-21.58-15.88h-1.16a20.82,20.82,0,0,0-16.31,7.33,22.18,22.18,0,0,0-17-7.33h-.58a23.18,23.18,0,0,0-13.23,4.09c-6.59,5.51-9.83,12.24-9.83,20.15V78.85a1.72,1.72,0,0,0,1.75,1.78h9.9c1.25,0,1.7-.85,1.7-1.86V49.17a26.67,26.67,0,0,1,.7-6.61c1.53-5,4.58-7.37,9.59-7.37a11.8,11.8,0,0,1,4.21.79c3.88,2,5.87,5.65,5.87,11.24V78.76a1.75,1.75,0,0,0,1.69,1.87h10.34a1.76,1.76,0,0,0,1.68-1.87V46.64l.41-3.24c1.34-5.52,4.43-8.21,9.68-8.21A14.11,14.11,0,0,1,280.13,35.75Z"/><path class="cls-1" d="M207.4,37.56c-5.21-10.51-13.17-15.72-23.75-15.72h-2.84a26.12,26.12,0,0,0-14.36,4.54A28,28,0,0,0,155,49.71v3l.37,5.08c3.6,15.25,12.7,22.79,27.11,22.79a31.17,31.17,0,0,0,10.66-1.82C204.36,73.86,210,64.6,210,51.23A39.18,39.18,0,0,0,207.4,37.56ZM177.79,67.37c-6-2.55-9-7.76-9-15.9v-.2a34,34,0,0,1,.89-7.23c2.58-6.52,6.67-9.86,12.4-9.86a15.63,15.63,0,0,1,4.54.74c6.05,2.59,9.28,7.83,9.28,16V52a21.31,21.31,0,0,1-1,6.64c-2.5,6.49-6.59,9.71-12.46,9.71A16.22,16.22,0,0,1,177.79,67.37Z"/></svg>