<svg fill="none" viewBox="0 0 160 40" xmlns="http://www.w3.org/2000/svg" xmlns:xlink="http://www.w3.org/1999/xlink"><clipPath id="a"><path d="m0 0h160v40h-160z"/></clipPath><g clip-path="url(#a)" fill="#0061d3"><path d="m21 19c10.493 0 19-8.507 19-19h-19zm0 21c10.493 0 19-8.507 19-19h-19zm-2-19c-10.493 0-19 8.507-19 19h19zm0-21c-10.493 0-19 8.507-19 19h19zm33.88 25.307c.072.803.403 1.51.994 2.119.591.61 1.454.914 2.588.914.868 0 1.526-.201 1.972-.603.447-.401.67-.882.67-1.443 0-.486-.17-.9-.508-1.242-.338-.341-.857-.583-1.556-.73l-2.606-.583c-1.569-.342-2.75-.98-3.547-1.918-.796-.936-1.193-2.027-1.193-3.269 0-.779.169-1.516.507-2.21a5.945 5.945 0 0 1 1.376-1.826 6.56 6.56 0 0 1 2.045-1.242 6.99 6.99 0 0 1 2.55-.458c1.23 0 2.262.176 3.095.53.833.352 1.513.785 2.045 1.296.53.512.922 1.052 1.177 1.625.253.572.416 1.077.489 1.516l-3.547 1.022a5.274 5.274 0 0 0 -.253-.838 2.622 2.622 0 0 0 -.561-.877 3.114 3.114 0 0 0 -.976-.675c-.398-.184-.887-.274-1.467-.274-.75 0-1.357.2-1.827.602s-.707.884-.707 1.443c0 .488.156.89.47 1.207.313.317.748.537 1.304.657l2.678.547c1.666.366 2.926 1.029 3.782 1.991.856.963 1.284 2.102 1.284 3.415 0 .682-.14 1.36-.416 2.027a5.66 5.66 0 0 1 -1.231 1.828c-.543.548-1.236.992-2.082 1.334-.844.341-1.822.512-2.932.512-1.279 0-2.364-.182-3.257-.548-.894-.366-1.628-.822-2.208-1.37-.578-.548-1.013-1.131-1.303-1.752s-.46-1.188-.508-1.698zm19.759-11.945h3.654v3.762h-3.653v8.257c0 .778.18 1.345.542 1.698.363.353.928.529 1.701.529.29 0 .578-.017.868-.054.29-.038.484-.066.58-.092v3.507a9.04 9.04 0 0 1 -.797.238c-.41.109-1.002.163-1.773.163-1.642 0-2.932-.463-3.873-1.388-.94-.925-1.41-2.23-1.41-3.909v-8.949h-3.258v-3.762h.906c.94 0 1.628-.266 2.063-.803.435-.535.653-1.193.653-1.972v-2.667h3.8v5.442h-.002zm14.801-.548c1.327 0 2.544.238 3.654.713a8.925 8.925 0 0 1 2.897 1.972 9.03 9.03 0 0 1 1.918 2.978c.457 1.145.688 2.398.688 3.762s-.23 2.625-.688 3.781a8.95 8.95 0 0 1 -1.919 2.995 8.856 8.856 0 0 1 -2.896 1.972c-1.11.475-2.329.713-3.654.713-1.303 0-2.516-.238-3.636-.713a8.629 8.629 0 0 1 -2.897-1.972 9.09 9.09 0 0 1 -1.9-2.995c-.459-1.156-.687-2.416-.687-3.78 0-1.365.228-2.618.687-3.763a9.163 9.163 0 0 1 1.9-2.978 8.658 8.658 0 0 1 2.897-1.972c1.12-.477 2.332-.713 3.636-.713zm0 15.087c.652 0 1.273-.122 1.864-.366a4.626 4.626 0 0 0 1.575-1.078c.457-.474.82-1.065 1.085-1.77.264-.708.398-1.523.398-2.45 0-.925-.134-1.735-.398-2.428-.266-.694-.628-1.28-1.085-1.752a4.427 4.427 0 0 0 -1.575-1.06 5.079 5.079 0 0 0 -1.864-.348c-.653 0-1.274.117-1.865.348a4.226 4.226 0 0 0 -1.556 1.06c-.446.475-.809 1.058-1.086 1.752-.277.695-.416 1.503-.416 2.428 0 .926.14 1.742.416 2.45.277.707.64 1.296 1.086 1.77.446.475.965.834 1.556 1.078a4.844 4.844 0 0 0 1.865.366zm20.158-11.178c-.653 0-1.268.122-1.846.366a4.554 4.554 0 0 0 -1.537 1.06c-.447.463-.803 1.036-1.067 1.717-.266.683-.398 1.475-.398 2.373 0 .903.132 1.699.398 2.393.265.694.62 1.28 1.067 1.752.446.475.97.835 1.574 1.078a4.978 4.978 0 0 0 1.881.366c.675 0 1.274-.11 1.792-.329.519-.22.952-.493 1.304-.822.349-.328.633-.68.851-1.058.216-.377.374-.736.47-1.077l3.692 1.35a8.597 8.597 0 0 1 -.976 2.084 8.251 8.251 0 0 1 -1.647 1.863c-.663.561-1.454 1.011-2.37 1.351-.916.342-1.954.512-3.112.512-1.303 0-2.509-.238-3.619-.713a8.543 8.543 0 0 1 -2.878-1.99 9.6 9.6 0 0 1 -1.918-2.995c-.47-1.145-.707-2.399-.707-3.763s.229-2.623.688-3.78a8.966 8.966 0 0 1 1.919-2.995 8.71 8.71 0 0 1 2.859-1.954c1.085-.463 2.267-.694 3.546-.694 1.183 0 2.231.17 3.15.512.916.342 1.713.786 2.388 1.334a6.868 6.868 0 0 1 1.629 1.88c.411.708.712 1.413.905 2.119l-3.764 1.389a5.702 5.702 0 0 0 -.452-1.188 3.72 3.72 0 0 0 -.833-1.077 4.183 4.183 0 0 0 -1.249-.768c-.485-.199-1.065-.296-1.74-.296zm20.447 4.164 7.381 10.264h-5.138l-5.175-7.27-2.171 2.303v4.968h-4.162v-26.448h4.162v15.854l6.766-7.196h5.573zm8.142 5.443c0-.803.139-1.51.416-2.118a5.174 5.174 0 0 1 1.121-1.59c.47-.45 1.032-.81 1.682-1.077a9.515 9.515 0 0 1 2.099-.583l4.525-.695c.507-.073.851-.225 1.032-.456.18-.23.271-.504.271-.822 0-.754-.266-1.394-.796-1.917-.531-.524-1.375-.785-2.533-.785-1.11 0-1.967.31-2.569.931-.605.621-.954 1.383-1.051 2.284l-3.835-.877a5.655 5.655 0 0 1 .688-2.191 6.573 6.573 0 0 1 1.521-1.864c.626-.534 1.381-.96 2.262-1.277.881-.316 1.865-.475 2.95-.475 1.352 0 2.502.184 3.456.548.952.366 1.725.854 2.316 1.462a5.675 5.675 0 0 1 1.303 2.118c.277.805.417 1.644.417 2.52v8.84c0 .803.03 1.456.091 1.953.059.5.102.798.126.895h-3.909c-.024-.048-.06-.26-.108-.64-.048-.377-.072-.919-.072-1.624-.411.68-1.062 1.32-1.954 1.917s-2.051.895-3.475.895c-.916 0-1.743-.146-2.479-.439-.737-.293-1.365-.687-1.882-1.188a5.23 5.23 0 0 1 -1.193-1.716 5.025 5.025 0 0 1 -.42-2.029zm6.768 2.045c.58 0 1.134-.078 1.666-.238.53-.157.994-.415 1.392-.767.398-.353.718-.822.959-1.408.242-.583.363-1.315.363-2.191v-.805l-4.595.694c-.651.122-1.207.372-1.664.749-.459.379-.688.93-.688 1.662 0 .61.217 1.145.652 1.608.432.466 1.069.696 1.915.696zm12.847 2.777v-26.448h4.198v26.447h-4.198v.002z"/></g></svg>