<svg width="36" height="44" viewBox="0 0 36 44" fill="none" xmlns="http://www.w3.org/2000/svg">
<path d="M32.0625 4.8125H27.375V3.25C27.375 2.4212 27.0458 1.62634 26.4597 1.04029C25.8737 0.45424 25.0788 0.125 24.25 0.125H11.75C10.9212 0.125 10.1263 0.45424 9.54029 1.04029C8.95424 1.62634 8.625 2.4212 8.625 3.25V4.8125H3.9375C3.1087 4.8125 2.31384 5.14174 1.72779 5.72779C1.14174 6.31384 0.8125 7.1087 0.8125 7.9375V40.75C0.8125 41.5788 1.14174 42.3737 1.72779 42.9597C2.31384 43.5458 3.1087 43.875 3.9375 43.875H32.0625C32.8913 43.875 33.6862 43.5458 34.2722 42.9597C34.8583 42.3737 35.1875 41.5788 35.1875 40.75V7.9375C35.1875 7.1087 34.8583 6.31384 34.2722 5.72779C33.6862 5.14174 32.8913 4.8125 32.0625 4.8125ZM11.75 3.25H24.25V9.5H11.75V3.25ZM32.0625 40.75H3.9375V7.9375H8.625V12.625H27.375V7.9375H32.0625V40.75Z" fill="#248EC8"/>
</svg>
