<svg width="40" height="40" viewBox="0 0 40 40" fill="none" xmlns="http://www.w3.org/2000/svg">
<path d="M17.5 25.0001C16.837 25.0001 16.2011 24.7367 15.7322 24.2678C15.2634 23.799 15 23.1631 15 22.5001V7.70757C11.2998 8.34443 7.97286 10.3453 5.67586 13.3153C3.37886 16.2852 2.27876 20.0084 2.59272 23.7499C2.90667 27.4913 4.61188 30.9791 7.37171 33.5247C10.1315 36.0703 13.7454 37.4888 17.5 37.5001C21.0452 37.5006 24.476 36.2455 27.1839 33.9573C29.8917 31.669 31.7016 28.4957 32.2925 25.0001H17.5ZM15.0075 5.17507C16.375 4.98007 17.5 6.12007 17.5 7.50007V22.5001H32.5C33.88 22.5001 35.02 23.6251 34.825 24.9926C34.1844 29.3644 31.9143 33.3322 28.4701 36.0999C25.0259 38.8676 20.6625 40.2305 16.2553 39.9151C11.8481 39.5996 7.7232 37.6292 4.70828 34.3992C1.69336 31.1692 0.0114427 26.9185 3.32757e-07 22.5001C-0.000820264 18.29 1.51611 14.2208 4.27261 11.0386C7.0291 7.85648 10.8404 5.7747 15.0075 5.17507ZM22.5 17.5001V2.50007C26.4782 2.50007 30.2936 4.08042 33.1066 6.89347C35.9196 9.70652 37.5 13.5218 37.5 17.5001H22.5ZM37.655 20.0001C38.9 20.0001 39.9725 19.0851 39.9975 17.8401L40 17.5001C40.0001 15.1733 39.5362 12.8698 38.6354 10.7244C37.7346 8.57903 36.415 6.63483 34.7539 5.00555C33.0927 3.37627 31.1233 2.09462 28.9608 1.23558C26.7984 0.376542 24.4864 -0.0426357 22.16 0.00257098C20.915 0.027571 20 1.10257 20 2.34507V17.5001C20 18.1631 20.2634 18.799 20.7322 19.2678C21.2011 19.7367 21.837 20.0001 22.5 20.0001H37.655Z" fill="#248EC8"/>
</svg>
