<svg width="44" height="44" viewBox="0 0 44 44" fill="none" xmlns="http://www.w3.org/2000/svg">
<path d="M9.69231 22.001V13.9091C9.71634 12.3185 10.054 10.7482 10.686 9.28837C11.3179 7.82849 12.2317 6.50765 13.3751 5.40153C14.5184 4.29542 15.8688 3.42576 17.3488 2.8424C18.8288 2.25903 20.4094 1.97343 22 2.00194C23.5906 1.97343 25.1712 2.25903 26.6512 2.8424C28.1312 3.42576 29.4816 4.29542 30.6249 5.40153C31.7683 6.50765 32.6821 7.82849 33.314 9.28837C33.946 10.7482 34.2837 12.3185 34.3077 13.9091V22.001M28.1538 38.154C29.7859 38.154 31.3512 37.5057 32.5053 36.3517C33.6593 35.1977 34.3077 33.6325 34.3077 32.0005V25.0777M28.1538 38.154C28.1538 39.174 27.7486 40.1523 27.0273 40.8735C26.306 41.5948 25.3278 42 24.3077 42H19.6923C18.6722 42 17.694 41.5948 16.9727 40.8735C16.2514 40.1523 15.8462 39.174 15.8462 38.154C15.8462 37.134 16.2514 36.1558 16.9727 35.4345C17.694 34.7133 18.6722 34.3081 19.6923 34.3081H24.3077C25.3278 34.3081 26.306 34.7133 27.0273 35.4345C27.7486 36.1558 28.1538 37.134 28.1538 38.154ZM5.07692 17.3858H8.15385C8.56187 17.3858 8.95319 17.5479 9.2417 17.8364C9.53022 18.1249 9.69231 18.5162 9.69231 18.9242V28.1545C9.69231 28.5625 9.53022 28.9538 9.2417 29.2423C8.95319 29.5308 8.56187 29.6929 8.15385 29.6929H5.07692C4.26087 29.6929 3.47824 29.3687 2.90121 28.7917C2.32417 28.2147 2 27.4321 2 26.6161V20.4626C2 19.6466 2.32417 18.864 2.90121 18.287C3.47824 17.71 4.26087 17.3858 5.07692 17.3858ZM38.9231 29.6929H35.8462C35.4381 29.6929 35.0468 29.5308 34.7583 29.2423C34.4698 28.9538 34.3077 28.5625 34.3077 28.1545V18.9242C34.3077 18.5162 34.4698 18.1249 34.7583 17.8364C35.0468 17.5479 35.4381 17.3858 35.8462 17.3858H38.9231C39.7391 17.3858 40.5218 17.71 41.0988 18.287C41.6758 18.864 42 19.6466 42 20.4626V26.6161C42 27.4321 41.6758 28.2147 41.0988 28.7917C40.5218 29.3687 39.7391 29.6929 38.9231 29.6929Z" stroke="#248EC8" stroke-width="2.5" stroke-linecap="round" stroke-linejoin="round"/>
</svg>
