<svg width="44" height="44" viewBox="0 0 44 44" fill="none" xmlns="http://www.w3.org/2000/svg">
<path d="M40.75 0.125H3.25C2.42145 0.125827 1.62708 0.455333 1.0412 1.0412C0.455333 1.62708 0.125827 2.42145 0.125 3.25V40.75C0.125827 41.5785 0.455333 42.3729 1.0412 42.9588C1.62708 43.5447 2.42145 43.8742 3.25 43.875H40.75C41.5784 43.8738 42.3726 43.5441 42.9583 42.9583C43.5441 42.3726 43.8738 41.5784 43.875 40.75V3.25C43.8742 2.42145 43.5447 1.62708 42.9588 1.0412C42.3729 0.455333 41.5785 0.125827 40.75 0.125ZM40.75 14.1875H18.875V3.25H40.75V14.1875ZM15.75 3.25V14.1875H3.25V3.25H15.75ZM3.25 40.75V17.3125H40.75L40.7531 40.75H3.25Z" fill="#24B768"/>
</svg>
