<svg width="39" height="37" viewBox="0 0 39 37" fill="none" xmlns="http://www.w3.org/2000/svg">
<path d="M1.05808 35.7608L1.09824 35.9082H1.25104H4.37604H4.57604V35.7082V30.9416V30.4628L4.23547 30.7993L0.750057 34.2431L0.666947 34.3252L0.697658 34.4379L1.05808 35.7608ZM10.426 35.7082V35.9082H10.626H12.7094H12.9094V35.7082V22.6082V22.1254L12.568 22.4668L10.4846 24.5501L10.426 24.6087V24.6916V35.7082ZM18.7594 35.7082V35.9082H18.9594H21.0427H21.2427V35.7082V24.7437V24.6623L21.1859 24.604L19.1025 22.4686L18.7594 22.1168V22.6082V35.7082ZM27.0927 35.7082V35.9082H27.2927H29.376H29.576V35.7082V22.6603V22.1775L29.2346 22.5189L27.1513 24.6022L27.0927 24.6608V24.7437V35.7082ZM35.426 35.7082V35.9082H35.626H37.7094H37.9094V35.7082V14.2749V13.7921L37.568 14.1335L35.4846 16.2168L35.426 16.2754V16.3582V35.7082ZM2.09271 23.4437V23.9265L2.43413 23.5851L15.8344 10.1848L24.0263 18.3767L24.1677 18.5182L24.3091 18.3767L37.8508 4.83507L37.9094 4.7765V4.69365V1.7749V1.29206L37.568 1.63348L24.1677 15.0337L15.9758 6.84181L15.8344 6.70039L15.693 6.84181L2.15129 20.3835L2.09271 20.4421V20.5249V23.4437Z" fill="#F1553F" stroke="#F1553F" stroke-width="0.4"/>
</svg>
