<svg width="45" height="42" viewBox="0 0 45 42" fill="none" xmlns="http://www.w3.org/2000/svg">
<path d="M21 38.1875C15.375 38.1875 9.90625 35.375 6.625 30.375H14.75V27.25H2.25V39.75H5.375V33.9688C9.28125 38.6562 14.9062 41.3125 21 41.3125V38.1875ZM44.4375 31.9375V28.8125H41.1562C41 27.875 40.5312 26.9375 40.0625 26L42.4062 23.6563L40.2188 21.4687L37.875 23.8125C37.0938 23.3437 36.1562 22.875 35.0625 22.7188V19.4375H31.9375V22.7188C31 22.875 30.0625 23.3437 29.125 23.8125L26.7813 21.4687L24.5937 23.6563L26.9375 26C26.4687 26.7813 26 27.7188 25.8438 28.8125H22.5625V31.9375H25.8438C26 32.875 26.4687 33.8125 26.9375 34.75L24.5937 37.0938L26.7813 39.2812L29.125 36.9375C29.9063 37.4062 30.8438 37.875 31.9375 38.0312V41.3125H35.0625V38.0312C36 37.875 36.9375 37.4062 37.875 36.9375L40.2188 39.2812L42.4062 37.0938L40.0625 34.75C40.5312 33.9688 41 33.0312 41.1562 31.9375H44.4375ZM33.5 35.0625C30.8438 35.0625 28.8125 33.0312 28.8125 30.375C28.8125 27.7188 30.8438 25.6875 33.5 25.6875C36.1562 25.6875 38.1875 27.7188 38.1875 30.375C38.1875 33.0312 36.1562 35.0625 33.5 35.0625ZM27.25 11.625H35.375C30.2188 3.65625 19.5938 1.46875 11.625 6.625C6.78125 9.75 3.8125 15.2188 3.8125 21H0.6875C0.6875 9.75 9.75 0.6875 21 0.6875C27.0938 0.6875 32.7188 3.34375 36.625 8.03125V2.25H39.75V14.75H27.25V11.625Z" fill="#24B768"/>
</svg>
