<svg width="38" height="38" viewBox="0 0 38 38" fill="none" xmlns="http://www.w3.org/2000/svg">
<path d="M28.2 15.6288C29.5337 15.6288 30.8128 15.099 31.7559 14.1559M28.2 15.6288C26.8663 15.6288 25.5872 15.099 24.6441 14.1559M28.2 15.6288V19.4M31.7559 14.1559C32.699 13.2129 33.2288 11.9338 33.2288 10.6M31.7559 14.1559L34.4224 16.8224M33.2288 10.6C33.2288 9.26633 32.699 7.98723 31.7559 7.04415M33.2288 10.6H37M31.7559 7.04415C30.8128 6.10107 29.5337 5.57125 28.2 5.57125M31.7559 7.04415L34.4224 4.37765M28.2 5.57125C26.8663 5.57125 25.5872 6.10107 24.6441 7.04415M28.2 5.57125V1.80005M24.6441 7.04415C23.701 7.98723 23.1712 9.26633 23.1712 10.6M24.6441 7.04415L21.9776 4.37765M23.1712 10.6C23.1712 11.9338 23.701 13.2129 24.6441 14.1559M23.1712 10.6H19.4M24.6441 14.1559L21.9776 16.8224M27.3616 1.80005H29.0384M33.8304 3.78565L35.0144 4.96965M37 9.76165V11.4384M35.0144 16.2304L33.8304 17.4144M29.0384 19.4H27.3616M22.5696 17.4144L21.3856 16.2304M19.4 11.4384V9.76165M21.3856 4.96965L22.5696 3.78565M11.8 23.8L14.4768 21.792C14.7499 21.587 15.0619 21.4398 15.3938 21.3595C15.7257 21.2793 16.0706 21.2676 16.4071 21.3253C16.7437 21.383 17.065 21.5087 17.3513 21.6949C17.6375 21.8811 17.8828 22.1238 18.072 22.408C18.3467 22.8203 18.4933 23.3046 18.4933 23.8C18.4933 24.2955 18.3467 24.7798 18.072 25.192L15.44 29.1392C14.6312 30.3517 13.4735 31.2901 12.12 31.8304L8.2 33.4M13 15.4L7.248 17.8656C5.54855 18.5936 4.19423 19.9473 3.4656 21.6464L1.5824 26.04C1.19793 26.9369 0.999782 27.9026 1 28.8784V37" stroke="#F1553F" stroke-width="2" stroke-linecap="round" stroke-linejoin="round"/>
<path d="M37 22.6V33.4C37 34.3548 36.6207 35.2705 35.9456 35.9456C35.2705 36.6207 34.3548 37 33.4 37H16.6C15.6452 37 14.7295 36.6207 14.0544 35.9456C13.3793 35.2705 13 34.3548 13 33.4V31.408M13 22.8992V4.6C13 3.64522 13.3793 2.72955 14.0544 2.05442C14.7295 1.37928 15.6452 1 16.6 1H19.4" stroke="#F1553F" stroke-width="2" stroke-linecap="round" stroke-linejoin="round"/>
</svg>
