<svg width="48" height="47" viewBox="0 0 48 47" fill="none" xmlns="http://www.w3.org/2000/svg">
<path d="M37.5827 18.8334V2.16675H12.5827V27.1667H27.166V12.5834H2.16602V37.5834H18.8327M27.166 45.9167L39.666 33.4167M41.7493 27.1667C40.9253 27.1667 40.1197 27.4111 39.4345 27.869C38.7493 28.3268 38.2152 28.9775 37.8998 29.7389C37.5845 30.5003 37.502 31.338 37.6627 32.1463C37.8235 32.9545 38.2204 33.697 38.8031 34.2797C39.3858 34.8624 40.1282 35.2592 40.9365 35.42C41.7447 35.5808 42.5825 35.4983 43.3439 35.1829C44.1052 34.8675 44.756 34.3335 45.2138 33.6483C45.6716 32.9631 45.916 32.1575 45.916 31.3334" stroke="#F1553F" stroke-width="3"/>
</svg>
