<svg width="30" height="22" viewBox="0 0 30 22" fill="none" xmlns="http://www.w3.org/2000/svg">
<path d="M26.5278 0.594682C26.4446 0.511279 26.3457 0.445142 26.2368 0.400068C26.128 0.354994 26.0113 0.331873 25.8935 0.332032H4.10535C3.87585 0.332032 3.64605 0.419782 3.47085 0.594682C3.38749 0.67797 3.32138 0.776886 3.27631 0.885764C3.23124 0.994643 3.2081 1.11134 3.2082 1.22918V16.2245H26.7909V1.22918C26.7909 1.11132 26.7677 0.994608 26.7225 0.885732C26.6774 0.776856 26.6112 0.677952 26.5278 0.594682ZM14.9996 0.834232C15.0704 0.834232 15.1383 0.86237 15.1884 0.912457C15.2385 0.962543 15.2666 1.03047 15.2666 1.10131C15.2666 1.17214 15.2385 1.24007 15.1884 1.29016C15.1383 1.34024 15.0704 1.36838 14.9996 1.36838C14.9287 1.36838 14.8608 1.34024 14.8107 1.29016C14.7606 1.24007 14.7325 1.17214 14.7325 1.10131C14.7325 1.03047 14.7606 0.962543 14.8107 0.912457C14.8608 0.86237 14.9287 0.834232 14.9996 0.834232ZM25.2527 14.6866H4.74615V1.87013H25.2527V14.6866ZM3.2082 16.8442L0.09375 19.9496C0.0489949 19.9945 0.0185209 20.0515 0.00617451 20.1137C-0.00617187 20.1758 0.000162877 20.2402 0.0243791 20.2987C0.0485954 20.3572 0.0896076 20.4073 0.142239 20.4425C0.19487 20.4777 0.256761 20.4966 0.3201 20.4967H29.679C29.7424 20.4968 29.8045 20.4781 29.8573 20.4429C29.9101 20.4077 29.9512 20.3577 29.9755 20.299C29.9998 20.2404 30.0061 20.1759 29.9936 20.1137C29.9812 20.0515 29.9505 19.9944 29.9055 19.9496L26.7909 16.8442H3.2082ZM26.6292 18.5998C26.6612 18.637 26.6818 18.6826 26.6886 18.7312C26.6954 18.7797 26.6882 18.8292 26.6677 18.8738C26.6472 18.9183 26.6143 18.956 26.573 18.9824C26.5317 19.0088 26.4837 19.0228 26.4346 19.0228H18.096L18.1428 19.2371C18.1523 19.2809 18.1428 19.3285 18.1125 19.3664C18.0979 19.3842 18.0796 19.3985 18.0589 19.4083C18.0381 19.4181 18.0155 19.4233 17.9925 19.4233H12.0062C11.9616 19.4233 11.9172 19.4036 11.8865 19.3664C11.8563 19.3285 11.8465 19.2809 11.8563 19.2371L11.9031 19.0228H3.56415C3.51516 19.0227 3.46722 19.0087 3.42599 18.9822C3.38475 18.9558 3.35196 18.9181 3.33149 18.8736C3.31102 18.829 3.30373 18.7796 3.31049 18.7311C3.31724 18.6826 3.33775 18.637 3.3696 18.5998L4.21725 17.6132H25.7816L26.6292 18.5998ZM29.6789 20.6893H17.5955C17.5687 20.7512 17.5244 20.8039 17.468 20.8409C17.4115 20.8779 17.3455 20.8975 17.2781 20.8973H12.7211C12.6536 20.8973 12.5876 20.8777 12.5311 20.8407C12.4746 20.8037 12.4302 20.7511 12.4032 20.6893H0.3201C0.20356 20.6891 0.0905924 20.649 0 20.5757V20.8975C0 21.0941 0.07515 21.2911 0.22515 21.4409C0.296424 21.5125 0.381163 21.5693 0.474484 21.6081C0.567805 21.6468 0.667865 21.6667 0.7689 21.6665H29.2299C29.3309 21.6667 29.4309 21.6469 29.5242 21.6081C29.6175 21.5694 29.7022 21.5126 29.7734 21.4409C29.845 21.3697 29.9018 21.2851 29.9405 21.1918C29.9793 21.0985 29.9991 20.9985 29.999 20.8975V20.5757C29.9083 20.649 29.7954 20.6891 29.6789 20.6893ZM2.71035 21.3457C2.68833 21.3456 2.66653 21.3413 2.6462 21.3328C2.62587 21.3243 2.6074 21.312 2.59186 21.2964C2.56046 21.2648 2.54287 21.2222 2.54295 21.1777C2.54303 21.1332 2.56077 21.0906 2.59228 21.0592C2.62379 21.0278 2.66647 21.0102 2.71095 21.0103C2.75543 21.0104 2.79805 21.0281 2.82944 21.0596C2.86084 21.0911 2.87843 21.1338 2.87835 21.1783C2.87827 21.2228 2.86053 21.2654 2.82902 21.2968C2.79751 21.3282 2.75483 21.3458 2.71035 21.3457ZM3.51645 21.3457C3.49441 21.3456 3.47259 21.3413 3.45224 21.3328C3.43189 21.3243 3.41341 21.3119 3.39785 21.2963C3.38229 21.2807 3.36996 21.2622 3.36156 21.2418C3.35316 21.2214 3.34886 21.1996 3.3489 21.1775C3.34894 21.1555 3.35332 21.1337 3.36179 21.1133C3.37026 21.093 3.38266 21.0745 3.39827 21.0589C3.41389 21.0434 3.43241 21.031 3.45279 21.0226C3.47317 21.0142 3.49501 21.0099 3.51705 21.01C3.56157 21.0101 3.60423 21.0278 3.63565 21.0594C3.66707 21.0909 3.68468 21.1336 3.6846 21.1781C3.68452 21.2226 3.66676 21.2653 3.63523 21.2967C3.60369 21.3282 3.56097 21.3458 3.51645 21.3457ZM4.32285 21.3457C4.27956 21.3439 4.23865 21.3254 4.20867 21.2941C4.17869 21.2628 4.16195 21.2212 4.16195 21.1778C4.16195 21.1345 4.17869 21.0929 4.20867 21.0616C4.23865 21.0303 4.27956 21.0118 4.32285 21.01C4.36737 21.01 4.41006 21.0277 4.44154 21.0591C4.47302 21.0906 4.4907 21.1333 4.4907 21.1778C4.4907 21.2223 4.47302 21.265 4.44154 21.2965C4.41006 21.328 4.36737 21.3457 4.32285 21.3457Z" fill="#248EC8"/>
<path d="M9.94259 13.2361H8.14844V11.354C8.14842 11.3288 8.15337 11.3038 8.16301 11.2805C8.17264 11.2572 8.18678 11.236 8.20461 11.2181C8.22244 11.2003 8.24361 11.1861 8.26692 11.1764C8.29022 11.1667 8.3152 11.1617 8.34044 11.1617H9.75029C9.77554 11.1617 9.80055 11.1667 9.82388 11.1763C9.84721 11.186 9.86841 11.2001 9.88625 11.218C9.9041 11.2359 9.91825 11.2571 9.92789 11.2804C9.93753 11.3038 9.94248 11.3288 9.94244 11.354L9.94259 13.2361ZM13.6273 13.2361H11.833V8.64622C11.8331 8.59522 11.8533 8.54632 11.8894 8.51024C11.9254 8.47416 11.9743 8.45385 12.0253 8.45377H13.4349C13.4602 8.45369 13.4852 8.45862 13.5086 8.46826C13.532 8.4779 13.5533 8.49208 13.5711 8.50996C13.589 8.52785 13.6032 8.5491 13.6128 8.57248C13.6225 8.59587 13.6274 8.62093 13.6273 8.64622V13.2361ZM17.3128 13.2361H15.5181V10.1201C15.5181 10.0711 15.5368 10.0216 15.5745 9.98422C15.6118 9.94672 15.6612 9.92782 15.7101 9.92782H17.1201C17.1711 9.9279 17.22 9.94818 17.2561 9.98422C17.2922 10.0203 17.3125 10.0691 17.3127 10.1201L17.3128 13.2361ZM21.4852 6.77212C21.5203 6.77215 21.5546 6.76262 21.5846 6.74455C21.6146 6.72648 21.6391 6.70057 21.6554 6.6696C21.6718 6.63863 21.6794 6.60379 21.6774 6.56883C21.6754 6.53387 21.6639 6.50012 21.6441 6.47122L20.2588 4.44127C20.2413 4.4154 20.2176 4.39423 20.19 4.37961C20.1624 4.36499 20.1316 4.35737 20.1003 4.35742C20.0343 4.35742 19.9756 4.39027 19.9411 4.44127L18.5557 6.47122C18.536 6.50011 18.5245 6.53385 18.5225 6.56879C18.5204 6.60374 18.528 6.63857 18.5443 6.66953C18.5607 6.70049 18.5851 6.72641 18.6151 6.74449C18.6451 6.76257 18.6794 6.77212 18.7144 6.77212H19.2028V13.2361H20.9973V6.77212H21.4852Z" fill="#248EC8"/>
<path d="M5.71103 13.7264V3.85612C5.7111 3.83522 5.70705 3.81452 5.69908 3.7952C5.69112 3.77588 5.67941 3.75833 5.66462 3.74356C5.64984 3.72879 5.63228 3.7171 5.61295 3.70915C5.59363 3.70121 5.57292 3.69717 5.55203 3.69727H5.54948C5.50883 3.69727 5.46803 3.71272 5.43743 3.74377C5.40593 3.77482 5.39062 3.81547 5.39062 3.85612V14.0467H24.4567C24.4776 14.0467 24.4983 14.0425 24.5175 14.0345C24.5368 14.0265 24.5544 14.0148 24.5691 14C24.5839 13.9852 24.5955 13.9676 24.6035 13.9483C24.6114 13.929 24.6155 13.9083 24.6154 13.8874V13.885C24.6154 13.8429 24.5987 13.8025 24.5689 13.7727C24.5391 13.743 24.4988 13.7263 24.4567 13.7263L5.71103 13.7264Z" fill="#248EC8"/>
</svg>
