<svg width="30" height="30" viewBox="0 0 30 30" fill="none" xmlns="http://www.w3.org/2000/svg">
<path d="M28.5 28H27V10.5C27 10.3674 26.9473 10.2402 26.8536 10.1464C26.7598 10.0527 26.6326 10 26.5 10H25V8.5C25 8.36739 24.9473 8.24021 24.8536 8.14645C24.7598 8.05268 24.6326 8 24.5 8H23V6.5C23 6.36739 22.9473 6.24021 22.8536 6.14645C22.7598 6.05268 22.6326 6 22.5 6H21.5V4.5C21.5 4.36739 21.4473 4.24021 21.3536 4.14645C21.2598 4.05268 21.1326 4 21 4C20.8674 4 20.7402 4.05268 20.6464 4.14645C20.5527 4.24021 20.5 4.36739 20.5 4.5V6H19.5C19.3674 6 19.2402 6.05268 19.1464 6.14645C19.0527 6.24021 19 6.36739 19 6.5V8H18V1.5C18 1.36739 17.9473 1.24021 17.8536 1.14645C17.7598 1.05268 17.6326 1 17.5 1H3.5C3.36739 1 3.24021 1.05268 3.14645 1.14645C3.05268 1.24021 3 1.36739 3 1.5V28H1.5C1.36739 28 1.24021 28.0527 1.14645 28.1464C1.05268 28.2402 1 28.3674 1 28.5C1 28.6326 1.05268 28.7598 1.14645 28.8536C1.24021 28.9473 1.36739 29 1.5 29H28.5C28.6326 29 28.7598 28.9473 28.8536 28.8536C28.9473 28.7598 29 28.6326 29 28.5C29 28.3674 28.9473 28.2402 28.8536 28.1464C28.7598 28.0527 28.6326 28 28.5 28ZM20 7H22V8H20V7ZM24 9V10H18V9H24ZM4 2H17V10H6.5C6.36739 10 6.24021 10.0527 6.14645 10.1464C6.05268 10.2402 6 10.3674 6 10.5C6 10.6326 6.05268 10.7598 6.14645 10.8536C6.24021 10.9473 6.36739 11 6.5 11H15V13H6.5C6.36739 13 6.24021 13.0527 6.14645 13.1464C6.05268 13.2402 6 13.3674 6 13.5C6 13.6326 6.05268 13.7598 6.14645 13.8536C6.24021 13.9473 6.36739 14 6.5 14H15V16H6.5C6.36739 16 6.24021 16.0527 6.14645 16.1464C6.05268 16.2402 6 16.3674 6 16.5C6 16.6326 6.05268 16.7598 6.14645 16.8536C6.24021 16.9473 6.36739 17 6.5 17H15V19H6.5C6.36739 19 6.24021 19.0527 6.14645 19.1464C6.05268 19.2402 6 19.3674 6 19.5C6 19.6326 6.05268 19.7598 6.14645 19.8536C6.24021 19.9473 6.36739 20 6.5 20H15V22H6.5C6.36739 22 6.24021 22.0527 6.14645 22.1464C6.05268 22.2402 6 22.3674 6 22.5C6 22.6326 6.05268 22.7598 6.14645 22.8536C6.24021 22.9473 6.36739 23 6.5 23H15V25H6.5C6.36739 25 6.24021 25.0527 6.14645 25.1464C6.05268 25.2402 6 25.3674 6 25.5C6 25.6326 6.05268 25.7598 6.14645 25.8536C6.24021 25.9473 6.36739 26 6.5 26H15V28H4V2ZM17.5 28H16V11H26V28H17.5Z" fill="white" stroke="white" stroke-width="0.75"/>
</svg>
