<svg width="30" height="30" viewBox="0 0 30 30" fill="none" xmlns="http://www.w3.org/2000/svg">
<g clip-path="url(#clip0_977_385)">
<path d="M22.3957 13.2292C25.2082 10.4167 25.384 7.07104 25.2961 5.57924C25.2815 5.35188 25.1845 5.13761 25.0234 4.97651C24.8623 4.8154 24.6481 4.71848 24.4207 4.70385C22.9289 4.61596 19.5855 4.7894 16.7707 7.60424L9.375 14.9999L15 20.6249L22.3957 13.2292Z" stroke="#248EC8" stroke-width="1.875" stroke-linecap="round" stroke-linejoin="round"/>
<path d="M15.936 8.4375H8.71136C8.46305 8.43762 8.22493 8.53623 8.04925 8.71172L4.02386 12.7371C3.90096 12.8603 3.81476 13.0152 3.77491 13.1846C3.73507 13.354 3.74314 13.5311 3.79824 13.6962C3.85334 13.8612 3.95328 14.0077 4.08688 14.1191C4.22048 14.2306 4.38247 14.3027 4.55472 14.3273L9.37347 15" stroke="#248EC8" stroke-width="1.875" stroke-linecap="round" stroke-linejoin="round"/>
<path d="M21.5625 14.0625V21.2871C21.5624 21.5354 21.4638 21.7735 21.2883 21.9492L17.2629 25.9746C17.1397 26.0975 16.9848 26.1837 16.8154 26.2236C16.646 26.2634 16.4689 26.2553 16.3038 26.2002C16.1388 26.1451 15.9923 26.0452 15.8809 25.9116C15.7694 25.778 15.6973 25.616 15.6727 25.4437L15 20.625" stroke="#248EC8" stroke-width="1.875" stroke-linecap="round" stroke-linejoin="round"/>
<path d="M11.0812 22.0094C10.6277 23.0043 9.09961 25.3117 4.6875 25.3117C4.6875 20.8996 6.99492 19.3715 7.98984 18.918" stroke="#248EC8" stroke-width="1.875" stroke-linecap="round" stroke-linejoin="round"/>
</g>
<defs>
<clipPath id="clip0_977_385">
<rect width="30" height="30" fill="white"/>
</clipPath>
</defs>
</svg>
