<svg width="28" height="34" viewBox="0 0 28 34" fill="none" xmlns="http://www.w3.org/2000/svg">
<path d="M9.45924 4.77577L9.46018 4.77515C10.8079 3.89022 12.3851 3.41873 13.9974 3.41873C15.6097 3.41873 17.1868 3.89022 18.5346 4.77515L18.5359 4.77598C19.5549 5.45386 20.411 6.34913 21.0427 7.39741C21.6744 8.44568 22.066 9.62092 22.1892 10.8386C22.3125 12.0563 22.1644 13.2861 21.7555 14.4397C21.3467 15.5933 20.6873 16.642 19.8248 17.5103L19.8242 17.5109L14.1742 23.1609L13.9974 23.3377L13.8206 23.1609L8.17099 17.5113C8.17091 17.5112 8.17084 17.5111 8.17076 17.5111L8.17062 17.5109L8.34739 17.3341L9.45924 4.77577ZM9.45924 4.77577C8.4333 5.45602 7.57223 6.35681 6.9389 7.41236C6.30568 8.46773 5.9161 9.65117 5.7986 10.8763L9.45924 4.77577ZM12.9916 26.3414L12.9911 26.3409L6.17439 19.5076L6.17413 19.5073C4.62585 17.9598 3.57127 15.988 3.1438 13.8411C2.71632 11.6942 2.93514 9.46876 3.77258 7.44625C4.61002 5.42375 6.02845 3.69503 7.84848 2.47875C9.66851 1.26248 11.8084 0.613281 13.9974 0.613281C16.1864 0.613281 18.3263 1.26248 20.1463 2.47875C21.9663 3.69503 23.3848 5.42375 24.2222 7.44625C25.0597 9.46876 25.2785 11.6942 24.851 13.8411C24.4235 15.988 23.3689 17.9598 21.8207 19.5073L21.8204 19.5076L15.0037 26.3409L15.0032 26.3414C14.8715 26.4742 14.7148 26.5796 14.5422 26.6515C14.3696 26.7234 14.1844 26.7605 13.9974 26.7605C13.8104 26.7605 13.6252 26.7234 13.4526 26.6515C13.2799 26.5796 13.1233 26.4742 12.9916 26.3414ZM15.7104 14.2312C15.2034 14.57 14.6072 14.7508 13.9974 14.7508C13.1796 14.7508 12.3954 14.4259 11.8172 13.8477C11.2389 13.2695 10.9141 12.4852 10.9141 11.6675C10.9141 11.0576 11.0949 10.4615 11.4337 9.95446C11.7725 9.44741 12.2541 9.05221 12.8175 8.81884C13.3809 8.58547 14.0008 8.52441 14.5989 8.64338C15.197 8.76235 15.7464 9.05601 16.1776 9.48722C16.6089 9.91843 16.9025 10.4678 17.0215 11.0659C17.1405 11.664 17.0794 12.284 16.846 12.8474C16.6127 13.4108 16.2175 13.8924 15.7104 14.2312ZM1.32899 30.9991C1.59467 30.7334 1.95501 30.5841 2.33073 30.5841H25.6641C26.0398 30.5841 26.4001 30.7334 26.6658 30.9991C26.9315 31.2647 27.0807 31.6251 27.0807 32.0008C27.0807 32.3765 26.9315 32.7369 26.6658 33.0025C26.4001 33.2682 26.0398 33.4175 25.6641 33.4175H2.33073C1.95501 33.4175 1.59467 33.2682 1.32899 33.0025C1.06332 32.7369 0.914062 32.3765 0.914062 32.0008C0.914062 31.6251 1.06332 31.2647 1.32899 30.9991Z" fill="white" stroke="#2487E8" stroke-width="0.5"/>
</svg>
