<svg width="31" height="31" viewBox="0 0 31 31" fill="none" xmlns="http://www.w3.org/2000/svg">
<path d="M0.25 0.75V30.75H30.25V29.75H27.25V9.658C27.829 9.45 28.25 8.898 28.25 8.252C28.25 7.895 28.118 7.569 27.906 7.311L28.523 6.484L28.602 7.214L29.596 7.107L29.33 4.623L26.844 4.889L26.951 5.883L27.789 5.793L27.055 6.781C26.8369 6.73719 26.6119 6.74216 26.396 6.79556C26.18 6.84895 25.9786 6.94945 25.8061 7.08985C25.6336 7.23025 25.4943 7.40707 25.3981 7.60765C25.302 7.80822 25.2514 8.02758 25.25 8.25C25.25 8.505 25.321 8.742 25.436 8.953L20.299 15.857C20.1245 15.7867 19.9381 15.7504 19.75 15.75C19.325 15.75 18.94 15.932 18.666 16.22L14.197 13.617C14.228 13.498 14.25 13.377 14.25 13.25C14.25 12.428 13.572 11.75 12.75 11.75C11.928 11.75 11.25 12.428 11.25 13.25C11.25 13.577 11.36 13.877 11.541 14.125L6.174 21.818C6.03681 21.7745 5.89392 21.7516 5.75 21.75C4.928 21.75 4.25 22.427 4.25 23.25C4.25 23.584 4.365 23.89 4.553 24.14L1.25 28.874V0.75H0.25ZM14.111 3.744L14.074 4.74L14.574 4.756L15.41 4.787L15.527 4.801L16.023 4.863L16.148 3.871L15.652 3.809L15.508 3.791H15.463L14.609 3.76L14.111 3.744ZM13.023 3.85L12.529 3.92L12.195 3.969H12.172L12.15 3.979L11.506 4.135L11.02 4.252L11.254 5.225L11.74 5.105L12.371 4.955L12.674 4.91L13.168 4.838L13.023 3.85ZM17.23 4.03L16.93 4.982L17.406 5.132L18.361 5.434L18.838 5.584L19.138 4.631L18.662 4.481L17.707 4.18L17.23 4.03ZM9.988 4.611L9.531 4.816L8.981 5.064L8.959 5.074L8.939 5.086L8.596 5.281L8.16 5.529L8.656 6.399L9.09 6.15L9.416 5.965L9.943 5.729L10.398 5.523L9.988 4.611ZM20.113 5.123L19.646 6.008L20.088 6.242L20.217 6.309L20.895 6.75L21.313 7.023L21.859 6.186L21.441 5.912L20.741 5.455L20.721 5.443L20.699 5.432L20.557 5.355L20.113 5.123ZM7.234 6.115L6.854 6.437L6.133 7.053L6.115 7.068L6.098 7.084L6.063 7.123L5.713 7.48L6.43 8.178L6.78 7.818L6.791 7.808L7.502 7.201L7.882 6.877L7.234 6.115ZM22.691 6.9L21.998 7.621L22.359 7.967L22.637 8.23L22.645 8.24L23.01 8.664L23.336 9.043L24.094 8.389L23.768 8.012L23.395 7.578L23.379 7.558L23.361 7.543L23.051 7.246L22.691 6.9ZM26.75 7.75C27.032 7.75 27.25 7.968 27.25 8.25C27.25 8.532 27.032 8.75 26.75 8.75C26.6841 8.75094 26.6186 8.73865 26.5575 8.71386C26.4965 8.68907 26.441 8.65227 26.3943 8.60565C26.3477 8.55904 26.3109 8.50354 26.2861 8.44245C26.2613 8.38136 26.2491 8.31592 26.25 8.25C26.25 7.968 26.468 7.75 26.75 7.75ZM5.018 8.262L4.703 8.65L4.633 8.738L4.619 8.756L4.605 8.776L4.115 9.514L3.838 9.93L4.67 10.484L4.947 10.068L5.427 9.346L5.482 9.277L5.797 8.889L5.018 8.262ZM26.178 9.637C26.201 9.647 26.226 9.65 26.25 9.658V29.75H20.25V18.658C20.829 18.45 21.25 17.898 21.25 17.252C21.25 16.987 21.173 16.74 21.05 16.523L26.178 9.637ZM3.365 10.914L3.168 11.375L3.047 11.655L3.039 11.674L3.031 11.695L2.816 12.357L2.66 12.832L3.611 13.142L3.766 12.668L3.973 12.033L4.086 11.77L4.283 11.309L3.365 10.914ZM12.75 12.75C13.032 12.75 13.25 12.968 13.25 13.25C13.25 13.532 13.032 13.75 12.75 13.75C12.6841 13.7509 12.6186 13.7387 12.5575 13.7139C12.4965 13.6891 12.441 13.6523 12.3943 13.6057C12.3477 13.559 12.3109 13.5035 12.2861 13.4425C12.2613 13.3814 12.2491 13.3159 12.25 13.25C12.25 12.968 12.468 12.75 12.75 12.75ZM2.436 13.896L2.367 14.395L2.303 14.871L2.299 14.891V14.914L2.273 15.432L2.252 15.932L3.25 15.979L3.273 15.479L3.295 14.982L3.357 14.527L3.426 14.033L2.436 13.896ZM13.639 14.451L18.262 17.145C18.259 17.181 18.25 17.215 18.25 17.252C18.25 17.899 18.671 18.45 19.25 18.658V29.75H13.25V14.656C13.389 14.605 13.521 14.539 13.639 14.451ZM12.25 14.855V29.75H6.25V24.658C6.829 24.45 7.25 23.898 7.25 23.252C7.25 22.939 7.151 22.644 6.984 22.402L12.25 14.855ZM19.75 16.75C20.032 16.75 20.25 16.968 20.25 17.25C20.25 17.532 20.032 17.75 19.75 17.75C19.6841 17.7509 19.6186 17.7387 19.5575 17.7139C19.4965 17.6891 19.441 17.6523 19.3943 17.6057C19.3477 17.559 19.3109 17.5035 19.2861 17.4425C19.2613 17.3814 19.2491 17.3159 19.25 17.25C19.25 16.968 19.468 16.75 19.75 16.75ZM3.277 16.885L2.285 17.025L2.354 17.52L2.447 18.203L2.451 18.225L2.457 18.248L2.527 18.548L2.641 19.035L3.615 18.809L3.5 18.322L3.44 18.064L3.437 18.054L3.344 17.379L3.277 16.885ZM3.844 19.689L2.93 20.096L3.133 20.553L3.537 21.467L3.74 21.924L4.654 21.518L4.451 21.061L4.047 20.146L3.844 19.689ZM5.75 22.75C6.032 22.75 6.25 22.968 6.25 23.25C6.25 23.532 6.032 23.75 5.75 23.75C5.68408 23.7509 5.61864 23.7387 5.55755 23.7139C5.49646 23.6891 5.44096 23.6523 5.39435 23.6057C5.34773 23.559 5.31093 23.5035 5.28614 23.4425C5.26135 23.3814 5.24906 23.3159 5.25 23.25C5.25 22.968 5.468 22.75 5.75 22.75ZM5.25 24.885V29.75H1.857L5.25 24.885ZM1.25 29.742L1.262 29.75H1.25V29.742Z" fill="#248EC8" stroke="#248EC8" stroke-width="0.5"/>
</svg>
