<svg width="24" height="20" viewBox="0 0 24 20" fill="none" xmlns="http://www.w3.org/2000/svg">
<path d="M7.4029 15.7361L6.73326 16.4057C6.64397 16.495 6.54129 16.5397 6.42522 16.5397C6.30915 16.5397 6.20647 16.495 6.11719 16.4057L-0.123884 10.1647C-0.21317 10.0754 -0.257812 9.97269 -0.257812 9.85662C-0.257812 9.74055 -0.21317 9.63787 -0.123884 9.54859L6.11719 3.30752C6.20647 3.21823 6.30915 3.17359 6.42522 3.17359C6.54129 3.17359 6.64397 3.21823 6.73326 3.30752L7.4029 3.97716C7.49219 4.06645 7.53683 4.16912 7.53683 4.2852C7.53683 4.40127 7.49219 4.50395 7.4029 4.59323L2.13951 9.85662L7.4029 15.12C7.49219 15.2093 7.53683 15.312 7.53683 15.4281C7.53683 15.5441 7.49219 15.6468 7.4029 15.7361ZM15.3181 1.44591L10.3225 18.7361C10.2868 18.8522 10.2176 18.9392 10.115 18.9972C10.0123 19.0553 9.90737 19.0664 9.80022 19.0307L8.96987 18.8031C8.8538 18.7673 8.76674 18.6981 8.70871 18.5955C8.65067 18.4928 8.63951 18.3834 8.67522 18.2673L13.6708 0.97716C13.7065 0.861089 13.7757 0.774035 13.8783 0.716C13.981 0.657964 14.0859 0.646803 14.1931 0.682518L15.0234 0.910196C15.1395 0.94591 15.2266 1.01511 15.2846 1.11779C15.3426 1.22046 15.3538 1.32984 15.3181 1.44591ZM24.1172 10.1647L17.8761 16.4057C17.7868 16.495 17.6842 16.5397 17.5681 16.5397C17.452 16.5397 17.3493 16.495 17.26 16.4057L16.5904 15.7361C16.5011 15.6468 16.4565 15.5441 16.4565 15.4281C16.4565 15.312 16.5011 15.2093 16.5904 15.12L21.8538 9.85662L16.5904 4.59323C16.5011 4.50395 16.4565 4.40127 16.4565 4.2852C16.4565 4.16912 16.5011 4.06645 16.5904 3.97716L17.26 3.30752C17.3493 3.21823 17.452 3.17359 17.5681 3.17359C17.6842 3.17359 17.7868 3.21823 17.8761 3.30752L24.1172 9.54859C24.2065 9.63787 24.2511 9.74055 24.2511 9.85662C24.2511 9.97269 24.2065 10.0754 24.1172 10.1647Z" fill="white"/>
</svg>
