<svg width="28" height="32" viewBox="0 0 28 32" fill="none" xmlns="http://www.w3.org/2000/svg">
<path d="M24.3216 10.1383L24.1634 10.2948L24.3006 10.4701C25.5861 12.1127 26.4603 14.0389 26.8501 16.088C27.24 18.1371 27.1343 20.2497 26.5419 22.2496C25.9494 24.2496 24.8874 26.0789 23.4443 27.585C22.0012 29.0911 20.219 30.2303 18.2462 30.9077C16.2734 31.5851 14.1672 31.781 12.1033 31.479C10.0394 31.177 8.07766 30.386 6.38162 29.1718C4.68557 27.9576 3.3044 26.3555 2.35331 24.4991C1.40222 22.6427 0.908765 20.5858 0.914107 18.5L0.914106 18.499C0.910493 15.594 1.88375 12.7722 3.67743 10.487L3.81506 10.3117L3.65658 10.1549L2.12359 8.63862C2.12354 8.63857 2.12348 8.63851 2.12343 8.63845C1.85453 8.37135 1.70272 8.00838 1.70139 7.62936C1.70006 7.25027 1.84938 6.88617 2.1165 6.61717C2.38362 6.34817 2.74666 6.1963 3.12576 6.19497C3.50449 6.19364 3.86826 6.34268 4.13719 6.60932L5.65303 8.14182L5.80868 8.29918L5.98374 8.16375C8.27569 6.39072 11.0914 5.42874 13.9891 5.42874C16.8868 5.42874 19.7025 6.39072 21.9945 8.16375L22.1695 8.29919L22.3252 8.14181L23.8242 6.62613C23.8243 6.62601 23.8245 6.62589 23.8246 6.62577C24.0915 6.35904 24.4534 6.2092 24.8308 6.2092C25.2083 6.2092 25.5704 6.35917 25.8373 6.62613C26.1043 6.89308 26.2543 7.25515 26.2543 7.63268C26.2543 8.01004 26.1044 8.37196 25.8377 8.63888C25.8376 8.639 25.8374 8.63912 25.8373 8.63924L24.3216 10.1383ZM3.48077 10.3327C1.65247 12.6619 0.660424 15.5383 0.664106 18.4993L3.48077 10.3327ZM12.4974 16.8357L12.5808 16.7612V16.6494V13.4993C12.5808 13.1236 12.73 12.7633 12.9957 12.4976C13.2614 12.2319 13.6217 12.0827 13.9974 12.0827C14.3732 12.0827 14.7335 12.2319 14.9992 12.4976C15.2649 12.7633 15.4141 13.1236 15.4141 13.4993V16.6494V16.7612L15.4974 16.8357C15.8371 17.1395 16.0765 17.5392 16.184 17.9821C16.2914 18.4249 16.2619 18.8899 16.0993 19.3156C15.9367 19.7413 15.6487 20.1076 15.2734 20.366C14.8981 20.6244 14.4531 20.7627 13.9974 20.7627C13.5418 20.7627 13.0968 20.6244 12.7215 20.366C12.3462 20.1076 12.0581 19.7413 11.8956 19.3156C11.733 18.8899 11.7034 18.4249 11.8109 17.9821C11.9184 17.5392 12.1578 17.1395 12.4974 16.8357ZM8.30284 27.0219C9.98845 28.1482 11.9702 28.7493 13.9974 28.7493C16.7159 28.7493 19.323 27.6694 21.2453 25.7472C23.1675 23.8249 24.2474 21.2178 24.2474 18.4993C24.2474 16.4721 23.6463 14.4904 22.52 12.8048C21.3937 11.1191 19.7929 9.80538 17.9199 9.02958C16.047 8.25379 13.9861 8.0508 11.9978 8.4463C10.0095 8.8418 8.18308 9.81802 6.7496 11.2515C5.31611 12.685 4.33989 14.5114 3.94439 16.4997C3.54889 18.488 3.75188 20.5489 4.52767 22.4219C5.30347 24.2948 6.61724 25.8956 8.30284 27.0219ZM17.3308 3.24935H10.6641C10.2884 3.24935 9.92805 3.10009 9.66237 2.83442C9.3967 2.56874 9.24744 2.20841 9.24744 1.83268C9.24744 1.45696 9.3967 1.09662 9.66237 0.830948C9.92805 0.565271 10.2884 0.416016 10.6641 0.416016H17.3308C17.7065 0.416016 18.0668 0.565271 18.3325 0.830947C18.5982 1.09662 18.7474 1.45696 18.7474 1.83268C18.7474 2.20841 18.5982 2.56874 18.3325 2.83442C18.0668 3.10009 17.7065 3.24935 17.3308 3.24935Z" fill="white" stroke="#2487E8" stroke-width="0.5"/>
</svg>
