<svg width="30" height="30" viewBox="0 0 30 30" fill="none" xmlns="http://www.w3.org/2000/svg">
<g clip-path="url(#clip0_977_373)">
<path d="M10.3125 27.1875H19.6875" stroke="#248EC8" stroke-width="1.875" stroke-linecap="round" stroke-linejoin="round"/>
<path d="M9.2228 19.5692C8.10832 18.6985 7.20561 17.5867 6.5825 16.3171C5.95939 15.0476 5.63207 13.6533 5.62514 12.2391C5.59702 7.15783 9.69389 2.92853 14.774 2.81134C16.7427 2.76366 18.6765 3.33716 20.301 4.45049C21.9254 5.56382 23.158 7.16043 23.8239 9.01379C24.4897 10.8671 24.555 12.8831 24.0105 14.7757C23.466 16.6683 22.3394 18.3413 20.7904 19.5574C20.4487 19.8223 20.1719 20.1616 19.9808 20.5494C19.7897 20.9372 19.6895 21.3634 19.6876 21.7957V22.4988C19.6876 22.7475 19.5889 22.9859 19.4131 23.1618C19.2372 23.3376 18.9988 23.4363 18.7501 23.4363H11.2501C11.0015 23.4363 10.763 23.3376 10.5872 23.1618C10.4114 22.9859 10.3126 22.7475 10.3126 22.4988V21.7957C10.3122 21.3662 10.2138 20.9424 10.025 20.5565C9.83611 20.1707 9.56177 19.833 9.2228 19.5692Z" stroke="#248EC8" stroke-width="1.875" stroke-linecap="round" stroke-linejoin="round"/>
<path d="M15.9375 6.5625C18.2812 6.95742 20.2277 8.90625 20.625 11.25" stroke="#248EC8" stroke-width="1.875" stroke-linecap="round" stroke-linejoin="round"/>
</g>
<defs>
<clipPath id="clip0_977_373">
<rect width="30" height="30" fill="white"/>
</clipPath>
</defs>
</svg>
