<svg xmlns="http://www.w3.org/2000/svg" xmlns:xlink="http://www.w3.org/1999/xlink" width="50" zoomAndPan="magnify" viewBox="0 0 37.5 37.499999" height="50" preserveAspectRatio="xMidYMid meet" version="1.0"><defs><clipPath id="8af7d3521f"><path d="M 3.699219 0.882812 L 33.304688 0.882812 L 33.304688 31 L 3.699219 31 Z M 3.699219 0.882812 " clip-rule="nonzero"/></clipPath><clipPath id="363b806f15"><path d="M 5 24 L 15 24 L 15 36.40625 L 5 36.40625 Z M 5 24 " clip-rule="nonzero"/></clipPath><clipPath id="b9c22ca275"><path d="M 22 24 L 32 24 L 32 36.40625 L 22 36.40625 Z M 22 24 " clip-rule="nonzero"/></clipPath></defs><g clip-path="url(#8af7d3521f)"><path fill="#ffffff" d="M 18.503906 30.476562 C 17.609375 30.476562 16.9375 29.695312 16.34375 29.003906 C 15.96875 28.566406 15.542969 28.070312 15.207031 27.980469 C 14.84375 27.882812 14.207031 28.105469 13.644531 28.300781 C 12.761719 28.609375 11.847656 28.925781 11.101562 28.492188 C 10.34375 28.054688 10.164062 27.097656 9.988281 26.171875 C 9.878906 25.59375 9.757812 24.9375 9.5 24.679688 C 9.246094 24.425781 8.589844 24.300781 8.007812 24.191406 C 7.082031 24.015625 6.125 23.835938 5.6875 23.078125 C 5.253906 22.332031 5.574219 21.421875 5.878906 20.539062 C 6.078125 19.976562 6.296875 19.335938 6.203125 18.972656 C 6.113281 18.640625 5.617188 18.210938 5.175781 17.835938 C 4.488281 17.242188 3.707031 16.574219 3.707031 15.679688 C 3.707031 14.785156 4.488281 14.113281 5.175781 13.519531 C 5.617188 13.144531 6.113281 12.714844 6.203125 12.382812 C 6.296875 12.019531 6.078125 11.378906 5.878906 10.816406 C 5.574219 9.9375 5.253906 9.023438 5.6875 8.277344 C 6.125 7.519531 7.082031 7.339844 8.007812 7.164062 C 8.589844 7.054688 9.246094 6.929688 9.5 6.675781 C 9.757812 6.417969 9.878906 5.761719 9.988281 5.183594 C 10.164062 4.257812 10.34375 3.300781 11.101562 2.863281 C 11.847656 2.429688 12.761719 2.746094 13.644531 3.054688 C 14.207031 3.25 14.84375 3.472656 15.207031 3.375 C 15.542969 3.289062 15.96875 2.789062 16.34375 2.351562 C 16.9375 1.664062 17.609375 0.882812 18.503906 0.882812 C 19.398438 0.882812 20.070312 1.664062 20.660156 2.351562 C 21.039062 2.789062 21.464844 3.289062 21.800781 3.375 C 22.160156 3.472656 22.800781 3.25 23.363281 3.054688 C 24.246094 2.746094 25.15625 2.429688 25.902344 2.863281 C 26.660156 3.300781 26.84375 4.257812 27.015625 5.183594 C 27.125 5.761719 27.25 6.417969 27.507812 6.675781 C 27.761719 6.929688 28.417969 7.054688 28.996094 7.164062 C 29.921875 7.339844 30.878906 7.519531 31.320312 8.277344 C 31.75 9.023438 31.433594 9.9375 31.125 10.816406 C 30.929688 11.382812 30.707031 12.019531 30.804688 12.382812 C 30.894531 12.714844 31.390625 13.144531 31.828125 13.519531 C 32.519531 14.113281 33.300781 14.78125 33.300781 15.679688 C 33.300781 16.574219 32.519531 17.242188 31.828125 17.835938 C 31.390625 18.214844 30.894531 18.640625 30.804688 18.972656 C 30.707031 19.335938 30.929688 19.976562 31.125 20.539062 C 31.433594 21.421875 31.75 22.332031 31.320312 23.078125 C 30.878906 23.835938 29.921875 24.015625 28.996094 24.191406 C 28.417969 24.300781 27.761719 24.425781 27.507812 24.679688 C 27.25 24.9375 27.125 25.59375 27.015625 26.171875 C 26.84375 27.097656 26.660156 28.054688 25.902344 28.492188 C 25.15625 28.925781 24.246094 28.609375 23.363281 28.300781 C 22.800781 28.105469 22.160156 27.882812 21.800781 27.980469 C 21.464844 28.070312 21.039062 28.566406 20.660156 29.003906 C 20.070312 29.695312 19.398438 30.476562 18.503906 30.476562 Z M 15.003906 26.855469 C 15.167969 26.855469 15.332031 26.875 15.492188 26.914062 C 16.15625 27.09375 16.675781 27.699219 17.179688 28.285156 C 17.617188 28.796875 18.113281 29.375 18.503906 29.375 C 18.890625 29.375 19.386719 28.796875 19.824219 28.285156 C 20.332031 27.699219 20.851562 27.09375 21.515625 26.914062 C 22.203125 26.730469 22.976562 27 23.726562 27.261719 C 24.34375 27.476562 25.042969 27.71875 25.351562 27.539062 C 25.671875 27.355469 25.8125 26.617188 25.933594 25.96875 C 26.082031 25.195312 26.230469 24.398438 26.726562 23.902344 C 27.222656 23.40625 28.023438 23.253906 28.792969 23.109375 C 29.445312 22.988281 30.179688 22.847656 30.367188 22.527344 C 30.546875 22.21875 30.300781 21.519531 30.085938 20.902344 C 29.828125 20.152344 29.558594 19.378906 29.742188 18.691406 C 29.917969 18.027344 30.523438 17.503906 31.113281 17 C 31.621094 16.5625 32.199219 16.066406 32.199219 15.679688 C 32.199219 15.289062 31.621094 14.792969 31.113281 14.355469 C 30.523438 13.851562 29.917969 13.328125 29.742188 12.664062 C 29.558594 11.976562 29.824219 11.203125 30.085938 10.457031 C 30.300781 9.839844 30.546875 9.140625 30.367188 8.828125 C 30.179688 8.507812 29.445312 8.367188 28.792969 8.246094 C 28.023438 8.101562 27.222656 7.949219 26.726562 7.453125 C 26.230469 6.957031 26.082031 6.160156 25.933594 5.386719 C 25.8125 4.738281 25.671875 4 25.351562 3.816406 C 25.042969 3.636719 24.34375 3.878906 23.726562 4.09375 C 22.976562 4.355469 22.203125 4.625 21.515625 4.441406 C 20.851562 4.261719 20.332031 3.65625 19.824219 3.070312 C 19.386719 2.558594 18.890625 1.980469 18.503906 1.980469 C 18.113281 1.980469 17.617188 2.558594 17.179688 3.070312 C 16.675781 3.65625 16.15625 4.261719 15.492188 4.441406 C 14.800781 4.625 14.027344 4.355469 13.28125 4.09375 C 12.664062 3.878906 11.964844 3.636719 11.652344 3.816406 C 11.332031 4 11.195312 4.738281 11.070312 5.386719 C 10.925781 6.160156 10.773438 6.957031 10.277344 7.453125 C 9.78125 7.949219 8.984375 8.101562 8.214844 8.246094 C 7.5625 8.367188 6.828125 8.507812 6.640625 8.828125 C 6.460938 9.136719 6.707031 9.839844 6.921875 10.457031 C 7.179688 11.203125 7.449219 11.976562 7.265625 12.664062 C 7.089844 13.328125 6.480469 13.851562 5.894531 14.355469 C 5.386719 14.792969 4.808594 15.289062 4.808594 15.679688 C 4.808594 16.066406 5.386719 16.5625 5.894531 17 C 6.480469 17.503906 7.089844 18.027344 7.265625 18.691406 C 7.449219 19.378906 7.179688 20.152344 6.921875 20.902344 C 6.703125 21.519531 6.460938 22.21875 6.640625 22.527344 C 6.824219 22.847656 7.5625 22.988281 8.214844 23.109375 C 8.984375 23.253906 9.78125 23.40625 10.277344 23.902344 C 10.773438 24.398438 10.925781 25.195312 11.070312 25.96875 C 11.195312 26.617188 11.332031 27.355469 11.652344 27.539062 C 11.964844 27.71875 12.664062 27.476562 13.28125 27.261719 C 13.855469 27.0625 14.449219 26.855469 15.003906 26.855469 Z M 15.003906 26.855469 " fill-opacity="1" fill-rule="nonzero"/></g><path fill="#ffffff" d="M 18.503906 25.65625 C 13.039062 25.65625 8.59375 21.210938 8.59375 15.746094 C 8.59375 10.28125 13.039062 5.835938 18.503906 5.835938 C 23.96875 5.835938 28.414062 10.28125 28.414062 15.746094 C 28.414062 21.210938 23.96875 25.65625 18.503906 25.65625 Z M 18.503906 6.9375 C 13.644531 6.9375 9.695312 10.890625 9.695312 15.746094 C 9.695312 20.605469 13.644531 24.554688 18.503906 24.554688 C 23.359375 24.554688 27.3125 20.605469 27.3125 15.746094 C 27.3125 10.890625 23.359375 6.9375 18.503906 6.9375 Z M 18.503906 6.9375 " fill-opacity="1" fill-rule="nonzero"/><g clip-path="url(#363b806f15)"><path fill="#ffffff" d="M 9.65625 36.117188 C 9.632812 36.117188 9.605469 36.117188 9.582031 36.113281 C 9.363281 36.085938 9.179688 35.925781 9.121094 35.710938 L 8.460938 33.234375 L 5.984375 33.898438 C 5.769531 33.957031 5.539062 33.878906 5.402344 33.703125 C 5.269531 33.523438 5.25 33.285156 5.363281 33.089844 L 9.929688 25.179688 C 10.082031 24.914062 10.417969 24.824219 10.679688 24.976562 C 10.945312 25.128906 11.035156 25.464844 10.882812 25.730469 L 6.980469 32.488281 L 8.707031 32.027344 C 9 31.949219 9.300781 32.125 9.378906 32.417969 L 9.84375 34.140625 L 13.828125 27.238281 C 13.980469 26.972656 14.316406 26.882812 14.578125 27.035156 C 14.84375 27.1875 14.933594 27.523438 14.78125 27.789062 L 10.132812 35.84375 C 10.03125 36.015625 9.851562 36.117188 9.65625 36.117188 Z M 9.65625 36.117188 " fill-opacity="1" fill-rule="nonzero"/></g><g clip-path="url(#b9c22ca275)"><path fill="#ffffff" d="M 27.351562 36.117188 C 27.15625 36.117188 26.972656 36.015625 26.875 35.84375 L 22.226562 27.789062 C 22.074219 27.523438 22.164062 27.1875 22.425781 27.035156 C 22.691406 26.882812 23.027344 26.972656 23.179688 27.238281 L 27.164062 34.140625 L 27.625 32.417969 C 27.707031 32.125 28.007812 31.949219 28.300781 32.027344 L 30.027344 32.488281 L 26.125 25.730469 C 25.972656 25.464844 26.0625 25.128906 26.324219 24.976562 C 26.589844 24.824219 26.925781 24.914062 27.078125 25.179688 L 31.644531 33.089844 C 31.753906 33.285156 31.738281 33.523438 31.601562 33.703125 C 31.46875 33.878906 31.238281 33.957031 31.023438 33.898438 L 28.546875 33.234375 L 27.882812 35.710938 C 27.824219 35.925781 27.644531 36.085938 27.421875 36.113281 C 27.398438 36.117188 27.375 36.117188 27.351562 36.117188 Z M 27.351562 36.117188 " fill-opacity="1" fill-rule="nonzero"/></g><path fill="#ffffff" d="M 22.152344 20.703125 L 13.546875 20.703125 C 13.242188 20.703125 12.996094 20.457031 12.996094 20.152344 L 12.996094 13.542969 C 12.996094 13.242188 13.242188 12.992188 13.546875 12.992188 L 14.421875 12.992188 C 15.558594 12.992188 16.519531 12.179688 16.707031 11.058594 C 16.839844 10.265625 17.519531 9.691406 18.324219 9.691406 C 19.226562 9.691406 19.960938 10.425781 19.960938 11.324219 C 19.960938 11.417969 19.953125 11.507812 19.9375 11.597656 L 19.703125 12.992188 L 22.152344 12.992188 C 23.175781 12.992188 24.007812 13.828125 24.007812 14.851562 L 24.007812 18.84375 C 24.007812 19.867188 23.175781 20.703125 22.152344 20.703125 Z M 14.097656 19.601562 L 22.152344 19.601562 C 22.566406 19.601562 22.90625 19.261719 22.90625 18.84375 L 22.90625 14.851562 C 22.90625 14.433594 22.566406 14.09375 22.152344 14.09375 L 19.054688 14.09375 C 18.890625 14.09375 18.738281 14.023438 18.632812 13.898438 C 18.527344 13.777344 18.484375 13.613281 18.511719 13.453125 L 18.851562 11.414062 C 18.855469 11.386719 18.859375 11.355469 18.859375 11.324219 C 18.859375 11.03125 18.617188 10.792969 18.324219 10.792969 C 18.058594 10.792969 17.835938 10.980469 17.792969 11.238281 C 17.519531 12.894531 16.101562 14.09375 14.421875 14.09375 L 14.097656 14.09375 Z M 14.097656 19.601562 " fill-opacity="1" fill-rule="nonzero"/><path fill="#ffffff" d="M 15.75 20.703125 C 15.445312 20.703125 15.199219 20.457031 15.199219 20.152344 L 15.199219 13.199219 C 15.199219 12.894531 15.445312 12.648438 15.75 12.648438 C 16.054688 12.648438 16.300781 12.894531 16.300781 13.199219 L 16.300781 20.152344 C 16.300781 20.457031 16.054688 20.703125 15.75 20.703125 Z M 15.75 20.703125 " fill-opacity="1" fill-rule="nonzero"/></svg>