<svg xmlns="http://www.w3.org/2000/svg" xmlns:xlink="http://www.w3.org/1999/xlink" width="50" zoomAndPan="magnify" viewBox="0 0 37.5 37.499999" height="50" preserveAspectRatio="xMidYMid meet" version="1.0"><defs><clipPath id="bd6a2deec7"><path d="M 0.988281 0.375 L 20 0.375 L 20 36.640625 L 0.988281 36.640625 Z M 0.988281 0.375 " clip-rule="nonzero"/></clipPath><clipPath id="2707f7ccb2"><path d="M 11 8 L 35.773438 8 L 35.773438 29 L 11 29 Z M 11 8 " clip-rule="nonzero"/></clipPath></defs><path fill="#ff5757" d="M 18.464844 15.875 C 18.375 15.640625 18.152344 15.484375 17.898438 15.484375 C 17.644531 15.484375 17.421875 15.640625 17.328125 15.875 L 15.519531 20.707031 C 15.402344 21.019531 15.558594 21.363281 15.875 21.484375 C 16.1875 21.601562 16.53125 21.445312 16.652344 21.128906 L 16.960938 20.3125 L 18.839844 20.3125 L 19.148438 21.128906 C 19.238281 21.371094 19.46875 21.523438 19.714844 21.523438 C 19.789062 21.523438 19.859375 21.511719 19.925781 21.484375 C 20.242188 21.371094 20.398438 21.019531 20.277344 20.707031 Z M 17.414062 19.105469 L 17.902344 17.808594 L 18.390625 19.105469 Z M 17.414062 19.105469 " fill-opacity="1" fill-rule="nonzero"/><path fill="#ff5757" d="M 21.519531 15.484375 C 21.1875 15.484375 20.917969 15.753906 20.917969 16.085938 L 20.917969 20.917969 C 20.917969 21.25 21.1875 21.523438 21.519531 21.523438 C 21.851562 21.523438 22.125 21.25 22.125 20.917969 L 22.125 16.085938 C 22.125 15.753906 21.851562 15.484375 21.519531 15.484375 Z M 21.519531 15.484375 " fill-opacity="1" fill-rule="nonzero"/><g clip-path="url(#bd6a2deec7)"><path fill="#ff5757" d="M 19.105469 28.769531 C 13.445312 28.769531 8.839844 24.160156 8.839844 18.503906 C 8.839844 12.84375 13.445312 8.234375 19.105469 8.234375 C 19.4375 8.234375 19.710938 7.964844 19.710938 7.632812 L 19.710938 0.988281 C 19.710938 0.65625 19.4375 0.382812 19.105469 0.382812 L 15.921875 0.382812 C 15.644531 0.382812 15.402344 0.570312 15.335938 0.84375 L 14.472656 4.308594 C 13.734375 4.550781 13.023438 4.839844 12.347656 5.183594 L 9.285156 3.347656 C 9.050781 3.203125 8.742188 3.246094 8.546875 3.441406 L 4.046875 7.9375 C 3.855469 8.132812 3.8125 8.441406 3.957031 8.675781 L 5.792969 11.738281 C 5.449219 12.414062 5.152344 13.128906 4.917969 13.863281 L 1.453125 14.726562 C 1.179688 14.792969 0.992188 15.035156 0.992188 15.3125 L 0.992188 21.679688 C 0.992188 21.957031 1.179688 22.199219 1.453125 22.265625 L 4.917969 23.128906 C 5.160156 23.867188 5.449219 24.578125 5.792969 25.253906 L 3.957031 28.316406 C 3.8125 28.550781 3.855469 28.859375 4.046875 29.054688 L 8.546875 33.550781 C 8.742188 33.746094 9.050781 33.789062 9.285156 33.644531 L 12.347656 31.808594 C 13.023438 32.152344 13.734375 32.449219 14.472656 32.683594 L 15.335938 36.148438 C 15.402344 36.421875 15.644531 36.609375 15.921875 36.609375 L 19.105469 36.609375 C 19.4375 36.609375 19.710938 36.335938 19.710938 36.003906 L 19.710938 29.359375 C 19.710938 29.027344 19.4375 28.757812 19.105469 28.757812 Z M 18.5 35.414062 L 16.394531 35.414062 L 15.558594 32.074219 C 15.503906 31.867188 15.347656 31.703125 15.148438 31.636719 C 14.261719 31.371094 13.402344 31.023438 12.613281 30.59375 C 12.425781 30.492188 12.195312 30.496094 12.015625 30.605469 L 9.066406 32.375 L 5.230469 28.539062 L 7 25.59375 C 7.109375 25.410156 7.117188 25.183594 7.015625 24.996094 C 6.585938 24.203125 6.234375 23.347656 5.96875 22.457031 C 5.910156 22.253906 5.746094 22.09375 5.535156 22.046875 L 2.195312 21.214844 L 2.195312 15.789062 L 5.535156 14.957031 C 5.738281 14.902344 5.902344 14.746094 5.96875 14.546875 C 6.234375 13.660156 6.585938 12.800781 7.015625 12.007812 C 7.117188 11.824219 7.109375 11.59375 7 11.410156 L 5.230469 8.464844 L 9.066406 4.628906 L 12.015625 6.398438 C 12.195312 6.507812 12.425781 6.515625 12.613281 6.410156 C 13.402344 5.980469 14.261719 5.632812 15.148438 5.367188 C 15.355469 5.304688 15.511719 5.144531 15.558594 4.929688 L 16.394531 1.589844 L 18.5 1.589844 L 18.5 7.046875 C 12.457031 7.359375 7.628906 12.378906 7.628906 18.503906 C 7.628906 24.625 12.457031 29.644531 18.5 29.960938 Z M 18.5 35.414062 " fill-opacity="1" fill-rule="nonzero"/></g><g clip-path="url(#2707f7ccb2)"><path fill="#ff5757" d="M 33.601562 16.085938 C 32.476562 16.085938 31.539062 16.859375 31.269531 17.898438 L 25.144531 17.898438 L 25.144531 15.484375 L 27.558594 15.484375 C 27.730469 15.484375 27.890625 15.410156 28.007812 15.28125 L 30.21875 12.859375 C 30.511719 12.988281 30.839844 13.066406 31.183594 13.066406 C 32.519531 13.066406 33.601562 11.984375 33.601562 10.652344 C 33.601562 9.316406 32.519531 8.234375 31.183594 8.234375 C 29.847656 8.234375 28.769531 9.316406 28.769531 10.652344 C 28.769531 11.199219 28.960938 11.703125 29.269531 12.105469 L 27.292969 14.273438 L 25.144531 14.273438 L 25.144531 13.066406 C 25.144531 12.734375 24.871094 12.460938 24.539062 12.460938 L 23.332031 12.460938 L 23.332031 11.253906 C 23.332031 10.921875 23.0625 10.652344 22.730469 10.652344 C 22.398438 10.652344 22.125 10.921875 22.125 11.253906 L 22.125 12.460938 L 19.710938 12.460938 L 19.710938 11.253906 C 19.710938 10.921875 19.4375 10.652344 19.105469 10.652344 C 18.773438 10.652344 18.5 10.921875 18.5 11.253906 L 18.5 12.460938 L 16.085938 12.460938 L 16.085938 11.253906 C 16.085938 10.921875 15.8125 10.652344 15.480469 10.652344 C 15.148438 10.652344 14.878906 10.921875 14.878906 11.253906 L 14.878906 12.460938 L 13.667969 12.460938 C 13.335938 12.460938 13.066406 12.734375 13.066406 13.066406 L 13.066406 14.273438 L 11.859375 14.273438 C 11.527344 14.273438 11.253906 14.546875 11.253906 14.878906 C 11.253906 15.210938 11.527344 15.484375 11.859375 15.484375 L 13.066406 15.484375 L 13.066406 17.898438 L 11.859375 17.898438 C 11.527344 17.898438 11.253906 18.171875 11.253906 18.503906 C 11.253906 18.835938 11.527344 19.105469 11.859375 19.105469 L 13.066406 19.105469 L 13.066406 21.523438 L 11.859375 21.523438 C 11.527344 21.523438 11.253906 21.792969 11.253906 22.125 C 11.253906 22.457031 11.527344 22.730469 11.859375 22.730469 L 13.066406 22.730469 L 13.066406 23.9375 C 13.066406 24.269531 13.335938 24.542969 13.667969 24.542969 L 14.878906 24.542969 L 14.878906 25.75 C 14.878906 26.082031 15.148438 26.355469 15.480469 26.355469 C 15.8125 26.355469 16.085938 26.082031 16.085938 25.75 L 16.085938 24.542969 L 18.5 24.542969 L 18.5 25.75 C 18.5 26.082031 18.773438 26.355469 19.105469 26.355469 C 19.4375 26.355469 19.710938 26.082031 19.710938 25.75 L 19.710938 24.542969 L 22.125 24.542969 L 22.125 25.75 C 22.125 26.082031 22.398438 26.355469 22.730469 26.355469 C 23.0625 26.355469 23.332031 26.082031 23.332031 25.75 L 23.332031 24.542969 L 24.539062 24.542969 C 24.871094 24.542969 25.144531 24.269531 25.144531 23.9375 L 25.144531 22.730469 L 27.292969 22.730469 L 29.269531 24.898438 C 28.960938 25.300781 28.769531 25.804688 28.769531 26.355469 C 28.769531 27.6875 29.847656 28.769531 31.183594 28.769531 C 32.519531 28.769531 33.601562 27.6875 33.601562 26.355469 C 33.601562 25.019531 32.519531 23.9375 31.183594 23.9375 C 30.839844 23.9375 30.511719 24.011719 30.21875 24.144531 L 28.007812 21.722656 C 27.890625 21.59375 27.730469 21.523438 27.558594 21.523438 L 25.144531 21.523438 L 25.144531 19.105469 L 31.269531 19.105469 C 31.539062 20.144531 32.476562 20.917969 33.601562 20.917969 C 34.933594 20.917969 36.015625 19.835938 36.015625 18.503906 C 36.015625 17.167969 34.933594 16.085938 33.601562 16.085938 Z M 31.183594 9.441406 C 31.847656 9.441406 32.390625 9.988281 32.390625 10.652344 C 32.390625 11.316406 31.847656 11.859375 31.183594 11.859375 C 30.519531 11.859375 29.976562 11.316406 29.976562 10.652344 C 29.976562 9.988281 30.519531 9.441406 31.183594 9.441406 Z M 32.390625 26.355469 C 32.390625 27.019531 31.847656 27.5625 31.183594 27.5625 C 30.519531 27.5625 29.976562 27.019531 29.976562 26.355469 C 29.976562 25.6875 30.519531 25.144531 31.183594 25.144531 C 31.847656 25.144531 32.390625 25.6875 32.390625 26.355469 Z M 23.9375 23.332031 L 14.273438 23.332031 L 14.273438 13.671875 L 23.9375 13.671875 Z M 33.601562 19.710938 C 32.933594 19.710938 32.390625 19.167969 32.390625 18.503906 C 32.390625 17.835938 32.933594 17.292969 33.601562 17.292969 C 34.265625 17.292969 34.808594 17.835938 34.808594 18.503906 C 34.808594 19.167969 34.265625 19.710938 33.601562 19.710938 Z M 33.601562 19.710938 " fill-opacity="1" fill-rule="nonzero"/></g></svg>