<svg xmlns="http://www.w3.org/2000/svg" xmlns:xlink="http://www.w3.org/1999/xlink" width="50" zoomAndPan="magnify" viewBox="0 0 37.5 37.499999" height="50" preserveAspectRatio="xMidYMid meet" version="1.0"><defs><clipPath id="6c59fdebcd"><path d="M 10 1.15625 L 27 1.15625 L 27 15 L 10 15 Z M 10 1.15625 " clip-rule="nonzero"/></clipPath><clipPath id="d2e6fd3f46"><path d="M 26 21 L 37.007812 21 L 37.007812 30 L 26 30 Z M 26 21 " clip-rule="nonzero"/></clipPath><clipPath id="21ec9fd3c4"><path d="M 13 27 L 24 27 L 24 35.941406 L 13 35.941406 Z M 13 27 " clip-rule="nonzero"/></clipPath></defs><path fill="#0cc0df" d="M 11.652344 15.785156 C 11.246094 15.671875 10.898438 15.46875 10.582031 15.207031 L 5.261719 20.527344 L 6.910156 20.527344 Z M 11.652344 15.785156 " fill-opacity="1" fill-rule="nonzero"/><path fill="#0cc0df" d="M 17.925781 15.902344 L 19.082031 15.902344 L 19.082031 26.597656 L 17.925781 26.597656 Z M 17.925781 15.902344 " fill-opacity="1" fill-rule="nonzero"/><path fill="#0cc0df" d="M 30.125 20.527344 L 31.773438 20.527344 L 26.425781 15.207031 C 26.105469 15.46875 25.761719 15.671875 25.355469 15.785156 Z M 30.125 20.527344 " fill-opacity="1" fill-rule="nonzero"/><g clip-path="url(#6c59fdebcd)"><path fill="#0cc0df" d="M 12.433594 14.746094 L 24.574219 14.746094 C 25.527344 14.746094 26.308594 13.964844 26.308594 13.011719 L 26.308594 2.890625 C 26.308594 1.9375 25.527344 1.15625 24.574219 1.15625 L 19.109375 1.15625 C 18.53125 1.15625 17.984375 1.445312 17.664062 1.9375 L 16.449219 3.757812 L 12.433594 3.757812 C 11.476562 3.757812 10.695312 4.539062 10.695312 5.492188 L 10.695312 13.011719 C 10.695312 13.964844 11.476562 14.746094 12.433594 14.746094 Z M 24.574219 13.589844 L 12.433594 13.589844 C 12.113281 13.589844 11.855469 13.328125 11.855469 13.011719 L 11.855469 7.226562 L 14.425781 7.226562 C 14.628906 7.226562 14.800781 7.316406 14.917969 7.488281 C 14.945312 7.515625 14.945312 7.546875 14.976562 7.574219 L 16.160156 8.789062 C 16.394531 9.078125 16.710938 9.25 17.085938 9.25 L 25.152344 9.25 L 25.152344 13.011719 C 25.152344 13.328125 24.894531 13.589844 24.574219 13.589844 Z M 12.433594 4.914062 L 16.449219 4.914062 C 16.828125 4.914062 17.203125 4.710938 17.40625 4.394531 L 18.617188 2.574219 C 18.734375 2.398438 18.90625 2.3125 19.109375 2.3125 L 24.574219 2.3125 C 24.894531 2.3125 25.152344 2.574219 25.152344 2.890625 L 25.152344 8.09375 L 17.085938 8.09375 C 17.058594 8.066406 17.058594 8.039062 17.027344 8.007812 L 15.84375 6.792969 C 15.527344 6.332031 15.003906 6.070312 14.425781 6.070312 L 11.855469 6.070312 L 11.855469 5.492188 C 11.855469 5.175781 12.113281 4.914062 12.433594 4.914062 Z M 12.433594 4.914062 " fill-opacity="1" fill-rule="nonzero"/></g><path fill="#0cc0df" d="M 1.15625 29.777344 L 9.25 29.777344 C 9.886719 29.777344 10.40625 29.257812 10.40625 28.621094 L 10.40625 22.839844 C 10.40625 22.203125 9.886719 21.683594 9.25 21.683594 L 1.15625 21.683594 C 0.519531 21.683594 0 22.203125 0 22.839844 L 0 28.621094 C 0 29.257812 0.519531 29.777344 1.15625 29.777344 Z M 1.15625 22.839844 L 9.25 22.839844 L 9.25 28.621094 L 1.15625 28.621094 Z M 1.15625 22.839844 " fill-opacity="1" fill-rule="nonzero"/><g clip-path="url(#d2e6fd3f46)"><path fill="#0cc0df" d="M 26.597656 22.839844 L 26.597656 28.621094 C 26.597656 29.257812 27.117188 29.777344 27.753906 29.777344 L 35.851562 29.777344 C 36.484375 29.777344 37.007812 29.257812 37.007812 28.621094 L 37.007812 22.839844 C 37.007812 22.203125 36.484375 21.683594 35.851562 21.683594 L 27.753906 21.683594 C 27.117188 21.683594 26.597656 22.203125 26.597656 22.839844 Z M 35.851562 28.621094 L 27.753906 28.621094 L 27.753906 22.839844 L 35.851562 22.839844 Z M 35.851562 28.621094 " fill-opacity="1" fill-rule="nonzero"/></g><g clip-path="url(#21ec9fd3c4)"><path fill="#0cc0df" d="M 13.300781 28.910156 L 13.300781 34.695312 C 13.300781 35.328125 13.820312 35.851562 14.457031 35.851562 L 22.550781 35.851562 C 23.1875 35.851562 23.707031 35.328125 23.707031 34.695312 L 23.707031 28.910156 C 23.707031 28.273438 23.1875 27.753906 22.550781 27.753906 L 14.457031 27.753906 C 13.820312 27.753906 13.300781 28.273438 13.300781 28.910156 Z M 22.550781 34.695312 L 14.457031 34.695312 L 14.457031 28.910156 L 22.550781 28.910156 Z M 22.550781 34.695312 " fill-opacity="1" fill-rule="nonzero"/></g><path fill="#0cc0df" d="M 16.191406 31.222656 L 20.816406 31.222656 C 21.132812 31.222656 21.394531 30.964844 21.394531 30.644531 C 21.394531 30.328125 21.132812 30.066406 20.816406 30.066406 L 16.191406 30.066406 C 15.871094 30.066406 15.613281 30.328125 15.613281 30.644531 C 15.613281 30.964844 15.871094 31.222656 16.191406 31.222656 Z M 16.191406 31.222656 " fill-opacity="1" fill-rule="nonzero"/><path fill="#0cc0df" d="M 16.191406 33.507812 L 20.816406 33.507812 C 21.132812 33.507812 21.394531 33.25 21.394531 32.929688 C 21.394531 32.613281 21.132812 32.351562 20.816406 32.351562 L 16.191406 32.351562 C 15.871094 32.351562 15.613281 32.613281 15.613281 32.929688 C 15.613281 33.25 15.871094 33.507812 16.191406 33.507812 Z M 16.191406 33.507812 " fill-opacity="1" fill-rule="nonzero"/><path fill="#0cc0df" d="M 7.515625 23.996094 L 2.890625 23.996094 C 2.574219 23.996094 2.3125 24.257812 2.3125 24.574219 C 2.3125 24.894531 2.574219 25.152344 2.890625 25.152344 L 7.515625 25.152344 C 7.835938 25.152344 8.09375 24.894531 8.09375 24.574219 C 8.09375 24.257812 7.835938 23.996094 7.515625 23.996094 Z M 7.515625 23.996094 " fill-opacity="1" fill-rule="nonzero"/><path fill="#0cc0df" d="M 7.515625 26.28125 L 2.890625 26.28125 C 2.574219 26.28125 2.3125 26.539062 2.3125 26.859375 C 2.3125 27.175781 2.574219 27.4375 2.890625 27.4375 L 7.515625 27.4375 C 7.835938 27.4375 8.09375 27.175781 8.09375 26.859375 C 8.09375 26.539062 7.835938 26.28125 7.515625 26.28125 Z M 7.515625 26.28125 " fill-opacity="1" fill-rule="nonzero"/><path fill="#0cc0df" d="M 29.488281 25.152344 L 34.117188 25.152344 C 34.433594 25.152344 34.695312 24.894531 34.695312 24.574219 C 34.695312 24.257812 34.433594 23.996094 34.117188 23.996094 L 29.488281 23.996094 C 29.171875 23.996094 28.910156 24.257812 28.910156 24.574219 C 28.910156 24.894531 29.171875 25.152344 29.488281 25.152344 Z M 29.488281 25.152344 " fill-opacity="1" fill-rule="nonzero"/><path fill="#0cc0df" d="M 29.488281 27.4375 L 34.117188 27.4375 C 34.433594 27.4375 34.695312 27.175781 34.695312 26.859375 C 34.695312 26.539062 34.433594 26.28125 34.117188 26.28125 L 29.488281 26.28125 C 29.171875 26.28125 28.910156 26.539062 28.910156 26.859375 C 28.910156 27.175781 29.171875 27.4375 29.488281 27.4375 Z M 29.488281 27.4375 " fill-opacity="1" fill-rule="nonzero"/></svg>