<svg xmlns="http://www.w3.org/2000/svg" xmlns:xlink="http://www.w3.org/1999/xlink" width="50" zoomAndPan="magnify" viewBox="0 0 37.5 37.499999" height="50" preserveAspectRatio="xMidYMid meet" version="1.0"><defs><clipPath id="dff944792f"><path d="M 1.777344 24 L 10 24 L 10 35.378906 L 1.777344 35.378906 Z M 1.777344 24 " clip-rule="nonzero"/></clipPath><clipPath id="45086698d4"><path d="M 26 26 L 35.824219 26 L 35.824219 35.378906 L 26 35.378906 Z M 26 26 " clip-rule="nonzero"/></clipPath><clipPath id="1c8e48c48b"><path d="M 2 1.332031 L 35.824219 1.332031 L 35.824219 34 L 2 34 Z M 2 1.332031 " clip-rule="nonzero"/></clipPath><clipPath id="155f7caa62"><path d="M 2 1.332031 L 7 1.332031 L 7 5 L 2 5 Z M 2 1.332031 " clip-rule="nonzero"/></clipPath><clipPath id="dc7e9d272b"><path d="M 7 1.332031 L 11 1.332031 L 11 5 L 7 5 Z M 7 1.332031 " clip-rule="nonzero"/></clipPath><clipPath id="6e1d41c8a5"><path d="M 11 1.332031 L 15 1.332031 L 15 5 L 11 5 Z M 11 1.332031 " clip-rule="nonzero"/></clipPath></defs><g clip-path="url(#dff944792f)"><path fill="#ffffff" d="M 8.335938 24.839844 L 4.191406 24.839844 C 3.902344 24.839844 3.621094 24.957031 3.417969 25.160156 L 2.097656 26.480469 C 1.890625 26.6875 1.777344 26.960938 1.777344 27.253906 L 1.777344 34.132812 C 1.777344 34.738281 2.265625 35.226562 2.871094 35.226562 L 8.335938 35.226562 C 8.941406 35.226562 9.429688 34.738281 9.429688 34.132812 L 9.429688 25.933594 C 9.429688 25.332031 8.941406 24.839844 8.335938 24.839844 Z M 3.964844 26.160156 L 3.964844 27.027344 L 3.097656 27.027344 Z M 8.335938 34.132812 L 2.871094 34.132812 L 2.871094 28.121094 L 3.964844 28.121094 C 4.566406 28.121094 5.054688 27.628906 5.054688 27.027344 L 5.054688 25.933594 L 8.335938 25.933594 Z M 8.335938 34.132812 " fill-opacity="1" fill-rule="nonzero"/></g><path fill="#ffffff" d="M 3.964844 29.214844 L 7.242188 29.214844 L 7.242188 30.308594 L 3.964844 30.308594 Z M 3.964844 29.214844 " fill-opacity="1" fill-rule="nonzero"/><path fill="#ffffff" d="M 3.964844 31.402344 L 7.242188 31.402344 L 7.242188 32.496094 L 3.964844 32.496094 Z M 3.964844 31.402344 " fill-opacity="1" fill-rule="nonzero"/><path fill="#ffffff" d="M 6.148438 27.027344 L 7.242188 27.027344 L 7.242188 28.121094 L 6.148438 28.121094 Z M 6.148438 27.027344 " fill-opacity="1" fill-rule="nonzero"/><g clip-path="url(#45086698d4)"><path fill="#ffffff" d="M 34.578125 26.480469 L 28.019531 26.480469 C 27.414062 26.480469 26.925781 26.972656 26.925781 27.574219 L 26.925781 34.132812 C 26.925781 34.738281 27.414062 35.226562 28.019531 35.226562 L 34.578125 35.226562 C 35.179688 35.226562 35.671875 34.738281 35.671875 34.132812 L 35.671875 27.574219 C 35.671875 26.972656 35.179688 26.480469 34.578125 26.480469 Z M 31.84375 34.132812 L 31.84375 30.855469 L 30.75 30.855469 L 30.75 34.132812 L 28.019531 34.132812 L 28.019531 27.574219 L 30.75 27.574219 L 30.75 29.761719 L 31.84375 29.761719 L 31.84375 27.574219 L 34.578125 27.574219 L 34.578125 34.132812 Z M 31.84375 34.132812 " fill-opacity="1" fill-rule="nonzero"/></g><g clip-path="url(#1c8e48c48b)"><path fill="#ffffff" d="M 23.804688 30.148438 L 24.511719 30.855469 L 20.796875 30.855469 C 25.679688 28.765625 29.113281 23.917969 29.113281 18.28125 C 29.113281 16.535156 28.753906 14.871094 28.109375 13.359375 L 31.296875 13.359375 C 31.902344 13.359375 32.390625 12.871094 32.390625 12.265625 L 32.390625 5.707031 C 32.390625 5.101562 31.902344 4.613281 31.296875 4.613281 L 30.203125 4.613281 C 29.601562 4.613281 29.113281 5.101562 29.113281 5.707031 L 29.113281 12.265625 L 28.019531 12.265625 L 28.019531 7.875 C 28.019531 7.269531 27.527344 6.78125 26.925781 6.78125 L 25.832031 6.78125 C 25.226562 6.78125 24.738281 7.269531 24.738281 7.875 L 24.738281 8.761719 C 23.859375 8 22.875 7.363281 21.808594 6.867188 C 22.707031 4.230469 25.195312 2.425781 28.019531 2.425781 C 31.636719 2.425781 34.578125 5.367188 34.578125 8.984375 C 34.578125 11.457031 33.179688 13.699219 31.027344 14.8125 L 31.269531 14.078125 L 30.234375 13.734375 L 29.554688 15.769531 L 31.542969 17.09375 L 32.148438 16.1875 L 31.539062 15.78125 C 34.046875 14.476562 35.671875 11.863281 35.671875 8.984375 C 35.671875 4.765625 32.238281 1.332031 28.019531 1.332031 C 24.75 1.332031 21.863281 3.410156 20.796875 6.449219 C 19.464844 5.96875 18.03125 5.707031 16.539062 5.707031 C 9.601562 5.707031 3.964844 11.347656 3.964844 18.28125 L 3.964844 21.335938 L 3.257812 20.628906 L 2.484375 21.398438 L 4.511719 23.425781 L 6.535156 21.398438 L 5.761719 20.628906 L 5.054688 21.335938 L 5.054688 18.28125 C 5.054688 11.949219 10.207031 6.800781 16.539062 6.800781 C 22.867188 6.800781 28.019531 11.949219 28.019531 18.28125 C 28.019531 25.214844 22.378906 30.855469 15.445312 30.855469 L 10.523438 30.855469 L 10.523438 31.949219 L 24.511719 31.949219 L 23.804688 32.65625 L 24.578125 33.425781 L 26.605469 31.402344 L 24.578125 29.375 Z M 30.203125 5.707031 L 31.296875 5.707031 L 31.296875 12.265625 L 30.203125 12.265625 Z M 26.925781 7.875 L 26.925781 11.203125 C 26.59375 10.71875 26.226562 10.253906 25.832031 9.820312 L 25.832031 7.875 Z M 26.925781 7.875 " fill-opacity="1" fill-rule="nonzero"/></g><path fill="#ffffff" d="M 16.539062 23.199219 C 19.25 23.199219 21.457031 20.992188 21.457031 18.28125 C 21.457031 15.566406 19.25 13.359375 16.539062 13.359375 C 13.824219 13.359375 11.617188 15.566406 11.617188 18.28125 C 11.617188 20.992188 13.824219 23.199219 16.539062 23.199219 Z M 16.539062 14.453125 C 18.648438 14.453125 20.363281 16.167969 20.363281 18.28125 C 20.363281 20.390625 18.648438 22.105469 16.539062 22.105469 C 14.425781 22.105469 12.710938 20.390625 12.710938 18.28125 C 12.710938 16.167969 14.425781 14.453125 16.539062 14.453125 Z M 16.539062 14.453125 " fill-opacity="1" fill-rule="nonzero"/><path fill="#ffffff" d="M 16.539062 21.011719 C 18.042969 21.011719 19.269531 19.789062 19.269531 18.28125 C 19.269531 16.773438 18.042969 15.546875 16.539062 15.546875 C 15.03125 15.546875 13.804688 16.773438 13.804688 18.28125 C 13.804688 19.789062 15.03125 21.011719 16.539062 21.011719 Z M 16.539062 16.640625 C 17.441406 16.640625 18.175781 17.375 18.175781 18.28125 C 18.175781 19.183594 17.441406 19.921875 16.539062 19.921875 C 15.632812 19.921875 14.898438 19.183594 14.898438 18.28125 C 14.898438 17.375 15.632812 16.640625 16.539062 16.640625 Z M 16.539062 16.640625 " fill-opacity="1" fill-rule="nonzero"/><path fill="#ffffff" d="M 9.9375 16.09375 L 8.335938 16.09375 L 8.335938 20.46875 L 9.9375 20.46875 C 10.277344 20.46875 10.410156 20.726562 10.445312 20.804688 C 10.476562 20.882812 10.566406 21.160156 10.324219 21.398438 L 9.191406 22.53125 L 12.285156 25.625 L 13.417969 24.492188 C 13.65625 24.253906 13.933594 24.34375 14.011719 24.375 C 14.09375 24.40625 14.351562 24.539062 14.351562 24.878906 L 14.351562 26.480469 L 18.722656 26.480469 L 18.722656 24.878906 C 18.722656 24.539062 18.984375 24.40625 19.0625 24.375 C 19.140625 24.339844 19.417969 24.253906 19.65625 24.492188 L 20.789062 25.625 L 23.882812 22.53125 L 22.75 21.398438 C 22.511719 21.160156 22.597656 20.882812 22.632812 20.804688 C 22.664062 20.726562 22.796875 20.46875 23.136719 20.46875 L 24.738281 20.46875 L 24.738281 16.09375 L 23.136719 16.09375 C 22.796875 16.09375 22.664062 15.835938 22.632812 15.753906 C 22.597656 15.675781 22.511719 15.398438 22.75 15.160156 L 23.882812 14.027344 L 20.789062 10.933594 L 19.65625 12.066406 C 19.417969 12.308594 19.140625 12.21875 19.0625 12.1875 C 18.984375 12.152344 18.722656 12.019531 18.722656 11.679688 L 18.722656 10.078125 L 14.351562 10.078125 L 14.351562 11.679688 C 14.351562 12.019531 14.09375 12.152344 14.011719 12.1875 C 13.933594 12.21875 13.65625 12.308594 13.417969 12.066406 L 12.285156 10.933594 L 9.191406 14.027344 L 10.324219 15.160156 C 10.5625 15.398438 10.476562 15.675781 10.445312 15.757812 C 10.410156 15.835938 10.277344 16.09375 9.9375 16.09375 Z M 11.097656 14.386719 L 10.738281 14.027344 L 12.285156 12.480469 L 12.644531 12.839844 C 13.121094 13.320312 13.808594 13.457031 14.433594 13.195312 C 15.054688 12.9375 15.445312 12.355469 15.445312 11.679688 L 15.445312 11.171875 L 17.628906 11.171875 L 17.628906 11.679688 C 17.628906 12.355469 18.019531 12.9375 18.644531 13.195312 C 19.269531 13.457031 19.953125 13.316406 20.429688 12.839844 L 20.789062 12.480469 L 22.335938 14.027344 L 21.976562 14.386719 C 21.5 14.863281 21.363281 15.550781 21.621094 16.175781 C 21.878906 16.796875 22.460938 17.1875 23.136719 17.1875 L 23.644531 17.1875 L 23.644531 19.375 L 23.136719 19.375 C 22.460938 19.375 21.878906 19.761719 21.621094 20.386719 C 21.363281 21.011719 21.5 21.695312 21.976562 22.171875 L 22.335938 22.53125 L 20.789062 24.078125 L 20.429688 23.71875 C 19.953125 23.242188 19.269531 23.105469 18.644531 23.363281 C 18.019531 23.621094 17.628906 24.203125 17.628906 24.878906 L 17.628906 25.386719 L 15.445312 25.386719 L 15.445312 24.878906 C 15.445312 24.203125 15.054688 23.621094 14.429688 23.363281 C 13.804688 23.105469 13.121094 23.242188 12.644531 23.71875 L 12.285156 24.078125 L 10.738281 22.53125 L 11.097656 22.171875 C 11.574219 21.695312 11.710938 21.011719 11.453125 20.386719 C 11.195312 19.761719 10.613281 19.375 9.9375 19.375 L 9.429688 19.375 L 9.429688 17.1875 L 9.9375 17.1875 C 10.613281 17.1875 11.195312 16.796875 11.453125 16.171875 C 11.710938 15.550781 11.574219 14.863281 11.097656 14.386719 Z M 11.097656 14.386719 " fill-opacity="1" fill-rule="nonzero"/><g clip-path="url(#155f7caa62)"><path fill="#ffffff" d="M 3.964844 4.613281 L 5.054688 4.613281 C 5.660156 4.613281 6.148438 4.121094 6.148438 3.519531 L 6.148438 2.425781 C 6.148438 1.824219 5.660156 1.332031 5.054688 1.332031 L 3.964844 1.332031 C 3.359375 1.332031 2.871094 1.824219 2.871094 2.425781 L 2.871094 3.519531 C 2.871094 4.121094 3.359375 4.613281 3.964844 4.613281 Z M 3.964844 2.425781 L 5.054688 2.425781 L 5.058594 3.519531 L 3.964844 3.519531 Z M 3.964844 2.425781 " fill-opacity="1" fill-rule="nonzero"/></g><g clip-path="url(#dc7e9d272b)"><path fill="#ffffff" d="M 8.335938 4.613281 L 9.429688 4.613281 C 10.03125 4.613281 10.523438 4.121094 10.523438 3.519531 L 10.523438 2.425781 C 10.523438 1.824219 10.03125 1.332031 9.429688 1.332031 L 8.335938 1.332031 C 7.734375 1.332031 7.242188 1.824219 7.242188 2.425781 L 7.242188 3.519531 C 7.242188 4.121094 7.734375 4.613281 8.335938 4.613281 Z M 8.335938 2.425781 L 9.429688 2.425781 L 9.429688 3.519531 L 8.335938 3.519531 Z M 8.335938 2.425781 " fill-opacity="1" fill-rule="nonzero"/></g><g clip-path="url(#6e1d41c8a5)"><path fill="#ffffff" d="M 12.710938 4.613281 L 13.804688 4.613281 C 14.40625 4.613281 14.898438 4.121094 14.898438 3.519531 L 14.898438 2.425781 C 14.898438 1.824219 14.40625 1.332031 13.804688 1.332031 L 12.710938 1.332031 C 12.105469 1.332031 11.617188 1.824219 11.617188 2.425781 L 11.617188 3.519531 C 11.617188 4.121094 12.105469 4.613281 12.710938 4.613281 Z M 12.710938 2.425781 L 13.804688 2.425781 L 13.804688 3.519531 L 12.710938 3.519531 Z M 12.710938 2.425781 " fill-opacity="1" fill-rule="nonzero"/></g></svg>