<svg xmlns="http://www.w3.org/2000/svg" xmlns:xlink="http://www.w3.org/1999/xlink" width="50" zoomAndPan="magnify" viewBox="0 0 37.5 37.499999" height="50" preserveAspectRatio="xMidYMid meet" version="1.0"><defs><clipPath id="957c6bf817"><path d="M 1.019531 22.613281 L 34.847656 22.613281 L 34.847656 37 L 1.019531 37 Z M 1.019531 22.613281 " clip-rule="nonzero"/></clipPath><clipPath id="05565a490d"><path d="M 8.5625 0.00390625 L 35.804688 0.00390625 L 35.804688 20.667969 L 8.5625 20.667969 Z M 8.5625 0.00390625 " clip-rule="nonzero"/></clipPath><clipPath id="65fa68c1f9"><path d="M 34.773438 13.980469 L 35.804688 13.980469 L 35.804688 15.386719 L 34.773438 15.386719 Z M 34.773438 13.980469 " clip-rule="nonzero"/></clipPath><clipPath id="637f79459e"><path d="M 34.773438 16.703125 L 35.804688 16.703125 L 35.804688 18.109375 L 34.773438 18.109375 Z M 34.773438 16.703125 " clip-rule="nonzero"/></clipPath></defs><g clip-path="url(#957c6bf817)"><path fill="#2e2a2b" d="M 32.242188 23.21875 C 31.703125 23.21875 31.1875 23.386719 30.746094 23.699219 L 26.8125 26.46875 C 26.703125 26.546875 26.632812 26.664062 26.609375 26.796875 C 26.585938 26.929688 26.617188 27.066406 26.695312 27.175781 C 26.789062 27.308594 26.945312 27.390625 27.109375 27.390625 C 27.214844 27.390625 27.3125 27.359375 27.398438 27.296875 L 31.332031 24.527344 C 31.601562 24.335938 31.917969 24.234375 32.246094 24.234375 C 32.757812 24.234375 33.242188 24.488281 33.539062 24.90625 C 33.785156 25.253906 33.878906 25.675781 33.808594 26.09375 C 33.738281 26.515625 33.507812 26.882812 33.164062 27.125 L 22.621094 34.617188 C 22.496094 34.703125 22.363281 34.773438 22.21875 34.824219 C 22.054688 34.878906 21.882812 34.910156 21.707031 34.910156 C 21.652344 34.910156 21.601562 34.90625 21.550781 34.902344 L 21.53125 34.898438 L 21.519531 34.894531 L 11.71875 32.386719 C 11.691406 32.378906 11.671875 32.375 11.65625 32.375 C 11.527344 32.351562 11.390625 32.34375 11.257812 32.34375 C 10.722656 32.34375 10.203125 32.511719 9.761719 32.824219 L 9.046875 33.335938 L 4.925781 27.507812 L 9.484375 24.234375 C 10.027344 23.847656 10.660156 23.640625 11.320312 23.640625 C 11.484375 23.640625 11.648438 23.65625 11.808594 23.679688 L 11.835938 23.6875 L 23.019531 26.949219 L 23.03125 26.953125 C 23.855469 27.191406 24.347656 28.054688 24.128906 28.875 C 24.019531 29.277344 23.761719 29.613281 23.398438 29.820312 C 23.160156 29.957031 22.886719 30.027344 22.613281 30.027344 C 22.472656 30.027344 22.332031 30.007812 22.195312 29.972656 C 22.191406 29.972656 22.1875 29.96875 22.183594 29.96875 C 22.179688 29.96875 22.175781 29.96875 22.171875 29.964844 L 16.402344 28.558594 C 16.367188 28.546875 16.328125 28.542969 16.289062 28.542969 C 16.054688 28.542969 15.851562 28.707031 15.796875 28.9375 C 15.765625 29.078125 15.792969 29.226562 15.878906 29.347656 C 15.949219 29.449219 16.054688 29.519531 16.171875 29.546875 L 21.941406 30.957031 C 21.945312 30.957031 21.949219 30.957031 21.953125 30.957031 C 22.171875 31.015625 22.394531 31.042969 22.617188 31.042969 C 23.0625 31.042969 23.503906 30.925781 23.894531 30.703125 C 24.496094 30.363281 24.925781 29.804688 25.105469 29.136719 C 25.464844 27.785156 24.660156 26.363281 23.308594 25.972656 L 12.125 22.710938 L 12.117188 22.710938 C 12.085938 22.699219 12.058594 22.691406 12.03125 22.683594 C 11.796875 22.644531 11.554688 22.625 11.320312 22.625 C 10.449219 22.625 9.613281 22.894531 8.898438 23.40625 L 4.339844 26.675781 L 3.820312 25.9375 C 3.726562 25.804688 3.570312 25.722656 3.40625 25.722656 C 3.300781 25.722656 3.199219 25.757812 3.113281 25.816406 L 1.242188 27.148438 C 1.242188 27.152344 1.238281 27.152344 1.234375 27.15625 L 1.222656 27.164062 C 1.09375 27.257812 1.019531 27.414062 1.019531 27.574219 C 1.019531 27.855469 1.246094 28.085938 1.527344 28.085938 C 1.644531 28.085938 1.753906 28.046875 1.84375 27.976562 L 1.851562 27.96875 L 3.289062 26.941406 L 9.042969 35.09375 L 7.714844 36.042969 C 7.683594 36.0625 7.652344 36.085938 7.625 36.109375 C 7.515625 36.207031 7.457031 36.34375 7.457031 36.488281 C 7.457031 36.773438 7.683594 37 7.964844 37 C 8.070312 37 8.175781 36.96875 8.261719 36.90625 L 10.042969 35.628906 C 10.269531 35.464844 10.324219 35.148438 10.160156 34.917969 L 9.628906 34.167969 L 10.347656 33.65625 C 10.617188 33.460938 10.933594 33.359375 11.261719 33.359375 C 11.332031 33.359375 11.402344 33.367188 11.472656 33.375 L 11.496094 33.378906 L 21.320312 35.894531 L 21.328125 35.894531 C 21.335938 35.898438 21.339844 35.898438 21.347656 35.898438 L 21.359375 35.902344 C 21.363281 35.902344 21.367188 35.902344 21.371094 35.902344 L 21.386719 35.90625 C 21.492188 35.917969 21.597656 35.925781 21.703125 35.925781 C 21.992188 35.925781 22.28125 35.878906 22.550781 35.78125 C 22.785156 35.703125 23.003906 35.589844 23.207031 35.445312 L 33.75 27.957031 C 34.316406 27.554688 34.6875 26.953125 34.804688 26.265625 C 34.921875 25.578125 34.765625 24.886719 34.363281 24.316406 C 33.878906 23.628906 33.085938 23.21875 32.242188 23.21875 " fill-opacity="1" fill-rule="nonzero"/></g><path fill="#2e2a2b" d="M 22.257812 11.265625 C 21.992188 11.042969 21.84375 10.75 21.839844 10.441406 C 21.835938 10.125 21.980469 9.820312 22.25 9.585938 C 22.414062 9.4375 22.613281 9.328125 22.832031 9.257812 L 22.832031 11.5 C 22.597656 11.453125 22.394531 11.378906 22.257812 11.265625 Z M 23.855469 12.746094 C 24.257812 12.847656 24.488281 12.976562 24.5 12.984375 C 24.980469 13.25 25.269531 13.6875 25.277344 14.15625 C 25.289062 14.859375 24.679688 15.457031 23.855469 15.609375 Z M 21.652344 14.21875 C 21.644531 13.921875 21.40625 13.6875 21.113281 13.695312 C 20.820312 13.699219 20.585938 13.941406 20.589844 14.234375 C 20.597656 14.589844 20.683594 14.929688 20.847656 15.246094 C 21.003906 15.546875 21.222656 15.8125 21.496094 16.035156 C 21.867188 16.339844 22.3125 16.546875 22.796875 16.648438 L 22.808594 17.257812 C 22.8125 17.550781 23.054688 17.785156 23.347656 17.78125 C 23.636719 17.773438 23.871094 17.53125 23.867188 17.238281 L 23.855469 16.6875 C 24.476562 16.609375 25.046875 16.363281 25.496094 15.96875 C 25.761719 15.734375 25.96875 15.460938 26.113281 15.15625 C 26.269531 14.832031 26.34375 14.488281 26.335938 14.136719 C 26.324219 13.285156 25.828125 12.507812 25.019531 12.054688 C 24.929688 12.003906 24.511719 11.785156 23.855469 11.652344 L 23.855469 9.222656 C 24.105469 9.28125 24.332031 9.390625 24.519531 9.542969 C 24.796875 9.773438 24.953125 10.074219 24.960938 10.386719 C 24.964844 10.683594 25.207031 10.917969 25.5 10.910156 C 25.792969 10.90625 26.023438 10.664062 26.019531 10.371094 C 26.007812 9.734375 25.714844 9.148438 25.191406 8.71875 C 24.824219 8.417969 24.375 8.222656 23.890625 8.140625 L 23.882812 7.5625 C 23.875 7.269531 23.632812 7.035156 23.34375 7.039062 C 23.050781 7.042969 22.816406 7.285156 22.820312 7.582031 L 22.832031 8.160156 C 22.351562 8.257812 21.90625 8.46875 21.550781 8.78125 C 21.042969 9.230469 20.769531 9.824219 20.78125 10.460938 C 20.789062 11.078125 21.074219 11.65625 21.574219 12.082031 C 21.578125 12.082031 21.578125 12.085938 21.578125 12.085938 C 21.9375 12.382812 22.386719 12.515625 22.832031 12.585938 L 22.832031 15.558594 C 22.152344 15.359375 21.660156 14.835938 21.652344 14.21875 " fill-opacity="1" fill-rule="nonzero"/><g clip-path="url(#05565a490d)"><path fill="#2e2a2b" d="M 13.472656 20.363281 C 13.566406 20.515625 13.730469 20.605469 13.90625 20.605469 C 14.082031 20.605469 14.246094 20.515625 14.339844 20.363281 L 19.15625 12.683594 C 19.257812 12.527344 19.261719 12.324219 19.171875 12.160156 C 19.082031 11.996094 18.910156 11.894531 18.726562 11.894531 L 16.304688 11.894531 C 16.359375 11.101562 16.542969 10.332031 16.847656 9.601562 C 17.210938 8.742188 17.726562 7.96875 18.386719 7.304688 C 19.046875 6.644531 19.816406 6.125 20.667969 5.757812 C 21.554688 5.382812 22.496094 5.191406 23.464844 5.191406 C 24.433594 5.191406 25.375 5.382812 26.257812 5.757812 C 27.113281 6.125 27.882812 6.644531 28.539062 7.304688 C 29.199219 7.96875 29.71875 8.742188 30.078125 9.601562 C 30.453125 10.492188 30.644531 11.433594 30.644531 12.410156 C 30.644531 13.382812 30.453125 14.328125 30.078125 15.21875 C 29.71875 16.078125 29.199219 16.851562 28.539062 17.511719 C 27.882812 18.175781 27.113281 18.695312 26.257812 19.058594 C 25.375 19.4375 24.433594 19.628906 23.464844 19.628906 C 22.496094 19.628906 21.554688 19.4375 20.667969 19.058594 C 19.816406 18.695312 19.046875 18.175781 18.386719 17.511719 C 18.1875 17.3125 17.863281 17.3125 17.664062 17.511719 C 17.464844 17.714844 17.464844 18.039062 17.664062 18.242188 C 18.417969 19 19.292969 19.59375 20.269531 20.007812 C 21.28125 20.4375 22.355469 20.65625 23.464844 20.65625 C 24.570312 20.65625 25.644531 20.4375 26.65625 20.007812 C 27.632812 19.59375 28.511719 19 29.265625 18.242188 C 30.019531 17.484375 30.609375 16.601562 31.023438 15.621094 C 31.449219 14.601562 31.667969 13.523438 31.667969 12.410156 C 31.667969 11.296875 31.449219 10.21875 31.023438 9.199219 C 30.609375 8.21875 30.019531 7.335938 29.265625 6.578125 C 28.511719 5.820312 27.632812 5.226562 26.65625 4.8125 C 25.644531 4.382812 24.570312 4.164062 23.464844 4.164062 C 22.355469 4.164062 21.28125 4.382812 20.269531 4.8125 C 19.292969 5.226562 18.417969 5.820312 17.664062 6.578125 C 16.910156 7.335938 16.320312 8.21875 15.90625 9.199219 C 15.542969 10.058594 15.332031 10.964844 15.277344 11.894531 L 13.90625 11.894531 C 13.621094 11.894531 13.394531 12.125 13.394531 12.410156 C 13.394531 12.695312 13.621094 12.925781 13.90625 12.925781 L 17.796875 12.925781 L 13.90625 19.125 L 10.015625 12.925781 L 11.636719 12.925781 C 11.917969 12.925781 12.148438 12.695312 12.148438 12.410156 C 12.148438 6.136719 17.226562 1.035156 23.464844 1.035156 C 29.703125 1.035156 34.78125 6.136719 34.78125 12.410156 C 34.78125 12.695312 35.007812 12.925781 35.292969 12.925781 C 35.574219 12.925781 35.804688 12.695312 35.804688 12.410156 C 35.804688 10.734375 35.476562 9.109375 34.832031 7.582031 C 34.210938 6.105469 33.324219 4.777344 32.191406 3.636719 C 31.054688 2.5 29.738281 1.605469 28.269531 0.980469 C 26.746094 0.332031 25.128906 0.00390625 23.464844 0.00390625 C 21.796875 0.00390625 20.183594 0.332031 18.660156 0.980469 C 17.191406 1.605469 15.871094 2.5 14.738281 3.636719 C 13.605469 4.777344 12.714844 6.105469 12.09375 7.582031 C 11.515625 8.953125 11.195312 10.402344 11.136719 11.894531 L 9.085938 11.894531 C 8.898438 11.894531 8.726562 11.996094 8.636719 12.160156 C 8.546875 12.324219 8.554688 12.527344 8.652344 12.683594 L 13.472656 20.363281 " fill-opacity="1" fill-rule="nonzero"/></g><g clip-path="url(#65fa68c1f9)"><path fill="#2e2a2b" d="M 35.292969 13.980469 C 35.007812 13.980469 34.78125 14.210938 34.78125 14.496094 L 34.78125 14.855469 C 34.78125 15.140625 35.007812 15.371094 35.292969 15.371094 C 35.574219 15.371094 35.804688 15.140625 35.804688 14.855469 L 35.804688 14.496094 C 35.804688 14.210938 35.574219 13.980469 35.292969 13.980469 " fill-opacity="1" fill-rule="nonzero"/></g><g clip-path="url(#637f79459e)"><path fill="#2e2a2b" d="M 35.292969 16.714844 C 35.007812 16.714844 34.78125 16.945312 34.78125 17.230469 L 34.78125 17.589844 C 34.78125 17.875 35.007812 18.105469 35.292969 18.105469 C 35.574219 18.105469 35.804688 17.875 35.804688 17.589844 L 35.804688 17.230469 C 35.804688 16.945312 35.574219 16.714844 35.292969 16.714844 " fill-opacity="1" fill-rule="nonzero"/></g></svg>