<svg xmlns="http://www.w3.org/2000/svg" xmlns:xlink="http://www.w3.org/1999/xlink" width="50" zoomAndPan="magnify" viewBox="0 0 37.5 37.499999" height="50" preserveAspectRatio="xMidYMid meet" version="1.0"><path fill="#ffbd59" d="M 21.390625 24.433594 L 14.734375 24.433594 C 13.394531 24.433594 12.304688 23.34375 12.304688 22.003906 L 12.304688 15.351562 C 12.304688 14.011719 13.394531 12.921875 14.734375 12.921875 L 21.390625 12.921875 C 22.730469 12.921875 23.820312 14.011719 23.820312 15.351562 L 23.820312 22.003906 C 23.820312 23.34375 22.730469 24.433594 21.390625 24.433594 Z M 14.734375 14.3125 C 14.164062 14.3125 13.699219 14.777344 13.699219 15.351562 L 13.699219 22.003906 C 13.699219 22.578125 14.164062 23.042969 14.734375 23.042969 L 21.390625 23.042969 C 21.960938 23.042969 22.429688 22.578125 22.429688 22.003906 L 22.429688 15.351562 C 22.429688 14.777344 21.964844 14.3125 21.390625 14.3125 Z M 14.734375 14.3125 " fill-opacity="1" fill-rule="nonzero"/><path fill="#ffbd59" d="M 19.136719 20.738281 L 18.132812 20.738281 L 17.878906 20.039062 L 16.113281 20.039062 L 15.851562 20.738281 L 14.851562 20.738281 L 16.445312 16.617188 L 17.546875 16.617188 Z M 17.640625 19.269531 L 16.996094 17.492188 L 16.351562 19.269531 Z M 17.640625 19.269531 " fill-opacity="1" fill-rule="nonzero"/><path fill="#ffbd59" d="M 19.519531 16.617188 L 20.398438 16.617188 L 20.398438 20.738281 L 19.519531 20.738281 Z M 19.519531 16.617188 " fill-opacity="1" fill-rule="nonzero"/><path fill="#ffbd59" d="M 14.277344 12.085938 C 13.890625 12.085938 13.578125 11.773438 13.578125 11.386719 L 13.578125 10.46875 C 13.578125 10.082031 13.890625 9.773438 14.277344 9.773438 C 14.660156 9.773438 14.972656 10.082031 14.972656 10.46875 L 14.972656 11.386719 C 14.972656 11.773438 14.660156 12.085938 14.277344 12.085938 Z M 14.277344 12.085938 " fill-opacity="1" fill-rule="nonzero"/><path fill="#ffbd59" d="M 18.035156 12.085938 C 17.648438 12.085938 17.335938 11.773438 17.335938 11.386719 L 17.335938 10.46875 C 17.335938 10.082031 17.648438 9.773438 18.035156 9.773438 C 18.417969 9.773438 18.730469 10.082031 18.730469 10.46875 L 18.730469 11.386719 C 18.730469 11.773438 18.417969 12.085938 18.035156 12.085938 Z M 18.035156 12.085938 " fill-opacity="1" fill-rule="nonzero"/><path fill="#ffbd59" d="M 21.792969 12.085938 C 21.40625 12.085938 21.09375 11.773438 21.09375 11.386719 L 21.09375 10.46875 C 21.09375 10.082031 21.40625 9.773438 21.792969 9.773438 C 22.175781 9.773438 22.488281 10.082031 22.488281 10.46875 L 22.488281 11.386719 C 22.488281 11.773438 22.175781 12.085938 21.792969 12.085938 Z M 21.792969 12.085938 " fill-opacity="1" fill-rule="nonzero"/><path fill="#ffbd59" d="M 26.214844 15.320312 L 25.292969 15.320312 C 24.910156 15.320312 24.597656 15.007812 24.597656 14.625 C 24.597656 14.238281 24.910156 13.925781 25.292969 13.925781 L 26.214844 13.925781 C 26.601562 13.925781 26.910156 14.238281 26.910156 14.625 C 26.910156 15.007812 26.601562 15.320312 26.214844 15.320312 Z M 26.214844 15.320312 " fill-opacity="1" fill-rule="nonzero"/><path fill="#ffbd59" d="M 26.214844 19.078125 L 25.292969 19.078125 C 24.910156 19.078125 24.597656 18.765625 24.597656 18.382812 C 24.597656 17.996094 24.910156 17.683594 25.292969 17.683594 L 26.214844 17.683594 C 26.601562 17.683594 26.910156 17.996094 26.910156 18.382812 C 26.910156 18.765625 26.601562 19.078125 26.214844 19.078125 Z M 26.214844 19.078125 " fill-opacity="1" fill-rule="nonzero"/><path fill="#ffbd59" d="M 26.214844 22.835938 L 25.292969 22.835938 C 24.910156 22.835938 24.597656 22.523438 24.597656 22.140625 C 24.597656 21.753906 24.910156 21.445312 25.292969 21.445312 L 26.214844 21.445312 C 26.601562 21.445312 26.910156 21.753906 26.910156 22.140625 C 26.910156 22.523438 26.601562 22.835938 26.214844 22.835938 Z M 26.214844 22.835938 " fill-opacity="1" fill-rule="nonzero"/><path fill="#ffbd59" d="M 10.53125 15.320312 L 9.609375 15.320312 C 9.226562 15.320312 8.914062 15.007812 8.914062 14.625 C 8.914062 14.238281 9.226562 13.925781 9.609375 13.925781 L 10.53125 13.925781 C 10.914062 13.925781 11.226562 14.238281 11.226562 14.625 C 11.226562 15.007812 10.914062 15.320312 10.53125 15.320312 Z M 10.53125 15.320312 " fill-opacity="1" fill-rule="nonzero"/><path fill="#ffbd59" d="M 10.53125 19.078125 L 9.609375 19.078125 C 9.226562 19.078125 8.914062 18.765625 8.914062 18.382812 C 8.914062 17.996094 9.226562 17.683594 9.609375 17.683594 L 10.53125 17.683594 C 10.914062 17.683594 11.226562 17.996094 11.226562 18.382812 C 11.226562 18.765625 10.914062 19.078125 10.53125 19.078125 Z M 10.53125 19.078125 " fill-opacity="1" fill-rule="nonzero"/><path fill="#ffbd59" d="M 10.53125 22.835938 L 9.609375 22.835938 C 9.226562 22.835938 8.914062 22.523438 8.914062 22.140625 C 8.914062 21.753906 9.226562 21.445312 9.609375 21.445312 L 10.53125 21.445312 C 10.914062 21.445312 11.226562 21.753906 11.226562 22.140625 C 11.226562 22.523438 10.914062 22.835938 10.53125 22.835938 Z M 10.53125 22.835938 " fill-opacity="1" fill-rule="nonzero"/><path fill="#ffbd59" d="M 14.277344 27.582031 C 13.890625 27.582031 13.578125 27.273438 13.578125 26.886719 L 13.578125 25.96875 C 13.578125 25.582031 13.890625 25.269531 14.277344 25.269531 C 14.660156 25.269531 14.972656 25.582031 14.972656 25.96875 L 14.972656 26.886719 C 14.972656 27.273438 14.660156 27.582031 14.277344 27.582031 Z M 14.277344 27.582031 " fill-opacity="1" fill-rule="nonzero"/><path fill="#ffbd59" d="M 18.035156 27.582031 C 17.648438 27.582031 17.335938 27.273438 17.335938 26.886719 L 17.335938 25.96875 C 17.335938 25.582031 17.648438 25.269531 18.035156 25.269531 C 18.417969 25.269531 18.730469 25.582031 18.730469 25.96875 L 18.730469 26.886719 C 18.730469 27.273438 18.417969 27.582031 18.035156 27.582031 Z M 18.035156 27.582031 " fill-opacity="1" fill-rule="nonzero"/><path fill="#ffbd59" d="M 21.792969 27.582031 C 21.40625 27.582031 21.09375 27.273438 21.09375 26.886719 L 21.09375 25.96875 C 21.09375 25.582031 21.40625 25.269531 21.792969 25.269531 C 22.175781 25.269531 22.488281 25.582031 22.488281 25.96875 L 22.488281 26.886719 C 22.488281 27.273438 22.175781 27.582031 21.792969 27.582031 Z M 21.792969 27.582031 " fill-opacity="1" fill-rule="nonzero"/><path fill="#ffbd59" d="M 11.371094 35.492188 C 8.730469 35.492188 6.410156 34.695312 4.742188 33.03125 C 2.398438 30.6875 1.675781 27.035156 2.710938 22.753906 C 3.714844 18.59375 6.269531 14.300781 9.902344 10.667969 C 17.488281 3.078125 27.523438 0.765625 32.261719 5.507812 C 37.007812 10.25 34.691406 20.28125 27.101562 27.871094 C 22.183594 32.789062 16.234375 35.492188 11.371094 35.492188 Z M 25.597656 4.394531 C 21.136719 4.394531 15.550781 6.988281 10.886719 11.652344 C 3.839844 18.695312 1.523438 27.84375 5.726562 32.046875 C 9.925781 36.246094 19.074219 33.929688 26.121094 26.886719 C 33.164062 19.839844 35.480469 10.691406 31.28125 6.492188 C 29.859375 5.070312 27.875 4.394531 25.597656 4.394531 Z M 26.613281 27.378906 Z M 26.613281 27.378906 " fill-opacity="1" fill-rule="nonzero"/><path fill="#ffbd59" d="M 25.636719 35.492188 C 20.769531 35.492188 14.820312 32.789062 9.902344 27.871094 C 2.3125 20.28125 0 10.25 4.742188 5.507812 C 9.484375 0.765625 19.515625 3.078125 27.101562 10.667969 C 30.738281 14.300781 33.292969 18.59375 34.296875 22.753906 C 35.328125 27.035156 34.605469 30.6875 32.261719 33.03125 C 30.597656 34.695312 28.273438 35.492188 25.636719 35.492188 Z M 10.886719 26.886719 C 17.929688 33.929688 27.078125 36.246094 31.28125 32.046875 C 35.480469 27.84375 33.164062 18.695312 26.121094 11.652344 C 19.074219 4.605469 9.925781 2.292969 5.726562 6.492188 C 1.527344 10.691406 3.839844 19.839844 10.886719 26.886719 Z M 10.886719 26.886719 " fill-opacity="1" fill-rule="nonzero"/><path fill="#ffbd59" d="M 32.765625 4.847656 C 32.765625 5.105469 32.71875 5.351562 32.617188 5.589844 C 32.519531 5.828125 32.378906 6.039062 32.195312 6.21875 C 32.015625 6.402344 31.804688 6.542969 31.566406 6.640625 C 31.328125 6.738281 31.082031 6.789062 30.824219 6.789062 C 30.566406 6.789062 30.316406 6.738281 30.078125 6.640625 C 29.839844 6.542969 29.632812 6.402344 29.449219 6.21875 C 29.265625 6.039062 29.125 5.828125 29.027344 5.589844 C 28.929688 5.351562 28.878906 5.105469 28.878906 4.847656 C 28.878906 4.589844 28.929688 4.339844 29.027344 4.101562 C 29.125 3.863281 29.265625 3.65625 29.449219 3.472656 C 29.632812 3.289062 29.839844 3.148438 30.078125 3.050781 C 30.316406 2.953125 30.566406 2.902344 30.824219 2.902344 C 31.082031 2.902344 31.328125 2.953125 31.566406 3.050781 C 31.804688 3.148438 32.015625 3.289062 32.195312 3.472656 C 32.378906 3.65625 32.519531 3.863281 32.617188 4.101562 C 32.71875 4.339844 32.765625 4.589844 32.765625 4.847656 Z M 32.765625 4.847656 " fill-opacity="1" fill-rule="nonzero"/><path fill="#ffbd59" d="M 34.796875 32.765625 C 34.796875 33.136719 34.726562 33.492188 34.582031 33.835938 C 34.441406 34.175781 34.238281 34.480469 33.976562 34.742188 C 33.714844 35.003906 33.414062 35.207031 33.070312 35.347656 C 32.726562 35.488281 32.371094 35.5625 32 35.5625 C 31.628906 35.5625 31.273438 35.488281 30.929688 35.347656 C 30.585938 35.207031 30.285156 35.003906 30.023438 34.742188 C 29.761719 34.480469 29.558594 34.175781 29.417969 33.835938 C 29.273438 33.492188 29.203125 33.136719 29.203125 32.765625 C 29.203125 32.394531 29.273438 32.039062 29.417969 31.695312 C 29.558594 31.351562 29.761719 31.050781 30.023438 30.789062 C 30.285156 30.527344 30.585938 30.324219 30.929688 30.183594 C 31.273438 30.039062 31.628906 29.96875 32 29.96875 C 32.371094 29.96875 32.726562 30.039062 33.070312 30.183594 C 33.414062 30.324219 33.714844 30.527344 33.976562 30.789062 C 34.238281 31.050781 34.441406 31.351562 34.582031 31.695312 C 34.726562 32.039062 34.796875 32.394531 34.796875 32.765625 Z M 34.796875 32.765625 " fill-opacity="1" fill-rule="nonzero"/><path fill="#ffbd59" d="M 11.632812 26.886719 C 11.632812 27.15625 11.578125 27.414062 11.476562 27.660156 C 11.375 27.910156 11.230469 28.128906 11.039062 28.316406 C 10.847656 28.507812 10.628906 28.652344 10.382812 28.753906 C 10.136719 28.859375 9.878906 28.910156 9.609375 28.910156 C 9.339844 28.910156 9.082031 28.859375 8.835938 28.753906 C 8.585938 28.652344 8.367188 28.507812 8.179688 28.316406 C 7.988281 28.128906 7.84375 27.910156 7.742188 27.660156 C 7.636719 27.414062 7.585938 27.15625 7.585938 26.886719 C 7.585938 26.621094 7.636719 26.363281 7.742188 26.113281 C 7.84375 25.867188 7.988281 25.648438 8.179688 25.457031 C 8.367188 25.269531 8.585938 25.121094 8.835938 25.019531 C 9.082031 24.917969 9.339844 24.867188 9.609375 24.867188 C 9.878906 24.867188 10.136719 24.917969 10.382812 25.019531 C 10.628906 25.121094 10.847656 25.269531 11.039062 25.457031 C 11.230469 25.648438 11.375 25.867188 11.476562 26.113281 C 11.578125 26.363281 11.632812 26.621094 11.632812 26.886719 Z M 11.632812 26.886719 " fill-opacity="1" fill-rule="nonzero"/></svg>