<svg xmlns="http://www.w3.org/2000/svg" xmlns:xlink="http://www.w3.org/1999/xlink" width="50" zoomAndPan="magnify" viewBox="0 0 37.5 37.499999" height="50" preserveAspectRatio="xMidYMid meet" version="1.0"><defs><clipPath id="85533ffb42"><path d="M 0 0.347656 L 37 0.347656 L 37 36.613281 L 0 36.613281 Z M 0 0.347656 " clip-rule="nonzero"/></clipPath></defs><g clip-path="url(#85533ffb42)"><path fill="#000000" d="M 3.761719 28.054688 L 2.585938 26.878906 C 2.414062 26.707031 2.367188 26.449219 2.464844 26.226562 C 2.464844 26.226562 3.21875 24.527344 3.21875 24.527344 C 2.742188 23.699219 2.371094 22.808594 2.121094 21.886719 L 0.386719 21.21875 C 0.160156 21.128906 0.0078125 20.914062 0.0078125 20.671875 L 0.0078125 17.375 C 0.0078125 17.132812 0.160156 16.914062 0.386719 16.828125 C 0.386719 16.828125 2.121094 16.160156 2.121094 16.160156 C 2.371094 15.234375 2.742188 14.347656 3.222656 13.515625 L 2.464844 11.816406 C 2.367188 11.59375 2.414062 11.335938 2.585938 11.164062 L 4.917969 8.835938 C 5.089844 8.664062 5.347656 8.613281 5.570312 8.714844 C 5.570312 8.714844 7.273438 9.46875 7.273438 9.46875 C 8.105469 8.988281 8.992188 8.621094 9.917969 8.375 L 10.589844 6.636719 C 10.675781 6.410156 10.894531 6.261719 11.136719 6.261719 L 14.4375 6.261719 C 14.679688 6.261719 14.898438 6.410156 14.984375 6.636719 L 15.652344 8.375 C 16.578125 8.621094 17.46875 8.988281 18.296875 9.46875 L 20 8.714844 C 20.222656 8.613281 20.480469 8.664062 20.652344 8.835938 L 21.34375 9.523438 C 21.34375 8.796875 21.34375 8.0625 21.34375 8.0625 L 20.195312 8.0625 C 19.246094 8.0625 18.722656 6.972656 19.304688 6.234375 C 19.304688 6.234375 23.496094 0.925781 23.496094 0.925781 C 23.949219 0.34375 24.816406 0.34375 25.269531 0.925781 L 29.460938 6.234375 C 30.042969 6.972656 29.519531 8.0625 28.566406 8.0625 L 27.421875 8.0625 L 27.421875 12.394531 C 28.660156 10.824219 30.449219 8.558594 30.449219 8.558594 C 30.902344 7.976562 31.773438 7.976562 32.226562 8.558594 L 36.414062 13.867188 C 36.996094 14.605469 36.476562 15.695312 35.523438 15.695312 L 34.375 15.695312 L 34.375 26.652344 C 34.375 26.976562 34.113281 27.242188 33.785156 27.242188 L 28.890625 27.242188 C 28.5625 27.242188 28.300781 26.976562 28.300781 26.652344 C 28.300781 26.652344 28.300781 18.046875 28.300781 15.695312 L 27.421875 15.695312 L 27.421875 19.023438 C 27.421875 19.347656 27.15625 19.609375 26.832031 19.609375 L 25.5625 19.609375 L 25.5625 20.671875 C 25.5625 20.914062 25.414062 21.128906 25.183594 21.21875 C 25.183594 21.21875 23.449219 21.882812 23.449219 21.882812 C 23.203125 22.808594 22.832031 23.695312 22.351562 24.527344 L 23.105469 26.226562 C 23.207031 26.449219 23.15625 26.707031 22.984375 26.878906 L 22.25 27.613281 L 24.113281 31.957031 C 24.199219 32.15625 24.164062 32.390625 24.027344 32.558594 C 23.890625 32.726562 23.667969 32.804688 23.453125 32.761719 C 23.453125 32.761719 19.929688 32.042969 19.929688 32.042969 L 18.03125 35.09375 C 17.914062 35.28125 17.703125 35.386719 17.484375 35.371094 C 17.265625 35.351562 17.074219 35.214844 16.992188 35.011719 L 15.214844 30.8125 L 14.984375 31.40625 C 14.898438 31.632812 14.679688 31.78125 14.4375 31.78125 L 11.136719 31.78125 C 10.964844 31.78125 10.804688 31.707031 10.695312 31.582031 L 8.492188 36.265625 C 8.398438 36.460938 8.203125 36.589844 7.988281 36.601562 C 7.769531 36.609375 7.5625 36.5 7.453125 36.308594 C 7.453125 36.308594 5.644531 33.203125 5.644531 33.203125 L 2.101562 33.824219 C 1.886719 33.859375 1.667969 33.777344 1.535156 33.601562 C 1.402344 33.429688 1.375 33.195312 1.46875 32.996094 Z M 22.523438 10.703125 L 22.984375 11.164062 C 23.15625 11.335938 23.207031 11.59375 23.105469 11.816406 C 23.105469 11.816406 22.351562 13.515625 22.351562 13.515625 C 22.832031 14.347656 23.203125 15.234375 23.449219 16.160156 L 25.183594 16.828125 C 25.414062 16.914062 25.5625 17.132812 25.5625 17.375 L 25.5625 18.433594 C 25.894531 18.433594 26.242188 18.433594 26.242188 18.433594 L 26.242188 15.238281 C 25.964844 14.859375 25.921875 14.320312 26.242188 13.890625 L 26.242188 7.472656 C 26.242188 7.148438 26.503906 6.886719 26.832031 6.886719 L 28.472656 6.886719 L 24.382812 1.703125 L 20.292969 6.886719 L 21.933594 6.886719 C 22.257812 6.886719 22.523438 7.148438 22.523438 7.472656 Z M 21.355469 28.507812 L 20.652344 29.207031 C 20.480469 29.378906 20.222656 29.429688 20 29.328125 C 20 29.328125 18.300781 28.578125 18.300781 28.578125 C 17.5625 29.003906 16.78125 29.339844 15.96875 29.582031 L 17.632812 33.511719 L 19.148438 31.074219 C 19.277344 30.867188 19.523438 30.761719 19.761719 30.808594 L 22.589844 31.386719 Z M 10.089844 30.109375 C 9.996094 29.859375 9.921875 29.671875 9.921875 29.671875 C 8.992188 29.425781 8.105469 29.054688 7.273438 28.578125 L 5.570312 29.328125 C 5.347656 29.429688 5.089844 29.378906 4.917969 29.207031 L 4.648438 28.9375 L 3.003906 32.472656 L 5.847656 31.976562 C 6.089844 31.933594 6.332031 32.046875 6.457031 32.257812 C 6.457031 32.257812 7.90625 34.753906 7.90625 34.753906 Z M 14.664062 9.078125 L 14.03125 7.433594 C 14.03125 7.433594 11.542969 7.433594 11.542969 7.433594 L 10.90625 9.078125 C 10.835938 9.257812 10.683594 9.394531 10.492188 9.4375 C 9.476562 9.679688 8.511719 10.082031 7.621094 10.628906 C 7.457031 10.730469 7.25 10.742188 7.074219 10.664062 L 5.460938 9.949219 L 3.703125 11.707031 L 4.417969 13.316406 C 4.496094 13.492188 4.484375 13.699219 4.382812 13.863281 C 3.832031 14.753906 3.429688 15.71875 3.1875 16.738281 C 3.140625 16.925781 3.007812 17.078125 2.828125 17.148438 L 1.183594 17.777344 C 1.183594 17.777344 1.183594 20.265625 1.183594 20.265625 L 2.828125 20.898438 C 3.007812 20.96875 3.140625 21.121094 3.1875 21.308594 C 3.429688 22.324219 3.832031 23.292969 4.378906 24.179688 C 4.484375 24.34375 4.496094 24.550781 4.417969 24.726562 C 4.417969 24.726562 3.703125 26.335938 3.703125 26.335938 L 5.464844 28.09375 L 7.074219 27.382812 C 7.25 27.304688 7.453125 27.316406 7.617188 27.417969 C 8.507812 27.960938 9.476562 28.367188 10.496094 28.605469 C 10.683594 28.652344 10.839844 28.785156 10.910156 28.96875 L 11.542969 30.609375 C 11.542969 30.609375 14.03125 30.609375 14.03125 30.609375 L 14.664062 28.96875 C 14.734375 28.785156 14.890625 28.652344 15.078125 28.609375 C 16.09375 28.367188 17.0625 27.964844 17.949219 27.417969 C 18.113281 27.316406 18.320312 27.304688 18.496094 27.382812 L 20.109375 28.09375 L 21.871094 26.335938 L 21.15625 24.726562 C 21.078125 24.550781 21.089844 24.347656 21.191406 24.179688 C 21.738281 23.292969 22.140625 22.324219 22.382812 21.3125 C 22.429688 21.121094 22.5625 20.96875 22.746094 20.898438 L 24.386719 20.265625 C 24.386719 20.265625 24.386719 17.777344 24.386719 17.777344 L 22.746094 17.148438 C 22.5625 17.078125 22.429688 16.921875 22.382812 16.734375 C 22.140625 15.71875 21.742188 14.75 21.191406 13.863281 C 21.089844 13.699219 21.078125 13.496094 21.15625 13.316406 C 21.15625 13.316406 21.871094 11.707031 21.871094 11.707031 L 20.109375 9.949219 L 18.496094 10.664062 C 18.320312 10.742188 18.117188 10.730469 17.949219 10.628906 C 17.0625 10.082031 16.09375 9.679688 15.078125 9.4375 C 14.890625 9.394531 14.734375 9.257812 14.664062 9.078125 Z M 12.785156 11.578125 C 16.898438 11.578125 20.238281 14.914062 20.238281 19.023438 C 20.238281 23.128906 16.898438 26.464844 12.785156 26.464844 C 8.671875 26.464844 5.332031 23.128906 5.332031 19.023438 C 5.332031 14.914062 8.671875 11.578125 12.785156 11.578125 Z M 12.785156 12.75 C 9.320312 12.75 6.507812 15.558594 6.507812 19.023438 C 6.507812 22.484375 9.320312 25.292969 12.785156 25.292969 C 16.25 25.292969 19.0625 22.484375 19.0625 19.023438 C 19.0625 15.558594 16.25 12.75 12.785156 12.75 Z M 11.851562 18.8125 L 14.882812 15.753906 L 14.886719 15.753906 C 15.523438 15.113281 16.5625 15.109375 17.203125 15.746094 C 17.839844 16.382812 17.847656 17.417969 17.210938 18.058594 C 15.808594 19.46875 14.421875 20.886719 13.015625 22.292969 C 12.375 22.929688 11.335938 22.929688 10.695312 22.292969 L 8.367188 19.964844 C 7.726562 19.324219 7.726562 18.289062 8.367188 17.648438 C 9.007812 17.007812 10.046875 17.007812 10.683594 17.648438 Z M 11.4375 20.058594 L 9.855469 18.476562 C 9.671875 18.296875 9.378906 18.296875 9.199219 18.476562 C 9.015625 18.660156 9.015625 18.953125 9.195312 19.132812 L 11.527344 21.460938 C 11.707031 21.644531 12.003906 21.644531 12.183594 21.460938 C 13.589844 20.058594 14.976562 18.640625 16.375 17.234375 C 16.554688 17.050781 16.554688 16.757812 16.375 16.578125 C 16.191406 16.398438 15.898438 16.398438 15.71875 16.582031 L 12.273438 20.058594 C 12.164062 20.167969 12.011719 20.230469 11.855469 20.230469 C 11.699219 20.234375 11.550781 20.171875 11.4375 20.058594 Z M 27.25 14.515625 L 28.890625 14.515625 C 29.214844 14.515625 29.480469 14.78125 29.480469 15.105469 C 29.480469 15.105469 29.480469 26.0625 29.480469 26.0625 L 33.195312 26.0625 L 33.195312 15.105469 C 33.195312 14.78125 33.460938 14.515625 33.785156 14.515625 L 35.425781 14.515625 L 31.339844 9.335938 Z M 27.25 14.515625 " fill-opacity="1" fill-rule="evenodd"/></g></svg>