<svg xmlns="http://www.w3.org/2000/svg" xmlns:xlink="http://www.w3.org/1999/xlink" width="50" zoomAndPan="magnify" viewBox="0 0 37.5 37.499999" height="50" preserveAspectRatio="xMidYMid meet" version="1.0"><defs><clipPath id="82a6d432de"><path d="M 4 30 L 10 30 L 10 37.007812 L 4 37.007812 Z M 4 30 " clip-rule="nonzero"/></clipPath><clipPath id="ac67a9965e"><path d="M 11 28 L 17 28 L 17 37.007812 L 11 37.007812 Z M 11 28 " clip-rule="nonzero"/></clipPath><clipPath id="a8918916c1"><path d="M 17 25 L 23 25 L 23 37.007812 L 17 37.007812 Z M 17 25 " clip-rule="nonzero"/></clipPath><clipPath id="c282442e9a"><path d="M 24 21 L 30 21 L 30 37.007812 L 24 37.007812 Z M 24 21 " clip-rule="nonzero"/></clipPath><clipPath id="8d5cb91930"><path d="M 31 16 L 37 16 L 37 37.007812 L 31 37.007812 Z M 31 16 " clip-rule="nonzero"/></clipPath></defs><path fill="#000000" d="M 0.632812 11.1875 L 2.167969 11.296875 C 2.328125 11.886719 2.566406 12.453125 2.875 12.992188 L 1.863281 14.15625 C 1.652344 14.402344 1.664062 14.765625 1.894531 14.996094 L 3.632812 16.734375 C 3.859375 16.960938 4.226562 16.972656 4.46875 16.761719 L 5.632812 15.753906 C 6.171875 16.058594 6.738281 16.296875 7.328125 16.457031 L 7.4375 17.992188 C 7.460938 18.316406 7.730469 18.566406 8.054688 18.566406 L 10.511719 18.566406 C 10.832031 18.566406 11.101562 18.316406 11.125 17.992188 L 11.234375 16.457031 C 11.824219 16.296875 12.394531 16.058594 12.929688 15.753906 L 14.09375 16.761719 C 14.339844 16.972656 14.703125 16.960938 14.933594 16.734375 L 16.671875 14.996094 C 16.898438 14.765625 16.914062 14.402344 16.703125 14.15625 L 15.691406 12.992188 C 16 12.453125 16.234375 11.886719 16.398438 11.296875 L 17.933594 11.1875 C 18.253906 11.164062 18.503906 10.894531 18.503906 10.574219 L 18.503906 8.113281 C 18.503906 7.792969 18.253906 7.523438 17.933594 7.5 L 16.398438 7.390625 C 16.234375 6.800781 16 6.234375 15.691406 5.695312 L 16.703125 4.53125 C 16.914062 4.285156 16.898438 3.921875 16.671875 3.691406 L 14.933594 1.953125 C 14.703125 1.726562 14.339844 1.714844 14.09375 1.925781 L 12.929688 2.933594 C 12.394531 2.628906 11.824219 2.390625 11.234375 2.230469 L 11.125 0.695312 C 11.101562 0.371094 10.832031 0.121094 10.511719 0.121094 L 8.054688 0.121094 C 7.730469 0.121094 7.460938 0.371094 7.4375 0.695312 L 7.328125 2.230469 C 6.738281 2.390625 6.171875 2.628906 5.632812 2.933594 L 4.46875 1.925781 C 4.210938 1.703125 3.824219 1.730469 3.601562 1.988281 C 3.378906 2.242188 3.40625 2.632812 3.664062 2.855469 L 5.167969 4.160156 C 5.378906 4.339844 5.679688 4.359375 5.910156 4.207031 C 6.566406 3.777344 7.28125 3.480469 8.035156 3.324219 C 8.304688 3.269531 8.503906 3.039062 8.523438 2.765625 L 8.625 1.351562 L 9.941406 1.351562 L 10.039062 2.765625 C 10.058594 3.039062 10.261719 3.269531 10.53125 3.324219 C 11.285156 3.480469 12 3.777344 12.65625 4.207031 C 12.882812 4.359375 13.1875 4.339844 13.394531 4.15625 L 14.46875 3.226562 L 15.398438 4.15625 L 14.46875 5.230469 C 14.289062 5.4375 14.269531 5.742188 14.417969 5.972656 C 14.851562 6.625 15.148438 7.339844 15.304688 8.097656 C 15.359375 8.367188 15.585938 8.566406 15.859375 8.585938 L 17.273438 8.6875 L 17.273438 10 L 15.859375 10.101562 C 15.585938 10.121094 15.359375 10.320312 15.304688 10.589844 C 15.148438 11.347656 14.851562 12.0625 14.417969 12.714844 C 14.269531 12.945312 14.289062 13.25 14.46875 13.457031 L 15.398438 14.53125 L 14.46875 15.460938 L 13.394531 14.53125 C 13.1875 14.347656 12.882812 14.328125 12.65625 14.480469 C 12 14.910156 11.285156 15.207031 10.53125 15.363281 C 10.261719 15.417969 10.058594 15.648438 10.039062 15.921875 L 9.941406 17.335938 L 8.625 17.335938 L 8.523438 15.921875 C 8.503906 15.648438 8.304688 15.417969 8.035156 15.363281 C 7.28125 15.207031 6.566406 14.910156 5.910156 14.480469 C 5.679688 14.328125 5.378906 14.347656 5.167969 14.53125 L 4.097656 15.460938 L 3.167969 14.53125 L 4.097656 13.457031 C 4.277344 13.25 4.296875 12.945312 4.144531 12.714844 C 3.714844 12.0625 3.417969 11.347656 3.261719 10.589844 C 3.207031 10.320312 2.976562 10.121094 2.703125 10.101562 L 1.289062 10 L 1.289062 8.6875 L 2.703125 8.585938 C 2.976562 8.566406 3.207031 8.367188 3.261719 8.097656 C 3.417969 7.339844 3.714844 6.625 4.144531 5.972656 C 4.296875 5.742188 4.277344 5.4375 4.097656 5.230469 L 2.792969 3.726562 C 2.570312 3.46875 2.183594 3.441406 1.925781 3.664062 C 1.667969 3.886719 1.640625 4.273438 1.863281 4.53125 L 2.875 5.695312 C 2.566406 6.234375 2.328125 6.800781 2.167969 7.390625 L 0.632812 7.5 C 0.308594 7.523438 0.0625 7.792969 0.0625 8.113281 L 0.0625 10.574219 C 0.0625 10.894531 0.308594 11.164062 0.632812 11.1875 Z M 0.632812 11.1875 " fill-opacity="1" fill-rule="nonzero"/><path fill="#000000" d="M 9.28125 14.261719 C 11.992188 14.261719 14.199219 12.054688 14.199219 9.34375 C 14.199219 6.632812 11.992188 4.425781 9.28125 4.425781 C 6.570312 4.425781 4.363281 6.632812 4.363281 9.34375 C 4.363281 12.054688 6.570312 14.261719 9.28125 14.261719 Z M 8.667969 5.710938 L 8.667969 6.269531 C 8.667969 6.609375 8.941406 6.886719 9.28125 6.886719 C 9.621094 6.886719 9.898438 6.609375 9.898438 6.269531 L 9.898438 5.710938 C 11.4375 5.972656 12.65625 7.1875 12.914062 8.730469 L 12.355469 8.730469 C 12.015625 8.730469 11.742188 9.003906 11.742188 9.34375 C 11.742188 9.683594 12.015625 9.957031 12.355469 9.957031 L 12.914062 9.957031 C 12.65625 11.5 11.4375 12.714844 9.898438 12.976562 L 9.898438 12.417969 C 9.898438 12.078125 9.621094 11.804688 9.28125 11.804688 C 8.941406 11.804688 8.667969 12.078125 8.667969 12.417969 L 8.667969 12.976562 C 7.125 12.71875 5.910156 11.5 5.648438 9.957031 L 6.207031 9.957031 C 6.546875 9.957031 6.824219 9.683594 6.824219 9.34375 C 6.824219 9.003906 6.546875 8.730469 6.207031 8.730469 L 5.648438 8.730469 C 5.910156 7.1875 7.125 5.972656 8.667969 5.710938 Z M 8.667969 5.710938 " fill-opacity="1" fill-rule="nonzero"/><path fill="#000000" d="M 10.078125 11.007812 C 10.195312 11.128906 10.355469 11.1875 10.511719 11.1875 C 10.667969 11.1875 10.828125 11.128906 10.945312 11.007812 C 11.1875 10.765625 11.1875 10.378906 10.945312 10.140625 L 9.898438 9.089844 L 9.898438 8.113281 C 9.898438 7.773438 9.621094 7.5 9.28125 7.5 C 8.941406 7.5 8.667969 7.773438 8.667969 8.113281 L 8.667969 9.34375 C 8.667969 9.507812 8.730469 9.664062 8.847656 9.777344 Z M 10.078125 11.007812 " fill-opacity="1" fill-rule="nonzero"/><path fill="#000000" d="M 36.089844 0.554688 C 35.550781 0.152344 34.847656 0.0234375 34.203125 0.207031 L 25.597656 2.664062 C 24.457031 2.988281 23.792969 4.183594 24.117188 5.324219 C 24.445312 6.464844 25.640625 7.125 26.777344 6.800781 L 29.925781 5.902344 L 27.390625 9.597656 C 25.976562 11.664062 24.304688 13.566406 22.433594 15.25 C 22.183594 15.476562 22.160156 15.867188 22.390625 16.117188 C 22.617188 16.371094 23.003906 16.390625 23.257812 16.164062 C 25.203125 14.414062 26.933594 12.4375 28.40625 10.292969 L 31.90625 5.191406 C 32.050781 4.976562 32.046875 4.695312 31.894531 4.484375 C 31.742188 4.273438 31.476562 4.183594 31.226562 4.253906 L 26.441406 5.621094 C 25.953125 5.757812 25.441406 5.476562 25.300781 4.988281 C 25.160156 4.5 25.445312 3.988281 25.933594 3.847656 L 34.539062 1.386719 C 34.816406 1.3125 35.117188 1.367188 35.347656 1.539062 C 35.578125 1.710938 35.714844 1.984375 35.714844 2.273438 L 35.714844 11.496094 C 35.714844 12.003906 35.300781 12.417969 34.792969 12.417969 C 34.285156 12.417969 33.871094 12.003906 33.871094 11.496094 L 33.871094 7.566406 C 33.871094 7.296875 33.695312 7.058594 33.4375 6.980469 C 33.183594 6.898438 32.902344 6.996094 32.75 7.21875 L 29.925781 11.335938 C 23.660156 20.472656 13.3125 26.160156 2.210938 26.554688 C 1.714844 26.554688 1.308594 26.164062 1.292969 25.667969 C 1.273438 25.160156 1.671875 24.730469 2.179688 24.710938 C 9.035156 24.46875 15.835938 22 21.324219 17.757812 C 21.59375 17.550781 21.644531 17.167969 21.4375 16.898438 C 21.230469 16.628906 20.84375 16.578125 20.574219 16.785156 C 15.285156 20.871094 8.738281 23.25 2.136719 23.484375 C 1.5625 23.503906 1.03125 23.746094 0.636719 24.167969 C 0.246094 24.585938 0.0429688 25.136719 0.0625 25.710938 C 0.105469 26.875 1.046875 27.785156 2.210938 27.785156 C 2.21875 27.785156 2.28125 27.785156 2.289062 27.785156 C 13.746094 27.375 24.457031 21.488281 30.941406 12.03125 L 32.640625 9.550781 L 32.640625 11.496094 C 32.640625 12.683594 33.605469 13.648438 34.792969 13.648438 C 35.980469 13.648438 36.945312 12.683594 36.945312 11.496094 L 36.945312 2.273438 C 36.945312 1.601562 36.625 0.960938 36.089844 0.554688 Z M 36.089844 0.554688 " fill-opacity="1" fill-rule="nonzero"/><g clip-path="url(#82a6d432de)"><path fill="#000000" d="M 8.667969 30.859375 L 4.980469 30.859375 C 4.640625 30.859375 4.363281 31.132812 4.363281 31.472656 L 4.363281 36.390625 C 4.363281 36.730469 4.640625 37.007812 4.980469 37.007812 L 8.667969 37.007812 C 9.007812 37.007812 9.28125 36.730469 9.28125 36.390625 L 9.28125 31.472656 C 9.28125 31.132812 9.007812 30.859375 8.667969 30.859375 Z M 8.054688 35.777344 L 5.59375 35.777344 L 5.59375 32.089844 L 8.054688 32.089844 Z M 8.054688 35.777344 " fill-opacity="1" fill-rule="nonzero"/></g><g clip-path="url(#ac67a9965e)"><path fill="#000000" d="M 15.429688 28.402344 L 11.742188 28.402344 C 11.402344 28.402344 11.125 28.675781 11.125 29.015625 L 11.125 36.390625 C 11.125 36.730469 11.402344 37.007812 11.742188 37.007812 L 15.429688 37.007812 C 15.769531 37.007812 16.042969 36.730469 16.042969 36.390625 L 16.042969 29.015625 C 16.042969 28.675781 15.769531 28.402344 15.429688 28.402344 Z M 14.816406 35.777344 L 12.355469 35.777344 L 12.355469 29.628906 L 14.816406 29.628906 Z M 14.816406 35.777344 " fill-opacity="1" fill-rule="nonzero"/></g><g clip-path="url(#a8918916c1)"><path fill="#000000" d="M 22.191406 25.941406 L 18.503906 25.941406 C 18.164062 25.941406 17.886719 26.21875 17.886719 26.554688 L 17.886719 36.390625 C 17.886719 36.730469 18.164062 37.007812 18.503906 37.007812 L 22.191406 37.007812 C 22.53125 37.007812 22.804688 36.730469 22.804688 36.390625 L 22.804688 33.933594 C 22.804688 33.59375 22.53125 33.316406 22.191406 33.316406 C 21.851562 33.316406 21.578125 33.59375 21.578125 33.933594 L 21.578125 35.777344 L 19.117188 35.777344 L 19.117188 27.171875 L 21.578125 27.171875 L 21.578125 31.472656 C 21.578125 31.8125 21.851562 32.089844 22.191406 32.089844 C 22.53125 32.089844 22.804688 31.8125 22.804688 31.472656 L 22.804688 26.554688 C 22.804688 26.21875 22.53125 25.941406 22.191406 25.941406 Z M 22.191406 25.941406 " fill-opacity="1" fill-rule="nonzero"/></g><g clip-path="url(#c282442e9a)"><path fill="#000000" d="M 28.953125 21.636719 L 25.265625 21.636719 C 24.925781 21.636719 24.652344 21.914062 24.652344 22.253906 L 24.652344 36.390625 C 24.652344 36.730469 24.925781 37.007812 25.265625 37.007812 L 28.953125 37.007812 C 29.292969 37.007812 29.570312 36.730469 29.570312 36.390625 L 29.570312 22.253906 C 29.570312 21.914062 29.292969 21.636719 28.953125 21.636719 Z M 28.339844 35.777344 L 25.878906 35.777344 L 25.878906 22.867188 L 28.339844 22.867188 Z M 28.339844 35.777344 " fill-opacity="1" fill-rule="nonzero"/></g><g clip-path="url(#8d5cb91930)"><path fill="#000000" d="M 35.714844 16.71875 L 32.027344 16.71875 C 31.6875 16.71875 31.414062 16.996094 31.414062 17.335938 L 31.414062 36.390625 C 31.414062 36.730469 31.6875 37.007812 32.027344 37.007812 L 35.714844 37.007812 C 36.054688 37.007812 36.332031 36.730469 36.332031 36.390625 L 36.332031 25.941406 C 36.332031 25.601562 36.054688 25.328125 35.714844 25.328125 C 35.375 25.328125 35.101562 25.601562 35.101562 25.941406 L 35.101562 35.777344 L 32.640625 35.777344 L 32.640625 17.949219 L 35.101562 17.949219 L 35.101562 23.484375 C 35.101562 23.820312 35.375 24.097656 35.714844 24.097656 C 36.054688 24.097656 36.332031 23.820312 36.332031 23.484375 L 36.332031 17.335938 C 36.332031 16.996094 36.054688 16.71875 35.714844 16.71875 Z M 35.714844 16.71875 " fill-opacity="1" fill-rule="nonzero"/></g></svg>