<svg xmlns="http://www.w3.org/2000/svg" xmlns:xlink="http://www.w3.org/1999/xlink" width="50" zoomAndPan="magnify" viewBox="0 0 37.5 37.499999" height="50" preserveAspectRatio="xMidYMid meet" version="1.0"><defs><clipPath id="198c97cae8"><path d="M 9 9 L 36.265625 9 L 36.265625 36.488281 L 9 36.488281 Z M 9 9 " clip-rule="nonzero"/></clipPath><clipPath id="a910a01cc2"><path d="M 9 0.960938 L 11 0.960938 L 11 4 L 9 4 Z M 9 0.960938 " clip-rule="nonzero"/></clipPath><clipPath id="e79c23237e"><path d="M 0.738281 9 L 4 9 L 4 11 L 0.738281 11 Z M 0.738281 9 " clip-rule="nonzero"/></clipPath></defs><path fill="#ff5757" d="M 26.839844 22.132812 C 24.222656 22.132812 22.089844 24.265625 22.089844 26.882812 C 22.089844 29.5 24.222656 31.632812 26.839844 31.632812 C 29.457031 31.632812 31.589844 29.5 31.589844 26.882812 C 31.589844 24.265625 29.457031 22.132812 26.839844 22.132812 Z M 26.839844 30.222656 C 25 30.222656 23.5 28.722656 23.5 26.882812 C 23.5 25.042969 25 23.546875 26.839844 23.546875 C 28.679688 23.546875 30.179688 25.042969 30.179688 26.882812 C 30.179688 28.722656 28.679688 30.222656 26.839844 30.222656 Z M 26.839844 30.222656 " fill-opacity="1" fill-rule="nonzero"/><g clip-path="url(#198c97cae8)"><path fill="#ff5757" d="M 35.378906 28.039062 C 34.785156 27.972656 34.335938 27.476562 34.335938 26.882812 C 34.335938 26.289062 34.785156 25.792969 35.378906 25.726562 C 35.578125 25.707031 35.757812 25.601562 35.875 25.4375 C 35.992188 25.273438 36.035156 25.070312 35.992188 24.875 C 35.578125 22.984375 34.59375 21.285156 33.152344 19.964844 C 33.003906 19.832031 32.808594 19.769531 32.605469 19.785156 C 32.410156 19.804688 32.226562 19.90625 32.109375 20.066406 C 31.753906 20.550781 31.097656 20.6875 30.585938 20.390625 C 30.074219 20.09375 29.867188 19.457031 30.109375 18.90625 C 30.191406 18.722656 30.191406 18.515625 30.109375 18.332031 C 30.023438 18.148438 29.871094 18.011719 29.679688 17.949219 C 28.984375 17.730469 28.269531 17.59375 27.546875 17.539062 L 27.546875 12.753906 C 27.546875 10.917969 26.054688 9.425781 24.21875 9.425781 L 20.605469 9.425781 C 20.21875 9.425781 19.902344 9.742188 19.902344 10.132812 C 19.902344 10.519531 20.21875 10.835938 20.605469 10.835938 L 24.21875 10.835938 C 25.277344 10.835938 26.136719 11.695312 26.136719 12.753906 L 26.136719 17.539062 C 25.414062 17.59375 24.695312 17.730469 24 17.949219 C 23.8125 18.011719 23.65625 18.148438 23.574219 18.332031 C 23.488281 18.515625 23.488281 18.722656 23.570312 18.90625 C 23.8125 19.457031 23.609375 20.09375 23.09375 20.390625 C 22.582031 20.6875 21.925781 20.550781 21.570312 20.066406 C 21.453125 19.90625 21.273438 19.804688 21.074219 19.785156 C 20.871094 19.765625 20.675781 19.832031 20.53125 19.964844 C 19.085938 21.285156 18.101562 22.984375 17.6875 24.875 C 17.644531 25.070312 17.6875 25.273438 17.804688 25.4375 C 17.921875 25.601562 18.101562 25.707031 18.300781 25.726562 C 18.628906 25.761719 18.910156 25.933594 19.097656 26.179688 L 12.535156 26.179688 C 11.476562 26.179688 10.617188 25.320312 10.617188 24.261719 L 10.617188 22.839844 C 10.617188 22.449219 10.304688 22.132812 9.914062 22.132812 C 9.523438 22.132812 9.207031 22.449219 9.207031 22.839844 L 9.207031 24.261719 C 9.207031 26.097656 10.699219 27.589844 12.535156 27.589844 L 19.097656 27.589844 C 18.910156 27.832031 18.628906 28.003906 18.300781 28.039062 C 18.101562 28.0625 17.921875 28.167969 17.804688 28.328125 C 17.6875 28.492188 17.644531 28.695312 17.6875 28.890625 C 18.101562 30.78125 19.085938 32.480469 20.53125 33.800781 C 20.675781 33.933594 20.875 34 21.074219 33.980469 C 21.273438 33.960938 21.453125 33.859375 21.570312 33.699219 C 21.925781 33.21875 22.578125 33.078125 23.09375 33.375 C 23.609375 33.671875 23.8125 34.308594 23.570312 34.859375 C 23.488281 35.042969 23.488281 35.25 23.574219 35.433594 C 23.65625 35.617188 23.8125 35.753906 24 35.816406 C 24.921875 36.109375 25.875 36.253906 26.839844 36.253906 C 27.804688 36.253906 28.757812 36.105469 29.679688 35.816406 C 29.871094 35.753906 30.023438 35.617188 30.109375 35.433594 C 30.191406 35.25 30.191406 35.042969 30.109375 34.859375 C 29.867188 34.308594 30.074219 33.671875 30.585938 33.375 C 31.097656 33.078125 31.753906 33.21875 32.109375 33.699219 C 32.226562 33.859375 32.410156 33.960938 32.605469 33.980469 C 32.808594 34 33.003906 33.933594 33.152344 33.800781 C 34.59375 32.480469 35.578125 30.78125 35.992188 28.890625 C 36.035156 28.695312 35.992188 28.492188 35.875 28.328125 C 35.757812 28.167969 35.578125 28.0625 35.378906 28.039062 Z M 32.667969 32.292969 C 31.867188 31.714844 30.777344 31.636719 29.882812 32.152344 C 28.984375 32.671875 28.507812 33.65625 28.609375 34.644531 C 27.449219 34.910156 26.230469 34.910156 25.066406 34.644531 C 25.171875 33.65625 24.695312 32.671875 23.796875 32.152344 C 22.902344 31.636719 21.8125 31.714844 21.007812 32.292969 C 20.1875 31.410156 19.582031 30.371094 19.234375 29.230469 C 20.136719 28.824219 20.753906 27.917969 20.753906 26.882812 C 20.753906 25.84375 20.136719 24.941406 19.234375 24.535156 C 19.582031 23.394531 20.1875 22.351562 21.007812 21.472656 C 21.8125 22.046875 22.902344 22.128906 23.796875 21.613281 C 24.695312 21.09375 25.171875 20.105469 25.066406 19.121094 C 26.230469 18.855469 27.449219 18.855469 28.609375 19.121094 C 28.507812 20.105469 28.980469 21.09375 29.882812 21.613281 C 30.777344 22.128906 31.867188 22.046875 32.667969 21.472656 C 33.492188 22.351562 34.09375 23.394531 34.445312 24.535156 C 33.542969 24.941406 32.925781 25.84375 32.925781 26.882812 C 32.925781 27.917969 33.542969 28.824219 34.445312 29.226562 C 34.09375 30.367188 33.492188 31.410156 32.667969 32.289062 Z M 32.667969 32.292969 " fill-opacity="1" fill-rule="nonzero"/></g><g clip-path="url(#a910a01cc2)"><path fill="#ff5757" d="M 9.914062 3.582031 C 10.304688 3.582031 10.617188 3.265625 10.617188 2.878906 L 10.617188 1.667969 C 10.617188 1.277344 10.304688 0.964844 9.914062 0.964844 C 9.523438 0.964844 9.207031 1.277344 9.207031 1.667969 L 9.207031 2.878906 C 9.207031 3.265625 9.523438 3.582031 9.914062 3.582031 Z M 9.914062 3.582031 " fill-opacity="1" fill-rule="nonzero"/></g><path fill="#ff5757" d="M 15.042969 5.707031 C 15.222656 5.707031 15.402344 5.640625 15.539062 5.5 L 16.394531 4.644531 C 16.671875 4.371094 16.671875 3.921875 16.394531 3.648438 C 16.121094 3.371094 15.671875 3.371094 15.398438 3.648438 L 14.542969 4.503906 C 14.269531 4.78125 14.269531 5.226562 14.542969 5.5 C 14.679688 5.640625 14.863281 5.707031 15.042969 5.707031 Z M 15.042969 5.707031 " fill-opacity="1" fill-rule="nonzero"/><path fill="#ff5757" d="M 4.285156 14.761719 L 3.429688 15.617188 C 3.152344 15.894531 3.152344 16.339844 3.429688 16.613281 C 3.566406 16.753906 3.75 16.820312 3.929688 16.820312 C 4.109375 16.820312 4.289062 16.753906 4.425781 16.613281 L 5.28125 15.761719 C 5.558594 15.484375 5.558594 15.039062 5.28125 14.761719 C 5.003906 14.488281 4.558594 14.488281 4.285156 14.761719 Z M 4.285156 14.761719 " fill-opacity="1" fill-rule="nonzero"/><path fill="#ff5757" d="M 17.167969 10.835938 L 18.378906 10.835938 C 18.765625 10.835938 19.082031 10.519531 19.082031 10.132812 C 19.082031 9.742188 18.765625 9.425781 18.378906 9.425781 L 17.167969 9.425781 C 16.777344 9.425781 16.460938 9.742188 16.460938 10.132812 C 16.460938 10.519531 16.777344 10.835938 17.167969 10.835938 Z M 17.167969 10.835938 " fill-opacity="1" fill-rule="nonzero"/><g clip-path="url(#e79c23237e)"><path fill="#ff5757" d="M 2.660156 9.425781 L 1.449219 9.425781 C 1.058594 9.425781 0.742188 9.742188 0.742188 10.132812 C 0.742188 10.519531 1.058594 10.835938 1.449219 10.835938 L 2.660156 10.835938 C 3.046875 10.835938 3.363281 10.519531 3.363281 10.132812 C 3.363281 9.742188 3.046875 9.425781 2.660156 9.425781 Z M 2.660156 9.425781 " fill-opacity="1" fill-rule="nonzero"/></g><path fill="#ff5757" d="M 15.542969 14.761719 C 15.265625 14.488281 14.820312 14.488281 14.542969 14.761719 C 14.269531 15.039062 14.269531 15.484375 14.542969 15.761719 L 15.398438 16.613281 C 15.535156 16.753906 15.71875 16.820312 15.898438 16.820312 C 16.078125 16.820312 16.257812 16.753906 16.394531 16.613281 C 16.671875 16.339844 16.671875 15.894531 16.394531 15.617188 L 15.539062 14.761719 Z M 15.542969 14.761719 " fill-opacity="1" fill-rule="nonzero"/><path fill="#ff5757" d="M 4.285156 5.5 C 4.421875 5.640625 4.601562 5.707031 4.78125 5.707031 C 4.960938 5.707031 5.144531 5.640625 5.28125 5.5 C 5.558594 5.226562 5.558594 4.78125 5.28125 4.503906 L 4.425781 3.648438 C 4.152344 3.371094 3.703125 3.371094 3.429688 3.648438 C 3.152344 3.921875 3.152344 4.371094 3.429688 4.644531 Z M 4.285156 5.5 " fill-opacity="1" fill-rule="nonzero"/><path fill="#ff5757" d="M 9.207031 20.710938 C 9.207031 21.101562 9.523438 21.417969 9.914062 21.417969 C 10.304688 21.417969 10.617188 21.101562 10.617188 20.710938 L 10.617188 19.777344 L 13.015625 19.777344 C 13.40625 19.777344 13.722656 19.460938 13.722656 19.074219 L 13.722656 16.117188 C 13.722656 15.726562 13.40625 15.410156 13.015625 15.410156 L 12.875 15.410156 C 12.976562 14.570312 13.308594 13.714844 13.878906 12.902344 C 14.453125 12.089844 14.753906 11.128906 14.753906 10.132812 C 14.753906 8.667969 14.101562 7.296875 12.964844 6.371094 C 11.828125 5.445312 10.335938 5.089844 8.875 5.398438 C 7.046875 5.78125 5.558594 7.269531 5.179688 9.101562 C 4.890625 10.476562 5.179688 11.847656 5.992188 12.964844 C 6.542969 13.71875 6.859375 14.554688 6.953125 15.410156 L 6.808594 15.410156 C 6.421875 15.410156 6.105469 15.726562 6.105469 16.117188 L 6.105469 19.070312 C 6.105469 19.460938 6.421875 19.777344 6.808594 19.777344 L 9.207031 19.777344 Z M 7.132812 12.132812 C 6.558594 11.34375 6.355469 10.371094 6.558594 9.390625 C 6.828125 8.097656 7.875 7.046875 9.164062 6.777344 C 10.207031 6.558594 11.269531 6.808594 12.074219 7.464844 C 12.882812 8.121094 13.34375 9.09375 13.34375 10.132812 C 13.34375 10.835938 13.132812 11.515625 12.726562 12.089844 C 11.980469 13.144531 11.542969 14.28125 11.441406 15.410156 L 8.386719 15.410156 C 8.289062 14.257812 7.859375 13.132812 7.132812 12.132812 Z M 7.515625 16.820312 L 12.308594 16.820312 L 12.308594 18.367188 L 7.515625 18.367188 Z M 7.515625 16.820312 " fill-opacity="1" fill-rule="nonzero"/></svg>