<svg xmlns="http://www.w3.org/2000/svg" xmlns:xlink="http://www.w3.org/1999/xlink" width="50" zoomAndPan="magnify" viewBox="0 0 37.5 37.499999" height="50" preserveAspectRatio="xMidYMid meet" version="1.0"><defs><clipPath id="35d3b18e6a"><path d="M 30 23 L 35.78125 23 L 35.78125 25 L 30 25 Z M 30 23 " clip-rule="nonzero"/></clipPath><clipPath id="732abc7366"><path d="M 29 26 L 35.78125 26 L 35.78125 27 L 29 27 Z M 29 26 " clip-rule="nonzero"/></clipPath><clipPath id="56d8465d7c"><path d="M 7 16 L 33 16 L 33 33.195312 L 7 33.195312 Z M 7 16 " clip-rule="nonzero"/></clipPath><clipPath id="7c67f2abae"><path d="M 1 5.070312 L 23 5.070312 L 23 24 L 1 24 Z M 1 5.070312 " clip-rule="nonzero"/></clipPath></defs><path fill="#ffffff" d="M 26.257812 17.445312 C 26.523438 17.464844 26.792969 17.46875 27.058594 17.480469 C 27.324219 17.488281 27.589844 17.484375 27.859375 17.484375 C 28.148438 17.480469 28.421875 17.402344 28.695312 17.308594 C 28.828125 17.261719 28.828125 17.085938 28.695312 17.039062 C 28.421875 16.941406 28.152344 16.859375 27.859375 16.847656 C 27.589844 16.839844 27.324219 16.832031 27.058594 16.839844 C 26.792969 16.84375 26.523438 16.84375 26.257812 16.859375 C 26.015625 16.871094 25.679688 16.890625 25.488281 17.054688 C 25.441406 17.097656 25.441406 17.191406 25.488281 17.234375 C 25.675781 17.402344 26.019531 17.425781 26.257812 17.445312 Z M 26.257812 17.445312 " fill-opacity="1" fill-rule="nonzero"/><path fill="#ffffff" d="M 22.121094 20.082031 C 22.003906 20.128906 22 20.273438 22.121094 20.320312 C 22.492188 20.46875 22.917969 20.449219 23.3125 20.480469 C 23.765625 20.511719 24.214844 20.523438 24.667969 20.535156 C 25.539062 20.554688 26.410156 20.550781 27.28125 20.550781 C 28.148438 20.546875 29.019531 20.542969 29.890625 20.535156 C 30.550781 20.527344 31.617188 20.726562 32.117188 20.195312 C 32.164062 20.140625 32.167969 20.054688 32.117188 20.003906 C 31.609375 19.484375 30.546875 19.699219 29.890625 19.707031 C 29.019531 19.714844 28.148438 19.726562 27.28125 19.746094 C 26.410156 19.761719 25.539062 19.777344 24.667969 19.816406 C 24.214844 19.835938 23.765625 19.855469 23.3125 19.898438 C 22.917969 19.9375 22.484375 19.929688 22.121094 20.082031 Z M 22.121094 20.082031 " fill-opacity="1" fill-rule="nonzero"/><path fill="#ffffff" d="M 33.363281 20.527344 C 33.398438 20.535156 33.433594 20.542969 33.46875 20.546875 C 33.570312 20.566406 33.679688 20.570312 33.785156 20.574219 C 33.859375 20.578125 33.933594 20.585938 34.007812 20.585938 C 34.140625 20.582031 34.269531 20.542969 34.378906 20.46875 C 34.492188 20.394531 34.566406 20.28125 34.566406 20.144531 C 34.566406 20 34.492188 19.898438 34.378906 19.816406 C 34.203125 19.6875 33.996094 19.691406 33.785156 19.691406 C 33.675781 19.695312 33.574219 19.695312 33.46875 19.710938 C 33.433594 19.714844 33.402344 19.71875 33.371094 19.726562 C 33.351562 19.726562 33.332031 19.730469 33.3125 19.734375 C 33.238281 19.753906 33.183594 19.800781 33.125 19.847656 C 33.054688 19.902344 33.003906 20.039062 33.007812 20.125 C 33.011719 20.226562 33.046875 20.335938 33.125 20.402344 C 33.195312 20.464844 33.269531 20.507812 33.363281 20.527344 Z M 33.363281 20.527344 " fill-opacity="1" fill-rule="nonzero"/><path fill="#ffffff" d="M 28.910156 24.246094 C 29 24.140625 29.007812 23.996094 28.910156 23.890625 C 28.6875 23.65625 28.402344 23.683594 28.097656 23.6875 C 27.730469 23.691406 27.359375 23.707031 26.992188 23.714844 C 26.25 23.734375 25.511719 23.75 24.773438 23.78125 C 24.035156 23.8125 23.292969 23.832031 22.554688 23.878906 C 22.1875 23.90625 21.816406 23.933594 21.449219 23.960938 C 21.140625 23.980469 20.835938 23.960938 20.558594 24.105469 C 20.4375 24.167969 20.429688 24.378906 20.558594 24.4375 C 20.84375 24.566406 21.140625 24.539062 21.449219 24.542969 C 21.816406 24.550781 22.1875 24.5625 22.554688 24.570312 C 23.292969 24.582031 24.035156 24.5625 24.773438 24.558594 C 25.511719 24.550781 26.25 24.527344 26.992188 24.511719 C 27.359375 24.5 27.730469 24.5 28.097656 24.484375 C 28.402344 24.472656 28.699219 24.488281 28.910156 24.246094 Z M 28.910156 24.246094 " fill-opacity="1" fill-rule="nonzero"/><g clip-path="url(#35d3b18e6a)"><path fill="#ffffff" d="M 35.90625 24.023438 C 35.484375 23.804688 35.023438 23.75 34.554688 23.730469 C 34.054688 23.707031 33.550781 23.699219 33.050781 23.707031 C 32.546875 23.714844 32.046875 23.746094 31.546875 23.796875 C 31.128906 23.839844 30.625 23.84375 30.300781 24.140625 C 30.253906 24.183594 30.265625 24.269531 30.320312 24.300781 C 30.71875 24.507812 31.222656 24.398438 31.65625 24.375 C 32.117188 24.351562 32.585938 24.335938 33.050781 24.328125 C 33.515625 24.320312 33.980469 24.328125 34.445312 24.347656 C 34.925781 24.367188 35.40625 24.398438 35.875 24.261719 C 35.980469 24.234375 36.007812 24.078125 35.90625 24.023438 Z M 35.90625 24.023438 " fill-opacity="1" fill-rule="nonzero"/></g><g clip-path="url(#732abc7366)"><path fill="#ffffff" d="M 35.015625 26.503906 C 34.597656 26.28125 34.132812 26.230469 33.664062 26.207031 C 33.164062 26.183594 32.660156 26.175781 32.160156 26.183594 C 31.65625 26.191406 31.160156 26.222656 30.660156 26.273438 C 30.242188 26.320312 29.734375 26.324219 29.410156 26.617188 C 29.363281 26.660156 29.375 26.75 29.429688 26.78125 C 29.828125 26.988281 30.332031 26.878906 30.765625 26.855469 C 31.230469 26.832031 31.695312 26.816406 32.160156 26.808594 C 32.625 26.800781 33.089844 26.808594 33.558594 26.828125 C 34.039062 26.847656 34.519531 26.878906 34.984375 26.742188 C 35.089844 26.710938 35.121094 26.554688 35.015625 26.503906 Z M 35.015625 26.503906 " fill-opacity="1" fill-rule="nonzero"/></g><path fill="#ffffff" d="M 27.570312 26.25 C 27.402344 26.222656 27.246094 26.21875 27.078125 26.222656 C 26.917969 26.226562 26.757812 26.246094 26.59375 26.269531 C 26.460938 26.289062 26.3125 26.320312 26.207031 26.410156 C 26.191406 26.414062 26.175781 26.421875 26.160156 26.429688 C 26.039062 26.488281 26.039062 26.695312 26.160156 26.757812 C 26.175781 26.761719 26.191406 26.769531 26.207031 26.777344 C 26.3125 26.867188 26.460938 26.894531 26.597656 26.914062 C 26.757812 26.9375 26.917969 26.957031 27.082031 26.964844 C 27.246094 26.96875 27.40625 26.964844 27.570312 26.9375 C 27.738281 26.910156 27.871094 26.804688 27.964844 26.667969 C 27.992188 26.628906 27.992188 26.558594 27.964844 26.519531 C 27.867188 26.382812 27.738281 26.277344 27.570312 26.25 Z M 27.570312 26.25 " fill-opacity="1" fill-rule="nonzero"/><path fill="#ffffff" d="M 11.742188 30.476562 C 11.714844 30.457031 11.6875 30.433594 11.65625 30.414062 C 11.59375 30.375 11.523438 30.355469 11.449219 30.355469 C 11.390625 30.355469 11.335938 30.367188 11.289062 30.390625 C 11.238281 30.40625 11.191406 30.4375 11.15625 30.476562 C 11.113281 30.515625 11.085938 30.558594 11.070312 30.609375 C 11.042969 30.660156 11.03125 30.714844 11.035156 30.769531 C 11.039062 30.808594 11.042969 30.84375 11.046875 30.878906 C 11.070312 30.949219 11.105469 31.011719 11.15625 31.0625 C 11.183594 31.085938 11.210938 31.105469 11.238281 31.128906 C 11.304688 31.164062 11.375 31.183594 11.449219 31.183594 C 11.503906 31.1875 11.558594 31.175781 11.609375 31.148438 C 11.660156 31.132812 11.703125 31.105469 11.742188 31.0625 C 11.78125 31.027344 11.808594 30.980469 11.828125 30.929688 C 11.851562 30.878906 11.863281 30.828125 11.863281 30.769531 C 11.859375 30.734375 11.851562 30.699219 11.847656 30.660156 C 11.828125 30.589844 11.792969 30.527344 11.742188 30.476562 Z M 11.742188 30.476562 " fill-opacity="1" fill-rule="nonzero"/><path fill="#ffffff" d="M 26.089844 30.617188 C 26.042969 30.566406 25.960938 30.511719 25.890625 30.5 C 25.890625 30.5 25.890625 30.5 25.886719 30.5 C 25.867188 30.488281 25.84375 30.484375 25.816406 30.484375 C 25.769531 30.472656 25.71875 30.472656 25.667969 30.492188 C 25.652344 30.496094 25.628906 30.507812 25.617188 30.511719 C 25.601562 30.519531 25.578125 30.527344 25.5625 30.535156 C 25.523438 30.554688 25.492188 30.585938 25.464844 30.609375 C 25.433594 30.636719 25.410156 30.660156 25.386719 30.707031 C 25.375 30.742188 25.359375 30.777344 25.34375 30.8125 C 25.339844 30.851562 25.332031 30.890625 25.328125 30.933594 C 25.332031 30.972656 25.335938 31.011719 25.34375 31.050781 C 25.355469 31.089844 25.371094 31.125 25.390625 31.160156 C 25.410156 31.203125 25.445312 31.242188 25.476562 31.277344 C 25.515625 31.320312 25.566406 31.351562 25.621094 31.367188 C 25.671875 31.394531 25.730469 31.410156 25.789062 31.40625 C 25.828125 31.402344 25.867188 31.394531 25.910156 31.390625 C 25.964844 31.375 26.015625 31.351562 26.058594 31.3125 C 26.09375 31.289062 26.117188 31.265625 26.136719 31.230469 C 26.179688 31.1875 26.203125 31.136719 26.21875 31.082031 C 26.222656 31.042969 26.226562 31.003906 26.234375 30.960938 C 26.234375 30.890625 26.214844 30.820312 26.183594 30.757812 C 26.164062 30.703125 26.132812 30.65625 26.089844 30.617188 Z M 26.089844 30.617188 " fill-opacity="1" fill-rule="nonzero"/><g clip-path="url(#56d8465d7c)"><path fill="#ffffff" d="M 31.347656 30.292969 C 30.992188 30.285156 30.632812 30.28125 30.277344 30.285156 C 29.921875 30.292969 29.566406 30.296875 29.210938 30.300781 C 28.917969 30.304688 28.609375 30.296875 28.316406 30.339844 C 28.214844 29.722656 27.832031 29.1875 27.28125 28.824219 C 26.496094 28.3125 25.519531 28.269531 24.734375 28.804688 C 24.554688 28.925781 24.382812 29.066406 24.238281 29.222656 C 24.066406 29.40625 23.875 29.621094 23.824219 29.875 C 23.792969 30.035156 23.84375 30.183594 23.9375 30.285156 C 23.84375 30.339844 23.777344 30.4375 23.726562 30.550781 C 23.519531 30.484375 23.273438 30.488281 23.0625 30.476562 C 22.628906 30.453125 22.203125 30.460938 21.769531 30.472656 C 20.820312 30.5 19.875 30.511719 18.925781 30.5 C 17.976562 30.492188 17.027344 30.476562 16.082031 30.441406 C 15.949219 30.4375 15.816406 30.429688 15.679688 30.425781 C 15.8125 30.347656 15.894531 30.207031 15.851562 30.03125 C 16.023438 27.964844 15.898438 25.828125 15.910156 23.753906 C 15.921875 21.667969 15.933594 19.585938 15.824219 17.503906 C 15.894531 17.507812 15.972656 17.507812 16.050781 17.515625 C 16.457031 17.539062 16.871094 17.527344 17.28125 17.53125 C 18.101562 17.535156 18.921875 17.515625 19.746094 17.503906 C 20.566406 17.492188 21.386719 17.480469 22.207031 17.464844 C 22.617188 17.460938 23.03125 17.460938 23.441406 17.449219 C 23.820312 17.433594 24.039062 17.378906 24.371094 17.222656 C 24.4375 17.191406 24.441406 17.074219 24.371094 17.046875 C 24.035156 16.902344 23.8125 16.847656 23.441406 16.847656 C 23.03125 16.847656 22.621094 16.859375 22.207031 16.867188 C 21.386719 16.878906 20.566406 16.890625 19.746094 16.902344 C 18.921875 16.914062 18.101562 16.921875 17.28125 16.949219 C 16.871094 16.964844 16.457031 16.964844 16.050781 17 C 15.832031 17.019531 15.621094 17.015625 15.441406 17.105469 C 15.300781 17.125 15.171875 17.230469 15.160156 17.417969 C 15.085938 18.519531 15.046875 19.621094 15.023438 20.722656 C 14.816406 20.710938 14.597656 20.738281 14.414062 20.742188 C 14.050781 20.746094 13.6875 20.746094 13.324219 20.738281 C 12.964844 20.734375 12.601562 20.71875 12.238281 20.722656 C 11.867188 20.722656 11.511719 20.710938 11.15625 20.839844 C 11.035156 20.882812 10.957031 21 10.949219 21.113281 C 10.769531 21.324219 10.65625 21.617188 10.539062 21.839844 C 10.335938 22.226562 10.144531 22.613281 9.953125 23.003906 C 9.578125 23.765625 9.203125 24.535156 8.828125 25.296875 C 8.816406 25.320312 8.804688 25.34375 8.796875 25.363281 C 8.4375 25.371094 8.082031 25.390625 7.722656 25.4375 C 7.523438 25.371094 7.292969 25.425781 7.222656 25.714844 C 7.113281 26.175781 7.179688 26.660156 7.203125 27.125 C 7.226562 27.578125 7.265625 28.03125 7.296875 28.480469 C 7.363281 29.398438 7.429688 30.320312 7.492188 31.242188 C 7.511719 31.519531 7.71875 31.769531 8.019531 31.765625 C 8.339844 31.757812 8.664062 31.753906 8.984375 31.746094 C 9.09375 31.742188 9.210938 31.742188 9.324219 31.730469 C 9.382812 31.949219 9.476562 32.164062 9.605469 32.339844 C 10.195312 33.167969 11.285156 33.296875 12.1875 32.941406 C 13.019531 32.617188 13.792969 31.933594 13.949219 31.011719 C 13.953125 30.984375 13.957031 30.957031 13.960938 30.933594 C 14.597656 31.230469 15.402344 31.257812 16.082031 31.296875 C 17.0625 31.355469 18.039062 31.386719 19.023438 31.390625 C 19.96875 31.394531 20.914062 31.382812 21.859375 31.347656 C 22.296875 31.335938 22.730469 31.300781 23.164062 31.230469 C 23.3125 31.207031 23.472656 31.1875 23.617188 31.140625 C 23.617188 31.179688 23.617188 31.214844 23.617188 31.246094 C 23.621094 31.625 23.746094 32.03125 23.96875 32.339844 C 24.558594 33.167969 25.648438 33.296875 26.550781 32.941406 C 27.363281 32.625 28.121094 31.960938 28.300781 31.066406 C 28.597656 31.117188 28.914062 31.109375 29.210938 31.117188 C 29.566406 31.128906 29.921875 31.136719 30.277344 31.148438 C 30.632812 31.15625 30.988281 31.160156 31.34375 31.152344 C 31.714844 31.152344 32.082031 31.097656 32.367188 30.847656 C 32.433594 30.789062 32.433594 30.667969 32.367188 30.609375 C 32.085938 30.355469 31.714844 30.304688 31.347656 30.292969 Z M 12.914062 31.242188 C 12.710938 31.617188 12.386719 31.875 11.996094 32.058594 C 11.617188 32.234375 11.082031 32.355469 10.660156 32.191406 C 10.34375 32.070312 10.128906 31.796875 10.015625 31.472656 C 10 31.433594 9.988281 31.394531 9.976562 31.355469 C 10.03125 31.214844 10.011719 31.066406 9.898438 30.941406 C 9.898438 30.9375 9.898438 30.9375 9.898438 30.9375 C 9.894531 30.929688 9.894531 30.921875 9.894531 30.917969 C 9.886719 30.765625 9.910156 30.574219 9.863281 30.417969 C 9.9375 30.421875 10.015625 30.40625 10.097656 30.359375 C 10.328125 30.230469 10.429688 29.980469 10.605469 29.804688 C 10.746094 29.664062 10.84375 29.589844 11.019531 29.492188 C 11.0625 29.46875 11.105469 29.445312 11.152344 29.425781 C 11.160156 29.421875 11.171875 29.417969 11.1875 29.414062 C 11.238281 29.394531 11.285156 29.378906 11.335938 29.367188 C 11.351562 29.363281 11.476562 29.339844 11.472656 29.335938 C 11.839844 29.296875 12.140625 29.417969 12.453125 29.621094 C 13.019531 29.988281 13.257812 30.613281 12.914062 31.242188 Z M 11.140625 29.429688 C 11.132812 29.433594 11.128906 29.433594 11.140625 29.429688 Z M 12.917969 28.824219 C 12.132812 28.3125 11.15625 28.269531 10.371094 28.804688 C 10.191406 28.925781 10.023438 29.066406 9.875 29.222656 C 9.703125 29.40625 9.511719 29.621094 9.464844 29.875 C 9.433594 30.035156 9.480469 30.183594 9.574219 30.285156 C 9.441406 30.359375 9.363281 30.523438 9.316406 30.703125 C 9.207031 30.695312 9.09375 30.695312 8.984375 30.699219 C 8.824219 30.699219 8.664062 30.703125 8.503906 30.707031 C 8.449219 29.964844 8.398438 29.222656 8.34375 28.480469 C 8.308594 28.03125 8.285156 27.578125 8.242188 27.128906 C 8.210938 26.832031 8.203125 26.511719 8.15625 26.207031 C 8.953125 26.414062 9.800781 26.4375 10.621094 26.4375 C 11.644531 26.433594 12.707031 26.40625 13.714844 26.21875 C 14.304688 26.109375 14.175781 25.117188 13.570312 25.160156 C 12.5625 25.238281 11.574219 25.363281 10.5625 25.375 C 10.238281 25.375 9.917969 25.371094 9.597656 25.367188 C 9.925781 24.683594 10.253906 24 10.582031 23.316406 C 10.761719 22.9375 10.941406 22.558594 11.113281 22.175781 C 11.203125 21.972656 11.335938 21.742188 11.410156 21.507812 C 11.648438 21.582031 11.894531 21.609375 12.152344 21.636719 C 12.53125 21.679688 12.90625 21.695312 13.285156 21.710938 C 13.648438 21.722656 14.011719 21.734375 14.371094 21.738281 C 14.554688 21.738281 14.789062 21.765625 15.007812 21.75 C 15 22.417969 14.996094 23.085938 14.992188 23.753906 C 14.976562 25.847656 14.824219 27.996094 14.976562 30.085938 C 14.988281 30.242188 15.050781 30.347656 15.136719 30.414062 C 14.742188 30.414062 14.34375 30.441406 13.976562 30.550781 C 13.9375 29.847656 13.535156 29.226562 12.917969 28.824219 Z M 25.503906 29.429688 C 25.492188 29.433594 25.492188 29.433594 25.503906 29.429688 Z M 27.273438 31.242188 C 27.070312 31.617188 26.746094 31.875 26.355469 32.058594 C 25.976562 32.234375 25.445312 32.355469 25.023438 32.191406 C 24.707031 32.070312 24.488281 31.796875 24.378906 31.472656 C 24.316406 31.296875 24.269531 31.105469 24.257812 30.917969 C 24.246094 30.765625 24.269531 30.574219 24.222656 30.417969 C 24.300781 30.421875 24.378906 30.40625 24.457031 30.359375 C 24.691406 30.230469 24.789062 29.980469 24.96875 29.804688 C 25.109375 29.664062 25.207031 29.589844 25.378906 29.492188 C 25.421875 29.46875 25.46875 29.445312 25.511719 29.425781 C 25.523438 29.421875 25.53125 29.417969 25.550781 29.414062 C 25.597656 29.394531 25.648438 29.378906 25.695312 29.367188 C 25.714844 29.363281 25.835938 29.339844 25.835938 29.335938 C 26.199219 29.296875 26.5 29.417969 26.816406 29.621094 C 27.382812 29.988281 27.621094 30.613281 27.273438 31.242188 Z M 27.273438 31.242188 " fill-opacity="1" fill-rule="nonzero"/></g><g clip-path="url(#7c67f2abae)"><path fill="#ffffff" d="M 4.238281 20.59375 C 3.730469 19.566406 3.3125 18.527344 3.105469 17.398438 C 2.683594 15.121094 3.160156 12.738281 4.476562 10.832031 C 5.785156 8.9375 7.863281 7.601562 10.09375 7.082031 C 12.433594 6.535156 14.835938 7.03125 16.84375 8.328125 C 17.910156 9.019531 18.855469 9.929688 19.570312 10.984375 C 19.933594 11.523438 20.257812 12.101562 20.53125 12.691406 C 20.660156 12.96875 20.773438 13.257812 20.914062 13.53125 C 21.066406 13.824219 21.304688 13.964844 21.449219 14.261719 C 21.578125 14.535156 21.972656 14.382812 21.984375 14.117188 C 21.996094 13.824219 22.136719 13.589844 22.128906 13.304688 C 22.117188 12.980469 22.007812 12.621094 21.90625 12.3125 C 21.691406 11.660156 21.386719 11.039062 21.019531 10.460938 C 20.316406 9.347656 19.421875 8.367188 18.378906 7.5625 C 16.234375 5.898438 13.519531 5.078125 10.8125 5.425781 C 5.324219 6.125 0.992188 10.992188 1.472656 16.59375 C 1.597656 18.070312 1.984375 19.546875 2.714844 20.84375 C 3.085938 21.507812 3.585938 22.09375 4.125 22.628906 C 4.609375 23.105469 5.046875 23.601562 5.769531 23.5625 C 5.84375 23.558594 5.882812 23.496094 5.871094 23.425781 C 5.792969 22.875 5.496094 22.597656 5.167969 22.167969 C 4.796875 21.679688 4.511719 21.140625 4.238281 20.59375 Z M 4.238281 20.59375 " fill-opacity="1" fill-rule="nonzero"/></g><path fill="#ffffff" d="M 12.890625 15.097656 C 12.890625 14.328125 12.882812 13.558594 12.863281 12.792969 C 12.84375 12.023438 12.800781 11.253906 12.75 10.488281 C 12.703125 9.789062 12.695312 8.964844 12.386719 8.328125 C 12.296875 8.136719 12.023438 8.207031 11.964844 8.382812 C 11.746094 9.082031 11.863281 9.933594 11.882812 10.660156 C 11.90625 11.398438 11.917969 12.136719 11.933594 12.878906 C 11.949219 13.617188 11.953125 14.359375 11.949219 15.097656 C 11.949219 15.234375 11.945312 15.371094 11.941406 15.507812 C 11.925781 15.496094 11.914062 15.484375 11.898438 15.472656 C 11.507812 15.15625 11.109375 14.847656 10.691406 14.566406 C 10.304688 14.304688 9.902344 14.066406 9.492188 13.839844 C 9.042969 13.59375 8.59375 13.355469 8.085938 13.257812 C 7.894531 13.21875 7.703125 13.28125 7.601562 13.453125 C 7.511719 13.609375 7.523438 13.855469 7.667969 13.976562 C 8.039062 14.285156 8.449219 14.511719 8.863281 14.757812 C 9.277344 15.003906 9.679688 15.269531 10.074219 15.542969 C 10.4375 15.796875 10.800781 16.054688 11.148438 16.332031 C 11.324219 16.476562 11.5 16.621094 11.671875 16.769531 C 11.84375 16.921875 12.007812 17.058594 12.207031 17.113281 C 12.226562 17.148438 12.246094 17.183594 12.269531 17.21875 C 12.332031 17.308594 12.449219 17.300781 12.511719 17.21875 C 12.539062 17.179688 12.5625 17.140625 12.585938 17.105469 C 12.765625 17.039062 12.859375 16.84375 12.878906 16.660156 C 12.890625 16.574219 12.875 16.488281 12.84375 16.414062 C 12.917969 15.992188 12.890625 15.550781 12.890625 15.097656 Z M 12.890625 15.097656 " fill-opacity="1" fill-rule="nonzero"/><path fill="#ffffff" d="M 6.816406 10.515625 C 5.46875 11.191406 4.710938 12.628906 4.28125 14.027344 C 4.0625 14.726562 3.9375 15.460938 3.9375 16.195312 C 3.9375 16.570312 3.953125 16.957031 4.027344 17.328125 C 4.082031 17.59375 4.128906 18.023438 4.386719 18.167969 C 4.4375 18.195312 4.5 18.175781 4.53125 18.128906 C 4.683594 17.914062 4.582031 17.558594 4.578125 17.308594 C 4.566406 16.953125 4.546875 16.605469 4.5625 16.253906 C 4.59375 15.558594 4.710938 14.863281 4.917969 14.203125 C 5.332031 12.871094 6.179688 11.785156 6.957031 10.652344 C 7.019531 10.5625 6.898438 10.472656 6.816406 10.515625 Z M 6.816406 10.515625 " fill-opacity="1" fill-rule="nonzero"/><path fill="#ffffff" d="M 7.316406 9.996094 C 7.386719 10.035156 7.460938 10.054688 7.542969 10.054688 C 7.601562 10.058594 7.660156 10.046875 7.710938 10.019531 C 7.769531 10 7.816406 9.96875 7.855469 9.925781 C 7.898438 9.886719 7.929688 9.839844 7.949219 9.78125 C 7.976562 9.730469 7.988281 9.671875 7.984375 9.613281 C 7.980469 9.574219 7.976562 9.535156 7.96875 9.496094 C 7.949219 9.417969 7.910156 9.355469 7.855469 9.300781 C 7.824219 9.277344 7.796875 9.253906 7.765625 9.230469 C 7.695312 9.191406 7.621094 9.167969 7.542969 9.167969 C 7.480469 9.167969 7.421875 9.179688 7.371094 9.207031 C 7.316406 9.226562 7.269531 9.253906 7.226562 9.300781 C 7.183594 9.339844 7.15625 9.386719 7.136719 9.441406 C 7.109375 9.496094 7.09375 9.550781 7.097656 9.613281 C 7.105469 9.652344 7.109375 9.691406 7.113281 9.730469 C 7.136719 9.804688 7.171875 9.871094 7.226562 9.925781 C 7.257812 9.949219 7.289062 9.972656 7.316406 9.996094 Z M 7.316406 9.996094 " fill-opacity="1" fill-rule="nonzero"/></svg>