<svg xmlns="http://www.w3.org/2000/svg" xmlns:xlink="http://www.w3.org/1999/xlink" width="50" zoomAndPan="magnify" viewBox="0 0 37.5 37.499999" height="50" preserveAspectRatio="xMidYMid meet" version="1.0"><defs><clipPath id="52f3e40398"><path d="M 0.964844 12 L 10 12 L 10 19 L 0.964844 19 Z M 0.964844 12 " clip-rule="nonzero"/></clipPath><clipPath id="d23890ef79"><path d="M 27 12 L 35.75 12 L 35.75 19 L 27 19 Z M 27 12 " clip-rule="nonzero"/></clipPath><clipPath id="38930b69bf"><path d="M 13 15 L 27 15 L 27 31.996094 L 13 31.996094 Z M 13 15 " clip-rule="nonzero"/></clipPath><clipPath id="101167c204"><path d="M 18 5.351562 L 20 5.351562 L 20 7 L 18 7 Z M 18 5.351562 " clip-rule="nonzero"/></clipPath><clipPath id="bd2c682044"><path d="M 16 5.351562 L 18 5.351562 L 18 7 L 16 7 Z M 16 5.351562 " clip-rule="nonzero"/></clipPath><clipPath id="146cc90709"><path d="M 20 5.351562 L 22 5.351562 L 22 7 L 20 7 Z M 20 5.351562 " clip-rule="nonzero"/></clipPath></defs><g clip-path="url(#52f3e40398)"><path fill="#000000" d="M 7.476562 12.003906 C 7.066406 12.476562 6.550781 12.808594 5.984375 13.003906 L 6.660156 13.003906 C 7.421875 13.003906 8.046875 13.640625 8.046875 14.417969 L 8.046875 16.773438 C 8.046875 16.882812 7.9375 16.996094 7.800781 16.996094 L 2.320312 16.996094 C 2.183594 16.996094 2.074219 16.882812 2.074219 16.773438 L 2.074219 14.417969 C 2.074219 13.640625 2.699219 13.003906 3.457031 13.003906 L 4.136719 13.003906 C 3.566406 12.808594 3.050781 12.476562 2.644531 12.003906 C 1.695312 12.363281 0.988281 13.308594 0.988281 14.417969 L 0.988281 16.773438 C 0.988281 17.492188 1.585938 18.105469 2.320312 18.105469 L 7.800781 18.105469 C 8.535156 18.105469 9.128906 17.492188 9.128906 16.746094 L 9.128906 14.386719 C 9.128906 13.308594 8.425781 12.363281 7.476562 12.003906 Z M 7.476562 12.003906 " fill-opacity="1" fill-rule="nonzero"/></g><path fill="#000000" d="M 5.058594 12.058594 C 6.253906 12.058594 7.230469 11.0625 7.230469 9.839844 C 7.230469 8.621094 6.253906 7.625 5.058594 7.625 C 3.867188 7.625 2.890625 8.621094 2.890625 9.839844 C 2.890625 11.0625 3.867188 12.058594 5.058594 12.058594 Z M 5.058594 8.730469 C 5.65625 8.730469 6.144531 9.230469 6.144531 9.839844 C 6.144531 10.453125 5.65625 10.949219 5.058594 10.949219 C 4.460938 10.949219 3.972656 10.453125 3.972656 9.839844 C 3.972656 9.230469 4.460938 8.730469 5.058594 8.730469 Z M 5.058594 8.730469 " fill-opacity="1" fill-rule="nonzero"/><g clip-path="url(#d23890ef79)"><path fill="#000000" d="M 34.070312 12.003906 C 33.664062 12.476562 33.148438 12.808594 32.578125 13.003906 L 33.257812 13.003906 C 34.019531 13.003906 34.640625 13.640625 34.640625 14.417969 L 34.640625 16.773438 C 34.640625 16.882812 34.535156 16.996094 34.398438 16.996094 L 28.914062 16.996094 C 28.78125 16.996094 28.671875 16.882812 28.671875 16.773438 L 28.671875 14.417969 C 28.671875 13.640625 29.296875 13.003906 30.054688 13.003906 L 30.734375 13.003906 C 30.164062 12.808594 29.648438 12.476562 29.242188 12.003906 C 28.292969 12.363281 27.585938 13.308594 27.585938 14.417969 L 27.585938 16.773438 C 27.585938 17.519531 28.183594 18.132812 28.914062 18.132812 L 34.398438 18.132812 C 35.128906 18.132812 35.726562 17.519531 35.726562 16.773438 L 35.726562 14.417969 C 35.726562 13.308594 35.023438 12.363281 34.070312 12.003906 Z M 34.070312 12.003906 " fill-opacity="1" fill-rule="nonzero"/></g><path fill="#000000" d="M 31.65625 12.058594 C 32.851562 12.058594 33.828125 11.0625 33.828125 9.839844 C 33.828125 8.621094 32.851562 7.625 31.65625 7.625 C 30.460938 7.625 29.484375 8.621094 29.484375 9.839844 C 29.484375 11.0625 30.460938 12.058594 31.65625 12.058594 Z M 31.65625 8.730469 C 32.253906 8.730469 32.742188 9.230469 32.742188 9.839844 C 32.742188 10.453125 32.253906 10.949219 31.65625 10.949219 C 31.058594 10.949219 30.570312 10.453125 30.570312 9.839844 C 30.570312 9.230469 31.058594 8.730469 31.65625 8.730469 Z M 31.65625 8.730469 " fill-opacity="1" fill-rule="nonzero"/><path fill="#000000" d="M 18.359375 12.058594 C 19.550781 12.058594 20.53125 11.0625 20.53125 9.839844 C 20.53125 8.621094 19.550781 7.625 18.359375 7.625 C 17.164062 7.625 16.1875 8.621094 16.1875 9.839844 C 16.1875 11.0625 17.164062 12.058594 18.359375 12.058594 Z M 18.359375 8.730469 C 18.957031 8.730469 19.445312 9.230469 19.445312 9.839844 C 19.445312 10.453125 18.957031 10.949219 18.359375 10.949219 C 17.761719 10.949219 17.273438 10.453125 17.273438 9.839844 C 17.273438 9.230469 17.761719 8.730469 18.359375 8.730469 Z M 18.359375 8.730469 " fill-opacity="1" fill-rule="nonzero"/><path fill="#000000" d="M 14.289062 14.417969 L 14.289062 16.71875 C 14.289062 17.4375 14.882812 18.046875 15.617188 18.046875 L 16.214844 18.046875 L 16.214844 16.9375 L 15.617188 16.9375 C 15.480469 16.9375 15.371094 16.855469 15.371094 16.71875 L 15.371094 14.417969 C 15.371094 13.667969 15.996094 13.03125 16.757812 13.03125 L 17.433594 13.03125 C 16.867188 12.863281 16.351562 12.503906 15.941406 12.058594 C 14.992188 12.390625 14.289062 13.335938 14.289062 14.417969 Z M 14.289062 14.417969 " fill-opacity="1" fill-rule="nonzero"/><path fill="#000000" d="M 19.28125 13.03125 L 19.960938 13.03125 C 20.71875 13.03125 21.34375 13.640625 21.34375 14.417969 L 21.34375 16.71875 C 21.34375 16.746094 21.34375 16.746094 21.34375 16.773438 C 21.34375 16.855469 21.34375 16.9375 21.34375 17.023438 L 21.34375 17.910156 C 21.425781 17.9375 21.507812 17.9375 21.585938 17.964844 C 22.078125 17.769531 22.429688 17.300781 22.429688 16.746094 L 22.429688 14.445312 C 22.429688 13.363281 21.722656 12.449219 20.773438 12.085938 C 20.367188 12.503906 19.878906 12.863281 19.28125 13.03125 Z M 19.28125 13.03125 " fill-opacity="1" fill-rule="nonzero"/><g clip-path="url(#38930b69bf)"><path fill="#000000" d="M 26.5 22.566406 C 26.5 21.707031 25.820312 20.988281 24.953125 20.988281 C 24.734375 20.988281 24.492188 21.042969 24.300781 21.125 C 24.140625 20.433594 23.597656 19.960938 22.890625 19.960938 C 22.699219 19.960938 22.539062 19.988281 22.375 20.042969 C 22.15625 19.40625 21.585938 18.933594 20.882812 18.933594 C 20.664062 18.933594 20.476562 18.992188 20.257812 19.046875 L 20.257812 16.996094 C 20.257812 16.050781 19.660156 15.332031 18.847656 15.332031 C 18.003906 15.332031 17.300781 16.023438 17.300781 16.910156 L 17.300781 23.261719 C 16.945312 22.816406 16.511719 22.402344 16.023438 22.234375 C 15.617188 22.097656 15.210938 22.125 14.832031 22.289062 C 14.585938 22.375 14.261719 22.621094 14.097656 23.039062 C 13.824219 23.761719 14.097656 24.730469 14.9375 26.035156 L 17.597656 30.859375 C 17.949219 31.523438 18.792969 31.996094 19.523438 31.996094 L 24.167969 31.996094 C 24.953125 31.996094 25.738281 31.382812 25.902344 30.609375 C 26.148438 29.554688 26.417969 28 26.5 26.3125 C 26.472656 26.253906 26.5 22.566406 26.5 22.566406 Z M 25.414062 26.117188 C 25.359375 27.753906 25.089844 29.277344 24.84375 30.332031 C 24.789062 30.609375 24.464844 30.859375 24.167969 30.859375 L 19.523438 30.859375 C 19.171875 30.859375 18.710938 30.582031 18.546875 30.273438 C 18.546875 30.273438 15.863281 25.421875 15.863281 25.394531 C 14.992188 24.09375 15.074219 23.566406 15.101562 23.425781 C 15.15625 23.234375 15.480469 23.207031 15.644531 23.261719 C 16.351562 23.511719 17.328125 25.480469 17.328125 25.480469 C 17.410156 25.644531 17.570312 25.757812 17.761719 25.785156 C 18.085938 25.785156 18.359375 25.589844 18.359375 25.230469 L 18.359375 16.882812 C 18.359375 16.632812 18.519531 16.441406 18.792969 16.414062 C 19.0625 16.414062 19.144531 16.746094 19.144531 16.96875 L 19.144531 25.171875 C 19.144531 25.480469 19.390625 25.726562 19.6875 25.726562 C 19.988281 25.726562 20.230469 25.480469 20.230469 25.171875 L 20.230469 20.515625 C 20.230469 20.292969 20.476562 20.070312 20.773438 20.070312 C 21.019531 20.070312 21.316406 20.265625 21.316406 20.515625 L 21.316406 25.257812 C 21.316406 25.5625 21.5625 25.8125 21.859375 25.8125 C 22.15625 25.8125 22.402344 25.5625 22.402344 25.257812 L 22.402344 21.515625 C 22.429688 21.292969 22.617188 21.097656 22.863281 21.097656 C 23.136719 21.097656 23.242188 21.347656 23.242188 21.570312 L 23.242188 25.257812 C 23.242188 25.5625 23.488281 25.8125 23.785156 25.8125 C 24.085938 25.8125 24.328125 25.5625 24.328125 25.257812 L 24.328125 22.59375 C 24.328125 22.375 24.65625 22.125 24.953125 22.125 C 25.199219 22.125 25.414062 22.316406 25.414062 22.59375 Z M 25.414062 26.117188 " fill-opacity="1" fill-rule="nonzero"/></g><g clip-path="url(#101167c204)"><path fill="#000000" d="M 19.417969 5.902344 C 19.417969 6.058594 19.363281 6.1875 19.257812 6.296875 C 19.152344 6.40625 19.023438 6.457031 18.875 6.457031 C 18.722656 6.457031 18.597656 6.40625 18.488281 6.296875 C 18.382812 6.1875 18.332031 6.058594 18.332031 5.902344 C 18.332031 5.75 18.382812 5.621094 18.488281 5.511719 C 18.597656 5.402344 18.722656 5.351562 18.875 5.351562 C 19.023438 5.351562 19.152344 5.402344 19.257812 5.511719 C 19.363281 5.621094 19.417969 5.75 19.417969 5.902344 Z M 19.417969 5.902344 " fill-opacity="1" fill-rule="nonzero"/></g><g clip-path="url(#bd2c682044)"><path fill="#000000" d="M 17.273438 6.070312 C 17.273438 6.222656 17.21875 6.355469 17.113281 6.460938 C 17.007812 6.570312 16.878906 6.625 16.730469 6.625 C 16.578125 6.625 16.453125 6.570312 16.347656 6.460938 C 16.238281 6.355469 16.1875 6.222656 16.1875 6.070312 C 16.1875 5.917969 16.238281 5.785156 16.347656 5.679688 C 16.453125 5.570312 16.578125 5.515625 16.730469 5.515625 C 16.878906 5.515625 17.007812 5.570312 17.113281 5.679688 C 17.21875 5.785156 17.273438 5.917969 17.273438 6.070312 Z M 17.273438 6.070312 " fill-opacity="1" fill-rule="nonzero"/></g><path fill="#000000" d="M 15.210938 6.902344 C 15.210938 7.054688 15.15625 7.1875 15.050781 7.292969 C 14.945312 7.402344 14.816406 7.457031 14.667969 7.457031 C 14.515625 7.457031 14.390625 7.402344 14.285156 7.292969 C 14.175781 7.1875 14.125 7.054688 14.125 6.902344 C 14.125 6.75 14.175781 6.617188 14.285156 6.511719 C 14.390625 6.402344 14.515625 6.347656 14.667969 6.347656 C 14.816406 6.347656 14.945312 6.402344 15.050781 6.511719 C 15.15625 6.617188 15.210938 6.75 15.210938 6.902344 Z M 15.210938 6.902344 " fill-opacity="1" fill-rule="nonzero"/><path fill="#000000" d="M 13.527344 8.289062 C 13.527344 8.441406 13.472656 8.574219 13.367188 8.679688 C 13.261719 8.789062 13.132812 8.84375 12.984375 8.84375 C 12.835938 8.84375 12.707031 8.789062 12.601562 8.679688 C 12.496094 8.574219 12.441406 8.441406 12.441406 8.289062 C 12.441406 8.136719 12.496094 8.003906 12.601562 7.898438 C 12.707031 7.789062 12.835938 7.734375 12.984375 7.734375 C 13.132812 7.734375 13.261719 7.789062 13.367188 7.898438 C 13.472656 8.003906 13.527344 8.136719 13.527344 8.289062 Z M 13.527344 8.289062 " fill-opacity="1" fill-rule="nonzero"/><path fill="#000000" d="M 12.277344 10.144531 C 12.277344 10.300781 12.226562 10.429688 12.121094 10.539062 C 12.015625 10.648438 11.886719 10.699219 11.734375 10.699219 C 11.585938 10.699219 11.457031 10.648438 11.351562 10.539062 C 11.246094 10.429688 11.195312 10.300781 11.195312 10.144531 C 11.195312 9.992188 11.246094 9.863281 11.351562 9.753906 C 11.457031 9.644531 11.585938 9.589844 11.734375 9.589844 C 11.886719 9.589844 12.015625 9.644531 12.121094 9.753906 C 12.226562 9.863281 12.277344 9.992188 12.277344 10.144531 Z M 12.277344 10.144531 " fill-opacity="1" fill-rule="nonzero"/><path fill="#000000" d="M 11.65625 12.28125 C 11.65625 12.433594 11.601562 12.566406 11.496094 12.671875 C 11.390625 12.78125 11.261719 12.835938 11.113281 12.835938 C 10.960938 12.835938 10.835938 12.78125 10.726562 12.671875 C 10.621094 12.566406 10.570312 12.433594 10.570312 12.28125 C 10.570312 12.128906 10.621094 11.996094 10.726562 11.890625 C 10.835938 11.78125 10.960938 11.726562 11.113281 11.726562 C 11.261719 11.726562 11.390625 11.78125 11.496094 11.890625 C 11.601562 11.996094 11.65625 12.128906 11.65625 12.28125 Z M 11.65625 12.28125 " fill-opacity="1" fill-rule="nonzero"/><path fill="#000000" d="M 11.65625 14.5 C 11.65625 14.652344 11.601562 14.78125 11.496094 14.890625 C 11.390625 15 11.261719 15.054688 11.113281 15.054688 C 10.960938 15.054688 10.835938 15 10.726562 14.890625 C 10.621094 14.78125 10.570312 14.652344 10.570312 14.5 C 10.570312 14.347656 10.621094 14.214844 10.726562 14.105469 C 10.835938 14 10.960938 13.945312 11.113281 13.945312 C 11.261719 13.945312 11.390625 14 11.496094 14.105469 C 11.601562 14.214844 11.65625 14.347656 11.65625 14.5 Z M 11.65625 14.5 " fill-opacity="1" fill-rule="nonzero"/><path fill="#000000" d="M 12.277344 16.632812 C 12.277344 16.789062 12.226562 16.917969 12.121094 17.027344 C 12.015625 17.132812 11.886719 17.1875 11.734375 17.1875 C 11.585938 17.1875 11.457031 17.132812 11.351562 17.027344 C 11.246094 16.917969 11.195312 16.789062 11.195312 16.632812 C 11.195312 16.480469 11.246094 16.351562 11.351562 16.242188 C 11.457031 16.132812 11.585938 16.078125 11.734375 16.078125 C 11.886719 16.078125 12.015625 16.132812 12.121094 16.242188 C 12.226562 16.351562 12.277344 16.480469 12.277344 16.632812 Z M 12.277344 16.632812 " fill-opacity="1" fill-rule="nonzero"/><path fill="#000000" d="M 13.527344 18.492188 C 13.527344 18.644531 13.472656 18.777344 13.367188 18.882812 C 13.261719 18.992188 13.132812 19.046875 12.984375 19.046875 C 12.835938 19.046875 12.707031 18.992188 12.601562 18.882812 C 12.496094 18.777344 12.441406 18.644531 12.441406 18.492188 C 12.441406 18.339844 12.496094 18.207031 12.601562 18.101562 C 12.707031 17.992188 12.835938 17.9375 12.984375 17.9375 C 13.132812 17.9375 13.261719 17.992188 13.367188 18.101562 C 13.472656 18.207031 13.527344 18.339844 13.527344 18.492188 Z M 13.527344 18.492188 " fill-opacity="1" fill-rule="nonzero"/><path fill="#000000" d="M 15.238281 19.878906 C 15.238281 20.03125 15.183594 20.160156 15.078125 20.269531 C 14.972656 20.378906 14.84375 20.433594 14.695312 20.433594 C 14.542969 20.433594 14.417969 20.378906 14.3125 20.269531 C 14.203125 20.160156 14.152344 20.03125 14.152344 19.878906 C 14.152344 19.726562 14.203125 19.59375 14.3125 19.484375 C 14.417969 19.378906 14.542969 19.324219 14.695312 19.324219 C 14.84375 19.324219 14.972656 19.378906 15.078125 19.484375 C 15.183594 19.59375 15.238281 19.726562 15.238281 19.878906 Z M 15.238281 19.878906 " fill-opacity="1" fill-rule="nonzero"/><g clip-path="url(#146cc90709)"><path fill="#000000" d="M 21.5625 6.402344 C 21.5625 6.554688 21.507812 6.6875 21.402344 6.796875 C 21.296875 6.902344 21.167969 6.957031 21.019531 6.957031 C 20.867188 6.957031 20.738281 6.902344 20.632812 6.796875 C 20.527344 6.6875 20.476562 6.554688 20.476562 6.402344 C 20.476562 6.25 20.527344 6.121094 20.632812 6.011719 C 20.738281 5.902344 20.867188 5.847656 21.019531 5.847656 C 21.167969 5.847656 21.296875 5.902344 21.402344 6.011719 C 21.507812 6.121094 21.5625 6.25 21.5625 6.402344 Z M 21.5625 6.402344 " fill-opacity="1" fill-rule="nonzero"/></g><path fill="#000000" d="M 23.460938 7.457031 C 23.460938 7.609375 23.40625 7.742188 23.300781 7.847656 C 23.195312 7.957031 23.066406 8.011719 22.917969 8.011719 C 22.769531 8.011719 22.640625 7.957031 22.535156 7.847656 C 22.429688 7.742188 22.375 7.609375 22.375 7.457031 C 22.375 7.304688 22.429688 7.171875 22.535156 7.066406 C 22.640625 6.957031 22.769531 6.902344 22.917969 6.902344 C 23.066406 6.902344 23.195312 6.957031 23.300781 7.066406 C 23.40625 7.171875 23.460938 7.304688 23.460938 7.457031 Z M 23.460938 7.457031 " fill-opacity="1" fill-rule="nonzero"/><path fill="#000000" d="M 24.953125 9.121094 C 24.953125 9.273438 24.898438 9.402344 24.792969 9.511719 C 24.6875 9.621094 24.558594 9.675781 24.410156 9.675781 C 24.261719 9.675781 24.132812 9.621094 24.027344 9.511719 C 23.921875 9.402344 23.867188 9.273438 23.867188 9.121094 C 23.867188 8.96875 23.921875 8.835938 24.027344 8.726562 C 24.132812 8.621094 24.261719 8.566406 24.410156 8.566406 C 24.558594 8.566406 24.6875 8.621094 24.792969 8.726562 C 24.898438 8.835938 24.953125 8.96875 24.953125 9.121094 Z M 24.953125 9.121094 " fill-opacity="1" fill-rule="nonzero"/><path fill="#000000" d="M 25.902344 11.144531 C 25.902344 11.296875 25.851562 11.429688 25.742188 11.535156 C 25.636719 11.644531 25.511719 11.699219 25.359375 11.699219 C 25.210938 11.699219 25.082031 11.644531 24.976562 11.535156 C 24.871094 11.429688 24.816406 11.296875 24.816406 11.144531 C 24.816406 10.992188 24.871094 10.859375 24.976562 10.753906 C 25.082031 10.644531 25.210938 10.589844 25.359375 10.589844 C 25.511719 10.589844 25.636719 10.644531 25.742188 10.753906 C 25.851562 10.859375 25.902344 10.992188 25.902344 11.144531 Z M 25.902344 11.144531 " fill-opacity="1" fill-rule="nonzero"/><path fill="#000000" d="M 26.230469 13.363281 C 26.230469 13.515625 26.175781 13.644531 26.070312 13.753906 C 25.964844 13.863281 25.835938 13.917969 25.6875 13.917969 C 25.535156 13.917969 25.40625 13.863281 25.300781 13.753906 C 25.195312 13.644531 25.144531 13.515625 25.144531 13.363281 C 25.144531 13.210938 25.195312 13.078125 25.300781 12.96875 C 25.40625 12.863281 25.535156 12.808594 25.6875 12.808594 C 25.835938 12.808594 25.964844 12.863281 26.070312 12.96875 C 26.175781 13.078125 26.230469 13.210938 26.230469 13.363281 Z M 26.230469 13.363281 " fill-opacity="1" fill-rule="nonzero"/><path fill="#000000" d="M 25.902344 15.582031 C 25.902344 15.734375 25.851562 15.863281 25.742188 15.972656 C 25.636719 16.082031 25.511719 16.136719 25.359375 16.136719 C 25.210938 16.136719 25.082031 16.082031 24.976562 15.972656 C 24.871094 15.863281 24.816406 15.734375 24.816406 15.582031 C 24.816406 15.425781 24.871094 15.296875 24.976562 15.1875 C 25.082031 15.082031 25.210938 15.027344 25.359375 15.027344 C 25.511719 15.027344 25.636719 15.082031 25.742188 15.1875 C 25.851562 15.296875 25.902344 15.425781 25.902344 15.582031 Z M 25.902344 15.582031 " fill-opacity="1" fill-rule="nonzero"/><path fill="#000000" d="M 24.953125 17.605469 C 24.953125 17.757812 24.898438 17.886719 24.792969 17.996094 C 24.6875 18.105469 24.558594 18.160156 24.410156 18.160156 C 24.261719 18.160156 24.132812 18.105469 24.027344 17.996094 C 23.921875 17.886719 23.867188 17.757812 23.867188 17.605469 C 23.867188 17.453125 23.921875 17.320312 24.027344 17.210938 C 24.132812 17.105469 24.261719 17.050781 24.410156 17.050781 C 24.558594 17.050781 24.6875 17.105469 24.792969 17.210938 C 24.898438 17.320312 24.953125 17.453125 24.953125 17.605469 Z M 24.953125 17.605469 " fill-opacity="1" fill-rule="nonzero"/></svg>