<svg xmlns="http://www.w3.org/2000/svg" xmlns:xlink="http://www.w3.org/1999/xlink" width="50" zoomAndPan="magnify" viewBox="0 0 37.5 37.499999" height="50" preserveAspectRatio="xMidYMid meet" version="1.0"><defs><clipPath id="6ca6ede18f"><path d="M 2.292969 0.710938 L 31.898438 0.710938 L 31.898438 36.980469 L 2.292969 36.980469 Z M 2.292969 0.710938 " clip-rule="nonzero"/></clipPath></defs><g clip-path="url(#6ca6ede18f)"><path fill="#00bf63" d="M 4.296875 23.585938 C 4.296875 23.289062 4.539062 23.046875 4.835938 23.046875 L 10.316406 23.046875 C 10.613281 23.046875 10.851562 23.289062 10.851562 23.585938 C 10.851562 23.882812 10.613281 24.125 10.316406 24.125 L 4.835938 24.125 C 4.539062 24.125 4.296875 23.882812 4.296875 23.585938 Z M 12.417969 26.691406 C 12.417969 26.988281 12.179688 27.230469 11.882812 27.230469 L 4.835938 27.230469 C 4.539062 27.230469 4.296875 26.988281 4.296875 26.691406 C 4.296875 26.390625 4.539062 26.152344 4.835938 26.152344 L 11.882812 26.152344 C 12.179688 26.152344 12.417969 26.390625 12.417969 26.691406 Z M 4.296875 20.484375 C 4.296875 20.1875 4.539062 19.945312 4.835938 19.945312 L 9.972656 19.945312 C 10.269531 19.945312 10.507812 20.1875 10.507812 20.484375 C 10.507812 20.78125 10.269531 21.023438 9.972656 21.023438 L 4.835938 21.023438 C 4.539062 21.023438 4.296875 20.78125 4.296875 20.484375 Z M 19.585938 16.695312 C 21.949219 16.695312 23.894531 18.601562 23.894531 21.003906 C 23.894531 23.40625 21.945312 25.316406 19.585938 25.3125 C 18.480469 25.3125 17.375 24.894531 16.535156 24.054688 C 14.855469 22.371094 14.855469 19.636719 16.535156 17.957031 C 17.375 17.117188 18.480469 16.695312 19.585938 16.695312 Z M 14.195312 21.003906 C 14.195312 24.007812 16.628906 26.390625 19.585938 26.390625 C 22.539062 26.390625 24.972656 24.007812 24.972656 21.003906 C 24.972656 18.027344 22.5625 15.617188 19.585938 15.617188 C 16.605469 15.617188 14.195312 18.027344 14.195312 21.003906 Z M 30.835938 30.929688 L 29.207031 32.558594 C 29.183594 32.585938 29.136719 32.585938 29.109375 32.558594 L 25.898438 29.34375 C 25.871094 29.320312 25.871094 29.273438 25.898438 29.246094 L 27.527344 27.617188 C 27.550781 27.59375 27.597656 27.589844 27.625 27.617188 L 30.835938 30.832031 C 30.863281 30.855469 30.863281 30.902344 30.835938 30.929688 Z M 24.8125 26.234375 C 24.875 26.175781 24.933594 26.117188 24.988281 26.054688 L 26.277344 27.34375 L 25.621094 28 L 24.316406 26.691406 C 24.488281 26.546875 24.65625 26.394531 24.8125 26.234375 Z M 18.453125 29.253906 C 18.742188 29.253906 18.980469 29.019531 18.980469 28.730469 L 18.980469 28.410156 C 15.074219 28.132812 12.023438 24.878906 12.023438 20.9375 C 12.023438 16.96875 15.09375 13.746094 18.980469 13.46875 L 18.980469 11.53125 L 15.921875 11.546875 C 15.621094 11.546875 15.382812 11.304688 15.378906 11.007812 C 15.378906 10.710938 15.621094 10.46875 15.917969 10.46875 L 18.980469 10.457031 L 18.980469 8.042969 C 18.980469 7.753906 18.742188 7.519531 18.453125 7.519531 L 12.238281 7.519531 L 11.410156 8.929688 C 11.308594 9.101562 11.128906 9.199219 10.945312 9.199219 C 10.53125 9.199219 10.269531 8.746094 10.480469 8.386719 L 10.988281 7.519531 L 3.898438 7.519531 C 3.609375 7.519531 3.375 7.753906 3.375 8.042969 L 3.375 28.730469 C 3.375 29.019531 3.609375 29.253906 3.898438 29.253906 Z M 25.933594 20.9375 C 25.933594 17.363281 23.035156 14.527344 19.515625 14.527344 C 16 14.527344 13.101562 17.363281 13.101562 20.9375 C 13.101562 24.484375 15.972656 27.351562 19.515625 27.351562 C 23.0625 27.351562 25.933594 24.484375 25.933594 20.9375 Z M 22.730469 32.277344 C 23.734375 32.277344 24.554688 33.09375 24.554688 34.101562 C 24.554688 35.105469 23.734375 35.925781 22.730469 35.925781 C 21.726562 35.925781 20.910156 35.105469 20.910156 34.101562 C 20.910156 33.09375 21.726562 32.277344 22.730469 32.277344 Z M 27.003906 1.789062 C 28.007812 1.789062 28.824219 2.605469 28.824219 3.613281 C 28.824219 4.617188 28.007812 5.4375 27.003906 5.4375 C 25.996094 5.4375 25.179688 4.617188 25.179688 3.613281 C 25.179688 2.605469 25.996094 1.789062 27.003906 1.789062 Z M 27.003906 9.136719 C 28.007812 9.136719 28.824219 9.957031 28.824219 10.960938 C 28.824219 11.964844 28.007812 12.785156 27.003906 12.785156 C 25.996094 12.785156 25.179688 11.964844 25.179688 10.960938 C 25.179688 9.957031 25.996094 9.136719 27.003906 9.136719 Z M 31.597656 30.070312 L 28.386719 26.855469 C 28.042969 26.511719 27.523438 26.425781 27.089844 26.628906 L 25.671875 25.214844 C 27.730469 22.265625 27.390625 18.21875 24.8125 15.640625 C 23.492188 14.316406 21.789062 13.59375 20.054688 13.46875 L 20.054688 11.527344 L 24.15625 11.511719 C 24.414062 12.847656 25.589844 13.859375 27.003906 13.859375 C 28.601562 13.859375 29.902344 12.558594 29.902344 10.960938 C 29.902344 9.363281 28.601562 8.0625 27.003906 8.0625 C 25.582031 8.0625 24.398438 9.085938 24.152344 10.433594 L 20.054688 10.449219 L 20.054688 8.042969 C 20.054688 7.160156 19.335938 6.441406 18.453125 6.441406 L 12.871094 6.441406 L 14.214844 4.152344 L 24.152344 4.152344 C 24.40625 5.496094 25.585938 6.515625 27.003906 6.515625 C 28.601562 6.515625 29.902344 5.210938 29.902344 3.613281 C 29.902344 2.015625 28.601562 0.714844 27.003906 0.714844 C 25.585938 0.714844 24.40625 1.730469 24.152344 3.074219 L 13.90625 3.074219 C 13.714844 3.074219 13.539062 3.175781 13.441406 3.339844 L 11.621094 6.441406 L 3.898438 6.441406 C 3.015625 6.441406 2.296875 7.160156 2.296875 8.042969 L 2.296875 28.730469 C 2.296875 29.613281 3.015625 30.332031 3.898438 30.332031 L 10.324219 30.332031 L 12.679688 34.371094 C 12.777344 34.539062 12.953125 34.640625 13.144531 34.640625 L 19.882812 34.640625 C 20.132812 35.980469 21.316406 37 22.730469 37 C 24.332031 37 25.632812 35.699219 25.632812 34.101562 C 25.632812 32.5 24.332031 31.199219 22.730469 31.199219 C 21.316406 31.199219 20.132812 32.21875 19.882812 33.5625 L 13.453125 33.5625 L 11.570312 30.332031 L 18.453125 30.332031 C 19.335938 30.332031 20.054688 29.613281 20.054688 28.730469 L 20.054688 28.410156 C 21.265625 28.324219 22.414062 27.953125 23.429688 27.328125 L 24.910156 28.808594 C 24.710938 29.234375 24.785156 29.757812 25.136719 30.105469 L 28.347656 33.320312 C 28.796875 33.765625 29.523438 33.765625 29.96875 33.320312 L 31.597656 31.691406 C 32.046875 31.242188 32.046875 30.515625 31.597656 30.070312 Z M 5.722656 14.722656 C 5.722656 13.585938 6.648438 12.660156 7.785156 12.660156 C 8.921875 12.660156 9.847656 13.585938 9.847656 14.722656 L 9.847656 16.84375 L 5.722656 16.84375 Z M 6.835938 10.636719 C 6.835938 10.113281 7.261719 9.6875 7.785156 9.6875 C 8.308594 9.6875 8.734375 10.113281 8.734375 10.636719 C 8.734375 11.160156 8.308594 11.585938 7.785156 11.585938 C 7.261719 11.585938 6.835938 11.160156 6.835938 10.636719 Z M 5.183594 17.917969 C 4.886719 17.917969 4.644531 17.679688 4.644531 17.378906 L 4.644531 14.722656 C 4.644531 13.542969 5.300781 12.511719 6.269531 11.976562 C 5.117188 10.671875 6.042969 8.609375 7.785156 8.609375 C 9.523438 8.609375 10.453125 10.675781 9.300781 11.976562 C 10.269531 12.511719 10.925781 13.542969 10.925781 14.722656 L 10.925781 17.378906 C 10.925781 17.679688 10.683594 17.917969 10.386719 17.917969 Z M 5.183594 17.917969 " fill-opacity="1" fill-rule="evenodd"/></g></svg>