<svg xmlns="http://www.w3.org/2000/svg" xmlns:xlink="http://www.w3.org/1999/xlink" width="50" zoomAndPan="magnify" viewBox="0 0 37.5 37.499999" height="50" preserveAspectRatio="xMidYMid meet" version="1.0"><defs><clipPath id="0bdfc6daf2"><path d="M 1.109375 1.332031 L 35.894531 1.332031 L 35.894531 36 L 1.109375 36 Z M 1.109375 1.332031 " clip-rule="nonzero"/></clipPath></defs><g clip-path="url(#0bdfc6daf2)"><path fill="#ffffff" d="M 35.46875 16.636719 C 35.34375 16.53125 35.179688 16.484375 35.019531 16.511719 L 33.28125 16.789062 C 32.878906 13.476562 31.371094 10.375 28.996094 8 C 26.621094 5.628906 23.519531 4.121094 20.207031 3.71875 L 20.484375 1.976562 C 20.511719 1.816406 20.464844 1.652344 20.359375 1.527344 C 20.253906 1.402344 20.097656 1.332031 19.933594 1.332031 L 16.839844 1.332031 C 16.675781 1.332031 16.523438 1.402344 16.417969 1.527344 C 16.308594 1.652344 16.265625 1.816406 16.289062 1.976562 L 16.570312 3.71875 C 13.253906 4.121094 10.15625 5.628906 7.78125 8 C 5.40625 10.375 3.898438 13.476562 3.496094 16.789062 L 1.753906 16.511719 C 1.59375 16.484375 1.429688 16.53125 1.304688 16.636719 C 1.183594 16.742188 1.109375 16.898438 1.109375 17.0625 L 1.109375 20.15625 C 1.109375 20.320312 1.183594 20.476562 1.304688 20.582031 C 1.40625 20.667969 1.535156 20.714844 1.667969 20.714844 C 1.695312 20.714844 1.726562 20.710938 1.753906 20.707031 L 3.496094 20.429688 C 3.898438 23.742188 5.40625 26.84375 7.78125 29.21875 C 10.15625 31.59375 13.257812 33.097656 16.570312 33.5 L 16.289062 35.242188 C 16.265625 35.402344 16.308594 35.566406 16.417969 35.691406 C 16.523438 35.816406 16.675781 35.886719 16.839844 35.886719 L 19.933594 35.886719 C 20.097656 35.886719 20.253906 35.816406 20.359375 35.691406 C 20.464844 35.566406 20.511719 35.402344 20.484375 35.242188 L 20.207031 33.5 C 23.519531 33.097656 26.621094 31.59375 28.996094 29.21875 C 31.371094 26.84375 32.878906 23.742188 33.28125 20.429688 L 35.019531 20.707031 C 35.050781 20.710938 35.078125 20.714844 35.109375 20.714844 C 35.238281 20.714844 35.367188 20.667969 35.46875 20.582031 C 35.59375 20.476562 35.664062 20.320312 35.664062 20.15625 L 35.664062 17.0625 C 35.664062 16.898438 35.59375 16.742188 35.46875 16.636719 Z M 32.179688 16.964844 L 30.257812 17.273438 C 29.644531 11.742188 25.257812 7.355469 19.722656 6.738281 L 20.03125 4.820312 C 26.429688 5.566406 31.429688 10.566406 32.179688 16.964844 Z M 26.210938 19.296875 L 29.15625 19.769531 C 28.621094 24.828125 24.605469 28.839844 19.546875 29.378906 L 19.074219 26.429688 C 19.019531 26.09375 18.730469 25.847656 18.386719 25.847656 C 18.042969 25.847656 17.753906 26.09375 17.699219 26.429688 L 17.226562 29.378906 C 12.167969 28.839844 8.15625 24.828125 7.617188 19.769531 L 10.566406 19.296875 C 10.90625 19.242188 11.152344 18.953125 11.152344 18.609375 C 11.152344 18.265625 10.90625 17.976562 10.566406 17.921875 L 7.617188 17.449219 C 8.15625 12.390625 12.167969 8.378906 17.226562 7.839844 L 17.699219 10.789062 C 17.753906 11.128906 18.042969 11.375 18.386719 11.375 C 18.730469 11.375 19.019531 11.128906 19.074219 10.789062 L 19.546875 7.839844 C 24.605469 8.378906 28.621094 12.390625 29.15625 17.449219 L 26.210938 17.921875 C 25.871094 17.976562 25.625 18.265625 25.625 18.609375 C 25.625 18.953125 25.871094 19.242188 26.210938 19.296875 Z M 19.28125 2.445312 L 18.386719 8.03125 L 17.492188 2.445312 Z M 16.746094 4.820312 L 17.050781 6.738281 C 11.519531 7.355469 7.132812 11.742188 6.515625 17.273438 L 4.597656 16.964844 C 5.347656 10.566406 10.34375 5.566406 16.746094 4.820312 Z M 2.226562 17.714844 L 7.808594 18.609375 L 2.226562 19.503906 Z M 4.597656 20.253906 L 6.515625 19.945312 C 7.132812 25.480469 11.519531 29.867188 17.050781 30.480469 L 16.746094 32.398438 C 10.34375 31.652344 5.347656 26.652344 4.597656 20.253906 Z M 17.492188 34.773438 L 18.386719 29.1875 L 19.28125 34.773438 Z M 20.03125 32.398438 L 19.722656 30.480469 C 25.257812 29.867188 29.644531 25.480469 30.257812 19.945312 L 32.179688 20.253906 C 31.429688 26.652344 26.429688 31.652344 20.03125 32.398438 Z M 34.550781 19.503906 L 28.964844 18.609375 L 34.550781 17.714844 Z M 20.527344 18.765625 C 21.335938 18.128906 21.855469 17.144531 21.855469 16.042969 C 21.855469 14.128906 20.300781 12.574219 18.386719 12.574219 C 16.476562 12.574219 14.921875 14.128906 14.921875 16.042969 C 14.921875 17.144531 15.441406 18.128906 16.246094 18.765625 C 14.027344 19.5625 12.375 21.5625 12.109375 24.027344 C 12.09375 24.1875 12.144531 24.34375 12.25 24.460938 C 12.355469 24.578125 12.507812 24.644531 12.664062 24.644531 L 24.109375 24.644531 C 24.269531 24.644531 24.417969 24.578125 24.523438 24.460938 C 24.628906 24.34375 24.679688 24.1875 24.664062 24.027344 C 24.398438 21.5625 22.746094 19.5625 20.527344 18.765625 Z M 16.035156 16.042969 C 16.035156 14.746094 17.089844 13.6875 18.386719 13.6875 C 19.683594 13.6875 20.742188 14.746094 20.742188 16.042969 C 20.742188 17.339844 19.683594 18.394531 18.386719 18.394531 C 17.089844 18.394531 16.035156 17.339844 16.035156 16.042969 Z M 13.324219 23.53125 C 13.859375 21.199219 15.9375 19.507812 18.386719 19.507812 C 20.839844 19.507812 22.917969 21.199219 23.453125 23.53125 Z M 13.324219 23.53125 " fill-opacity="1" fill-rule="nonzero"/></g></svg>