<svg width="20" height="20" viewBox="0 0 20 20" fill="none" xmlns="http://www.w3.org/2000/svg">
<g id="iconoir:calendar">
<path id="Vector" d="M12.5 3.33341V1.66675M12.5 3.33341V5.00008M12.5 3.33341H8.75M2.5 8.33341V15.8334C2.5 16.2754 2.67559 16.6994 2.98816 17.0119C3.30072 17.3245 3.72464 17.5001 4.16667 17.5001H15.8333C16.2754 17.5001 16.6993 17.3245 17.0118 17.0119C17.3244 16.6994 17.5 16.2754 17.5 15.8334V8.33341M2.5 8.33341H17.5M2.5 8.33341V5.00008C2.5 4.55805 2.67559 4.13413 2.98816 3.82157C3.30072 3.50901 3.72464 3.33341 4.16667 3.33341H5.83333M17.5 8.33341V5.00008C17.5 4.55805 17.3244 4.13413 17.0118 3.82157C16.6993 3.50901 16.2754 3.33341 15.8333 3.33341H15.4167M5.83333 1.66675V5.00008" stroke="white" stroke-width="1.5" stroke-linecap="round" stroke-linejoin="round"/>
</g>
</svg>
