<svg width="32" height="32" viewBox="0 0 32 32" fill="none" xmlns="http://www.w3.org/2000/svg">
<g id="Icon[musho:icon]">
<path id="Vector" d="M12.0327 4.63125C11.9996 4.50403 11.9919 4.37154 12.01 4.24134C12.0282 4.11114 12.0718 3.9858 12.1385 3.87249C12.2051 3.75917 12.2934 3.66011 12.3984 3.58097C12.5034 3.50183 12.6229 3.44416 12.7502 3.41126C14.882 2.86145 17.1184 2.86145 19.2502 3.41126C19.4863 3.47171 19.6922 3.61632 19.8292 3.81791C19.9662 4.0195 20.0249 4.26418 19.9942 4.50598C19.9635 4.74778 19.8455 4.97003 19.6625 5.13098C19.4794 5.29193 19.2439 5.38048 19.0002 5.38001C18.9158 5.37956 18.8319 5.36865 18.7502 5.3475C16.9464 4.88227 15.054 4.88227 13.2502 5.3475C12.9938 5.41365 12.7216 5.37539 12.4933 5.24112C12.2651 5.10684 12.0994 4.88752 12.0327 4.63125ZM6.72394 6.8925C5.18224 8.46241 4.06402 10.3978 3.47394 12.5175C3.40316 12.7731 3.43681 13.0464 3.5675 13.2771C3.69819 13.5079 3.91521 13.6774 4.17081 13.7481C4.42641 13.8189 4.69966 13.7853 4.93045 13.6546C5.16124 13.5239 5.33066 13.3069 5.40144 13.0513C5.90027 11.257 6.8465 9.61871 8.15143 8.29C8.32212 8.09801 8.41237 7.84769 8.40347 7.59095C8.39457 7.3342 8.2872 7.09073 8.10363 6.91102C7.92005 6.7313 7.67436 6.62913 7.41748 6.62568C7.16061 6.62224 6.91226 6.71778 6.72394 6.8925ZM5.40144 18.9438C5.36631 18.8172 5.30659 18.6988 5.22571 18.5953C5.14482 18.4918 5.04434 18.4053 4.93001 18.3406C4.81568 18.276 4.68973 18.2345 4.55936 18.2185C4.42899 18.2025 4.29675 18.2124 4.17019 18.2475C4.04362 18.2826 3.92522 18.3423 3.82174 18.4232C3.71825 18.5041 3.63171 18.6046 3.56706 18.7189C3.50241 18.8333 3.46091 18.9592 3.44493 19.0896C3.42895 19.22 3.43881 19.3522 3.47394 19.4788C4.06438 21.5983 5.18254 23.5336 6.72394 25.1038C6.90992 25.2929 7.16342 25.4004 7.42866 25.4026C7.69391 25.4048 7.94918 25.3016 8.13831 25.1156C8.32744 24.9296 8.43495 24.6761 8.43717 24.4109C8.4394 24.1457 8.33617 23.8904 8.15018 23.7013C6.84686 22.373 5.9012 20.7363 5.40144 18.9438ZM18.7502 26.6525C16.9464 27.1182 15.0539 27.1182 13.2502 26.6525C13.1223 26.6174 12.9887 26.6081 12.8572 26.6251C12.7257 26.642 12.5989 26.685 12.4841 26.7515C12.3694 26.818 12.269 26.9066 12.1888 27.0122C12.1087 27.1179 12.0503 27.2384 12.0171 27.3668C11.984 27.4952 11.9767 27.6289 11.9957 27.7601C12.0147 27.8914 12.0596 28.0175 12.1278 28.1312C12.1961 28.2449 12.2862 28.344 12.3931 28.4225C12.4999 28.5011 12.6213 28.5576 12.7502 28.5888C14.882 29.1386 17.1184 29.1386 19.2502 28.5888C19.5034 28.5192 19.7191 28.3529 19.8507 28.1257C19.9823 27.8985 20.0193 27.6287 19.9536 27.3744C19.888 27.1202 19.725 26.902 19.4998 26.7669C19.2746 26.6318 19.0054 26.5908 18.7502 26.6525ZM27.8314 18.25C27.7048 18.2149 27.5725 18.2051 27.442 18.2211C27.3116 18.2371 27.1856 18.2788 27.0712 18.3435C26.9569 18.4083 26.8564 18.495 26.7756 18.5986C26.6948 18.7023 26.6352 18.8208 26.6002 18.9475C26.1016 20.7415 25.1553 22.3795 23.8502 23.7075C23.7582 23.8012 23.6855 23.9122 23.6364 24.034C23.5873 24.1558 23.5626 24.2861 23.5638 24.4174C23.565 24.5487 23.5921 24.6786 23.6435 24.7994C23.6949 24.9203 23.7696 25.0299 23.8633 25.1219C23.957 25.2139 24.068 25.2865 24.1898 25.3357C24.3116 25.3848 24.4419 25.4095 24.5732 25.4082C24.7046 25.407 24.8344 25.3799 24.9552 25.3286C25.0761 25.2772 25.1857 25.2025 25.2777 25.1088C26.8196 23.539 27.9378 21.6036 28.5277 19.4838C28.5632 19.357 28.5734 19.2245 28.5576 19.0939C28.5418 18.9632 28.5004 18.8369 28.4357 18.7223C28.371 18.6077 28.2843 18.507 28.1807 18.4259C28.077 18.3449 27.9583 18.2851 27.8314 18.25ZM26.5989 13.0575C26.6341 13.1841 26.6938 13.3025 26.7747 13.406C26.8556 13.5094 26.956 13.596 27.0704 13.6606C27.1847 13.7253 27.3106 13.7668 27.441 13.7828C27.5714 13.7987 27.7036 13.7889 27.8302 13.7538C27.9567 13.7186 28.0751 13.6589 28.1786 13.578C28.2821 13.4971 28.3687 13.3967 28.4333 13.2823C28.498 13.168 28.5395 13.042 28.5554 12.9117C28.5714 12.7813 28.5616 12.6491 28.5264 12.5225C27.9366 10.4027 26.8184 8.46725 25.2764 6.89751C25.1843 6.80386 25.0747 6.72926 24.9538 6.67798C24.8329 6.6267 24.703 6.59974 24.5717 6.59864C24.4404 6.59754 24.3101 6.62231 24.1883 6.67156C24.0666 6.7208 23.9557 6.79354 23.8621 6.88563C23.7684 6.97772 23.6938 7.08735 23.6425 7.20827C23.5913 7.32919 23.5643 7.45902 23.5632 7.59036C23.5621 7.72169 23.5869 7.85196 23.6361 7.97372C23.6854 8.09549 23.7581 8.20636 23.8502 8.3C25.1539 9.62744 26.0997 11.2639 26.5989 13.0563V13.0575Z" fill="#D9D9D9"/>
</g>
</svg>
