<svg width="44" height="30" viewBox="0 0 44 30" fill="none" xmlns="http://www.w3.org/2000/svg">
<path d="M35.789 14.8001L35.789 14.8002C37.8354 14.8657 39.5594 15.6192 40.9494 17.0591C42.3391 18.4988 43.0346 20.2469 43.0346 22.2917C43.0346 24.3863 42.3105 26.164 40.8636 27.6123C39.4167 29.0607 37.6389 29.7848 35.5428 29.7834M35.789 14.8001L0.96797 20.2438C0.966578 22.8951 1.89994 25.1527 3.76454 27.0045C5.62879 28.856 7.89212 29.7834 10.543 29.7834H35.5428M35.789 14.8001H35.7826M35.789 14.8001H35.7826M35.5428 29.7834L35.543 29.5834M35.5428 29.7834H35.543V29.5834M35.543 29.5834C37.5874 29.5848 39.3138 28.8806 40.7221 27.4709C42.1305 26.0612 42.8346 24.3348 42.8346 22.2917C42.8346 20.2973 42.1582 18.5994 40.8055 17.198C39.4527 15.7966 37.7784 15.064 35.7826 15.0001L3.90547 26.8626C5.73186 28.6765 7.94436 29.5834 10.543 29.5834H35.543ZM35.7826 14.8001H34.7013V12.9167C34.7013 9.38939 33.4661 6.38623 30.999 3.91908C28.5318 1.45192 25.5287 0.216748 22.0013 0.216748C18.8696 0.216748 16.1193 1.2229 13.7591 3.23324C11.4394 5.20906 10.0282 7.7062 9.52908 10.7169C7.12061 10.8891 5.09634 11.9035 3.46585 13.7532C1.80292 15.6398 0.967995 17.8058 0.96797 20.2437L35.7826 14.8001ZM32.218 17.0834V17.2834H32.418H35.543C36.9497 17.2834 38.131 17.7668 39.0995 18.7353C40.0679 19.7037 40.5513 20.885 40.5513 22.2917C40.5513 23.6985 40.0679 24.8798 39.0995 25.8482C38.131 26.8167 36.9497 27.3001 35.543 27.3001H10.543C8.58211 27.3001 6.91423 26.6093 5.52814 25.2232C4.14205 23.8372 3.4513 22.1693 3.4513 20.2084C3.4513 18.2476 4.14205 16.5797 5.52814 15.1936C6.91423 13.8075 8.58211 13.1167 10.543 13.1167H11.5846H11.7846V12.9167C11.7846 10.0877 12.7797 7.68238 14.7739 5.68947C16.7683 3.69648 19.1737 2.70144 22.0014 2.70008C24.829 2.69872 27.2343 3.69302 29.2286 5.68734C31.2229 7.68165 32.218 10.0877 32.218 12.9167V17.0834Z" fill="#F1553F" stroke="#F1553F" stroke-width="0.4"/>
</svg>
