<svg width="50" height="50" viewBox="0 0 50 50" fill="none" xmlns="http://www.w3.org/2000/svg">
<path d="M18.1084 23.4012V15.6199C18.1084 15.1547 18.2723 14.7588 18.6001 14.4324C18.9279 14.106 19.3251 13.9422 19.7918 13.9408C20.2584 13.9394 20.6557 14.1033 20.9834 14.4324C21.3112 14.7616 21.4751 15.1574 21.4751 15.6199V23.4012C21.4751 23.8651 21.3112 24.2609 20.9834 24.5887C20.6557 24.9165 20.2584 25.0797 19.7918 25.0783C19.3251 25.0769 18.9279 24.9137 18.6001 24.5887C18.2723 24.2637 18.1084 23.8678 18.1084 23.4012ZM27.1626 26.1324V7.29076C27.1626 6.82271 27.3265 6.42549 27.6543 6.0991C27.9821 5.77271 28.3793 5.60882 28.8459 5.60743C29.3126 5.60604 29.7098 5.76993 30.0376 6.0991C30.3654 6.42826 30.5293 6.82549 30.5293 7.29076V26.1324C30.5293 26.6935 30.3571 27.1144 30.0126 27.3949C29.6682 27.6755 29.2814 27.8158 28.8522 27.8158C28.423 27.8158 28.0341 27.6755 27.6855 27.3949C27.3369 27.1144 27.1612 26.6935 27.1626 26.1324ZM8.97511 30.597V23.9574C8.97511 23.4894 9.1383 23.0922 9.46469 22.7658C9.79108 22.4394 10.1883 22.2755 10.6564 22.2741C11.1244 22.2727 11.5223 22.4366 11.8501 22.7658C12.1779 23.0949 12.3411 23.4922 12.3397 23.9574V30.597C12.3397 31.1567 12.1675 31.5769 11.823 31.8574C11.4786 32.138 11.0918 32.2783 10.6626 32.2783C10.2334 32.2783 9.84455 32.138 9.49594 31.8574C9.14733 31.5769 8.97372 31.1567 8.97511 30.597ZM11.2355 42.8116C10.7702 42.8116 10.4487 42.5998 10.2709 42.1762C10.0932 41.7526 10.1737 41.3713 10.5126 41.0324L18.6543 32.8908C18.9557 32.5894 19.3272 32.4213 19.7689 32.3866C20.2105 32.3519 20.6029 32.4852 20.9459 32.7866L27.1626 38.1324L41.2334 24.0616H37.5001C37.2043 24.0616 36.957 23.9616 36.7584 23.7616C36.5584 23.5616 36.4584 23.3137 36.4584 23.0178C36.4584 22.722 36.5584 22.4748 36.7584 22.2762C36.9584 22.0776 37.2057 21.9783 37.5001 21.9783H43.1084C43.5862 21.9783 43.9862 22.1394 44.3084 22.4616C44.6307 22.7838 44.7918 23.1838 44.7918 23.6616V29.2699C44.7918 29.5658 44.6918 29.813 44.4918 30.0116C44.2918 30.2116 44.0439 30.3116 43.748 30.3116C43.4522 30.3116 43.205 30.2116 43.0064 30.0116C42.8077 29.8116 42.7084 29.5644 42.7084 29.2699V25.5366L28.3251 39.9199C28.0237 40.2213 27.6522 40.3894 27.2105 40.4241C26.7689 40.4588 26.3765 40.3255 26.0334 40.0241L19.8168 34.6783L11.9876 42.5074C11.8973 42.5908 11.7855 42.6623 11.6522 42.722C11.5189 42.7817 11.38 42.8116 11.2355 42.8116Z" fill="#24B768"/>
</svg>
