<svg width="50" height="50" viewBox="0 0 50 50" fill="none" xmlns="http://www.w3.org/2000/svg">
<path d="M38.5418 18.7487H34.3752M34.3752 18.7487H30.2085M34.3752 18.7487V14.582M34.3752 18.7487V22.9154" stroke="#24B768" stroke-width="1.5" stroke-linecap="round"/>
<path d="M25.0001 11.6118L23.8584 12.6785C24.0046 12.8349 24.1814 12.9597 24.3778 13.0449C24.5742 13.1302 24.786 13.1742 25.0001 13.1742C25.2142 13.1742 25.426 13.1302 25.6224 13.0449C25.8188 12.9597 25.9956 12.8349 26.1418 12.6785L25.0001 11.6118ZM5.52508 28.5035C5.62816 28.6851 5.7666 28.8442 5.93223 28.9714C6.09786 29.0987 6.28731 29.1914 6.48938 29.2441C6.69145 29.2969 6.90205 29.3086 7.10872 29.2785C7.31539 29.2485 7.51394 29.1773 7.69264 29.0692C7.87134 28.9612 8.02656 28.8184 8.14912 28.6493C8.27168 28.4802 8.35911 28.2882 8.40622 28.0848C8.45333 27.8813 8.45918 27.6705 8.42341 27.4647C8.38765 27.2589 8.311 27.0624 8.198 26.8868L5.52508 28.5035ZM13.6188 33.6889C13.4777 33.5341 13.3068 33.4093 13.1164 33.3219C12.926 33.2345 12.72 33.1862 12.5106 33.18C12.3012 33.1739 12.0927 33.2098 11.8975 33.2858C11.7023 33.3619 11.5243 33.4763 11.3743 33.6225C11.2242 33.7687 11.105 33.9435 11.0239 34.1367C10.9427 34.3298 10.9013 34.5373 10.9019 34.7468C10.9026 34.9563 10.9454 35.1635 11.0277 35.3561C11.1101 35.5488 11.2303 35.7228 11.3813 35.8681L13.6188 33.6889ZM5.72925 19.4118C5.72925 13.3597 8.37092 9.62015 11.6376 8.3389C14.898 7.06181 19.4584 7.97432 23.8584 12.6785L26.1418 10.5451C21.1668 5.22432 15.3105 3.54515 10.498 5.42848C5.69175 7.31181 2.60425 12.4826 2.60425 19.4118H5.72925ZM32.3126 41.5826C35.423 39.0597 39.148 35.6785 42.1105 31.9014C45.0417 28.1639 47.3959 23.8201 47.3959 19.4076H44.2709C44.2709 22.766 42.4376 26.416 39.6501 29.9722C36.8917 33.491 33.3668 36.7056 30.3459 39.1556L32.3126 41.5826ZM47.3959 19.4076C47.3959 12.4806 44.3084 7.30973 39.5001 5.42848C34.6876 3.54307 28.8334 5.22015 23.8584 10.5431L26.1418 12.6785C30.5418 7.97432 35.1022 7.05973 38.3626 8.33681C41.6293 9.61598 44.2709 13.3576 44.2709 19.4076H47.3959ZM17.6876 41.5847C20.3334 43.7347 22.1709 45.3118 25.0001 45.3118V42.1868C23.4938 42.1868 22.5563 41.5118 19.6542 39.1576L17.6876 41.5847ZM30.3459 39.1556C27.4438 41.5097 26.5063 42.1868 25.0001 42.1868V45.3118C27.8293 45.3118 29.6688 43.7347 32.3147 41.5847L30.3459 39.1556ZM8.20008 26.8868C6.63967 24.3118 5.72925 21.7806 5.72925 19.4118H2.60425C2.60425 22.5618 3.80425 25.6618 5.52508 28.5035L8.20008 26.8868ZM19.6542 39.1576C17.5388 37.4524 15.5237 35.6265 13.6188 33.6889L11.3813 35.8681C13.3708 37.8935 15.4778 39.8023 17.6876 41.5847L19.6542 39.1576Z" fill="#24B768"/>
</svg>
