<svg width="50" height="50" viewBox="0 0 50 50" fill="none" xmlns="http://www.w3.org/2000/svg">
<path d="M44.9492 11.498C44.8025 11.3225 44.6191 11.1814 44.4119 11.0845C44.2047 10.9876 43.9787 10.9375 43.75 10.9375H12.2422L11.0547 4.4082C10.9893 4.04818 10.7996 3.72253 10.5187 3.48803C10.2378 3.25353 9.8835 3.12505 9.51758 3.125H4.6875C4.2731 3.125 3.87567 3.28962 3.58265 3.58265C3.28962 3.87567 3.125 4.2731 3.125 4.6875C3.125 5.1019 3.28962 5.49933 3.58265 5.79235C3.87567 6.08538 4.2731 6.25 4.6875 6.25H8.20312L13.1953 33.6504C13.3424 34.463 13.7015 35.2223 14.2363 35.8516C13.4981 36.5411 12.9653 37.4215 12.697 38.3953C12.4286 39.3691 12.4353 40.3982 12.7161 41.3685C12.9969 42.3388 13.541 43.2124 14.2879 43.8923C15.0349 44.5723 15.9556 45.0321 16.948 45.2207C17.9403 45.4093 18.9655 45.3194 19.9099 44.961C20.8542 44.6025 21.6809 43.9896 22.2981 43.19C22.9154 42.3904 23.2991 41.4355 23.4068 40.4312C23.5145 39.4268 23.3419 38.4123 22.9082 37.5H31.7793C31.4297 38.2318 31.2489 39.0327 31.25 39.8438C31.25 40.9254 31.5707 41.9827 32.1717 42.882C32.7726 43.7814 33.6267 44.4823 34.626 44.8962C35.6252 45.3101 36.7248 45.4184 37.7856 45.2074C38.8465 44.9964 39.8209 44.4756 40.5857 43.7107C41.3506 42.9459 41.8714 41.9715 42.0824 40.9107C42.2934 39.8498 42.1851 38.7502 41.7712 37.751C41.3573 36.7517 40.6564 35.8976 39.757 35.2967C38.8577 34.6957 37.8004 34.375 36.7188 34.375H17.8066C17.4407 34.3749 17.0864 34.2465 16.8055 34.012C16.5246 33.7775 16.3349 33.4518 16.2695 33.0918L15.6504 29.6875H38.3066C39.4044 29.6873 40.4673 29.3019 41.31 28.5984C42.1527 27.8949 42.7217 26.918 42.918 25.8379L45.293 12.7793C45.3332 12.5536 45.3232 12.3218 45.2638 12.1004C45.2044 11.879 45.097 11.6733 44.9492 11.498ZM20.3125 39.8438C20.3125 40.3073 20.175 40.7604 19.9175 41.1459C19.66 41.5313 19.2939 41.8317 18.8657 42.0091C18.4374 42.1865 17.9661 42.2329 17.5115 42.1425C17.0569 42.052 16.6392 41.8288 16.3115 41.501C15.9837 41.1733 15.7605 40.7556 15.67 40.301C15.5796 39.8464 15.626 39.3751 15.8034 38.9468C15.9808 38.5186 16.2812 38.1525 16.6666 37.895C17.0521 37.6375 17.5052 37.5 17.9688 37.5C18.5904 37.5 19.1865 37.7469 19.626 38.1865C20.0656 38.626 20.3125 39.2222 20.3125 39.8438ZM39.0625 39.8438C39.0625 40.3073 38.925 40.7604 38.6675 41.1459C38.41 41.5313 38.0439 41.8317 37.6157 42.0091C37.1874 42.1865 36.7162 42.2329 36.2615 42.1425C35.8069 42.052 35.3892 41.8288 35.0615 41.501C34.7337 41.1733 34.5105 40.7556 34.42 40.301C34.3296 39.8464 34.376 39.3751 34.5534 38.9468C34.7308 38.5186 35.0312 38.1525 35.4166 37.895C35.8021 37.6375 36.2552 37.5 36.7188 37.5C37.3404 37.5 37.9365 37.7469 38.376 38.1865C38.8156 38.626 39.0625 39.2222 39.0625 39.8438ZM39.8438 25.2793C39.7782 25.6403 39.5876 25.9667 39.3055 26.2014C39.0234 26.436 38.6677 26.5638 38.3008 26.5625H15.082L12.8105 14.0625H41.877L39.8438 25.2793Z" fill="#24B768"/>
</svg>
