<svg width="50" height="50" viewBox="0 0 50 50" fill="none" xmlns="http://www.w3.org/2000/svg">
<path d="M14.9632 35.4127L14.8216 35.1502L14.5593 35.0082L9.36604 32.1955L9.4904 32.0714L14.6442 32.8451L15.1423 32.9198L15.4989 32.5641L25.5829 22.5038L26.5346 21.5544L25.3516 20.9159L8.64178 11.8975L9.12583 11.4016L30.5577 16.8261L31.1086 16.9656L31.5103 16.5637L38.6605 9.41095C38.6606 9.41089 38.6606 9.41084 38.6607 9.41078C38.9491 9.12314 39.2547 9 39.626 9C39.9973 9 40.3015 9.12305 40.5878 9.40972C40.8703 9.69247 40.999 10.0037 41 10.3975C41.001 10.7873 40.8741 11.0943 40.5915 11.3743L40.5915 11.3743L40.5846 11.3812L33.4894 18.5495L33.0922 18.9507L33.2306 19.4981L38.6285 40.8473L38.1533 41.3335L29.0812 24.6869L28.4423 23.5146L27.4969 24.4574L17.5053 34.4232L17.1515 34.776L17.2213 35.2708L17.9534 40.4637L17.7811 40.6359L14.9632 35.4127Z" stroke="#24B768" stroke-width="2"/>
</svg>
