<svg width="44" height="48" viewBox="0 0 44 48" fill="none" xmlns="http://www.w3.org/2000/svg">
<path d="M19.7627 43.6698H5.86646C4.63796 43.6698 3.45977 43.1817 2.59108 42.3131C1.7224 41.4444 1.23438 40.2662 1.23438 39.0377V11.2451C1.23438 10.0166 1.7224 8.83844 2.59108 7.96975C3.45977 7.10107 4.63796 6.61305 5.86646 6.61305H33.659C34.8875 6.61305 36.0657 7.10107 36.9344 7.96975C37.8031 8.83844 38.2911 10.0166 38.2911 11.2451V22.8254M29.0269 1.98096V11.2451M10.4986 1.98096V11.2451M1.23438 20.5093H38.2911M35.9774 43.6698C34.7489 43.6698 33.5707 43.1817 32.702 42.3131C31.8333 41.4444 31.3453 40.2662 31.3453 39.0377C31.3453 37.8092 31.8333 36.631 32.702 35.7623C33.5707 34.8936 34.7489 34.4056 35.9774 34.4056M35.9774 43.6698C37.2059 43.6698 38.3841 43.1817 39.2527 42.3131C40.1214 41.4444 40.6094 40.2662 40.6094 39.0377C40.6094 37.8092 40.1214 36.631 39.2527 35.7623C38.3841 34.8936 37.2059 34.4056 35.9774 34.4056M35.9774 43.6698V47.1438M35.9774 34.4056V30.9315M42.9973 34.9846L39.9887 36.7216M31.9683 41.3537L28.9574 43.0907M28.9574 34.9846L31.9683 36.7216M39.9887 41.3537L42.9996 43.0907" stroke="#248EC8" stroke-width="2" stroke-linecap="round" stroke-linejoin="round"/>
</svg>
