<svg height="250" viewBox="0 0 1920 250" width="1920" xmlns="http://www.w3.org/2000/svg" xmlns:xlink="http://www.w3.org/1999/xlink"><clipPath id="a"><path d="m0 3617h1920v250h-1920z"/></clipPath><g clip-path="url(#a)" fill="none" stroke="#4d648c" transform="translate(0 -3617)"><path d="m1376.89 843.79a1148.109 1148.109 0 0 0 -370.06-843.79l-337.544 313.946a692.692 692.692 0 0 1 -445.861 1224.287 653.42 653.42 0 0 1 -117.207-11.807l-4.331 14.293-101.887 430.775a1105.3 1105.3 0 0 0 223.45 25.748c637.023 0 1153.45-516.423 1153.44-1153.452z" transform="matrix(.32556815 -.94551858 .94551858 .32556815 869.107 4903.657)"/><path d="m1907.077 1168.7a1590.2 1590.2 0 0 0 -512.556-1168.7l-467.521 434.834c310.168 259.119 424.695 684.824 286.394 1064.6s-499.769 632.15-903.938 631.118a905.033 905.033 0 0 1 -162.339-16.353l-6 19.8-141.117 596.641a1530.9 1530.9 0 0 0 309.493 35.66c882.315 0 1597.593-715.276 1597.584-1597.6z" transform="matrix(.208 -.978 .978 .208 49.86 5403.724)"/></g></svg>