<svg width="47" height="48" viewBox="0 0 47 48" fill="none" xmlns="http://www.w3.org/2000/svg">
<g clip-path="url(#clip0_643_106)">
<path fill-rule="evenodd" clip-rule="evenodd" d="M32.5531 27.1832C34.8841 27.1832 36.7924 25.2394 36.7924 22.865V4.36166C36.7924 2.17648 35.6867 0 33.3877 0C29.8528 0.121761 23.0562 5.68146 23.0562 9.30168H28.3137V22.8628C28.3137 25.2372 30.2221 27.181 32.5531 27.181V27.1832Z" fill="#248EC8"/>
<path fill-rule="evenodd" clip-rule="evenodd" d="M20.313 32.745C20.313 35.1193 22.2213 37.0632 24.5523 37.0632H42.7179C44.8632 37.0632 47.0021 35.9369 47 33.593C46.8804 29.9923 41.4222 23.0693 37.8681 23.0693V28.4247H24.5523C22.2192 28.4247 20.313 30.3685 20.313 32.745Z" fill="#31B76A"/>
<path fill-rule="evenodd" clip-rule="evenodd" d="M26.687 15.1288C26.687 12.7523 24.7786 10.8107 22.4476 10.8107H4.28204C2.13675 10.8107 0 11.9348 0 14.2787C0.121673 17.8793 5.57775 24.8023 9.13189 24.8023V19.447H22.4476C24.7808 19.447 26.687 17.5032 26.687 15.1288Z" fill="#E35245"/>
<path fill-rule="evenodd" clip-rule="evenodd" d="M14.7267 20.819C12.3935 20.819 10.4873 22.7628 10.4873 25.1371V43.6405C10.4873 45.8257 11.593 48.0043 13.892 48.0022C17.4269 47.8804 24.2236 42.3207 24.2236 38.7005H18.966V25.1393C18.966 22.765 17.0577 20.8211 14.7267 20.8211V20.819Z" fill="#FDB444"/>
</g>
<defs>
<clipPath id="clip0_643_106">
<rect width="47" height="48" fill="white"/>
</clipPath>
</defs>
</svg>
