<svg xmlns="http://www.w3.org/2000/svg" xmlns:xlink="http://www.w3.org/1999/xlink" width="50" zoomAndPan="magnify" viewBox="0 0 37.5 37.499999" height="50" preserveAspectRatio="xMidYMid meet" version="1.0"><defs><clipPath id="55b6d0d66e"><path d="M 0.960938 24 L 10 24 L 10 36.265625 L 0.960938 36.265625 Z M 0.960938 24 " clip-rule="nonzero"/></clipPath><clipPath id="e7da4f8162"><path d="M 27 26 L 37 26 L 37 36.265625 L 27 36.265625 Z M 27 26 " clip-rule="nonzero"/></clipPath></defs><g clip-path="url(#55b6d0d66e)"><path fill="#00bf63" d="M 7.9375 24.992188 L 3.527344 24.992188 C 3.222656 24.992188 2.921875 25.117188 2.707031 25.332031 L 1.304688 26.734375 C 1.082031 26.957031 0.960938 27.246094 0.960938 27.558594 L 0.960938 34.871094 C 0.960938 35.515625 1.484375 36.035156 2.125 36.035156 L 7.9375 36.035156 C 8.578125 36.035156 9.097656 35.515625 9.097656 34.871094 L 9.097656 26.15625 C 9.097656 25.511719 8.578125 24.992188 7.9375 24.992188 Z M 3.285156 26.394531 L 3.285156 27.316406 L 2.363281 27.316406 Z M 7.9375 34.871094 L 2.125 34.871094 L 2.125 28.480469 L 3.285156 28.480469 C 3.929688 28.480469 4.449219 27.957031 4.449219 27.316406 L 4.449219 26.15625 L 7.9375 26.15625 Z M 7.9375 34.871094 " fill-opacity="1" fill-rule="nonzero"/></g><path fill="#00bf63" d="M 3.285156 29.640625 L 6.773438 29.640625 L 6.773438 30.804688 L 3.285156 30.804688 Z M 3.285156 29.640625 " fill-opacity="1" fill-rule="nonzero"/><path fill="#00bf63" d="M 3.285156 31.964844 L 6.773438 31.964844 L 6.773438 33.128906 L 3.285156 33.128906 Z M 3.285156 31.964844 " fill-opacity="1" fill-rule="nonzero"/><path fill="#00bf63" d="M 5.613281 27.316406 L 6.773438 27.316406 L 6.773438 28.480469 L 5.613281 28.480469 Z M 5.613281 27.316406 " fill-opacity="1" fill-rule="nonzero"/><g clip-path="url(#e7da4f8162)"><path fill="#00bf63" d="M 35.835938 26.734375 L 28.859375 26.734375 C 28.21875 26.734375 27.699219 27.257812 27.699219 27.898438 L 27.699219 34.871094 C 27.699219 35.515625 28.21875 36.035156 28.859375 36.035156 L 35.835938 36.035156 C 36.476562 36.035156 36.996094 35.515625 36.996094 34.871094 L 36.996094 27.898438 C 36.996094 27.257812 36.476562 26.734375 35.835938 26.734375 Z M 32.929688 34.871094 L 32.929688 31.386719 L 31.765625 31.386719 L 31.765625 34.871094 L 28.859375 34.871094 L 28.859375 27.898438 L 31.765625 27.898438 L 31.765625 30.222656 L 32.929688 30.222656 L 32.929688 27.898438 L 35.835938 27.898438 L 35.835938 34.871094 Z M 32.929688 34.871094 " fill-opacity="1" fill-rule="nonzero"/></g><path fill="#00bf63" d="M 24.382812 30.632812 L 25.132812 31.386719 L 21.183594 31.386719 C 26.375 29.167969 30.023438 24.011719 30.023438 18.015625 C 30.023438 16.164062 29.640625 14.394531 28.957031 12.785156 L 32.347656 12.785156 C 32.988281 12.785156 33.511719 12.265625 33.511719 11.625 L 33.511719 4.648438 C 33.511719 4.007812 32.988281 3.488281 32.347656 3.488281 L 31.183594 3.488281 C 30.542969 3.488281 30.023438 4.007812 30.023438 4.648438 L 30.023438 11.625 L 28.859375 11.625 L 28.859375 6.953125 C 28.859375 6.3125 28.339844 5.792969 27.699219 5.792969 L 26.535156 5.792969 C 25.894531 5.792969 25.375 6.3125 25.375 6.953125 L 25.375 7.894531 C 24.4375 7.089844 23.394531 6.410156 22.261719 5.886719 C 23.214844 3.082031 25.859375 1.164062 28.859375 1.164062 C 32.707031 1.164062 35.835938 4.292969 35.835938 8.136719 C 35.835938 10.765625 34.347656 13.148438 32.058594 14.332031 L 32.316406 13.550781 L 31.214844 13.183594 L 30.492188 15.347656 L 32.605469 16.757812 L 33.25 15.789062 L 32.601562 15.359375 C 35.269531 13.976562 36.996094 11.199219 36.996094 8.136719 C 36.996094 3.648438 33.347656 0 28.859375 0 C 25.386719 0 22.316406 2.207031 21.183594 5.441406 C 19.769531 4.929688 18.242188 4.648438 16.65625 4.648438 C 9.285156 4.648438 3.285156 10.648438 3.285156 18.015625 L 3.285156 21.265625 L 2.535156 20.511719 L 1.714844 21.335938 L 3.867188 23.488281 L 6.023438 21.335938 L 5.199219 20.511719 L 4.449219 21.265625 L 4.449219 18.015625 C 4.449219 11.289062 9.925781 5.8125 16.65625 5.8125 C 23.382812 5.8125 28.859375 11.289062 28.859375 18.015625 C 28.859375 25.386719 22.863281 31.386719 15.492188 31.386719 L 10.261719 31.386719 L 10.261719 32.546875 L 25.132812 32.546875 L 24.382812 33.300781 L 25.203125 34.121094 L 27.355469 31.964844 L 25.203125 29.8125 Z M 31.183594 4.648438 L 32.347656 4.648438 L 32.347656 11.625 L 31.183594 11.625 Z M 27.699219 6.953125 L 27.699219 10.496094 C 27.34375 9.976562 26.957031 9.484375 26.535156 9.023438 L 26.535156 6.953125 Z M 27.699219 6.953125 " fill-opacity="1" fill-rule="nonzero"/><path fill="#00bf63" d="M 16.65625 23.25 C 19.539062 23.25 21.886719 20.902344 21.886719 18.015625 C 21.886719 15.132812 19.539062 12.785156 16.65625 12.785156 C 13.769531 12.785156 11.425781 15.132812 11.425781 18.015625 C 11.425781 20.902344 13.769531 23.25 16.65625 23.25 Z M 16.65625 13.949219 C 18.898438 13.949219 20.722656 15.773438 20.722656 18.015625 C 20.722656 20.261719 18.898438 22.085938 16.65625 22.085938 C 14.410156 22.085938 12.585938 20.261719 12.585938 18.015625 C 12.585938 15.773438 14.410156 13.949219 16.65625 13.949219 Z M 16.65625 13.949219 " fill-opacity="1" fill-rule="nonzero"/><path fill="#00bf63" d="M 16.65625 20.921875 C 18.257812 20.921875 19.5625 19.621094 19.5625 18.015625 C 19.5625 16.414062 18.257812 15.113281 16.65625 15.113281 C 15.050781 15.113281 13.75 16.414062 13.75 18.015625 C 13.75 19.621094 15.050781 20.921875 16.65625 20.921875 Z M 16.65625 16.273438 C 17.617188 16.273438 18.398438 17.054688 18.398438 18.015625 C 18.398438 18.980469 17.617188 19.761719 16.65625 19.761719 C 15.695312 19.761719 14.910156 18.980469 14.910156 18.015625 C 14.910156 17.054688 15.695312 16.273438 16.65625 16.273438 Z M 16.65625 16.273438 " fill-opacity="1" fill-rule="nonzero"/><path fill="#00bf63" d="M 9.640625 15.691406 L 7.9375 15.691406 L 7.9375 20.34375 L 9.640625 20.34375 C 10 20.34375 10.140625 20.617188 10.175781 20.703125 C 10.210938 20.785156 10.304688 21.078125 10.050781 21.335938 L 8.847656 22.539062 L 12.132812 25.824219 L 13.339844 24.621094 C 13.59375 24.367188 13.886719 24.460938 13.972656 24.496094 C 14.054688 24.53125 14.328125 24.671875 14.328125 25.035156 L 14.328125 26.734375 L 18.980469 26.734375 L 18.980469 25.035156 C 18.980469 24.671875 19.253906 24.53125 19.339844 24.496094 C 19.421875 24.460938 19.71875 24.367188 19.972656 24.621094 L 21.175781 25.824219 L 24.464844 22.539062 L 23.261719 21.332031 C 23.003906 21.078125 23.097656 20.785156 23.132812 20.699219 C 23.167969 20.617188 23.308594 20.34375 23.671875 20.34375 L 25.375 20.34375 L 25.375 15.691406 L 23.671875 15.691406 C 23.308594 15.691406 23.167969 15.417969 23.132812 15.332031 C 23.097656 15.25 23.003906 14.957031 23.261719 14.699219 L 24.464844 13.496094 L 21.175781 10.210938 L 19.972656 11.414062 C 19.71875 11.667969 19.421875 11.574219 19.339844 11.539062 C 19.253906 11.503906 18.980469 11.363281 18.980469 11 L 18.980469 9.300781 L 14.328125 9.300781 L 14.328125 11 C 14.328125 11.363281 14.054688 11.503906 13.972656 11.539062 C 13.886719 11.574219 13.59375 11.667969 13.339844 11.414062 L 12.132812 10.210938 L 8.847656 13.496094 L 10.050781 14.703125 C 10.304688 14.957031 10.210938 15.25 10.175781 15.335938 C 10.140625 15.417969 10 15.691406 9.640625 15.691406 Z M 10.871094 13.878906 L 10.492188 13.496094 L 12.132812 11.851562 L 12.515625 12.234375 C 13.023438 12.742188 13.753906 12.886719 14.417969 12.613281 C 15.078125 12.339844 15.492188 11.722656 15.492188 11 L 15.492188 10.460938 L 17.816406 10.460938 L 17.816406 11 C 17.816406 11.71875 18.230469 12.335938 18.894531 12.613281 C 19.558594 12.886719 20.285156 12.742188 20.792969 12.234375 L 21.175781 11.851562 L 22.820312 13.496094 L 22.4375 13.878906 C 21.929688 14.386719 21.785156 15.113281 22.058594 15.777344 C 22.335938 16.441406 22.953125 16.855469 23.671875 16.855469 L 24.210938 16.855469 L 24.210938 19.179688 L 23.671875 19.179688 C 22.953125 19.179688 22.335938 19.59375 22.058594 20.257812 C 21.785156 20.921875 21.929688 21.648438 22.4375 22.15625 L 22.820312 22.539062 L 21.175781 24.183594 L 20.792969 23.800781 C 20.285156 23.292969 19.558594 23.148438 18.894531 23.421875 C 18.230469 23.695312 17.816406 24.3125 17.816406 25.035156 L 17.816406 25.574219 L 15.492188 25.574219 L 15.492188 25.035156 C 15.492188 24.316406 15.078125 23.699219 14.417969 23.421875 C 13.75 23.148438 13.023438 23.292969 12.515625 23.800781 L 12.132812 24.183594 L 10.488281 22.539062 L 10.871094 22.15625 C 11.378906 21.648438 11.523438 20.921875 11.25 20.257812 C 10.976562 19.59375 10.359375 19.179688 9.640625 19.179688 L 9.097656 19.179688 L 9.097656 16.855469 L 9.640625 16.855469 C 10.359375 16.855469 10.976562 16.441406 11.25 15.777344 C 11.523438 15.113281 11.378906 14.386719 10.871094 13.878906 Z M 10.871094 13.878906 " fill-opacity="1" fill-rule="nonzero"/><path fill="#00bf63" d="M 3.285156 3.488281 L 4.449219 3.488281 C 5.089844 3.488281 5.613281 2.964844 5.613281 2.324219 L 5.613281 1.164062 C 5.613281 0.519531 5.089844 0 4.449219 0 L 3.285156 0 C 2.644531 0 2.125 0.519531 2.125 1.164062 L 2.125 2.324219 C 2.125 2.964844 2.644531 3.488281 3.285156 3.488281 Z M 3.285156 1.164062 L 4.449219 1.164062 L 4.449219 2.324219 L 3.285156 2.324219 Z M 3.285156 1.164062 " fill-opacity="1" fill-rule="nonzero"/><path fill="#00bf63" d="M 7.9375 3.488281 L 9.097656 3.488281 C 9.738281 3.488281 10.261719 2.964844 10.261719 2.324219 L 10.261719 1.164062 C 10.261719 0.519531 9.738281 0 9.097656 0 L 7.9375 0 C 7.296875 0 6.773438 0.519531 6.773438 1.164062 L 6.773438 2.324219 C 6.773438 2.964844 7.296875 3.488281 7.9375 3.488281 Z M 7.9375 1.164062 L 9.097656 1.164062 L 9.101562 2.324219 L 7.9375 2.324219 Z M 7.9375 1.164062 " fill-opacity="1" fill-rule="nonzero"/><path fill="#00bf63" d="M 12.585938 3.488281 L 13.75 3.488281 C 14.390625 3.488281 14.910156 2.964844 14.910156 2.324219 L 14.910156 1.164062 C 14.910156 0.519531 14.390625 0 13.75 0 L 12.585938 0 C 11.945312 0 11.425781 0.519531 11.425781 1.164062 L 11.425781 2.324219 C 11.425781 2.964844 11.945312 3.488281 12.585938 3.488281 Z M 12.585938 1.164062 L 13.75 1.164062 L 13.75 2.324219 L 12.585938 2.324219 Z M 12.585938 1.164062 " fill-opacity="1" fill-rule="nonzero"/></svg>