<svg xmlns="http://www.w3.org/2000/svg" xmlns:xlink="http://www.w3.org/1999/xlink" width="50" zoomAndPan="magnify" viewBox="0 0 37.5 37.499999" height="50" preserveAspectRatio="xMidYMid meet" version="1.0"><defs><clipPath id="a10cb47335"><path d="M 3 27 L 33 27 L 33 31.449219 L 3 31.449219 Z M 3 27 " clip-rule="nonzero"/></clipPath><clipPath id="424de0d2a3"><path d="M 0.777344 9.246094 L 36.304688 9.246094 L 36.304688 27 L 0.777344 27 Z M 0.777344 9.246094 " clip-rule="nonzero"/></clipPath></defs><path fill="#ffbd59" d="M 15.515625 15.597656 L 13.941406 20.15625 L 14.539062 20.15625 L 15.027344 18.691406 L 16.65625 18.691406 L 17.144531 20.15625 L 17.796875 20.15625 L 16.222656 15.597656 Z M 15.191406 18.257812 L 15.625 16.953125 C 15.734375 16.683594 15.789062 16.410156 15.839844 16.140625 C 15.894531 16.410156 16.003906 16.683594 16.058594 16.953125 L 16.492188 18.257812 Z M 15.191406 18.257812 " fill-opacity="1" fill-rule="nonzero"/><path fill="#ffbd59" d="M 19.640625 15.542969 C 19.152344 15.542969 18.773438 15.597656 18.5 15.652344 L 18.5 20.15625 L 19.097656 20.15625 L 19.097656 18.3125 C 19.261719 18.367188 19.425781 18.367188 19.585938 18.367188 C 20.183594 18.367188 20.671875 18.203125 21 17.878906 C 21.214844 17.660156 21.378906 17.335938 21.378906 16.902344 C 21.378906 16.464844 21.214844 16.140625 21 15.921875 C 20.617188 15.707031 20.183594 15.542969 19.640625 15.542969 Z M 19.585938 17.878906 C 19.371094 17.878906 19.207031 17.878906 19.097656 17.824219 L 19.097656 16.03125 C 19.207031 16.03125 19.425781 15.976562 19.640625 15.976562 C 20.292969 15.976562 20.726562 16.25 20.726562 16.902344 C 20.726562 17.550781 20.292969 17.878906 19.585938 17.878906 Z M 19.585938 17.878906 " fill-opacity="1" fill-rule="nonzero"/><path fill="#ffbd59" d="M 22.085938 15.597656 L 22.683594 15.597656 L 22.683594 20.15625 L 22.085938 20.15625 Z M 22.085938 15.597656 " fill-opacity="1" fill-rule="nonzero"/><g clip-path="url(#a10cb47335)"><path fill="#ffbd59" d="M 32.5625 27.648438 L 4.117188 27.648438 C 3.898438 27.648438 3.679688 27.8125 3.679688 28.082031 C 3.679688 30.039062 5.253906 31.613281 7.210938 31.613281 L 29.359375 31.613281 C 31.3125 31.613281 32.886719 30.039062 32.886719 28.082031 C 32.941406 27.8125 32.777344 27.648438 32.5625 27.648438 Z M 29.414062 30.796875 L 7.265625 30.796875 C 5.90625 30.796875 4.765625 29.765625 4.550781 28.464844 L 32.128906 28.464844 C 31.910156 29.765625 30.769531 30.796875 29.414062 30.796875 Z M 29.414062 30.796875 " fill-opacity="1" fill-rule="nonzero"/></g><g clip-path="url(#424de0d2a3)"><path fill="#ffbd59" d="M 30.988281 18.527344 L 32.617188 18.527344 C 32.777344 19.289062 33.484375 19.832031 34.300781 19.832031 C 35.222656 19.832031 36.035156 19.070312 36.035156 18.09375 C 36.035156 17.171875 35.277344 16.359375 34.300781 16.359375 C 33.484375 16.359375 32.832031 16.902344 32.617188 17.660156 L 30.988281 17.660156 L 30.988281 13.914062 L 32.617188 13.914062 C 32.777344 14.675781 33.484375 15.21875 34.300781 15.21875 C 35.222656 15.21875 36.035156 14.457031 36.035156 13.480469 C 36.035156 12.558594 35.277344 11.742188 34.300781 11.742188 C 33.484375 11.742188 32.832031 12.285156 32.617188 13.046875 L 30.988281 13.046875 L 30.988281 9.679688 C 30.988281 9.464844 30.824219 9.246094 30.554688 9.246094 L 6.070312 9.246094 C 5.851562 9.246094 5.636719 9.410156 5.636719 9.679688 L 5.636719 13.046875 L 4.332031 13.046875 C 4.171875 12.394531 3.464844 11.796875 2.703125 11.796875 C 1.78125 11.796875 0.96875 12.558594 0.96875 13.535156 C 0.96875 14.457031 1.726562 15.273438 2.703125 15.273438 C 3.519531 15.273438 4.171875 14.730469 4.386719 13.96875 L 5.691406 13.96875 L 5.691406 17.714844 L 4.332031 17.714844 C 4.171875 16.953125 3.464844 16.410156 2.648438 16.410156 C 1.726562 16.410156 0.914062 17.171875 0.914062 18.148438 C 0.914062 19.070312 1.671875 19.886719 2.648438 19.886719 C 3.464844 19.886719 4.117188 19.34375 4.332031 18.582031 L 5.636719 18.582031 L 5.636719 22.328125 L 4.332031 22.328125 C 4.171875 21.570312 3.464844 21.027344 2.648438 21.027344 C 1.726562 21.027344 0.914062 21.785156 0.914062 22.761719 C 0.914062 23.6875 1.671875 24.5 2.648438 24.5 C 3.464844 24.5 4.117188 23.957031 4.332031 23.199219 L 5.636719 23.199219 L 5.636719 26.5625 C 5.636719 26.78125 5.796875 26.996094 6.070312 26.996094 L 30.609375 26.996094 C 30.824219 26.996094 31.042969 26.835938 31.042969 26.5625 L 31.042969 23.199219 L 32.671875 23.199219 C 32.832031 23.957031 33.539062 24.5 34.351562 24.5 C 35.277344 24.5 36.089844 23.742188 36.089844 22.761719 C 36.089844 21.839844 35.332031 21.027344 34.351562 21.027344 C 33.539062 21.027344 32.886719 21.570312 32.671875 22.328125 L 31.042969 22.328125 L 31.042969 18.527344 Z M 34.300781 17.171875 C 34.789062 17.171875 35.222656 17.550781 35.222656 18.09375 C 35.222656 18.582031 34.839844 19.019531 34.300781 19.019531 C 33.808594 19.019531 33.375 18.636719 33.375 18.09375 C 33.429688 17.605469 33.808594 17.171875 34.300781 17.171875 Z M 34.300781 12.613281 C 34.789062 12.613281 35.222656 12.992188 35.222656 13.535156 C 35.222656 14.023438 34.839844 14.457031 34.300781 14.457031 C 33.808594 14.457031 33.375 14.078125 33.375 13.535156 C 33.429688 13.046875 33.808594 12.613281 34.300781 12.613281 Z M 2.703125 14.457031 C 2.214844 14.457031 1.78125 14.078125 1.78125 13.535156 C 1.78125 13.046875 2.160156 12.613281 2.703125 12.613281 C 3.246094 12.613281 3.628906 12.992188 3.628906 13.535156 C 3.574219 14.023438 3.191406 14.457031 2.703125 14.457031 Z M 2.703125 19.019531 C 2.214844 19.019531 1.78125 18.636719 1.78125 18.09375 C 1.78125 17.605469 2.160156 17.171875 2.703125 17.171875 C 3.246094 17.171875 3.628906 17.550781 3.628906 18.09375 C 3.574219 18.582031 3.191406 19.019531 2.703125 19.019531 Z M 2.703125 23.578125 C 2.214844 23.578125 1.78125 23.199219 1.78125 22.65625 C 1.78125 22.167969 2.160156 21.730469 2.703125 21.730469 C 3.246094 21.730469 3.628906 22.113281 3.628906 22.65625 C 3.574219 23.144531 3.191406 23.578125 2.703125 23.578125 Z M 34.300781 21.730469 C 34.789062 21.730469 35.222656 22.113281 35.222656 22.65625 C 35.222656 23.144531 34.839844 23.578125 34.300781 23.578125 C 33.808594 23.578125 33.375 23.199219 33.375 22.65625 C 33.429688 22.167969 33.808594 21.730469 34.300781 21.730469 Z M 30.171875 22.273438 L 29.574219 22.273438 L 29.359375 22.058594 L 29.359375 18.476562 L 30.171875 18.476562 Z M 24.039062 21.082031 L 26.589844 21.082031 L 28.542969 22.492188 L 28.542969 24.390625 L 8.132812 24.390625 L 8.132812 22.492188 L 10.085938 21.082031 L 12.640625 21.082031 C 12.855469 21.082031 13.074219 20.917969 13.074219 20.644531 C 13.074219 20.375 12.910156 20.210938 12.640625 20.210938 L 9.925781 20.210938 C 9.816406 20.210938 9.761719 20.210938 9.707031 20.265625 L 8.078125 21.40625 L 8.078125 18.421875 L 12.691406 18.421875 C 12.910156 18.421875 13.128906 18.257812 13.128906 17.984375 C 13.128906 17.769531 12.964844 17.550781 12.691406 17.550781 L 8.078125 17.550781 L 8.078125 14.566406 L 9.707031 15.707031 C 9.761719 15.761719 9.871094 15.761719 9.925781 15.761719 L 12.640625 15.761719 C 12.855469 15.761719 13.074219 15.597656 13.074219 15.324219 C 13.074219 15.109375 12.910156 14.890625 12.640625 14.890625 L 10.085938 14.890625 L 8.132812 13.480469 L 8.132812 11.796875 L 28.597656 11.796875 L 28.597656 13.699219 L 26.644531 15.109375 L 24.09375 15.109375 C 23.875 15.109375 23.660156 15.273438 23.660156 15.542969 C 23.660156 15.761719 23.820312 15.976562 24.09375 15.976562 L 26.808594 15.976562 C 26.914062 15.976562 26.96875 15.976562 27.023438 15.921875 L 28.652344 14.785156 L 28.652344 17.769531 L 23.929688 17.769531 C 23.714844 17.769531 23.496094 17.933594 23.496094 18.203125 C 23.496094 18.421875 23.660156 18.636719 23.929688 18.636719 L 28.542969 18.636719 L 28.542969 21.625 L 26.914062 20.484375 C 26.863281 20.429688 26.753906 20.429688 26.699219 20.429688 L 23.984375 20.429688 C 23.765625 20.429688 23.550781 20.59375 23.550781 20.863281 C 23.550781 21.132812 23.765625 21.082031 24.039062 21.082031 Z M 30.171875 17.714844 L 29.359375 17.714844 L 29.359375 14.132812 L 29.628906 13.96875 L 30.226562 13.96875 L 30.226562 17.714844 Z M 6.449219 10.167969 L 30.171875 10.167969 L 30.171875 13.101562 L 29.46875 13.101562 C 29.414062 13.101562 29.414062 13.101562 29.359375 13.101562 L 29.359375 11.363281 C 29.359375 11.144531 29.195312 10.984375 28.925781 10.984375 L 7.699219 10.984375 C 7.480469 10.984375 7.265625 11.144531 7.265625 11.363281 L 7.265625 13.101562 C 7.210938 13.101562 7.210938 13.101562 7.15625 13.101562 L 6.449219 13.101562 Z M 6.449219 13.914062 L 7.046875 13.914062 L 7.265625 14.078125 L 7.265625 17.660156 L 6.449219 17.660156 Z M 6.449219 18.527344 L 7.265625 18.527344 L 7.265625 22.113281 L 7.046875 22.273438 L 6.449219 22.273438 Z M 30.171875 26.019531 L 6.449219 26.019531 L 6.449219 23.089844 L 7.15625 23.089844 C 7.210938 23.089844 7.210938 23.089844 7.265625 23.089844 L 7.265625 24.828125 C 7.265625 25.042969 7.425781 25.261719 7.699219 25.261719 L 28.980469 25.261719 C 29.195312 25.261719 29.414062 25.097656 29.414062 24.828125 L 29.414062 23.089844 C 29.46875 23.089844 29.46875 23.089844 29.523438 23.089844 L 30.226562 23.089844 L 30.226562 26.019531 Z M 30.171875 26.019531 " fill-opacity="1" fill-rule="nonzero"/></g></svg>