<svg xmlns="http://www.w3.org/2000/svg" xmlns:xlink="http://www.w3.org/1999/xlink" width="50" zoomAndPan="magnify" viewBox="0 0 37.5 37.499999" height="50" preserveAspectRatio="xMidYMid meet" version="1.0"><defs><clipPath id="c64b40609d"><path d="M 25 14 L 35.359375 14 L 35.359375 30.519531 L 25 30.519531 Z M 25 14 " clip-rule="nonzero"/></clipPath><clipPath id="bd5e383751"><path d="M 1.3125 6.835938 L 29 6.835938 L 29 30.519531 L 1.3125 30.519531 Z M 1.3125 6.835938 " clip-rule="nonzero"/></clipPath></defs><path fill="#00bf63" d="M 12.976562 13.589844 L 16.042969 13.589844 C 16.214844 13.589844 16.359375 13.527344 16.476562 13.410156 C 16.597656 13.289062 16.65625 13.144531 16.65625 12.976562 C 16.65625 12.804688 16.597656 12.660156 16.476562 12.542969 C 16.359375 12.421875 16.214844 12.363281 16.042969 12.363281 L 12.976562 12.363281 C 12.804688 12.363281 12.660156 12.421875 12.542969 12.542969 C 12.421875 12.660156 12.363281 12.804688 12.363281 12.976562 C 12.363281 13.144531 12.421875 13.289062 12.542969 13.410156 C 12.660156 13.527344 12.804688 13.589844 12.976562 13.589844 Z M 12.976562 13.589844 " fill-opacity="1" fill-rule="nonzero"/><path fill="#00bf63" d="M 19.113281 12.363281 L 18.5 12.363281 C 18.328125 12.363281 18.183594 12.421875 18.066406 12.542969 C 17.945312 12.660156 17.886719 12.804688 17.886719 12.976562 C 17.886719 13.144531 17.945312 13.289062 18.066406 13.410156 C 18.183594 13.527344 18.328125 13.589844 18.5 13.589844 L 19.113281 13.589844 C 19.28125 13.589844 19.425781 13.527344 19.546875 13.410156 C 19.667969 13.289062 19.726562 13.144531 19.726562 12.976562 C 19.726562 12.804688 19.667969 12.660156 19.546875 12.542969 C 19.425781 12.421875 19.28125 12.363281 19.113281 12.363281 Z M 19.113281 12.363281 " fill-opacity="1" fill-rule="nonzero"/><path fill="#00bf63" d="M 12.976562 16.042969 L 13.589844 16.042969 C 13.757812 16.042969 13.902344 15.984375 14.023438 15.863281 C 14.144531 15.746094 14.203125 15.597656 14.203125 15.429688 C 14.203125 15.261719 14.144531 15.117188 14.023438 14.996094 C 13.902344 14.875 13.757812 14.816406 13.589844 14.816406 L 12.976562 14.816406 C 12.804688 14.816406 12.660156 14.875 12.542969 14.996094 C 12.421875 15.117188 12.363281 15.261719 12.363281 15.429688 C 12.363281 15.597656 12.421875 15.746094 12.542969 15.863281 C 12.660156 15.984375 12.804688 16.042969 12.976562 16.042969 Z M 12.976562 16.042969 " fill-opacity="1" fill-rule="nonzero"/><path fill="#00bf63" d="M 19.113281 14.816406 L 16.042969 14.816406 C 15.875 14.816406 15.730469 14.875 15.609375 14.996094 C 15.488281 15.117188 15.429688 15.261719 15.429688 15.429688 C 15.429688 15.597656 15.488281 15.746094 15.609375 15.863281 C 15.730469 15.984375 15.875 16.042969 16.042969 16.042969 L 19.113281 16.042969 C 19.28125 16.042969 19.425781 15.984375 19.546875 15.863281 C 19.667969 15.746094 19.726562 15.597656 19.726562 15.429688 C 19.726562 15.261719 19.667969 15.117188 19.546875 14.996094 C 19.425781 14.875 19.28125 14.816406 19.113281 14.816406 Z M 19.113281 14.816406 " fill-opacity="1" fill-rule="nonzero"/><path fill="#00bf63" d="M 12.976562 18.5 L 19.113281 18.5 C 19.28125 18.5 19.425781 18.4375 19.546875 18.320312 C 19.667969 18.199219 19.726562 18.054688 19.726562 17.886719 C 19.726562 17.714844 19.667969 17.570312 19.546875 17.449219 C 19.425781 17.332031 19.28125 17.269531 19.113281 17.269531 L 12.976562 17.269531 C 12.804688 17.269531 12.660156 17.332031 12.542969 17.449219 C 12.421875 17.570312 12.363281 17.714844 12.363281 17.886719 C 12.363281 18.054688 12.421875 18.199219 12.542969 18.320312 C 12.660156 18.4375 12.804688 18.5 12.976562 18.5 Z M 12.976562 18.5 " fill-opacity="1" fill-rule="nonzero"/><path fill="#00bf63" d="M 21.566406 17.269531 L 21.566406 18.5 C 21.566406 18.667969 21.507812 18.8125 21.386719 18.933594 C 21.269531 19.050781 21.125 19.113281 20.953125 19.113281 C 20.785156 19.113281 20.640625 19.171875 20.519531 19.292969 C 20.398438 19.414062 20.339844 19.558594 20.339844 19.726562 C 20.339844 19.894531 20.398438 20.039062 20.519531 20.160156 C 20.640625 20.28125 20.785156 20.339844 20.953125 20.339844 C 21.199219 20.339844 21.433594 20.292969 21.660156 20.199219 C 21.882812 20.105469 22.082031 19.972656 22.253906 19.800781 C 22.429688 19.628906 22.5625 19.429688 22.65625 19.203125 C 22.75 18.976562 22.796875 18.742188 22.796875 18.5 L 22.796875 17.269531 C 22.796875 17.109375 22.828125 16.953125 22.886719 16.800781 C 22.949219 16.652344 23.039062 16.519531 23.15625 16.402344 C 23.269531 16.289062 23.402344 16.199219 23.554688 16.136719 C 23.703125 16.074219 23.859375 16.042969 24.023438 16.042969 C 24.191406 16.042969 24.335938 15.984375 24.457031 15.863281 C 24.578125 15.746094 24.636719 15.597656 24.636719 15.429688 C 24.636719 15.261719 24.578125 15.117188 24.457031 14.996094 C 24.335938 14.875 24.191406 14.816406 24.023438 14.816406 C 23.859375 14.816406 23.703125 14.785156 23.554688 14.722656 C 23.402344 14.660156 23.269531 14.570312 23.15625 14.457031 C 23.039062 14.339844 22.949219 14.207031 22.886719 14.058594 C 22.828125 13.910156 22.796875 13.75 22.796875 13.589844 L 22.796875 12.363281 C 22.796875 12.117188 22.75 11.882812 22.65625 11.65625 C 22.5625 11.429688 22.429688 11.230469 22.253906 11.058594 C 22.082031 10.886719 21.882812 10.753906 21.660156 10.660156 C 21.433594 10.566406 21.199219 10.519531 20.953125 10.519531 C 20.785156 10.519531 20.640625 10.578125 20.519531 10.699219 C 20.398438 10.820312 20.339844 10.964844 20.339844 11.132812 C 20.339844 11.304688 20.398438 11.449219 20.519531 11.566406 C 20.640625 11.6875 20.785156 11.746094 20.953125 11.746094 C 21.125 11.746094 21.269531 11.808594 21.386719 11.925781 C 21.507812 12.046875 21.566406 12.191406 21.566406 12.363281 L 21.566406 13.589844 C 21.570312 14.332031 21.855469 14.945312 22.414062 15.429688 C 21.855469 15.914062 21.570312 16.53125 21.566406 17.269531 Z M 21.566406 17.269531 " fill-opacity="1" fill-rule="nonzero"/><path fill="#00bf63" d="M 10.519531 13.589844 L 10.519531 12.363281 C 10.519531 12.191406 10.578125 12.046875 10.699219 11.925781 C 10.820312 11.808594 10.964844 11.746094 11.132812 11.746094 C 11.304688 11.746094 11.449219 11.6875 11.566406 11.566406 C 11.6875 11.449219 11.746094 11.304688 11.746094 11.132812 C 11.746094 10.964844 11.6875 10.820312 11.566406 10.699219 C 11.449219 10.578125 11.304688 10.519531 11.132812 10.519531 C 10.890625 10.519531 10.65625 10.566406 10.429688 10.660156 C 10.203125 10.753906 10.003906 10.886719 9.832031 11.058594 C 9.660156 11.230469 9.527344 11.429688 9.433594 11.65625 C 9.339844 11.882812 9.292969 12.117188 9.292969 12.363281 L 9.292969 13.589844 C 9.292969 13.75 9.261719 13.910156 9.199219 14.058594 C 9.136719 14.207031 9.046875 14.339844 8.933594 14.457031 C 8.816406 14.570312 8.683594 14.660156 8.535156 14.722656 C 8.382812 14.785156 8.226562 14.816406 8.066406 14.816406 C 7.894531 14.816406 7.75 14.875 7.632812 14.996094 C 7.511719 15.117188 7.453125 15.261719 7.453125 15.429688 C 7.453125 15.597656 7.511719 15.746094 7.632812 15.863281 C 7.75 15.984375 7.894531 16.042969 8.066406 16.042969 C 8.226562 16.042969 8.382812 16.074219 8.535156 16.136719 C 8.683594 16.199219 8.816406 16.289062 8.933594 16.402344 C 9.046875 16.519531 9.136719 16.652344 9.199219 16.800781 C 9.261719 16.953125 9.292969 17.109375 9.292969 17.269531 L 9.292969 18.5 C 9.292969 18.742188 9.339844 18.976562 9.433594 19.203125 C 9.527344 19.429688 9.660156 19.628906 9.832031 19.800781 C 10.003906 19.972656 10.203125 20.105469 10.429688 20.199219 C 10.65625 20.292969 10.890625 20.339844 11.132812 20.339844 C 11.304688 20.339844 11.449219 20.28125 11.566406 20.160156 C 11.6875 20.039062 11.746094 19.894531 11.746094 19.726562 C 11.746094 19.558594 11.6875 19.414062 11.566406 19.292969 C 11.449219 19.171875 11.304688 19.113281 11.132812 19.113281 C 10.964844 19.113281 10.820312 19.050781 10.699219 18.933594 C 10.578125 18.8125 10.519531 18.667969 10.519531 18.5 L 10.519531 17.269531 C 10.515625 16.53125 10.234375 15.914062 9.671875 15.429688 C 10.234375 14.945312 10.515625 14.332031 10.519531 13.589844 Z M 10.519531 13.589844 " fill-opacity="1" fill-rule="nonzero"/><g clip-path="url(#c64b40609d)"><path fill="#00bf63" d="M 33.84375 14.203125 L 27.703125 14.203125 C 27.460938 14.203125 27.226562 14.25 27 14.34375 C 26.773438 14.4375 26.574219 14.570312 26.402344 14.742188 C 26.230469 14.914062 26.097656 15.113281 26.003906 15.339844 C 25.910156 15.566406 25.863281 15.800781 25.863281 16.042969 L 25.863281 28.320312 C 25.863281 28.5625 25.910156 28.796875 26.003906 29.023438 C 26.097656 29.25 26.230469 29.449219 26.402344 29.621094 C 26.574219 29.792969 26.773438 29.925781 27 30.019531 C 27.226562 30.113281 27.460938 30.160156 27.703125 30.160156 L 33.84375 30.160156 C 34.085938 30.160156 34.320312 30.113281 34.546875 30.019531 C 34.773438 29.925781 34.972656 29.792969 35.144531 29.621094 C 35.316406 29.449219 35.449219 29.25 35.542969 29.023438 C 35.636719 28.796875 35.683594 28.5625 35.683594 28.320312 L 35.683594 16.042969 C 35.683594 15.800781 35.636719 15.566406 35.542969 15.339844 C 35.449219 15.113281 35.316406 14.914062 35.144531 14.742188 C 34.972656 14.570312 34.773438 14.4375 34.546875 14.34375 C 34.320312 14.25 34.085938 14.203125 33.84375 14.203125 Z M 27.089844 17.886719 L 34.457031 17.886719 L 34.457031 26.476562 L 27.089844 26.476562 Z M 27.703125 15.429688 L 33.84375 15.429688 C 34.011719 15.429688 34.15625 15.488281 34.277344 15.609375 C 34.394531 15.730469 34.457031 15.875 34.457031 16.042969 L 34.457031 16.65625 L 27.089844 16.65625 L 27.089844 16.042969 C 27.089844 15.875 27.152344 15.730469 27.269531 15.609375 C 27.390625 15.488281 27.535156 15.429688 27.703125 15.429688 Z M 33.84375 28.933594 L 27.703125 28.933594 C 27.535156 28.933594 27.390625 28.871094 27.269531 28.753906 C 27.152344 28.632812 27.089844 28.488281 27.089844 28.320312 L 27.089844 27.703125 L 34.457031 27.703125 L 34.457031 28.320312 C 34.457031 28.488281 34.394531 28.632812 34.277344 28.753906 C 34.15625 28.871094 34.011719 28.933594 33.84375 28.933594 Z M 33.84375 28.933594 " fill-opacity="1" fill-rule="nonzero"/></g><path fill="#00bf63" d="M 32.613281 19.113281 L 28.933594 19.113281 C 28.761719 19.113281 28.617188 19.171875 28.5 19.292969 C 28.378906 19.414062 28.320312 19.558594 28.320312 19.726562 L 28.320312 22.179688 C 28.320312 22.351562 28.378906 22.496094 28.5 22.617188 C 28.617188 22.734375 28.761719 22.796875 28.933594 22.796875 L 32.613281 22.796875 C 32.785156 22.796875 32.929688 22.734375 33.050781 22.617188 C 33.167969 22.496094 33.230469 22.351562 33.230469 22.179688 L 33.230469 19.726562 C 33.230469 19.558594 33.167969 19.414062 33.050781 19.292969 C 32.929688 19.171875 32.785156 19.113281 32.613281 19.113281 Z M 32 21.566406 L 29.546875 21.566406 L 29.546875 20.339844 L 32 20.339844 Z M 32 21.566406 " fill-opacity="1" fill-rule="nonzero"/><path fill="#00bf63" d="M 29.546875 24.023438 L 28.933594 24.023438 C 28.761719 24.023438 28.617188 24.082031 28.5 24.203125 C 28.378906 24.320312 28.320312 24.46875 28.320312 24.636719 C 28.320312 24.804688 28.378906 24.949219 28.5 25.070312 C 28.617188 25.191406 28.761719 25.25 28.933594 25.25 L 29.546875 25.25 C 29.714844 25.25 29.859375 25.191406 29.980469 25.070312 C 30.101562 24.949219 30.160156 24.804688 30.160156 24.636719 C 30.160156 24.46875 30.101562 24.320312 29.980469 24.203125 C 29.859375 24.082031 29.714844 24.023438 29.546875 24.023438 Z M 29.546875 24.023438 " fill-opacity="1" fill-rule="nonzero"/><path fill="#00bf63" d="M 32.613281 24.023438 L 32 24.023438 C 31.832031 24.023438 31.6875 24.082031 31.566406 24.203125 C 31.449219 24.320312 31.386719 24.46875 31.386719 24.636719 C 31.386719 24.804688 31.449219 24.949219 31.566406 25.070312 C 31.6875 25.191406 31.832031 25.25 32 25.25 L 32.613281 25.25 C 32.785156 25.25 32.929688 25.191406 33.050781 25.070312 C 33.167969 24.949219 33.230469 24.804688 33.230469 24.636719 C 33.230469 24.46875 33.167969 24.320312 33.050781 24.203125 C 32.929688 24.082031 32.785156 24.023438 32.613281 24.023438 Z M 32.613281 24.023438 " fill-opacity="1" fill-rule="nonzero"/><g clip-path="url(#bd5e383751)"><path fill="#00bf63" d="M 4.382812 28.933594 C 4.136719 28.933594 3.902344 28.886719 3.679688 28.792969 C 3.453125 28.699219 3.253906 28.566406 3.082031 28.394531 C 2.90625 28.21875 2.773438 28.019531 2.679688 27.796875 C 2.589844 27.570312 2.542969 27.335938 2.542969 27.089844 L 2.542969 26.476562 L 11.980469 26.476562 L 12.429688 27.367188 C 12.542969 27.589844 12.722656 27.703125 12.976562 27.703125 L 19.113281 27.703125 C 19.363281 27.703125 19.546875 27.589844 19.660156 27.367188 L 20.105469 26.476562 L 24.636719 26.476562 L 24.636719 25.25 L 19.726562 25.25 C 19.476562 25.25 19.292969 25.363281 19.179688 25.585938 L 18.730469 26.476562 L 13.355469 26.476562 L 12.90625 25.585938 C 12.792969 25.363281 12.613281 25.25 12.363281 25.25 L 4.382812 25.25 L 4.382812 24.023438 L 24.636719 24.023438 L 24.636719 22.796875 L 4.382812 22.796875 L 4.382812 8.066406 L 27.703125 8.066406 L 27.703125 12.976562 L 28.933594 12.976562 L 28.933594 7.453125 C 28.933594 7.28125 28.871094 7.136719 28.753906 7.015625 C 28.632812 6.898438 28.488281 6.835938 28.320312 6.835938 L 3.769531 6.835938 C 3.597656 6.835938 3.453125 6.898438 3.335938 7.015625 C 3.214844 7.136719 3.15625 7.28125 3.15625 7.453125 L 3.15625 25.25 L 2.542969 25.25 C 2.378906 25.25 2.222656 25.28125 2.070312 25.34375 C 1.921875 25.40625 1.789062 25.496094 1.671875 25.609375 C 1.558594 25.726562 1.46875 25.855469 1.40625 26.007812 C 1.34375 26.15625 1.3125 26.316406 1.3125 26.476562 L 1.3125 27.089844 C 1.3125 27.5 1.390625 27.890625 1.546875 28.265625 C 1.703125 28.640625 1.925781 28.972656 2.210938 29.261719 C 2.5 29.550781 2.832031 29.769531 3.207031 29.925781 C 3.585938 30.082031 3.976562 30.160156 4.382812 30.160156 L 25.25 30.160156 C 24.964844 29.796875 24.773438 29.386719 24.679688 28.933594 Z M 4.382812 28.933594 " fill-opacity="1" fill-rule="nonzero"/></g></svg>