<svg xmlns="http://www.w3.org/2000/svg" xmlns:xlink="http://www.w3.org/1999/xlink" width="50" zoomAndPan="magnify" viewBox="0 0 37.5 37.499999" height="50" preserveAspectRatio="xMidYMid meet" version="1.0"><defs><clipPath id="63ecdcac83"><path d="M 0.886719 19 L 18 19 L 18 36.117188 L 0.886719 36.117188 Z M 0.886719 19 " clip-rule="nonzero"/></clipPath><clipPath id="ef4cf56f33"><path d="M 10 1.332031 L 35.675781 1.332031 L 35.675781 27 L 10 27 Z M 10 1.332031 " clip-rule="nonzero"/></clipPath></defs><path fill="#0097b2" d="M 5.3125 32.253906 C 5.164062 32.253906 5.019531 32.195312 4.910156 32.085938 C 4.777344 31.949219 4.71875 31.753906 4.757812 31.566406 L 6.566406 23.238281 C 6.609375 23.035156 6.761719 22.871094 6.960938 22.8125 C 7.160156 22.757812 7.375 22.808594 7.519531 22.957031 L 8.75 24.1875 L 18.085938 14.855469 L 16.855469 13.625 C 16.707031 13.476562 16.652344 13.261719 16.710938 13.0625 C 16.769531 12.863281 16.929688 12.714844 17.132812 12.667969 L 25.460938 10.863281 C 25.652344 10.820312 25.847656 10.878906 25.984375 11.015625 C 26.121094 11.152344 26.179688 11.347656 26.136719 11.535156 L 24.332031 19.863281 C 24.285156 20.066406 24.136719 20.230469 23.9375 20.289062 C 23.738281 20.347656 23.523438 20.292969 23.375 20.144531 L 22.144531 18.914062 L 12.8125 28.25 L 14.042969 29.480469 C 14.1875 29.625 14.242188 29.839844 14.1875 30.039062 C 14.128906 30.238281 13.964844 30.390625 13.761719 30.433594 L 5.433594 32.242188 C 5.394531 32.25 5.351562 32.253906 5.3125 32.253906 Z M 7.453125 24.492188 L 6.054688 30.945312 L 12.507812 29.546875 L 11.609375 28.652344 C 11.503906 28.542969 11.445312 28.398438 11.445312 28.25 C 11.445312 28.097656 11.503906 27.957031 11.609375 27.847656 L 21.746094 17.714844 C 21.964844 17.492188 22.324219 17.492188 22.546875 17.714844 L 23.441406 18.609375 L 24.839844 12.15625 L 18.386719 13.558594 L 19.285156 14.453125 C 19.390625 14.558594 19.449219 14.703125 19.449219 14.851562 C 19.449219 15.003906 19.390625 15.148438 19.285156 15.253906 L 9.148438 25.390625 C 8.929688 25.609375 8.570312 25.609375 8.347656 25.390625 Z M 7.453125 24.492188 " fill-opacity="1" fill-rule="nonzero"/><g clip-path="url(#63ecdcac83)"><path fill="#0097b2" d="M 16.742188 36.113281 L 1.453125 36.113281 C 1.140625 36.113281 0.886719 35.859375 0.886719 35.546875 L 0.886719 20.257812 C 0.886719 19.945312 1.140625 19.691406 1.453125 19.691406 L 13.480469 19.691406 C 13.792969 19.691406 14.046875 19.945312 14.046875 20.257812 C 14.046875 20.570312 13.792969 20.824219 13.480469 20.824219 L 2.019531 20.824219 L 2.019531 34.980469 L 16.175781 34.980469 L 16.175781 23.515625 C 16.175781 23.203125 16.429688 22.949219 16.742188 22.949219 C 17.054688 22.949219 17.308594 23.203125 17.308594 23.515625 L 17.308594 35.546875 C 17.308594 35.859375 17.054688 36.113281 16.742188 36.113281 Z M 16.742188 36.113281 " fill-opacity="1" fill-rule="nonzero"/></g><g clip-path="url(#ef4cf56f33)"><path fill="#0097b2" d="M 35.101562 26.167969 L 16.742188 26.167969 C 16.429688 26.167969 16.175781 25.914062 16.175781 25.601562 C 16.175781 25.289062 16.429688 25.035156 16.742188 25.035156 L 34.535156 25.035156 L 34.535156 2.460938 L 11.964844 2.460938 L 11.964844 20.257812 C 11.964844 20.570312 11.710938 20.824219 11.398438 20.824219 C 11.085938 20.824219 10.832031 20.570312 10.832031 20.257812 L 10.832031 1.894531 C 10.832031 1.582031 11.085938 1.328125 11.398438 1.328125 L 35.101562 1.328125 C 35.417969 1.328125 35.667969 1.582031 35.667969 1.894531 L 35.667969 25.601562 C 35.667969 25.914062 35.417969 26.167969 35.101562 26.167969 Z M 35.101562 26.167969 " fill-opacity="1" fill-rule="nonzero"/></g></svg>