<svg xmlns="http://www.w3.org/2000/svg" xmlns:xlink="http://www.w3.org/1999/xlink" width="50" zoomAndPan="magnify" viewBox="0 0 37.5 37.499999" height="50" preserveAspectRatio="xMidYMid meet" version="1.0"><defs><clipPath id="41754e14cd"><path d="M 1.367188 3.699219 L 35.410156 3.699219 L 35.410156 33.304688 L 1.367188 33.304688 Z M 1.367188 3.699219 " clip-rule="nonzero"/></clipPath></defs><g clip-path="url(#41754e14cd)"><path fill="#ff5757" d="M 32.46875 3.699219 C 32.441406 3.695312 32.414062 3.691406 32.382812 3.691406 L 4.570312 3.691406 C 4.542969 3.691406 4.515625 3.695312 4.484375 3.699219 C 2.75 3.792969 1.363281 5.226562 1.363281 6.980469 L 1.363281 24.753906 C 1.363281 26.566406 2.839844 28.042969 4.65625 28.042969 L 15.371094 28.042969 C 15.472656 28.472656 15.472656 28.925781 15.371094 29.359375 L 13.871094 29.359375 C 12.058594 29.359375 10.578125 30.835938 10.578125 32.652344 C 10.578125 33.015625 10.875 33.308594 11.238281 33.308594 L 25.71875 33.308594 C 26.082031 33.308594 26.375 33.015625 26.375 32.652344 C 26.375 30.839844 24.902344 29.359375 23.085938 29.359375 L 21.589844 29.359375 C 21.488281 28.925781 21.488281 28.472656 21.589844 28.042969 L 32.300781 28.042969 C 34.117188 28.042969 35.59375 26.566406 35.59375 24.753906 L 35.59375 6.980469 C 35.59375 5.226562 34.207031 3.785156 32.46875 3.699219 Z M 34.277344 24.757812 C 34.277344 25.847656 33.390625 26.730469 32.300781 26.730469 L 4.652344 26.730469 C 3.5625 26.730469 2.679688 25.847656 2.679688 24.757812 L 2.679688 23.441406 L 34.28125 23.441406 L 34.28125 24.757812 Z M 20.246094 29.367188 L 16.710938 29.367188 C 16.78125 28.929688 16.78125 28.488281 16.710938 28.050781 L 20.246094 28.050781 C 20.175781 28.484375 20.175781 28.929688 20.246094 29.367188 Z M 12.007812 32 C 12.277344 31.234375 13.007812 30.683594 13.867188 30.683594 L 23.082031 30.683594 C 23.941406 30.683594 24.675781 31.234375 24.945312 32 Z M 2.679688 6.980469 C 2.679688 6.15625 3.191406 5.449219 3.914062 5.152344 L 3.914062 22.121094 L 2.679688 22.121094 Z M 34.277344 22.125 L 33.042969 22.125 L 33.042969 5.152344 C 33.765625 5.449219 34.277344 6.15625 34.277344 6.980469 Z M 5.230469 5.007812 L 31.730469 5.007812 L 31.730469 22.125 L 5.230469 22.125 Z M 7.042969 6.429688 C 7.042969 6.070312 7.339844 5.773438 7.699219 5.773438 L 10.476562 5.773438 C 10.839844 5.773438 11.132812 6.070312 11.132812 6.429688 C 11.132812 6.792969 10.839844 7.089844 10.476562 7.089844 L 7.699219 7.089844 C 7.335938 7.089844 7.042969 6.792969 7.042969 6.429688 Z M 9.8125 14.328125 C 9.8125 14.691406 9.519531 14.988281 9.15625 14.988281 L 7.699219 14.988281 C 7.339844 14.988281 7.042969 14.691406 7.042969 14.328125 C 7.042969 13.96875 7.339844 13.671875 7.699219 13.671875 L 9.15625 13.671875 C 9.519531 13.671875 9.8125 13.964844 9.8125 14.328125 Z M 29.375 9.0625 C 29.375 9.425781 29.078125 9.71875 28.714844 9.71875 L 27.035156 9.71875 C 26.671875 9.71875 26.375 9.425781 26.375 9.0625 C 26.375 8.699219 26.671875 8.40625 27.035156 8.40625 L 28.714844 8.40625 C 29.078125 8.40625 29.375 8.699219 29.375 9.0625 Z M 25.539062 6.429688 C 25.539062 6.070312 25.835938 5.773438 26.195312 5.773438 L 28.589844 5.773438 C 28.949219 5.773438 29.246094 6.070312 29.246094 6.429688 C 29.246094 6.792969 28.949219 7.089844 28.589844 7.089844 L 26.195312 7.089844 C 25.835938 7.089844 25.539062 6.792969 25.539062 6.429688 Z M 26.960938 19.597656 C 26.960938 19.957031 26.664062 20.253906 26.304688 20.253906 L 24.34375 20.253906 C 23.984375 20.253906 23.6875 19.957031 23.6875 19.597656 C 23.6875 19.234375 23.984375 18.9375 24.34375 18.9375 L 26.304688 18.9375 C 26.664062 18.9375 26.960938 19.230469 26.960938 19.597656 Z M 29.492188 14.328125 C 29.492188 14.691406 29.199219 14.988281 28.835938 14.988281 L 27.070312 14.988281 C 26.710938 14.988281 26.414062 14.691406 26.414062 14.328125 C 26.414062 13.96875 26.710938 13.671875 27.070312 13.671875 L 28.835938 13.671875 C 29.199219 13.671875 29.492188 13.964844 29.492188 14.328125 Z M 29.375 11.695312 C 29.375 12.054688 29.078125 12.351562 28.714844 12.351562 L 26.433594 12.351562 C 26.074219 12.351562 25.777344 12.054688 25.777344 11.695312 C 25.777344 11.332031 26.074219 11.035156 26.433594 11.035156 L 28.714844 11.035156 C 29.078125 11.035156 29.375 11.332031 29.375 11.695312 Z M 28.339844 16.960938 C 28.339844 17.324219 28.042969 17.621094 27.679688 17.621094 L 25.90625 17.621094 C 25.546875 17.621094 25.25 17.324219 25.25 16.960938 C 25.25 16.597656 25.546875 16.304688 25.90625 16.304688 L 27.679688 16.304688 C 28.042969 16.304688 28.339844 16.597656 28.339844 16.960938 Z M 24.59375 9.367188 C 24.640625 9.277344 24.671875 9.171875 24.671875 9.0625 C 24.671875 8.699219 24.375 8.40625 24.011719 8.40625 L 23.835938 8.40625 C 23.363281 7.894531 22.824219 7.449219 22.230469 7.089844 L 22.957031 7.089844 C 23.316406 7.089844 23.613281 6.792969 23.613281 6.429688 C 23.613281 6.070312 23.316406 5.773438 22.957031 5.773438 L 19.371094 5.773438 C 19.171875 5.773438 18.996094 5.863281 18.875 6 C 18.675781 5.984375 18.472656 5.972656 18.269531 5.972656 C 17.6875 5.972656 17.121094 6.039062 16.578125 6.167969 C 16.476562 5.9375 16.246094 5.777344 15.976562 5.777344 L 13.585938 5.777344 C 13.222656 5.777344 12.925781 6.074219 12.925781 6.433594 C 12.925781 6.796875 13.222656 7.09375 13.585938 7.09375 L 14.308594 7.09375 C 13.714844 7.457031 13.171875 7.902344 12.703125 8.410156 L 9.089844 8.410156 C 8.730469 8.410156 8.433594 8.703125 8.433594 9.066406 C 8.433594 9.429688 8.730469 9.722656 9.089844 9.722656 L 11.726562 9.722656 C 11.480469 10.140625 11.273438 10.578125 11.113281 11.039062 L 9.546875 11.039062 C 9.183594 11.039062 8.890625 11.335938 8.890625 11.699219 C 8.890625 12.058594 9.183594 12.355469 9.546875 12.355469 L 10.777344 12.355469 C 10.714844 12.75 10.679688 13.152344 10.679688 13.570312 C 10.679688 14.535156 10.859375 15.457031 11.191406 16.308594 L 10.410156 16.308594 C 10.046875 16.308594 9.753906 16.605469 9.753906 16.964844 C 9.753906 17.328125 10.046875 17.625 10.410156 17.625 L 11.859375 17.625 C 12.164062 18.105469 12.515625 18.546875 12.917969 18.949219 C 12.894531 18.941406 12.871094 18.9375 12.839844 18.9375 L 10.410156 18.9375 C 10.046875 18.9375 9.753906 19.234375 9.753906 19.597656 C 9.753906 19.957031 10.046875 20.253906 10.410156 20.253906 L 12.839844 20.253906 C 13.203125 20.253906 13.5 19.957031 13.5 19.597656 C 13.5 19.546875 13.492188 19.5 13.480469 19.453125 C 14.789062 20.523438 16.460938 21.160156 18.277344 21.160156 C 22.464844 21.160156 25.871094 17.75 25.871094 13.566406 C 25.863281 12.015625 25.394531 10.570312 24.59375 9.367188 Z M 21.425781 18.980469 C 20.515625 19.515625 19.464844 19.824219 18.34375 19.839844 C 18.316406 19.839844 18.292969 19.84375 18.265625 19.84375 C 18.046875 19.84375 17.835938 19.832031 17.621094 19.8125 C 16.679688 19.714844 15.804688 19.402344 15.03125 18.9375 C 13.601562 18.074219 12.542969 16.660156 12.152344 14.988281 C 12.054688 14.5625 11.996094 14.125 11.988281 13.671875 C 11.988281 13.636719 11.984375 13.601562 11.984375 13.566406 C 11.984375 13.148438 12.027344 12.746094 12.105469 12.351562 C 12.195312 11.894531 12.335938 11.457031 12.519531 11.035156 C 12.730469 10.5625 12.996094 10.125 13.308594 9.714844 C 13.339844 9.679688 13.363281 9.640625 13.390625 9.609375 C 13.460938 9.523438 13.539062 9.441406 13.613281 9.355469 C 13.769531 9.183594 13.933594 9.015625 14.109375 8.859375 C 15.21875 7.882812 16.667969 7.28125 18.261719 7.28125 C 19.585938 7.28125 20.8125 7.699219 21.824219 8.402344 C 22.351562 8.765625 22.820312 9.210938 23.210938 9.714844 C 23.484375 10.074219 23.726562 10.460938 23.921875 10.871094 C 24.085938 11.21875 24.21875 11.574219 24.320312 11.953125 C 24.457031 12.46875 24.539062 13.003906 24.539062 13.566406 C 24.539062 13.601562 24.535156 13.636719 24.535156 13.671875 C 24.527344 14.125 24.46875 14.5625 24.371094 14.988281 C 24.238281 15.546875 24.039062 16.082031 23.769531 16.574219 C 23.5625 16.949219 23.320312 17.296875 23.046875 17.625 C 22.59375 18.160156 22.042969 18.621094 21.425781 18.980469 Z M 23.152344 12.15625 C 23.378906 12.042969 23.519531 11.8125 23.519531 11.5625 C 23.519531 11.3125 23.375 11.085938 23.152344 10.96875 L 22.929688 10.859375 L 20.621094 9.714844 L 20.070312 9.445312 L 18.558594 8.695312 C 18.375 8.605469 18.160156 8.605469 17.976562 8.695312 L 17.621094 8.875 L 15.917969 9.714844 L 13.378906 10.96875 C 13.222656 11.046875 13.113281 11.179688 13.054688 11.339844 C 13.03125 11.410156 13.007812 11.484375 13.007812 11.5625 C 13.007812 11.691406 13.046875 11.8125 13.117188 11.917969 C 13.179688 12.015625 13.269531 12.097656 13.375 12.152344 L 14.207031 12.5625 L 13.375 12.972656 C 13.148438 13.082031 13.007812 13.3125 13.007812 13.566406 C 13.007812 13.644531 13.027344 13.71875 13.050781 13.785156 C 13.09375 13.914062 13.183594 14.019531 13.292969 14.105469 C 13.316406 14.125 13.34375 14.144531 13.371094 14.15625 L 14.203125 14.566406 L 13.371094 14.980469 C 13.144531 15.089844 13.003906 15.320312 13.003906 15.566406 C 13.003906 15.816406 13.148438 16.042969 13.371094 16.160156 L 13.757812 16.347656 L 16.3125 17.609375 L 17.964844 18.429688 C 18.054688 18.472656 18.15625 18.5 18.257812 18.5 C 18.355469 18.5 18.457031 18.472656 18.546875 18.429688 L 20.179688 17.621094 L 22.839844 16.304688 L 23.140625 16.15625 C 23.367188 16.042969 23.507812 15.8125 23.507812 15.5625 C 23.507812 15.320312 23.371094 15.097656 23.15625 14.984375 C 23.152344 14.980469 23.144531 14.976562 23.140625 14.972656 L 22.308594 14.558594 L 23.140625 14.148438 C 23.335938 14.054688 23.457031 13.871094 23.496094 13.664062 C 23.5 13.628906 23.511719 13.59375 23.511719 13.558594 C 23.511719 13.304688 23.367188 13.078125 23.144531 12.964844 L 22.3125 12.554688 L 23.089844 12.171875 Z M 21.375 13.566406 L 20.839844 13.832031 L 20.09375 14.199219 L 19.351562 14.5625 L 18.261719 15.101562 L 17.917969 14.933594 L 17.175781 14.5625 L 16.429688 14.199219 L 15.6875 13.832031 L 15.359375 13.671875 L 15.148438 13.566406 L 15.6875 13.296875 L 16.4375 13.671875 L 16.96875 13.933594 L 17.714844 14.300781 L 17.972656 14.429688 C 18.0625 14.472656 18.164062 14.5 18.265625 14.5 C 18.277344 14.5 18.289062 14.496094 18.296875 14.496094 C 18.382812 14.488281 18.472656 14.46875 18.554688 14.429688 L 18.816406 14.300781 L 19.558594 13.933594 L 20.304688 13.570312 L 20.84375 13.300781 Z M 18.554688 16.960938 L 18.269531 17.105469 L 15.160156 15.566406 L 15.699219 15.300781 L 17.980469 16.425781 C 18.070312 16.472656 18.171875 16.496094 18.273438 16.496094 C 18.371094 16.496094 18.472656 16.472656 18.5625 16.425781 L 20.847656 15.300781 L 21.386719 15.566406 L 19.890625 16.308594 Z M 20.960938 11.773438 L 20.839844 11.832031 L 20.09375 12.199219 L 19.777344 12.355469 L 19.351562 12.566406 L 18.8125 12.832031 L 18.261719 13.105469 L 17.710938 12.832031 L 17.171875 12.566406 L 16.496094 12.234375 L 16.429688 12.199219 L 15.6875 11.832031 L 15.148438 11.566406 L 16.195312 11.046875 L 18.257812 10.027344 L 20.300781 11.039062 L 20.820312 11.300781 L 21.367188 11.570312 Z M 20.960938 11.773438 " fill-opacity="1" fill-rule="nonzero"/></g></svg>