<svg xmlns="http://www.w3.org/2000/svg" xmlns:xlink="http://www.w3.org/1999/xlink" width="50" zoomAndPan="magnify" viewBox="0 0 37.5 37.499999" height="50" preserveAspectRatio="xMidYMid meet" version="1.0"><defs><clipPath id="cc37e6f1f1"><path d="M 0.667969 16 L 8 16 L 8 22 L 0.667969 22 Z M 0.667969 16 " clip-rule="nonzero"/></clipPath><clipPath id="e944714450"><path d="M 15 1.554688 L 21 1.554688 L 21 9 L 15 9 Z M 15 1.554688 " clip-rule="nonzero"/></clipPath><clipPath id="1a7c474964"><path d="M 15 29 L 21 29 L 21 36.339844 L 15 36.339844 Z M 15 29 " clip-rule="nonzero"/></clipPath><clipPath id="3d2f70e743"><path d="M 28 16 L 35.453125 16 L 35.453125 22 L 28 22 Z M 28 16 " clip-rule="nonzero"/></clipPath></defs><g clip-path="url(#cc37e6f1f1)"><path fill="#ff5757" d="M 7.207031 19.460938 L 7.207031 18.433594 C 7.207031 18.425781 7.207031 18.414062 7.207031 18.40625 L 5.035156 18.40625 L 5.035156 17.996094 C 5.035156 17.789062 4.945312 17.632812 4.765625 17.527344 L 3.136719 16.578125 C 2.957031 16.472656 2.773438 16.472656 2.589844 16.578125 L 0.960938 17.527344 C 0.78125 17.632812 0.691406 17.789062 0.691406 17.996094 L 0.691406 19.898438 C 0.691406 20.105469 0.78125 20.261719 0.960938 20.367188 L 2.589844 21.316406 C 2.773438 21.421875 2.957031 21.421875 3.136719 21.316406 L 4.765625 20.367188 C 4.945312 20.261719 5.035156 20.105469 5.035156 19.898438 L 5.035156 19.488281 L 7.207031 19.488281 C 7.207031 19.480469 7.207031 19.46875 7.207031 19.460938 Z M 3.949219 19.585938 L 2.863281 20.21875 L 1.777344 19.585938 L 1.777344 18.308594 L 2.863281 17.675781 L 3.949219 18.308594 Z M 3.949219 19.585938 " fill-opacity="1" fill-rule="nonzero"/></g><path fill="#ff5757" d="M 25.371094 10.910156 L 26.097656 11.636719 C 26.105469 11.644531 26.109375 11.652344 26.117188 11.65625 L 27.433594 10.34375 L 28.953125 10.742188 C 29.15625 10.796875 29.328125 10.75 29.476562 10.601562 L 30.820312 9.257812 C 30.964844 9.109375 31.011719 8.9375 30.960938 8.734375 L 30.480469 6.914062 C 30.425781 6.710938 30.296875 6.582031 30.09375 6.527344 L 28.269531 6.046875 C 28.070312 5.992188 27.894531 6.042969 27.75 6.1875 L 26.40625 7.53125 C 26.257812 7.679688 26.210938 7.851562 26.265625 8.054688 L 26.664062 9.574219 L 25.351562 10.890625 C 25.355469 10.894531 25.363281 10.902344 25.371094 10.910156 Z M 28.296875 7.175781 L 29.511719 7.496094 L 29.832031 8.710938 L 28.929688 9.613281 L 27.714844 9.292969 L 27.394531 8.078125 Z M 28.296875 7.175781 " fill-opacity="1" fill-rule="nonzero"/><path fill="#ff5757" d="M 10.75 26.988281 L 10.023438 26.261719 C 10.015625 26.253906 10.007812 26.246094 10 26.238281 L 8.6875 27.554688 L 7.164062 27.152344 C 6.964844 27.101562 6.789062 27.148438 6.644531 27.292969 L 5.300781 28.636719 C 5.152344 28.785156 5.105469 28.957031 5.160156 29.160156 L 5.636719 30.980469 C 5.691406 31.183594 5.820312 31.3125 6.023438 31.367188 L 7.847656 31.847656 C 8.050781 31.902344 8.222656 31.851562 8.371094 31.707031 L 9.710938 30.363281 C 9.859375 30.214844 9.90625 30.042969 9.855469 29.839844 L 9.453125 28.320312 L 10.769531 27.003906 C 10.761719 27 10.753906 26.992188 10.75 26.988281 Z M 7.824219 30.71875 L 6.609375 30.398438 L 6.289062 29.183594 L 7.191406 28.28125 L 8.40625 28.601562 L 8.726562 29.816406 Z M 7.824219 30.71875 " fill-opacity="1" fill-rule="nonzero"/><path fill="#ff5757" d="M 25.410156 23.355469 L 24.785156 22.730469 C 25.089844 22.191406 25.324219 21.625 25.492188 21.027344 L 26.375 21.027344 C 26.574219 21.019531 26.765625 20.972656 26.945312 20.890625 C 27.128906 20.804688 27.289062 20.691406 27.425781 20.542969 C 27.558594 20.398438 27.664062 20.230469 27.734375 20.042969 C 27.804688 19.855469 27.835938 19.660156 27.828125 19.460938 L 27.828125 18.433594 C 27.835938 18.234375 27.804688 18.039062 27.734375 17.851562 C 27.664062 17.664062 27.558594 17.496094 27.425781 17.351562 C 27.289062 17.203125 27.128906 17.089844 26.945312 17.003906 C 26.765625 16.921875 26.574219 16.875 26.375 16.867188 L 25.492188 16.867188 C 25.324219 16.269531 25.089844 15.703125 24.785156 15.164062 L 25.410156 14.539062 C 25.546875 14.390625 25.648438 14.222656 25.71875 14.035156 C 25.785156 13.847656 25.816406 13.65625 25.808594 13.453125 C 25.800781 13.253906 25.757812 13.0625 25.675781 12.882812 C 25.589844 12.699219 25.476562 12.539062 25.328125 12.402344 L 24.605469 11.675781 C 24.46875 11.53125 24.308594 11.414062 24.125 11.332031 C 23.945312 11.25 23.753906 11.203125 23.554688 11.195312 C 23.351562 11.1875 23.160156 11.21875 22.96875 11.289062 C 22.78125 11.359375 22.613281 11.460938 22.46875 11.597656 L 21.84375 12.222656 C 21.304688 11.917969 20.738281 11.679688 20.140625 11.515625 L 20.140625 10.632812 C 20.132812 10.433594 20.085938 10.242188 20.003906 10.058594 C 19.917969 9.878906 19.804688 9.71875 19.65625 9.582031 C 19.507812 9.445312 19.339844 9.34375 19.152344 9.273438 C 18.964844 9.203125 18.773438 9.171875 18.570312 9.179688 L 17.546875 9.179688 C 17.347656 9.171875 17.152344 9.203125 16.964844 9.273438 C 16.777344 9.34375 16.609375 9.445312 16.464844 9.582031 C 16.316406 9.71875 16.199219 9.878906 16.117188 10.058594 C 16.03125 10.242188 15.988281 10.433594 15.980469 10.632812 L 15.980469 11.515625 C 15.382812 11.679688 14.816406 11.917969 14.277344 12.222656 L 13.652344 11.597656 C 13.503906 11.460938 13.335938 11.359375 13.148438 11.289062 C 12.960938 11.21875 12.765625 11.1875 12.566406 11.195312 C 12.367188 11.203125 12.175781 11.25 11.992188 11.332031 C 11.808594 11.417969 11.648438 11.53125 11.511719 11.679688 L 10.789062 12.402344 C 10.644531 12.539062 10.527344 12.699219 10.445312 12.878906 C 10.363281 13.0625 10.316406 13.253906 10.308594 13.453125 C 10.300781 13.652344 10.332031 13.847656 10.402344 14.035156 C 10.46875 14.222656 10.574219 14.390625 10.707031 14.539062 L 11.332031 15.164062 C 11.027344 15.703125 10.792969 16.269531 10.628906 16.867188 L 9.746094 16.867188 C 9.542969 16.875 9.351562 16.921875 9.171875 17.003906 C 8.988281 17.089844 8.832031 17.203125 8.695312 17.351562 C 8.558594 17.5 8.453125 17.664062 8.386719 17.851562 C 8.316406 18.039062 8.285156 18.234375 8.289062 18.433594 L 8.289062 19.460938 C 8.285156 19.660156 8.316406 19.855469 8.386719 20.042969 C 8.453125 20.230469 8.558594 20.398438 8.695312 20.542969 C 8.832031 20.691406 8.988281 20.804688 9.171875 20.890625 C 9.351562 20.972656 9.542969 21.019531 9.746094 21.027344 L 10.628906 21.027344 C 10.792969 21.625 11.027344 22.191406 11.332031 22.730469 L 10.707031 23.355469 C 10.570312 23.503906 10.46875 23.671875 10.402344 23.859375 C 10.332031 24.046875 10.300781 24.242188 10.308594 24.441406 C 10.316406 24.640625 10.363281 24.832031 10.445312 25.015625 C 10.527344 25.195312 10.644531 25.355469 10.789062 25.492188 L 11.515625 26.21875 C 11.652344 26.363281 11.8125 26.480469 11.992188 26.5625 C 12.175781 26.644531 12.367188 26.691406 12.566406 26.699219 C 12.765625 26.703125 12.960938 26.675781 13.148438 26.605469 C 13.335938 26.535156 13.503906 26.433594 13.652344 26.296875 L 14.277344 25.671875 C 14.816406 25.976562 15.382812 26.210938 15.980469 26.378906 L 15.980469 27.261719 C 15.988281 27.460938 16.03125 27.652344 16.117188 27.835938 C 16.199219 28.015625 16.316406 28.175781 16.464844 28.3125 C 16.609375 28.449219 16.777344 28.550781 16.964844 28.621094 C 17.152344 28.691406 17.347656 28.722656 17.546875 28.714844 L 18.570312 28.714844 C 18.773438 28.722656 18.964844 28.691406 19.152344 28.621094 C 19.339844 28.550781 19.507812 28.449219 19.65625 28.3125 C 19.800781 28.175781 19.917969 28.015625 20.003906 27.835938 C 20.085938 27.652344 20.132812 27.460938 20.140625 27.261719 L 20.140625 26.378906 C 20.738281 26.214844 21.304688 25.976562 21.84375 25.671875 L 22.46875 26.296875 C 22.617188 26.433594 22.785156 26.535156 22.972656 26.605469 C 23.160156 26.675781 23.351562 26.707031 23.554688 26.699219 C 23.753906 26.691406 23.945312 26.644531 24.128906 26.5625 C 24.308594 26.476562 24.46875 26.363281 24.605469 26.21875 L 25.332031 25.492188 C 25.476562 25.355469 25.589844 25.195312 25.675781 25.011719 C 25.757812 24.832031 25.800781 24.640625 25.808594 24.441406 C 25.816406 24.238281 25.785156 24.046875 25.71875 23.859375 C 25.648438 23.671875 25.546875 23.503906 25.410156 23.355469 Z M 24.5625 24.726562 L 23.839844 25.449219 C 23.765625 25.539062 23.667969 25.59375 23.554688 25.609375 C 23.4375 25.625 23.332031 25.597656 23.234375 25.53125 L 22.3125 24.605469 C 22.222656 24.515625 22.113281 24.464844 21.984375 24.449219 C 21.859375 24.4375 21.742188 24.464844 21.632812 24.53125 C 20.96875 24.960938 20.253906 25.257812 19.480469 25.425781 C 19.355469 25.453125 19.253906 25.515625 19.175781 25.617188 C 19.09375 25.714844 19.054688 25.828125 19.054688 25.957031 L 19.054688 27.261719 C 19.054688 27.460938 18.832031 27.628906 18.570312 27.628906 L 17.546875 27.628906 C 17.285156 27.628906 17.0625 27.460938 17.0625 27.261719 L 17.0625 25.957031 C 17.0625 25.828125 17.023438 25.714844 16.945312 25.617188 C 16.863281 25.515625 16.761719 25.453125 16.636719 25.425781 C 15.867188 25.257812 15.148438 24.960938 14.484375 24.53125 C 14.378906 24.464844 14.261719 24.4375 14.132812 24.449219 C 14.007812 24.464844 13.898438 24.515625 13.808594 24.605469 L 12.886719 25.53125 C 12.789062 25.597656 12.683594 25.625 12.566406 25.609375 C 12.453125 25.59375 12.355469 25.539062 12.28125 25.449219 L 11.558594 24.726562 C 11.464844 24.652344 11.414062 24.554688 11.398438 24.441406 C 11.382812 24.324219 11.40625 24.21875 11.476562 24.125 L 12.402344 23.199219 C 12.492188 23.109375 12.542969 23 12.554688 22.875 C 12.570312 22.746094 12.542969 22.628906 12.472656 22.523438 C 12.046875 21.859375 11.75 21.140625 11.582031 20.371094 C 11.554688 20.246094 11.492188 20.140625 11.390625 20.0625 C 11.292969 19.980469 11.179688 19.941406 11.050781 19.941406 L 9.746094 19.941406 C 9.628906 19.921875 9.535156 19.867188 9.464844 19.773438 C 9.394531 19.679688 9.363281 19.574219 9.375 19.460938 L 9.375 18.433594 C 9.363281 18.320312 9.394531 18.214844 9.464844 18.121094 C 9.535156 18.027344 9.628906 17.972656 9.746094 17.953125 L 11.050781 17.953125 C 11.179688 17.953125 11.292969 17.914062 11.390625 17.832031 C 11.492188 17.753906 11.554688 17.648438 11.582031 17.527344 C 11.75 16.753906 12.046875 16.035156 12.472656 15.371094 C 12.542969 15.265625 12.570312 15.148438 12.554688 15.023438 C 12.542969 14.894531 12.492188 14.785156 12.402344 14.695312 L 11.476562 13.773438 C 11.40625 13.675781 11.382812 13.570312 11.398438 13.457031 C 11.414062 13.339844 11.464844 13.242188 11.558594 13.171875 L 12.28125 12.445312 C 12.355469 12.355469 12.449219 12.300781 12.566406 12.285156 C 12.683594 12.269531 12.789062 12.296875 12.882812 12.363281 L 13.808594 13.289062 C 13.898438 13.378906 14.007812 13.429688 14.132812 13.445312 C 14.257812 13.457031 14.375 13.429688 14.484375 13.363281 C 15.148438 12.933594 15.867188 12.636719 16.636719 12.46875 C 16.761719 12.441406 16.863281 12.378906 16.945312 12.28125 C 17.023438 12.179688 17.0625 12.066406 17.0625 11.9375 L 17.0625 10.632812 C 17.0625 10.433594 17.285156 10.265625 17.546875 10.265625 L 18.570312 10.265625 C 18.6875 10.253906 18.792969 10.28125 18.886719 10.351562 C 18.980469 10.425781 19.035156 10.515625 19.054688 10.632812 L 19.054688 11.9375 C 19.054688 12.066406 19.09375 12.179688 19.175781 12.28125 C 19.253906 12.378906 19.355469 12.441406 19.480469 12.46875 C 20.253906 12.636719 20.96875 12.933594 21.632812 13.363281 C 21.742188 13.429688 21.859375 13.457031 21.984375 13.445312 C 22.113281 13.429688 22.222656 13.378906 22.3125 13.289062 L 23.234375 12.363281 C 23.332031 12.296875 23.4375 12.269531 23.550781 12.285156 C 23.667969 12.300781 23.761719 12.355469 23.835938 12.445312 L 24.5625 13.171875 C 24.652344 13.246094 24.707031 13.339844 24.722656 13.457031 C 24.738281 13.570312 24.710938 13.675781 24.640625 13.773438 L 23.71875 14.695312 C 23.628906 14.785156 23.578125 14.894531 23.5625 15.023438 C 23.550781 15.148438 23.578125 15.265625 23.644531 15.371094 C 24.070312 16.039062 24.367188 16.753906 24.539062 17.527344 C 24.566406 17.648438 24.628906 17.753906 24.726562 17.832031 C 24.828125 17.914062 24.941406 17.953125 25.066406 17.953125 L 26.375 17.953125 C 26.488281 17.972656 26.582031 18.027344 26.652344 18.121094 C 26.722656 18.214844 26.753906 18.320312 26.742188 18.433594 L 26.742188 19.460938 C 26.753906 19.574219 26.722656 19.679688 26.652344 19.773438 C 26.582031 19.867188 26.488281 19.921875 26.375 19.941406 L 25.066406 19.941406 C 24.941406 19.941406 24.828125 19.980469 24.726562 20.0625 C 24.628906 20.140625 24.566406 20.246094 24.539062 20.367188 C 24.367188 21.140625 24.070312 21.859375 23.644531 22.523438 C 23.578125 22.628906 23.550781 22.746094 23.5625 22.875 C 23.578125 23 23.628906 23.109375 23.71875 23.199219 L 24.640625 24.121094 C 24.710938 24.21875 24.738281 24.324219 24.722656 24.441406 C 24.707031 24.554688 24.652344 24.652344 24.5625 24.726562 Z M 24.5625 24.726562 " fill-opacity="1" fill-rule="nonzero"/><path fill="#ff5757" d="M 18.058594 14.878906 C 17.792969 14.878906 17.527344 14.902344 17.265625 14.957031 C 17.003906 15.007812 16.75 15.085938 16.5 15.1875 C 16.253906 15.289062 16.019531 15.414062 15.796875 15.5625 C 15.574219 15.710938 15.371094 15.878906 15.179688 16.070312 C 14.992188 16.257812 14.824219 16.464844 14.675781 16.6875 C 14.527344 16.910156 14.402344 17.144531 14.300781 17.390625 C 14.195312 17.636719 14.121094 17.890625 14.066406 18.152344 C 14.015625 18.414062 13.988281 18.679688 13.988281 18.949219 C 13.988281 19.214844 14.015625 19.480469 14.066406 19.742188 C 14.121094 20.003906 14.195312 20.257812 14.300781 20.503906 C 14.402344 20.75 14.527344 20.988281 14.675781 21.207031 C 14.824219 21.429688 14.992188 21.636719 15.179688 21.824219 C 15.371094 22.015625 15.574219 22.183594 15.796875 22.332031 C 16.019531 22.480469 16.253906 22.605469 16.5 22.707031 C 16.75 22.808594 17.003906 22.886719 17.265625 22.9375 C 17.527344 22.992188 17.792969 23.015625 18.058594 23.015625 C 18.328125 23.015625 18.589844 22.992188 18.851562 22.9375 C 19.117188 22.886719 19.371094 22.808594 19.617188 22.707031 C 19.863281 22.605469 20.097656 22.480469 20.320312 22.332031 C 20.542969 22.183594 20.75 22.015625 20.9375 21.824219 C 21.125 21.636719 21.296875 21.429688 21.445312 21.207031 C 21.59375 20.988281 21.71875 20.75 21.820312 20.503906 C 21.921875 20.257812 22 20.003906 22.050781 19.742188 C 22.101562 19.480469 22.128906 19.214844 22.128906 18.949219 C 22.128906 18.679688 22.101562 18.414062 22.050781 18.152344 C 22 17.890625 21.921875 17.636719 21.820312 17.390625 C 21.71875 17.144531 21.59375 16.90625 21.445312 16.6875 C 21.296875 16.464844 21.125 16.257812 20.9375 16.070312 C 20.75 15.878906 20.542969 15.710938 20.320312 15.5625 C 20.097656 15.414062 19.863281 15.289062 19.617188 15.1875 C 19.371094 15.085938 19.113281 15.007812 18.851562 14.957031 C 18.589844 14.902344 18.324219 14.878906 18.058594 14.878906 Z M 18.058594 21.933594 C 17.664062 21.933594 17.28125 21.855469 16.917969 21.703125 C 16.550781 21.554688 16.226562 21.335938 15.949219 21.058594 C 15.667969 20.777344 15.453125 20.457031 15.300781 20.089844 C 15.148438 19.722656 15.074219 19.34375 15.074219 18.949219 C 15.074219 18.550781 15.148438 18.171875 15.300781 17.804688 C 15.453125 17.441406 15.667969 17.117188 15.949219 16.835938 C 16.230469 16.558594 16.550781 16.339844 16.917969 16.191406 C 17.28125 16.039062 17.664062 15.960938 18.058594 15.960938 C 18.453125 15.960938 18.835938 16.039062 19.203125 16.191406 C 19.566406 16.339844 19.890625 16.558594 20.167969 16.835938 C 20.449219 17.117188 20.664062 17.441406 20.816406 17.804688 C 20.96875 18.171875 21.042969 18.550781 21.042969 18.949219 C 21.042969 19.34375 20.96875 19.722656 20.816406 20.089844 C 20.664062 20.453125 20.449219 20.777344 20.167969 21.058594 C 19.890625 21.335938 19.566406 21.550781 19.199219 21.703125 C 18.835938 21.855469 18.453125 21.933594 18.058594 21.933594 Z M 18.058594 21.933594 " fill-opacity="1" fill-rule="nonzero"/><g clip-path="url(#e944714450)"><path fill="#ff5757" d="M 16.15625 5.441406 L 17.515625 6.234375 L 17.515625 8.09375 C 17.527344 8.09375 17.539062 8.09375 17.546875 8.09375 L 18.570312 8.09375 C 18.582031 8.09375 18.589844 8.09375 18.601562 8.09375 L 18.601562 6.234375 L 19.960938 5.441406 C 20.140625 5.335938 20.230469 5.179688 20.230469 4.972656 L 20.230469 3.074219 C 20.230469 2.867188 20.140625 2.710938 19.960938 2.605469 L 18.332031 1.65625 C 18.148438 1.550781 17.96875 1.550781 17.785156 1.65625 L 16.15625 2.605469 C 15.976562 2.710938 15.886719 2.867188 15.886719 3.074219 L 15.886719 4.972656 C 15.886719 5.179688 15.976562 5.335938 16.15625 5.441406 Z M 16.972656 3.386719 L 18.058594 2.753906 L 19.144531 3.386719 L 19.144531 4.660156 L 18.058594 5.292969 L 16.972656 4.660156 Z M 16.972656 3.386719 " fill-opacity="1" fill-rule="nonzero"/></g><g clip-path="url(#1a7c474964)"><path fill="#ff5757" d="M 19.960938 32.453125 L 18.601562 31.660156 L 18.601562 29.800781 C 18.589844 29.800781 18.582031 29.800781 18.570312 29.800781 L 17.546875 29.800781 C 17.539062 29.800781 17.527344 29.800781 17.515625 29.800781 L 17.515625 31.660156 L 16.15625 32.453125 C 15.976562 32.558594 15.886719 32.714844 15.886719 32.921875 L 15.886719 34.820312 C 15.886719 35.027344 15.976562 35.183594 16.15625 35.289062 L 17.785156 36.238281 C 17.96875 36.347656 18.148438 36.347656 18.332031 36.238281 L 19.960938 35.289062 C 20.140625 35.183594 20.230469 35.027344 20.230469 34.820312 L 20.230469 32.921875 C 20.230469 32.714844 20.140625 32.558594 19.960938 32.453125 Z M 19.144531 34.507812 L 18.058594 35.140625 L 16.972656 34.507812 L 16.972656 33.234375 L 18.058594 32.601562 L 19.144531 33.234375 Z M 19.144531 34.507812 " fill-opacity="1" fill-rule="nonzero"/></g><g clip-path="url(#3d2f70e743)"><path fill="#ff5757" d="M 35.15625 17.527344 L 33.527344 16.578125 C 33.34375 16.472656 33.164062 16.472656 32.980469 16.578125 L 31.351562 17.527344 C 31.171875 17.632812 31.082031 17.789062 31.082031 17.996094 L 31.082031 18.40625 L 28.910156 18.40625 C 28.910156 18.414062 28.914062 18.425781 28.914062 18.433594 L 28.914062 19.460938 C 28.914062 19.46875 28.910156 19.480469 28.910156 19.488281 L 31.082031 19.488281 L 31.082031 19.898438 C 31.082031 20.105469 31.171875 20.261719 31.351562 20.367188 L 32.980469 21.316406 C 33.164062 21.421875 33.34375 21.421875 33.527344 21.316406 L 35.15625 20.367188 C 35.335938 20.261719 35.425781 20.105469 35.425781 19.898438 L 35.425781 17.996094 C 35.425781 17.789062 35.335938 17.632812 35.15625 17.527344 Z M 34.339844 19.585938 L 33.253906 20.21875 L 32.167969 19.585938 L 32.167969 18.308594 L 33.253906 17.675781 L 34.339844 18.308594 Z M 34.339844 19.585938 " fill-opacity="1" fill-rule="nonzero"/></g><path fill="#ff5757" d="M 29.476562 27.292969 C 29.328125 27.148438 29.15625 27.101562 28.953125 27.152344 L 27.433594 27.554688 L 26.117188 26.238281 C 26.109375 26.246094 26.105469 26.25 26.097656 26.257812 L 25.371094 26.984375 C 25.367188 26.992188 25.355469 27 25.351562 27.003906 L 26.664062 28.320312 L 26.265625 29.839844 C 26.210938 30.042969 26.257812 30.214844 26.40625 30.363281 L 27.75 31.707031 C 27.894531 31.851562 28.070312 31.902344 28.269531 31.847656 L 30.09375 31.367188 C 30.296875 31.3125 30.425781 31.183594 30.480469 30.980469 L 30.960938 29.160156 C 31.011719 28.957031 30.964844 28.785156 30.820312 28.636719 Z M 29.511719 30.398438 L 28.296875 30.71875 L 27.394531 29.816406 L 27.714844 28.601562 L 28.929688 28.28125 L 29.832031 29.183594 Z M 29.511719 30.398438 " fill-opacity="1" fill-rule="nonzero"/><path fill="#ff5757" d="M 6.644531 10.601562 C 6.789062 10.746094 6.964844 10.796875 7.164062 10.742188 L 8.6875 10.34375 L 10.003906 11.65625 C 10.011719 11.648438 10.015625 11.640625 10.023438 11.632812 L 10.746094 10.910156 C 10.753906 10.902344 10.761719 10.898438 10.769531 10.890625 L 9.453125 9.574219 L 9.855469 8.054688 C 9.90625 7.851562 9.859375 7.679688 9.710938 7.53125 L 8.371094 6.1875 C 8.222656 6.042969 8.050781 5.992188 7.847656 6.046875 L 6.023438 6.527344 C 5.820312 6.582031 5.691406 6.710938 5.636719 6.914062 L 5.160156 8.734375 C 5.105469 8.9375 5.152344 9.109375 5.300781 9.257812 Z M 6.609375 7.496094 L 7.824219 7.175781 L 8.726562 8.078125 L 8.40625 9.292969 L 7.191406 9.613281 L 6.289062 8.710938 Z M 6.609375 7.496094 " fill-opacity="1" fill-rule="nonzero"/></svg>