<svg xmlns="http://www.w3.org/2000/svg" xmlns:xlink="http://www.w3.org/1999/xlink" width="50" zoomAndPan="magnify" viewBox="0 0 37.5 37.499999" height="50" preserveAspectRatio="xMidYMid meet" version="1.0"><defs><clipPath id="c4f97abe79"><path d="M 1.339844 1 L 36.867188 1 L 36.867188 34 L 1.339844 34 Z M 1.339844 1 " clip-rule="nonzero"/></clipPath></defs><g clip-path="url(#c4f97abe79)"><path fill="#0097b2" d="M 26.261719 21.308594 C 26.859375 21.507812 27.402344 21.820312 27.867188 22.238281 L 29.019531 21.859375 C 29.167969 21.8125 29.328125 21.882812 29.398438 22.019531 L 30.320312 23.617188 C 30.398438 23.738281 30.367188 23.902344 30.257812 24.003906 L 29.351562 24.808594 C 29.414062 25.109375 29.445312 25.417969 29.445312 25.738281 C 29.445312 26.046875 29.414062 26.355469 29.351562 26.664062 L 30.257812 27.46875 C 30.375 27.578125 30.398438 27.75 30.304688 27.878906 L 29.382812 29.476562 C 29.304688 29.605469 29.160156 29.660156 29.019531 29.613281 L 27.867188 29.234375 C 27.402344 29.644531 26.859375 29.964844 26.261719 30.164062 L 26.015625 31.347656 C 25.984375 31.496094 25.859375 31.597656 25.714844 31.597656 L 23.847656 31.597656 C 23.695312 31.597656 23.5625 31.480469 23.539062 31.324219 L 23.296875 30.164062 C 22.703125 29.964844 22.160156 29.652344 21.695312 29.234375 L 20.550781 29.613281 C 20.394531 29.660156 20.234375 29.589844 20.171875 29.453125 L 19.25 27.859375 C 19.179688 27.726562 19.203125 27.570312 19.3125 27.46875 L 20.210938 26.664062 C 20.148438 26.355469 20.117188 26.046875 20.117188 25.738281 C 20.117188 25.425781 20.148438 25.117188 20.210938 24.808594 L 19.3125 24.003906 C 19.195312 23.902344 19.171875 23.730469 19.257812 23.601562 L 20.1875 21.996094 C 20.265625 21.867188 20.410156 21.8125 20.550781 21.859375 L 21.695312 22.238281 C 22.160156 21.828125 22.703125 21.507812 23.296875 21.308594 L 23.546875 20.125 C 23.578125 19.976562 23.707031 19.875 23.847656 19.875 L 25.722656 19.875 C 25.875 19.875 26.007812 19.992188 26.03125 20.148438 Z M 26.804688 22.230469 C 26.535156 22.074219 26.242188 21.941406 25.929688 21.859375 C 25.824219 21.828125 25.730469 21.742188 25.699219 21.617188 L 25.464844 20.503906 L 24.097656 20.503906 L 23.863281 21.617188 C 23.839844 21.726562 23.761719 21.820312 23.648438 21.851562 C 23.074219 22.019531 22.410156 22.375 22 22.792969 C 21.921875 22.878906 21.789062 22.917969 21.671875 22.878906 L 20.589844 22.523438 L 19.90625 23.707031 L 20.75 24.46875 C 20.835938 24.535156 20.875 24.652344 20.84375 24.769531 C 20.765625 25.085938 20.726562 25.410156 20.726562 25.730469 C 20.726562 26.046875 20.765625 26.363281 20.835938 26.671875 C 20.875 26.78125 20.84375 26.914062 20.742188 27 L 19.890625 27.757812 L 20.574219 28.941406 L 21.65625 28.585938 C 21.765625 28.554688 21.882812 28.578125 21.96875 28.65625 C 22.402344 29.074219 23.027344 29.453125 23.617188 29.613281 C 23.722656 29.644531 23.824219 29.730469 23.847656 29.855469 L 24.082031 30.96875 L 25.449219 30.96875 L 25.683594 29.855469 C 25.707031 29.746094 25.785156 29.652344 25.898438 29.621094 C 26.472656 29.453125 27.136719 29.097656 27.546875 28.679688 C 27.625 28.59375 27.757812 28.554688 27.875 28.59375 L 28.957031 28.949219 L 29.640625 27.765625 L 28.789062 27.007812 C 28.703125 26.9375 28.664062 26.820312 28.695312 26.703125 C 28.773438 26.386719 28.8125 26.070312 28.8125 25.746094 C 28.8125 25.425781 28.773438 25.109375 28.703125 24.800781 C 28.664062 24.691406 28.695312 24.558594 28.796875 24.472656 L 29.648438 23.714844 L 28.964844 22.53125 L 27.882812 22.886719 C 27.773438 22.925781 27.65625 22.894531 27.570312 22.816406 C 27.347656 22.585938 27.085938 22.390625 26.804688 22.230469 Z M 24.777344 23.027344 C 26.269531 23.027344 27.480469 24.234375 27.480469 25.730469 C 27.480469 27.222656 26.269531 28.429688 24.777344 28.429688 C 23.28125 28.429688 22.074219 27.222656 22.074219 25.730469 C 22.074219 24.242188 23.289062 23.027344 24.777344 23.027344 Z M 26.257812 24.257812 C 24.949219 22.949219 22.695312 23.878906 22.695312 25.730469 C 22.695312 27.578125 24.949219 28.515625 26.257812 27.199219 C 27.070312 26.394531 27.070312 25.070312 26.257812 24.257812 Z M 24.777344 17.484375 C 25 17.484375 25.226562 17.492188 25.441406 17.507812 L 25.441406 15.277344 L 23.871094 16.847656 C 23.746094 16.972656 23.554688 16.972656 23.4375 16.847656 L 22.871094 16.285156 L 22.871094 17.699219 C 23.484375 17.5625 24.128906 17.484375 24.777344 17.484375 Z M 26.070312 17.585938 C 27.324219 17.785156 28.476562 18.257812 29.476562 18.945312 L 29.476562 11.253906 L 26.070312 14.660156 Z M 30.09375 19.417969 C 33.796875 22.539062 34.035156 28.144531 30.613281 31.566406 C 27.394531 34.785156 22.167969 34.785156 18.949219 31.566406 C 18.242188 30.859375 17.671875 30.03125 17.253906 29.121094 C 15.929688 32.054688 13.011719 33.980469 9.726562 33.980469 C 5.167969 33.988281 1.476562 30.289062 1.476562 25.738281 C 1.476562 24.164062 1.917969 22.695312 2.675781 21.449219 L 1.707031 20.472656 C 1.582031 20.347656 1.582031 20.15625 1.707031 20.039062 L 3.472656 18.273438 C 3.597656 18.148438 3.789062 18.148438 3.90625 18.273438 L 4.765625 19.132812 C 5.8125 18.351562 7.042969 17.808594 8.386719 17.585938 L 8.386719 16.671875 C 7.800781 16.671875 7.34375 16.726562 6.871094 16.261719 C 5.988281 15.378906 6.632812 13.882812 7.855469 13.882812 L 11.578125 13.882812 C 11.878906 13.882812 12.167969 13.984375 12.398438 14.15625 L 19.148438 7.40625 C 19.273438 7.28125 19.464844 7.28125 19.589844 7.40625 L 23.65625 11.46875 L 30.164062 4.957031 L 28.847656 3.632812 C 28.6875 3.472656 28.742188 3.179688 29.011719 3.117188 L 36.542969 1.011719 C 36.777344 0.949219 36.992188 1.15625 36.921875 1.398438 L 34.808594 8.945312 C 34.75 9.175781 34.460938 9.246094 34.292969 9.085938 L 32.96875 7.761719 L 30.09375 10.632812 Z M 16.925781 28.277344 C 16.664062 27.476562 16.523438 26.617188 16.523438 25.730469 C 16.523438 24.839844 16.664062 23.988281 16.925781 23.183594 C 16.726562 22.617188 16.464844 22.074219 16.136719 21.578125 C 16.128906 21.570312 16.121094 21.554688 16.113281 21.539062 C 15.679688 20.875 15.140625 20.277344 14.519531 19.785156 C 14.023438 19.394531 13.613281 19.117188 13.027344 18.839844 C 10.082031 17.429688 6.609375 18.058594 4.332031 20.324219 C 1.351562 23.304688 1.351562 28.136719 4.332031 31.117188 C 6.972656 33.757812 11.136719 34.105469 14.171875 31.929688 C 15.433594 31.039062 16.402344 29.761719 16.925781 28.277344 Z M 17.253906 22.34375 C 17.515625 21.765625 17.839844 21.214844 18.226562 20.71875 L 18.226562 13.945312 L 15.648438 16.523438 L 15.648438 18.210938 C 15.757812 18.171875 15.890625 18.195312 15.976562 18.28125 L 17.742188 20.046875 C 17.863281 20.171875 17.863281 20.363281 17.742188 20.480469 L 16.773438 21.449219 C 16.957031 21.734375 17.113281 22.035156 17.253906 22.34375 Z M 18.847656 20 C 19.785156 19.03125 20.945312 18.296875 22.253906 17.878906 L 22.253906 15.671875 L 19.375 12.792969 L 18.839844 13.328125 L 18.839844 20 Z M 30.179688 20.339844 L 29.585938 19.796875 C 28.507812 18.925781 27.183594 18.34375 25.738281 18.164062 C 24.566406 18.042969 23.785156 18.101562 22.640625 18.414062 C 21.394531 18.777344 20.28125 19.449219 19.390625 20.339844 C 16.417969 23.3125 16.402344 28.144531 19.390625 31.132812 C 22.371094 34.113281 27.199219 34.113281 30.179688 31.132812 C 33.160156 28.152344 33.160156 23.3125 30.179688 20.339844 Z M 10.039062 24.242188 C 10.949219 24.429688 11.492188 25.402344 11.152344 26.285156 L 12.113281 26.90625 C 12.453125 27.121094 12.121094 27.648438 11.78125 27.425781 L 10.820312 26.804688 C 9.851562 27.78125 8.203125 27.089844 8.203125 25.738281 C 8.203125 25.007812 8.722656 24.390625 9.417969 24.242188 L 9.417969 22.253906 C 9.417969 21.851562 10.039062 21.851562 10.039062 22.253906 Z M 10.371094 25.09375 C 9.804688 24.527344 8.820312 24.929688 8.820312 25.738281 C 8.820312 26.542969 9.796875 26.945312 10.371094 26.378906 C 10.71875 26.023438 10.71875 25.441406 10.371094 25.09375 Z M 9.417969 20.796875 C 9.417969 20.386719 10.039062 20.386719 10.039062 20.796875 L 10.039062 21.175781 C 10.039062 21.578125 9.417969 21.578125 9.417969 21.175781 Z M 14.15625 27.933594 C 14.503906 28.136719 14.195312 28.679688 13.847656 28.46875 L 13.511719 28.277344 C 13.164062 28.074219 13.46875 27.539062 13.824219 27.742188 Z M 14.660156 25.425781 C 15.0625 25.425781 15.0625 26.046875 14.660156 26.046875 L 14.28125 26.046875 C 13.871094 26.046875 13.871094 25.425781 14.28125 25.425781 Z M 13.847656 22.996094 C 14.195312 22.792969 14.503906 23.328125 14.15625 23.53125 L 13.824219 23.714844 C 13.46875 23.917969 13.164062 23.382812 13.511719 23.183594 Z M 6.996094 21.617188 C 6.792969 21.269531 7.328125 20.960938 7.53125 21.308594 L 7.714844 21.640625 C 7.917969 21.988281 7.382812 22.300781 7.179688 21.949219 Z M 5.300781 23.539062 C 4.945312 23.335938 5.253906 22.800781 5.609375 23.003906 L 5.941406 23.195312 C 6.289062 23.398438 5.988281 23.933594 5.632812 23.730469 Z M 4.796875 26.046875 C 4.386719 26.046875 4.386719 25.425781 4.796875 25.425781 L 5.175781 25.425781 C 5.585938 25.425781 5.585938 26.046875 5.175781 26.046875 Z M 5.609375 28.46875 C 5.261719 28.671875 4.953125 28.136719 5.300781 27.933594 L 5.632812 27.75 C 5.980469 27.546875 6.289062 28.082031 5.941406 28.285156 Z M 7.53125 30.15625 C 7.328125 30.511719 6.785156 30.203125 6.996094 29.847656 L 7.179688 29.515625 C 7.382812 29.164062 7.925781 29.476562 7.714844 29.824219 Z M 10.039062 30.667969 C 10.039062 31.078125 9.417969 31.078125 9.417969 30.667969 L 9.417969 30.289062 C 9.417969 29.878906 10.039062 29.878906 10.039062 30.289062 Z M 12.460938 29.847656 C 12.660156 30.203125 12.128906 30.511719 11.925781 30.15625 L 11.734375 29.824219 C 11.53125 29.476562 12.066406 29.164062 12.265625 29.515625 Z M 11.925781 21.308594 C 12.128906 20.953125 12.660156 21.261719 12.460938 21.617188 L 12.273438 21.949219 C 12.074219 22.300781 11.53125 21.988281 11.742188 21.640625 Z M 9.726562 19.480469 C 13.179688 19.480469 15.976562 22.277344 15.976562 25.730469 C 15.976562 29.179688 13.179688 31.976562 9.726562 31.976562 C 6.273438 31.976562 3.480469 29.179688 3.480469 25.730469 C 3.480469 22.285156 6.273438 19.480469 9.726562 19.480469 Z M 13.707031 21.75 C 11.507812 19.550781 7.941406 19.550781 5.742188 21.75 C 3.542969 23.949219 3.542969 27.507812 5.742188 29.707031 C 7.941406 31.90625 11.507812 31.90625 13.707031 29.707031 C 15.90625 27.515625 15.90625 23.949219 13.707031 21.75 Z M 3.023438 20.921875 C 3.394531 20.410156 3.820312 19.945312 4.292969 19.527344 L 3.699219 18.933594 L 2.367188 20.261719 Z M 9.015625 17.507812 C 9.488281 17.46875 9.960938 17.46875 10.441406 17.507812 L 10.441406 16.671875 L 9.015625 16.671875 Z M 11.058594 17.585938 C 11.773438 17.699219 12.453125 17.910156 13.09375 18.195312 L 19.15625 12.132812 C 19.28125 12.011719 19.472656 12.011719 19.597656 12.132812 L 23.664062 16.199219 L 32.75 7.101562 C 32.875 6.980469 33.066406 6.980469 33.191406 7.101562 L 34.359375 8.273438 L 36.179688 1.753906 L 29.664062 3.582031 L 30.832031 4.75 C 30.953125 4.875 30.953125 5.066406 30.832031 5.191406 L 23.886719 12.132812 C 23.761719 12.257812 23.570312 12.257812 23.453125 12.132812 L 19.390625 8.070312 L 12.816406 14.628906 C 13.320312 15.546875 12.636719 16.679688 11.59375 16.679688 L 11.058594 16.679688 Z M 13.683594 18.492188 C 14.03125 18.683594 14.363281 18.894531 14.683594 19.132812 L 15.039062 18.777344 L 15.039062 17.136719 Z M 15.164062 19.527344 C 15.632812 19.945312 16.058594 20.410156 16.433594 20.921875 L 17.089844 20.261719 L 15.757812 18.933594 Z M 11.59375 14.511719 L 7.871094 14.511719 C 7.1875 14.511719 6.832031 15.339844 7.320312 15.828125 C 7.460938 15.964844 7.652344 16.050781 7.871094 16.050781 L 11.59375 16.050781 C 12.273438 16.050781 12.632812 15.222656 12.144531 14.734375 C 11.996094 14.597656 11.800781 14.511719 11.59375 14.511719 Z M 11.59375 14.511719 " fill-opacity="1" fill-rule="nonzero"/></g></svg>