<svg xmlns="http://www.w3.org/2000/svg" xmlns:xlink="http://www.w3.org/1999/xlink" width="1080" zoomAndPan="magnify" viewBox="0 0 810 809.999993" height="1080" preserveAspectRatio="xMidYMid meet" version="1.0"><defs><clipPath id="eae5ab181a"><path d="M 365 704 L 448 704 L 448 761.703125 L 365 761.703125 Z M 365 704 " clip-rule="nonzero"/></clipPath></defs><path fill="#000000" d="M 494.003906 660.414062 L 318.691406 660.414062 C 314.160156 660.414062 310.488281 656.734375 310.488281 652.199219 L 310.488281 615.804688 C 310.488281 570.117188 293.390625 525.511719 262.351562 490.183594 C 231.574219 455.179688 214.625 410.195312 214.625 363.519531 C 214.625 311.734375 234.925781 263.199219 271.78125 226.851562 C 308.628906 190.507812 357.472656 170.914062 409.203125 171.675781 C 459.210938 172.402344 506.347656 192.464844 541.933594 228.171875 C 577.519531 263.875 597.449219 311.097656 598.058594 361.148438 C 598.605469 406.660156 582.953125 450.980469 553.976562 485.941406 C 551.082031 489.429688 545.910156 489.910156 542.421875 487.019531 C 538.933594 484.125 538.453125 478.945312 541.34375 475.453125 C 567.835938 443.488281 582.148438 402.964844 581.648438 361.347656 C 580.503906 267.183594 503.039062 189.464844 408.964844 188.097656 C 361.617188 187.394531 316.996094 205.320312 283.304688 238.546875 C 249.601562 271.789062 231.039062 316.167969 231.039062 363.519531 C 231.039062 406.199219 246.535156 447.332031 274.675781 479.339844 C 308.355469 517.664062 326.902344 566.125 326.902344 615.792969 L 326.902344 643.992188 L 485.800781 643.992188 L 485.800781 615.804688 C 485.800781 583.859375 493.5 551.863281 508.070312 523.257812 C 510.132812 519.214844 515.074219 517.613281 519.109375 519.671875 C 523.144531 521.730469 524.753906 526.675781 522.695312 530.71875 C 509.292969 557.023438 502.210938 586.441406 502.210938 615.792969 L 502.210938 652.203125 C 502.210938 656.738281 498.535156 660.414062 494.003906 660.414062 Z M 494.003906 660.414062 " fill-opacity="1" fill-rule="nonzero"/><path fill="#000000" d="M 461.550781 721.125 L 351.144531 721.125 C 346.613281 721.125 342.9375 717.449219 342.9375 712.914062 L 342.9375 651.695312 C 342.9375 647.160156 346.613281 643.480469 351.144531 643.480469 L 461.550781 643.480469 C 466.082031 643.480469 469.757812 647.160156 469.757812 651.695312 L 469.757812 712.914062 C 469.757812 717.449219 466.085938 721.125 461.550781 721.125 Z M 359.351562 704.699219 L 453.347656 704.699219 L 453.347656 659.90625 L 359.351562 659.90625 Z M 359.351562 704.699219 " fill-opacity="1" fill-rule="nonzero"/><g clip-path="url(#eae5ab181a)"><path fill="#000000" d="M 406.347656 761.441406 C 383.722656 761.441406 365.320312 743.023438 365.320312 720.378906 L 365.320312 712.914062 C 365.320312 708.378906 368.996094 704.699219 373.527344 704.699219 C 378.058594 704.699219 381.730469 708.378906 381.730469 712.914062 L 381.730469 720.378906 C 381.730469 733.964844 392.773438 745.015625 406.347656 745.015625 C 419.921875 745.015625 430.964844 733.964844 430.964844 720.378906 L 430.964844 712.914062 C 430.964844 708.378906 434.640625 704.699219 439.171875 704.699219 C 443.703125 704.699219 447.378906 708.378906 447.378906 712.914062 L 447.378906 720.378906 C 447.378906 743.023438 428.972656 761.441406 406.347656 761.441406 Z M 406.347656 761.441406 " fill-opacity="1" fill-rule="nonzero"/></g><path fill="#000000" d="M 494.003906 624.011719 L 318.695312 624.011719 C 314.164062 624.011719 310.488281 620.335938 310.488281 615.800781 C 310.488281 611.265625 314.164062 607.585938 318.695312 607.585938 L 494.003906 607.585938 C 498.535156 607.585938 502.210938 611.265625 502.210938 615.800781 C 502.210938 620.335938 498.535156 624.011719 494.003906 624.011719 Z M 494.003906 624.011719 " fill-opacity="1" fill-rule="nonzero"/><path fill="#000000" d="M 406.347656 129.195312 C 401.816406 129.195312 398.144531 125.515625 398.144531 120.980469 L 398.144531 52.425781 C 398.144531 47.890625 401.816406 44.214844 406.347656 44.214844 C 410.878906 44.214844 414.554688 47.890625 414.554688 52.425781 L 414.554688 120.980469 C 414.554688 125.515625 410.878906 129.195312 406.347656 129.195312 Z M 406.347656 129.195312 " fill-opacity="1" fill-rule="nonzero"/><path fill="#000000" d="M 313.527344 154.085938 C 310.691406 154.085938 307.933594 152.613281 306.414062 149.980469 L 272.164062 90.609375 C 269.898438 86.679688 271.242188 81.660156 275.167969 79.390625 C 279.09375 77.125 284.109375 78.46875 286.378906 82.398438 L 320.628906 141.765625 C 322.894531 145.695312 321.546875 150.71875 317.625 152.984375 C 316.332031 153.730469 314.921875 154.085938 313.527344 154.085938 Z M 313.527344 154.085938 " fill-opacity="1" fill-rule="nonzero"/><path fill="#000000" d="M 245.558594 222.09375 C 244.167969 222.09375 242.757812 221.738281 241.464844 220.992188 L 182.140625 186.714844 C 178.214844 184.445312 176.871094 179.425781 179.136719 175.496094 C 181.402344 171.570312 186.421875 170.222656 190.347656 172.492188 L 249.671875 206.769531 C 253.597656 209.035156 254.941406 214.058594 252.675781 217.988281 C 251.152344 220.621094 248.394531 222.09375 245.558594 222.09375 Z M 245.558594 222.09375 " fill-opacity="1" fill-rule="nonzero"/><path fill="#000000" d="M 567.140625 222.09375 C 564.304688 222.09375 561.542969 220.621094 560.023438 217.988281 C 557.761719 214.058594 559.101562 209.035156 563.027344 206.769531 L 622.351562 172.492188 C 626.277344 170.222656 631.296875 171.570312 633.5625 175.496094 C 635.828125 179.425781 634.484375 184.445312 630.558594 186.714844 L 571.234375 220.992188 C 569.941406 221.738281 568.53125 222.09375 567.140625 222.09375 Z M 567.140625 222.09375 " fill-opacity="1" fill-rule="nonzero"/><path fill="#000000" d="M 499.167969 154.085938 C 497.777344 154.085938 496.367188 153.730469 495.074219 152.984375 C 491.148438 150.71875 489.804688 145.695312 492.070312 141.765625 L 526.320312 82.398438 C 528.585938 78.46875 533.605469 77.125 537.53125 79.390625 C 541.457031 81.660156 542.800781 86.683594 540.535156 90.609375 L 506.28125 149.980469 C 504.761719 152.613281 502.003906 154.085938 499.167969 154.085938 Z M 499.167969 154.085938 " fill-opacity="1" fill-rule="nonzero"/><path fill="#000000" d="M 414.539062 464.144531 C 391.292969 464.144531 368.539062 457.363281 348.683594 444.261719 C 321.914062 426.59375 303.617188 399.546875 297.171875 368.109375 C 290.722656 336.667969 296.894531 304.597656 314.550781 277.804688 C 332.207031 251.007812 359.230469 232.703125 390.644531 226.25 C 455.496094 212.929688 519.085938 254.898438 532.394531 319.796875 C 545.703125 384.699219 503.769531 448.335938 438.917969 461.65625 C 430.800781 463.324219 422.640625 464.144531 414.539062 464.144531 Z M 414.8125 240.210938 C 407.925781 240.210938 400.949219 240.902344 393.945312 242.339844 C 366.824219 247.910156 343.492188 263.714844 328.253906 286.847656 C 313.011719 309.976562 307.683594 337.664062 313.246094 364.804688 C 324.734375 420.835938 379.636719 457.0625 435.617188 445.566406 C 491.605469 434.066406 527.804688 379.128906 516.316406 323.097656 C 506.265625 274.078125 462.980469 240.210938 414.8125 240.210938 Z M 414.8125 240.210938 " fill-opacity="1" fill-rule="nonzero"/><path fill="#000000" d="M 514.082031 491.671875 C 511.6875 491.671875 509.316406 490.628906 507.695312 488.625 L 470.316406 442.382812 C 467.464844 438.855469 468.007812 433.6875 471.53125 430.832031 C 475.054688 427.976562 480.21875 428.523438 483.070312 432.050781 L 520.457031 478.296875 C 523.304688 481.820312 522.761719 486.992188 519.234375 489.84375 C 517.71875 491.074219 515.894531 491.671875 514.082031 491.671875 Z M 514.082031 491.671875 " fill-opacity="1" fill-rule="nonzero"/><path fill="#000000" d="M 576.328125 589.675781 C 575.597656 589.675781 574.867188 589.652344 574.132812 589.609375 C 564.488281 589.035156 555.644531 584.734375 549.230469 577.507812 L 505.644531 528.371094 C 499.230469 521.140625 496.015625 511.84375 496.585938 502.191406 C 497.160156 492.539062 501.457031 483.6875 508.679688 477.269531 C 515.90625 470.847656 525.210938 467.621094 534.839844 468.203125 C 544.484375 468.777344 553.332031 473.078125 559.742188 480.308594 L 603.332031 529.441406 C 616.574219 544.371094 615.210938 567.292969 600.292969 580.546875 C 593.617188 586.476562 585.179688 589.675781 576.328125 589.675781 Z M 532.664062 484.5625 C 527.832031 484.5625 523.222656 486.3125 519.574219 489.554688 C 515.628906 493.058594 513.28125 497.894531 512.96875 503.164062 C 512.65625 508.4375 514.414062 513.515625 517.917969 517.464844 L 561.503906 566.601562 C 568.738281 574.757812 581.25 575.5 589.398438 568.261719 C 597.546875 561.023438 598.289062 548.5 591.058594 540.347656 L 547.46875 491.210938 C 543.964844 487.261719 539.132812 484.914062 533.867188 484.597656 C 533.464844 484.578125 533.0625 484.5625 532.664062 484.5625 Z M 532.664062 484.5625 " fill-opacity="1" fill-rule="nonzero"/></svg>