<svg xmlns="http://www.w3.org/2000/svg" xmlns:xlink="http://www.w3.org/1999/xlink" width="1080" zoomAndPan="magnify" viewBox="0 0 810 809.999993" height="1080" preserveAspectRatio="xMidYMid meet" version="1.0"><defs><clipPath id="b8835277ad"><path d="M 305 437 L 538 437 L 538 706.453125 L 305 706.453125 Z M 305 437 " clip-rule="nonzero"/></clipPath><clipPath id="7069d003fd"><path d="M 671 486 L 728.976562 486 L 728.976562 510 L 671 510 Z M 671 486 " clip-rule="nonzero"/></clipPath><clipPath id="a6bc45b8cb"><path d="M 176 85.453125 L 397 85.453125 L 397 354 L 176 354 Z M 176 85.453125 " clip-rule="nonzero"/></clipPath><clipPath id="a6a109e402"><path d="M 431 85.453125 L 728.976562 85.453125 L 728.976562 384 L 431 384 Z M 431 85.453125 " clip-rule="nonzero"/></clipPath></defs><g clip-path="url(#b8835277ad)"><path fill="#000000" d="M 517.859375 706.460938 C 479.46875 645.078125 445.640625 634.722656 415.777344 625.578125 C 402.710938 621.589844 390.371094 617.804688 379.003906 610.234375 C 369.320312 603.78125 305.191406 549.207031 305.191406 497.683594 C 305.191406 480.085938 305.167969 462.96875 330.917969 437.242188 L 347.117188 453.433594 C 328.085938 472.457031 328.097656 482.074219 328.109375 496.613281 C 328.109375 535.457031 380.496094 583.695312 391.726562 591.183594 C 400.304688 596.898438 410.59375 600.054688 422.507812 603.695312 C 454.523438 613.507812 494.378906 625.699219 537.296875 694.316406 L 517.882812 706.460938 Z M 517.859375 706.460938 " fill-opacity="1" fill-rule="nonzero"/></g><path fill="#000000" d="M 354.207031 658.03125 C 306.988281 627.496094 259.355469 566.066406 259.355469 497.683594 L 282.261719 497.683594 C 282.261719 557.46875 324.640625 611.636719 366.640625 638.804688 Z M 354.207031 658.03125 " fill-opacity="1" fill-rule="nonzero"/><path fill="#000000" d="M 419.707031 680.839844 C 408.976562 680.839844 397.324219 678.496094 385.070312 673.863281 L 393.167969 652.449219 C 402.828125 656.089844 411.761719 657.949219 419.707031 657.949219 Z M 419.707031 680.839844 " fill-opacity="1" fill-rule="nonzero"/><path fill="#000000" d="M 599.679688 636.792969 L 570.722656 590.148438 C 562.3125 577.566406 556.128906 563.351562 552.542969 548.230469 L 540.539062 497.527344 C 537.285156 483.085938 531.960938 469.347656 524.683594 456.550781 L 505.851562 423.46875 C 497.144531 408.179688 478.429688 401.980469 462.304688 408.957031 L 381.246094 444.144531 L 375.945312 436.109375 C 375.492188 435.421875 329.824219 366.144531 314.96875 342.917969 C 312.753906 339.453125 308.203125 336.226562 302.046875 337.824219 C 298.222656 338.789062 294.933594 342.15625 294.054688 346.027344 C 293.136719 350.0625 294.316406 353.085938 295.457031 354.917969 L 382.507812 492.800781 L 363.140625 505.015625 L 276.066406 367.109375 C 271.183594 359.324219 269.644531 350.027344 271.730469 340.917969 C 274.554688 328.621094 284.25 318.691406 296.433594 315.621094 C 311.207031 311.871094 326.046875 317.75 334.289062 330.585938 C 346.023438 348.953125 377.265625 396.46875 389.785156 415.480469 L 453.179688 387.953125 C 480.074219 376.277344 511.257812 386.667969 525.765625 412.132812 L 544.601562 445.21875 C 552.996094 459.96875 559.144531 475.835938 562.859375 492.363281 L 574.84375 542.957031 C 577.785156 555.421875 582.871094 567.125 589.96875 577.746094 L 619.128906 624.710938 L 599.667969 636.78125 Z M 599.679688 636.792969 " fill-opacity="1" fill-rule="nonzero"/><g clip-path="url(#7069d003fd)"><path fill="#000000" d="M 671.683594 486.230469 L 728.953125 486.230469 L 728.953125 509.125 L 671.683594 509.125 Z M 671.683594 486.230469 " fill-opacity="1" fill-rule="nonzero"/></g><path fill="#000000" d="M 646.171875 415.421875 L 681.304688 380.308594 L 697.5 396.496094 L 662.367188 431.609375 Z M 646.171875 415.421875 " fill-opacity="1" fill-rule="nonzero"/><path fill="#000000" d="M 646.171875 568.492188 L 662.367188 552.304688 L 698.390625 588.308594 L 682.195312 604.496094 Z M 646.171875 568.492188 " fill-opacity="1" fill-rule="nonzero"/><g clip-path="url(#a6bc45b8cb)"><path fill="#000000" d="M 336.601562 353.941406 L 322.9375 335.5625 C 355.324219 311.511719 373.894531 274.632812 373.894531 234.390625 C 373.894531 164.960938 317.375 108.472656 247.90625 108.472656 C 226.800781 108.472656 205.917969 113.792969 187.527344 123.84375 L 176.523438 103.769531 C 198.273438 91.867188 222.964844 85.578125 247.90625 85.578125 C 330 85.578125 396.800781 152.34375 396.800781 234.390625 C 396.800781 281.25 374.300781 325.941406 336.601562 353.941406 Z M 336.601562 353.941406 " fill-opacity="1" fill-rule="nonzero"/></g><path fill="#000000" d="M 140.40625 168.699219 L 120.882812 156.734375 C 126.992188 146.757812 134.308594 137.496094 142.609375 129.164062 L 158.832031 145.355469 C 151.78125 152.402344 145.585938 160.261719 140.40625 168.699219 Z M 140.40625 168.699219 " fill-opacity="1" fill-rule="nonzero"/><path fill="#000000" d="M 247.90625 383.214844 C 165.8125 383.214844 99.015625 316.453125 99.015625 234.402344 C 99.015625 218.546875 101.503906 202.914062 106.421875 187.9375 L 128.183594 195.070312 C 124.027344 207.75 121.917969 220.988281 121.917969 234.402344 C 121.917969 303.835938 178.441406 360.324219 247.90625 360.324219 C 260.699219 360.324219 273.304688 358.417969 285.382812 354.667969 L 292.183594 376.539062 C 277.914062 380.980469 263.011719 383.230469 247.90625 383.230469 Z M 247.90625 383.214844 " fill-opacity="1" fill-rule="nonzero"/><path fill="#000000" d="M 701.273438 199.914062 C 698.804688 191.25 695.398438 182.84375 691.136719 174.925781 L 711.3125 164.082031 C 716.351562 173.449219 720.390625 183.402344 723.308594 193.652344 Z M 701.273438 199.914062 " fill-opacity="1" fill-rule="nonzero"/><g clip-path="url(#a6a109e402)"><path fill="#000000" d="M 580.058594 383.214844 C 497.964844 383.214844 431.167969 316.453125 431.167969 234.402344 C 431.167969 152.355469 497.964844 85.589844 580.058594 85.589844 C 620.355469 85.589844 658.09375 101.425781 686.324219 130.175781 L 669.96875 146.210938 C 646.074219 121.890625 614.140625 108.496094 580.046875 108.496094 C 510.582031 108.496094 454.058594 164.984375 454.058594 234.417969 C 454.058594 303.847656 510.582031 360.335938 580.046875 360.335938 C 649.515625 360.335938 706.035156 303.847656 706.035156 234.417969 L 728.941406 234.417969 C 728.941406 316.464844 662.140625 383.230469 580.046875 383.230469 Z M 580.058594 383.214844 " fill-opacity="1" fill-rule="nonzero"/></g><path fill="#000000" d="M 236.460938 319.273438 L 151.542969 234.402344 L 202.097656 183.878906 L 236.460938 218.226562 L 293.730469 160.984375 L 344.285156 211.511719 Z M 183.929688 234.402344 L 236.460938 286.90625 L 311.894531 211.511719 L 293.730469 193.355469 L 236.460938 250.59375 L 202.097656 216.25 Z M 183.929688 234.402344 " fill-opacity="1" fill-rule="nonzero"/><path fill="#000000" d="M 614.414062 319.273438 L 580.046875 284.929688 L 545.683594 319.273438 L 495.132812 268.75 L 529.496094 234.402344 L 495.132812 200.058594 L 545.683594 149.535156 L 580.046875 183.878906 L 614.414062 149.535156 L 664.964844 200.058594 L 630.601562 234.402344 L 664.964844 268.75 Z M 580.046875 252.558594 L 614.414062 286.90625 L 632.578125 268.75 L 598.214844 234.402344 L 632.578125 200.058594 L 614.414062 181.902344 L 580.046875 216.25 L 545.683594 181.902344 L 527.519531 200.058594 L 561.882812 234.402344 L 527.519531 268.75 L 545.683594 286.90625 Z M 580.046875 252.558594 " fill-opacity="1" fill-rule="nonzero"/></svg>