<svg xmlns="http://www.w3.org/2000/svg" xmlns:xlink="http://www.w3.org/1999/xlink" width="1080" zoomAndPan="magnify" viewBox="0 0 810 809.999993" height="1080" preserveAspectRatio="xMidYMid meet" version="1.0"><defs><clipPath id="257e6c6f0b"><path d="M 81 81 L 750 81 L 750 709.5 L 81 709.5 Z M 81 81 " clip-rule="nonzero"/></clipPath></defs><g clip-path="url(#257e6c6f0b)"><path fill="#000000" d="M 401.125 547.273438 C 377.253906 516.609375 377.292969 505.050781 377.359375 490.40625 C 377.371094 486.144531 377.398438 481.722656 376.929688 476.636719 C 373.621094 440.0625 354.285156 407.488281 322.453125 384.90625 C 293.980469 364.703125 256.558594 353.417969 219.660156 353.875 C 184.277344 354.347656 151.492188 365.59375 127.347656 385.519531 C 99.632812 408.40625 83.613281 442.011719 81.011719 482.730469 C 80.988281 483.042969 80.988281 483.359375 81 483.671875 C 82.125 525.566406 99.421875 549.667969 114.671875 570.941406 C 134.429688 598.480469 150.03125 620.226562 126.601562 676.976562 C 123.558594 684.339844 124.339844 692.367188 128.757812 698.972656 C 133.175781 705.574219 140.269531 709.355469 148.226562 709.355469 L 283.085938 709.355469 C 293.96875 709.355469 303.339844 701.980469 305.847656 691.453125 L 310.71875 671.339844 C 336.488281 675.890625 362.425781 677.210938 374.640625 662.75 C 381.777344 654.304688 382.914062 642.300781 378.039062 627.027344 C 382.519531 623.285156 385.355469 618.421875 386.035156 613.125 C 386.519531 609.375 385.839844 605.648438 384.113281 602.285156 C 387.300781 598.402344 388.976562 593.902344 388.960938 589.355469 C 395.0625 588.03125 402.746094 584.972656 406.5625 577.390625 C 412.507812 565.59375 404.417969 552.492188 401.753906 548.191406 C 401.570312 547.890625 401.347656 547.574219 401.125 547.273438 Z M 379.921875 569.515625 C 375.113281 569.921875 371.007812 572.539062 368.628906 576.722656 C 366.421875 580.578125 366.109375 585.050781 367.769531 589.222656 C 367.574219 589.417969 367.324219 589.65625 366.972656 589.902344 C 363.445312 592.441406 361.351562 596.257812 361.089844 600.636719 C 360.84375 604.46875 362.125 608.183594 364.59375 610.996094 C 364.304688 611.242188 363.914062 611.519531 363.429688 611.78125 C 357.054688 615.179688 354.179688 622.84375 356.765625 629.640625 C 360.4375 639.1875 361.128906 646.328125 358.660156 649.242188 C 355.8125 652.617188 345.03125 657.074219 304.984375 648.941406 C 299.457031 647.816406 294.0625 651.269531 292.726562 656.734375 L 285.503906 686.574219 C 285.226562 687.738281 284.328125 688.433594 283.085938 688.433594 L 148.226562 688.433594 C 147.257812 688.433594 146.671875 688.117188 146.136719 687.332031 C 145.613281 686.550781 145.546875 685.910156 145.925781 685.007812 C 145.925781 685.007812 145.925781 684.992188 145.925781 684.992188 C 173.785156 617.480469 152.367188 587.613281 131.660156 558.730469 C 117.558594 539.074219 102.992188 518.753906 101.917969 483.578125 C 107.183594 404.480469 166.285156 375.519531 219.933594 374.8125 C 281.335938 374.039062 349.894531 410.066406 356.085938 478.53125 C 356.464844 482.652344 356.453125 486.378906 356.441406 490.328125 C 356.375 507.457031 356.308594 523.632812 384.257812 559.683594 C 387.09375 564.378906 387.65625 566.890625 387.746094 567.855469 C 386.949219 568.273438 384.820312 569.113281 379.921875 569.515625 Z M 750.011719 483.671875 C 750.027344 483.359375 750.011719 483.042969 750 482.730469 C 747.414062 442.011719 731.394531 408.390625 703.667969 385.519531 C 679.519531 365.578125 646.722656 354.347656 611.351562 353.875 C 574.492188 353.394531 537.03125 364.691406 508.558594 384.90625 C 476.742188 407.488281 457.390625 440.0625 454.085938 476.636719 C 453.628906 481.722656 453.640625 486.117188 453.667969 490.351562 C 453.730469 505 453.785156 516.570312 429.886719 547.273438 C 429.652344 547.574219 429.429688 547.890625 429.234375 548.214844 C 426.582031 552.519531 418.503906 565.632812 424.449219 577.414062 C 428.277344 585 435.976562 588.058594 442.0625 589.378906 C 442.0625 593.929688 443.738281 598.414062 446.910156 602.285156 C 445.1875 605.648438 444.496094 609.398438 444.992188 613.179688 C 445.671875 618.433594 448.492188 623.273438 452.972656 627.011719 C 448.101562 642.300781 449.25 654.316406 456.382812 662.75 C 468.613281 677.199219 494.527344 675.890625 520.28125 671.328125 L 525.167969 691.464844 C 527.742188 701.992188 537.109375 709.339844 547.929688 709.339844 L 682.824219 709.339844 C 690.757812 709.339844 697.839844 705.550781 702.253906 698.957031 C 706.699219 692.328125 707.496094 684.3125 704.449219 676.964844 C 681.007812 620.199219 696.609375 598.453125 716.355469 570.917969 C 731.589844 549.667969 748.875 525.566406 750.011719 483.671875 Z M 685.097656 684.992188 C 685.097656 684.992188 685.097656 685.007812 685.097656 684.992188 C 685.464844 685.871094 685.386719 686.523438 684.851562 687.320312 C 684.316406 688.132812 683.753906 688.417969 682.800781 688.417969 L 547.914062 688.417969 C 546.6875 688.417969 545.785156 687.699219 545.484375 686.523438 L 538.257812 656.722656 C 537.097656 651.949219 532.835938 648.71875 528.09375 648.71875 C 527.402344 648.71875 526.707031 648.785156 526.003906 648.929688 C 485.980469 657.0625 475.214844 652.617188 472.351562 649.230469 C 469.882812 646.3125 470.5625 639.160156 474.234375 629.589844 C 476.808594 622.816406 473.945312 615.152344 467.648438 611.804688 C 467.125 611.519531 466.71875 611.242188 466.417969 610.980469 C 468.902344 608.132812 470.167969 604.429688 469.933594 600.664062 C 469.671875 596.363281 467.542969 592.453125 464.09375 589.929688 C 463.714844 589.65625 463.441406 589.40625 463.230469 589.195312 C 464.863281 585.195312 464.589844 580.761719 462.410156 576.773438 C 460.042969 572.5625 455.902344 569.921875 451.039062 569.515625 C 446.152344 569.113281 444.035156 568.289062 443.238281 567.855469 C 443.34375 566.890625 443.894531 564.363281 446.730469 559.671875 C 474.71875 523.582031 474.636719 507.40625 474.558594 490.261719 C 474.546875 486.324219 474.519531 482.613281 474.898438 478.519531 C 481.09375 410.066406 549.664062 373.988281 611.039062 374.8125 C 664.675781 375.53125 723.789062 404.496094 729.054688 483.578125 C 727.984375 518.753906 713.414062 539.074219 699.316406 558.714844 C 678.632812 587.613281 657.214844 617.46875 685.097656 684.992188 Z M 346.71875 235.472656 C 381.65625 235.472656 410.078125 207.042969 410.078125 172.105469 C 410.078125 137.136719 381.65625 108.699219 346.71875 108.699219 C 311.804688 108.699219 283.398438 137.136719 283.398438 172.105469 C 283.398438 207.042969 311.804688 235.472656 346.71875 235.472656 Z M 346.71875 129.644531 C 370.105469 129.644531 389.144531 148.699219 389.144531 172.105469 C 389.144531 195.496094 370.105469 214.523438 346.71875 214.523438 C 323.34375 214.523438 304.332031 195.496094 304.332031 172.105469 C 304.332031 148.699219 323.34375 129.644531 346.71875 129.644531 Z M 334.277344 194.125 L 315.164062 174.992188 C 311.074219 170.902344 311.074219 164.269531 315.164062 160.191406 C 319.253906 156.097656 325.878906 156.097656 329.953125 160.191406 L 341.660156 171.90625 L 363.445312 150.109375 C 367.535156 146.015625 374.15625 146.015625 378.234375 150.109375 C 382.324219 154.203125 382.324219 160.832031 378.234375 164.910156 L 349.042969 194.125 C 347.007812 196.164062 344.328125 197.199219 341.648438 197.199219 C 338.96875 197.199219 336.332031 196.164062 334.277344 194.125 Z M 245.308594 263.050781 L 278.472656 263.050781 L 273.597656 298.367188 C 272.722656 304.894531 276.132812 311.105469 282.09375 313.835938 C 284.078125 314.753906 286.195312 315.195312 288.285156 315.195312 C 292.363281 315.195312 296.386719 313.511719 299.339844 310.292969 L 341.976562 263.035156 L 349.671875 263.035156 L 349.671875 274.949219 C 349.671875 293.253906 364.566406 308.136719 382.875 308.136719 L 489.039062 308.136719 L 531.6875 355.367188 C 534.585938 358.597656 538.597656 360.324219 542.6875 360.324219 C 544.792969 360.324219 546.910156 359.867188 548.90625 358.9375 C 554.890625 356.191406 558.316406 349.96875 557.425781 343.414062 L 552.527344 308.136719 L 585.691406 308.136719 C 603.996094 308.136719 618.890625 293.242188 618.890625 274.949219 L 618.890625 159.472656 C 618.890625 141.152344 603.996094 126.246094 585.691406 126.246094 L 481.328125 126.246094 L 481.328125 114.371094 C 481.328125 96.050781 466.433594 81.144531 448.125 81.144531 L 245.308594 81.144531 C 227.003906 81.144531 212.109375 96.050781 212.109375 114.371094 L 212.109375 229.875 C 212.109375 248.167969 226.992188 263.050781 245.308594 263.050781 Z M 481.339844 229.863281 L 481.339844 147.179688 L 585.703125 147.179688 C 592.472656 147.179688 597.984375 152.6875 597.984375 159.472656 L 597.984375 274.976562 C 597.984375 281.734375 592.472656 287.226562 585.703125 287.226562 L 545.550781 287.226562 C 541.265625 287.226562 537.316406 289.019531 534.445312 292.261719 C 534.390625 292.3125 534.339844 292.378906 534.300781 292.429688 C 531.476562 295.738281 530.261719 299.925781 530.863281 304.148438 L 534 326.703125 L 502.707031 292.050781 C 499.84375 288.941406 495.964844 287.226562 491.78125 287.226562 L 382.886719 287.226562 C 376.117188 287.226562 370.605469 281.734375 370.605469 274.976562 L 370.605469 263.0625 L 448.140625 263.0625 C 466.445312 263.050781 481.339844 248.167969 481.339844 229.863281 Z M 233.027344 114.359375 C 233.027344 107.585938 238.527344 102.066406 245.308594 102.066406 L 448.140625 102.066406 C 454.910156 102.066406 460.421875 107.585938 460.421875 114.359375 L 460.421875 229.863281 C 460.421875 236.621094 454.921875 242.113281 448.140625 242.113281 L 339.285156 242.113281 C 335.078125 242.113281 331.183594 243.828125 328.253906 247.019531 L 297.054688 281.605469 L 300.164062 259.085938 C 300.777344 254.8125 299.507812 250.496094 296.675781 247.253906 C 293.824219 243.945312 289.851562 242.128906 285.476562 242.128906 L 245.324219 242.128906 C 238.554688 242.128906 233.039062 236.636719 233.039062 229.875 L 233.039062 114.359375 Z M 233.027344 114.359375 " fill-opacity="1" fill-rule="nonzero"/></g></svg>