<svg xmlns="http://www.w3.org/2000/svg" xmlns:xlink="http://www.w3.org/1999/xlink" width="1080" zoomAndPan="magnify" viewBox="0 0 810 809.999993" height="1080" preserveAspectRatio="xMidYMid meet" version="1.0"><defs><clipPath id="41f8b31413"><path d="M 98 82 L 728 82 L 728 711.75 L 98 711.75 Z M 98 82 " clip-rule="nonzero"/></clipPath></defs><g clip-path="url(#41f8b31413)"><path fill="#000000" d="M 725.300781 303.1875 L 648.84375 223.183594 C 646.328125 220.546875 642.460938 219.710938 639.082031 221.066406 C 635.703125 222.421875 633.484375 225.699219 633.484375 229.339844 L 633.484375 261.0625 C 594.375 262.394531 557.09375 275.203125 525.164062 298.367188 C 496.84375 318.914062 474.96875 346.007812 460.996094 377.542969 L 460.996094 176.175781 L 492.894531 176.175781 C 496.539062 176.175781 499.816406 173.960938 501.167969 170.578125 C 502.523438 167.199219 501.6875 163.332031 499.054688 160.816406 L 419.378906 84.679688 C 415.933594 81.386719 410.507812 81.386719 407.0625 84.679688 L 327.386719 160.816406 C 324.753906 163.332031 323.917969 167.199219 325.273438 170.578125 C 326.628906 173.960938 329.902344 176.175781 333.546875 176.175781 L 365.445312 176.175781 L 365.445312 377.542969 C 351.476562 346.003906 329.597656 318.910156 301.277344 298.367188 C 269.34375 275.199219 232.070312 262.390625 192.957031 261.058594 L 192.957031 229.339844 C 192.957031 225.695312 190.742188 222.421875 187.359375 221.066406 C 183.980469 219.710938 180.113281 220.546875 177.597656 223.179688 L 101.144531 303.1875 C 97.851562 306.632812 97.851562 312.058594 101.144531 315.503906 L 177.597656 395.507812 C 180.113281 398.140625 183.980469 398.980469 187.359375 397.625 C 190.742188 396.269531 192.957031 392.992188 192.957031 389.351562 L 192.957031 356.777344 C 227.640625 359.15625 258.730469 379.296875 275.066406 410.136719 L 272.308594 412.894531 C 264.402344 420.800781 264.402344 433.667969 272.308594 441.578125 C 282.53125 451.796875 282.285156 464.816406 278.652344 473.59375 C 275.019531 482.367188 265.984375 491.742188 251.53125 491.742188 C 240.347656 491.742188 231.25 500.84375 231.25 512.027344 L 231.25 546.636719 C 231.25 557.820312 240.347656 566.917969 251.53125 566.917969 C 265.984375 566.917969 275.019531 576.292969 278.652344 585.070312 C 282.285156 593.847656 282.53125 606.863281 272.308594 617.085938 C 264.402344 624.992188 264.402344 637.859375 272.308594 645.769531 L 296.785156 670.242188 C 304.691406 678.148438 317.558594 678.148438 325.46875 670.242188 C 335.703125 660.003906 348.722656 660.238281 357.492188 663.871094 C 366.261719 667.503906 375.632812 676.542969 375.632812 691.019531 C 375.632812 702.203125 384.734375 711.300781 395.914062 711.300781 L 430.527344 711.300781 C 441.710938 711.300781 450.808594 702.203125 450.808594 691.019531 C 450.808594 676.566406 460.183594 667.535156 468.960938 663.898438 C 477.734375 660.261719 490.753906 660.023438 500.972656 670.242188 C 504.804688 674.070312 509.898438 676.183594 515.316406 676.183594 C 520.734375 676.183594 525.828125 674.070312 529.65625 670.242188 L 554.132812 645.765625 C 562.039062 637.859375 562.039062 624.992188 554.132812 617.082031 C 543.914062 606.863281 544.152344 593.84375 547.789062 585.070312 C 551.425781 576.292969 560.457031 566.917969 574.910156 566.917969 C 586.09375 566.917969 595.195312 557.816406 595.195312 546.632812 L 595.195312 512.023438 C 595.195312 500.839844 586.09375 491.742188 574.910156 491.742188 C 560.457031 491.742188 551.425781 482.367188 547.789062 473.589844 C 544.15625 464.816406 543.914062 451.796875 554.132812 441.574219 C 562.039062 433.667969 562.039062 420.800781 554.132812 412.890625 L 551.375 410.136719 C 567.714844 379.292969 598.796875 359.152344 633.484375 356.777344 L 633.484375 389.347656 C 633.484375 392.992188 635.703125 396.269531 639.082031 397.621094 C 642.464844 398.980469 646.328125 398.140625 648.84375 395.507812 L 725.300781 315.503906 C 728.589844 312.058594 728.589844 306.632812 725.300781 303.1875 Z M 355.777344 158.347656 L 413.222656 103.453125 L 470.664062 158.347656 L 452.082031 158.347656 C 447.15625 158.347656 443.167969 162.339844 443.167969 167.261719 L 443.167969 351.808594 C 439.695312 349.03125 435.304688 347.359375 430.527344 347.359375 L 395.914062 347.359375 C 391.136719 347.359375 386.746094 349.03125 383.277344 351.808594 L 383.277344 167.261719 C 383.277344 162.339844 379.285156 158.347656 374.359375 158.347656 Z M 183.878906 338.734375 C 179.019531 338.824219 175.125 342.789062 175.125 347.648438 L 175.125 367.121094 L 119.917969 309.347656 L 175.125 251.570312 L 175.125 269.871094 C 175.125 272.25 176.078125 274.53125 177.773438 276.207031 C 179.464844 277.882812 181.773438 278.800781 184.140625 278.785156 C 259.386719 277.992188 327.917969 325.792969 353.695312 396.027344 C 345.226562 398.265625 334.304688 397.257812 325.46875 388.421875 C 317.558594 380.515625 304.691406 380.515625 296.785156 388.421875 L 288.164062 397.042969 C 266.609375 360.5 226.925781 337.964844 183.878906 338.734375 Z M 574.910156 509.574219 C 576.261719 509.574219 577.363281 510.675781 577.363281 512.027344 L 577.363281 546.636719 C 577.363281 547.988281 576.265625 549.089844 574.910156 549.089844 C 555.472656 549.089844 538.769531 560.261719 531.320312 578.25 C 523.871094 596.234375 527.78125 615.945312 541.527344 629.691406 C 542.480469 630.648438 542.480469 632.207031 541.527344 633.164062 L 517.050781 657.636719 C 516.457031 658.230469 515.78125 658.355469 515.316406 658.355469 C 514.851562 658.355469 514.175781 658.230469 513.582031 657.636719 C 499.835938 643.890625 480.121094 639.976562 462.140625 647.429688 C 444.152344 654.878906 432.980469 671.582031 432.980469 691.023438 C 432.980469 692.375 431.882812 693.472656 430.527344 693.472656 L 395.917969 693.472656 C 394.566406 693.472656 393.464844 692.375 393.464844 691.023438 C 393.464844 671.5625 382.296875 654.847656 364.320312 647.402344 C 358.296875 644.90625 352.074219 643.6875 345.949219 643.6875 C 333.796875 643.6875 322.011719 648.488281 312.863281 657.636719 C 311.90625 658.59375 310.351562 658.59375 309.390625 657.636719 L 284.917969 633.164062 C 283.960938 632.207031 283.960938 630.648438 284.917969 629.691406 C 298.664062 615.945312 302.574219 596.234375 295.125 578.25 C 287.675781 560.261719 270.972656 549.089844 251.53125 549.089844 C 250.179688 549.089844 249.078125 547.992188 249.078125 546.636719 L 249.078125 512.027344 C 249.078125 510.675781 250.179688 509.574219 251.53125 509.574219 C 270.972656 509.574219 287.675781 498.402344 295.125 480.417969 C 302.574219 462.429688 298.664062 442.71875 284.917969 428.972656 C 283.960938 428.015625 283.960938 426.460938 284.917969 425.5 L 309.390625 401.027344 C 310.351562 400.070312 311.90625 400.070312 312.863281 401.027344 C 326.609375 414.773438 346.320312 418.683594 364.308594 411.234375 C 382.292969 403.785156 393.464844 387.082031 393.464844 367.644531 C 393.464844 366.289062 394.566406 365.1875 395.917969 365.1875 L 430.527344 365.1875 C 431.878906 365.1875 432.980469 366.289062 432.980469 367.644531 C 432.980469 387.082031 444.152344 403.785156 462.136719 411.234375 C 480.125 418.6875 499.835938 414.773438 513.582031 401.027344 C 514.175781 400.433594 514.851562 400.308594 515.316406 400.308594 C 515.78125 400.308594 516.457031 400.433594 517.050781 401.027344 L 541.527344 425.5 C 542.480469 426.460938 542.480469 428.015625 541.527344 428.972656 C 527.78125 442.71875 523.867188 462.429688 531.316406 480.417969 C 538.765625 498.402344 555.472656 509.574219 574.910156 509.574219 Z M 651.3125 367.121094 L 651.3125 347.648438 C 651.3125 342.789062 647.421875 338.824219 642.558594 338.734375 C 641.839844 338.722656 641.121094 338.714844 640.402344 338.714844 C 598.179688 338.714844 559.46875 361.109375 538.273438 397.039062 L 529.660156 388.421875 C 525.828125 384.589844 520.734375 382.480469 515.316406 382.480469 C 509.898438 382.480469 504.804688 384.589844 500.972656 388.421875 C 492.136719 397.257812 481.214844 398.265625 472.746094 396.027344 C 498.304688 326.386719 565.929688 278.773438 640.390625 278.773438 C 641.027344 278.773438 641.664062 278.777344 642.300781 278.78125 C 644.714844 278.800781 646.972656 277.882812 648.667969 276.207031 C 650.359375 274.53125 651.3125 272.25 651.3125 269.867188 L 651.3125 251.570312 L 706.523438 309.34375 Z M 413.222656 435.847656 C 361.671875 435.847656 319.738281 477.785156 319.738281 529.332031 C 319.738281 580.878906 361.671875 622.816406 413.222656 622.816406 C 464.769531 622.816406 506.707031 580.878906 506.707031 529.332031 C 506.707031 477.785156 464.769531 435.847656 413.222656 435.847656 Z M 413.222656 604.988281 C 371.503906 604.988281 337.566406 571.050781 337.566406 529.332031 C 337.566406 487.617188 371.503906 453.675781 413.222656 453.675781 C 454.9375 453.675781 488.878906 487.617188 488.878906 529.332031 C 488.878906 571.050781 454.9375 604.988281 413.222656 604.988281 Z M 413.222656 604.988281 " fill-opacity="1" fill-rule="nonzero"/></g></svg>