<svg xmlns="http://www.w3.org/2000/svg" xmlns:xlink="http://www.w3.org/1999/xlink" width="1080" zoomAndPan="magnify" viewBox="0 0 810 809.999993" height="1080" preserveAspectRatio="xMidYMid meet" version="1.0"><defs><clipPath id="dd3a3dc364"><path d="M 104 106.160156 L 704.804688 106.160156 L 704.804688 706.910156 L 104 706.910156 Z M 104 106.160156 " clip-rule="nonzero"/></clipPath></defs><g clip-path="url(#dd3a3dc364)"><path fill="#000000" d="M 572.808594 333.199219 L 539.753906 333.199219 C 534.398438 333.199219 530.058594 337.539062 530.058594 342.890625 L 530.058594 418.738281 C 530.058594 424.089844 534.398438 428.425781 539.753906 428.425781 L 572.808594 428.425781 C 578.164062 428.425781 582.503906 424.089844 582.503906 418.738281 L 582.503906 342.890625 C 582.503906 337.539062 578.164062 333.199219 572.808594 333.199219 Z M 563.117188 409.046875 L 549.445312 409.046875 L 549.445312 352.578125 L 563.117188 352.578125 Z M 431.984375 355.734375 L 398.925781 355.734375 C 393.570312 355.734375 389.230469 360.074219 389.230469 365.425781 L 389.230469 418.738281 C 389.230469 424.089844 393.570312 428.425781 398.925781 428.425781 L 431.984375 428.425781 C 437.339844 428.425781 441.679688 424.089844 441.679688 418.738281 L 441.679688 365.425781 C 441.679688 360.074219 437.339844 355.734375 431.984375 355.734375 Z M 422.292969 409.046875 L 408.617188 409.046875 L 408.617188 375.113281 L 422.292969 375.113281 Z M 502.394531 289.851562 L 469.335938 289.851562 C 463.984375 289.851562 459.644531 294.191406 459.644531 299.542969 L 459.644531 418.734375 C 459.644531 424.085938 463.984375 428.425781 469.335938 428.425781 L 502.394531 428.425781 C 507.75 428.425781 512.089844 424.085938 512.089844 418.734375 L 512.089844 299.542969 C 512.089844 294.191406 507.75 289.851562 502.394531 289.851562 Z M 492.703125 409.046875 L 479.03125 409.046875 L 479.03125 309.230469 L 492.703125 309.230469 Z M 652.347656 181.8125 L 656.230469 177.132812 C 660.199219 178.667969 664.507812 179.515625 669.011719 179.515625 C 688.625 179.515625 704.585938 163.5625 704.585938 143.957031 C 704.585938 124.347656 688.625 108.394531 669.011719 108.394531 C 649.394531 108.394531 633.4375 124.347656 633.4375 143.957031 C 633.4375 152.039062 636.152344 159.496094 640.714844 165.472656 L 638.957031 167.59375 C 599.855469 129.597656 546.527344 106.15625 487.8125 106.15625 C 429.855469 106.15625 375.367188 128.71875 334.386719 169.683594 C 293.402344 210.648438 270.835938 265.113281 270.835938 323.046875 C 270.835938 368.625 284.8125 412.054688 310.730469 448.457031 L 259.476562 499.6875 C 254.753906 496.585938 249.207031 494.960938 243.402344 495.035156 C 235.765625 495.152344 228.644531 498.21875 223.351562 503.671875 L 112.894531 617.457031 C 101.9375 628.746094 102.207031 646.839844 113.496094 657.792969 L 155.855469 698.875 C 161.386719 704.242188 168.554688 706.914062 175.71875 706.914062 C 183.171875 706.914062 190.617188 704.023438 196.207031 698.269531 L 306.664062 584.484375 C 311.957031 579.03125 314.8125 571.824219 314.695312 564.1875 C 314.625 559.527344 313.449219 555.0625 311.308594 551.085938 L 362.355469 500.058594 C 398.769531 525.964844 442.214844 539.9375 487.8125 539.9375 C 607.457031 539.9375 704.792969 442.640625 704.792969 323.046875 C 704.792969 269.152344 685.019531 219.789062 652.347656 181.8125 Z M 669.011719 127.773438 C 677.9375 127.773438 685.199219 135.035156 685.199219 143.957031 C 685.199219 152.878906 677.9375 160.136719 669.011719 160.136719 C 660.085938 160.136719 652.824219 152.878906 652.824219 143.957031 C 652.824219 135.035156 660.085938 127.773438 669.011719 127.773438 Z M 292.753906 570.984375 L 182.292969 684.773438 C 178.78125 688.390625 172.976562 688.480469 169.355469 684.96875 L 127 643.886719 C 123.378906 640.375 123.292969 634.570312 126.804688 630.953125 L 237.265625 517.164062 C 238.949219 515.429688 241.234375 514.449219 243.695312 514.414062 C 243.742188 514.414062 243.789062 514.414062 243.835938 514.414062 C 246.242188 514.414062 248.5 515.320312 250.203125 516.972656 L 292.558594 558.054688 C 294.296875 559.742188 295.273438 562.023438 295.3125 564.480469 C 295.347656 566.9375 294.441406 569.25 292.753906 570.984375 Z M 298.332031 536.648438 L 273.757812 512.816406 L 322.757812 463.839844 C 326.453125 468.15625 330.324219 472.351562 334.386719 476.414062 C 338.449219 480.472656 342.648438 484.34375 346.964844 488.039062 Z M 487.8125 520.558594 C 435.035156 520.558594 385.414062 500.015625 348.09375 462.707031 C 310.773438 425.402344 290.222656 375.804688 290.222656 323.046875 C 290.21875 270.289062 310.773438 220.691406 348.09375 183.386719 C 385.414062 146.082031 435.035156 125.535156 487.8125 125.535156 C 596.765625 125.535156 685.40625 214.136719 685.40625 323.046875 C 685.40625 431.957031 596.765625 520.558594 487.8125 520.558594 Z M 604.566406 206.34375 C 573.382812 175.167969 531.917969 158.003906 487.816406 158.003906 C 487.8125 158.003906 487.816406 158.003906 487.8125 158.003906 C 443.714844 158.003906 402.246094 175.171875 371.0625 206.34375 C 339.878906 237.515625 322.703125 278.960938 322.703125 323.046875 C 322.703125 414.054688 396.773438 488.09375 487.816406 488.09375 C 578.859375 488.09375 652.929688 414.054688 652.929688 323.046875 C 652.925781 278.960938 635.753906 237.515625 604.566406 206.34375 Z M 487.8125 468.710938 C 407.460938 468.710938 342.085938 403.367188 342.085938 323.046875 C 342.085938 284.136719 357.246094 247.558594 384.769531 220.042969 C 412.292969 192.53125 448.890625 177.378906 487.8125 177.378906 C 526.738281 177.378906 563.332031 192.53125 590.855469 220.042969 C 591.699219 220.886719 592.53125 221.734375 593.347656 222.59375 L 570.011719 250.738281 C 566.039062 248.195312 561.335938 246.703125 556.28125 246.703125 C 549.328125 246.703125 543.019531 249.5 538.410156 254.019531 L 511.398438 242.410156 C 511.402344 242.265625 511.421875 242.128906 511.421875 241.984375 C 511.421875 227.898438 499.957031 216.4375 485.863281 216.4375 C 471.773438 216.4375 460.308594 227.894531 460.308594 241.984375 C 460.308594 245.046875 460.878906 247.972656 461.875 250.699219 L 426.394531 282.964844 C 423.074219 281.382812 419.371094 280.46875 415.453125 280.46875 C 401.363281 280.46875 389.898438 291.925781 389.898438 306.011719 C 389.898438 320.097656 401.363281 331.558594 415.453125 331.558594 C 429.546875 331.558594 441.007812 320.097656 441.007812 306.011719 C 441.007812 302.949219 440.4375 300.019531 439.445312 297.296875 L 474.921875 265.03125 C 478.246094 266.617188 481.945312 267.527344 485.863281 267.527344 C 492.816406 267.527344 499.121094 264.730469 503.734375 260.210938 L 530.746094 271.820312 C 530.742188 271.964844 530.722656 272.101562 530.722656 272.25 C 530.722656 286.335938 542.1875 297.792969 556.28125 297.792969 C 570.371094 297.792969 581.835938 286.335938 581.835938 272.25 C 581.835938 270.59375 581.664062 268.980469 581.363281 267.414062 L 605.964844 237.742188 C 623.867188 262.410156 633.539062 291.980469 633.539062 323.046875 C 633.539062 403.367188 568.167969 468.710938 487.8125 468.710938 Z M 562.449219 272.25 C 562.449219 275.652344 559.683594 278.417969 556.28125 278.417969 C 552.878906 278.417969 550.109375 275.648438 550.109375 272.25 C 550.109375 268.851562 552.878906 266.082031 556.28125 266.082031 C 559.683594 266.085938 562.449219 268.851562 562.449219 272.25 Z M 479.699219 241.984375 C 479.699219 238.585938 482.464844 235.820312 485.867188 235.820312 C 489.269531 235.820312 492.035156 238.585938 492.035156 241.984375 C 492.035156 245.386719 489.269531 248.152344 485.867188 248.152344 C 482.464844 248.152344 479.699219 245.386719 479.699219 241.984375 Z M 421.625 306.015625 C 421.625 309.417969 418.855469 312.183594 415.453125 312.183594 C 412.050781 312.183594 409.285156 309.414062 409.285156 306.015625 C 409.285156 302.617188 412.050781 299.847656 415.453125 299.847656 C 418.855469 299.851562 421.625 302.617188 421.625 306.015625 Z M 421.625 306.015625 " fill-opacity="1" fill-rule="nonzero"/></g></svg>