<svg xmlns="http://www.w3.org/2000/svg" xmlns:xlink="http://www.w3.org/1999/xlink" width="1080" zoomAndPan="magnify" viewBox="0 0 810 809.999993" height="1080" preserveAspectRatio="xMidYMid meet" version="1.0"><defs><clipPath id="ba8c7f1761"><path d="M 81 99.628906 L 729 99.628906 L 729 710.128906 L 81 710.128906 Z M 81 99.628906 " clip-rule="nonzero"/></clipPath></defs><g clip-path="url(#ba8c7f1761)"><path fill="#ffffff" d="M 718.359375 112.730469 C 711.515625 104.878906 702.015625 99.9375 691.375 99.9375 L 118.753906 99.9375 C 96.835938 100.0625 81 120.207031 81.125 141.871094 L 81.125 590.972656 C 81.125 614.03125 100.003906 632.90625 123.058594 632.90625 L 309.796875 632.90625 L 309.796875 691.941406 C 242.019531 691.941406 190.078125 691.941406 190.078125 691.941406 C 178.167969 691.941406 178.421875 710.058594 190.078125 710.058594 L 620.050781 710.058594 C 631.957031 710.058594 631.703125 691.941406 620.050781 691.941406 C 620.050781 691.941406 568.109375 691.941406 500.332031 691.941406 L 500.332031 632.90625 L 687.066406 632.90625 C 710.125 632.90625 729 614.03125 729 590.972656 L 729 141.742188 C 728.875 130.59375 724.820312 120.207031 718.359375 112.730469 Z M 99.371094 141.742188 C 99.371094 129.960938 106.96875 118.179688 118.878906 117.925781 L 691.375 117.925781 C 703.28125 118.179688 710.882812 129.960938 710.882812 141.742188 L 710.882812 551.699219 L 648.554688 551.699219 L 648.554688 391.820312 C 648.554688 385.488281 646.019531 379.660156 641.839844 375.480469 C 637.660156 371.296875 631.832031 368.636719 625.496094 368.636719 L 579.128906 368.636719 C 566.335938 368.636719 556.074219 379.027344 556.074219 391.695312 L 556.074219 401.324219 C 554.425781 400.941406 552.78125 400.691406 551.132812 400.691406 L 504.765625 400.691406 C 492.097656 400.691406 481.582031 411.078125 481.707031 423.746094 L 481.707031 442.242188 C 480.0625 441.863281 478.414062 441.609375 476.769531 441.609375 L 430.402344 441.609375 C 417.605469 441.609375 407.34375 451.996094 407.34375 464.667969 L 407.34375 551.320312 L 99.371094 551.320312 Z M 555.820312 551.828125 L 499.445312 551.828125 L 499.445312 424 C 499.445312 422.605469 499.953125 421.339844 500.839844 420.453125 C 501.726562 419.566406 502.992188 418.933594 504.386719 418.933594 L 550.753906 418.933594 C 553.539062 418.933594 555.691406 421.085938 555.691406 423.875 L 555.691406 551.828125 Z M 481.328125 551.828125 L 424.953125 551.828125 L 424.953125 465.171875 C 424.953125 463.78125 425.460938 462.511719 426.472656 461.625 C 427.359375 460.738281 428.628906 460.105469 430.019531 460.105469 L 476.386719 460.105469 C 479.175781 460.105469 481.328125 462.257812 481.328125 465.046875 Z M 573.9375 424 L 573.9375 391.820312 C 573.9375 390.429688 574.441406 389.160156 575.457031 388.273438 C 576.34375 387.386719 577.609375 386.753906 579.003906 386.753906 L 625.371094 386.753906 C 628.15625 386.753906 630.3125 389.035156 630.3125 391.695312 L 630.3125 551.574219 L 573.9375 551.574219 Z M 482.089844 691.941406 L 328.039062 691.941406 L 328.039062 632.90625 L 482.089844 632.90625 Z M 710.757812 590.972656 C 710.757812 597.558594 708.097656 603.515625 703.789062 607.820312 C 699.480469 612.128906 693.527344 614.789062 686.941406 614.789062 L 123.1875 614.789062 C 110.136719 614.789062 99.371094 604.148438 99.371094 590.972656 L 99.371094 569.816406 L 710.882812 569.816406 L 710.882812 590.972656 Z M 542.898438 219.78125 L 618.53125 219.78125 C 626.765625 219.78125 634.238281 216.363281 639.6875 211.039062 C 658.4375 193.558594 644.5 159.097656 618.53125 159.984375 L 542.898438 159.984375 C 503.371094 160.871094 503.371094 218.640625 542.898438 219.78125 Z M 542.898438 177.976562 L 618.53125 177.976562 C 633.984375 178.101562 633.984375 201.539062 618.53125 201.664062 L 542.898438 201.664062 C 527.316406 201.285156 527.441406 178.230469 542.898438 177.976562 Z M 367.4375 196.851562 C 367.183594 196.597656 367.058594 196.21875 366.804688 195.964844 C 366.171875 195.332031 365.410156 194.699219 364.652344 194.066406 C 343.367188 173.160156 314.230469 159.605469 279.515625 159.859375 C 244.933594 159.605469 215.667969 173.035156 194.382812 194.066406 C 170.820312 216.488281 156.125 248.160156 156.125 283.25 C 156.125 283.632812 156.25 284.011719 156.378906 284.390625 C 156.125 314.921875 167.148438 345.960938 192.355469 370.539062 C 236.0625 418.046875 323.097656 418.046875 366.804688 370.539062 C 418.367188 319.992188 410.765625 242.457031 367.4375 196.851562 Z M 347.292969 202.679688 L 323.476562 226.496094 C 314.230469 219.402344 302.574219 214.335938 288.640625 212.5625 L 288.640625 178.480469 C 288.890625 178.480469 289.144531 178.480469 289.398438 178.480469 C 310.808594 180.507812 330.953125 188.871094 347.292969 202.679688 Z M 174.621094 274.128906 C 176.519531 251.960938 185.261719 231.816406 198.691406 215.726562 C 199.578125 214.714844 200.464844 213.828125 201.351562 212.8125 C 201.859375 212.308594 202.238281 211.800781 202.746094 211.292969 C 220.609375 192.925781 245.058594 181.394531 270.523438 178.734375 L 270.523438 212.5625 C 233.148438 217.5 212.878906 244.738281 209.332031 274.257812 L 174.621094 274.257812 Z M 226.054688 283.632812 C 226.054688 283.378906 226.054688 283.25 226.054688 283 C 226.4375 255.128906 250.632812 230.675781 278.503906 229.789062 C 278.882812 229.789062 279.265625 230.042969 279.644531 230.042969 C 280.023438 230.042969 280.402344 229.917969 280.910156 229.789062 C 293.074219 230.042969 305.742188 234.730469 317.394531 245.625 C 317.394531 245.625 317.394531 245.625 317.394531 245.753906 C 317.394531 245.753906 317.394531 245.753906 317.523438 245.753906 C 365.664062 297.058594 293.453125 369.398438 242.019531 321.132812 C 230.617188 309.097656 225.929688 296.046875 226.054688 283.632812 Z M 279.515625 388.527344 C 224.410156 388.527344 179.308594 346.214844 174.746094 292.375 L 209.332031 292.375 C 213.007812 324.042969 236.445312 353.4375 279.515625 354.703125 C 347.800781 352.550781 366.675781 280.339844 336.144531 239.417969 L 360.089844 215.347656 C 416.589844 280.210938 369.335938 389.792969 279.515625 388.527344 Z M 475.246094 255.761719 C 475.246094 255.761719 639.433594 255.761719 639.433594 255.761719 C 651.214844 255.761719 651.339844 273.878906 639.433594 273.878906 C 639.433594 273.878906 475.246094 273.878906 475.246094 273.878906 C 463.464844 273.878906 463.339844 255.886719 475.246094 255.761719 Z M 475.246094 314.796875 C 475.246094 314.796875 639.433594 314.796875 639.433594 314.796875 C 651.214844 314.796875 651.339844 332.914062 639.433594 332.914062 C 639.433594 332.914062 475.246094 332.914062 475.246094 332.914062 C 463.464844 332.785156 463.339844 314.796875 475.246094 314.796875 Z M 329.433594 455.039062 L 165.246094 455.039062 C 153.464844 455.039062 153.335938 436.921875 165.246094 436.921875 L 329.433594 436.921875 C 341.214844 437.046875 341.339844 455.039062 329.433594 455.039062 Z M 329.433594 514.074219 L 165.246094 514.074219 C 153.464844 514.074219 153.335938 495.957031 165.246094 495.957031 L 329.433594 495.957031 C 341.214844 495.957031 341.339844 514.074219 329.433594 514.074219 Z M 329.433594 514.074219 " fill-opacity="1" fill-rule="evenodd"/></g></svg>