<svg xmlns="http://www.w3.org/2000/svg" xmlns:xlink="http://www.w3.org/1999/xlink" width="1080" zoomAndPan="magnify" viewBox="0 0 810 809.999993" height="1080" preserveAspectRatio="xMidYMid meet" version="1.0"><defs><clipPath id="47a54403e6"><path d="M 125.050781 130.269531 L 680.050781 130.269531 L 680.050781 685.269531 L 125.050781 685.269531 Z M 125.050781 130.269531 " clip-rule="nonzero"/></clipPath></defs><g clip-path="url(#47a54403e6)"><path fill="#000000" d="M 670.800781 666.769531 L 653.992188 666.769531 L 653.992188 321.957031 C 653.992188 316.839844 649.847656 312.707031 644.742188 312.707031 L 567.632812 312.707031 C 562.527344 312.707031 558.382812 316.839844 558.382812 321.957031 L 558.382812 666.769531 L 524.492188 666.769531 L 524.492188 469.957031 C 524.492188 464.839844 520.347656 460.707031 515.242188 460.707031 L 438.132812 460.707031 C 433.027344 460.707031 428.882812 464.839844 428.882812 469.957031 L 428.882812 666.769531 L 394.992188 666.769531 L 394.992188 395.957031 C 394.992188 390.839844 390.847656 386.707031 385.742188 386.707031 L 308.632812 386.707031 C 303.527344 386.707031 299.382812 390.839844 299.382812 395.957031 L 299.382812 666.769531 L 265.492188 666.769531 L 265.492188 525.457031 C 265.492188 520.339844 261.347656 516.207031 256.242188 516.207031 L 179.132812 516.207031 C 174.027344 516.207031 169.882812 520.339844 169.882812 525.457031 L 169.882812 666.769531 L 143.550781 666.769531 L 143.550781 139.519531 C 143.550781 134.402344 139.40625 130.269531 134.300781 130.269531 C 129.191406 130.269531 125.050781 134.402344 125.050781 139.519531 L 125.050781 676.019531 C 125.050781 681.132812 129.191406 685.269531 134.300781 685.269531 L 670.800781 685.269531 C 675.90625 685.269531 680.050781 681.132812 680.050781 676.019531 C 680.050781 670.902344 675.90625 666.769531 670.800781 666.769531 Z M 188.382812 666.769531 L 188.382812 534.707031 L 246.992188 534.707031 L 246.992188 666.769531 Z M 317.882812 666.769531 L 317.882812 405.207031 L 376.492188 405.207031 L 376.492188 666.769531 Z M 447.382812 666.769531 L 447.382812 479.207031 L 505.992188 479.207031 L 505.992188 666.769531 Z M 576.882812 666.769531 L 576.882812 331.207031 L 635.492188 331.207031 L 635.492188 666.769531 Z M 576.882812 666.769531 " fill-opacity="1" fill-rule="nonzero"/></g><path fill="#000000" d="M 217.6875 454.019531 C 238.09375 454.019531 254.6875 437.421875 254.6875 417.019531 C 254.6875 410.191406 252.699219 403.863281 249.460938 398.371094 L 324.191406 315.183594 C 330.621094 320.558594 338.769531 323.917969 347.78125 323.917969 C 359.277344 323.917969 369.433594 318.542969 376.222656 310.292969 L 442.359375 357.144531 C 440.675781 361.371094 439.6875 365.949219 439.6875 370.769531 C 439.6875 391.171875 456.28125 407.769531 476.6875 407.769531 C 497.09375 407.769531 513.6875 391.171875 513.6875 370.769531 C 513.6875 365.097656 512.300781 359.789062 510.015625 354.976562 L 596.917969 239.574219 C 599.898438 240.351562 602.96875 240.898438 606.1875 240.898438 C 626.59375 240.898438 643.1875 224.304688 643.1875 203.898438 C 643.1875 183.492188 626.59375 166.898438 606.1875 166.898438 C 585.78125 166.898438 569.1875 183.492188 569.1875 203.898438 C 569.1875 214.359375 573.589844 223.777344 580.59375 230.511719 L 497.796875 340.457031 C 491.800781 336.265625 484.542969 333.769531 476.6875 333.769531 C 467.808594 333.769531 459.761719 337.042969 453.378906 342.269531 L 384.140625 293.226562 C 384.503906 291.171875 384.78125 289.082031 384.78125 286.925781 C 384.78125 266.519531 368.183594 249.925781 347.78125 249.925781 C 327.375 249.925781 310.78125 266.519531 310.78125 286.925781 C 310.78125 291.449219 311.714844 295.730469 313.203125 299.746094 L 236.371094 385.273438 C 230.867188 382.015625 224.53125 380.027344 217.6875 380.027344 C 197.28125 380.027344 180.6875 396.621094 180.6875 417.027344 C 180.6875 437.433594 197.28125 454.027344 217.6875 454.027344 Z M 606.1875 185.398438 C 616.390625 185.398438 624.6875 193.695312 624.6875 203.898438 C 624.6875 214.101562 616.390625 222.398438 606.1875 222.398438 C 595.984375 222.398438 587.6875 214.101562 587.6875 203.898438 C 587.6875 193.695312 595.984375 185.398438 606.1875 185.398438 Z M 476.6875 352.269531 C 486.890625 352.269531 495.1875 360.566406 495.1875 370.769531 C 495.1875 380.972656 486.890625 389.269531 476.6875 389.269531 C 466.484375 389.269531 458.1875 380.972656 458.1875 370.769531 C 458.1875 360.566406 466.484375 352.269531 476.6875 352.269531 Z M 347.78125 268.425781 C 357.984375 268.425781 366.28125 276.722656 366.28125 286.925781 C 366.28125 297.128906 357.984375 305.425781 347.78125 305.425781 C 337.578125 305.425781 329.28125 297.128906 329.28125 286.925781 C 329.28125 276.722656 337.578125 268.425781 347.78125 268.425781 Z M 217.6875 398.519531 C 227.890625 398.519531 236.1875 406.816406 236.1875 417.019531 C 236.1875 427.222656 227.890625 435.519531 217.6875 435.519531 C 207.484375 435.519531 199.1875 427.222656 199.1875 417.019531 C 199.1875 406.816406 207.484375 398.519531 217.6875 398.519531 Z M 217.6875 398.519531 " fill-opacity="1" fill-rule="nonzero"/></svg>