<svg xmlns="http://www.w3.org/2000/svg" xmlns:xlink="http://www.w3.org/1999/xlink" width="1080" zoomAndPan="magnify" viewBox="0 0 810 809.999993" height="1080" preserveAspectRatio="xMidYMid meet" version="1.0"><defs><clipPath id="8dee2cf96f"><path d="M 97.148438 81 L 726 81 L 726 709.5 L 97.148438 709.5 Z M 97.148438 81 " clip-rule="nonzero"/></clipPath></defs><path fill="#ffffff" d="M 411.78125 489.203125 C 402.320312 489.203125 392.859375 485.597656 385.640625 478.371094 L 258.636719 351.367188 C 255.746094 348.472656 255.746094 343.785156 258.636719 340.882812 L 300.449219 299.070312 C 303.339844 296.179688 308.03125 296.179688 310.933594 299.070312 L 411.78125 399.921875 L 677.472656 134.234375 C 680.363281 131.34375 685.050781 131.34375 687.953125 134.234375 L 729.765625 176.046875 C 732.65625 178.9375 732.65625 183.625 729.765625 186.527344 L 437.9375 478.371094 C 430.714844 485.589844 421.253906 489.203125 411.78125 489.203125 Z M 411.78125 489.203125 " fill-opacity="1" fill-rule="nonzero"/><g clip-path="url(#8dee2cf96f)"><path fill="#ffffff" d="M 639.6875 306.746094 C 650.347656 334.199219 656.214844 364.019531 656.214844 395.191406 C 656.214844 530.3125 546.285156 640.242188 411.164062 640.242188 C 276.042969 640.242188 166.113281 530.3125 166.113281 395.191406 C 166.113281 260.070312 276.042969 150.140625 411.164062 150.140625 C 472.433594 150.140625 528.53125 172.75 571.539062 210.046875 L 620.457031 161.128906 C 562.820312 109.464844 489.167969 81.195312 411.164062 81.195312 C 327.292969 81.195312 248.445312 113.855469 189.136719 173.164062 C 129.828125 232.472656 97.167969 311.320312 97.167969 395.191406 C 97.167969 479.0625 129.828125 557.910156 189.136719 617.21875 C 248.433594 676.527344 327.292969 709.1875 411.164062 709.1875 C 495.035156 709.1875 573.882812 676.527344 633.191406 617.21875 C 692.5 557.910156 725.160156 479.0625 725.160156 395.191406 C 725.160156 345.5 713.695312 297.574219 692.015625 254.429688 Z M 639.6875 306.746094 " fill-opacity="1" fill-rule="nonzero"/></g><path fill="#ffffff" d="M 226.898438 414.621094 L 201.828125 414.621094 C 196.632812 414.621094 192.429688 410.40625 192.429688 405.21875 C 192.429688 400.023438 196.644531 395.820312 201.828125 395.820312 L 226.898438 395.820312 C 232.09375 395.820312 236.296875 400.035156 236.296875 405.21875 C 236.296875 410.417969 232.09375 414.621094 226.898438 414.621094 Z M 226.898438 414.621094 " fill-opacity="1" fill-rule="nonzero"/><path fill="#ffffff" d="M 420.5625 610.785156 C 415.367188 610.785156 411.164062 606.582031 411.164062 601.386719 L 411.164062 576.316406 C 411.164062 571.121094 415.367188 566.917969 420.5625 566.917969 C 425.757812 566.917969 429.960938 571.121094 429.960938 576.316406 L 429.960938 601.386719 C 429.960938 606.582031 425.757812 610.785156 420.5625 610.785156 Z M 420.5625 610.785156 " fill-opacity="1" fill-rule="nonzero"/><path fill="#ffffff" d="M 420.5625 218.457031 C 415.367188 218.457031 411.164062 214.242188 411.164062 209.054688 L 411.164062 183.988281 C 411.164062 178.792969 415.367188 174.589844 420.5625 174.589844 C 425.757812 174.589844 429.960938 178.804688 429.960938 183.988281 L 429.960938 209.054688 C 429.960938 214.242188 425.757812 218.457031 420.5625 218.457031 Z M 420.5625 218.457031 " fill-opacity="1" fill-rule="nonzero"/><path fill="#ffffff" d="M 621.117188 415.25 L 596.050781 415.25 C 590.855469 415.25 586.648438 411.035156 586.648438 405.851562 C 586.648438 400.664062 590.855469 396.453125 596.050781 396.453125 L 621.117188 396.453125 C 626.3125 396.453125 630.515625 400.664062 630.515625 405.851562 C 630.515625 411.035156 626.3125 415.25 621.117188 415.25 Z M 621.117188 415.25 " fill-opacity="1" fill-rule="nonzero"/></svg>