<svg xmlns="http://www.w3.org/2000/svg" xmlns:xlink="http://www.w3.org/1999/xlink" width="1080" zoomAndPan="magnify" viewBox="0 0 810 809.999993" height="1080" preserveAspectRatio="xMidYMid meet" version="1.0"><defs><clipPath id="dbd069b3de"><path d="M 81 91 L 741.75 91 L 741.75 752.230469 L 81 752.230469 Z M 81 91 " clip-rule="nonzero"/></clipPath></defs><g clip-path="url(#dbd069b3de)"><path fill="#000000" d="M 411.375 752.277344 C 323.132812 752.277344 240.171875 717.894531 177.773438 655.464844 C 115.375 593.035156 81.011719 510.027344 81.011719 421.742188 C 81.011719 333.453125 115.375 250.445312 177.773438 188.015625 C 240.171875 125.582031 323.132812 91.203125 411.375 91.203125 C 417.46875 91.203125 422.410156 96.144531 422.410156 102.242188 C 422.410156 108.339844 417.46875 113.285156 411.375 113.285156 C 241.382812 113.285156 103.082031 251.65625 103.082031 421.742188 C 103.082031 591.824219 241.382812 730.195312 411.375 730.195312 C 581.367188 730.195312 719.667969 591.824219 719.667969 421.742188 C 719.667969 307.230469 656.808594 202.746094 555.621094 149.050781 C 550.234375 146.195312 548.183594 139.511719 551.042969 134.125 C 553.898438 128.738281 560.578125 126.6875 565.960938 129.546875 C 674.386719 187.074219 741.738281 299.039062 741.738281 421.742188 C 741.738281 510.027344 707.375 593.035156 644.976562 655.464844 C 582.578125 717.894531 499.617188 752.277344 411.375 752.277344 Z M 411.375 752.277344 " fill-opacity="1" fill-rule="nonzero"/></g><path fill="#000000" d="M 365.75 170.335938 C 363.332031 170.335938 360.898438 169.546875 358.863281 167.917969 C 354.105469 164.109375 353.332031 157.160156 357.136719 152.398438 L 396.085938 103.691406 L 350.839844 64.992188 C 346.210938 61.03125 345.664062 54.0625 349.625 49.425781 C 353.585938 44.789062 360.550781 44.246094 365.183594 48.207031 L 418.546875 93.847656 C 423.070312 97.71875 423.710938 104.488281 419.992188 109.140625 L 374.375 166.191406 C 372.195312 168.917969 368.988281 170.335938 365.75 170.335938 Z M 365.75 170.335938 " fill-opacity="1" fill-rule="nonzero"/><path fill="#000000" d="M 289.988281 564.53125 C 283.894531 564.53125 278.953125 559.589844 278.953125 553.492188 L 278.953125 454.125 C 278.953125 448.027344 283.894531 443.082031 289.988281 443.082031 L 302.476562 443.082031 L 256.882812 374.660156 L 211.292969 443.082031 L 223.777344 443.082031 C 229.871094 443.082031 234.8125 448.027344 234.8125 454.125 L 234.8125 553.492188 C 234.8125 559.589844 229.871094 564.53125 223.777344 564.53125 C 217.683594 564.53125 212.742188 559.589844 212.742188 553.492188 L 212.742188 465.164062 L 190.671875 465.164062 C 186.601562 465.164062 182.863281 462.921875 180.941406 459.332031 C 179.023438 455.742188 179.234375 451.386719 181.492188 448 L 247.703125 348.628906 C 249.746094 345.558594 253.191406 343.710938 256.882812 343.710938 C 260.574219 343.710938 264.019531 345.558594 266.0625 348.628906 L 332.273438 448 C 334.53125 451.386719 334.742188 455.742188 332.824219 459.332031 C 330.902344 462.921875 327.164062 465.164062 323.09375 465.164062 L 301.023438 465.164062 L 301.023438 553.492188 C 301.023438 559.589844 296.082031 564.53125 289.988281 564.53125 Z M 289.988281 564.53125 " fill-opacity="1" fill-rule="nonzero"/><path fill="#000000" d="M 444.480469 564.53125 C 438.386719 564.53125 433.445312 559.589844 433.445312 553.492188 L 433.445312 398.917969 C 433.445312 392.820312 438.386719 387.878906 444.480469 387.878906 L 456.964844 387.878906 L 411.375 319.453125 L 365.785156 387.878906 L 378.269531 387.878906 C 384.363281 387.878906 389.304688 392.820312 389.304688 398.917969 L 389.304688 553.492188 C 389.304688 559.589844 384.363281 564.53125 378.269531 564.53125 C 372.175781 564.53125 367.234375 559.589844 367.234375 553.492188 L 367.234375 409.960938 L 345.164062 409.960938 C 341.09375 409.960938 337.355469 407.71875 335.433594 404.128906 C 333.515625 400.539062 333.726562 396.183594 335.984375 392.792969 L 402.195312 293.425781 C 404.238281 290.351562 407.683594 288.507812 411.375 288.507812 C 415.066406 288.507812 418.511719 290.351562 420.554688 293.425781 L 486.765625 392.792969 C 489.023438 396.183594 489.234375 400.539062 487.316406 404.128906 C 485.394531 407.71875 481.65625 409.960938 477.585938 409.960938 L 455.515625 409.960938 L 455.515625 553.492188 C 455.515625 559.589844 450.574219 564.53125 444.480469 564.53125 Z M 444.480469 564.53125 " fill-opacity="1" fill-rule="nonzero"/><path fill="#000000" d="M 598.972656 564.53125 C 592.878906 564.53125 587.9375 559.589844 587.9375 553.492188 L 587.9375 332.671875 C 587.9375 326.574219 592.878906 321.632812 598.972656 321.632812 L 611.457031 321.632812 L 565.867188 253.207031 L 520.273438 321.632812 L 532.761719 321.632812 C 538.855469 321.632812 543.796875 326.574219 543.796875 332.671875 L 543.796875 553.492188 C 543.796875 559.589844 538.855469 564.53125 532.761719 564.53125 C 526.667969 564.53125 521.726562 559.589844 521.726562 553.492188 L 521.726562 343.714844 L 499.65625 343.714844 C 495.585938 343.714844 491.847656 341.472656 489.925781 337.882812 C 488.003906 334.292969 488.214844 329.9375 490.472656 326.550781 L 556.683594 227.179688 C 558.730469 224.109375 562.175781 222.265625 565.867188 222.265625 C 569.554688 222.265625 573 224.109375 575.046875 227.179688 L 641.257812 326.550781 C 643.515625 329.9375 643.726562 334.292969 641.804688 337.882812 C 639.886719 341.472656 636.148438 343.714844 632.078125 343.714844 L 610.007812 343.714844 L 610.007812 553.492188 C 610.007812 559.589844 605.066406 564.53125 598.972656 564.53125 Z M 598.972656 564.53125 " fill-opacity="1" fill-rule="nonzero"/><path fill="#000000" d="M 621.042969 608.695312 L 201.707031 608.695312 C 195.613281 608.695312 190.671875 603.753906 190.671875 597.65625 L 190.671875 553.492188 C 190.671875 547.394531 195.613281 542.449219 201.707031 542.449219 L 621.042969 542.449219 C 627.136719 542.449219 632.078125 547.394531 632.078125 553.492188 L 632.078125 597.65625 C 632.078125 603.753906 627.136719 608.695312 621.042969 608.695312 Z M 212.742188 586.613281 L 610.007812 586.613281 L 610.007812 564.53125 L 212.742188 564.53125 Z M 212.742188 586.613281 " fill-opacity="1" fill-rule="nonzero"/></svg>