<svg xmlns="http://www.w3.org/2000/svg" xmlns:xlink="http://www.w3.org/1999/xlink" width="1080" zoomAndPan="magnify" viewBox="0 0 810 809.999993" height="1080" preserveAspectRatio="xMidYMid meet" version="1.0"><defs><clipPath id="9693a4deca"><path d="M 109.394531 97.285156 L 707 97.285156 L 707 706.285156 L 109.394531 706.285156 Z M 109.394531 97.285156 " clip-rule="nonzero"/></clipPath></defs><g clip-path="url(#9693a4deca)"><path fill="#ffffff" d="M 120.179688 512.960938 L 182.019531 512.960938 C 182.71875 512.960938 183.289062 513.53125 183.289062 514.230469 L 183.289062 704.824219 C 183.289062 705.519531 182.71875 706.089844 182.019531 706.089844 L 120.179688 706.089844 C 119.480469 706.089844 118.914062 705.519531 118.914062 704.824219 L 118.914062 514.230469 C 118.914062 513.53125 119.480469 512.960938 120.179688 512.960938 Z M 365.980469 647.566406 L 427.820312 647.566406 C 428.519531 647.566406 429.085938 648.136719 429.085938 648.832031 L 429.085938 704.820312 C 429.085938 705.519531 428.519531 706.089844 427.820312 706.089844 L 365.980469 706.089844 C 365.28125 706.089844 364.710938 705.519531 364.710938 704.820312 L 364.710938 648.832031 C 364.710938 648.136719 365.28125 647.566406 365.980469 647.566406 Z M 243.078125 624.15625 L 304.921875 624.15625 C 305.617188 624.15625 306.1875 624.726562 306.1875 625.425781 L 306.1875 704.824219 C 306.1875 705.519531 305.617188 706.089844 304.921875 706.089844 L 243.078125 706.089844 C 242.382812 706.089844 241.8125 705.519531 241.8125 704.824219 L 241.8125 625.425781 C 241.8125 624.726562 242.382812 624.15625 243.078125 624.15625 Z M 402.734375 233.5 L 393.644531 233.75 C 391.257812 233.871094 389.378906 235.925781 389.496094 238.316406 L 392.035156 290.925781 C 392.148438 293.332031 394.199219 295.207031 396.605469 295.09375 C 424.457031 293.78125 451.996094 301.542969 474.96875 317.402344 C 476.949219 318.769531 479.675781 318.28125 481.042969 316.292969 L 510.921875 272.914062 C 512.292969 270.929688 511.800781 268.203125 509.8125 266.832031 C 478.253906 245.046875 441.109375 233.5 402.765625 233.496094 C 402.757812 233.5 402.746094 233.5 402.734375 233.5 Z M 543.652344 547.808594 C 545.261719 546.003906 545.089844 543.21875 543.285156 541.613281 L 503.964844 506.574219 C 502.164062 504.964844 499.375 505.136719 497.769531 506.9375 C 449.191406 561.433594 364.628906 564.128906 312.75 512.25 C 267.554688 467.054688 262.945312 395.382812 301.660156 344.875 C 318.703125 322.644531 342.625 306.554688 369.691406 299.304688 C 372.011719 298.679688 373.429688 296.261719 372.804688 293.9375 L 359.128906 243.0625 C 358.507812 240.746094 356.085938 239.328125 353.761719 239.949219 C 339.03125 243.898438 324.925781 249.613281 311.726562 256.902344 C 310.878906 257.367188 309.847656 256.757812 309.847656 255.792969 L 309.847656 191.859375 C 309.847656 191.457031 310.015625 191.105469 310.335938 190.859375 L 355.917969 155.40625 C 356.148438 155.226562 356.398438 155.140625 356.695312 155.140625 L 569.828125 155.140625 C 570.414062 155.140625 570.90625 155.523438 571.054688 156.089844 C 576.292969 176.21875 594.59375 191.082031 616.363281 191.082031 C 642.222656 191.082031 663.183594 170.121094 663.183594 144.261719 C 663.183594 118.40625 642.222656 97.441406 616.363281 97.441406 C 593.644531 97.441406 574.703125 113.628906 570.445312 135.097656 C 570.324219 135.699219 569.8125 136.121094 569.199219 136.121094 L 353.007812 136.121094 C 350.53125 136.121094 348.675781 136.953125 346.894531 138.34375 L 294.503906 179.09375 C 292.09375 180.964844 290.832031 183.765625 290.832031 186.597656 L 290.824219 186.597656 L 290.824219 269.664062 C 290.824219 270.078125 290.640625 270.429688 290.3125 270.679688 C 198.054688 339.207031 187.527344 473.957031 269.289062 555.714844 C 320.042969 606.46875 394.832031 623.863281 462.390625 601.347656 C 462.898438 601.179688 463.4375 601.335938 463.773438 601.75 L 514.863281 664.625 C 516.867188 667.085938 519.039062 668.78125 522.726562 668.78125 L 581.195312 668.78125 C 581.792969 668.78125 582.296875 669.183594 582.429688 669.765625 C 587.195312 690.570312 605.820312 706.089844 628.070312 706.089844 C 653.925781 706.089844 674.886719 685.128906 674.886719 659.269531 C 674.886719 633.410156 653.925781 612.449219 628.070312 612.449219 C 605.820312 612.449219 587.195312 627.96875 582.429688 648.773438 C 582.296875 649.355469 581.792969 649.757812 581.195312 649.757812 L 527.816406 649.757812 C 527.421875 649.757812 527.082031 649.597656 526.832031 649.289062 L 482.699219 594.972656 C 482.179688 594.332031 482.394531 593.378906 483.144531 593.027344 C 506.113281 582.195312 526.742188 566.777344 543.652344 547.808594 Z M 540.40625 293.160156 C 578.433594 333.675781 596.539062 388.433594 590.300781 443.515625 C 590.214844 444.273438 590.796875 444.925781 591.558594 444.925781 L 649.339844 444.925781 C 650.039062 444.925781 650.609375 444.359375 650.609375 443.660156 L 650.609375 366.707031 C 650.609375 366.109375 650.207031 365.605469 649.625 365.472656 C 628.820312 360.707031 613.300781 342.082031 613.300781 319.835938 C 613.300781 293.976562 634.261719 273.015625 660.121094 273.015625 C 685.976562 273.015625 706.9375 293.976562 706.9375 319.835938 C 706.9375 342.082031 691.417969 360.707031 670.613281 365.472656 C 670.03125 365.605469 669.628906 366.109375 669.628906 366.707031 L 669.628906 454.4375 C 669.628906 459.691406 665.371094 463.949219 660.121094 463.949219 L 587.855469 463.949219 C 587.257812 463.949219 586.757812 464.347656 586.621094 464.929688 C 582.554688 482.46875 575.996094 499.273438 567.136719 514.960938 C 565.960938 517.046875 563.300781 517.804688 561.207031 516.625 L 515.328125 490.746094 C 513.242188 489.570312 512.484375 486.90625 513.664062 484.820312 C 540.890625 436.585938 533.730469 375.777344 495.621094 335.191406 C 493.972656 333.4375 494.039062 330.660156 495.800781 329.007812 L 534.21875 292.980469 C 535.976562 291.332031 538.753906 291.398438 540.40625 293.160156 Z M 118.914062 183.035156 C 113.660156 183.035156 109.402344 178.777344 109.402344 173.523438 C 109.402344 168.273438 113.660156 164.015625 118.914062 164.015625 L 230.109375 164.015625 C 235.359375 164.015625 239.617188 168.273438 239.617188 173.523438 C 239.617188 178.777344 235.359375 183.035156 230.109375 183.035156 Z M 118.914062 454.582031 C 113.660156 454.582031 109.402344 450.324219 109.402344 445.074219 C 109.402344 439.820312 113.660156 435.5625 118.914062 435.5625 L 172.976562 435.5625 C 178.226562 435.5625 182.488281 439.820312 182.488281 445.074219 C 182.488281 450.324219 178.230469 454.582031 172.976562 454.582031 Z M 118.914062 386.695312 C 113.660156 386.695312 109.402344 382.4375 109.402344 377.183594 C 109.402344 371.933594 113.660156 367.675781 118.914062 367.675781 L 172.976562 367.675781 C 178.226562 367.675781 182.488281 371.933594 182.488281 377.183594 C 182.488281 382.4375 178.230469 386.695312 172.976562 386.695312 Z M 118.914062 318.808594 C 113.660156 318.808594 109.402344 314.550781 109.402344 309.296875 C 109.402344 304.046875 113.660156 299.789062 118.914062 299.789062 L 172.976562 299.789062 C 178.226562 299.789062 182.488281 304.046875 182.488281 309.296875 C 182.488281 314.550781 178.230469 318.808594 172.976562 318.808594 Z M 118.914062 250.921875 C 113.660156 250.921875 109.402344 246.664062 109.402344 241.410156 C 109.402344 236.15625 113.660156 231.898438 118.914062 231.898438 L 230.109375 231.898438 C 235.359375 231.898438 239.617188 236.15625 239.617188 241.410156 C 239.617188 246.664062 235.359375 250.921875 230.109375 250.921875 Z M 118.914062 250.921875 " fill-opacity="1" fill-rule="evenodd"/></g></svg>