<svg xmlns="http://www.w3.org/2000/svg" xmlns:xlink="http://www.w3.org/1999/xlink" width="1080" zoomAndPan="magnify" viewBox="0 0 810 809.999993" height="1080" preserveAspectRatio="xMidYMid meet" version="1.0"><defs><clipPath id="c661453b7f"><path d="M 113.566406 71.816406 L 738.316406 71.816406 L 738.316406 696.5625 L 113.566406 696.5625 Z M 113.566406 71.816406 " clip-rule="nonzero"/></clipPath></defs><g clip-path="url(#c661453b7f)"><path fill="#000000" d="M 734.777344 348.546875 C 732.53125 346.628906 729.5625 345.796875 726.648438 346.261719 L 695.183594 351.296875 C 687.910156 291.40625 660.660156 235.332031 617.730469 192.402344 C 574.800781 149.472656 518.726562 122.222656 458.832031 114.949219 L 463.867188 83.484375 C 464.335938 80.574219 463.5 77.601562 461.585938 75.355469 C 459.671875 73.109375 456.871094 71.816406 453.917969 71.816406 L 397.964844 71.816406 C 395.015625 71.816406 392.214844 73.109375 390.296875 75.355469 C 388.382812 77.601562 387.546875 80.574219 388.015625 83.484375 L 393.050781 114.949219 C 333.160156 122.222656 277.085938 149.472656 234.15625 192.402344 C 191.226562 235.332031 163.976562 291.40625 156.703125 351.296875 L 125.238281 346.261719 C 122.324219 345.796875 119.351562 346.632812 117.109375 348.542969 C 114.863281 350.460938 113.570312 353.261719 113.570312 356.210938 L 113.570312 412.164062 C 113.570312 415.117188 114.863281 417.917969 117.109375 419.832031 C 118.945312 421.398438 121.269531 422.242188 123.644531 422.242188 C 124.175781 422.242188 124.707031 422.199219 125.238281 422.117188 L 156.703125 417.078125 C 163.976562 476.972656 191.226562 533.046875 234.15625 575.976562 C 277.085938 618.90625 333.160156 646.15625 393.054688 653.425781 L 388.015625 684.894531 C 387.550781 687.804688 388.386719 690.777344 390.300781 693.023438 C 392.214844 695.269531 395.015625 696.5625 397.964844 696.5625 L 453.921875 696.5625 C 456.871094 696.5625 459.671875 695.269531 461.589844 693.023438 C 463.503906 690.777344 464.335938 687.804688 463.871094 684.894531 L 458.835938 653.425781 C 518.726562 646.152344 574.800781 618.90625 617.730469 575.976562 C 660.660156 533.046875 687.910156 476.972656 695.183594 417.078125 L 726.648438 422.117188 C 727.179688 422.199219 727.710938 422.242188 728.242188 422.242188 C 730.621094 422.242188 732.941406 421.398438 734.777344 419.832031 C 737.023438 417.917969 738.316406 415.117188 738.316406 412.164062 L 738.316406 356.210938 C 738.316406 353.261719 737.023438 350.460938 734.777344 348.546875 Z M 675.269531 354.484375 L 640.570312 360.039062 C 629.445312 259.996094 550.136719 180.6875 450.09375 169.558594 L 455.648438 134.863281 C 571.363281 148.402344 661.726562 238.769531 675.269531 354.484375 Z M 567.363281 396.625 L 620.652344 405.15625 C 610.933594 496.617188 538.371094 569.179688 446.910156 578.902344 L 438.378906 525.605469 C 437.398438 519.472656 432.164062 515.019531 425.941406 515.019531 C 419.71875 515.019531 414.488281 519.472656 413.503906 525.605469 C 413.503906 525.605469 413.503906 525.609375 413.503906 525.609375 L 404.976562 578.902344 C 313.511719 569.179688 240.953125 496.617188 231.230469 405.15625 L 284.523438 396.625 C 290.660156 395.648438 295.113281 390.414062 295.113281 384.191406 C 295.113281 377.96875 290.664062 372.734375 284.527344 371.753906 C 284.527344 371.753906 284.523438 371.753906 284.523438 371.753906 L 231.230469 363.222656 C 240.953125 271.761719 313.511719 199.199219 404.976562 189.476562 L 413.503906 242.773438 C 414.488281 248.910156 419.71875 253.359375 425.941406 253.359375 C 432.164062 253.359375 437.394531 248.910156 438.378906 242.773438 C 438.378906 242.773438 438.378906 242.773438 438.378906 242.769531 L 446.90625 189.476562 C 538.371094 199.199219 610.933594 271.761719 620.652344 363.222656 L 567.355469 371.753906 C 561.222656 372.734375 556.769531 377.96875 556.769531 384.191406 C 556.773438 390.414062 561.226562 395.644531 567.363281 396.625 Z M 442.101562 91.96875 L 425.941406 192.953125 L 409.78125 91.96875 Z M 396.238281 134.863281 L 401.789062 169.558594 C 301.75 180.6875 222.441406 259.996094 211.3125 360.035156 L 176.617188 354.484375 C 190.15625 238.769531 280.519531 148.402344 396.238281 134.863281 Z M 133.71875 368.027344 L 234.703125 384.191406 L 133.71875 400.351562 Z M 176.617188 413.894531 L 211.3125 408.34375 C 222.4375 508.382812 301.746094 587.691406 401.789062 598.820312 L 396.238281 633.515625 C 280.519531 619.976562 190.15625 529.609375 176.617188 413.894531 Z M 409.78125 676.410156 L 425.941406 575.425781 L 442.101562 676.410156 Z M 455.648438 633.515625 L 450.09375 598.816406 C 550.136719 587.691406 629.445312 508.382812 640.570312 408.339844 L 675.265625 413.894531 C 661.726562 529.609375 571.363281 619.976562 455.648438 633.515625 Z M 718.164062 400.351562 L 617.179688 384.191406 L 718.164062 368.027344 Z M 464.644531 387.019531 C 479.234375 375.53125 488.628906 357.726562 488.628906 337.757812 C 488.628906 303.191406 460.507812 275.070312 425.941406 275.070312 C 391.371094 275.070312 363.25 303.191406 363.25 337.757812 C 363.25 357.726562 372.648438 375.53125 387.238281 387.019531 C 347.136719 401.402344 317.238281 437.554688 312.464844 482.15625 C 312.15625 485 313.074219 487.839844 314.988281 489.964844 C 316.898438 492.09375 319.625 493.304688 322.480469 493.304688 L 529.394531 493.308594 C 532.253906 493.308594 534.980469 492.09375 536.890625 489.96875 C 538.800781 487.839844 539.71875 485.003906 539.414062 482.160156 C 534.644531 437.554688 504.746094 401.402344 464.644531 387.019531 Z M 383.40625 337.757812 C 383.40625 314.304688 402.484375 295.222656 425.941406 295.222656 C 449.398438 295.222656 468.476562 314.304688 468.476562 337.757812 C 468.476562 361.214844 449.398438 380.292969 425.941406 380.292969 C 402.484375 380.292969 383.40625 361.214844 383.40625 337.757812 Z M 334.371094 473.152344 C 344.046875 431 381.609375 400.445312 425.941406 400.445312 C 470.273438 400.445312 507.839844 431 517.511719 473.15625 Z M 334.371094 473.152344 " fill-opacity="1" fill-rule="nonzero"/></g></svg>