<svg width="56" height="50" viewBox="0 0 56 50" fill="none" xmlns="http://www.w3.org/2000/svg">
<path d="M50.6449 42.514H4.49639C2.01709 42.514 0 40.4972 0 38.0176V10.264C0 7.78467 2.01709 5.76758 4.49639 5.76758H24.1822C24.5267 5.76758 24.8059 6.04704 24.8059 6.39133C24.8059 6.73586 24.5267 7.01508 24.1822 7.01508H4.49639C2.70516 7.01508 1.2475 8.47249 1.2475 10.264V38.0176C1.2475 39.8091 2.70516 41.2665 4.49639 41.2665H50.6449C52.4362 41.2665 53.8938 39.8091 53.8938 38.0176V10.264C53.8938 8.47249 52.4362 7.01508 50.6449 7.01508C50.3004 7.01508 50.0212 6.73586 50.0212 6.39133C50.0212 6.04704 50.3004 5.76758 50.6449 5.76758C53.1242 5.76758 55.1413 7.78467 55.1413 10.264V38.0176C55.1413 40.4972 53.1242 42.514 50.6449 42.514Z" fill="#0CC0DF"/>
<mask id="mask0_2356_387" style="mask-type:luminance" maskUnits="userSpaceOnUse" x="22" y="41" width="12" height="9">
<path d="M22.0195 41.2112H33.1244V50H22.0195V41.2112Z" fill="white"/>
</mask>
<g mask="url(#mask0_2356_387)">
<path d="M22.6664 50.0012C22.5685 50.0012 22.4692 49.978 22.3768 49.9294C22.0719 49.7691 21.9544 49.3919 22.1147 49.087C23.3224 46.7894 23.3206 44.5913 22.109 42.1694C21.9549 41.8612 22.0796 41.4863 22.3877 41.3322C22.6959 41.1782 23.0706 41.3031 23.2246 41.6109C24.6122 44.3849 24.6105 47.02 23.2189 49.6673C23.1075 49.8797 22.8906 50.0012 22.6664 50.0012ZM32.4779 50.0012C32.2536 50.0012 32.0369 49.8797 31.9252 49.6673C30.5339 47.0203 30.5319 44.3849 31.9195 41.6109C32.0736 41.3031 32.448 41.1779 32.7564 41.3322C33.0645 41.4863 33.1894 41.8612 33.0351 42.1694C31.8235 44.5913 31.8218 46.7894 33.0294 49.087C33.1897 49.3919 33.0725 49.7691 32.7674 49.9294C32.6751 49.9782 32.5757 50.0012 32.4779 50.0012Z" fill="#0CC0DF"/>
</g>
<mask id="mask1_2356_387" style="mask-type:luminance" maskUnits="userSpaceOnUse" x="19" y="48" width="18" height="2">
<path d="M19.0176 48.7419H36.1216V49.9999H19.0176V48.7419Z" fill="white"/>
</mask>
<g mask="url(#mask1_2356_387)">
<path d="M35.4443 50.0009H19.696C19.3515 50.0009 19.0723 49.7217 19.0723 49.3772C19.0723 49.0324 19.3515 48.7534 19.696 48.7534H35.4443C35.7889 48.7534 36.0681 49.0324 36.0681 49.3772C36.0681 49.7217 35.7889 50.0009 35.4443 50.0009Z" fill="#0CC0DF"/>
</g>
<path d="M37.4137 12.7826C29.6445 12.7826 23.5586 9.97527 23.5586 6.39132C23.5586 2.80738 29.6445 0 37.4137 0C45.1829 0 51.2689 2.80738 51.2689 6.39132C51.2689 9.97527 45.1829 12.7826 37.4137 12.7826ZM37.4137 1.24775C33.9729 1.24775 30.7417 1.83012 28.3143 2.88815C26.0848 3.86017 24.8061 5.13684 24.8061 6.39132C24.8061 7.6458 26.0848 8.92272 28.3143 9.8945C30.7414 10.9525 33.9729 11.5351 37.4137 11.5351C40.8546 11.5351 44.086 10.9525 46.513 9.8945C48.7427 8.92272 50.0214 7.6458 50.0214 6.39132C50.0214 5.13709 48.7427 3.85992 46.513 2.88815C44.086 1.83012 40.8546 1.24775 37.4137 1.24775Z" fill="#0CC0DF"/>
<path d="M37.4137 19.8393C29.6445 19.8393 23.5586 17.0319 23.5586 13.448C23.5586 13.1034 23.8381 12.8242 24.1823 12.8242C24.5269 12.8242 24.8061 13.1034 24.8061 13.448C24.8061 15.932 29.8721 18.5915 37.4137 18.5915C44.9551 18.5915 50.0214 15.932 50.0214 13.448C50.0214 13.1034 50.3006 12.8242 50.6451 12.8242C50.9896 12.8242 51.2689 13.1034 51.2689 13.448C51.2689 17.0319 45.1829 19.8393 37.4137 19.8393Z" fill="#0CC0DF"/>
<path d="M37.4137 26.8959C29.6445 26.8959 23.5586 24.0886 23.5586 20.5046C23.5586 20.1601 23.8381 19.8809 24.1823 19.8809C24.5269 19.8809 24.8061 20.1601 24.8061 20.5046C24.8061 22.9886 29.8721 25.6482 37.4137 25.6482C44.9551 25.6482 50.0214 22.9886 50.0214 20.5046C50.0214 20.1601 50.3006 19.8809 50.6451 19.8809C50.9896 19.8809 51.2689 20.1601 51.2689 20.5046C51.2689 24.0886 45.1829 26.8959 37.4137 26.8959Z" fill="#0CC0DF"/>
<path d="M24.1823 21.1285C23.8381 21.1285 23.5586 20.849 23.5586 20.5047V6.39133C23.5586 6.04704 23.8381 5.76758 24.1823 5.76758C24.5269 5.76758 24.8061 6.04704 24.8061 6.39133V20.5047C24.8061 20.8493 24.5269 21.1285 24.1823 21.1285Z" fill="#0CC0DF"/>
<path d="M50.6452 21.1285C50.3007 21.1285 50.0215 20.849 50.0215 20.5047V6.39133C50.0215 6.04704 50.3007 5.76758 50.6452 5.76758C50.9898 5.76758 51.269 6.04704 51.269 6.39133V20.5047C51.269 20.8493 50.9898 21.1285 50.6452 21.1285Z" fill="#0CC0DF"/>
<path d="M9.55658 25.7749C9.41747 25.7749 9.27786 25.7288 9.16193 25.6338L4.81064 22.073C4.6658 21.9546 4.58203 21.7774 4.58203 21.5901C4.58203 21.4032 4.66605 21.2259 4.81064 21.1075L9.16193 17.5465C9.42844 17.3286 9.82133 17.3675 10.0395 17.6342C10.2579 17.901 10.2185 18.2939 9.95197 18.512L6.19052 21.5901L9.95197 24.6682C10.2185 24.8864 10.2579 25.2793 10.0395 25.546C9.91632 25.6969 9.73707 25.7749 9.55658 25.7749Z" fill="#0CC0DF"/>
<path d="M17.4172 25.775C17.2367 25.775 17.0574 25.697 16.934 25.5464C16.7159 25.2796 16.755 24.8865 17.0218 24.6683L20.783 21.5902L17.0218 18.5124C16.755 18.294 16.7159 17.9011 16.934 17.6346C17.1524 17.3678 17.5453 17.3287 17.8118 17.5468L22.1629 21.1076C22.3077 21.2263 22.3917 21.4033 22.3917 21.5905C22.3917 21.7777 22.3077 21.9547 22.1629 22.0734L17.8118 25.6339C17.6961 25.7289 17.5563 25.775 17.4172 25.775Z" fill="#0CC0DF"/>
<path d="M12.3762 26.3623C12.3228 26.3623 12.2685 26.3554 12.2144 26.3409C11.8818 26.2517 11.6841 25.9096 11.7734 25.577L13.9964 17.2808C14.0854 16.948 14.4277 16.7506 14.7603 16.8398C15.0931 16.9288 15.2905 17.2711 15.2015 17.6037L12.9785 25.8999C12.9037 26.1786 12.6517 26.3623 12.3762 26.3623Z" fill="#0CC0DF"/>
<path d="M15.6283 31.8183H5.47531C5.13103 31.8183 4.85156 31.5391 4.85156 31.1946C4.85156 30.85 5.13103 30.5708 5.47531 30.5708H15.6283C15.9726 30.5708 16.2521 30.85 16.2521 31.1946C16.2521 31.5391 15.9726 31.8183 15.6283 31.8183Z" fill="#0CC0DF"/>
<path d="M22.8957 31.8183H19.2038C18.8593 31.8183 18.5801 31.5391 18.5801 31.1946C18.5801 30.85 18.8593 30.5708 19.2038 30.5708H22.8957C23.2403 30.5708 23.5195 30.85 23.5195 31.1946C23.5195 31.5391 23.2405 31.8183 22.8957 31.8183Z" fill="#0CC0DF"/>
<path d="M33.396 31.8183H29.7038C29.3593 31.8183 29.0801 31.5391 29.0801 31.1946C29.0801 30.85 29.3593 30.5708 29.7038 30.5708H33.396C33.7405 30.5708 34.0197 30.85 34.0197 31.1946C34.0197 31.5391 33.7405 31.8183 33.396 31.8183Z" fill="#0CC0DF"/>
<path d="M49.8932 31.8183H36.9714C36.6269 31.8183 36.3477 31.5391 36.3477 31.1946C36.3477 30.85 36.6269 30.5708 36.9714 30.5708H49.8929C50.2377 30.5708 50.5169 30.85 50.5169 31.1946C50.5169 31.5391 50.2377 31.8183 49.8932 31.8183Z" fill="#0CC0DF"/>
<path d="M12.7581 36.4028H5.47531C5.13103 36.4028 4.85156 36.1236 4.85156 35.779C4.85156 35.4345 5.13103 35.1553 5.47531 35.1553H12.7581C13.1024 35.1553 13.3819 35.4345 13.3819 35.779C13.3819 36.1236 13.1027 36.4028 12.7581 36.4028Z" fill="#0CC0DF"/>
<path d="M34.4498 36.4028H16.6335C16.2892 36.4028 16.0098 36.1236 16.0098 35.779C16.0098 35.4345 16.2892 35.1553 16.6335 35.1553H34.4498C34.7943 35.1553 35.0735 35.4345 35.0735 35.779C35.0735 36.1236 34.7943 36.4028 34.4498 36.4028Z" fill="#0CC0DF"/>
<path d="M42.3256 36.4028H39.1062C38.7616 36.4028 38.4824 36.1236 38.4824 35.779C38.4824 35.4345 38.7616 35.1553 39.1062 35.1553H42.3256C42.6702 35.1553 42.9494 35.4345 42.9494 35.779C42.9494 36.1236 42.6702 36.4028 42.3256 36.4028Z" fill="#0CC0DF"/>
<path d="M49.937 36.4028H46.7175C46.373 36.4028 46.0938 36.1236 46.0938 35.779C46.0938 35.4345 46.373 35.1553 46.7175 35.1553H49.937C50.2815 35.1553 50.5607 35.4345 50.5607 35.779C50.5607 36.1236 50.2815 36.4028 49.937 36.4028Z" fill="#0CC0DF"/>
<path d="M20.2242 13.1262H13.1042C12.7599 13.1262 12.4805 12.8467 12.4805 12.5024C12.4805 12.1579 12.7599 11.8787 13.1042 11.8787H20.2242C20.5688 11.8787 20.8482 12.1579 20.8482 12.5024C20.8482 12.8467 20.569 13.1262 20.2242 13.1262Z" fill="#0CC0DF"/>
<path d="M9.22629 13.1262H5.47531C5.13103 13.1262 4.85156 12.8467 4.85156 12.5024C4.85156 12.1579 5.13103 11.8787 5.47531 11.8787H9.22604C9.57057 11.8787 9.84979 12.1579 9.84979 12.5024C9.84979 12.8467 9.57057 13.1262 9.22629 13.1262Z" fill="#0CC0DF"/>
</svg>
