<svg xmlns="http://www.w3.org/2000/svg" xmlns:xlink="http://www.w3.org/1999/xlink" width="1440" zoomAndPan="magnify" viewBox="0 0 1080 1619.99993" height="2160" preserveAspectRatio="xMidYMid meet" version="1.0"><defs><clipPath id="21c8b6d5d8"><path d="M 178 986 L 892 986 L 892 1082.550781 L 178 1082.550781 Z M 178 986 " clip-rule="nonzero"/></clipPath><clipPath id="4cc44aa717"><path d="M 111 537.300781 L 969 537.300781 L 969 971 L 111 971 Z M 111 537.300781 " clip-rule="nonzero"/></clipPath></defs><path fill="#ff5757" d="M 467.191406 692.179688 L 428.804688 803.375 L 443.363281 803.375 L 455.277344 767.636719 L 494.992188 767.636719 L 506.90625 803.375 L 522.792969 803.375 L 484.402344 692.179688 Z M 459.25 757.046875 L 469.839844 725.273438 C 472.488281 718.65625 473.8125 712.039062 475.136719 705.417969 C 476.460938 712.039062 479.105469 718.65625 480.429688 725.273438 L 491.019531 757.046875 Z M 459.25 757.046875 " fill-opacity="1" fill-rule="nonzero"/><path fill="#ff5757" d="M 567.800781 690.855469 C 555.886719 690.855469 546.617188 692.179688 540 693.503906 L 540 803.375 L 554.5625 803.375 L 554.5625 758.367188 C 558.53125 759.691406 562.503906 759.691406 566.476562 759.691406 C 581.035156 759.691406 592.949219 755.722656 600.894531 747.777344 C 606.1875 742.484375 610.160156 734.542969 610.160156 723.949219 C 610.160156 713.359375 606.1875 705.417969 600.894531 700.125 C 591.625 694.828125 581.035156 690.855469 567.800781 690.855469 Z M 566.476562 747.777344 C 561.179688 747.777344 557.207031 747.777344 554.5625 746.453125 L 554.5625 702.769531 C 557.207031 702.769531 562.503906 701.445312 567.800781 701.445312 C 583.683594 701.445312 594.273438 708.066406 594.273438 723.949219 C 594.273438 739.835938 583.683594 747.777344 566.476562 747.777344 Z M 566.476562 747.777344 " fill-opacity="1" fill-rule="nonzero"/><path fill="#ff5757" d="M 627.367188 692.179688 L 641.929688 692.179688 L 641.929688 803.375 L 627.367188 803.375 Z M 627.367188 692.179688 " fill-opacity="1" fill-rule="nonzero"/><g clip-path="url(#21c8b6d5d8)"><path fill="#ff5757" d="M 882.855469 986.054688 L 189.203125 986.054688 C 183.90625 986.054688 178.613281 990.027344 178.613281 996.644531 C 178.613281 1044.300781 217 1082.691406 264.65625 1082.691406 L 804.753906 1082.691406 C 852.40625 1082.691406 890.796875 1044.300781 890.796875 996.644531 C 892.121094 990.027344 888.148438 986.054688 882.855469 986.054688 Z M 806.078125 1062.835938 L 265.980469 1062.835938 C 232.886719 1062.835938 205.085938 1037.683594 199.792969 1005.914062 L 872.265625 1005.914062 C 866.96875 1037.683594 839.171875 1062.835938 806.078125 1062.835938 Z M 806.078125 1062.835938 " fill-opacity="1" fill-rule="nonzero"/></g><g clip-path="url(#4cc44aa717)"><path fill="#ff5757" d="M 844.464844 763.664062 L 884.179688 763.664062 C 888.148438 782.195312 905.359375 795.433594 925.214844 795.433594 C 947.71875 795.433594 967.574219 776.902344 967.574219 753.074219 C 967.574219 730.570312 949.042969 710.714844 925.214844 710.714844 C 905.359375 710.714844 889.472656 723.949219 884.179688 742.484375 L 844.464844 742.484375 L 844.464844 651.144531 L 884.179688 651.144531 C 888.148438 669.675781 905.359375 682.914062 925.214844 682.914062 C 947.71875 682.914062 967.574219 664.382812 967.574219 640.554688 C 967.574219 618.050781 949.042969 598.195312 925.214844 598.195312 C 905.359375 598.195312 889.472656 611.429688 884.179688 629.964844 L 844.464844 629.964844 L 844.464844 547.890625 C 844.464844 542.59375 840.496094 537.300781 833.875 537.300781 L 236.859375 537.300781 C 231.5625 537.300781 226.269531 541.273438 226.269531 547.890625 L 226.269531 629.964844 L 194.496094 629.964844 C 190.527344 614.078125 173.316406 599.515625 154.785156 599.515625 C 132.28125 599.515625 112.425781 618.050781 112.425781 641.878906 C 112.425781 664.382812 130.957031 684.238281 154.785156 684.238281 C 174.640625 684.238281 190.527344 671 195.820312 652.46875 L 227.589844 652.46875 L 227.589844 743.808594 L 194.496094 743.808594 C 190.527344 725.273438 173.316406 712.039062 153.460938 712.039062 C 130.957031 712.039062 111.101562 730.570312 111.101562 754.398438 C 111.101562 776.902344 129.632812 796.757812 153.460938 796.757812 C 173.316406 796.757812 189.203125 783.519531 194.496094 764.988281 L 226.269531 764.988281 L 226.269531 856.328125 L 194.496094 856.328125 C 190.527344 837.792969 173.316406 824.558594 153.460938 824.558594 C 130.957031 824.558594 111.101562 843.089844 111.101562 866.917969 C 111.101562 889.421875 129.632812 909.277344 153.460938 909.277344 C 173.316406 909.277344 189.203125 896.039062 194.496094 877.507812 L 226.269531 877.507812 L 226.269531 959.582031 C 226.269531 964.875 230.238281 970.171875 236.859375 970.171875 L 835.199219 970.171875 C 840.496094 970.171875 845.789062 966.199219 845.789062 959.582031 L 845.789062 877.507812 L 885.503906 877.507812 C 889.472656 896.039062 906.683594 909.277344 926.539062 909.277344 C 949.042969 909.277344 968.898438 890.746094 968.898438 866.917969 C 968.898438 844.414062 950.367188 824.558594 926.539062 824.558594 C 906.683594 824.558594 890.796875 837.792969 885.503906 856.328125 L 845.789062 856.328125 L 845.789062 763.664062 Z M 925.214844 730.570312 C 937.128906 730.570312 947.71875 739.835938 947.71875 753.074219 C 947.71875 764.988281 938.453125 775.578125 925.214844 775.578125 C 913.300781 775.578125 902.710938 766.3125 902.710938 753.074219 C 904.035156 741.160156 913.300781 730.570312 925.214844 730.570312 Z M 925.214844 619.375 C 937.128906 619.375 947.71875 628.640625 947.71875 641.878906 C 947.71875 653.792969 938.453125 664.382812 925.214844 664.382812 C 913.300781 664.382812 902.710938 655.117188 902.710938 641.878906 C 904.035156 629.964844 913.300781 619.375 925.214844 619.375 Z M 154.785156 664.382812 C 142.871094 664.382812 132.28125 655.117188 132.28125 641.878906 C 132.28125 629.964844 141.546875 619.375 154.785156 619.375 C 168.023438 619.375 177.289062 628.640625 177.289062 641.878906 C 175.964844 653.792969 166.699219 664.382812 154.785156 664.382812 Z M 154.785156 775.578125 C 142.871094 775.578125 132.28125 766.3125 132.28125 753.074219 C 132.28125 741.160156 141.546875 730.570312 154.785156 730.570312 C 168.023438 730.570312 177.289062 739.835938 177.289062 753.074219 C 175.964844 764.988281 166.699219 775.578125 154.785156 775.578125 Z M 154.785156 886.773438 C 142.871094 886.773438 132.28125 877.507812 132.28125 864.269531 C 132.28125 852.355469 141.546875 841.765625 154.785156 841.765625 C 168.023438 841.765625 177.289062 851.03125 177.289062 864.269531 C 175.964844 876.183594 166.699219 886.773438 154.785156 886.773438 Z M 925.214844 841.765625 C 937.128906 841.765625 947.71875 851.03125 947.71875 864.269531 C 947.71875 876.183594 938.453125 886.773438 925.214844 886.773438 C 913.300781 886.773438 902.710938 877.507812 902.710938 864.269531 C 904.035156 852.355469 913.300781 841.765625 925.214844 841.765625 Z M 824.609375 855.003906 L 810.046875 855.003906 L 804.753906 849.707031 L 804.753906 762.339844 L 824.609375 762.339844 Z M 675.023438 825.878906 L 737.242188 825.878906 L 784.894531 860.296875 L 784.894531 906.628906 L 287.160156 906.628906 L 287.160156 860.296875 L 334.816406 825.878906 L 397.035156 825.878906 C 402.328125 825.878906 407.625 821.910156 407.625 815.289062 C 407.625 808.671875 403.652344 804.699219 397.035156 804.699219 L 330.84375 804.699219 C 328.199219 804.699219 326.875 804.699219 325.550781 806.023438 L 285.835938 833.824219 L 285.835938 761.015625 L 398.355469 761.015625 C 403.652344 761.015625 408.949219 757.046875 408.949219 750.425781 C 408.949219 745.132812 404.976562 739.835938 398.355469 739.835938 L 285.835938 739.835938 L 285.835938 667.027344 L 325.550781 694.828125 C 326.875 696.152344 329.523438 696.152344 330.84375 696.152344 L 397.035156 696.152344 C 402.328125 696.152344 407.625 692.179688 407.625 685.5625 C 407.625 680.265625 403.652344 674.972656 397.035156 674.972656 L 334.816406 674.972656 L 287.160156 640.554688 L 287.160156 599.515625 L 786.21875 599.515625 L 786.21875 645.847656 L 738.5625 680.265625 L 676.347656 680.265625 C 671.050781 680.265625 665.757812 684.238281 665.757812 690.855469 C 665.757812 696.152344 669.730469 701.445312 676.347656 701.445312 L 742.535156 701.445312 C 745.183594 701.445312 746.507812 701.445312 747.832031 700.125 L 787.542969 672.324219 L 787.542969 745.132812 L 672.375 745.132812 C 667.082031 745.132812 661.785156 749.101562 661.785156 755.722656 C 661.785156 761.015625 665.757812 766.3125 672.375 766.3125 L 784.894531 766.3125 L 784.894531 839.117188 L 745.183594 811.320312 C 743.859375 809.996094 741.210938 809.996094 739.886719 809.996094 L 673.699219 809.996094 C 668.40625 809.996094 663.109375 813.96875 663.109375 820.585938 C 663.109375 827.203125 668.40625 825.878906 675.023438 825.878906 Z M 824.609375 743.808594 L 804.753906 743.808594 L 804.753906 656.4375 L 811.371094 652.46875 L 825.933594 652.46875 L 825.933594 743.808594 Z M 246.125 559.804688 L 824.609375 559.804688 L 824.609375 631.289062 L 807.398438 631.289062 C 806.078125 631.289062 806.078125 631.289062 804.753906 631.289062 L 804.753906 588.925781 C 804.753906 583.632812 800.78125 579.660156 794.164062 579.660156 L 276.570312 579.660156 C 271.277344 579.660156 265.980469 583.632812 265.980469 588.925781 L 265.980469 631.289062 C 264.65625 631.289062 264.65625 631.289062 263.332031 631.289062 L 246.125 631.289062 Z M 246.125 651.144531 L 260.6875 651.144531 L 265.980469 655.117188 L 265.980469 742.484375 L 246.125 742.484375 Z M 246.125 763.664062 L 265.980469 763.664062 L 265.980469 851.03125 L 260.6875 855.003906 L 246.125 855.003906 Z M 824.609375 946.34375 L 246.125 946.34375 L 246.125 874.859375 L 263.332031 874.859375 C 264.65625 874.859375 264.65625 874.859375 265.980469 874.859375 L 265.980469 917.21875 C 265.980469 922.515625 269.953125 927.8125 276.570312 927.8125 L 795.484375 927.8125 C 800.78125 927.8125 806.078125 923.839844 806.078125 917.21875 L 806.078125 874.859375 C 807.398438 874.859375 807.398438 874.859375 808.722656 874.859375 L 825.933594 874.859375 L 825.933594 946.34375 Z M 824.609375 946.34375 " fill-opacity="1" fill-rule="nonzero"/></g></svg>