<svg xmlns="http://www.w3.org/2000/svg" xmlns:xlink="http://www.w3.org/1999/xlink" width="1440" zoomAndPan="magnify" viewBox="0 0 1080 1619.99993" height="2160" preserveAspectRatio="xMidYMid meet" version="1.0"><defs><clipPath id="92d15ad977"><path d="M 275 481.824219 L 805 481.824219 L 805 663 L 275 663 Z M 275 481.824219 " clip-rule="nonzero"/></clipPath><clipPath id="aee1adf536"><path d="M 198.148438 1025 L 882 1025 L 882 1110 L 198.148438 1110 Z M 198.148438 1025 " clip-rule="nonzero"/></clipPath><clipPath id="f9a51d6324"><path d="M 408 996 L 672 996 L 672 1138.074219 L 408 1138.074219 Z M 408 996 " clip-rule="nonzero"/></clipPath></defs><g clip-path="url(#92d15ad977)"><path fill="#ffbd59" d="M 315.542969 481.824219 L 764.449219 481.824219 C 775.261719 481.824219 785.273438 486.226562 792.882812 493.4375 C 800.089844 500.644531 804.496094 510.65625 804.496094 521.867188 L 804.496094 622.382812 C 804.496094 633.195312 800.089844 643.207031 792.882812 650.816406 C 785.273438 658.023438 775.261719 662.429688 764.449219 662.429688 L 315.542969 662.429688 C 304.328125 662.429688 294.320312 658.023438 287.109375 650.816406 C 279.902344 643.207031 275.496094 633.195312 275.496094 622.382812 L 275.496094 521.867188 C 275.496094 510.65625 279.902344 500.644531 287.109375 493.4375 C 294.320312 486.226562 304.328125 481.824219 315.542969 481.824219 Z M 764.449219 497.839844 L 315.542969 497.839844 C 308.734375 497.839844 302.726562 500.242188 298.324219 504.648438 C 293.917969 509.054688 291.515625 515.0625 291.515625 521.867188 L 291.515625 622.382812 C 291.515625 628.789062 293.917969 634.796875 298.324219 639.203125 C 302.726562 643.605469 308.734375 646.410156 315.542969 646.410156 L 764.449219 646.410156 C 770.859375 646.410156 776.863281 643.605469 781.269531 639.203125 C 785.675781 634.796875 788.476562 628.789062 788.476562 622.382812 L 788.476562 521.867188 C 788.476562 515.0625 785.675781 509.054688 781.269531 504.648438 C 776.863281 500.242188 770.859375 497.839844 764.449219 497.839844 Z M 764.449219 497.839844 " fill-opacity="1" fill-rule="nonzero"/></g><path fill="#ffbd59" d="M 343.976562 534.683594 L 532.1875 534.683594 C 536.59375 534.683594 540.195312 538.289062 540.195312 542.691406 L 540.195312 604.363281 C 540.195312 608.765625 536.59375 612.371094 532.1875 612.371094 L 343.976562 612.371094 C 339.570312 612.371094 335.964844 608.765625 335.964844 604.363281 L 335.964844 542.691406 C 335.964844 538.289062 339.570312 534.683594 343.976562 534.683594 Z M 524.179688 550.703125 L 351.984375 550.703125 L 351.984375 596.351562 L 524.179688 596.351562 Z M 524.179688 550.703125 " fill-opacity="1" fill-rule="nonzero"/><path fill="#ffbd59" d="M 707.1875 594.75 C 702.78125 594.75 699.175781 591.148438 699.175781 586.742188 C 699.175781 582.335938 702.78125 578.734375 707.1875 578.734375 L 744.828125 578.734375 C 749.234375 578.734375 752.839844 582.335938 752.839844 586.742188 C 752.839844 591.148438 749.234375 594.75 744.828125 594.75 Z M 707.1875 594.75 " fill-opacity="1" fill-rule="nonzero"/><path fill="#ffbd59" d="M 707.1875 565.519531 C 702.78125 565.519531 699.175781 561.914062 699.175781 557.507812 C 699.175781 553.105469 702.78125 549.5 707.1875 549.5 L 744.828125 549.5 C 749.234375 549.5 752.839844 553.105469 752.839844 557.507812 C 752.839844 561.914062 749.234375 565.519531 744.828125 565.519531 Z M 707.1875 565.519531 " fill-opacity="1" fill-rule="nonzero"/><path fill="#ffbd59" d="M 618.6875 537.484375 C 628.699219 537.484375 637.90625 541.492188 644.316406 547.898438 C 650.722656 554.304688 654.726562 563.515625 654.726562 573.527344 C 654.726562 583.539062 650.722656 592.347656 644.316406 599.15625 L 643.914062 599.554688 C 637.507812 605.964844 628.296875 609.566406 618.6875 609.566406 C 608.675781 609.566406 599.863281 605.5625 593.058594 599.15625 C 586.648438 592.347656 582.644531 583.539062 582.644531 573.527344 C 582.644531 563.515625 586.648438 554.304688 593.058594 547.898438 C 599.863281 541.492188 608.675781 537.484375 618.6875 537.484375 Z M 633.101562 559.109375 C 629.5 555.507812 624.292969 553.503906 618.6875 553.503906 C 613.078125 553.503906 608.273438 555.507812 604.671875 559.109375 C 600.664062 562.714844 598.664062 567.921875 598.664062 573.527344 C 598.664062 579.132812 600.664062 583.9375 604.671875 587.945312 C 608.273438 591.546875 613.078125 593.550781 618.6875 593.550781 C 624.292969 593.550781 629.097656 591.546875 632.703125 587.945312 L 633.101562 587.542969 C 636.707031 583.9375 638.707031 579.132812 638.707031 573.527344 C 638.707031 567.921875 636.707031 562.714844 633.101562 559.109375 Z M 633.101562 559.109375 " fill-opacity="1" fill-rule="nonzero"/><path fill="#ffbd59" d="M 315.542969 734.507812 L 764.449219 734.507812 C 775.261719 734.507812 785.273438 738.914062 792.882812 746.121094 C 800.089844 753.730469 804.496094 763.742188 804.496094 774.554688 L 804.496094 875.070312 C 804.496094 885.882812 800.089844 896.292969 792.882812 903.5 C 785.273438 910.710938 775.261719 915.113281 764.449219 915.113281 L 315.542969 915.113281 C 304.328125 915.113281 294.320312 910.710938 287.109375 903.5 C 279.902344 896.292969 275.496094 885.882812 275.496094 875.070312 L 275.496094 774.554688 C 275.496094 763.742188 279.902344 753.730469 287.109375 746.121094 C 294.320312 738.914062 304.328125 734.507812 315.542969 734.507812 Z M 764.449219 750.527344 L 315.542969 750.527344 C 308.734375 750.527344 302.726562 753.332031 298.324219 757.734375 C 293.917969 762.140625 291.515625 768.148438 291.515625 774.554688 L 291.515625 875.070312 C 291.515625 881.476562 293.917969 887.882812 298.324219 891.886719 C 302.726562 896.292969 308.734375 899.097656 315.542969 899.097656 L 764.449219 899.097656 C 770.859375 899.097656 776.863281 896.292969 781.269531 891.886719 C 785.675781 887.882812 788.476562 881.476562 788.476562 875.070312 L 788.476562 774.554688 C 788.476562 768.148438 785.675781 762.140625 781.269531 757.734375 C 776.863281 753.332031 770.859375 750.527344 764.449219 750.527344 Z M 764.449219 750.527344 " fill-opacity="1" fill-rule="nonzero"/><path fill="#ffbd59" d="M 343.976562 787.371094 L 532.1875 787.371094 C 536.59375 787.371094 540.195312 790.972656 540.195312 795.378906 L 540.195312 857.046875 C 540.195312 861.453125 536.59375 865.058594 532.1875 865.058594 L 343.976562 865.058594 C 339.570312 865.058594 335.964844 861.453125 335.964844 857.046875 L 335.964844 795.378906 C 335.964844 790.972656 339.570312 787.371094 343.976562 787.371094 Z M 524.179688 803.386719 L 351.984375 803.386719 L 351.984375 849.039062 L 524.179688 849.039062 Z M 524.179688 803.386719 " fill-opacity="1" fill-rule="nonzero"/><path fill="#ffbd59" d="M 707.1875 847.4375 C 702.78125 847.4375 699.175781 843.832031 699.175781 839.429688 C 699.175781 835.023438 702.78125 831.417969 707.1875 831.417969 L 744.828125 831.417969 C 749.234375 831.417969 752.839844 835.023438 752.839844 839.429688 C 752.839844 843.832031 749.234375 847.4375 744.828125 847.4375 Z M 707.1875 847.4375 " fill-opacity="1" fill-rule="nonzero"/><path fill="#ffbd59" d="M 707.1875 818.203125 C 702.78125 818.203125 699.175781 814.601562 699.175781 810.195312 C 699.175781 805.789062 702.78125 802.1875 707.1875 802.1875 L 744.828125 802.1875 C 749.234375 802.1875 752.839844 805.789062 752.839844 810.195312 C 752.839844 814.601562 749.234375 818.203125 744.828125 818.203125 Z M 707.1875 818.203125 " fill-opacity="1" fill-rule="nonzero"/><path fill="#ffbd59" d="M 618.6875 790.171875 C 628.699219 790.171875 637.90625 794.175781 644.316406 800.585938 C 650.722656 807.390625 654.726562 816.203125 654.726562 826.214844 C 654.726562 836.226562 650.722656 845.433594 644.316406 851.84375 C 637.90625 858.25 628.699219 862.253906 618.6875 862.253906 C 608.675781 862.253906 599.863281 858.25 593.058594 851.84375 L 592.65625 851.441406 C 586.25 844.632812 582.644531 835.824219 582.644531 826.214844 C 582.644531 816.203125 586.648438 807.390625 593.058594 800.585938 C 599.863281 794.175781 608.675781 790.171875 618.6875 790.171875 Z M 633.101562 812.199219 C 629.5 808.191406 624.292969 806.191406 618.6875 806.191406 C 613.078125 806.191406 608.273438 808.191406 604.671875 812.199219 L 604.671875 811.796875 C 600.664062 815.800781 598.664062 820.605469 598.664062 826.214844 C 598.664062 831.820312 600.664062 836.625 604.269531 840.230469 L 604.671875 840.628906 C 608.273438 844.234375 613.078125 846.234375 618.6875 846.234375 C 624.292969 846.234375 629.5 844.234375 633.101562 840.628906 C 636.707031 837.027344 638.707031 831.820312 638.707031 826.214844 C 638.707031 820.605469 636.707031 815.800781 633.101562 812.199219 Z M 633.101562 812.199219 " fill-opacity="1" fill-rule="nonzero"/><path fill="#ffbd59" d="M 513.765625 1004.414062 C 513.765625 1008.820312 510.164062 1012.425781 505.757812 1012.425781 C 501.351562 1012.425781 497.75 1008.820312 497.75 1004.414062 L 497.75 907.105469 C 497.75 902.699219 501.351562 899.097656 505.757812 899.097656 C 510.164062 899.097656 513.765625 902.699219 513.765625 907.105469 Z M 513.765625 742.519531 C 513.765625 746.921875 510.164062 750.527344 505.757812 750.527344 C 501.351562 750.527344 497.75 746.921875 497.75 742.519531 L 497.75 654.417969 C 497.75 650.015625 501.351562 646.410156 505.757812 646.410156 L 573.835938 646.410156 C 578.238281 646.410156 581.84375 650.015625 581.84375 654.417969 L 581.84375 742.519531 C 581.84375 746.921875 578.238281 750.527344 573.835938 750.527344 C 569.429688 750.527344 565.824219 746.921875 565.824219 742.519531 L 565.824219 662.429688 L 513.765625 662.429688 Z M 565.824219 907.105469 C 565.824219 902.699219 569.429688 899.097656 573.835938 899.097656 C 578.238281 899.097656 581.84375 902.699219 581.84375 907.105469 L 581.84375 1004.414062 C 581.84375 1008.820312 578.238281 1012.425781 573.835938 1012.425781 C 569.429688 1012.425781 565.824219 1008.820312 565.824219 1004.414062 Z M 565.824219 907.105469 " fill-opacity="1" fill-rule="nonzero"/><g clip-path="url(#aee1adf536)"><path fill="#ffbd59" d="M 653.925781 1041.257812 C 649.519531 1041.257812 645.917969 1037.652344 645.917969 1033.246094 C 645.917969 1028.84375 649.519531 1025.238281 653.925781 1025.238281 L 873.773438 1025.238281 C 878.179688 1025.238281 881.785156 1028.84375 881.785156 1033.246094 L 881.785156 1101.324219 C 881.785156 1105.730469 878.179688 1109.335938 873.773438 1109.335938 L 653.925781 1109.335938 C 649.519531 1109.335938 645.917969 1105.730469 645.917969 1101.324219 C 645.917969 1096.921875 649.519531 1093.316406 653.925781 1093.316406 L 865.765625 1093.316406 L 865.765625 1041.257812 Z M 426.066406 1093.316406 C 430.472656 1093.316406 434.078125 1096.921875 434.078125 1101.324219 C 434.078125 1105.730469 430.472656 1109.335938 426.066406 1109.335938 L 206.21875 1109.335938 C 201.8125 1109.335938 198.210938 1105.730469 198.210938 1101.324219 L 198.210938 1033.246094 C 198.210938 1028.84375 201.8125 1025.238281 206.21875 1025.238281 L 426.066406 1025.238281 C 430.472656 1025.238281 434.078125 1028.84375 434.078125 1033.246094 C 434.078125 1037.652344 430.472656 1041.257812 426.066406 1041.257812 L 214.226562 1041.257812 L 214.226562 1093.316406 Z M 426.066406 1093.316406 " fill-opacity="1" fill-rule="nonzero"/></g><g clip-path="url(#f9a51d6324)"><path fill="#ffbd59" d="M 478.925781 996.40625 L 601.066406 996.40625 C 620.6875 996.40625 638.308594 1004.414062 651.121094 1017.230469 C 663.9375 1030.042969 671.945312 1047.664062 671.945312 1067.285156 C 671.945312 1086.910156 663.9375 1104.527344 651.121094 1117.34375 C 638.308594 1130.15625 620.6875 1138.167969 601.066406 1138.167969 L 478.925781 1138.167969 C 459.304688 1138.167969 441.683594 1130.15625 428.871094 1117.34375 C 416.054688 1104.527344 408.046875 1086.910156 408.046875 1067.285156 C 408.046875 1047.664062 416.054688 1030.042969 428.871094 1017.230469 C 441.683594 1004.414062 459.304688 996.40625 478.925781 996.40625 Z M 601.066406 1012.425781 L 478.925781 1012.425781 C 463.710938 1012.425781 450.09375 1018.429688 440.082031 1028.441406 C 430.074219 1038.453125 424.066406 1052.070312 424.066406 1067.285156 C 424.066406 1082.503906 430.074219 1096.121094 440.082031 1106.128906 C 450.09375 1116.140625 463.710938 1122.148438 478.925781 1122.148438 L 601.066406 1122.148438 C 616.285156 1122.148438 629.898438 1116.140625 639.910156 1106.128906 C 649.921875 1096.121094 655.929688 1082.503906 655.929688 1067.285156 C 655.929688 1052.070312 649.921875 1038.453125 639.910156 1028.441406 C 629.898438 1018.429688 616.285156 1012.425781 601.066406 1012.425781 Z M 601.066406 1012.425781 " fill-opacity="1" fill-rule="nonzero"/></g><path fill="#ffbd59" d="M 572.632812 1046.0625 C 569.429688 1042.859375 569.429688 1038.054688 572.632812 1034.851562 C 575.835938 1031.644531 580.644531 1031.644531 583.847656 1034.851562 L 610.675781 1061.679688 C 613.878906 1064.484375 613.878906 1069.6875 610.675781 1072.894531 L 583.847656 1099.722656 C 580.644531 1102.925781 575.835938 1102.925781 572.632812 1099.722656 C 569.429688 1096.519531 569.429688 1091.3125 572.632812 1088.511719 L 593.457031 1067.285156 Z M 572.632812 1046.0625 " fill-opacity="1" fill-rule="nonzero"/><path fill="#ffbd59" d="M 496.148438 1034.851562 C 498.949219 1031.644531 504.15625 1031.644531 507.359375 1034.851562 C 510.5625 1038.054688 510.5625 1042.859375 507.359375 1046.0625 L 486.136719 1067.285156 L 507.359375 1088.511719 C 510.5625 1091.3125 510.5625 1096.519531 507.359375 1099.722656 C 504.15625 1102.925781 498.949219 1102.925781 496.148438 1099.722656 L 469.316406 1072.894531 C 466.113281 1069.6875 466.113281 1064.484375 469.316406 1061.679688 Z M 496.148438 1034.851562 " fill-opacity="1" fill-rule="nonzero"/><path fill="#ffbd59" d="M 544.203125 1043.660156 C 546.605469 1039.65625 551.410156 1038.453125 555.414062 1040.855469 C 559.019531 1042.859375 560.21875 1047.664062 558.21875 1051.667969 L 535.390625 1090.914062 C 533.390625 1094.515625 528.582031 1095.71875 524.578125 1093.714844 C 520.976562 1091.3125 519.375 1086.507812 521.777344 1082.902344 Z M 544.203125 1043.660156 " fill-opacity="1" fill-rule="nonzero"/></svg>