<svg width="53" height="50" viewBox="0 0 53 50" fill="none" xmlns="http://www.w3.org/2000/svg">
<mask id="mask0_2356_390" style="mask-type:luminance" maskUnits="userSpaceOnUse" x="5" y="0" width="42" height="14">
<path d="M5.85547 0H46.2364V13.8039H5.85547V0Z" fill="white"/>
</mask>
<g mask="url(#mask0_2356_390)">
<path d="M8.94572 0H43.1481C43.9719 0 44.7347 0.335417 45.3145 0.884821C45.8636 1.43393 46.1993 2.19673 46.1993 3.05089V10.7092C46.1993 11.533 45.8636 12.2958 45.3145 12.8756C44.7347 13.4247 43.9719 13.7604 43.1481 13.7604H8.94572C8.09126 13.7604 7.32876 13.4247 6.77935 12.8756C6.23025 12.2958 5.89453 11.533 5.89453 10.7092V3.05089C5.89453 2.19673 6.23025 1.43393 6.77935 0.884821C7.32876 0.335417 8.09126 0 8.94572 0ZM43.1481 1.22024H8.94572C8.42697 1.22024 7.96923 1.40327 7.63382 1.73899C7.2981 2.0747 7.11507 2.53244 7.11507 3.05089V10.7092C7.11507 11.1973 7.2981 11.6551 7.63382 11.9908C7.96923 12.3262 8.42697 12.5399 8.94572 12.5399H43.1481C43.6365 12.5399 44.0939 12.3262 44.4297 11.9908C44.7654 11.6551 44.9788 11.1973 44.9788 10.7092V3.05089C44.9788 2.53244 44.7654 2.0747 44.4297 1.73899C44.0939 1.40327 43.6365 1.22024 43.1481 1.22024Z" fill="#FFBD59"/>
</g>
<path d="M11.1104 4.02734H25.4503C25.786 4.02734 26.0604 4.30205 26.0604 4.63746V9.33627C26.0604 9.67169 25.786 9.94639 25.4503 9.94639H11.1104C10.7747 9.94639 10.5 9.67169 10.5 9.33627V4.63746C10.5 4.30205 10.7747 4.02734 11.1104 4.02734ZM24.8402 5.24788H11.7205V8.72586H24.8402V5.24788Z" fill="#FFBD59"/>
<path d="M38.7842 8.60378C38.4485 8.60378 38.1738 8.32938 38.1738 7.99366C38.1738 7.65795 38.4485 7.38354 38.7842 7.38354H41.6521C41.9878 7.38354 42.2625 7.65795 42.2625 7.99366C42.2625 8.32938 41.9878 8.60378 41.6521 8.60378H38.7842Z" fill="#FFBD59"/>
<path d="M38.7842 6.37679C38.4485 6.37679 38.1738 6.10208 38.1738 5.76637C38.1738 5.43095 38.4485 5.15625 38.7842 5.15625H41.6521C41.9878 5.15625 42.2625 5.43095 42.2625 5.76637C42.2625 6.10208 41.9878 6.37679 41.6521 6.37679H38.7842Z" fill="#FFBD59"/>
<path d="M32.0411 4.24072C32.8039 4.24072 33.5053 4.54608 33.9937 5.03418C34.4818 5.52227 34.7869 6.22406 34.7869 6.98685C34.7869 7.74965 34.4818 8.42078 33.9937 8.93953L33.9631 8.96989C33.475 9.45828 32.7732 9.73269 32.0411 9.73269C31.2783 9.73269 30.6068 9.42763 30.0884 8.93953C29.6 8.42078 29.2949 7.74965 29.2949 6.98685C29.2949 6.22406 29.6 5.52227 30.0884 5.03418C30.6068 4.54608 31.2783 4.24072 32.0411 4.24072ZM33.1393 5.88834C32.8649 5.61394 32.4681 5.46126 32.0411 5.46126C31.6137 5.46126 31.2476 5.61394 30.9732 5.88834C30.6678 6.16304 30.5155 6.55977 30.5155 6.98685C30.5155 7.41394 30.6678 7.78001 30.9732 8.08537C31.2476 8.35977 31.6137 8.51245 32.0411 8.51245C32.4681 8.51245 32.8342 8.35977 33.1089 8.08537L33.1393 8.05471C33.414 7.78001 33.5664 7.41394 33.5664 6.98685C33.5664 6.55977 33.414 6.16304 33.1393 5.88834Z" fill="#FFBD59"/>
<path d="M8.94377 19.2522H43.1462C43.97 19.2522 44.7328 19.5879 45.3125 20.137C45.8616 20.7168 46.1973 21.4796 46.1973 22.3034V29.9617C46.1973 30.7855 45.8616 31.5787 45.3125 32.1278C44.7328 32.6772 43.97 33.0126 43.1462 33.0126H8.94377C8.0893 33.0126 7.3268 32.6772 6.7774 32.1278C6.22829 31.5787 5.89258 30.7855 5.89258 29.9617V22.3034C5.89258 21.4796 6.22829 20.7168 6.7774 20.137C7.3268 19.5879 8.0893 19.2522 8.94377 19.2522ZM43.1462 20.4727H8.94377C8.42502 20.4727 7.96728 20.6864 7.63186 21.0218C7.29615 21.3576 7.11311 21.8153 7.11311 22.3034V29.9617C7.11311 30.4498 7.29615 30.9379 7.63186 31.243C7.96728 31.5787 8.42502 31.7924 8.94377 31.7924H43.1462C43.6345 31.7924 44.092 31.5787 44.4277 31.243C44.7634 30.9379 44.9768 30.4498 44.9768 29.9617V22.3034C44.9768 21.8153 44.7634 21.3576 44.4277 21.0218C44.092 20.6864 43.6345 20.4727 43.1462 20.4727Z" fill="#FFBD59"/>
<path d="M11.1104 23.2798H25.4503C25.786 23.2798 26.0604 23.5542 26.0604 23.8899V28.5884C26.0604 28.9241 25.786 29.1988 25.4503 29.1988H11.1104C10.7747 29.1988 10.5 28.9241 10.5 28.5884V23.8899C10.5 23.5542 10.7747 23.2798 11.1104 23.2798ZM24.8402 24.5H11.7205V27.9783H24.8402V24.5Z" fill="#FFBD59"/>
<path d="M38.7842 27.8563C38.4485 27.8563 38.1738 27.5816 38.1738 27.2462C38.1738 26.9104 38.4485 26.6357 38.7842 26.6357H41.6521C41.9878 26.6357 42.2625 26.9104 42.2625 27.2462C42.2625 27.5816 41.9878 27.8563 41.6521 27.8563H38.7842Z" fill="#FFBD59"/>
<path d="M38.7842 25.6289C38.4485 25.6289 38.1738 25.3545 38.1738 25.0188C38.1738 24.6831 38.4485 24.4087 38.7842 24.4087H41.6521C41.9878 24.4087 42.2625 24.6831 42.2625 25.0188C42.2625 25.3545 41.9878 25.6289 41.6521 25.6289H38.7842Z" fill="#FFBD59"/>
<path d="M32.0411 23.4932C32.8039 23.4932 33.5053 23.7982 33.9937 24.2866C34.4818 24.8051 34.7869 25.4765 34.7869 26.2393C34.7869 27.0021 34.4818 27.7036 33.9937 28.192C33.5053 28.6801 32.8039 28.9851 32.0411 28.9851C31.2783 28.9851 30.6068 28.6801 30.0884 28.192L30.0577 28.1613C29.5696 27.6426 29.2949 26.9714 29.2949 26.2393C29.2949 25.4765 29.6 24.8051 30.0884 24.2866C30.6068 23.7982 31.2783 23.4932 32.0411 23.4932ZM33.1393 25.1714C32.8649 24.8661 32.4681 24.7137 32.0411 24.7137C31.6137 24.7137 31.2476 24.8661 30.9732 25.1714V25.1408C30.6678 25.4458 30.5155 25.8119 30.5155 26.2393C30.5155 26.6664 30.6678 27.0324 30.9425 27.3072L30.9732 27.3375C31.2476 27.6122 31.6137 27.7646 32.0411 27.7646C32.4681 27.7646 32.8649 27.6122 33.1393 27.3375C33.414 27.0631 33.5664 26.6664 33.5664 26.2393C33.5664 25.8119 33.414 25.4458 33.1393 25.1714Z" fill="#FFBD59"/>
<path d="M24.0464 39.8163C24.0464 40.152 23.772 40.4267 23.4363 40.4267C23.1006 40.4267 22.8262 40.152 22.8262 39.8163V32.4023C22.8262 32.0666 23.1006 31.7922 23.4363 31.7922C23.772 31.7922 24.0464 32.0666 24.0464 32.4023V39.8163ZM24.0464 19.8624C24.0464 20.1978 23.772 20.4725 23.4363 20.4725C23.1006 20.4725 22.8262 20.1978 22.8262 19.8624V13.1499C22.8262 12.8145 23.1006 12.5398 23.4363 12.5398H28.6232C28.9586 12.5398 29.2333 12.8145 29.2333 13.1499V19.8624C29.2333 20.1978 28.9586 20.4725 28.6232 20.4725C28.2875 20.4725 28.0128 20.1978 28.0128 19.8624V13.7603H24.0464V19.8624ZM28.0128 32.4023C28.0128 32.0666 28.2875 31.7922 28.6232 31.7922C28.9586 31.7922 29.2333 32.0666 29.2333 32.4023V39.8163C29.2333 40.152 28.9586 40.4267 28.6232 40.4267C28.2875 40.4267 28.0128 40.152 28.0128 39.8163V32.4023Z" fill="#FFBD59"/>
<mask id="mask1_2356_390" style="mask-type:luminance" maskUnits="userSpaceOnUse" x="0" y="41" width="53" height="7">
<path d="M0 41.3848H52.103V47.861H0V41.3848Z" fill="white"/>
</mask>
<g mask="url(#mask1_2356_390)">
<path d="M34.727 42.6234C34.3913 42.6234 34.1169 42.3487 34.1169 42.013C34.1169 41.6775 34.3913 41.4028 34.727 41.4028H51.4773C51.813 41.4028 52.0877 41.6775 52.0877 42.013V47.1999C52.0877 47.5356 51.813 47.8103 51.4773 47.8103H34.727C34.3913 47.8103 34.1169 47.5356 34.1169 47.1999C34.1169 46.8644 34.3913 46.5897 34.727 46.5897H50.8672V42.6234H34.727ZM17.3663 46.5897C17.702 46.5897 17.9767 46.8644 17.9767 47.1999C17.9767 47.5356 17.702 47.8103 17.3663 47.8103H0.615978C0.280264 47.8103 0.00585938 47.5356 0.00585938 47.1999V42.013C0.00585938 41.6775 0.280264 41.4028 0.615978 41.4028H17.3663C17.702 41.4028 17.9767 41.6775 17.9767 42.013C17.9767 42.3487 17.702 42.6234 17.3663 42.6234H1.2261V46.5897H17.3663Z" fill="#FFBD59"/>
</g>
<mask id="mask2_2356_390" style="mask-type:luminance" maskUnits="userSpaceOnUse" x="15" y="39" width="22" height="11">
<path d="M15.9902 39.1753H36.1045V50H15.9902V39.1753Z" fill="white"/>
</mask>
<g mask="url(#mask2_2356_390)">
<path d="M21.3944 39.2063H30.7004C32.1953 39.2063 33.5379 39.8164 34.5141 40.7929C35.4906 41.7691 36.1007 43.1117 36.1007 44.6066C36.1007 46.1018 35.4906 47.4441 34.5141 48.4206C33.5379 49.3968 32.1953 50.0072 30.7004 50.0072H21.3944C19.8995 50.0072 18.5569 49.3968 17.5807 48.4206C16.6043 47.4441 15.9941 46.1018 15.9941 44.6066C15.9941 43.1117 16.6043 41.7691 17.5807 40.7929C18.5569 39.8164 19.8995 39.2063 21.3944 39.2063ZM30.7004 40.4268H21.3944C20.2352 40.4268 19.1977 40.8843 18.4349 41.6471C17.6724 42.4099 17.2147 43.4474 17.2147 44.6066C17.2147 45.7661 17.6724 46.8036 18.4349 47.5661C19.1977 48.3289 20.2352 48.7867 21.3944 48.7867H30.7004C31.8599 48.7867 32.8971 48.3289 33.6599 47.5661C34.4227 46.8036 34.8805 45.7661 34.8805 44.6066C34.8805 43.4474 34.4227 42.4099 33.6599 41.6471C32.8971 40.8843 31.8599 40.4268 30.7004 40.4268Z" fill="#FFBD59"/>
</g>
<path d="M28.5326 42.9896C28.2886 42.7455 28.2886 42.3795 28.5326 42.1354C28.7767 41.8911 29.1431 41.8911 29.3871 42.1354L31.4312 44.1795C31.6752 44.3931 31.6752 44.7896 31.4312 45.0339L29.3871 47.078C29.1431 47.322 28.7767 47.322 28.5326 47.078C28.2886 46.8339 28.2886 46.4372 28.5326 46.2238L30.1193 44.6065L28.5326 42.9896Z" fill="#FFBD59"/>
<path d="M22.7039 42.1354C22.9173 41.8911 23.3141 41.8911 23.5581 42.1354C23.8022 42.3795 23.8022 42.7455 23.5581 42.9896L21.9411 44.6065L23.5581 46.2238C23.8022 46.4372 23.8022 46.8339 23.5581 47.078C23.3141 47.322 22.9173 47.322 22.7039 47.078L20.6596 45.0339C20.4156 44.7896 20.4156 44.3931 20.6596 44.1795L22.7039 42.1354Z" fill="#FFBD59"/>
<path d="M26.366 42.8066C26.549 42.5015 26.9151 42.4099 27.2201 42.5929C27.4949 42.7456 27.5862 43.1116 27.4338 43.4167L25.6946 46.4069C25.5422 46.6813 25.1758 46.773 24.8707 46.6203C24.5963 46.4372 24.4743 46.0712 24.6574 45.7965L26.366 42.8066Z" fill="#FFBD59"/>
</svg>
