<svg xmlns="http://www.w3.org/2000/svg" xmlns:xlink="http://www.w3.org/1999/xlink" width="1440" zoomAndPan="magnify" viewBox="0 0 1080 1619.99993" height="2160" preserveAspectRatio="xMidYMid meet" version="1.0"><defs><clipPath id="70dbb4ccb4"><path d="M 453 1064 L 627 1064 L 627 1201.710938 L 453 1201.710938 Z M 453 1064 " clip-rule="nonzero"/></clipPath><clipPath id="a0d0795c87"><path d="M 406 1182 L 674 1182 L 674 1201.710938 L 406 1201.710938 Z M 406 1182 " clip-rule="nonzero"/></clipPath></defs><path fill="#0cc0df" d="M 901.546875 1084.414062 L 178.453125 1084.414062 C 139.605469 1084.414062 108 1052.8125 108 1013.960938 L 108 579.09375 C 108 540.246094 139.605469 508.640625 178.453125 508.640625 L 486.90625 508.640625 C 492.304688 508.640625 496.679688 513.019531 496.679688 518.414062 C 496.679688 523.8125 492.304688 528.1875 486.90625 528.1875 L 178.453125 528.1875 C 150.386719 528.1875 127.546875 551.023438 127.546875 579.09375 L 127.546875 1013.960938 C 127.546875 1042.03125 150.386719 1064.867188 178.453125 1064.867188 L 901.546875 1064.867188 C 929.613281 1064.867188 952.453125 1042.03125 952.453125 1013.960938 L 952.453125 579.09375 C 952.453125 551.023438 929.613281 528.1875 901.546875 528.1875 C 896.148438 528.1875 891.773438 523.8125 891.773438 518.414062 C 891.773438 513.019531 896.148438 508.640625 901.546875 508.640625 C 940.394531 508.640625 972 540.246094 972 579.09375 L 972 1013.960938 C 972 1052.8125 940.394531 1084.414062 901.546875 1084.414062 Z M 901.546875 1084.414062 " fill-opacity="1" fill-rule="nonzero"/><g clip-path="url(#70dbb4ccb4)"><path fill="#0cc0df" d="M 463.132812 1201.730469 C 461.597656 1201.730469 460.042969 1201.367188 458.59375 1200.605469 C 453.816406 1198.09375 451.976562 1192.183594 454.488281 1187.40625 C 473.410156 1151.40625 473.382812 1116.964844 454.398438 1079.015625 C 451.984375 1074.1875 453.9375 1068.3125 458.765625 1065.898438 C 463.59375 1063.484375 469.464844 1065.441406 471.878906 1070.265625 C 493.621094 1113.730469 493.59375 1155.019531 471.789062 1196.5 C 470.042969 1199.828125 466.644531 1201.730469 463.132812 1201.730469 Z M 616.867188 1201.730469 C 613.351562 1201.730469 609.957031 1199.828125 608.207031 1196.5 C 586.40625 1155.023438 586.375 1113.730469 608.117188 1070.265625 C 610.53125 1065.441406 616.398438 1063.480469 621.230469 1065.898438 C 626.058594 1068.3125 628.015625 1074.1875 625.597656 1079.015625 C 606.613281 1116.964844 606.585938 1151.40625 625.507812 1187.40625 C 628.019531 1192.183594 626.183594 1198.09375 621.402344 1200.605469 C 619.957031 1201.371094 618.398438 1201.730469 616.867188 1201.730469 Z M 616.867188 1201.730469 " fill-opacity="1" fill-rule="nonzero"/></g><g clip-path="url(#a0d0795c87)"><path fill="#0cc0df" d="M 663.378906 1201.726562 L 416.621094 1201.726562 C 411.222656 1201.726562 406.847656 1197.351562 406.847656 1191.953125 C 406.847656 1186.550781 411.222656 1182.179688 416.621094 1182.179688 L 663.378906 1182.179688 C 668.777344 1182.179688 673.152344 1186.550781 673.152344 1191.953125 C 673.152344 1197.351562 668.777344 1201.726562 663.378906 1201.726562 Z M 663.378906 1201.726562 " fill-opacity="1" fill-rule="nonzero"/></g><path fill="#0cc0df" d="M 694.226562 618.558594 C 572.492188 618.558594 477.132812 574.570312 477.132812 518.414062 C 477.132812 462.257812 572.492188 418.269531 694.226562 418.269531 C 815.960938 418.269531 911.320312 462.257812 911.320312 518.414062 C 911.320312 574.570312 815.960938 618.558594 694.226562 618.558594 Z M 694.226562 437.820312 C 640.3125 437.820312 589.683594 446.945312 551.648438 463.523438 C 516.714844 478.753906 496.679688 498.757812 496.679688 518.414062 C 496.679688 538.070312 516.714844 558.078125 551.648438 573.304688 C 589.679688 589.882812 640.3125 599.011719 694.226562 599.011719 C 748.140625 599.011719 798.773438 589.882812 836.800781 573.304688 C 871.738281 558.078125 891.773438 538.070312 891.773438 518.414062 C 891.773438 498.761719 871.738281 478.75 836.800781 463.523438 C 798.773438 446.945312 748.140625 437.820312 694.226562 437.820312 Z M 694.226562 437.820312 " fill-opacity="1" fill-rule="nonzero"/><path fill="#0cc0df" d="M 694.226562 729.128906 C 572.492188 729.128906 477.132812 685.140625 477.132812 628.984375 C 477.132812 623.585938 481.511719 619.210938 486.90625 619.210938 C 492.304688 619.210938 496.679688 623.585938 496.679688 628.984375 C 496.679688 667.90625 576.058594 709.578125 694.226562 709.578125 C 812.390625 709.578125 891.773438 667.90625 891.773438 628.984375 C 891.773438 623.585938 896.148438 619.210938 901.546875 619.210938 C 906.945312 619.210938 911.320312 623.585938 911.320312 628.984375 C 911.320312 685.140625 815.960938 729.128906 694.226562 729.128906 Z M 694.226562 729.128906 " fill-opacity="1" fill-rule="nonzero"/><path fill="#0cc0df" d="M 694.226562 839.699219 C 572.492188 839.699219 477.132812 795.710938 477.132812 739.554688 C 477.132812 734.15625 481.511719 729.78125 486.90625 729.78125 C 492.304688 729.78125 496.679688 734.15625 496.679688 739.554688 C 496.679688 778.476562 576.058594 820.148438 694.226562 820.148438 C 812.390625 820.148438 891.773438 778.476562 891.773438 739.554688 C 891.773438 734.15625 896.148438 729.78125 901.546875 729.78125 C 906.945312 729.78125 911.320312 734.15625 911.320312 739.554688 C 911.320312 795.710938 815.960938 839.699219 694.226562 839.699219 Z M 694.226562 839.699219 " fill-opacity="1" fill-rule="nonzero"/><path fill="#0cc0df" d="M 486.90625 749.328125 C 481.511719 749.328125 477.132812 744.949219 477.132812 739.554688 L 477.132812 518.414062 C 477.132812 513.019531 481.511719 508.640625 486.90625 508.640625 C 492.304688 508.640625 496.679688 513.019531 496.679688 518.414062 L 496.679688 739.554688 C 496.679688 744.953125 492.304688 749.328125 486.90625 749.328125 Z M 486.90625 749.328125 " fill-opacity="1" fill-rule="nonzero"/><path fill="#0cc0df" d="M 901.546875 749.328125 C 896.148438 749.328125 891.773438 744.949219 891.773438 739.554688 L 891.773438 518.414062 C 891.773438 513.019531 896.148438 508.640625 901.546875 508.640625 C 906.945312 508.640625 911.320312 513.019531 911.320312 518.414062 L 911.320312 739.554688 C 911.320312 744.953125 906.945312 749.328125 901.546875 749.328125 Z M 901.546875 749.328125 " fill-opacity="1" fill-rule="nonzero"/><path fill="#0cc0df" d="M 257.726562 822.132812 C 255.546875 822.132812 253.359375 821.410156 251.542969 819.921875 L 183.363281 764.128906 C 181.09375 762.273438 179.78125 759.496094 179.78125 756.5625 C 179.78125 753.632812 181.097656 750.855469 183.363281 749 L 251.542969 693.203125 C 255.71875 689.789062 261.875 690.398438 265.292969 694.578125 C 268.714844 698.757812 268.097656 704.914062 263.921875 708.332031 L 204.984375 756.5625 L 263.921875 804.792969 C 268.097656 808.210938 268.714844 814.367188 265.292969 818.546875 C 263.363281 820.910156 260.554688 822.132812 257.726562 822.132812 Z M 257.726562 822.132812 " fill-opacity="1" fill-rule="nonzero"/><path fill="#0cc0df" d="M 380.914062 822.132812 C 378.085938 822.132812 375.277344 820.910156 373.34375 818.550781 C 369.925781 814.371094 370.539062 808.210938 374.71875 804.792969 L 433.652344 756.5625 L 374.71875 708.335938 C 370.539062 704.914062 369.925781 698.757812 373.34375 694.582031 C 376.765625 690.402344 382.921875 689.789062 387.097656 693.207031 L 455.273438 749 C 457.542969 750.859375 458.859375 753.632812 458.859375 756.566406 C 458.859375 759.5 457.542969 762.273438 455.273438 764.132812 L 387.097656 819.921875 C 385.285156 821.410156 383.09375 822.132812 380.914062 822.132812 Z M 380.914062 822.132812 " fill-opacity="1" fill-rule="nonzero"/><path fill="#0cc0df" d="M 301.910156 831.335938 C 301.074219 831.335938 300.222656 831.226562 299.375 831 C 294.164062 829.601562 291.066406 824.242188 292.464844 819.03125 L 327.296875 689.039062 C 328.691406 683.824219 334.054688 680.730469 339.265625 682.128906 C 344.480469 683.523438 347.574219 688.886719 346.179688 694.097656 L 311.347656 824.089844 C 310.175781 828.457031 306.226562 831.335938 301.910156 831.335938 Z M 301.910156 831.335938 " fill-opacity="1" fill-rule="nonzero"/><path fill="#0cc0df" d="M 352.863281 916.824219 L 193.777344 916.824219 C 188.382812 916.824219 184.003906 912.449219 184.003906 907.050781 C 184.003906 901.652344 188.382812 897.277344 193.777344 897.277344 L 352.863281 897.277344 C 358.257812 897.277344 362.636719 901.652344 362.636719 907.050781 C 362.636719 912.449219 358.257812 916.824219 352.863281 916.824219 Z M 352.863281 916.824219 " fill-opacity="1" fill-rule="nonzero"/><path fill="#0cc0df" d="M 466.75 916.824219 L 408.902344 916.824219 C 403.503906 916.824219 399.128906 912.449219 399.128906 907.050781 C 399.128906 901.652344 403.503906 897.277344 408.902344 897.277344 L 466.75 897.277344 C 472.148438 897.277344 476.523438 901.652344 476.523438 907.050781 C 476.523438 912.449219 472.152344 916.824219 466.75 916.824219 Z M 466.75 916.824219 " fill-opacity="1" fill-rule="nonzero"/><path fill="#0cc0df" d="M 631.261719 916.824219 L 573.410156 916.824219 C 568.011719 916.824219 563.636719 912.449219 563.636719 907.050781 C 563.636719 901.652344 568.011719 897.277344 573.410156 897.277344 L 631.261719 897.277344 C 636.660156 897.277344 641.035156 901.652344 641.035156 907.050781 C 641.035156 912.449219 636.660156 916.824219 631.261719 916.824219 Z M 631.261719 916.824219 " fill-opacity="1" fill-rule="nonzero"/><path fill="#0cc0df" d="M 889.769531 916.824219 L 687.300781 916.824219 C 681.902344 916.824219 677.527344 912.449219 677.527344 907.050781 C 677.527344 901.652344 681.902344 897.277344 687.300781 897.277344 L 889.765625 897.277344 C 895.167969 897.277344 899.542969 901.652344 899.542969 907.050781 C 899.542969 912.449219 895.167969 916.824219 889.769531 916.824219 Z M 889.769531 916.824219 " fill-opacity="1" fill-rule="nonzero"/><path fill="#0cc0df" d="M 307.890625 988.660156 L 193.777344 988.660156 C 188.382812 988.660156 184.003906 984.285156 184.003906 978.886719 C 184.003906 973.488281 188.382812 969.113281 193.777344 969.113281 L 307.890625 969.113281 C 313.285156 969.113281 317.664062 973.488281 317.664062 978.886719 C 317.664062 984.285156 313.289062 988.660156 307.890625 988.660156 Z M 307.890625 988.660156 " fill-opacity="1" fill-rule="nonzero"/><path fill="#0cc0df" d="M 647.777344 988.660156 L 368.617188 988.660156 C 363.222656 988.660156 358.84375 984.285156 358.84375 978.886719 C 358.84375 973.488281 363.222656 969.113281 368.617188 969.113281 L 647.777344 969.113281 C 653.175781 969.113281 657.550781 973.488281 657.550781 978.886719 C 657.550781 984.285156 653.175781 988.660156 647.777344 988.660156 Z M 647.777344 988.660156 " fill-opacity="1" fill-rule="nonzero"/><path fill="#0cc0df" d="M 771.191406 988.660156 L 720.746094 988.660156 C 715.347656 988.660156 710.972656 984.285156 710.972656 978.886719 C 710.972656 973.488281 715.347656 969.113281 720.746094 969.113281 L 771.191406 969.113281 C 776.589844 969.113281 780.964844 973.488281 780.964844 978.886719 C 780.964844 984.285156 776.589844 988.660156 771.191406 988.660156 Z M 771.191406 988.660156 " fill-opacity="1" fill-rule="nonzero"/><path fill="#0cc0df" d="M 890.445312 988.660156 L 840 988.660156 C 834.601562 988.660156 830.226562 984.285156 830.226562 978.886719 C 830.226562 973.488281 834.601562 969.113281 840 969.113281 L 890.445312 969.113281 C 895.84375 969.113281 900.21875 973.488281 900.21875 978.886719 C 900.21875 984.285156 895.84375 988.660156 890.445312 988.660156 Z M 890.445312 988.660156 " fill-opacity="1" fill-rule="nonzero"/><path fill="#0cc0df" d="M 424.875 623.941406 L 313.3125 623.941406 C 307.917969 623.941406 303.539062 619.5625 303.539062 614.167969 C 303.539062 608.769531 307.917969 604.394531 313.3125 604.394531 L 424.875 604.394531 C 430.273438 604.394531 434.652344 608.769531 434.652344 614.167969 C 434.652344 619.5625 430.277344 623.941406 424.875 623.941406 Z M 424.875 623.941406 " fill-opacity="1" fill-rule="nonzero"/><path fill="#0cc0df" d="M 252.550781 623.941406 L 193.777344 623.941406 C 188.382812 623.941406 184.003906 619.5625 184.003906 614.167969 C 184.003906 608.769531 188.382812 604.394531 193.777344 604.394531 L 252.546875 604.394531 C 257.945312 604.394531 262.320312 608.769531 262.320312 614.167969 C 262.320312 619.5625 257.945312 623.941406 252.550781 623.941406 Z M 252.550781 623.941406 " fill-opacity="1" fill-rule="nonzero"/></svg>