<svg width="50" height="50" viewBox="0 0 50 50" fill="none" xmlns="http://www.w3.org/2000/svg">
<path d="M46.6666 36.6668H28.3334C27.4154 36.6668 26.6667 35.9181 26.6667 35V18.3334H48.3333V35C48.3333 35.9181 47.5846 36.6668 46.6666 36.6668ZM38.3332 41.6667H11.6668V36.6668C12.002 36.6668 12.3372 36.6536 12.6693 36.6243C13.213 36.5723 13.6784 36.2239 13.89 35.7031L14.4337 34.3456C15.0879 34.1503 15.7161 33.8899 16.3151 33.5644L17.6661 34.1406C18.1738 34.3587 18.7566 34.2773 19.1763 33.9258C19.4336 33.7142 19.6777 33.4864 19.9153 33.2488C20.1529 33.011 20.3808 32.7668 20.5957 32.5098C20.9441 32.0898 21.0255 31.5104 20.8073 30.9993L20.2311 29.6484C20.5566 29.0496 20.8171 28.4211 21.0124 27.7669L22.3698 27.2233C22.373 27.2201 22.373 27.2201 22.373 27.2201C22.8907 27.0117 23.239 26.5462 23.291 26.0026C23.3204 25.6705 23.3333 25.3352 23.3333 25C23.3333 24.6648 23.3204 24.3295 23.291 23.9974C23.239 23.4538 22.8907 22.9883 22.3698 22.7767L21.0124 22.2331C20.8171 21.5789 20.5566 20.9504 20.2311 20.3516L20.8073 19.0007C21.0255 18.4896 20.9441 17.9102 20.5924 17.4902C20.3808 17.2332 20.1529 16.989 19.9153 16.7512C19.6777 16.5136 19.4336 16.2858 19.1763 16.071C18.7566 15.7227 18.1738 15.6413 17.6661 15.8594L16.3151 16.4356C15.7161 16.1101 15.0879 15.8497 14.4337 15.6544L13.8866 14.2935C13.6784 13.7761 13.213 13.4277 12.6693 13.3757C12.3372 13.3464 12.002 13.3301 11.6668 13.3301V8.33333H38.3332V10H28.3334C26.4942 10 25 11.4941 25 13.3332V35C25 36.8392 26.4942 38.3332 28.3334 38.3332H38.3332V41.6667ZM36.6668 48.3333H13.3332C12.4155 48.3333 11.6668 47.5846 11.6668 46.6666V43.3334H38.3332V46.6666C38.3332 47.5846 37.5845 48.3333 36.6668 48.3333ZM7.50326 31.9205C7.27223 31.7806 6.98898 31.7577 6.74145 31.8653L5.12379 32.5618C4.94136 32.4056 4.76572 32.2428 4.5964 32.0704C4.42708 31.901 4.26116 31.7252 4.10473 31.543L4.80143 29.9219C4.90564 29.6744 4.88598 29.3945 4.74605 29.1635C4.32943 28.4734 4.02018 27.7278 3.82487 26.9466C3.75977 26.6862 3.57417 26.4746 3.32687 26.3737L1.69271 25.7193C1.67643 25.4817 1.66671 25.241 1.66671 25C1.66671 24.759 1.67643 24.5183 1.69271 24.2807L3.32687 23.6263C3.57417 23.5254 3.75977 23.3138 3.82487 23.0534C4.02018 22.2722 4.32943 21.5266 4.74605 20.8365C4.88598 20.6055 4.90564 20.3222 4.80143 20.0749L4.10473 18.457C4.26116 18.2748 4.42708 18.099 4.5964 17.9296C4.76572 17.7572 4.94136 17.5944 5.12379 17.4382L6.74484 18.1347C6.98898 18.2389 7.27223 18.2194 7.50326 18.0795C8.1934 17.6627 8.93871 17.3534 9.71996 17.1581C9.98038 17.093 10.192 16.9076 10.293 16.6601L10.9472 15.026C11.4226 14.9902 11.9075 14.9902 12.3861 15.026L13.0403 16.6601C13.1413 16.9076 13.3529 17.093 13.6133 17.1581C14.3946 17.3534 15.1399 17.6627 15.83 18.0795C16.0613 18.2194 16.3411 18.2389 16.5885 18.1347L18.2097 17.4382C18.3919 17.5944 18.5678 17.7572 18.7369 17.9296C18.9096 18.099 19.0724 18.2748 19.2286 18.457L18.5319 20.0749C18.4276 20.3222 18.4473 20.6055 18.5872 20.8365C19.0039 21.5266 19.3131 22.2722 19.5084 23.0534C19.5735 23.3138 19.7591 23.5254 20.0064 23.6263L21.6406 24.2807C21.6569 24.5183 21.6666 24.759 21.6666 25C21.6666 25.241 21.6569 25.4817 21.6406 25.7193L20.0064 26.3737C19.7591 26.4746 19.5735 26.6862 19.5084 26.9466C19.3131 27.7278 19.0039 28.4734 18.5872 29.1635C18.4473 29.3945 18.4276 29.6744 18.5319 29.9219L19.2286 31.543C19.0724 31.7252 18.9096 31.901 18.7369 32.0704C18.5678 32.2428 18.3919 32.4056 18.2097 32.5618L16.5918 31.8653C16.3411 31.7577 16.0613 31.7806 15.83 31.9205C15.1399 32.3373 14.3946 32.6466 13.6133 32.8419C13.3529 32.907 13.1413 33.0924 13.0403 33.3399L12.3861 34.974C11.9109 35.0098 11.4258 35.0098 10.9472 34.974L10.293 33.3399C10.192 33.0924 9.98038 32.907 9.71996 32.8419C8.93871 32.6466 8.1934 32.3373 7.50326 31.9205ZM13.3332 1.66671H36.6668C37.5845 1.66671 38.3332 2.41541 38.3332 3.33342V6.66662H11.6668V3.33342C11.6668 2.41541 12.4155 1.66671 13.3332 1.66671ZM48.3333 13.3332V16.6667H26.6667V13.3332C26.6667 12.4155 27.4154 11.6668 28.3334 11.6668H46.6666C47.5846 11.6668 48.3333 12.4155 48.3333 13.3332ZM46.6666 10H40V3.33342C40 1.49423 38.5059 0 36.6668 0H13.3332C11.4941 0 10 1.49423 10 3.33342V13.6199C9.75907 13.7826 9.56059 14.0105 9.44327 14.2969L8.89983 15.6544C8.2454 15.8497 7.61402 16.1101 7.01814 16.4356L5.66723 15.8594C5.15634 15.6413 4.57673 15.7227 4.15695 16.0742C3.89969 16.2858 3.65555 16.5136 3.41797 16.7512C3.18038 16.989 2.95252 17.2332 2.74093 17.4902C2.38941 17.9102 2.30803 18.4896 2.52595 19.0007L3.10556 20.3516C2.77665 20.9504 2.51623 21.5789 2.32092 22.2331L0.960286 22.7799C0.442618 22.9883 0.0944915 23.4538 0.0456633 23.9974C0.0131113 24.3295 0 24.6648 0 25C0 25.3352 0.0131113 25.6705 0.0456633 26.0026C0.0944915 26.5462 0.442618 27.0117 0.963451 27.2233L2.32092 27.7669C2.51623 28.4211 2.77665 29.0496 3.10556 29.6484L2.52595 30.9993C2.30803 31.5104 2.38941 32.0898 2.74093 32.5098C2.95252 32.7668 3.18038 33.011 3.41797 33.2488C3.65555 33.4864 3.89969 33.7142 4.15695 33.929C4.57673 34.2773 5.15634 34.3587 5.66723 34.1406L7.01814 33.5644C7.61402 33.8899 8.2454 34.1503 8.89983 34.3456L9.44666 35.7065C9.56059 35.9929 9.75907 36.2174 10 36.3801V46.6666C10 48.5058 11.4941 50 13.3332 50H36.6668C38.5059 50 40 48.5058 40 46.6666V38.3332H46.6666C48.5058 38.3332 50 36.8392 50 35V13.3332C50 11.4941 48.5058 10 46.6666 10Z" fill="#7ED957"/>
<path d="M6.66671 25.0001C6.66671 22.8288 8.06329 20.9799 10.0001 20.2898V22.129C9.0073 22.7084 8.33342 23.7729 8.33342 25.0001C8.33342 26.2274 9.0073 27.2919 10.0001 27.8713V29.7104C8.06329 29.0203 6.66671 27.1714 6.66671 25.0001ZM11.6668 23.3334C12.5846 23.3334 13.3333 24.0821 13.3333 25.0001C13.3333 25.9181 12.5846 26.6668 11.6668 26.6668C10.7488 26.6668 10.0001 25.9181 10.0001 25.0001C10.0001 24.0821 10.7488 23.3334 11.6668 23.3334ZM16.6668 25.0001C16.6668 27.7573 14.4238 30 11.6668 30V28.3335C13.506 28.3335 15 26.8393 15 25.0001C15 23.1609 13.506 21.6667 11.6668 21.6667V20.0002C14.4238 20.0002 16.6668 22.2429 16.6668 25.0001ZM18.3335 25.0001C18.3335 21.3249 15.3418 18.3335 11.6668 18.3335C7.99163 18.3335 5 21.3249 5 25.0001C5 28.6753 7.99163 31.6667 11.6668 31.6667C15.3418 31.6667 18.3335 28.6753 18.3335 25.0001Z" fill="#7ED957"/>
<path d="M30.0005 24.9999V21.6665H45.0007L45.0038 24.9999H30.0005ZM45.0007 20H30.0005C29.0827 20 28.334 20.7487 28.334 21.6665V24.9999C28.334 25.9179 29.0827 26.6666 30.0005 26.6666H45.0007C45.9184 26.6666 46.6671 25.9179 46.6671 24.9999V21.6665C46.6671 20.7487 45.9184 20 45.0007 20Z" fill="#7ED957"/>
<path d="M21.6672 4.99998H22.5007C22.9596 4.99998 23.3339 4.62563 23.3339 4.16674C23.3339 3.70785 22.9596 3.3335 22.5007 3.3335H21.6672C21.2083 3.3335 20.834 3.70785 20.834 4.16674C20.834 4.62563 21.2083 4.99998 21.6672 4.99998Z" fill="#7ED957"/>
<path d="M25.8332 4.99998H28.3334C28.7923 4.99998 29.1667 4.62563 29.1667 4.16674C29.1667 3.70785 28.7923 3.3335 28.3334 3.3335H25.8332C25.3743 3.3335 25 3.70785 25 4.16674C25 4.62563 25.3743 4.99998 25.8332 4.99998Z" fill="#7ED957"/>
<path d="M26.6667 45H23.3332C22.8743 45 22.5 45.3743 22.5 45.8332C22.5 46.2921 22.8743 46.6665 23.3332 46.6665H26.6667C27.1256 46.6665 27.4999 46.2921 27.4999 45.8332C27.4999 45.3743 27.1256 45 26.6667 45Z" fill="#7ED957"/>
<path d="M30.0005 13.3333H29.1672C28.7083 13.3333 28.334 13.7076 28.334 14.1667C28.334 14.6256 28.7083 15 29.1672 15H30.0005C30.4596 15 30.8339 14.6256 30.8339 14.1667C30.8339 13.7076 30.4596 13.3333 30.0005 13.3333Z" fill="#7ED957"/>
<path d="M34.1665 13.3333H33.3332C32.8743 13.3333 32.5 13.7076 32.5 14.1667C32.5 14.6256 32.8743 15 33.3332 15H34.1665C34.6256 15 35 14.6256 35 14.1667C35 13.7076 34.6256 13.3333 34.1665 13.3333Z" fill="#7ED957"/>
<path d="M41.6672 15H45.8339C46.2928 15 46.6671 14.6256 46.6671 14.1667C46.6671 13.7076 46.2928 13.3333 45.8339 13.3333H41.6672C41.2083 13.3333 40.834 13.7076 40.834 14.1667C40.834 14.6256 41.2083 15 41.6672 15Z" fill="#7ED957"/>
<path d="M38.3333 28.3335H30.8335C30.3743 28.3335 30 28.7078 30 29.1667C30 29.6256 30.3743 30 30.8335 30H38.3333C38.7925 30 39.1668 29.6256 39.1668 29.1667C39.1668 28.7078 38.7925 28.3335 38.3333 28.3335Z" fill="#7ED957"/>
<path d="M36.6668 31.6665H30.8335C30.3743 31.6665 30 32.0409 30 32.5C30 32.9589 30.3743 33.3332 30.8335 33.3332H36.6668C37.1257 33.3332 37.5001 32.9589 37.5001 32.5C37.5001 32.0409 37.1257 31.6665 36.6668 31.6665Z" fill="#7ED957"/>
<path d="M44.1672 28.3335H41.6672C41.2083 28.3335 40.834 28.7078 40.834 29.1667C40.834 29.6256 41.2083 30 41.6672 30H44.1672C44.6263 30 45.0007 29.6256 45.0007 29.1667C45.0007 28.7078 44.6263 28.3335 44.1672 28.3335Z" fill="#7ED957"/>
<path d="M42.4992 31.6665H39.9993C39.5404 31.6665 39.166 32.0409 39.166 32.5C39.166 32.9589 39.5404 33.3332 39.9993 33.3332H42.4992C42.9583 33.3332 43.3327 32.9589 43.3327 32.5C43.3327 32.0409 42.9583 31.6665 42.4992 31.6665Z" fill="#7ED957"/>
</svg>
