<svg width="46" height="50" viewBox="0 0 46 50" fill="none" xmlns="http://www.w3.org/2000/svg">
<path fill-rule="evenodd" clip-rule="evenodd" d="M40.7255 6.00892C39.7302 6.00892 38.9102 5.18918 38.9102 4.19352C38.9102 3.19815 39.7302 2.37842 40.7255 2.37842C41.7209 2.37842 42.5407 3.19815 42.5407 4.19352C42.5407 5.18918 41.7209 6.00892 40.7255 6.00892ZM40.7255 3.54943C40.3743 3.54943 40.0815 3.84225 40.0815 4.19352C40.0815 4.54508 40.3743 4.83762 40.7255 4.83762C41.0768 4.83762 41.3696 4.54508 41.3696 4.19352C41.3696 3.84225 41.0768 3.54943 40.7255 3.54943Z" fill="#FFBD59"/>
<path fill-rule="evenodd" clip-rule="evenodd" d="M35.8075 6.00892C34.7826 6.00892 33.9629 5.18918 33.9629 4.19352C33.9629 3.19815 34.7826 2.37842 35.8075 2.37842C36.8029 2.37842 37.6226 3.19815 37.6226 4.19352C37.6226 5.18918 36.8029 6.00892 35.8075 6.00892ZM35.8075 3.54943C35.4267 3.54943 35.1342 3.84225 35.1342 4.19352C35.1342 4.54508 35.4267 4.83762 35.8075 4.83762C36.1588 4.83762 36.4516 4.54508 36.4516 4.19352C36.4516 3.84225 36.1588 3.54943 35.8075 3.54943Z" fill="#FFBD59"/>
<path fill-rule="evenodd" clip-rule="evenodd" d="M30.8584 6.00892C29.8627 6.00892 29.043 5.18918 29.043 4.19352C29.043 3.19815 29.8627 2.37842 30.8584 2.37842C31.8537 2.37842 32.6735 3.19815 32.6735 4.19352C32.6735 5.18918 31.8537 6.00892 30.8584 6.00892ZM30.8584 3.54943C30.5068 3.54943 30.2143 3.84225 30.2143 4.19352C30.2143 4.54508 30.5068 4.83762 30.8584 4.83762C31.2096 4.83762 31.5025 4.54508 31.5025 4.19352C31.5025 3.84225 31.2096 3.54943 30.8584 3.54943Z" fill="#FFBD59"/>
<mask id="mask0_2356_386" style="mask-type:luminance" maskUnits="userSpaceOnUse" x="0" y="0" width="46" height="50">
<path d="M0 0H45.1111V50H0V0Z" fill="white"/>
</mask>
<g mask="url(#mask0_2356_386)">
<path fill-rule="evenodd" clip-rule="evenodd" d="M42.8044 49.9843H2.31308C1.02488 49.9843 0 48.9302 0 47.642V2.31991C0 1.06094 1.02488 0.00683594 2.31308 0.00683594H42.8044C44.0634 0.00683594 45.1172 1.06094 45.1172 2.31991V47.642C45.1172 48.9302 44.0634 49.9843 42.8044 49.9843ZM2.31308 1.17784C1.66898 1.17784 1.1713 1.70504 1.1713 2.31991V47.642C1.1713 48.2861 1.66898 48.813 2.31308 48.813H42.8044C43.4193 48.813 43.9462 48.2861 43.9462 47.642V2.31991C43.9462 1.70504 43.4485 1.17784 42.8044 1.17784H2.31308Z" fill="#FFBD59"/>
</g>
<mask id="mask1_2356_386" style="mask-type:luminance" maskUnits="userSpaceOnUse" x="0" y="7" width="46" height="2">
<path d="M0 7.1438H45.1111V8.40306H0V7.1438Z" fill="white"/>
</mask>
<g mask="url(#mask1_2356_386)">
<path fill-rule="evenodd" clip-rule="evenodd" d="M44.5318 8.38052H0.585648C0.2636 8.38052 0 8.11693 0 7.79488C0 7.47283 0.2636 7.20923 0.585648 7.20923H44.5318C44.8539 7.20923 45.1172 7.47283 45.1172 7.79488C45.1172 8.11693 44.8539 8.38052 44.5318 8.38052Z" fill="#FFBD59"/>
</g>
<path fill-rule="evenodd" clip-rule="evenodd" d="M7.93338 21.3505C7.08442 21.3505 6.32313 20.9992 5.73777 20.3843C5.15213 19.7403 4.83008 18.9205 4.83008 18.0423C4.83008 16.2269 6.23546 14.7339 7.93338 14.7339H28.223C28.5451 14.7339 28.8087 14.9972 28.8087 15.3192C28.8087 15.6413 28.5451 15.9049 28.223 15.9049H7.93338C6.87956 15.9049 6.00109 16.871 6.00109 18.0423C6.00109 18.6277 6.20624 19.1841 6.58673 19.5646C6.93801 19.9746 7.43569 20.1795 7.93338 20.1795H27.9302C28.2522 20.1795 28.5158 20.4431 28.5158 20.7651C28.5158 21.0872 28.2522 21.3505 27.9302 21.3505H7.93338Z" fill="#FFBD59"/>
<path fill-rule="evenodd" clip-rule="evenodd" d="M33.5525 25.0396C29.8633 25.0396 26.8477 22.0239 26.8477 18.3347C26.8477 14.6165 29.8633 11.6301 33.5525 11.6301C37.2707 11.6301 40.2571 14.6165 40.2571 18.3347C40.2571 22.0239 37.2707 25.0396 33.5525 25.0396ZM33.5525 12.8014C30.5074 12.8014 28.019 15.2606 28.019 18.3347C28.019 21.3798 30.5074 23.8683 33.5525 23.8683C36.6266 23.8683 39.0858 21.3798 39.0858 18.3347C39.0858 15.2606 36.5974 12.8014 33.5525 12.8014Z" fill="#FFBD59"/>
<path fill-rule="evenodd" clip-rule="evenodd" d="M33.5518 22.9021C31.0339 22.9021 28.9844 20.8526 28.9844 18.3347C28.9844 15.8171 31.0339 13.7676 33.5518 13.7676C36.0697 13.7676 38.1189 15.8171 38.1189 18.3347C38.1189 20.8526 36.0697 22.9021 33.5518 22.9021ZM33.5518 14.9386C31.678 14.9386 30.1554 16.4612 30.1554 18.3347C30.1554 20.2085 31.678 21.7311 33.5518 21.7311C35.4253 21.7311 36.9479 20.2085 36.9479 18.3347C36.9479 16.4612 35.4253 14.9386 33.5518 14.9386Z" fill="#FFBD59"/>
<path fill-rule="evenodd" clip-rule="evenodd" d="M32.2048 27.294C31.8827 27.294 31.6191 27.0304 31.6191 26.7083V24.3076C31.6191 23.9855 31.8827 23.7219 32.2048 23.7219C32.5268 23.7219 32.7904 23.9855 32.7904 24.3076V26.7083C32.7904 27.0304 32.5268 27.294 32.2048 27.294ZM34.8984 27.1183C34.5763 27.1183 34.3127 26.8547 34.3127 26.5327V24.3076C34.3127 23.9855 34.5763 23.7219 34.8984 23.7219C35.2204 23.7219 35.484 23.9855 35.484 24.3076V26.5327C35.484 26.8547 35.2204 27.1183 34.8984 27.1183Z" fill="#FFBD59"/>
<path fill-rule="evenodd" clip-rule="evenodd" d="M33.6698 38.1851C32.0596 38.1851 30.7422 36.8677 30.7422 35.2575V28.5237C30.7422 26.9131 32.0596 25.5957 33.6698 25.5957C35.2804 25.5957 36.5978 26.9131 36.5978 28.5237V35.2575C36.5978 36.8677 35.2804 38.1851 33.6698 38.1851ZM33.6698 26.767C32.7037 26.767 31.9132 27.5572 31.9132 28.5237V35.2575C31.9132 36.2236 32.7037 37.0141 33.6698 37.0141C34.636 37.0141 35.4265 36.2236 35.4265 35.2575V28.5237C35.4265 27.5572 34.636 26.767 33.6698 26.767Z" fill="#FFBD59"/>
<path fill-rule="evenodd" clip-rule="evenodd" d="M28.0772 26.9718H12.2673C11.9157 26.9718 11.6816 26.7082 11.6816 26.3862C11.6816 26.0641 11.9157 25.8005 12.2673 25.8005H28.0772C28.3992 25.8005 28.6628 26.0641 28.6628 26.3862C28.6628 26.7082 28.3992 26.9718 28.0772 26.9718Z" fill="#FFBD59"/>
<path fill-rule="evenodd" clip-rule="evenodd" d="M28.0772 30.778H12.2673C11.9157 30.778 11.6816 30.5144 11.6816 30.1923C11.6816 29.8703 11.9157 29.6067 12.2673 29.6067H28.0772C28.3992 29.6067 28.6628 29.8703 28.6628 30.1923C28.6628 30.5144 28.3992 30.778 28.0772 30.778Z" fill="#FFBD59"/>
<path fill-rule="evenodd" clip-rule="evenodd" d="M28.0772 34.5551H12.2673C11.9157 34.5551 11.6816 34.2915 11.6816 33.9694C11.6816 33.6474 11.9157 33.3838 12.2673 33.3838H28.0772C28.3992 33.3838 28.6628 33.6474 28.6628 33.9694C28.6628 34.2915 28.3992 34.5551 28.0772 34.5551Z" fill="#FFBD59"/>
<path fill-rule="evenodd" clip-rule="evenodd" d="M6.73401 45.3586C6.5876 45.3586 6.44119 45.2999 6.324 45.1827L3.39634 42.255C3.27915 42.1378 3.2207 41.9914 3.2207 41.845C3.2207 41.6986 3.27915 41.523 3.39634 41.4353L6.324 38.5074C6.55838 38.2733 6.90965 38.2733 7.14374 38.5074C7.37811 38.7417 7.37811 39.093 7.14374 39.3274L4.65531 41.845L7.14374 44.363C7.37811 44.5681 7.37811 44.9486 7.14374 45.1827C7.02684 45.2999 6.88043 45.3586 6.73401 45.3586Z" fill="#FFBD59"/>
<path fill-rule="evenodd" clip-rule="evenodd" d="M12.2965 45.3586C12.1501 45.3586 12.0037 45.2999 11.8865 45.1827C11.6524 44.9486 11.6524 44.5681 11.8865 44.363L14.4044 41.845L11.8865 39.3274C11.6524 39.093 11.6524 38.7417 11.8865 38.5074C12.1209 38.2733 12.4721 38.2733 12.7062 38.5074L15.6342 41.4353C15.7514 41.523 15.8098 41.6986 15.8098 41.845C15.8098 41.9914 15.7514 42.1378 15.6342 42.255L12.7062 45.1827C12.5893 45.2999 12.4429 45.3586 12.2965 45.3586Z" fill="#FFBD59"/>
<path fill-rule="evenodd" clip-rule="evenodd" d="M8.25638 47.1152C8.22715 47.1152 8.1687 47.0857 8.11025 47.0857C7.81743 46.9981 7.61228 46.676 7.70024 46.3832L10.2182 37.0143C10.3059 36.6922 10.6279 36.5166 10.9207 36.6043C11.2428 36.6922 11.4184 37.0143 11.3307 37.3071L8.84202 46.676C8.75435 46.9393 8.51997 47.1152 8.25638 47.1152Z" fill="#FFBD59"/>
</svg>
