<svg xmlns="http://www.w3.org/2000/svg" xmlns:xlink="http://www.w3.org/1999/xlink" width="1440" zoomAndPan="magnify" viewBox="0 0 1080 1619.99993" height="2160" preserveAspectRatio="xMidYMid meet" version="1.0"><defs><clipPath id="258f6a5086"><path d="M 235.457031 472.558594 L 844.457031 472.558594 L 844.457031 1147.558594 L 235.457031 1147.558594 Z M 235.457031 472.558594 " clip-rule="nonzero"/></clipPath><clipPath id="fa6f302aae"><path d="M 235.457031 569 L 844.457031 569 L 844.457031 586 L 235.457031 586 Z M 235.457031 569 " clip-rule="nonzero"/></clipPath></defs><path fill="#ffbd59" d="M 785.253906 553.679688 C 771.816406 553.679688 760.746094 542.613281 760.746094 529.171875 C 760.746094 515.734375 771.816406 504.667969 785.253906 504.667969 C 798.691406 504.667969 809.757812 515.734375 809.757812 529.171875 C 809.757812 542.613281 798.691406 553.679688 785.253906 553.679688 Z M 785.253906 520.476562 C 780.511719 520.476562 776.558594 524.429688 776.558594 529.171875 C 776.558594 533.917969 780.511719 537.867188 785.253906 537.867188 C 789.996094 537.867188 793.949219 533.917969 793.949219 529.171875 C 793.949219 524.429688 789.996094 520.476562 785.253906 520.476562 Z M 785.253906 520.476562 " fill-opacity="1" fill-rule="evenodd"/><path fill="#ffbd59" d="M 718.851562 553.679688 C 705.015625 553.679688 693.949219 542.613281 693.949219 529.171875 C 693.949219 515.734375 705.015625 504.667969 718.851562 504.667969 C 732.289062 504.667969 743.355469 515.734375 743.355469 529.171875 C 743.355469 542.613281 732.289062 553.679688 718.851562 553.679688 Z M 718.851562 520.476562 C 713.710938 520.476562 709.761719 524.429688 709.761719 529.171875 C 709.761719 533.917969 713.710938 537.867188 718.851562 537.867188 C 723.59375 537.867188 727.546875 533.917969 727.546875 529.171875 C 727.546875 524.429688 723.59375 520.476562 718.851562 520.476562 Z M 718.851562 520.476562 " fill-opacity="1" fill-rule="evenodd"/><path fill="#ffbd59" d="M 652.054688 553.679688 C 638.613281 553.679688 627.546875 542.613281 627.546875 529.171875 C 627.546875 515.734375 638.613281 504.667969 652.054688 504.667969 C 665.492188 504.667969 676.558594 515.734375 676.558594 529.171875 C 676.558594 542.613281 665.492188 553.679688 652.054688 553.679688 Z M 652.054688 520.476562 C 647.308594 520.476562 643.359375 524.429688 643.359375 529.171875 C 643.359375 533.917969 647.308594 537.867188 652.054688 537.867188 C 656.796875 537.867188 660.75 533.917969 660.75 529.171875 C 660.75 524.429688 656.796875 520.476562 652.054688 520.476562 Z M 652.054688 520.476562 " fill-opacity="1" fill-rule="evenodd"/><g clip-path="url(#258f6a5086)"><path fill="#ffbd59" d="M 813.316406 1147.347656 L 266.683594 1147.347656 C 249.292969 1147.347656 235.457031 1133.117188 235.457031 1115.726562 L 235.457031 503.878906 C 235.457031 486.882812 249.292969 472.652344 266.683594 472.652344 L 813.316406 472.652344 C 830.3125 472.652344 844.539062 486.882812 844.539062 503.878906 L 844.539062 1115.726562 C 844.539062 1133.117188 830.3125 1147.347656 813.316406 1147.347656 Z M 266.683594 488.460938 C 257.988281 488.460938 251.269531 495.578125 251.269531 503.878906 L 251.269531 1115.726562 C 251.269531 1124.421875 257.988281 1131.535156 266.683594 1131.535156 L 813.316406 1131.535156 C 821.617188 1131.535156 828.730469 1124.421875 828.730469 1115.726562 L 828.730469 503.878906 C 828.730469 495.578125 822.011719 488.460938 813.316406 488.460938 Z M 266.683594 488.460938 " fill-opacity="1" fill-rule="evenodd"/></g><g clip-path="url(#fa6f302aae)"><path fill="#ffbd59" d="M 836.636719 585.695312 L 243.363281 585.695312 C 239.015625 585.695312 235.457031 582.136719 235.457031 577.789062 C 235.457031 573.441406 239.015625 569.882812 243.363281 569.882812 L 836.636719 569.882812 C 840.984375 569.882812 844.539062 573.441406 844.539062 577.789062 C 844.539062 582.136719 840.984375 585.695312 836.636719 585.695312 Z M 836.636719 585.695312 " fill-opacity="1" fill-rule="evenodd"/></g><path fill="#ffbd59" d="M 342.570312 760.789062 C 331.109375 760.789062 320.832031 756.046875 312.929688 747.746094 C 305.023438 739.050781 300.675781 727.984375 300.675781 716.128906 C 300.675781 691.621094 319.648438 671.464844 342.570312 671.464844 L 616.480469 671.464844 C 620.828125 671.464844 624.386719 675.019531 624.386719 679.367188 C 624.386719 683.714844 620.828125 687.273438 616.480469 687.273438 L 342.570312 687.273438 C 328.34375 687.273438 316.484375 700.316406 316.484375 716.128906 C 316.484375 724.03125 319.253906 731.542969 324.390625 736.679688 C 329.132812 742.214844 335.851562 744.980469 342.570312 744.980469 L 612.527344 744.980469 C 616.875 744.980469 620.433594 748.539062 620.433594 752.886719 C 620.433594 757.234375 616.875 760.789062 612.527344 760.789062 Z M 342.570312 760.789062 " fill-opacity="1" fill-rule="evenodd"/><path fill="#ffbd59" d="M 688.417969 810.59375 C 638.613281 810.59375 597.902344 769.882812 597.902344 720.078125 C 597.902344 669.882812 638.613281 629.566406 688.417969 629.566406 C 738.613281 629.566406 778.929688 669.882812 778.929688 720.078125 C 778.929688 769.882812 738.613281 810.59375 688.417969 810.59375 Z M 688.417969 645.378906 C 647.308594 645.378906 613.714844 678.578125 613.714844 720.078125 C 613.714844 761.1875 647.308594 794.78125 688.417969 794.78125 C 729.917969 794.78125 763.117188 761.1875 763.117188 720.078125 C 763.117188 678.578125 729.523438 645.378906 688.417969 645.378906 Z M 688.417969 645.378906 " fill-opacity="1" fill-rule="evenodd"/><path fill="#ffbd59" d="M 688.417969 781.738281 C 654.425781 781.738281 626.757812 754.070312 626.757812 720.078125 C 626.757812 686.089844 654.425781 658.421875 688.417969 658.421875 C 722.410156 658.421875 750.074219 686.089844 750.074219 720.078125 C 750.074219 754.070312 722.410156 781.738281 688.417969 781.738281 Z M 688.417969 674.230469 C 663.121094 674.230469 642.566406 694.785156 642.566406 720.078125 C 642.566406 745.375 663.121094 765.929688 688.417969 765.929688 C 713.710938 765.929688 734.265625 745.375 734.265625 720.078125 C 734.265625 694.785156 713.710938 674.230469 688.417969 674.230469 Z M 688.417969 674.230469 " fill-opacity="1" fill-rule="evenodd"/><path fill="#ffbd59" d="M 670.234375 841.027344 C 665.886719 841.027344 662.328125 837.46875 662.328125 833.121094 L 662.328125 800.710938 C 662.328125 796.363281 665.886719 792.804688 670.234375 792.804688 C 674.582031 792.804688 678.140625 796.363281 678.140625 800.710938 L 678.140625 833.121094 C 678.140625 837.46875 674.582031 841.027344 670.234375 841.027344 Z M 706.597656 838.65625 C 702.25 838.65625 698.691406 835.097656 698.691406 830.75 L 698.691406 800.710938 C 698.691406 796.363281 702.25 792.804688 706.597656 792.804688 C 710.945312 792.804688 714.503906 796.363281 714.503906 800.710938 L 714.503906 830.75 C 714.503906 835.097656 710.945312 838.65625 706.597656 838.65625 Z M 706.597656 838.65625 " fill-opacity="1" fill-rule="evenodd"/><path fill="#ffbd59" d="M 689.996094 988.058594 C 668.257812 988.058594 650.472656 970.273438 650.472656 948.535156 L 650.472656 857.628906 C 650.472656 835.886719 668.257812 818.101562 689.996094 818.101562 C 711.738281 818.101562 729.523438 835.886719 729.523438 857.628906 L 729.523438 948.535156 C 729.523438 970.273438 711.738281 988.058594 689.996094 988.058594 Z M 689.996094 833.914062 C 676.953125 833.914062 666.28125 844.582031 666.28125 857.628906 L 666.28125 948.535156 C 666.28125 961.578125 676.953125 972.25 689.996094 972.25 C 703.039062 972.25 713.710938 961.578125 713.710938 948.535156 L 713.710938 857.628906 C 713.710938 844.582031 703.039062 833.914062 689.996094 833.914062 Z M 689.996094 833.914062 " fill-opacity="1" fill-rule="evenodd"/><path fill="#ffbd59" d="M 614.503906 836.679688 L 401.070312 836.679688 C 396.324219 836.679688 393.164062 833.121094 393.164062 828.773438 C 393.164062 824.425781 396.324219 820.867188 401.070312 820.867188 L 614.503906 820.867188 C 618.851562 820.867188 622.410156 824.425781 622.410156 828.773438 C 622.410156 833.121094 618.851562 836.679688 614.503906 836.679688 Z M 614.503906 836.679688 " fill-opacity="1" fill-rule="evenodd"/><path fill="#ffbd59" d="M 614.503906 888.0625 L 401.070312 888.0625 C 396.324219 888.0625 393.164062 884.503906 393.164062 880.15625 C 393.164062 875.808594 396.324219 872.25 401.070312 872.25 L 614.503906 872.25 C 618.851562 872.25 622.410156 875.808594 622.410156 880.15625 C 622.410156 884.503906 618.851562 888.0625 614.503906 888.0625 Z M 614.503906 888.0625 " fill-opacity="1" fill-rule="evenodd"/><path fill="#ffbd59" d="M 614.503906 939.050781 L 401.070312 939.050781 C 396.324219 939.050781 393.164062 935.492188 393.164062 931.144531 C 393.164062 926.796875 396.324219 923.238281 401.070312 923.238281 L 614.503906 923.238281 C 618.851562 923.238281 622.410156 926.796875 622.410156 931.144531 C 622.410156 935.492188 618.851562 939.050781 614.503906 939.050781 Z M 614.503906 939.050781 " fill-opacity="1" fill-rule="evenodd"/><path fill="#ffbd59" d="M 326.367188 1084.898438 C 324.390625 1084.898438 322.414062 1084.105469 320.832031 1082.523438 L 281.308594 1043 C 279.726562 1041.417969 278.9375 1039.441406 278.9375 1037.464844 C 278.9375 1035.488281 279.726562 1033.117188 281.308594 1031.933594 L 320.832031 992.40625 C 323.996094 989.246094 328.738281 989.246094 331.898438 992.40625 C 335.0625 995.570312 335.0625 1000.3125 331.898438 1003.476562 L 298.304688 1037.464844 L 331.898438 1071.457031 C 335.0625 1074.226562 335.0625 1079.363281 331.898438 1082.523438 C 330.320312 1084.105469 328.34375 1084.898438 326.367188 1084.898438 Z M 326.367188 1084.898438 " fill-opacity="1" fill-rule="evenodd"/><path fill="#ffbd59" d="M 401.464844 1084.898438 C 399.488281 1084.898438 397.511719 1084.105469 395.929688 1082.523438 C 392.769531 1079.363281 392.769531 1074.226562 395.929688 1071.457031 L 429.921875 1037.464844 L 395.929688 1003.476562 C 392.769531 1000.3125 392.769531 995.570312 395.929688 992.40625 C 399.09375 989.246094 403.835938 989.246094 406.996094 992.40625 L 446.523438 1031.933594 C 448.105469 1033.117188 448.894531 1035.488281 448.894531 1037.464844 C 448.894531 1039.441406 448.105469 1041.417969 446.523438 1043 L 406.996094 1082.523438 C 405.417969 1084.105469 403.441406 1084.898438 401.464844 1084.898438 Z M 401.464844 1084.898438 " fill-opacity="1" fill-rule="evenodd"/><path fill="#ffbd59" d="M 346.917969 1108.613281 C 346.523438 1108.613281 345.734375 1108.214844 344.945312 1108.214844 C 340.992188 1107.03125 338.222656 1102.683594 339.410156 1098.730469 L 373.402344 972.25 C 374.585938 967.902344 378.933594 965.53125 382.886719 966.714844 C 387.234375 967.902344 389.605469 972.25 388.421875 976.203125 L 354.824219 1102.683594 C 353.640625 1106.238281 350.476562 1108.613281 346.917969 1108.613281 Z M 346.917969 1108.613281 " fill-opacity="1" fill-rule="evenodd"/></svg>