<svg width="79" height="50" viewBox="0 0 79 50" fill="none" xmlns="http://www.w3.org/2000/svg">
<path d="M32.6627 14.2026L29.1426 24.3994H30.4776L31.5701 21.1221H35.212L36.3046 24.3994H37.7614L34.2409 14.2026H32.6627ZM31.9344 20.151L32.9055 17.2374C33.1484 16.6306 33.2698 16.0238 33.3913 15.4166C33.5127 16.0238 33.7552 16.6306 33.8766 17.2374L34.8477 20.151H31.9344Z" fill="#FF5757"/>
<path d="M41.8892 14.0811C40.7967 14.0811 39.9466 14.2025 39.3398 14.3239V24.3992H40.6752V20.272C41.0392 20.3934 41.4035 20.3934 41.7678 20.3934C43.1028 20.3934 44.1953 20.0294 44.9239 19.3009C45.4093 18.8155 45.7736 18.0872 45.7736 17.1158C45.7736 16.1447 45.4093 15.4165 44.9239 14.9311C44.0739 14.4454 43.1028 14.0811 41.8892 14.0811ZM41.7678 19.3009C41.282 19.3009 40.9177 19.3009 40.6752 19.1794V15.1736C40.9177 15.1736 41.4035 15.0522 41.8892 15.0522C43.3457 15.0522 44.3168 15.6593 44.3168 17.1158C44.3168 18.5726 43.3457 19.3009 41.7678 19.3009Z" fill="#FF5757"/>
<path d="M47.3516 14.2026H48.687V24.3994H47.3516V14.2026Z" fill="#FF5757"/>
<mask id="mask0_2356_389" style="mask-type:luminance" maskUnits="userSpaceOnUse" x="6" y="41" width="66" height="9">
<path d="M6.14258 41.1462H71.6171V50H6.14258V41.1462Z" fill="white"/>
</mask>
<g mask="url(#mask0_2356_389)">
<path d="M70.779 41.1514H7.17032C6.68459 41.1514 6.19922 41.5157 6.19922 42.1225C6.19922 46.4926 9.71932 50.0131 14.0894 50.0131H63.617C67.9867 50.0131 71.5072 46.4926 71.5072 42.1225C71.6286 41.5157 71.2643 41.1514 70.779 41.1514ZM63.7384 48.1923H14.2109C11.1762 48.1923 8.62679 45.8858 8.14142 42.9725H69.8079C69.3221 45.8858 66.7731 48.1923 63.7384 48.1923Z" fill="#FF5757"/>
</g>
<mask id="mask1_2356_389" style="mask-type:luminance" maskUnits="userSpaceOnUse" x="0" y="0" width="79" height="40">
<path d="M0 0H78.6795V39.7707H0V0Z" fill="white"/>
</mask>
<g mask="url(#mask1_2356_389)">
<path d="M67.258 20.7578H70.8999C71.2638 22.4571 72.8421 23.6711 74.6629 23.6711C76.7265 23.6711 78.5473 21.9717 78.5473 19.7867C78.5473 17.723 76.8479 15.9023 74.6629 15.9023C72.8421 15.9023 71.3853 17.1159 70.8999 18.8156H67.258V10.4396H70.8999C71.2638 12.1389 72.8421 13.3529 74.6629 13.3529C76.7265 13.3529 78.5473 11.6536 78.5473 9.46849C78.5473 7.40486 76.8479 5.58409 74.6629 5.58409C72.8421 5.58409 71.3853 6.7977 70.8999 8.49739H67.258V0.9711C67.258 0.485371 66.8941 0 66.2869 0H11.5399C11.0542 0 10.5688 0.364297 10.5688 0.9711V8.49739H7.65518C7.29124 7.04056 5.71298 5.70517 4.01364 5.70517C1.95001 5.70517 0.129245 7.40486 0.129245 9.58992C0.129245 11.6536 1.82858 13.4743 4.01364 13.4743C5.83441 13.4743 7.29124 12.2604 7.77661 10.561H10.6899V18.937H7.65518C7.29124 17.2373 5.71298 16.0237 3.89221 16.0237C1.82858 16.0237 0.0078125 17.723 0.0078125 19.9081C0.0078125 21.9717 1.70715 23.7925 3.89221 23.7925C5.71298 23.7925 7.16981 22.5785 7.65518 20.8792H10.5688V29.2551H7.65518C7.29124 27.5555 5.71298 26.3418 3.89221 26.3418C1.82858 26.3418 0.0078125 28.0412 0.0078125 30.2262C0.0078125 32.2899 1.70715 34.1106 3.89221 34.1106C5.71298 34.1106 7.16981 32.8967 7.65518 31.1973H10.5688V38.7236C10.5688 39.209 10.9328 39.6947 11.5399 39.6947H66.4083C66.8941 39.6947 67.3794 39.3304 67.3794 38.7236V31.1973H71.0213C71.3853 32.8967 72.9635 34.1106 74.7843 34.1106C76.8479 34.1106 78.6687 32.4113 78.6687 30.2262C78.6687 28.1626 76.9693 26.3418 74.7843 26.3418C72.9635 26.3418 71.5067 27.5555 71.0213 29.2551H67.3794V20.7578H67.258ZM74.6629 17.723C75.7554 17.723 76.7265 18.5727 76.7265 19.7867C76.7265 20.8792 75.8768 21.8503 74.6629 21.8503C73.5703 21.8503 72.5992 21.0006 72.5992 19.7867C72.7207 18.6941 73.5703 17.723 74.6629 17.723ZM74.6629 7.52629C75.7554 7.52629 76.7265 8.37596 76.7265 9.58992C76.7265 10.6825 75.8768 11.6536 74.6629 11.6536C73.5703 11.6536 72.5992 10.8039 72.5992 9.58992C72.7207 8.49739 73.5703 7.52629 74.6629 7.52629ZM4.01364 11.6536C2.92111 11.6536 1.95001 10.8039 1.95001 9.58992C1.95001 8.49739 2.79968 7.52629 4.01364 7.52629C5.22761 7.52629 6.07728 8.37596 6.07728 9.58992C5.95584 10.6825 5.10618 11.6536 4.01364 11.6536ZM4.01364 21.8503C2.92111 21.8503 1.95001 21.0006 1.95001 19.7867C1.95001 18.6941 2.79968 17.723 4.01364 17.723C5.22761 17.723 6.07728 18.5727 6.07728 19.7867C5.95584 20.8792 5.10618 21.8503 4.01364 21.8503ZM4.01364 32.047C2.92111 32.047 1.95001 31.1973 1.95001 29.9834C1.95001 28.8908 2.79968 27.9197 4.01364 27.9197C5.22761 27.9197 6.07728 28.7694 6.07728 29.9834C5.95584 31.0759 5.10618 32.047 4.01364 32.047ZM74.6629 27.9197C75.7554 27.9197 76.7265 28.7694 76.7265 29.9834C76.7265 31.0759 75.8768 32.047 74.6629 32.047C73.5703 32.047 72.5992 31.1973 72.5992 29.9834C72.7207 28.8908 73.5703 27.9197 74.6629 27.9197ZM65.4372 29.1337H64.1018L63.6165 28.648V20.6363H65.4372V29.1337ZM51.72 26.4629H57.4256L61.7953 29.6191V33.8678H16.1526V29.6191L20.5227 26.4629H26.2282C26.7136 26.4629 27.1993 26.099 27.1993 25.4918C27.1993 24.885 26.835 24.5207 26.2282 24.5207H20.1584C19.9159 24.5207 19.7945 24.5207 19.673 24.6422L16.0311 27.1915V20.5149H26.3493C26.835 20.5149 27.3208 20.1509 27.3208 19.5438C27.3208 19.0584 26.9565 18.5727 26.3493 18.5727H16.0311V11.8961L19.673 14.4454C19.7945 14.5669 20.0373 14.5669 20.1584 14.5669H26.2282C26.7136 14.5669 27.1993 14.2026 27.1993 13.5958C27.1993 13.11 26.835 12.6247 26.2282 12.6247H20.5227L16.1526 9.46849V5.70517H61.9168V9.95386L57.5466 13.11H51.8415C51.3557 13.11 50.8704 13.4743 50.8704 14.0811C50.8704 14.5669 51.2347 15.0522 51.8415 15.0522H57.9109C58.1538 15.0522 58.2752 15.0522 58.3967 14.9312L62.0382 12.3818V19.0584H51.4772C50.9918 19.0584 50.5061 19.4224 50.5061 20.0295C50.5061 20.5149 50.8704 21.0006 51.4772 21.0006H61.7953V27.6769L58.1538 25.1279C58.0324 25.0064 57.7895 25.0064 57.6681 25.0064H51.5986C51.1132 25.0064 50.6275 25.3707 50.6275 25.9775C50.6275 26.5844 51.1132 26.4629 51.72 26.4629ZM65.4372 18.937H63.6165V10.925L64.2233 10.561H65.5587V18.937H65.4372ZM12.3896 2.06363H65.4372V8.61882H63.859C63.7379 8.61882 63.7379 8.61882 63.6165 8.61882V4.73407C63.6165 4.2487 63.2522 3.8844 62.6454 3.8844H15.1815C14.6961 3.8844 14.2104 4.2487 14.2104 4.73407V8.61882C14.0889 8.61882 14.0889 8.61882 13.9675 8.61882H12.3896V2.06363ZM12.3896 10.4396H13.725L14.2104 10.8039V18.8156H12.3896V10.4396ZM12.3896 20.7578H14.2104V28.7694L13.725 29.1337H12.3896V20.7578ZM65.4372 37.5097H12.3896V30.9545H13.9675C14.0889 30.9545 14.0889 30.9545 14.2104 30.9545V34.8389C14.2104 35.3246 14.5747 35.8103 15.1815 35.8103H62.7664C63.2522 35.8103 63.7379 35.446 63.7379 34.8389V30.9545C63.859 30.9545 63.859 30.9545 63.9804 30.9545H65.5587V37.5097H65.4372Z" fill="#FF5757"/>
</g>
</svg>
