<svg xmlns="http://www.w3.org/2000/svg" xmlns:xlink="http://www.w3.org/1999/xlink" width="1440" zoomAndPan="magnify" viewBox="0 0 1080 1619.99993" height="2160" preserveAspectRatio="xMidYMid meet" version="1.0"><path fill="#7ed957" d="M 914.398438 1011.601562 L 597.601562 1011.601562 C 581.738281 1011.601562 568.800781 998.664062 568.800781 982.800781 L 568.800781 694.800781 L 943.199219 694.800781 L 943.199219 982.800781 C 943.199219 998.664062 930.261719 1011.601562 914.398438 1011.601562 Z M 770.398438 1098 L 309.601562 1098 L 309.601562 1011.601562 C 315.394531 1011.601562 321.1875 1011.375 326.925781 1010.867188 C 336.320312 1009.96875 344.363281 1003.949219 348.019531 994.949219 L 357.414062 971.492188 C 368.71875 968.117188 379.574219 963.617188 389.925781 957.992188 L 413.269531 967.949219 C 422.042969 971.71875 432.113281 970.3125 439.367188 964.238281 C 443.8125 960.582031 448.03125 956.644531 452.136719 952.539062 C 456.242188 948.429688 460.179688 944.210938 463.894531 939.769531 C 469.914062 932.511719 471.320312 922.5 467.550781 913.667969 L 457.59375 890.324219 C 463.21875 879.976562 467.71875 869.117188 471.09375 857.8125 L 494.550781 848.417969 C 494.605469 848.363281 494.605469 848.363281 494.605469 848.363281 C 503.550781 844.761719 509.570312 836.71875 510.46875 827.324219 C 510.976562 821.585938 511.199219 815.792969 511.199219 810 C 511.199219 804.207031 510.976562 798.414062 510.46875 792.675781 C 509.570312 783.28125 503.550781 775.238281 494.550781 771.582031 L 471.09375 762.1875 C 467.71875 750.882812 463.21875 740.023438 457.59375 729.675781 L 467.550781 706.332031 C 471.320312 697.5 469.914062 687.488281 463.835938 680.230469 C 460.179688 675.789062 456.242188 671.570312 452.136719 667.460938 C 448.03125 663.355469 443.8125 659.417969 439.367188 655.707031 C 432.113281 649.6875 422.042969 648.28125 413.269531 652.050781 L 389.925781 662.007812 C 379.574219 656.382812 368.71875 651.882812 357.414062 648.507812 L 347.960938 624.992188 C 344.363281 616.050781 336.320312 610.03125 326.925781 609.132812 C 321.1875 608.625 315.394531 608.34375 309.601562 608.34375 L 309.601562 522 L 770.398438 522 L 770.398438 550.800781 L 597.601562 550.800781 C 565.820312 550.800781 540 576.617188 540 608.398438 L 540 982.800781 C 540 1014.582031 565.820312 1040.398438 597.601562 1040.398438 L 770.398438 1040.398438 Z M 741.601562 1213.199219 L 338.398438 1213.199219 C 322.539062 1213.199219 309.601562 1200.261719 309.601562 1184.398438 L 309.601562 1126.800781 L 770.398438 1126.800781 L 770.398438 1184.398438 C 770.398438 1200.261719 757.460938 1213.199219 741.601562 1213.199219 Z M 237.65625 929.585938 C 233.664062 927.167969 228.769531 926.773438 224.492188 928.632812 L 196.539062 940.667969 C 193.386719 937.96875 190.351562 935.15625 187.425781 932.175781 C 184.5 929.25 181.632812 926.210938 178.929688 923.0625 L 190.96875 895.050781 C 192.769531 890.773438 192.429688 885.9375 190.011719 881.945312 C 182.8125 870.019531 177.46875 857.136719 174.09375 843.636719 C 172.96875 839.136719 169.761719 835.480469 165.488281 833.738281 L 137.25 822.429688 C 136.96875 818.324219 136.800781 814.164062 136.800781 810 C 136.800781 805.835938 136.96875 801.675781 137.25 797.570312 L 165.488281 786.261719 C 169.761719 784.519531 172.96875 780.863281 174.09375 776.363281 C 177.46875 762.863281 182.8125 749.980469 190.011719 738.054688 C 192.429688 734.0625 192.769531 729.167969 190.96875 724.894531 L 178.929688 696.9375 C 181.632812 693.789062 184.5 690.75 187.425781 687.824219 C 190.351562 684.84375 193.386719 682.03125 196.539062 679.332031 L 224.550781 691.367188 C 228.769531 693.167969 233.664062 692.832031 237.65625 690.414062 C 249.582031 683.210938 262.460938 677.867188 275.960938 674.492188 C 280.460938 673.367188 284.117188 670.164062 285.863281 665.886719 L 297.167969 637.648438 C 305.382812 637.03125 313.761719 637.03125 322.03125 637.648438 L 333.335938 665.886719 C 335.082031 670.164062 338.738281 673.367188 343.238281 674.492188 C 356.738281 677.867188 369.617188 683.210938 381.542969 690.414062 C 385.539062 692.832031 390.375 693.167969 394.648438 691.367188 L 422.664062 679.332031 C 425.8125 682.03125 428.851562 684.84375 431.773438 687.824219 C 434.757812 690.75 437.570312 693.789062 440.269531 696.9375 L 428.230469 724.894531 C 426.429688 729.167969 426.769531 734.0625 429.1875 738.054688 C 436.386719 749.980469 441.730469 762.863281 445.105469 776.363281 C 446.230469 780.863281 449.4375 784.519531 453.710938 786.261719 L 481.949219 797.570312 C 482.230469 801.675781 482.398438 805.835938 482.398438 810 C 482.398438 814.164062 482.230469 818.324219 481.949219 822.429688 L 453.710938 833.738281 C 449.4375 835.480469 446.230469 839.136719 445.105469 843.636719 C 441.730469 857.136719 436.386719 870.019531 429.1875 881.945312 C 426.769531 885.9375 426.429688 890.773438 428.230469 895.050781 L 440.269531 923.0625 C 437.570312 926.210938 434.757812 929.25 431.773438 932.175781 C 428.851562 935.15625 425.8125 937.96875 422.664062 940.667969 L 394.707031 928.632812 C 390.375 926.773438 385.539062 927.167969 381.542969 929.585938 C 369.617188 936.789062 356.738281 942.132812 343.238281 945.507812 C 338.738281 946.632812 335.082031 949.835938 333.335938 954.113281 L 322.03125 982.351562 C 313.820312 982.96875 305.4375 982.96875 297.167969 982.351562 L 285.863281 954.113281 C 284.117188 949.835938 280.460938 946.632812 275.960938 945.507812 C 262.460938 942.132812 249.582031 936.789062 237.65625 929.585938 Z M 338.398438 406.800781 L 741.601562 406.800781 C 757.460938 406.800781 770.398438 419.738281 770.398438 435.601562 L 770.398438 493.199219 L 309.601562 493.199219 L 309.601562 435.601562 C 309.601562 419.738281 322.539062 406.800781 338.398438 406.800781 Z M 943.199219 608.398438 L 943.199219 666 L 568.800781 666 L 568.800781 608.398438 C 568.800781 592.539062 581.738281 579.601562 597.601562 579.601562 L 914.398438 579.601562 C 930.261719 579.601562 943.199219 592.539062 943.199219 608.398438 Z M 914.398438 550.800781 L 799.199219 550.800781 L 799.199219 435.601562 C 799.199219 403.820312 773.382812 378 741.601562 378 L 338.398438 378 C 306.617188 378 280.800781 403.820312 280.800781 435.601562 L 280.800781 613.351562 C 276.636719 616.164062 273.207031 620.101562 271.179688 625.050781 L 261.789062 648.507812 C 250.480469 651.882812 239.570312 656.382812 229.273438 662.007812 L 205.929688 652.050781 C 197.101562 648.28125 187.085938 649.6875 179.832031 655.761719 C 175.386719 659.417969 171.167969 663.355469 167.0625 667.460938 C 162.957031 671.570312 159.019531 675.789062 155.363281 680.230469 C 149.289062 687.488281 147.882812 697.5 151.648438 706.332031 L 161.664062 729.675781 C 155.980469 740.023438 151.480469 750.882812 148.105469 762.1875 L 124.59375 771.636719 C 115.648438 775.238281 109.632812 783.28125 108.789062 792.675781 C 108.226562 798.414062 108 804.207031 108 810 C 108 815.792969 108.226562 821.585938 108.789062 827.324219 C 109.632812 836.71875 115.648438 844.761719 124.648438 848.417969 L 148.105469 857.8125 C 151.480469 869.117188 155.980469 879.976562 161.664062 890.324219 L 151.648438 913.667969 C 147.882812 922.5 149.289062 932.511719 155.363281 939.769531 C 159.019531 944.210938 162.957031 948.429688 167.0625 952.539062 C 171.167969 956.644531 175.386719 960.582031 179.832031 964.292969 C 187.085938 970.3125 197.101562 971.71875 205.929688 967.949219 L 229.273438 957.992188 C 239.570312 963.617188 250.480469 968.117188 261.789062 971.492188 L 271.238281 995.007812 C 273.207031 999.957031 276.636719 1003.835938 280.800781 1006.648438 L 280.800781 1184.398438 C 280.800781 1216.179688 306.617188 1242 338.398438 1242 L 741.601562 1242 C 773.382812 1242 799.199219 1216.179688 799.199219 1184.398438 L 799.199219 1040.398438 L 914.398438 1040.398438 C 946.179688 1040.398438 972 1014.582031 972 982.800781 L 972 608.398438 C 972 576.617188 946.179688 550.800781 914.398438 550.800781 " fill-opacity="1" fill-rule="nonzero"/><path fill="#7ed957" d="M 223.199219 810 C 223.199219 772.480469 247.332031 740.53125 280.800781 728.605469 L 280.800781 760.386719 C 263.644531 770.398438 252 788.792969 252 810 C 252 831.207031 263.644531 849.601562 280.800781 859.613281 L 280.800781 891.394531 C 247.332031 879.46875 223.199219 847.519531 223.199219 810 Z M 309.601562 781.199219 C 325.460938 781.199219 338.398438 794.136719 338.398438 810 C 338.398438 825.863281 325.460938 838.800781 309.601562 838.800781 C 293.738281 838.800781 280.800781 825.863281 280.800781 810 C 280.800781 794.136719 293.738281 781.199219 309.601562 781.199219 Z M 396 810 C 396 857.644531 357.242188 896.398438 309.601562 896.398438 L 309.601562 867.601562 C 341.382812 867.601562 367.199219 841.78125 367.199219 810 C 367.199219 778.21875 341.382812 752.398438 309.601562 752.398438 L 309.601562 723.601562 C 357.242188 723.601562 396 762.355469 396 810 Z M 424.800781 810 C 424.800781 746.492188 373.105469 694.800781 309.601562 694.800781 C 246.09375 694.800781 194.398438 746.492188 194.398438 810 C 194.398438 873.507812 246.09375 925.199219 309.601562 925.199219 C 373.105469 925.199219 424.800781 873.507812 424.800781 810 " fill-opacity="1" fill-rule="nonzero"/><path fill="#7ed957" d="M 626.398438 810 L 626.398438 752.398438 L 885.601562 752.398438 L 885.65625 810 Z M 885.601562 723.601562 L 626.398438 723.601562 C 610.539062 723.601562 597.601562 736.539062 597.601562 752.398438 L 597.601562 810 C 597.601562 825.863281 610.539062 838.800781 626.398438 838.800781 L 885.601562 838.800781 C 901.460938 838.800781 914.398438 825.863281 914.398438 810 L 914.398438 752.398438 C 914.398438 736.539062 901.460938 723.601562 885.601562 723.601562 " fill-opacity="1" fill-rule="nonzero"/><path fill="#7ed957" d="M 482.398438 464.398438 L 496.800781 464.398438 C 504.730469 464.398438 511.199219 457.929688 511.199219 450 C 511.199219 442.070312 504.730469 435.601562 496.800781 435.601562 L 482.398438 435.601562 C 474.46875 435.601562 468 442.070312 468 450 C 468 457.929688 474.46875 464.398438 482.398438 464.398438 " fill-opacity="1" fill-rule="nonzero"/><path fill="#7ed957" d="M 554.398438 464.398438 L 597.601562 464.398438 C 605.53125 464.398438 612 457.929688 612 450 C 612 442.070312 605.53125 435.601562 597.601562 435.601562 L 554.398438 435.601562 C 546.46875 435.601562 540 442.070312 540 450 C 540 457.929688 546.46875 464.398438 554.398438 464.398438 " fill-opacity="1" fill-rule="nonzero"/><path fill="#7ed957" d="M 568.800781 1155.601562 L 511.199219 1155.601562 C 503.269531 1155.601562 496.800781 1162.070312 496.800781 1170 C 496.800781 1177.929688 503.269531 1184.398438 511.199219 1184.398438 L 568.800781 1184.398438 C 576.730469 1184.398438 583.199219 1177.929688 583.199219 1170 C 583.199219 1162.070312 576.730469 1155.601562 568.800781 1155.601562 " fill-opacity="1" fill-rule="nonzero"/><path fill="#7ed957" d="M 626.398438 608.398438 L 612 608.398438 C 604.070312 608.398438 597.601562 614.867188 597.601562 622.800781 C 597.601562 630.730469 604.070312 637.199219 612 637.199219 L 626.398438 637.199219 C 634.332031 637.199219 640.800781 630.730469 640.800781 622.800781 C 640.800781 614.867188 634.332031 608.398438 626.398438 608.398438 " fill-opacity="1" fill-rule="nonzero"/><path fill="#7ed957" d="M 698.398438 608.398438 L 684 608.398438 C 676.070312 608.398438 669.601562 614.867188 669.601562 622.800781 C 669.601562 630.730469 676.070312 637.199219 684 637.199219 L 698.398438 637.199219 C 706.332031 637.199219 712.800781 630.730469 712.800781 622.800781 C 712.800781 614.867188 706.332031 608.398438 698.398438 608.398438 " fill-opacity="1" fill-rule="nonzero"/><path fill="#7ed957" d="M 828 637.199219 L 900 637.199219 C 907.929688 637.199219 914.398438 630.730469 914.398438 622.800781 C 914.398438 614.867188 907.929688 608.398438 900 608.398438 L 828 608.398438 C 820.070312 608.398438 813.601562 614.867188 813.601562 622.800781 C 813.601562 630.730469 820.070312 637.199219 828 637.199219 " fill-opacity="1" fill-rule="nonzero"/><path fill="#7ed957" d="M 770.398438 867.601562 L 640.800781 867.601562 C 632.867188 867.601562 626.398438 874.070312 626.398438 882 C 626.398438 889.929688 632.867188 896.398438 640.800781 896.398438 L 770.398438 896.398438 C 778.332031 896.398438 784.800781 889.929688 784.800781 882 C 784.800781 874.070312 778.332031 867.601562 770.398438 867.601562 " fill-opacity="1" fill-rule="nonzero"/><path fill="#7ed957" d="M 741.601562 925.199219 L 640.800781 925.199219 C 632.867188 925.199219 626.398438 931.667969 626.398438 939.601562 C 626.398438 947.53125 632.867188 954 640.800781 954 L 741.601562 954 C 749.53125 954 756 947.53125 756 939.601562 C 756 931.667969 749.53125 925.199219 741.601562 925.199219 " fill-opacity="1" fill-rule="nonzero"/><path fill="#7ed957" d="M 871.199219 867.601562 L 828 867.601562 C 820.070312 867.601562 813.601562 874.070312 813.601562 882 C 813.601562 889.929688 820.070312 896.398438 828 896.398438 L 871.199219 896.398438 C 879.132812 896.398438 885.601562 889.929688 885.601562 882 C 885.601562 874.070312 879.132812 867.601562 871.199219 867.601562 " fill-opacity="1" fill-rule="nonzero"/><path fill="#7ed957" d="M 842.398438 925.199219 L 799.199219 925.199219 C 791.269531 925.199219 784.800781 931.667969 784.800781 939.601562 C 784.800781 947.53125 791.269531 954 799.199219 954 L 842.398438 954 C 850.332031 954 856.800781 947.53125 856.800781 939.601562 C 856.800781 931.667969 850.332031 925.199219 842.398438 925.199219 " fill-opacity="1" fill-rule="nonzero"/></svg>