<svg width="50" height="50" viewBox="0 0 50 50" fill="none" xmlns="http://www.w3.org/2000/svg">
<path d="M36.8531 33.4594L42.4469 39.0625L36.85 44.6672L39.0625 46.875L46.875 39.0625L39.0625 31.25L36.8531 33.4594ZM31.8969 33.4594L26.3031 39.0625L31.9 44.6672L29.6875 46.875L21.875 39.0625L29.6875 31.25L31.8969 33.4594ZM34.375 9.375H37.5V21.875H34.375V9.375ZM28.125 9.375H31.25V21.875H28.125V9.375ZM21.875 21.875H18.75C17.0266 21.875 15.625 20.4734 15.625 18.75V12.5C15.625 10.7766 17.0266 9.375 18.75 9.375H21.875C23.5984 9.375 25 10.7766 25 12.5V18.75C25 20.4734 23.5984 21.875 21.875 21.875ZM18.75 12.5V18.75H21.875V12.5H18.75ZM9.375 9.375H12.5V21.875H9.375V9.375Z" fill="#F1553F"/>
<path d="M15.625 43.75H6.25C4.52656 43.75 3.125 42.3484 3.125 40.625V6.25C3.125 4.52656 4.52656 3.125 6.25 3.125H40.625C42.3484 3.125 43.75 4.52656 43.75 6.25V25H40.625V6.25H6.25V40.625H15.625V43.75Z" fill="#F1553F"/>
</svg>
