<svg width="50" height="42" viewBox="0 0 50 42" fill="none" xmlns="http://www.w3.org/2000/svg">
<path d="M14.2285 27.6L21.2571 21.3857V40.0215M35.7749 33.8107L28.7428 40.0215V21.3857" stroke="#248EC8" stroke-width="2.9" stroke-linecap="round" stroke-linejoin="round"/>
<path d="M14.0001 34.7215C11.0233 34.8538 8.11299 33.8158 5.89186 31.8296C3.67074 29.8433 2.31527 27.0666 2.11552 24.0936C1.91576 21.1206 2.88759 18.1875 4.82303 15.922C6.75848 13.6565 9.50379 12.2385 12.4715 11.9715C12.6271 11.9749 12.7805 11.9337 12.9134 11.8527C13.0463 11.7717 13.1533 11.6542 13.2215 11.5143C14.2527 8.52826 16.2763 5.98588 18.9548 4.31095C21.6334 2.63602 24.8051 1.92975 27.9412 2.30986C31.0774 2.68998 33.9885 4.13351 36.1893 6.39984C38.3902 8.66617 39.7478 11.6184 40.0358 14.7643C40.0601 14.9298 40.1311 15.085 40.2406 15.2115C40.35 15.3381 40.4933 15.4307 40.6536 15.4786C42.6351 15.9446 44.421 17.0191 45.7609 18.5513C47.1008 20.0836 47.9276 21.9968 48.1253 24.0226C48.323 26.0485 47.8817 28.0854 46.8633 29.8478C45.8449 31.6102 44.3004 33.0097 42.4465 33.85" stroke="#248EC8" stroke-width="2.9" stroke-linecap="round" stroke-linejoin="round"/>
</svg>
