<svg xmlns="http://www.w3.org/2000/svg" xmlns:xlink="http://www.w3.org/1999/xlink" width="50" zoomAndPan="magnify" viewBox="0 0 37.5 37.499999" height="50" preserveAspectRatio="xMidYMid meet" version="1.0"><defs><clipPath id="8fd7873cc5"><path d="M 0.859375 1.386719 L 36.382812 1.386719 L 36.382812 35.433594 L 0.859375 35.433594 Z M 0.859375 1.386719 " clip-rule="nonzero"/></clipPath></defs><g clip-path="url(#8fd7873cc5)"><path fill="#2a2927" d="M 20.722656 34.078125 L 10.847656 34.078125 C 9.476562 34.085938 8.445312 32.972656 8.402344 31.671875 L 8.292969 31.671875 C 6.941406 31.671875 5.84375 30.585938 5.84375 29.253906 L 5.84375 27.855469 C 5.84375 27.429688 6.496094 27.429688 6.503906 27.855469 L 6.503906 29.253906 C 6.503906 30.226562 7.304688 31.019531 8.292969 31.019531 L 17.464844 31.019531 C 17.890625 31.019531 17.898438 31.664062 17.464844 31.671875 L 9.058594 31.671875 C 9.0625 32.640625 9.863281 33.425781 10.847656 33.425781 L 20.722656 33.425781 C 21.148438 33.433594 21.152344 34.078125 20.722656 34.078125 Z M 6.175781 18.175781 C 5.996094 18.175781 5.847656 18.320312 5.847656 18.5 L 5.847656 25.71875 C 5.847656 25.898438 5.996094 26.042969 6.175781 26.042969 C 6.355469 26.042969 6.503906 25.898438 6.503906 25.71875 L 6.503906 18.5 C 6.503906 18.320312 6.355469 18.175781 6.175781 18.175781 Z M 5.847656 7.5 L 5.847656 13.90625 C 5.847656 14.085938 5.996094 14.230469 6.175781 14.230469 C 6.355469 14.230469 6.503906 14.085938 6.503906 13.90625 L 6.503906 7.5 C 6.503906 7.320312 6.355469 7.175781 6.175781 7.175781 C 5.996094 7.175781 5.847656 7.320312 5.847656 7.5 Z M 9.621094 10.550781 L 26.257812 10.550781 C 26.695312 10.550781 26.679688 9.90625 26.257812 9.898438 C 26.257812 9.898438 9.621094 9.898438 9.621094 9.898438 C 9.191406 9.898438 9.195312 10.550781 9.621094 10.550781 Z M 36.382812 33.238281 C 36.382812 33.328125 36.347656 33.417969 36.285156 33.480469 L 34.40625 35.335938 C 34.34375 35.398438 34.261719 35.433594 34.175781 35.433594 C 34.078125 35.433594 33.996094 35.390625 33.933594 35.324219 L 32.027344 33.191406 C 31.566406 33.742188 30.878906 34.078125 30.140625 34.078125 L 29.828125 34.078125 C 29.394531 34.078125 29.394531 33.433594 29.828125 33.425781 C 30.5 33.488281 31.167969 33.226562 31.566406 32.683594 L 30.871094 31.90625 C 29.261719 33.09375 27.273438 33.808594 25.113281 33.808594 C 20.039062 33.808594 15.886719 29.914062 15.523438 24.988281 L 9.613281 24.988281 C 9.183594 24.988281 9.183594 24.34375 9.613281 24.335938 C 9.613281 24.335938 14.207031 24.335938 15.488281 24.335938 C 15.488281 24.324219 15.488281 24.316406 15.488281 24.300781 C 15.550781 22.726562 15.890625 21.351562 16.441406 20.175781 L 9.613281 20.175781 C 9.191406 20.175781 9.183594 19.53125 9.613281 19.523438 C 9.613281 19.523438 15.613281 19.523438 16.78125 19.523438 C 17.152344 18.871094 17.582031 18.277344 18.070312 17.761719 L 13.847656 17.761719 C 13.664062 17.832031 13.476562 17.875 13.273438 17.875 L 10.753906 17.875 C 10.539062 17.867188 10.351562 17.824219 10.183594 17.761719 L 9.621094 17.761719 C 9.265625 17.761719 9.210938 17.324219 9.441406 17.164062 C 8.890625 16.273438 9.328125 14.835938 10.75 14.792969 C 10.75 14.792969 11.722656 14.792969 11.722656 14.792969 L 11.722656 13.832031 C 11.730469 13.464844 11.839844 13.179688 12 12.945312 L 9.621094 12.945312 C 9.195312 12.945312 9.191406 12.296875 9.621094 12.289062 C 9.621094 12.289062 26.257812 12.289062 26.257812 12.289062 C 26.679688 12.289062 26.695312 12.9375 26.257812 12.945312 L 14.5625 12.945312 C 14.730469 13.179688 14.835938 13.472656 14.839844 13.832031 L 14.839844 16.332031 C 14.839844 16.617188 14.757812 16.882812 14.617188 17.109375 C 15.863281 17.109375 18.132812 17.109375 18.765625 17.109375 C 22.46875 13.953125 28.425781 14.097656 31.929688 17.535156 L 31.929688 6.214844 C 31.921875 5.132812 31.042969 4.460938 30.035156 4.441406 L 30.035156 14.875 C 30.035156 15.054688 29.890625 15.199219 29.707031 15.199219 C 29.527344 15.199219 29.382812 15.054688 29.382812 14.875 L 29.382812 3.808594 C 29.367188 2.835938 28.617188 2.074219 27.632812 2.039062 L 8.296875 2.039062 C 7.359375 2.039062 6.574219 2.769531 6.515625 3.691406 C 6.503906 3.867188 6.335938 4.007812 6.167969 3.992188 C 5.988281 3.980469 5.847656 3.828125 5.863281 3.648438 C 5.945312 2.382812 7.019531 1.386719 8.304688 1.386719 L 27.65625 1.386719 C 29 1.433594 30.019531 2.464844 30.050781 3.785156 C 31.40625 3.792969 32.609375 4.796875 32.605469 6.207031 C 32.605469 6.207031 32.605469 16.84375 32.605469 18.257812 C 33.835938 19.769531 34.65625 21.777344 34.761719 24.296875 C 34.761719 26.425781 34.039062 28.394531 32.832031 29.980469 L 36.285156 33 C 36.335938 33.0625 36.375 33.148438 36.382812 33.238281 Z M 14.179688 13.84375 C 14.160156 12.675781 12.40625 12.675781 12.382812 13.84375 C 12.363281 15.757812 12.675781 15.433594 10.753906 15.460938 C 9.726562 15.480469 9.59375 16.792969 10.359375 17.144531 C 10.371094 17.152344 10.386719 17.152344 10.402344 17.160156 C 10.503906 17.199219 10.625 17.226562 10.761719 17.226562 C 10.761719 17.226562 13.296875 17.226562 13.296875 17.226562 C 13.429688 17.226562 13.554688 17.199219 13.664062 17.144531 C 13.664062 17.144531 13.664062 17.144531 13.671875 17.144531 C 13.976562 17.007812 14.195312 16.699219 14.195312 16.339844 L 14.195312 13.84375 Z M 32.066406 29.945312 C 32.082031 29.90625 32.101562 29.863281 32.136719 29.828125 C 32.164062 29.800781 32.191406 29.78125 32.222656 29.769531 C 33.292969 28.378906 33.996094 26.5625 34.085938 24.308594 C 34.085938 19.425781 30.0625 15.453125 25.121094 15.453125 C 20.179688 15.453125 16.15625 19.425781 16.15625 24.308594 C 16.511719 32.847656 25.566406 35.171875 30.667969 31.292969 C 30.710938 31.246094 30.757812 31.199219 30.820312 31.175781 C 31.265625 30.8125 31.683594 30.40625 32.066406 29.945312 Z M 35.570312 33.261719 L 32.402344 30.496094 C 32.089844 30.855469 31.746094 31.191406 31.386719 31.5 C 32.066406 32.261719 34.183594 34.628906 34.183594 34.628906 Z M 32.003906 23.894531 C 31.96875 23.46875 31.316406 23.519531 31.351562 23.9375 C 31.628906 27.363281 28.621094 30.566406 25.121094 30.476562 C 21.675781 30.476562 18.878906 27.710938 18.878906 24.308594 C 18.808594 19.105469 25.273438 16.1875 29.207031 19.648438 C 29.527344 19.929688 29.964844 19.425781 29.636719 19.160156 C 25.253906 15.34375 18.175781 18.535156 18.21875 24.308594 C 18.21875 28.070312 21.3125 31.128906 25.121094 31.128906 C 28.992188 31.21875 32.3125 27.675781 32.003906 23.894531 Z M 29.304688 20.625 C 30.976562 19.097656 33.339844 21.402344 31.761719 23.050781 C 31.761719 23.050781 26.695312 28.054688 26.695312 28.054688 C 26.367188 28.378906 25.929688 28.558594 25.46875 28.558594 C 25.003906 28.558594 24.570312 28.378906 24.246094 28.054688 L 20.820312 24.671875 C 19.234375 23.050781 21.632812 20.679688 23.277344 22.246094 C 23.277344 22.246094 25.476562 24.417969 25.476562 24.417969 Z M 29.769531 21.085938 C 29.769531 21.085938 25.699219 25.105469 25.699219 25.105469 C 25.574219 25.230469 25.363281 25.230469 25.234375 25.105469 L 22.804688 22.707031 C 22.59375 22.5 22.316406 22.398438 22.039062 22.398438 C 21.113281 22.363281 20.589844 23.582031 21.273438 24.210938 L 24.695312 27.59375 C 25.109375 28 25.816406 27.992188 26.222656 27.59375 L 31.289062 22.589844 C 32.285156 21.578125 30.800781 20.136719 29.769531 21.085938 Z M 4.949219 17.878906 L 2.417969 17.878906 C 1.5625 17.878906 0.859375 17.191406 0.859375 16.339844 L 0.859375 13.839844 C 0.914062 11.808594 3.921875 11.808594 3.96875 13.839844 L 3.96875 14.800781 L 4.945312 14.800781 C 7.003906 14.855469 7.003906 17.832031 4.949219 17.878906 Z M 5.847656 16.339844 C 5.847656 15.851562 5.445312 15.453125 4.949219 15.453125 L 3.648438 15.453125 C 3.46875 15.453125 3.320312 15.308594 3.320312 15.128906 L 3.320312 13.84375 C 3.320312 13.355469 2.917969 12.957031 2.425781 12.957031 C 1.929688 12.957031 1.527344 13.355469 1.527344 13.84375 L 1.527344 16.347656 C 1.527344 16.835938 1.929688 17.234375 2.425781 17.234375 L 4.957031 17.234375 C 5.445312 17.234375 5.847656 16.835938 5.847656 16.339844 Z M 0.859375 8.109375 L 0.859375 5.609375 C 0.859375 4.761719 1.554688 4.066406 2.417969 4.066406 L 4.949219 4.066406 C 7.003906 4.125 7.003906 7.09375 4.949219 7.140625 C 4.949219 7.140625 3.976562 7.140625 3.976562 7.140625 L 3.976562 8.105469 C 3.976562 8.949219 3.28125 9.644531 2.417969 9.644531 C 1.5625 9.652344 0.859375 8.957031 0.859375 8.109375 Z M 1.519531 8.109375 C 1.539062 9.28125 3.292969 9.28125 3.316406 8.109375 L 3.316406 6.824219 C 3.316406 6.644531 3.460938 6.503906 3.640625 6.503906 L 4.945312 6.503906 C 6.121094 6.480469 6.128906 4.75 4.945312 4.726562 C 4.945312 4.726562 2.410156 4.726562 2.410156 4.726562 C 1.917969 4.726562 1.511719 5.128906 1.511719 5.613281 L 1.511719 8.109375 Z M 14.839844 5.609375 L 14.839844 8.109375 C 14.839844 8.957031 14.144531 9.652344 13.28125 9.652344 C 12.425781 9.652344 11.722656 8.964844 11.722656 8.109375 L 11.722656 7.148438 L 10.75 7.148438 C 8.695312 7.09375 8.695312 4.125 10.75 4.074219 C 10.75 4.074219 13.28125 4.074219 13.28125 4.074219 C 14.144531 4.074219 14.839844 4.761719 14.839844 5.609375 Z M 14.179688 5.609375 C 14.179688 5.121094 13.777344 4.722656 13.28125 4.722656 L 10.753906 4.722656 C 9.574219 4.742188 9.574219 6.472656 10.753906 6.496094 C 10.753906 6.496094 12.058594 6.496094 12.058594 6.496094 C 12.238281 6.496094 12.382812 6.640625 12.382812 6.816406 L 12.382812 8.105469 C 12.40625 9.273438 14.160156 9.273438 14.179688 8.105469 Z M 14.179688 5.609375 " fill-opacity="1" fill-rule="nonzero"/></g></svg>