<svg xmlns="http://www.w3.org/2000/svg" xmlns:xlink="http://www.w3.org/1999/xlink" width="50" zoomAndPan="magnify" viewBox="0 0 37.5 37.499999" height="50" preserveAspectRatio="xMidYMid meet" version="1.0"><defs><clipPath id="08f43dbf4b"><path d="M 0.980469 2.375 L 35.765625 2.375 L 35.765625 34.941406 L 0.980469 34.941406 Z M 0.980469 2.375 " clip-rule="nonzero"/></clipPath></defs><g clip-path="url(#08f43dbf4b)"><path fill="#00bf63" d="M 9.660156 7.121094 C 9.660156 6.832031 9.898438 6.597656 10.1875 6.597656 L 17.738281 6.597656 C 18.03125 6.597656 18.265625 6.832031 18.265625 7.121094 C 18.265625 7.410156 18.03125 7.648438 17.738281 7.648438 L 10.1875 7.648438 C 9.898438 7.648438 9.660156 7.410156 9.660156 7.121094 Z M 9.660156 12.941406 C 9.660156 12.648438 9.898438 12.414062 10.1875 12.414062 L 17.738281 12.414062 C 18.03125 12.414062 18.265625 12.648438 18.265625 12.941406 C 18.265625 13.230469 18.03125 13.464844 17.738281 13.464844 L 10.1875 13.464844 C 9.898438 13.464844 9.660156 13.230469 9.660156 12.941406 Z M 5.058594 11.875 L 7.320312 11.878906 L 6.390625 13.132812 L 6.066406 12.730469 C 5.886719 12.507812 5.554688 12.46875 5.332031 12.652344 C 5.105469 12.832031 5.070312 13.164062 5.25 13.390625 L 6 14.324219 C 6.214844 14.59375 6.628906 14.582031 6.832031 14.308594 L 7.847656 12.933594 L 7.84375 14.671875 L 5.054688 14.664062 Z M 5.058594 15.71875 L 7.84375 15.71875 C 8.425781 15.71875 8.898438 15.246094 8.898438 14.664062 L 8.898438 11.878906 C 8.898438 11.773438 8.882812 11.667969 8.851562 11.570312 L 9.277344 10.996094 C 9.449219 10.761719 9.398438 10.433594 9.164062 10.261719 C 8.929688 10.089844 8.601562 10.140625 8.429688 10.371094 L 8.078125 10.851562 C 8.003906 10.835938 7.921875 10.824219 7.84375 10.824219 L 5.058594 10.824219 C 4.476562 10.824219 4.003906 11.296875 4.003906 11.878906 L 4.003906 14.664062 C 4.003906 15.246094 4.476562 15.71875 5.058594 15.71875 Z M 25.40625 23.230469 C 25.40625 23.25 25.40625 23.273438 25.40625 23.296875 C 25.339844 24.324219 24.433594 25.039062 23.199219 25.203125 L 23.199219 25.605469 C 23.199219 25.894531 22.964844 26.128906 22.675781 26.128906 C 22.382812 26.128906 22.148438 25.894531 22.148438 25.605469 L 22.148438 25.210938 C 21.488281 25.148438 20.847656 24.972656 20.246094 24.691406 C 19.984375 24.570312 19.867188 24.257812 19.992188 23.996094 C 20.113281 23.730469 20.425781 23.617188 20.6875 23.738281 C 21.539062 24.136719 22.792969 24.386719 23.699219 23.988281 C 24.230469 23.753906 24.332031 23.464844 24.355469 23.257812 C 24.335938 23.058594 24.230469 22.78125 23.695312 22.53125 C 23.375 22.390625 23.027344 22.335938 22.675781 22.332031 C 22.191406 22.332031 21.667969 22.226562 21.25 22.039062 C 20.238281 21.582031 19.957031 20.804688 19.976562 20.328125 C 20 19.808594 20.246094 19.097656 21.265625 18.664062 C 21.539062 18.542969 21.832031 18.460938 22.148438 18.414062 L 22.148438 18.007812 C 22.148438 17.71875 22.382812 17.484375 22.675781 17.484375 C 22.964844 17.484375 23.199219 17.71875 23.199219 18.007812 L 23.199219 18.40625 C 23.898438 18.476562 24.527344 18.644531 25.101562 18.925781 C 25.363281 19.054688 25.472656 19.367188 25.34375 19.628906 C 25.214844 19.890625 24.902344 19.996094 24.640625 19.871094 C 24.074219 19.59375 23.433594 19.449219 22.6875 19.425781 C 22.078125 19.417969 21.035156 19.71875 21.027344 20.359375 C 21.03125 20.492188 21.078125 20.792969 21.691406 21.085938 C 21.96875 21.210938 22.359375 21.285156 22.695312 21.28125 C 23.988281 21.277344 25.328125 21.964844 25.40625 23.230469 Z M 33.378906 33.726562 L 30.484375 30.832031 L 31.699219 29.617188 L 34.59375 32.507812 Z M 30.484375 30.835938 Z M 16.882812 27.597656 C 20.085938 30.796875 25.265625 30.796875 28.464844 27.597656 C 31.65625 24.40625 31.65625 19.210938 28.464844 16.015625 C 25.273438 12.824219 20.078125 12.824219 16.882812 16.015625 C 13.683594 19.214844 13.683594 24.398438 16.882812 27.597656 Z M 15.082031 16.539062 C 14.011719 18.074219 13.4375 19.898438 13.4375 21.808594 C 13.4375 25.398438 15.441406 27.488281 15.441406 27.570312 L 12.488281 27.570312 L 12.488281 16.539062 Z M 4.476562 27.570312 L 4.476562 23.6875 L 7.429688 23.6875 L 7.429688 27.570312 Z M 9.960938 27.570312 L 8.480469 27.570312 L 8.480469 21.070312 L 11.4375 21.070312 L 11.4375 27.570312 Z M 18.769531 30.246094 C 18.808594 30.246094 18.84375 30.242188 18.882812 30.238281 C 17.941406 29.8125 17.070312 29.230469 16.304688 28.5 C 16.214844 28.574219 16.097656 28.621094 15.96875 28.621094 L 3.949219 28.621094 C 3.660156 28.621094 3.425781 28.386719 3.425781 28.09375 L 3.425781 23.164062 C 3.425781 22.871094 3.660156 22.636719 3.949219 22.636719 L 7.429688 22.636719 L 7.429688 20.542969 C 7.429688 20.253906 7.664062 20.019531 7.957031 20.019531 L 11.4375 20.019531 L 11.4375 16.015625 C 11.4375 15.726562 11.671875 15.492188 11.960938 15.492188 L 15.933594 15.492188 C 16.949219 14.410156 18.15625 13.625 19.476562 13.140625 L 19.476562 6.914062 C 19.476562 5.605469 19.894531 4.3125 20.691406 3.421875 L 4.386719 3.421875 C 3.109375 3.421875 2.035156 5.203125 2.035156 7.308594 L 2.035156 29.539062 C 2.035156 29.929688 2.351562 30.246094 2.742188 30.246094 Z M 25.230469 6.914062 L 25.230469 9.335938 L 20.527344 9.335938 L 20.527344 6.914062 C 20.527344 5.019531 21.601562 3.421875 22.878906 3.421875 C 24.152344 3.421875 25.230469 5.019531 25.230469 6.914062 Z M 35.335938 31.765625 L 32.441406 28.875 C 32.035156 28.464844 31.367188 28.464844 30.960938 28.875 L 30.722656 29.113281 L 29.566406 27.957031 C 32.804688 24.335938 32.683594 18.753906 29.207031 15.273438 C 26.855469 12.925781 23.546875 12.109375 20.527344 12.824219 L 20.527344 10.386719 L 25.753906 10.386719 C 26.046875 10.386719 26.28125 10.152344 26.28125 9.859375 L 26.28125 6.914062 C 26.28125 5.730469 25.945312 4.613281 25.339844 3.769531 C 24.695312 2.867188 23.820312 2.371094 22.878906 2.371094 L 4.386719 2.371094 C 3.433594 2.371094 2.554688 2.914062 1.910156 3.902344 C 1.3125 4.820312 0.984375 6.027344 0.984375 7.308594 L 0.984375 29.539062 C 0.984375 30.507812 1.773438 31.296875 2.742188 31.296875 L 18.769531 31.296875 C 19.285156 31.296875 19.769531 31.066406 20.097656 30.683594 C 23.148438 31.5625 26.445312 30.832031 28.824219 28.699219 L 29.980469 29.855469 C 29.691406 30.144531 29.433594 30.355469 29.433594 30.835938 C 29.433594 31.117188 29.542969 31.378906 29.742188 31.578125 L 32.632812 34.46875 C 33.042969 34.878906 33.707031 34.878906 34.117188 34.46875 L 35.335938 33.25 C 35.746094 32.839844 35.746094 32.175781 35.335938 31.765625 Z M 26.660156 25.792969 C 28.863281 23.589844 28.863281 20.023438 26.660156 17.824219 C 24.457031 15.617188 20.890625 15.621094 18.691406 17.824219 C 16.492188 20.019531 16.492188 23.59375 18.691406 25.792969 C 20.886719 27.992188 24.460938 27.992188 26.660156 25.792969 Z M 27.402344 17.078125 C 24.789062 14.46875 20.558594 14.46875 17.945312 17.078125 C 15.339844 19.6875 15.339844 23.929688 17.945312 26.535156 C 20.554688 29.144531 24.796875 29.140625 27.402344 26.535156 C 30.015625 23.921875 30.015625 19.691406 27.402344 17.078125 Z M 5.058594 6.054688 L 7.320312 6.058594 L 6.390625 7.316406 L 6.066406 6.914062 C 5.886719 6.6875 5.554688 6.652344 5.332031 6.832031 C 5.105469 7.015625 5.070312 7.347656 5.25 7.570312 L 6 8.507812 C 6.214844 8.773438 6.628906 8.765625 6.832031 8.488281 L 7.847656 7.113281 L 7.84375 8.851562 L 5.054688 8.847656 Z M 5.058594 9.902344 C 4.476562 9.902344 4.003906 9.429688 4.003906 8.847656 L 4.003906 6.0625 C 4.003906 5.480469 4.476562 5.003906 5.058594 5.003906 L 7.84375 5.003906 C 7.921875 5.003906 8.003906 5.015625 8.078125 5.03125 L 8.429688 4.554688 C 8.601562 4.320312 8.929688 4.273438 9.164062 4.445312 C 9.398438 4.617188 9.449219 4.945312 9.277344 5.179688 L 8.851562 5.753906 C 8.882812 5.851562 8.898438 5.953125 8.898438 6.0625 L 8.898438 8.847656 C 8.898438 9.429688 8.425781 9.902344 7.84375 9.902344 Z M 5.058594 9.902344 " fill-opacity="1" fill-rule="evenodd"/></g></svg>