<svg xmlns="http://www.w3.org/2000/svg" xmlns:xlink="http://www.w3.org/1999/xlink" width="50" zoomAndPan="magnify" viewBox="0 0 37.5 37.499999" height="50" preserveAspectRatio="xMidYMid meet" version="1.0"><defs><clipPath id="c8bc54c82d"><path d="M 1.992188 4 L 35.300781 4 L 35.300781 33.125 L 1.992188 33.125 Z M 1.992188 4 " clip-rule="nonzero"/></clipPath></defs><g clip-path="url(#c8bc54c82d)"><path fill="#00bf63" d="M 21.273438 22.792969 C 21.277344 22.820312 21.277344 22.84375 21.273438 22.867188 C 21.191406 23.886719 20.210938 24.496094 19 24.636719 L 19 24.984375 C 19 25.261719 18.773438 25.484375 18.496094 25.484375 C 18.222656 25.484375 17.996094 25.261719 18 24.984375 L 18 24.644531 C 17.3125 24.585938 16.652344 24.429688 16.027344 24.167969 C 15.773438 24.0625 15.652344 23.773438 15.757812 23.515625 C 15.867188 23.261719 16.15625 23.140625 16.414062 23.246094 C 17.308594 23.617188 18.625 23.851562 19.589844 23.472656 C 20.183594 23.238281 20.257812 22.964844 20.273438 22.828125 C 20.257812 22.703125 20.183594 22.429688 19.585938 22.183594 C 19.25 22.050781 18.875 21.992188 18.503906 21.992188 C 18.046875 21.992188 17.445312 21.894531 17.066406 21.730469 C 16.011719 21.285156 15.773438 20.636719 15.753906 20.175781 C 15.753906 20.160156 15.753906 20.144531 15.757812 20.128906 C 15.78125 19.640625 16.035156 18.976562 17.082031 18.578125 C 17.363281 18.464844 17.667969 18.390625 18 18.351562 L 18 18 C 18 17.722656 18.222656 17.5 18.5 17.5 C 18.773438 17.5 19 17.722656 19 18 L 19 18.34375 C 19.722656 18.40625 20.371094 18.5625 20.964844 18.820312 C 21.21875 18.929688 21.332031 19.222656 21.222656 19.476562 C 21.113281 19.730469 20.820312 19.847656 20.566406 19.738281 C 19.96875 19.476562 19.296875 19.34375 18.511719 19.320312 C 18.097656 19.316406 17.761719 19.398438 17.4375 19.511719 C 16.824219 19.746094 16.765625 20.027344 16.757812 20.160156 C 16.777344 20.402344 17.007812 20.617188 17.449219 20.804688 C 17.75 20.925781 18.160156 20.992188 18.519531 20.992188 C 19.753906 20.992188 21.191406 21.5625 21.273438 22.792969 Z M 29.695312 32.21875 L 27.105469 29.574219 C 29.078125 27.480469 30.164062 24.855469 30.296875 21.992188 L 33.996094 21.992188 C 33.875 25.839844 32.363281 29.441406 29.695312 32.21875 Z M 32.054688 15.753906 C 31.96875 15.53125 31.738281 15.402344 31.503906 15.441406 L 28.898438 15.882812 C 28.457031 15.066406 27.914062 14.296875 27.28125 13.597656 L 29.925781 11.007812 C 32.433594 13.726562 33.878906 17.238281 33.996094 20.992188 L 30.296875 20.992188 C 30.25 19.871094 30.046875 18.78125 29.703125 17.746094 L 31.859375 16.355469 C 32.058594 16.226562 32.140625 15.976562 32.054688 15.753906 Z M 24.417969 19.957031 L 28.484375 17.339844 C 28.4375 17.222656 28.386719 17.109375 28.335938 16.996094 L 23.394531 17.832031 C 23.863281 18.460938 24.214844 19.179688 24.417969 19.957031 Z M 18.5 26.605469 C 21.316406 26.605469 23.613281 24.3125 23.613281 21.492188 C 23.613281 18.671875 21.316406 16.378906 18.5 16.378906 C 15.679688 16.378906 13.386719 18.671875 13.386719 21.492188 C 13.386719 24.3125 15.679688 26.605469 18.5 26.605469 Z M 10.605469 12.714844 L 8.011719 10.0625 C 10.730469 7.558594 14.238281 6.113281 18 5.996094 L 18 9.695312 C 15.242188 9.808594 12.65625 10.871094 10.605469 12.714844 Z M 9.800781 29.480469 L 7.183594 32.097656 C 4.589844 29.335938 3.121094 25.78125 3 21.992188 L 6.699219 21.992188 C 6.816406 24.792969 7.902344 27.417969 9.800781 29.480469 Z M 6.148438 12.113281 C 4.199219 14.664062 3.101562 17.738281 3 20.992188 L 6.699219 20.992188 C 6.816406 18.144531 7.9375 15.488281 9.890625 13.410156 L 7.300781 10.765625 C 6.902344 11.179688 6.496094 11.660156 6.152344 12.113281 Z M 19 5.996094 L 19 9.695312 C 21.707031 9.816406 24.195312 10.796875 26.238281 12.574219 L 26.582031 12.882812 L 29.226562 10.296875 C 28.832031 9.921875 28.417969 9.5625 27.984375 9.226562 C 25.410156 7.226562 22.296875 6.097656 19 5.996094 Z M 33.261719 14.105469 C 32.488281 12.5625 31.496094 11.195312 30.296875 9.949219 C 25.269531 4.777344 17.429688 3.523438 11.046875 6.761719 C 9.589844 7.5 8.117188 8.546875 6.953125 9.695312 C 3.753906 12.828125 1.992188 17.015625 1.992188 21.492188 C 1.992188 25.902344 3.707031 30.046875 6.828125 33.164062 C 7.023438 33.363281 7.339844 33.359375 7.535156 33.164062 L 10.855469 29.84375 C 11.050781 29.648438 11.050781 29.332031 10.855469 29.136719 C 7.007812 25.292969 6.644531 19.207031 9.890625 14.953125 L 9.890625 14.957031 C 13.523438 10.164062 20.390625 9.273438 25.109375 12.941406 L 25.109375 12.945312 C 26.210938 13.789062 27.15625 14.871094 27.851562 16.0625 L 22.589844 16.953125 C 21.507812 15.976562 20.070312 15.378906 18.5 15.378906 C 15.128906 15.378906 12.382812 18.121094 12.382812 21.492188 C 12.382812 24.863281 15.128906 27.605469 18.5 27.605469 C 22.046875 27.605469 24.863281 24.578125 24.59375 21.035156 L 28.832031 18.304688 C 29.195312 19.492188 29.367188 20.820312 29.289062 22.089844 C 29.125 24.808594 28.035156 27.28125 26.058594 29.214844 C 25.859375 29.410156 25.855469 29.726562 26.050781 29.925781 L 29.335938 33.28125 C 29.53125 33.480469 29.84375 33.484375 30.042969 33.289062 C 33.242188 30.15625 35.003906 25.96875 35.003906 21.492188 C 35.003906 18.894531 34.417969 16.410156 33.261719 14.105469 Z M 33.261719 14.105469 " fill-opacity="1" fill-rule="evenodd"/></g></svg>