<svg xmlns="http://www.w3.org/2000/svg" xmlns:xlink="http://www.w3.org/1999/xlink" width="50" zoomAndPan="magnify" viewBox="0 0 37.5 37.499999" height="50" preserveAspectRatio="xMidYMid meet" version="1.0"><defs><clipPath id="22af29f5d7"><path d="M 1.59375 2.601562 L 34.902344 2.601562 L 34.902344 34 L 1.59375 34 Z M 1.59375 2.601562 " clip-rule="nonzero"/></clipPath></defs><g clip-path="url(#22af29f5d7)"><path fill="#0097b2" d="M 25.121094 21.820312 C 25.683594 22.011719 26.195312 22.304688 26.632812 22.699219 L 27.722656 22.339844 C 27.863281 22.296875 28.015625 22.363281 28.082031 22.492188 L 28.949219 24 C 29.023438 24.117188 28.996094 24.269531 28.890625 24.363281 L 28.039062 25.125 C 28.097656 25.410156 28.125 25.703125 28.125 26 C 28.125 26.292969 28.097656 26.585938 28.039062 26.878906 L 28.890625 27.636719 C 29 27.742188 29.023438 27.902344 28.9375 28.023438 L 28.066406 29.53125 C 27.992188 29.65625 27.855469 29.707031 27.722656 29.664062 L 26.632812 29.304688 C 26.195312 29.691406 25.683594 29.992188 25.121094 30.179688 L 24.886719 31.300781 C 24.859375 31.4375 24.742188 31.53125 24.601562 31.53125 L 22.839844 31.53125 C 22.695312 31.53125 22.570312 31.421875 22.550781 31.277344 L 22.324219 30.179688 C 21.761719 29.992188 21.25 29.699219 20.808594 29.304688 L 19.730469 29.664062 C 19.582031 29.707031 19.429688 29.640625 19.371094 29.507812 L 18.5 28.003906 C 18.433594 27.878906 18.457031 27.734375 18.558594 27.636719 L 19.40625 26.878906 C 19.347656 26.585938 19.320312 26.292969 19.320312 26 C 19.320312 25.707031 19.347656 25.417969 19.40625 25.125 L 18.558594 24.363281 C 18.449219 24.269531 18.429688 24.109375 18.507812 23.984375 L 19.386719 22.472656 C 19.457031 22.347656 19.597656 22.296875 19.730469 22.339844 L 20.808594 22.699219 C 21.25 22.3125 21.761719 22.011719 22.324219 21.820312 L 22.554688 20.703125 C 22.585938 20.5625 22.710938 20.46875 22.839844 20.46875 L 24.609375 20.46875 C 24.757812 20.46875 24.878906 20.578125 24.902344 20.726562 Z M 25.632812 22.691406 C 25.378906 22.542969 25.101562 22.421875 24.808594 22.339844 C 24.703125 22.3125 24.617188 22.230469 24.589844 22.113281 L 24.367188 21.0625 L 23.074219 21.0625 L 22.855469 22.113281 C 22.835938 22.214844 22.761719 22.304688 22.652344 22.332031 C 22.109375 22.492188 21.480469 22.828125 21.09375 23.222656 C 21.023438 23.304688 20.898438 23.339844 20.789062 23.304688 L 19.765625 22.96875 L 19.121094 24.085938 L 19.917969 24.800781 C 20 24.867188 20.035156 24.976562 20.007812 25.085938 C 19.933594 25.386719 19.898438 25.695312 19.898438 25.992188 C 19.898438 26.292969 19.933594 26.59375 20 26.886719 C 20.035156 26.988281 20.007812 27.113281 19.910156 27.191406 L 19.109375 27.910156 L 19.75 29.027344 L 20.773438 28.691406 C 20.875 28.660156 20.984375 28.683594 21.066406 28.757812 C 21.476562 29.152344 22.066406 29.507812 22.621094 29.664062 C 22.726562 29.691406 22.820312 29.773438 22.839844 29.890625 L 23.0625 30.941406 L 24.355469 30.941406 L 24.574219 29.890625 C 24.59375 29.785156 24.667969 29.699219 24.777344 29.667969 C 25.320312 29.507812 25.949219 29.171875 26.335938 28.777344 C 26.40625 28.699219 26.53125 28.660156 26.640625 28.699219 L 27.664062 29.035156 L 28.308594 27.914062 L 27.503906 27.199219 C 27.421875 27.132812 27.386719 27.023438 27.417969 26.914062 C 27.488281 26.613281 27.527344 26.316406 27.527344 26.007812 C 27.527344 25.707031 27.488281 25.410156 27.421875 25.117188 C 27.386719 25.015625 27.417969 24.890625 27.511719 24.808594 L 28.316406 24.09375 L 27.671875 22.976562 L 26.648438 23.3125 C 26.546875 23.347656 26.4375 23.320312 26.355469 23.246094 C 26.144531 23.027344 25.894531 22.84375 25.632812 22.691406 Z M 23.71875 23.445312 C 25.128906 23.445312 26.269531 24.582031 26.269531 25.992188 C 26.269531 27.402344 25.128906 28.542969 23.71875 28.542969 C 22.308594 28.542969 21.167969 27.402344 21.167969 25.992188 C 21.167969 24.589844 22.316406 23.445312 23.71875 23.445312 Z M 25.113281 24.605469 C 23.878906 23.371094 21.753906 24.246094 21.753906 25.992188 C 21.753906 27.742188 23.878906 28.625 25.113281 27.382812 C 25.882812 26.621094 25.882812 25.371094 25.113281 24.605469 Z M 23.71875 18.210938 C 23.929688 18.210938 24.140625 18.21875 24.347656 18.234375 L 24.347656 16.128906 L 22.863281 17.613281 C 22.746094 17.730469 22.5625 17.730469 22.453125 17.613281 L 21.921875 17.078125 L 21.921875 18.414062 C 22.5 18.285156 23.105469 18.210938 23.71875 18.210938 Z M 24.9375 18.304688 C 26.121094 18.496094 27.210938 18.941406 28.152344 19.59375 L 28.152344 12.328125 L 24.9375 15.542969 Z M 28.738281 20.039062 C 32.230469 22.984375 32.457031 28.273438 29.226562 31.503906 C 26.1875 34.542969 21.253906 34.542969 18.214844 31.503906 C 17.550781 30.839844 17.011719 30.058594 16.617188 29.195312 C 15.367188 31.964844 12.609375 33.785156 9.511719 33.785156 C 5.207031 33.789062 1.722656 30.296875 1.722656 26 C 1.722656 24.519531 2.140625 23.128906 2.855469 21.953125 L 1.941406 21.03125 C 1.824219 20.914062 1.824219 20.730469 1.941406 20.621094 L 3.609375 18.957031 C 3.726562 18.839844 3.90625 18.839844 4.015625 18.957031 L 4.828125 19.769531 C 5.816406 19.03125 6.976562 18.519531 8.25 18.304688 L 8.25 17.445312 C 7.691406 17.445312 7.261719 17.496094 6.816406 17.058594 C 5.984375 16.222656 6.589844 14.8125 7.746094 14.8125 L 11.257812 14.8125 C 11.542969 14.8125 11.816406 14.910156 12.035156 15.070312 L 18.40625 8.695312 C 18.523438 8.578125 18.707031 8.578125 18.824219 8.695312 L 22.660156 12.535156 L 28.804688 6.386719 L 27.5625 5.136719 C 27.410156 4.984375 27.460938 4.707031 27.714844 4.648438 L 34.824219 2.660156 C 35.046875 2.601562 35.25 2.800781 35.183594 3.027344 L 33.1875 10.152344 C 33.128906 10.371094 32.859375 10.4375 32.699219 10.28125 L 31.449219 9.03125 L 28.738281 11.742188 Z M 16.308594 28.398438 C 16.058594 27.644531 15.929688 26.835938 15.929688 25.992188 C 15.929688 25.152344 16.058594 24.351562 16.308594 23.589844 C 16.117188 23.054688 15.871094 22.542969 15.5625 22.078125 C 15.554688 22.070312 15.546875 22.054688 15.542969 22.039062 C 15.132812 21.410156 14.621094 20.847656 14.035156 20.382812 C 13.566406 20.015625 13.179688 19.753906 12.625 19.488281 C 9.847656 18.160156 6.566406 18.753906 4.417969 20.894531 C 1.605469 23.707031 1.605469 28.265625 4.417969 31.078125 C 6.910156 33.570312 10.84375 33.902344 13.707031 31.847656 C 14.898438 31.007812 15.8125 29.800781 16.308594 28.398438 Z M 16.617188 22.800781 C 16.863281 22.253906 17.171875 21.734375 17.535156 21.265625 L 17.535156 14.871094 L 15.101562 17.304688 L 15.101562 18.898438 C 15.207031 18.863281 15.328125 18.882812 15.410156 18.964844 L 17.074219 20.628906 C 17.191406 20.746094 17.191406 20.929688 17.074219 21.039062 L 16.164062 21.953125 C 16.335938 22.222656 16.484375 22.507812 16.617188 22.800781 Z M 18.121094 20.585938 C 19.003906 19.671875 20.101562 18.980469 21.335938 18.585938 L 21.335938 16.5 L 18.617188 13.78125 L 18.113281 14.289062 L 18.113281 20.585938 Z M 28.820312 20.90625 L 28.257812 20.394531 C 27.242188 19.570312 25.992188 19.023438 24.625 18.855469 C 23.519531 18.738281 22.78125 18.796875 21.703125 19.089844 C 20.523438 19.433594 19.472656 20.066406 18.632812 20.90625 C 15.828125 23.714844 15.8125 28.273438 18.632812 31.09375 C 21.445312 33.90625 26.003906 33.90625 28.820312 31.09375 C 31.632812 28.28125 31.632812 23.714844 28.820312 20.90625 Z M 9.804688 24.589844 C 10.667969 24.765625 11.179688 25.6875 10.855469 26.519531 L 11.761719 27.105469 C 12.085938 27.308594 11.769531 27.804688 11.449219 27.59375 L 10.542969 27.007812 C 9.628906 27.929688 8.074219 27.28125 8.074219 26 C 8.074219 25.3125 8.5625 24.730469 9.21875 24.589844 L 9.21875 22.710938 C 9.21875 22.332031 9.804688 22.332031 9.804688 22.710938 Z M 10.121094 25.394531 C 9.585938 24.859375 8.65625 25.242188 8.65625 26 C 8.65625 26.761719 9.578125 27.140625 10.121094 26.609375 C 10.449219 26.273438 10.449219 25.722656 10.121094 25.394531 Z M 9.21875 21.339844 C 9.21875 20.953125 9.804688 20.953125 9.804688 21.339844 L 9.804688 21.695312 C 9.804688 22.078125 9.21875 22.078125 9.21875 21.695312 Z M 13.691406 28.078125 C 14.019531 28.265625 13.730469 28.777344 13.398438 28.582031 L 13.085938 28.398438 C 12.757812 28.207031 13.042969 27.703125 13.378906 27.894531 Z M 14.167969 25.707031 C 14.546875 25.707031 14.546875 26.292969 14.167969 26.292969 L 13.808594 26.292969 C 13.421875 26.292969 13.421875 25.707031 13.808594 25.707031 Z M 13.398438 23.414062 C 13.730469 23.222656 14.019531 23.726562 13.691406 23.917969 L 13.378906 24.09375 C 13.042969 24.285156 12.757812 23.78125 13.085938 23.589844 Z M 6.933594 22.113281 C 6.742188 21.785156 7.246094 21.492188 7.4375 21.820312 L 7.613281 22.136719 C 7.800781 22.464844 7.296875 22.757812 7.109375 22.429688 Z M 5.332031 23.925781 C 4.996094 23.734375 5.289062 23.230469 5.625 23.421875 L 5.9375 23.605469 C 6.269531 23.792969 5.984375 24.296875 5.648438 24.109375 Z M 4.859375 26.292969 C 4.46875 26.292969 4.46875 25.707031 4.859375 25.707031 L 5.214844 25.707031 C 5.601562 25.707031 5.601562 26.292969 5.214844 26.292969 Z M 5.625 28.582031 C 5.296875 28.769531 5.003906 28.265625 5.332031 28.078125 L 5.648438 27.902344 C 5.976562 27.710938 6.269531 28.214844 5.9375 28.40625 Z M 7.4375 30.171875 C 7.246094 30.511719 6.734375 30.21875 6.933594 29.882812 L 7.109375 29.566406 C 7.296875 29.238281 7.808594 29.53125 7.613281 29.859375 Z M 9.804688 30.65625 C 9.804688 31.042969 9.21875 31.042969 9.21875 30.65625 L 9.21875 30.296875 C 9.21875 29.910156 9.804688 29.910156 9.804688 30.296875 Z M 12.09375 29.882812 C 12.28125 30.21875 11.777344 30.511719 11.589844 30.171875 L 11.40625 29.859375 C 11.214844 29.53125 11.71875 29.238281 11.910156 29.566406 Z M 11.589844 21.820312 C 11.777344 21.484375 12.28125 21.777344 12.09375 22.113281 L 11.917969 22.429688 C 11.726562 22.757812 11.214844 22.464844 11.414062 22.136719 Z M 9.511719 20.097656 C 12.773438 20.097656 15.410156 22.734375 15.410156 25.992188 C 15.410156 29.253906 12.773438 31.890625 9.511719 31.890625 C 6.253906 31.890625 3.617188 29.253906 3.617188 25.992188 C 3.617188 22.742188 6.253906 20.097656 9.511719 20.097656 Z M 13.269531 22.238281 C 11.191406 20.164062 7.824219 20.164062 5.75 22.238281 C 3.675781 24.3125 3.675781 27.675781 5.75 29.75 C 7.824219 31.824219 11.191406 31.824219 13.269531 29.75 C 15.34375 27.683594 15.34375 24.3125 13.269531 22.238281 Z M 3.183594 21.457031 C 3.535156 20.972656 3.9375 20.535156 4.382812 20.140625 L 3.820312 19.578125 L 2.5625 20.835938 Z M 8.839844 18.234375 C 9.285156 18.195312 9.730469 18.195312 10.183594 18.234375 L 10.183594 17.445312 L 8.839844 17.445312 Z M 10.769531 18.304688 C 11.441406 18.414062 12.085938 18.613281 12.691406 18.882812 L 18.414062 13.160156 C 18.53125 13.042969 18.710938 13.042969 18.828125 13.160156 L 22.667969 17 L 31.246094 8.410156 C 31.363281 8.296875 31.542969 8.296875 31.660156 8.410156 L 32.765625 9.515625 L 34.484375 3.363281 L 28.328125 5.085938 L 29.433594 6.191406 C 29.550781 6.308594 29.550781 6.488281 29.433594 6.605469 L 22.878906 13.160156 C 22.761719 13.277344 22.578125 13.277344 22.46875 13.160156 L 18.632812 9.324219 L 12.429688 15.515625 C 12.902344 16.382812 12.261719 17.453125 11.273438 17.453125 L 10.769531 17.453125 Z M 13.246094 19.160156 C 13.574219 19.34375 13.890625 19.542969 14.1875 19.769531 L 14.527344 19.433594 L 14.527344 17.882812 Z M 14.640625 20.140625 C 15.089844 20.535156 15.488281 20.972656 15.839844 21.457031 L 16.460938 20.835938 L 15.207031 19.578125 Z M 11.273438 15.40625 L 7.757812 15.40625 C 7.117188 15.40625 6.78125 16.1875 7.238281 16.648438 C 7.371094 16.777344 7.554688 16.859375 7.757812 16.859375 L 11.273438 16.859375 C 11.917969 16.859375 12.253906 16.078125 11.792969 15.617188 C 11.652344 15.484375 11.472656 15.40625 11.273438 15.40625 Z M 11.273438 15.40625 " fill-opacity="1" fill-rule="nonzero"/></g></svg>