<svg xmlns="http://www.w3.org/2000/svg" xmlns:xlink="http://www.w3.org/1999/xlink" width="50" zoomAndPan="magnify" viewBox="0 0 37.5 37.499999" height="50" preserveAspectRatio="xMidYMid meet" version="1.0"><defs><clipPath id="f728b606a7"><path d="M 29 1.386719 L 35.976562 1.386719 L 35.976562 13 L 29 13 Z M 29 1.386719 " clip-rule="nonzero"/></clipPath><clipPath id="2cc2fdf1d6"><path d="M 1.1875 24 L 8 24 L 8 35.429688 L 1.1875 35.429688 Z M 1.1875 24 " clip-rule="nonzero"/></clipPath></defs><path fill="#000000" d="M 7.050781 23.253906 C 7.503906 23.683594 8.53125 24.46875 9.273438 24.46875 C 9.902344 24.46875 9.824219 23.636719 9.289062 23.683594 C 8.742188 23.75 7.148438 22.441406 7.09375 22.042969 C 7.113281 21.640625 7.285156 21.210938 7.429688 20.75 C 7.867188 19.328125 7.34375 18.339844 5.914062 17.894531 C 4.523438 17.460938 4.523438 17.460938 4.394531 16.007812 C 4.375 15.777344 4.300781 15.488281 4.339844 15.371094 C 4.441406 15.066406 4.601562 14.796875 4.78125 14.625 C 5.132812 14.289062 6.496094 14.054688 6.859375 12.878906 C 7.140625 11.972656 6.511719 11.023438 6.484375 10.945312 C 5.746094 9.574219 5.960938 9.832031 7.234375 8.242188 C 7.480469 7.9375 7.722656 7.863281 8.085938 7.988281 C 8.296875 8.0625 8.46875 8.113281 9.066406 8.296875 C 9.730469 8.503906 10.3125 8.484375 10.792969 8.230469 C 11.652344 7.78125 11.863281 6.679688 11.90625 6.589844 C 12.273438 5.375 12.273438 5.375 13.6875 5.269531 C 15.015625 5.15625 14.839844 5.050781 15.542969 6.410156 C 15.59375 6.460938 16.421875 8.605469 18.613281 7.449219 C 19.960938 6.734375 19.898438 6.6875 21.011719 7.640625 C 22.121094 8.566406 21.972656 8.347656 21.515625 9.785156 C 21.054688 11.25 21.566406 12.226562 23.039062 12.6875 C 24.402344 13.121094 24.402344 13.121094 24.527344 14.535156 C 24.644531 15.847656 24.722656 15.664062 23.382812 16.355469 C 22.007812 17.066406 21.660156 18.144531 22.390625 19.527344 C 23.09375 20.855469 23.050781 20.730469 21.8125 22.195312 C 21.378906 22.707031 21.304688 22.730469 20.640625 22.519531 C 20.429688 22.453125 20.210938 22.570312 20.144531 22.777344 C 20.078125 22.984375 20.195312 23.207031 20.402344 23.273438 C 21.363281 23.574219 21.78125 23.457031 22.417969 22.703125 L 22.765625 22.292969 C 23.914062 20.929688 23.933594 20.753906 23.089844 19.15625 C 22.566406 18.164062 22.769531 17.558594 23.746094 17.054688 C 24.03125 16.90625 24.320312 16.757812 24.605469 16.605469 C 25.746094 16 25.28125 14.816406 25.3125 14.464844 C 25.152344 12.636719 25.039062 12.492188 23.277344 11.9375 C 20.601562 11.09375 23.746094 9.011719 22.160156 7.578125 C 22.070312 7.5 21.582031 7.085938 21.527344 7.042969 C 20.140625 5.859375 19.96875 5.835938 18.46875 6.632812 L 18.242188 6.753906 C 16.746094 7.546875 16.390625 6.289062 15.796875 5.191406 C 15.277344 4.234375 14.425781 4.414062 13.628906 4.484375 C 11.78125 4.621094 11.644531 4.726562 11.148438 6.363281 C 11.0625 6.492188 10.921875 8.054688 9.304688 7.546875 C 8.894531 7.417969 8.59375 7.328125 8.34375 7.242188 C 7.664062 7.011719 7.070312 7.1875 6.617188 7.75 C 6.511719 7.882812 6.410156 8 6.152344 8.296875 C 4.996094 9.640625 4.976562 9.8125 5.785156 11.320312 C 5.8125 11.386719 6.273438 12.09375 6.105469 12.644531 C 6.007812 12.957031 5.722656 13.238281 5.257812 13.476562 C 4.742188 13.746094 3.996094 13.882812 3.585938 15.125 C 3.476562 15.46875 3.582031 15.8125 3.605469 16.074219 C 3.769531 17.941406 3.886719 18.085938 5.675781 18.644531 C 6.683594 18.960938 6.980469 19.519531 6.671875 20.519531 C 6.25 21.875 5.988281 22.242188 7.050781 23.253906 Z M 7.050781 23.253906 " fill-opacity="1" fill-rule="nonzero"/><path fill="#000000" d="M 10.242188 20.546875 C 10.316406 20.609375 10.40625 20.640625 10.5 20.640625 C 10.867188 20.640625 11.03125 20.179688 10.753906 19.945312 C 6.871094 16.667969 9.101562 10.503906 13.964844 10.152344 C 18.871094 9.792969 21.867188 15.546875 18.617188 19.328125 C 18.476562 19.492188 18.496094 19.742188 18.660156 19.882812 C 18.824219 20.023438 19.078125 20.007812 19.21875 19.839844 C 21.503906 17.183594 21.199219 13.167969 18.542969 10.890625 C 15.851562 8.582031 11.835938 8.90625 9.558594 11.546875 C 7.191406 14.285156 7.554688 18.277344 10.242188 20.546875 Z M 10.242188 20.546875 " fill-opacity="1" fill-rule="nonzero"/><path fill="#000000" d="M 29.101562 13.738281 L 28.699219 13.386719 C 27.945312 12.742188 27.519531 12.6875 26.617188 13.136719 C 26.421875 13.234375 26.34375 13.472656 26.441406 13.667969 C 26.539062 13.863281 26.773438 13.941406 26.96875 13.84375 C 27.789062 13.433594 27.703125 13.625 28.585938 14.332031 C 29.617188 15.222656 29.617188 15.222656 29.171875 16.527344 C 28.667969 18.003906 29.175781 19.015625 30.648438 19.503906 C 32.027344 19.960938 31.980469 19.832031 32.050781 20.929688 C 32.167969 22.554688 32.210938 22.519531 30.886719 23.179688 C 29.507812 23.867188 29.15625 24.910156 29.84375 26.285156 C 30.445312 27.484375 30.597656 27.4375 29.957031 28.164062 C 28.777344 29.542969 28.875 29.570312 27.589844 29.128906 C 27.511719 29.128906 25.296875 28.054688 24.507812 30.449219 C 24.398438 30.785156 24.289062 31.121094 24.167969 31.453125 C 24.007812 31.917969 23.6875 31.90625 23.203125 31.941406 C 21.3125 32.101562 21.449219 32.167969 20.738281 30.707031 C 19.640625 28.460938 17.59375 29.824219 17.507812 29.835938 C 17.292969 29.941406 17.074219 30.046875 16.859375 30.160156 C 16.53125 30.335938 16.265625 30.300781 15.980469 30.042969 C 14.398438 28.601562 14.289062 28.988281 14.882812 27.285156 C 15.375 25.867188 14.882812 24.8125 13.121094 24.335938 C 12.902344 24.273438 12.691406 24.21875 12.550781 24.121094 C 12.347656 23.980469 12.144531 23.738281 12 23.453125 C 11.941406 23.347656 11.96875 23.042969 11.953125 22.816406 C 11.847656 21.363281 11.847656 21.363281 13.15625 20.71875 C 14.496094 20.054688 14.859375 18.996094 14.199219 17.65625 C 13.988281 17.230469 13.75 16.828125 13.667969 16.445312 C 13.65625 16.046875 14.929688 14.621094 15.511719 14.480469 C 15.898438 14.617188 16.378906 14.8125 16.902344 14.914062 C 17.117188 14.953125 17.324219 14.820312 17.367188 14.605469 C 17.40625 14.390625 17.269531 14.183594 17.054688 14.140625 C 16.695312 14.074219 16.339844 13.941406 16.027344 13.828125 C 15.699219 13.710938 15.628906 13.679688 15.523438 13.6875 C 14.5625 13.75 12.707031 15.703125 12.894531 16.59375 C 13.148438 17.835938 14.691406 19.078125 12.800781 20.011719 C 11.121094 20.84375 11.03125 21.003906 11.164062 22.871094 C 11.183594 23.140625 11.132812 23.496094 11.296875 23.816406 C 11.503906 24.21875 11.789062 24.558594 12.101562 24.769531 C 12.816406 25.261719 14.800781 25.113281 14.136719 27.027344 L 14.066406 27.230469 C 13.503906 28.847656 13.550781 29.011719 14.90625 30.15625 C 15.210938 30.414062 15.335938 30.519531 15.449219 30.625 C 15.984375 31.109375 16.601562 31.191406 17.230469 30.855469 C 17.425781 30.753906 17.582031 30.675781 18.132812 30.40625 C 18.996094 29.976562 19.605469 30.183594 20.027344 31.050781 L 20.140625 31.285156 C 20.890625 32.828125 21.046875 32.90625 22.886719 32.753906 C 22.941406 32.75 23.554688 32.707031 23.671875 32.695312 C 24.273438 32.632812 24.714844 32.285156 24.917969 31.714844 C 25.035156 31.375 25.148438 31.035156 25.261719 30.695312 C 25.566406 29.757812 26.144531 29.46875 27.089844 29.789062 L 27.332031 29.875 C 28.9375 30.425781 29.105469 30.375 30.285156 28.992188 C 30.332031 28.9375 30.75 28.460938 30.824219 28.363281 C 31.519531 27.507812 30.992188 26.816406 30.550781 25.933594 C 30.0625 24.949219 30.253906 24.375 31.242188 23.882812 C 32.894531 23.058594 32.984375 22.902344 32.855469 21.066406 C 32.835938 20.769531 32.820312 20.539062 32.796875 20.308594 C 32.734375 19.695312 32.394531 19.265625 31.820312 19.066406 C 30.441406 18.585938 29.359375 18.429688 29.917969 16.78125 C 30.5 15.074219 30.453125 14.902344 29.101562 13.738281 Z M 29.101562 13.738281 " fill-opacity="1" fill-rule="nonzero"/><path fill="#000000" d="M 22.078125 27.523438 C 17.191406 27.59375 14.441406 21.648438 18.015625 18.050781 C 18.167969 17.894531 18.167969 17.644531 18.011719 17.492188 C 17.855469 17.339844 17.605469 17.339844 17.453125 17.496094 C 13.386719 21.589844 16.5 28.398438 22.089844 28.3125 C 23.792969 28.285156 25.382812 27.601562 26.574219 26.382812 C 29.019531 23.882812 28.964844 19.855469 26.453125 17.410156 C 26.300781 17.257812 26.046875 17.261719 25.894531 17.417969 C 25.742188 17.570312 25.746094 17.820312 25.902344 17.972656 C 29.464844 21.449219 27.007812 27.449219 22.078125 27.523438 Z M 22.078125 27.523438 " fill-opacity="1" fill-rule="nonzero"/><g clip-path="url(#f728b606a7)"><path fill="#000000" d="M 32.863281 1.628906 C 32.71875 1.398438 32.335938 1.398438 32.191406 1.628906 L 29.285156 6.277344 C 29.121094 6.542969 29.308594 6.882812 29.621094 6.882812 L 30.796875 6.882812 L 30.796875 12.269531 C 30.796875 12.484375 30.972656 12.660156 31.191406 12.660156 C 31.410156 12.660156 31.585938 12.484375 31.585938 12.269531 L 31.585938 6.882812 L 33.472656 6.882812 L 33.472656 12.269531 C 33.472656 12.484375 33.648438 12.660156 33.867188 12.660156 C 34.085938 12.660156 34.261719 12.484375 34.261719 12.269531 L 34.261719 6.882812 L 35.4375 6.882812 C 35.746094 6.882812 35.9375 6.542969 35.773438 6.277344 Z M 30.332031 6.09375 L 32.527344 2.582031 L 34.722656 6.09375 Z M 30.332031 6.09375 " fill-opacity="1" fill-rule="nonzero"/></g><g clip-path="url(#2cc2fdf1d6)"><path fill="#000000" d="M 2.851562 35.070312 C 2.851562 35.289062 3.03125 35.464844 3.25 35.464844 C 3.46875 35.464844 3.644531 35.289062 3.644531 35.070312 L 3.644531 29.6875 L 5.523438 29.6875 L 5.523438 35.070312 C 5.523438 35.289062 5.699219 35.464844 5.917969 35.464844 C 6.136719 35.464844 6.3125 35.289062 6.3125 35.070312 L 6.3125 29.6875 L 7.492188 29.6875 C 7.800781 29.6875 7.992188 29.347656 7.828125 29.082031 L 4.917969 24.433594 C 4.765625 24.1875 4.402344 24.1875 4.246094 24.433594 L 1.339844 29.082031 C 1.175781 29.347656 1.363281 29.6875 1.675781 29.6875 L 2.851562 29.6875 Z M 4.582031 25.386719 L 6.777344 28.898438 C 6.652344 28.898438 2.136719 28.898438 2.386719 28.898438 Z M 4.582031 25.386719 " fill-opacity="1" fill-rule="nonzero"/></g></svg>