<svg xmlns="http://www.w3.org/2000/svg" xmlns:xlink="http://www.w3.org/1999/xlink" width="50" zoomAndPan="magnify" viewBox="0 0 37.5 37.499999" height="50" preserveAspectRatio="xMidYMid meet" version="1.0"><defs><clipPath id="d7fa3be21e"><path d="M 33 1.863281 L 35.222656 1.863281 L 35.222656 9 L 33 9 Z M 33 1.863281 " clip-rule="nonzero"/></clipPath><clipPath id="701953976c"><path d="M 26 1.863281 L 35.222656 1.863281 L 35.222656 11 L 26 11 Z M 26 1.863281 " clip-rule="nonzero"/></clipPath><clipPath id="4e5e42788c"><path d="M 1.917969 26 L 11 26 L 11 35.171875 L 1.917969 35.171875 Z M 1.917969 26 " clip-rule="nonzero"/></clipPath><clipPath id="eeb60341d8"><path d="M 1.917969 29 L 9 29 L 9 35.171875 L 1.917969 35.171875 Z M 1.917969 29 " clip-rule="nonzero"/></clipPath><clipPath id="cee6ad2064"><path d="M 1.917969 1.863281 L 9 1.863281 L 9 4 L 1.917969 4 Z M 1.917969 1.863281 " clip-rule="nonzero"/></clipPath><clipPath id="09dbd93558"><path d="M 1.917969 1.863281 L 11 1.863281 L 11 11 L 1.917969 11 Z M 1.917969 1.863281 " clip-rule="nonzero"/></clipPath><clipPath id="26a0fd3b14"><path d="M 26 26 L 35.222656 26 L 35.222656 35.171875 L 26 35.171875 Z M 26 26 " clip-rule="nonzero"/></clipPath><clipPath id="8eb86a5f31"><path d="M 29 28 L 35.222656 28 L 35.222656 35.171875 L 29 35.171875 Z M 29 28 " clip-rule="nonzero"/></clipPath></defs><path fill="#ff5757" d="M 19.902344 27.644531 L 17.171875 27.644531 C 16.832031 27.644531 16.5625 27.371094 16.5625 27.035156 L 16.5625 25.8125 C 15.929688 25.640625 15.320312 25.390625 14.753906 25.0625 L 13.886719 25.925781 C 13.773438 26.042969 13.621094 26.105469 13.457031 26.105469 C 13.292969 26.105469 13.140625 26.042969 13.027344 25.925781 L 11.089844 23.992188 C 10.976562 23.878906 10.914062 23.726562 10.914062 23.5625 C 10.914062 23.398438 10.976562 23.246094 11.089844 23.132812 L 11.957031 22.265625 C 11.664062 21.757812 11.433594 21.21875 11.265625 20.664062 C 11.246094 20.597656 11.226562 20.527344 11.207031 20.457031 L 9.984375 20.457031 C 9.648438 20.457031 9.375 20.183594 9.375 19.847656 L 9.375 17.113281 C 9.375 16.777344 9.648438 16.503906 9.984375 16.503906 L 11.207031 16.503906 C 11.375 15.875 11.628906 15.265625 11.957031 14.699219 L 11.089844 13.832031 C 10.976562 13.71875 10.914062 13.5625 10.914062 13.402344 C 10.914062 13.238281 10.976562 13.085938 11.089844 12.96875 L 13.023438 11.035156 C 13.140625 10.921875 13.292969 10.859375 13.457031 10.859375 C 13.621094 10.859375 13.773438 10.921875 13.886719 11.035156 L 14.753906 11.902344 C 15.320312 11.574219 15.929688 11.320312 16.558594 11.152344 L 16.558594 9.929688 C 16.558594 9.59375 16.832031 9.320312 17.171875 9.320312 L 19.902344 9.320312 C 20.238281 9.320312 20.511719 9.59375 20.511719 9.929688 L 20.511719 11.152344 C 21.144531 11.320312 21.75 11.574219 22.320312 11.902344 L 23.1875 11.035156 C 23.421875 10.800781 23.808594 10.800781 24.046875 11.035156 L 25.980469 12.96875 C 26.097656 13.085938 26.160156 13.238281 26.160156 13.402344 C 26.160156 13.5625 26.097656 13.71875 25.980469 13.832031 L 25.117188 14.695312 C 25.445312 15.265625 25.695312 15.875 25.867188 16.503906 L 27.089844 16.503906 C 27.425781 16.503906 27.699219 16.777344 27.699219 17.113281 L 27.699219 19.847656 C 27.699219 20.183594 27.425781 20.457031 27.089844 20.457031 L 25.867188 20.457031 C 25.695312 21.089844 25.445312 21.695312 25.117188 22.265625 L 25.980469 23.132812 C 26.097656 23.246094 26.160156 23.398438 26.160156 23.5625 C 26.160156 23.726562 26.097656 23.878906 25.980469 23.992188 L 24.046875 25.925781 C 23.933594 26.042969 23.78125 26.105469 23.617188 26.105469 C 23.453125 26.105469 23.300781 26.042969 23.1875 25.925781 L 22.320312 25.0625 C 21.75 25.390625 21.144531 25.640625 20.511719 25.8125 L 20.511719 27.035156 C 20.511719 27.371094 20.238281 27.644531 19.902344 27.644531 Z M 17.320312 26.882812 L 19.753906 26.882812 L 19.753906 25.695312 C 19.753906 25.417969 19.945312 25.171875 20.214844 25.105469 C 20.851562 24.945312 21.464844 24.691406 22.03125 24.351562 C 22.273438 24.207031 22.578125 24.246094 22.777344 24.441406 L 23.617188 25.285156 L 25.339844 23.5625 L 24.496094 22.722656 C 24.300781 22.523438 24.261719 22.21875 24.40625 21.976562 C 24.746094 21.410156 25 20.796875 25.160156 20.160156 C 25.226562 19.890625 25.472656 19.699219 25.75 19.699219 L 26.9375 19.699219 L 26.9375 17.265625 L 25.75 17.265625 C 25.472656 17.265625 25.226562 17.074219 25.160156 16.800781 C 25 16.164062 24.746094 15.554688 24.40625 14.988281 C 24.261719 14.746094 24.300781 14.441406 24.496094 14.242188 L 25.339844 13.402344 L 23.617188 11.679688 L 22.777344 12.519531 C 22.578125 12.71875 22.273438 12.757812 22.03125 12.613281 C 21.464844 12.273438 20.851562 12.019531 20.214844 11.859375 C 19.945312 11.789062 19.753906 11.546875 19.753906 11.269531 L 19.753906 10.078125 L 17.320312 10.078125 L 17.320312 11.269531 C 17.320312 11.546875 17.128906 11.789062 16.855469 11.859375 C 16.222656 12.019531 15.609375 12.273438 15.042969 12.613281 C 14.800781 12.757812 14.496094 12.71875 14.296875 12.519531 L 13.457031 11.679688 L 11.734375 13.402344 L 12.578125 14.242188 C 12.773438 14.441406 12.8125 14.746094 12.667969 14.988281 C 12.328125 15.554688 12.074219 16.167969 11.914062 16.800781 C 11.84375 17.074219 11.601562 17.265625 11.324219 17.265625 L 10.132812 17.265625 L 10.132812 19.699219 L 11.324219 19.699219 C 11.601562 19.699219 11.84375 19.886719 11.914062 20.15625 C 11.9375 20.253906 11.964844 20.351562 11.992188 20.445312 C 12.152344 20.980469 12.378906 21.492188 12.667969 21.976562 C 12.8125 22.21875 12.773438 22.523438 12.578125 22.722656 L 11.734375 23.5625 L 13.457031 25.285156 L 14.296875 24.441406 C 14.496094 24.246094 14.800781 24.207031 15.042969 24.351562 C 15.609375 24.691406 16.222656 24.945312 16.855469 25.105469 C 17.128906 25.171875 17.320312 25.417969 17.320312 25.695312 Z M 25.445312 23.667969 Z M 25.445312 23.667969 " fill-opacity="1" fill-rule="nonzero"/><path fill="#ff5757" d="M 18.535156 23.417969 C 15.816406 23.417969 13.601562 21.203125 13.601562 18.480469 C 13.601562 15.761719 15.816406 13.546875 18.535156 13.546875 C 21.257812 13.546875 23.472656 15.761719 23.472656 18.480469 C 23.472656 21.203125 21.257812 23.417969 18.535156 23.417969 Z M 18.535156 14.304688 C 16.234375 14.304688 14.359375 16.179688 14.359375 18.480469 C 14.359375 20.785156 16.234375 22.65625 18.535156 22.65625 C 20.839844 22.65625 22.710938 20.785156 22.710938 18.480469 C 22.710938 16.179688 20.839844 14.304688 18.535156 14.304688 Z M 18.535156 14.304688 " fill-opacity="1" fill-rule="nonzero"/><g clip-path="url(#d7fa3be21e)"><path fill="#ff5757" d="M 34.328125 8.015625 C 34.320312 8.015625 34.308594 8.015625 34.300781 8.015625 C 34.089844 8 33.933594 7.816406 33.949219 7.609375 L 34.359375 2.253906 C 34.375 2.042969 34.558594 1.886719 34.765625 1.902344 C 34.976562 1.917969 35.132812 2.101562 35.117188 2.308594 L 34.707031 7.664062 C 34.691406 7.863281 34.527344 8.015625 34.328125 8.015625 Z M 34.328125 8.015625 " fill-opacity="1" fill-rule="nonzero"/></g><g clip-path="url(#701953976c)"><path fill="#ff5757" d="M 26.554688 10.84375 C 26.457031 10.84375 26.359375 10.808594 26.285156 10.734375 C 26.136719 10.585938 26.136719 10.34375 26.285156 10.195312 L 33.742188 2.738281 L 29.816406 3.039062 C 29.609375 3.054688 29.425781 2.898438 29.410156 2.6875 C 29.394531 2.480469 29.550781 2.296875 29.757812 2.28125 L 34.707031 1.902344 C 34.867188 1.890625 35.015625 1.976562 35.082031 2.121094 C 35.148438 2.265625 35.117188 2.4375 35.003906 2.550781 L 26.824219 10.734375 C 26.75 10.808594 26.652344 10.84375 26.554688 10.84375 Z M 26.554688 10.84375 " fill-opacity="1" fill-rule="nonzero"/></g><g clip-path="url(#4e5e42788c)"><path fill="#ff5757" d="M 2.335938 35.0625 C 2.238281 35.0625 2.140625 35.023438 2.066406 34.949219 C 1.917969 34.804688 1.917969 34.5625 2.066406 34.414062 L 10.25 26.230469 C 10.398438 26.082031 10.640625 26.082031 10.789062 26.230469 C 10.9375 26.378906 10.9375 26.621094 10.789062 26.769531 L 2.605469 34.949219 C 2.53125 35.023438 2.433594 35.0625 2.335938 35.0625 Z M 2.335938 35.0625 " fill-opacity="1" fill-rule="nonzero"/></g><g clip-path="url(#eeb60341d8)"><path fill="#ff5757" d="M 2.335938 35.0625 C 2.234375 35.0625 2.140625 35.023438 2.066406 34.949219 C 1.988281 34.871094 1.949219 34.765625 1.957031 34.652344 L 2.335938 29.703125 C 2.351562 29.496094 2.535156 29.339844 2.742188 29.355469 C 2.953125 29.371094 3.109375 29.550781 3.09375 29.761719 L 2.75 34.269531 L 7.664062 33.894531 C 7.871094 33.878906 8.054688 34.035156 8.070312 34.246094 C 8.085938 34.453125 7.929688 34.636719 7.722656 34.652344 L 2.363281 35.0625 C 2.355469 35.0625 2.347656 35.0625 2.335938 35.0625 Z M 2.335938 35.0625 " fill-opacity="1" fill-rule="nonzero"/></g><g clip-path="url(#cee6ad2064)"><path fill="#ff5757" d="M 7.691406 3.070312 C 7.683594 3.070312 7.671875 3.070312 7.664062 3.070312 L 2.308594 2.660156 C 2.097656 2.644531 1.941406 2.460938 1.957031 2.253906 C 1.972656 2.042969 2.15625 1.886719 2.363281 1.902344 L 7.722656 2.3125 C 7.929688 2.328125 8.085938 2.507812 8.070312 2.71875 C 8.054688 2.917969 7.890625 3.070312 7.691406 3.070312 Z M 7.691406 3.070312 " fill-opacity="1" fill-rule="nonzero"/></g><g clip-path="url(#09dbd93558)"><path fill="#ff5757" d="M 10.519531 10.84375 C 10.421875 10.84375 10.324219 10.808594 10.25 10.734375 L 2.792969 3.273438 L 3.09375 7.203125 C 3.109375 7.410156 2.953125 7.59375 2.742188 7.609375 C 2.535156 7.625 2.351562 7.46875 2.335938 7.261719 L 1.957031 2.308594 C 1.945312 2.152344 2.035156 2.003906 2.175781 1.9375 C 2.320312 1.871094 2.492188 1.902344 2.605469 2.011719 L 10.789062 10.195312 C 10.9375 10.34375 10.9375 10.585938 10.789062 10.734375 C 10.714844 10.808594 10.617188 10.84375 10.519531 10.84375 Z M 10.519531 10.84375 " fill-opacity="1" fill-rule="nonzero"/></g><g clip-path="url(#26a0fd3b14)"><path fill="#ff5757" d="M 34.738281 35.0625 C 34.640625 35.0625 34.542969 35.023438 34.46875 34.949219 L 26.285156 26.769531 C 26.136719 26.621094 26.136719 26.378906 26.285156 26.230469 C 26.433594 26.082031 26.675781 26.082031 26.824219 26.230469 L 35.003906 34.414062 C 35.152344 34.5625 35.152344 34.804688 35.003906 34.949219 C 34.933594 35.023438 34.835938 35.0625 34.738281 35.0625 Z M 34.738281 35.0625 " fill-opacity="1" fill-rule="nonzero"/></g><g clip-path="url(#8eb86a5f31)"><path fill="#ff5757" d="M 34.738281 35.0625 C 34.726562 35.0625 34.71875 35.0625 34.707031 35.0625 L 29.757812 34.683594 C 29.550781 34.667969 29.394531 34.484375 29.410156 34.277344 C 29.425781 34.066406 29.605469 33.910156 29.816406 33.925781 L 34.324219 34.269531 L 33.949219 29.355469 C 33.933594 29.144531 34.089844 28.964844 34.300781 28.949219 C 34.507812 28.933594 34.691406 29.089844 34.707031 29.296875 L 35.117188 34.652344 C 35.125 34.765625 35.085938 34.871094 35.003906 34.949219 C 34.933594 35.023438 34.835938 35.0625 34.738281 35.0625 Z M 34.738281 35.0625 " fill-opacity="1" fill-rule="nonzero"/></g></svg>