<svg xmlns="http://www.w3.org/2000/svg" xmlns:xlink="http://www.w3.org/1999/xlink" width="50" zoomAndPan="magnify" viewBox="0 0 37.5 37.499999" height="50" preserveAspectRatio="xMidYMid meet" version="1.0"><defs><clipPath id="4266a5e1fb"><path d="M 5.386719 0.535156 L 31.292969 0.535156 L 31.292969 36.804688 L 5.386719 36.804688 Z M 5.386719 0.535156 " clip-rule="nonzero"/></clipPath></defs><g clip-path="url(#4266a5e1fb)"><path fill="#000000" d="M 25.773438 26.371094 L 25.773438 24.472656 C 25.773438 24.234375 25.628906 24.015625 25.40625 23.929688 L 24.542969 23.589844 C 24.410156 23.121094 24.226562 22.667969 23.996094 22.238281 L 24.371094 21.375 C 24.46875 21.152344 24.421875 20.894531 24.253906 20.722656 L 22.941406 19.382812 C 22.773438 19.210938 22.519531 19.164062 22.304688 19.261719 L 21.457031 19.644531 C 21.039062 19.410156 20.597656 19.222656 20.136719 19.085938 L 19.804688 18.203125 C 19.71875 17.980469 19.507812 17.828125 19.269531 17.828125 L 17.414062 17.828125 C 17.179688 17.828125 16.964844 17.980469 16.882812 18.203125 L 16.546875 19.085938 C 16.089844 19.222656 15.648438 19.410156 15.230469 19.644531 L 14.382812 19.261719 C 14.167969 19.164062 13.914062 19.210938 13.746094 19.382812 L 12.433594 20.722656 C 12.265625 20.894531 12.21875 21.152344 12.316406 21.375 L 12.691406 22.238281 C 12.457031 22.667969 12.277344 23.121094 12.144531 23.589844 L 11.28125 23.929688 C 11.058594 24.015625 10.914062 24.230469 10.914062 24.472656 L 10.914062 26.371094 C 10.914062 26.613281 11.058594 26.832031 11.28125 26.917969 L 12.144531 27.257812 C 12.277344 27.726562 12.457031 28.179688 12.691406 28.605469 L 12.316406 29.46875 C 12.21875 29.691406 12.265625 29.949219 12.433594 30.121094 L 13.746094 31.460938 C 13.914062 31.632812 14.167969 31.683594 14.382812 31.582031 L 15.230469 31.199219 C 15.648438 31.4375 16.089844 31.625 16.546875 31.757812 L 16.882812 32.640625 C 16.964844 32.867188 17.179688 33.015625 17.414062 33.015625 L 19.269531 33.015625 C 19.507812 33.015625 19.71875 32.867188 19.804688 32.640625 L 20.136719 31.757812 C 20.597656 31.625 21.039062 31.4375 21.457031 31.199219 L 22.304688 31.582031 C 22.519531 31.683594 22.773438 31.632812 22.941406 31.460938 L 24.253906 30.121094 C 24.421875 29.949219 24.46875 29.691406 24.371094 29.46875 L 23.996094 28.605469 C 24.226562 28.175781 24.410156 27.726562 24.542969 27.257812 L 25.40625 26.917969 C 25.628906 26.832031 25.773438 26.613281 25.773438 26.371094 Z M 24.628906 25.96875 L 23.859375 26.273438 C 23.683594 26.339844 23.550781 26.496094 23.507812 26.683594 C 23.378906 27.242188 23.164062 27.773438 22.867188 28.261719 C 22.769531 28.425781 22.753906 28.632812 22.832031 28.808594 L 23.167969 29.578125 L 22.410156 30.351562 L 21.65625 30.007812 C 21.484375 29.929688 21.285156 29.945312 21.121094 30.046875 C 20.644531 30.347656 20.121094 30.566406 19.578125 30.699219 C 19.394531 30.746094 19.242188 30.878906 19.175781 31.058594 L 18.878906 31.847656 L 17.808594 31.847656 L 17.511719 31.058594 C 17.445312 30.878906 17.292969 30.746094 17.109375 30.699219 C 16.5625 30.566406 16.042969 30.347656 15.5625 30.046875 C 15.402344 29.945312 15.203125 29.929688 15.03125 30.007812 L 14.277344 30.351562 L 13.519531 29.578125 L 13.855469 28.808594 C 13.933594 28.632812 13.917969 28.429688 13.820312 28.261719 C 13.523438 27.773438 13.308594 27.242188 13.179688 26.683594 C 13.136719 26.496094 13.003906 26.339844 12.828125 26.273438 L 12.058594 25.96875 L 12.058594 24.875 L 12.828125 24.574219 C 13.003906 24.503906 13.136719 24.351562 13.179688 24.164062 C 13.308594 23.605469 13.523438 23.074219 13.820312 22.582031 C 13.917969 22.417969 13.933594 22.214844 13.855469 22.039062 L 13.519531 21.269531 L 14.277344 20.496094 L 15.03125 20.835938 C 15.203125 20.914062 15.402344 20.902344 15.5625 20.800781 C 16.042969 20.5 16.5625 20.277344 17.109375 20.144531 C 17.292969 20.101562 17.445312 19.964844 17.511719 19.785156 L 17.808594 19 L 18.878906 19 L 19.175781 19.785156 C 19.242188 19.964844 19.394531 20.101562 19.578125 20.144531 C 20.121094 20.277344 20.644531 20.5 21.121094 20.800781 C 21.285156 20.902344 21.480469 20.914062 21.65625 20.835938 L 22.410156 20.496094 L 23.167969 21.265625 L 22.832031 22.039062 C 22.753906 22.214844 22.769531 22.417969 22.867188 22.582031 C 23.164062 23.074219 23.378906 23.605469 23.507812 24.164062 C 23.550781 24.351562 23.683594 24.503906 23.859375 24.574219 L 24.628906 24.875 Z M 18.34375 21.53125 C 16.242188 21.53125 14.535156 23.277344 14.535156 25.421875 C 14.535156 27.570312 16.242188 29.316406 18.34375 29.316406 C 20.445312 29.316406 22.152344 27.570312 22.152344 25.421875 C 22.152344 23.277344 20.445312 21.53125 18.34375 21.53125 Z M 18.34375 28.144531 C 16.875 28.144531 15.679688 26.925781 15.679688 25.421875 C 15.679688 23.921875 16.875 22.699219 18.34375 22.699219 C 19.8125 22.699219 21.007812 23.921875 21.007812 25.421875 C 21.007812 26.925781 19.8125 28.144531 18.34375 28.144531 Z M 24.144531 34.460938 C 24.304688 34.742188 24.210938 35.097656 23.9375 35.261719 C 22.226562 36.277344 20.320312 36.804688 18.363281 36.804688 C 17.96875 36.804688 17.574219 36.78125 17.175781 36.738281 C 14.21875 36.421875 11.558594 34.945312 9.6875 32.582031 C 7.816406 30.21875 6.957031 27.253906 7.269531 24.230469 C 7.457031 22.433594 8.050781 20.722656 9.003906 19.226562 L 8.800781 19.285156 C 8.496094 19.375 8.179688 19.191406 8.09375 18.882812 C 8.003906 18.570312 8.179688 18.25 8.484375 18.160156 L 10.359375 17.613281 C 10.527344 17.5625 10.710938 17.597656 10.851562 17.703125 C 10.996094 17.808594 11.082031 17.976562 11.089844 18.15625 L 11.15625 20.144531 C 11.167969 20.46875 10.921875 20.738281 10.605469 20.75 C 10.597656 20.75 10.59375 20.75 10.585938 20.75 C 10.277344 20.75 10.023438 20.503906 10.015625 20.1875 L 10 19.808594 C 9.125 21.164062 8.578125 22.71875 8.410156 24.355469 C 8.128906 27.066406 8.898438 29.726562 10.578125 31.847656 C 12.257812 33.964844 14.644531 35.289062 17.296875 35.574219 C 19.421875 35.804688 21.519531 35.347656 23.363281 34.25 C 23.632812 34.085938 23.984375 34.183594 24.144531 34.460938 Z M 31.019531 8.289062 L 27.476562 4.023438 C 27.316406 3.832031 27.085938 3.722656 26.84375 3.722656 C 26.597656 3.722656 26.367188 3.832031 26.210938 4.023438 L 22.667969 8.289062 C 22.453125 8.542969 22.410156 8.890625 22.546875 9.191406 C 22.683594 9.496094 22.972656 9.683594 23.300781 9.683594 L 24.378906 9.683594 L 24.378906 15.851562 C 23.292969 15.136719 22.085938 14.621094 20.808594 14.324219 L 20.808594 6.496094 L 21.886719 6.496094 C 22.214844 6.496094 22.503906 6.308594 22.640625 6.003906 C 22.777344 5.703125 22.730469 5.355469 22.519531 5.101562 L 18.976562 0.835938 C 18.816406 0.644531 18.585938 0.535156 18.34375 0.535156 C 18.097656 0.535156 17.867188 0.644531 17.710938 0.835938 L 14.167969 5.101562 C 13.957031 5.355469 13.910156 5.703125 14.046875 6.003906 C 14.183594 6.308594 14.472656 6.496094 14.800781 6.496094 L 15.878906 6.496094 L 15.878906 14.324219 C 14.898438 14.550781 13.945312 14.914062 13.046875 15.414062 C 12.769531 15.566406 12.667969 15.921875 12.816406 16.207031 C 12.96875 16.488281 13.316406 16.59375 13.59375 16.441406 C 15.371094 15.457031 17.375 15.054688 19.390625 15.269531 C 22.042969 15.554688 24.429688 16.878906 26.109375 19 C 27.785156 21.117188 28.558594 23.78125 28.277344 26.492188 C 28.109375 28.132812 27.5625 29.683594 26.6875 31.039062 L 26.671875 30.660156 C 26.660156 30.335938 26.394531 30.082031 26.078125 30.09375 C 25.765625 30.105469 25.515625 30.378906 25.527344 30.699219 L 25.597656 32.691406 C 25.605469 32.871094 25.691406 33.039062 25.832031 33.144531 C 25.933594 33.214844 26.050781 33.253906 26.171875 33.253906 C 26.222656 33.253906 26.277344 33.246094 26.328125 33.234375 L 28.199219 32.6875 C 28.503906 32.597656 28.679688 32.273438 28.59375 31.964844 C 28.507812 31.652344 28.191406 31.472656 27.886719 31.5625 L 27.679688 31.621094 C 28.636719 30.125 29.230469 28.417969 29.417969 26.613281 C 29.582031 25 29.414062 23.402344 28.9375 21.90625 C 29.164062 21.703125 29.308594 21.40625 29.308594 21.074219 L 29.308594 9.683594 L 30.386719 9.683594 C 30.710938 9.683594 31 9.496094 31.140625 9.191406 C 31.277344 8.890625 31.230469 8.542969 31.019531 8.289062 Z M 17.023438 14.121094 L 17.023438 5.910156 C 17.023438 5.589844 16.765625 5.328125 16.449219 5.328125 L 15.480469 5.328125 L 18.34375 1.882812 L 21.207031 5.328125 L 20.234375 5.328125 C 19.921875 5.328125 19.664062 5.589844 19.664062 5.910156 L 19.664062 14.125 C 19.613281 14.117188 19.5625 14.113281 19.507812 14.105469 C 18.675781 14.015625 17.839844 14.023438 17.023438 14.121094 Z M 28.734375 8.515625 C 28.417969 8.515625 28.164062 8.777344 28.164062 9.097656 L 28.164062 20.054688 C 27.832031 19.425781 27.445312 18.828125 26.996094 18.261719 C 26.546875 17.695312 26.054688 17.183594 25.523438 16.722656 L 25.523438 9.097656 C 25.523438 8.777344 25.265625 8.515625 24.949219 8.515625 L 23.980469 8.515625 L 26.84375 5.070312 L 29.703125 8.515625 Z M 7.378906 12.871094 L 6.300781 12.871094 C 5.972656 12.871094 5.683594 12.683594 5.546875 12.378906 C 5.410156 12.078125 5.457031 11.730469 5.667969 11.472656 L 9.210938 7.210938 C 9.371094 7.019531 9.601562 6.910156 9.84375 6.910156 C 10.089844 6.910156 10.320312 7.019531 10.476562 7.210938 L 14.019531 11.472656 C 14.230469 11.730469 14.277344 12.074219 14.140625 12.378906 C 14.003906 12.683594 13.714844 12.871094 13.386719 12.871094 L 12.308594 12.871094 L 12.308594 16.722656 C 12.308594 17.046875 12.054688 17.308594 11.738281 17.308594 C 11.421875 17.308594 11.164062 17.046875 11.164062 16.722656 L 11.164062 12.285156 C 11.164062 11.964844 11.421875 11.703125 11.738281 11.703125 L 12.707031 11.703125 L 9.84375 8.253906 L 6.980469 11.703125 L 7.953125 11.703125 C 8.265625 11.703125 8.523438 11.964844 8.523438 12.285156 L 8.523438 16.722656 C 8.523438 17.046875 8.265625 17.308594 7.953125 17.308594 C 7.636719 17.308594 7.378906 17.046875 7.378906 16.722656 Z M 7.378906 12.871094 " fill-opacity="1" fill-rule="nonzero"/></g></svg>