<svg xmlns="http://www.w3.org/2000/svg" xmlns:xlink="http://www.w3.org/1999/xlink" width="50" zoomAndPan="magnify" viewBox="0 0 37.5 37.499999" height="50" preserveAspectRatio="xMidYMid meet" version="1.0"><defs><clipPath id="6f88a09711"><path d="M 2.503906 1.828125 L 35.070312 1.828125 L 35.070312 34.394531 L 2.503906 34.394531 Z M 2.503906 1.828125 " clip-rule="nonzero"/></clipPath></defs><g clip-path="url(#6f88a09711)"><path fill="#000000" d="M 31.863281 9.917969 C 33.628906 9.917969 35.070312 11.351562 35.070312 13.105469 L 35.070312 21.808594 C 35.070312 23.5625 33.628906 24.996094 31.863281 24.996094 L 27.785156 24.996094 L 27.785156 31.207031 C 27.785156 32.960938 26.34375 34.394531 24.582031 34.394531 L 5.714844 34.394531 C 3.953125 34.394531 2.507812 32.960938 2.507812 31.207031 L 2.507812 6.796875 C 2.507812 5.042969 3.953125 3.609375 5.714844 3.609375 L 9.980469 3.609375 C 10.128906 2.605469 11.003906 1.828125 12.054688 1.828125 L 18.242188 1.828125 C 19.292969 1.828125 20.164062 2.605469 20.3125 3.609375 L 24.582031 3.609375 C 26.34375 3.609375 27.785156 5.042969 27.785156 6.796875 L 27.785156 9.917969 Z M 6.058594 9.5 C 5.671875 9.5 5.671875 8.921875 6.058594 8.921875 L 11.519531 8.921875 C 11.902344 8.921875 11.902344 9.5 11.519531 9.5 Z M 18.773438 29.128906 C 18.390625 29.128906 18.390625 28.550781 18.773438 28.550781 L 24.234375 28.550781 C 24.621094 28.550781 24.621094 29.128906 24.234375 29.128906 Z M 18.773438 27.390625 C 18.390625 27.390625 18.390625 26.808594 18.773438 26.808594 L 24.234375 26.808594 C 24.621094 26.808594 24.621094 27.390625 24.234375 27.390625 Z M 18.773438 30.824219 C 18.390625 30.824219 18.390625 30.246094 18.773438 30.246094 L 24.234375 30.246094 C 24.621094 30.246094 24.621094 30.824219 24.234375 30.824219 Z M 6.058594 7.757812 C 5.671875 7.757812 5.671875 7.179688 6.058594 7.179688 L 11.519531 7.179688 C 11.902344 7.179688 11.902344 7.757812 11.519531 7.757812 Z M 6.058594 11.199219 C 5.671875 11.199219 5.671875 10.617188 6.058594 10.617188 L 11.519531 10.617188 C 11.902344 10.617188 11.902344 11.199219 11.519531 11.199219 Z M 13.089844 3.480469 C 13.328125 3.480469 13.519531 3.675781 13.519531 3.914062 C 13.519531 4.148438 13.328125 4.34375 13.089844 4.34375 C 12.847656 4.34375 12.65625 4.148438 12.65625 3.914062 C 12.65625 3.675781 12.847656 3.480469 13.089844 3.480469 Z M 17.203125 3.480469 C 17.445312 3.480469 17.636719 3.675781 17.636719 3.914062 C 17.636719 4.148438 17.445312 4.34375 17.203125 4.34375 C 16.96875 4.34375 16.773438 4.148438 16.773438 3.914062 C 16.773438 3.675781 16.96875 3.480469 17.203125 3.480469 Z M 15.148438 3.480469 C 15.386719 3.480469 15.578125 3.675781 15.578125 3.914062 C 15.578125 4.148438 15.386719 4.34375 15.148438 4.34375 C 14.910156 4.34375 14.714844 4.148438 14.714844 3.914062 C 14.714844 3.675781 14.910156 3.480469 15.148438 3.480469 Z M 17.296875 7.34375 C 17.015625 7.085938 17.40625 6.660156 17.6875 6.914062 L 19.433594 8.484375 C 19.550781 8.59375 19.5625 8.773438 19.453125 8.894531 L 17.9375 10.558594 C 17.679688 10.839844 17.25 10.453125 17.507812 10.171875 L 18.632812 8.933594 C 16.238281 8.765625 13.933594 9.9375 12.703125 11.996094 C 12.507812 12.320312 12.011719 12.027344 12.203125 11.699219 C 13.503906 9.53125 15.878906 8.265625 18.410156 8.34375 Z M 11.726562 12.507812 C 12.648438 12.507812 13.40625 13.222656 13.472656 14.125 C 16.539062 14.90625 18.734375 17.675781 18.734375 20.878906 C 18.734375 23.492188 17.269531 25.882812 14.9375 27.078125 L 14.9375 28.054688 C 14.9375 28.214844 14.808594 28.34375 14.644531 28.34375 L 14.128906 28.34375 L 14.128906 28.832031 L 14.644531 28.832031 C 14.808594 28.832031 14.9375 28.960938 14.9375 29.121094 L 14.9375 30.519531 C 14.9375 30.679688 14.808594 30.808594 14.644531 30.808594 L 14.199219 30.808594 C 13.148438 32.789062 10.304688 32.785156 9.253906 30.808594 L 8.804688 30.808594 C 8.644531 30.808594 8.511719 30.679688 8.511719 30.519531 L 8.511719 29.121094 C 8.511719 28.960938 8.644531 28.832031 8.804688 28.832031 L 9.324219 28.832031 L 9.324219 28.34375 L 8.804688 28.34375 C 8.644531 28.34375 8.511719 28.214844 8.511719 28.054688 L 8.511719 27.078125 C 6.183594 25.882812 4.714844 23.492188 4.714844 20.882812 C 4.714844 17.675781 6.910156 14.90625 9.980469 14.125 C 10.042969 13.222656 10.800781 12.507812 11.726562 12.507812 Z M 13.414062 14.710938 C 13.207031 15.449219 12.53125 15.988281 11.726562 15.988281 C 10.921875 15.988281 10.242188 15.449219 10.039062 14.710938 C 7.269531 15.457031 5.300781 17.976562 5.300781 20.878906 C 5.300781 23.332031 6.699219 25.558594 8.914062 26.628906 C 9.019531 26.675781 9.097656 26.777344 9.097656 26.898438 L 9.097656 27.761719 C 10.847656 27.761719 12.601562 27.761719 14.355469 27.761719 L 14.355469 26.898438 C 14.355469 26.792969 14.414062 26.691406 14.519531 26.640625 C 16.742188 25.570312 18.152344 23.339844 18.152344 20.878906 C 18.152344 17.976562 16.183594 15.457031 13.414062 14.710938 Z M 11.726562 13.089844 C 11.082031 13.089844 10.558594 13.609375 10.558594 14.25 C 10.558594 14.890625 11.082031 15.410156 11.726562 15.410156 C 12.371094 15.410156 12.890625 14.890625 12.890625 14.25 C 12.890625 13.609375 12.371094 13.089844 11.726562 13.089844 Z M 9.976562 4.1875 L 5.714844 4.1875 C 4.273438 4.1875 3.09375 5.363281 3.09375 6.796875 L 3.09375 31.207031 C 3.09375 32.644531 4.273438 33.816406 5.714844 33.816406 L 24.582031 33.816406 C 26.023438 33.816406 27.203125 32.644531 27.203125 31.207031 L 27.203125 24.996094 L 23.121094 24.996094 C 21.359375 24.996094 19.917969 23.5625 19.917969 21.808594 L 19.917969 13.105469 C 19.917969 11.351562 21.359375 9.917969 23.121094 9.917969 L 27.203125 9.917969 L 27.203125 6.796875 C 27.203125 5.363281 26.023438 4.1875 24.582031 4.1875 L 20.316406 4.1875 C 20.179688 5.207031 19.300781 5.996094 18.242188 5.996094 L 12.054688 5.996094 C 10.996094 5.996094 10.113281 5.207031 9.976562 4.1875 Z M 18.242188 2.410156 L 12.054688 2.410156 C 11.222656 2.410156 10.542969 3.085938 10.542969 3.914062 C 10.542969 4.738281 11.222656 5.417969 12.054688 5.417969 L 18.242188 5.417969 C 19.074219 5.417969 19.753906 4.742188 19.753906 3.914062 C 19.753906 3.085938 19.070312 2.410156 18.242188 2.410156 Z M 9.941406 19.722656 C 10.050781 19.84375 10.042969 20.023438 9.929688 20.132812 C 9.808594 20.242188 9.625 20.234375 9.519531 20.117188 C 9.261719 19.847656 8.839844 19.84375 8.570312 20.089844 C 8.117188 20.511719 8.464844 21.242188 9.09375 21.242188 C 9.558594 21.242188 9.941406 20.800781 10.175781 20.453125 C 11.246094 18.859375 12.199219 18.859375 13.273438 20.453125 C 13.507812 20.800781 13.890625 21.242188 14.355469 21.242188 C 14.992188 21.242188 15.328125 20.507812 14.878906 20.089844 C 14.609375 19.84375 14.1875 19.847656 13.933594 20.117188 C 13.671875 20.398438 13.246094 20.003906 13.507812 19.722656 C 13.984375 19.214844 14.769531 19.203125 15.273438 19.667969 C 16.125 20.453125 15.503906 21.820312 14.355469 21.820312 C 14.128906 21.820312 13.914062 21.761719 13.722656 21.664062 C 13.007812 22.628906 12.523438 23.789062 12.246094 24.949219 C 12.609375 25.136719 12.859375 25.515625 12.859375 25.953125 C 12.859375 26.574219 12.351562 27.078125 11.726562 27.078125 C 11.101562 27.078125 10.59375 26.574219 10.59375 25.953125 C 10.59375 25.515625 10.839844 25.136719 11.203125 24.949219 C 10.929688 23.789062 10.445312 22.628906 9.730469 21.664062 C 9.535156 21.761719 9.324219 21.820312 9.097656 21.820312 C 7.941406 21.820312 7.332031 20.449219 8.179688 19.667969 C 8.679688 19.203125 9.464844 19.214844 9.941406 19.722656 Z M 13.25 21.324219 C 13.074219 21.160156 12.921875 20.96875 12.792969 20.773438 C 11.960938 19.539062 11.492188 19.539062 10.660156 20.773438 C 10.53125 20.96875 10.378906 21.160156 10.203125 21.324219 C 10.925781 22.304688 11.425781 23.460938 11.726562 24.636719 C 12.023438 23.460938 12.523438 22.304688 13.25 21.324219 Z M 11.726562 25.402344 C 11.417969 25.402344 11.175781 25.648438 11.175781 25.953125 C 11.175781 26.253906 11.417969 26.5 11.726562 26.5 C 12.03125 26.5 12.273438 26.253906 12.273438 25.953125 C 12.273438 25.648438 12.027344 25.402344 11.726562 25.402344 Z M 13.546875 28.34375 L 9.90625 28.34375 L 9.90625 28.832031 L 13.546875 28.832031 Z M 9.9375 30.808594 C 10.824219 32.019531 12.628906 32.019531 13.515625 30.808594 Z M 14.355469 29.410156 C 12.601562 29.410156 10.847656 29.410156 9.097656 29.410156 L 9.097656 30.226562 C 10.847656 30.226562 12.601562 30.226562 14.355469 30.226562 Z M 25.578125 22.15625 C 25.847656 22.425781 25.433594 22.835938 25.164062 22.566406 L 23.945312 21.355469 L 22.726562 22.566406 C 22.457031 22.835938 22.042969 22.425781 22.316406 22.15625 L 23.53125 20.941406 L 22.316406 19.730469 C 22.042969 19.460938 22.457031 19.050781 22.726562 19.320312 L 23.945312 20.535156 L 25.164062 19.320312 C 25.433594 19.050781 25.847656 19.460938 25.578125 19.730469 L 24.355469 20.941406 Z M 32.710938 15.042969 C 32.984375 15.3125 32.570312 15.726562 32.300781 15.457031 L 31.082031 14.242188 L 29.863281 15.457031 C 29.59375 15.726562 29.179688 15.3125 29.449219 15.042969 L 30.671875 13.832031 L 29.449219 12.621094 C 29.179688 12.351562 29.59375 11.941406 29.863281 12.210938 L 31.082031 13.421875 L 32.300781 12.210938 C 32.570312 11.941406 32.984375 12.351562 32.710938 12.621094 L 31.496094 13.832031 Z M 23.945312 15.285156 C 24.675781 15.285156 25.265625 14.699219 25.265625 13.972656 C 25.265625 13.246094 24.675781 12.65625 23.945312 12.65625 C 23.21875 12.65625 22.625 13.246094 22.625 13.972656 C 22.625 14.699219 23.21875 15.285156 23.945312 15.285156 Z M 23.945312 15.863281 C 22.894531 15.863281 22.042969 15.019531 22.042969 13.972656 C 22.042969 12.925781 22.894531 12.078125 23.945312 12.078125 C 24.996094 12.078125 25.851562 12.925781 25.851562 13.972656 C 25.851562 15.019531 24.996094 15.863281 23.945312 15.863281 Z M 31.039062 22.257812 C 31.769531 22.257812 32.359375 21.671875 32.359375 20.941406 C 32.359375 20.21875 31.769531 19.628906 31.039062 19.628906 C 30.308594 19.628906 29.71875 20.21875 29.71875 20.941406 C 29.71875 21.671875 30.3125 22.257812 31.039062 22.257812 Z M 31.039062 22.835938 C 29.988281 22.835938 29.136719 21.988281 29.136719 20.941406 C 29.136719 19.894531 29.988281 19.050781 31.039062 19.050781 C 32.089844 19.050781 32.945312 19.894531 32.945312 20.941406 C 32.945312 21.988281 32.089844 22.835938 31.039062 22.835938 Z M 27.203125 24.417969 L 27.203125 17.746094 L 20.5 17.746094 L 20.5 21.808594 C 20.5 23.242188 21.679688 24.417969 23.121094 24.417969 Z M 27.203125 17.167969 L 27.203125 10.496094 L 23.121094 10.496094 C 21.679688 10.496094 20.5 11.671875 20.5 13.105469 L 20.5 17.167969 Z M 34.488281 17.746094 L 27.785156 17.746094 L 27.785156 24.417969 L 31.863281 24.417969 C 33.308594 24.417969 34.488281 23.242188 34.488281 21.808594 Z M 31.863281 10.496094 L 27.785156 10.496094 L 27.785156 17.167969 L 34.488281 17.167969 L 34.488281 13.105469 C 34.488281 11.671875 33.308594 10.496094 31.863281 10.496094 Z M 31.863281 10.496094 " fill-opacity="1" fill-rule="nonzero"/></g></svg>