<svg xmlns="http://www.w3.org/2000/svg" xmlns:xlink="http://www.w3.org/1999/xlink" width="50" zoomAndPan="magnify" viewBox="0 0 37.5 37.499999" height="50" preserveAspectRatio="xMidYMid meet" version="1.0"><defs><clipPath id="ec242814ea"><path d="M 1.804688 5 L 32 5 L 32 35.015625 L 1.804688 35.015625 Z M 1.804688 5 " clip-rule="nonzero"/></clipPath><clipPath id="bd02db4ba2"><path d="M 19 1.710938 L 35 1.710938 L 35 17 L 19 17 Z M 19 1.710938 " clip-rule="nonzero"/></clipPath></defs><path fill="#000000" d="M 24.632812 14.519531 L 25.714844 14.519531 C 25.171875 12.621094 23.703125 11.117188 21.820312 10.570312 L 21.820312 11.660156 C 23.109375 12.15625 24.140625 13.195312 24.632812 14.519531 Z M 24.632812 14.519531 " fill-opacity="1" fill-rule="nonzero"/><path fill="#000000" d="M 16.636719 25.429688 C 19.214844 25.429688 21.40625 23.664062 22.105469 21.273438 L 21.019531 21.273438 C 20.375 23.09375 18.675781 24.390625 16.664062 24.390625 C 14.113281 24.390625 12.023438 22.289062 12.023438 19.714844 C 12.023438 17.6875 13.3125 15.949219 15.117188 15.324219 L 15.117188 14.234375 C 12.71875 14.910156 10.964844 17.117188 10.964844 19.714844 C 10.964844 22.859375 13.519531 25.429688 16.636719 25.429688 Z M 16.636719 25.429688 " fill-opacity="1" fill-rule="nonzero"/><g clip-path="url(#ec242814ea)"><path fill="#000000" d="M 2.019531 24.496094 L 2.949219 26.988281 C 3.050781 27.25 3.230469 27.457031 3.488281 27.5625 C 3.746094 27.664062 4.03125 27.691406 4.289062 27.585938 L 6.738281 26.625 C 7.664062 27.976562 8.824219 29.121094 10.191406 29.976562 L 9.160156 32.601562 C 8.953125 33.121094 9.210938 33.746094 9.726562 33.953125 L 12.152344 34.9375 C 12.28125 34.992188 12.410156 35.015625 12.539062 35.015625 C 12.667969 35.015625 12.824219 34.992188 12.953125 34.9375 C 13.210938 34.835938 13.414062 34.628906 13.519531 34.367188 L 14.601562 31.691406 C 16.070312 31.953125 17.617188 31.925781 19.0625 31.613281 L 20.222656 34.265625 C 20.324219 34.523438 20.53125 34.707031 20.789062 34.808594 C 21.046875 34.914062 21.332031 34.914062 21.589844 34.785156 L 23.988281 33.71875 C 24.503906 33.484375 24.734375 32.859375 24.503906 32.339844 L 23.367188 29.769531 C 24.527344 28.964844 25.585938 27.949219 26.382812 26.78125 L 28.832031 27.792969 C 29.089844 27.898438 29.375 27.898438 29.632812 27.792969 C 29.890625 27.691406 30.097656 27.484375 30.199219 27.222656 L 31.179688 24.753906 C 31.386719 24.210938 31.128906 23.613281 30.613281 23.402344 L 28.34375 22.46875 C 28.550781 21.558594 28.652344 20.625 28.652344 19.6875 C 28.652344 19.402344 28.421875 19.167969 28.136719 19.167969 C 28.085938 19.167969 28.058594 19.167969 28.007812 19.195312 C 27.984375 19.195312 27.984375 19.195312 27.957031 19.195312 L 17.152344 19.195312 L 17.152344 8.050781 C 17.152344 7.765625 16.921875 7.53125 16.636719 7.53125 C 15.683594 7.53125 14.730469 7.632812 13.800781 7.867188 L 13.082031 6.179688 C 12.976562 5.921875 12.769531 5.738281 12.511719 5.632812 C 12.253906 5.53125 11.972656 5.53125 11.714844 5.660156 L 9.289062 6.726562 C 8.773438 6.960938 8.542969 7.582031 8.773438 8.101562 L 9.546875 9.867188 C 8.257812 10.832031 7.148438 12.050781 6.324219 13.429688 L 4.417969 12.648438 C 4.160156 12.542969 3.875 12.542969 3.617188 12.648438 C 3.359375 12.753906 3.152344 12.960938 3.050781 13.21875 L 2.070312 15.6875 C 1.863281 16.207031 2.121094 16.832031 2.636719 17.039062 L 4.726562 17.898438 C 4.648438 18.492188 4.597656 19.089844 4.597656 19.6875 C 4.597656 20.546875 4.675781 21.429688 4.855469 22.261719 L 2.585938 23.144531 C 2.070312 23.378906 1.8125 23.976562 2.019531 24.496094 Z M 5.679688 23.09375 C 5.914062 22.988281 6.066406 22.730469 5.988281 22.46875 C 5.757812 21.585938 5.65625 20.652344 5.65625 19.714844 C 5.65625 19.039062 5.707031 18.363281 5.835938 17.6875 C 5.886719 17.453125 5.757812 17.195312 5.527344 17.117188 L 3.050781 16.105469 L 4.03125 13.636719 L 6.351562 14.597656 C 6.582031 14.699219 6.867188 14.597656 6.996094 14.363281 C 7.820312 12.832031 9.03125 11.480469 10.476562 10.492188 C 10.683594 10.363281 10.761719 10.078125 10.65625 9.84375 L 9.726562 7.6875 L 12.125 6.621094 L 13.027344 8.699219 C 13.132812 8.933594 13.390625 9.0625 13.648438 8.984375 C 14.445312 8.75 15.273438 8.621094 16.121094 8.597656 L 16.121094 19.714844 C 16.121094 20 16.355469 20.234375 16.636719 20.234375 L 27.621094 20.234375 C 27.597656 21.066406 27.46875 21.871094 27.261719 22.652344 C 27.183594 22.910156 27.3125 23.171875 27.570312 23.273438 L 30.25 24.390625 L 29.273438 26.859375 L 26.4375 25.691406 C 26.203125 25.585938 25.945312 25.691406 25.816406 25.871094 C 24.964844 27.171875 23.804688 28.3125 22.492188 29.144531 C 22.285156 29.277344 22.183594 29.5625 22.285156 29.796875 L 23.574219 32.78125 L 21.175781 33.847656 L 19.859375 30.808594 C 19.757812 30.574219 19.5 30.445312 19.269531 30.523438 C 17.695312 30.914062 15.992188 30.9375 14.394531 30.601562 C 14.136719 30.546875 13.90625 30.679688 13.800781 30.914062 L 12.539062 34.003906 L 10.113281 32.992188 L 11.328125 29.976562 C 11.429688 29.742188 11.328125 29.457031 11.121094 29.328125 C 9.625 28.445312 8.335938 27.199219 7.40625 25.714844 C 7.277344 25.507812 7.019531 25.429688 6.789062 25.507812 L 3.953125 26.601562 L 2.972656 24.132812 Z M 5.679688 23.09375 " fill-opacity="1" fill-rule="nonzero"/></g><g clip-path="url(#bd02db4ba2)"><path fill="#000000" d="M 20.246094 16.597656 L 31.59375 16.597656 C 31.644531 16.597656 31.667969 16.597656 31.722656 16.570312 C 31.746094 16.570312 31.746094 16.570312 31.773438 16.570312 C 32.054688 16.570312 32.289062 16.335938 32.289062 16.050781 C 32.289062 15.53125 32.261719 14.988281 32.183594 14.46875 L 34.300781 13.636719 C 34.839844 13.429688 35.097656 12.832031 34.894531 12.285156 L 33.9375 9.789062 C 33.835938 9.53125 33.65625 9.324219 33.398438 9.21875 C 33.140625 9.117188 32.855469 9.089844 32.597656 9.195312 L 30.691406 9.945312 C 29.789062 8.363281 28.523438 6.984375 27.027344 5.945312 L 27.75 4.152344 C 27.957031 3.632812 27.699219 3.011719 27.183594 2.800781 L 24.761719 1.816406 C 24.503906 1.710938 24.21875 1.710938 23.960938 1.816406 C 23.703125 1.917969 23.496094 2.125 23.394531 2.386719 L 22.722656 4.074219 C 21.925781 3.917969 21.097656 3.816406 20.273438 3.816406 C 19.988281 3.816406 19.757812 4.050781 19.757812 4.335938 L 19.757812 16.078125 C 19.730469 16.363281 19.964844 16.597656 20.246094 16.597656 Z M 22.878906 5.246094 C 23.136719 5.296875 23.394531 5.167969 23.472656 4.933594 L 24.347656 2.828125 L 26.769531 3.839844 L 25.894531 6.023438 C 25.792969 6.257812 25.894531 6.515625 26.101562 6.648438 C 27.726562 7.6875 29.066406 9.140625 29.96875 10.882812 C 30.097656 11.117188 30.355469 11.21875 30.613281 11.117188 L 32.957031 10.207031 L 33.914062 12.699219 L 31.410156 13.660156 C 31.179688 13.738281 31.050781 14 31.078125 14.234375 C 31.152344 14.675781 31.179688 15.089844 31.207031 15.558594 L 20.761719 15.558594 L 20.761719 4.933594 C 21.484375 4.984375 22.207031 5.089844 22.878906 5.246094 Z M 22.878906 5.246094 " fill-opacity="1" fill-rule="nonzero"/></g></svg>