<svg xmlns="http://www.w3.org/2000/svg" xmlns:xlink="http://www.w3.org/1999/xlink" width="50" zoomAndPan="magnify" viewBox="0 0 37.5 37.499999" height="50" preserveAspectRatio="xMidYMid meet" version="1.0"><defs><clipPath id="4cd1b07df1"><path d="M 0.941406 1.234375 L 35.726562 1.234375 L 35.726562 36 L 0.941406 36 Z M 0.941406 1.234375 " clip-rule="nonzero"/></clipPath></defs><g clip-path="url(#4cd1b07df1)"><path fill="#ffbd59" d="M 13.730469 4.160156 C 8.652344 5.804688 4.742188 10.054688 3.578125 15.332031 C 3.511719 15.636719 3.210938 15.828125 2.910156 15.761719 C 2.605469 15.695312 2.414062 15.394531 2.480469 15.089844 C 3.730469 9.410156 7.949219 4.835938 13.421875 3.078125 L 13.316406 3.015625 C 13.046875 2.859375 12.953125 2.515625 13.109375 2.246094 C 13.265625 1.976562 13.609375 1.886719 13.878906 2.039062 L 15.171875 2.789062 C 15.441406 2.941406 15.535156 3.285156 15.378906 3.554688 L 14.632812 4.847656 C 14.476562 5.117188 14.132812 5.210938 13.863281 5.054688 C 13.59375 4.898438 13.5 4.554688 13.65625 4.285156 Z M 32.921875 14.109375 C 31.363281 9.082031 27.257812 5.167969 22.113281 3.878906 C 21.8125 3.800781 21.628906 3.496094 21.707031 3.195312 C 21.78125 2.894531 22.085938 2.710938 22.386719 2.785156 C 27.929688 4.175781 32.347656 8.402344 34.011719 13.828125 L 34.082031 13.707031 C 34.238281 13.4375 34.582031 13.34375 34.851562 13.5 C 35.121094 13.65625 35.210938 14 35.058594 14.269531 L 34.3125 15.5625 C 34.15625 15.832031 33.8125 15.921875 33.542969 15.765625 L 32.25 15.019531 C 31.980469 14.867188 31.886719 14.519531 32.042969 14.253906 C 32.199219 13.984375 32.542969 13.890625 32.8125 14.046875 Z M 21.535156 34.519531 C 21.265625 34.367188 21.175781 34.019531 21.332031 33.753906 L 22.078125 32.457031 C 22.230469 32.191406 22.578125 32.097656 22.847656 32.253906 C 23.113281 32.410156 23.207031 32.753906 23.050781 33.023438 L 23.011719 33.089844 C 28.078125 31.480469 31.996094 27.28125 33.210938 22.050781 C 33.28125 21.75 33.582031 21.5625 33.882812 21.632812 C 34.1875 21.703125 34.375 22.003906 34.304688 22.304688 C 32.992188 27.964844 28.734375 32.5 23.234375 34.199219 L 23.390625 34.292969 C 23.660156 34.449219 23.753906 34.792969 23.597656 35.0625 C 23.441406 35.332031 23.097656 35.421875 22.828125 35.269531 Z M 2.859375 23.546875 L 2.8125 23.632812 C 2.65625 23.898438 2.3125 23.992188 2.042969 23.835938 C 1.773438 23.679688 1.683594 23.335938 1.835938 23.066406 L 2.585938 21.773438 C 2.738281 21.507812 3.082031 21.414062 3.351562 21.570312 L 4.644531 22.316406 C 4.914062 22.472656 5.007812 22.816406 4.851562 23.085938 C 4.695312 23.351562 4.351562 23.445312 4.082031 23.289062 L 3.929688 23.203125 C 5.53125 28.246094 9.699219 32.15625 14.894531 33.390625 C 15.195312 33.460938 15.382812 33.765625 15.3125 34.066406 C 15.238281 34.371094 14.9375 34.558594 14.632812 34.484375 C 9.054688 33.160156 4.578125 28.964844 2.859375 23.546875 Z M 11.152344 26.019531 C 10.988281 23.277344 10.203125 22.246094 9.605469 21.191406 C 9.144531 20.375 8.78125 19.546875 8.78125 18.109375 C 8.78125 14.875 11.160156 12.199219 14.261719 11.730469 C 14.570312 11.6875 14.855469 11.898438 14.902344 12.203125 C 14.949219 12.511719 14.738281 12.800781 14.429688 12.84375 C 11.867188 13.230469 9.90625 15.441406 9.90625 18.109375 C 9.90625 19.609375 10.398438 20.308594 10.910156 21.191406 C 11.457031 22.136719 12.035156 23.253906 12.234375 25.4375 L 13.652344 25.4375 L 13.652344 20.082031 L 12.84375 20.082031 C 11.785156 20.082031 10.914062 19.214844 10.914062 18.152344 C 10.914062 17.089844 11.785156 16.222656 12.84375 16.222656 C 13.90625 16.222656 14.777344 17.089844 14.777344 18.152344 L 14.777344 18.957031 L 15.683594 18.957031 L 15.683594 18.84375 C 15.683594 18.53125 15.933594 18.28125 16.246094 18.28125 C 16.554688 18.28125 16.808594 18.53125 16.808594 18.84375 L 16.808594 18.957031 L 16.972656 18.957031 C 17.285156 18.957031 17.535156 19.210938 17.535156 19.519531 C 17.535156 19.832031 17.285156 20.082031 16.972656 20.082031 L 16.808594 20.082031 L 16.808594 25.4375 L 18.222656 25.4375 C 18.46875 22.769531 19.273438 21.703125 19.898438 20.59375 C 20.046875 20.324219 20.390625 20.226562 20.664062 20.378906 C 20.933594 20.53125 21.03125 20.875 20.878906 21.144531 C 20.277344 22.21875 19.472656 23.246094 19.308594 26.035156 C 19.308594 26.035156 19.308594 26.035156 19.308594 26.039062 L 19.304688 26.957031 C 19.304688 27.597656 18.910156 28.144531 18.351562 28.371094 L 18.351562 28.871094 C 18.351562 29.519531 17.941406 30.074219 17.367188 30.292969 L 17.367188 30.785156 C 17.367188 31.621094 16.683594 32.304688 15.851562 32.304688 L 14.609375 32.304688 C 13.773438 32.304688 13.089844 31.621094 13.089844 30.785156 L 13.089844 30.292969 C 12.515625 30.074219 12.109375 29.519531 12.109375 28.871094 L 12.109375 28.371094 C 11.546875 28.144531 11.152344 27.597656 11.152344 26.957031 Z M 14.777344 25.4375 L 15.683594 25.4375 L 15.683594 20.082031 L 14.777344 20.082031 Z M 18.179688 26.566406 L 12.277344 26.566406 L 12.277344 26.957031 C 12.277344 27.175781 12.453125 27.351562 12.671875 27.351562 L 17.789062 27.351562 C 18.003906 27.351562 18.179688 27.175781 18.179688 26.957031 Z M 17.226562 28.480469 L 13.234375 28.480469 L 13.234375 28.871094 C 13.234375 29.089844 13.410156 29.265625 13.628906 29.265625 L 16.832031 29.265625 C 17.046875 29.265625 17.226562 29.089844 17.226562 28.871094 Z M 16.242188 30.390625 L 14.214844 30.390625 L 14.214844 30.785156 C 14.214844 31.003906 14.390625 31.179688 14.609375 31.179688 L 15.851562 31.179688 C 16.066406 31.179688 16.242188 31.003906 16.242188 30.785156 Z M 13.652344 18.957031 L 13.652344 18.152344 C 13.652344 17.710938 13.289062 17.347656 12.84375 17.347656 C 12.402344 17.347656 12.039062 17.710938 12.039062 18.152344 C 12.039062 18.597656 12.402344 18.957031 12.84375 18.957031 Z M 15.792969 10.230469 C 15.792969 10.542969 15.539062 10.792969 15.230469 10.792969 C 14.917969 10.792969 14.667969 10.542969 14.667969 10.230469 L 14.667969 8.84375 C 14.667969 8.535156 14.917969 8.28125 15.230469 8.28125 C 15.539062 8.28125 15.792969 8.535156 15.792969 8.84375 Z M 11.277344 11.140625 C 11.429688 11.410156 11.339844 11.753906 11.070312 11.910156 C 10.800781 12.0625 10.457031 11.972656 10.300781 11.703125 L 9.609375 10.5 C 9.453125 10.230469 9.546875 9.886719 9.816406 9.734375 C 10.085938 9.578125 10.429688 9.671875 10.582031 9.9375 Z M 7.820312 14.1875 C 8.089844 14.339844 8.183594 14.6875 8.027344 14.953125 C 7.871094 15.222656 7.527344 15.316406 7.257812 15.160156 L 6.054688 14.464844 C 5.789062 14.308594 5.695312 13.964844 5.851562 13.695312 C 6.003906 13.429688 6.351562 13.335938 6.621094 13.492188 Z M 24.238281 7.367188 C 24.695312 7.5 25.132812 7.679688 25.546875 7.910156 L 26.386719 7.539062 C 26.601562 7.441406 26.851562 7.488281 27.015625 7.652344 L 28.3125 8.953125 C 28.476562 9.117188 28.523438 9.367188 28.429688 9.578125 C 28.429688 9.578125 28.058594 10.417969 28.058594 10.417969 C 28.289062 10.832031 28.46875 11.273438 28.601562 11.730469 L 29.457031 12.058594 C 29.675781 12.144531 29.820312 12.351562 29.820312 12.585938 L 29.820312 14.421875 C 29.820312 14.65625 29.675781 14.863281 29.457031 14.949219 C 29.457031 14.949219 28.601562 15.277344 28.601562 15.277344 C 28.46875 15.734375 28.289062 16.171875 28.058594 16.585938 L 28.429688 17.425781 C 28.523438 17.640625 28.476562 17.890625 28.3125 18.054688 L 27.015625 19.351562 C 26.851562 19.515625 26.601562 19.5625 26.390625 19.46875 C 26.390625 19.46875 25.550781 19.097656 25.550781 19.097656 C 25.132812 19.328125 24.695312 19.507812 24.238281 19.640625 L 23.910156 20.496094 C 23.824219 20.714844 23.617188 20.855469 23.382812 20.855469 L 21.546875 20.855469 C 21.3125 20.855469 21.105469 20.714844 21.019531 20.496094 C 21.019531 20.496094 20.691406 19.640625 20.691406 19.640625 C 20.234375 19.507812 19.796875 19.324219 19.378906 19.097656 L 18.539062 19.46875 C 18.328125 19.5625 18.078125 19.515625 17.914062 19.351562 L 16.613281 18.054688 C 16.449219 17.886719 16.402344 17.640625 16.5 17.425781 C 16.5 17.425781 16.871094 16.585938 16.871094 16.585938 C 16.640625 16.171875 16.460938 15.734375 16.328125 15.277344 L 15.472656 14.949219 C 15.253906 14.863281 15.109375 14.65625 15.109375 14.421875 L 15.109375 12.585938 C 15.109375 12.351562 15.253906 12.144531 15.472656 12.058594 C 15.472656 12.058594 16.328125 11.730469 16.328125 11.730469 C 16.460938 11.273438 16.640625 10.835938 16.871094 10.417969 L 16.5 9.578125 C 16.402344 9.367188 16.449219 9.117188 16.613281 8.953125 L 17.914062 7.652344 C 18.078125 7.488281 18.328125 7.441406 18.539062 7.539062 C 18.539062 7.539062 19.378906 7.910156 19.378906 7.910156 C 19.796875 7.679688 20.234375 7.5 20.691406 7.367188 L 21.023438 6.507812 C 21.105469 6.292969 21.3125 6.148438 21.546875 6.148438 L 23.382812 6.148438 C 23.617188 6.148438 23.824219 6.292969 23.910156 6.507812 Z M 23.292969 8.039062 L 22.996094 7.273438 L 21.933594 7.273438 L 21.636719 8.042969 C 21.570312 8.214844 21.421875 8.34375 21.242188 8.386719 C 20.699219 8.515625 20.183594 8.730469 19.710938 9.019531 C 19.550781 9.117188 19.355469 9.132812 19.1875 9.054688 L 18.4375 8.722656 C 18.4375 8.722656 17.683594 9.476562 17.683594 9.476562 L 18.015625 10.226562 C 18.09375 10.394531 18.078125 10.589844 17.984375 10.75 C 17.691406 11.222656 17.476562 11.738281 17.34375 12.285156 C 17.300781 12.464844 17.171875 12.609375 17 12.675781 L 16.234375 12.972656 L 16.234375 14.035156 L 17 14.332031 C 17.171875 14.398438 17.300781 14.542969 17.34375 14.722656 C 17.476562 15.265625 17.691406 15.785156 17.980469 16.257812 C 18.078125 16.414062 18.09375 16.609375 18.015625 16.78125 C 18.015625 16.78125 17.683594 17.53125 17.683594 17.53125 L 18.4375 18.285156 L 19.1875 17.953125 C 19.355469 17.875 19.550781 17.890625 19.707031 17.984375 C 20.183594 18.277344 20.699219 18.492188 21.242188 18.621094 C 21.425781 18.664062 21.570312 18.792969 21.640625 18.96875 L 21.933594 19.730469 L 22.996094 19.730469 L 23.292969 18.96875 C 23.359375 18.792969 23.507812 18.664062 23.6875 18.621094 C 24.226562 18.492188 24.746094 18.28125 25.21875 17.988281 C 25.375 17.890625 25.570312 17.875 25.742188 17.953125 L 26.492188 18.285156 L 27.246094 17.53125 L 26.914062 16.78125 C 26.839844 16.609375 26.851562 16.417969 26.949219 16.257812 C 27.238281 15.785156 27.453125 15.265625 27.582031 14.726562 C 27.625 14.542969 27.753906 14.398438 27.929688 14.332031 L 28.691406 14.035156 L 28.691406 12.972656 L 27.929688 12.675781 C 27.753906 12.609375 27.625 12.460938 27.582031 12.28125 C 27.453125 11.738281 27.242188 11.222656 26.949219 10.75 C 26.851562 10.589844 26.835938 10.394531 26.914062 10.226562 L 27.246094 9.476562 C 27.246094 9.476562 26.492188 8.722656 26.492188 8.722656 L 25.742188 9.054688 C 25.574219 9.132812 25.375 9.117188 25.21875 9.019531 C 24.746094 8.730469 24.226562 8.515625 23.6875 8.386719 C 23.507812 8.34375 23.359375 8.214844 23.292969 8.039062 Z M 22.464844 9.734375 C 24.546875 9.734375 26.234375 11.421875 26.234375 13.503906 C 26.234375 15.585938 24.546875 17.273438 22.464844 17.273438 C 20.382812 17.273438 18.695312 15.585938 18.695312 13.503906 C 18.695312 11.421875 20.382812 9.734375 22.464844 9.734375 Z M 22.464844 10.859375 C 21.003906 10.859375 19.820312 12.042969 19.820312 13.503906 C 19.820312 14.964844 21.003906 16.148438 22.464844 16.148438 C 23.925781 16.148438 25.109375 14.964844 25.109375 13.503906 C 25.109375 12.042969 23.925781 10.859375 22.464844 10.859375 Z M 2.894531 16.679688 C 3.972656 16.679688 4.84375 17.554688 4.84375 18.628906 C 4.84375 19.707031 3.972656 20.578125 2.894531 20.578125 C 1.820312 20.578125 0.945312 19.707031 0.945312 18.628906 C 0.945312 17.554688 1.820312 16.679688 2.894531 16.679688 Z M 2.894531 17.804688 C 2.441406 17.804688 2.070312 18.175781 2.070312 18.628906 C 2.070312 19.085938 2.441406 19.453125 2.894531 19.453125 C 3.351562 19.453125 3.71875 19.085938 3.71875 18.628906 C 3.71875 18.175781 3.351562 17.804688 2.894531 17.804688 Z M 18.460938 1.234375 C 19.535156 1.234375 20.410156 2.109375 20.410156 3.183594 C 20.410156 4.257812 19.535156 5.132812 18.460938 5.132812 C 17.382812 5.132812 16.507812 4.257812 16.507812 3.183594 C 16.507812 2.109375 17.382812 1.234375 18.460938 1.234375 Z M 18.460938 2.359375 C 18.003906 2.359375 17.636719 2.730469 17.636719 3.183594 C 17.636719 3.636719 18.003906 4.007812 18.460938 4.007812 C 18.914062 4.007812 19.28125 3.636719 19.28125 3.183594 C 19.28125 2.730469 18.914062 2.359375 18.460938 2.359375 Z M 33.886719 16.660156 C 34.964844 16.660156 35.839844 17.535156 35.839844 18.609375 C 35.839844 19.6875 34.964844 20.558594 33.886719 20.558594 C 32.8125 20.558594 31.9375 19.6875 31.9375 18.609375 C 31.9375 17.535156 32.8125 16.660156 33.886719 16.660156 Z M 33.886719 17.785156 C 33.433594 17.785156 33.066406 18.15625 33.066406 18.609375 C 33.066406 19.066406 33.433594 19.433594 33.886719 19.433594 C 34.34375 19.433594 34.710938 19.066406 34.710938 18.609375 C 34.710938 18.15625 34.34375 17.785156 33.886719 17.785156 Z M 18.460938 32.085938 C 19.535156 32.085938 20.410156 32.960938 20.410156 34.035156 C 20.410156 35.113281 19.535156 35.988281 18.460938 35.988281 C 17.382812 35.988281 16.507812 35.113281 16.507812 34.035156 C 16.507812 32.960938 17.382812 32.085938 18.460938 32.085938 Z M 18.460938 33.214844 C 18.003906 33.214844 17.636719 33.582031 17.636719 34.035156 C 17.636719 34.492188 18.003906 34.859375 18.460938 34.859375 C 18.914062 34.859375 19.28125 34.492188 19.28125 34.035156 C 19.28125 33.582031 18.914062 33.214844 18.460938 33.214844 Z M 18.460938 33.214844 " fill-opacity="1" fill-rule="evenodd"/></g></svg>