<svg xmlns="http://www.w3.org/2000/svg" xmlns:xlink="http://www.w3.org/1999/xlink" width="50" zoomAndPan="magnify" viewBox="0 0 37.5 37.499999" height="50" preserveAspectRatio="xMidYMid meet" version="1.0"><defs><clipPath id="0f19d52fb7"><path d="M 5 1.453125 L 14 1.453125 L 14 14 L 5 14 Z M 5 1.453125 " clip-rule="nonzero"/></clipPath><clipPath id="c1f22d8371"><path d="M 0.519531 16 L 13 16 L 13 29 L 0.519531 29 Z M 0.519531 16 " clip-rule="nonzero"/></clipPath><clipPath id="0b8c5b83b2"><path d="M 24 16 L 36.785156 16 L 36.785156 29 L 24 29 Z M 24 16 " clip-rule="nonzero"/></clipPath><clipPath id="9fce1f22ce"><path d="M 12 23 L 25 23 L 25 35.5 L 12 35.5 Z M 12 23 " clip-rule="nonzero"/></clipPath></defs><path fill="#0097b2" d="M 16.714844 19.058594 C 16.398438 19.058594 16.113281 18.972656 15.863281 18.808594 C 15.421875 18.515625 15.210938 18.035156 15.113281 17.664062 C 14.589844 17.804688 14.136719 17.761719 13.761719 17.53125 C 13.269531 17.230469 13.0625 16.699219 12.972656 16.320312 C 12.402344 16.332031 11.964844 16.167969 11.675781 15.832031 C 11.371094 15.472656 11.316406 15.015625 11.332031 14.65625 C 10.953125 14.652344 10.636719 14.535156 10.386719 14.308594 C 9.746094 13.71875 9.890625 12.640625 9.90625 12.519531 C 9.921875 12.425781 9.96875 12.335938 10.042969 12.273438 L 10.273438 12.074219 L 16.691406 6.589844 C 16.816406 6.480469 16.992188 6.460938 17.140625 6.535156 C 19.785156 7.855469 20.699219 7.285156 20.835938 7.175781 C 20.839844 6.941406 20.15625 6.179688 18.960938 5.574219 C 18.796875 5.488281 18.707031 5.304688 18.746094 5.125 C 18.785156 4.945312 18.941406 4.8125 19.125 4.800781 C 19.667969 4.777344 20.5 4.839844 21.378906 4.90625 C 22.316406 4.976562 23.378906 5.054688 24.183594 5.03125 C 24.332031 5.027344 24.476562 5.105469 24.550781 5.238281 L 28.195312 11.550781 C 28.304688 11.738281 28.246094 11.980469 28.066406 12.097656 L 25.867188 13.523438 C 25.707031 13.628906 25.492188 13.605469 25.355469 13.46875 L 24.144531 12.261719 C 23.96875 12.082031 23.679688 12.082031 23.5 12.261719 C 23.417969 12.34375 23.371094 12.460938 23.371094 12.582031 C 23.371094 12.707031 23.417969 12.820312 23.5 12.90625 C 23.660156 13.0625 23.660156 13.324219 23.5 13.484375 C 23.34375 13.640625 23.082031 13.640625 22.921875 13.484375 L 22.394531 12.953125 C 22.21875 12.777344 21.929688 12.777344 21.75 12.953125 C 21.574219 13.132812 21.574219 13.421875 21.75 13.597656 L 22.035156 13.882812 C 22.195312 14.042969 22.195312 14.304688 22.035156 14.460938 C 21.875 14.621094 21.617188 14.621094 21.457031 14.460938 C 21.375 14.378906 21.257812 14.328125 21.136719 14.328125 C 21.015625 14.328125 20.898438 14.378906 20.816406 14.460938 C 20.730469 14.546875 20.683594 14.664062 20.683594 14.785156 C 20.683594 14.90625 20.730469 15.019531 20.816406 15.105469 L 21.175781 15.46875 C 21.335938 15.628906 21.335938 15.886719 21.175781 16.046875 C 21.019531 16.207031 20.757812 16.207031 20.597656 16.046875 C 20.421875 15.871094 20.132812 15.871094 19.953125 16.046875 C 19.871094 16.132812 19.824219 16.246094 19.824219 16.367188 C 19.824219 16.492188 19.871094 16.605469 19.953125 16.691406 L 20 16.738281 C 20.089844 16.824219 20.132812 16.945312 20.117188 17.070312 C 20.105469 17.191406 20.039062 17.300781 19.933594 17.367188 L 17.664062 18.839844 C 17.640625 18.855469 17.613281 18.871094 17.585938 18.878906 C 17.273438 19 16.984375 19.058594 16.714844 19.058594 Z M 15.4375 16.703125 C 15.511719 16.703125 15.585938 16.722656 15.652344 16.765625 C 15.765625 16.835938 15.839844 16.957031 15.84375 17.09375 C 15.855469 17.300781 15.960938 17.894531 16.316406 18.128906 C 16.539062 18.273438 16.855469 18.277344 17.261719 18.128906 L 19.128906 16.917969 C 18.90625 16.445312 18.988281 15.863281 19.378906 15.46875 C 19.535156 15.316406 19.722656 15.207031 19.917969 15.148438 C 19.789062 14.714844 19.894531 14.226562 20.238281 13.882812 C 20.402344 13.71875 20.609375 13.605469 20.832031 13.550781 C 20.742188 13.140625 20.855469 12.695312 21.175781 12.375 C 21.570312 11.980469 22.160156 11.898438 22.632812 12.132812 C 22.699219 11.964844 22.796875 11.8125 22.925781 11.683594 C 23.421875 11.1875 24.230469 11.1875 24.726562 11.683594 L 25.703125 12.65625 L 27.296875 11.625 L 23.964844 5.851562 C 23.15625 5.859375 22.1875 5.785156 21.320312 5.71875 C 21.078125 5.703125 20.84375 5.683594 20.617188 5.667969 C 21.132812 6.082031 21.535156 6.546875 21.628906 6.976562 C 21.703125 7.308594 21.59375 7.542969 21.488281 7.679688 C 21.371094 7.824219 20.324219 8.957031 17.019531 7.386719 L 10.808594 12.691406 L 10.707031 12.78125 C 10.691406 13.046875 10.71875 13.5 10.945312 13.707031 C 11.101562 13.847656 11.363281 13.875 11.730469 13.789062 C 11.871094 13.753906 12.023438 13.800781 12.125 13.90625 C 12.222656 14.011719 12.257812 14.164062 12.214844 14.304688 C 12.164062 14.476562 12.070312 15.03125 12.300781 15.300781 C 12.5 15.53125 12.933594 15.527344 13.265625 15.480469 C 13.378906 15.460938 13.492188 15.496094 13.582031 15.566406 C 13.667969 15.640625 13.722656 15.746094 13.730469 15.863281 C 13.742188 16.0625 13.847656 16.628906 14.195312 16.835938 C 14.4375 16.984375 14.800781 16.953125 15.273438 16.742188 C 15.320312 16.714844 15.378906 16.703125 15.4375 16.703125 Z M 15.4375 16.703125 " fill-opacity="1" fill-rule="nonzero"/><path fill="#0097b2" d="M 11.824219 14.59375 C 11.699219 14.59375 11.574219 14.535156 11.496094 14.425781 C 11.359375 14.246094 11.398438 13.988281 11.582031 13.855469 L 16.238281 10.414062 C 16.417969 10.28125 16.675781 10.316406 16.808594 10.5 C 16.941406 10.679688 16.902344 10.9375 16.722656 11.070312 L 12.066406 14.511719 C 11.992188 14.566406 11.90625 14.59375 11.824219 14.59375 Z M 11.824219 14.59375 " fill-opacity="1" fill-rule="nonzero"/><path fill="#0097b2" d="M 13.320312 16.292969 C 13.195312 16.292969 13.070312 16.234375 12.992188 16.125 C 12.855469 15.945312 12.894531 15.6875 13.078125 15.554688 L 17.253906 12.464844 C 17.4375 12.332031 17.691406 12.371094 17.824219 12.550781 C 17.960938 12.734375 17.921875 12.988281 17.738281 13.121094 L 13.5625 16.210938 C 13.488281 16.265625 13.402344 16.292969 13.320312 16.292969 Z M 13.320312 16.292969 " fill-opacity="1" fill-rule="nonzero"/><path fill="#0097b2" d="M 15.4375 17.519531 C 15.3125 17.519531 15.1875 17.464844 15.109375 17.355469 C 14.972656 17.171875 15.011719 16.917969 15.195312 16.785156 L 18.398438 14.414062 C 18.582031 14.28125 18.835938 14.320312 18.972656 14.5 C 19.105469 14.679688 19.066406 14.9375 18.886719 15.070312 L 15.679688 17.441406 C 15.605469 17.496094 15.519531 17.519531 15.4375 17.519531 Z M 15.4375 17.519531 " fill-opacity="1" fill-rule="nonzero"/><path fill="#0097b2" d="M 10.542969 12.789062 C 10.441406 12.789062 10.34375 12.753906 10.265625 12.679688 L 8.859375 11.382812 C 8.71875 11.253906 8.6875 11.042969 8.785156 10.878906 L 12.214844 4.933594 C 12.3125 4.765625 12.515625 4.691406 12.699219 4.75 C 13.554688 5.039062 15.203125 5.386719 16.589844 4.480469 C 17.738281 3.730469 20.222656 5.152344 21.136719 6.144531 C 21.863281 6.933594 21.667969 7.441406 21.484375 7.675781 C 21.371094 7.820312 20.320312 8.953125 17.019531 7.382812 L 10.808594 12.691406 C 10.730469 12.757812 10.636719 12.789062 10.542969 12.789062 Z M 9.65625 11.003906 L 10.550781 11.835938 L 16.691406 6.589844 C 16.816406 6.480469 16.992188 6.460938 17.140625 6.535156 C 19.824219 7.875 20.742188 7.253906 20.835938 7.179688 C 20.839844 7.023438 20.472656 6.5 19.5625 5.917969 C 18.414062 5.183594 17.359375 4.957031 17.035156 5.167969 C 15.523438 6.152344 13.8125 5.925781 12.761719 5.625 Z M 9.65625 11.003906 " fill-opacity="1" fill-rule="nonzero"/><path fill="#0097b2" d="M 25.203125 15.230469 C 24.863281 15.230469 24.542969 15.097656 24.300781 14.859375 L 22.925781 13.480469 C 22.6875 13.242188 22.554688 12.921875 22.554688 12.582031 C 22.554688 12.242188 22.6875 11.921875 22.925781 11.683594 C 23.421875 11.1875 24.230469 11.1875 24.726562 11.683594 L 26.101562 13.058594 C 26.597656 13.554688 26.597656 14.363281 26.101562 14.859375 C 25.863281 15.097656 25.542969 15.230469 25.203125 15.230469 Z M 23.503906 12.257812 C 23.417969 12.34375 23.371094 12.460938 23.371094 12.582031 C 23.371094 12.703125 23.417969 12.816406 23.503906 12.902344 L 24.878906 14.28125 C 24.964844 14.367188 25.082031 14.414062 25.203125 14.414062 C 25.324219 14.414062 25.4375 14.363281 25.523438 14.28125 C 25.703125 14.101562 25.703125 13.8125 25.523438 13.636719 L 24.148438 12.257812 C 23.96875 12.082031 23.679688 12.082031 23.503906 12.257812 Z M 23.503906 12.257812 " fill-opacity="1" fill-rule="nonzero"/><path fill="#0097b2" d="M 24.507812 16.980469 C 24.167969 16.980469 23.847656 16.847656 23.609375 16.609375 L 21.175781 14.175781 C 20.679688 13.679688 20.679688 12.871094 21.175781 12.375 C 21.671875 11.878906 22.480469 11.878906 22.976562 12.375 L 25.410156 14.808594 C 25.648438 15.046875 25.78125 15.367188 25.78125 15.707031 C 25.78125 16.050781 25.648438 16.367188 25.410156 16.609375 C 25.167969 16.847656 24.847656 16.980469 24.507812 16.980469 Z M 21.75 12.953125 C 21.574219 13.128906 21.574219 13.417969 21.75 13.597656 L 24.183594 16.03125 C 24.363281 16.207031 24.652344 16.207031 24.832031 16.03125 C 24.914062 15.945312 24.960938 15.832031 24.960938 15.710938 C 24.960938 15.585938 24.914062 15.472656 24.832031 15.386719 L 22.398438 12.953125 C 22.21875 12.777344 21.929688 12.777344 21.75 12.953125 Z M 21.75 12.953125 " fill-opacity="1" fill-rule="nonzero"/><path fill="#0097b2" d="M 23 17.917969 C 22.671875 17.917969 22.347656 17.792969 22.101562 17.546875 L 20.238281 15.683594 C 19.742188 15.1875 19.742188 14.378906 20.238281 13.882812 C 20.734375 13.386719 21.542969 13.386719 22.039062 13.882812 L 23.898438 15.746094 C 24.394531 16.242188 24.394531 17.050781 23.898438 17.546875 C 23.652344 17.792969 23.324219 17.917969 23 17.917969 Z M 21.136719 14.328125 C 21.019531 14.328125 20.90625 14.371094 20.816406 14.460938 C 20.640625 14.640625 20.640625 14.929688 20.816406 15.105469 L 22.679688 16.96875 C 22.855469 17.144531 23.144531 17.144531 23.324219 16.96875 C 23.5 16.789062 23.5 16.5 23.324219 16.324219 L 21.460938 14.460938 C 21.371094 14.375 21.253906 14.328125 21.136719 14.328125 Z M 21.136719 14.328125 " fill-opacity="1" fill-rule="nonzero"/><path fill="#0097b2" d="M 21.414062 18.777344 C 21.074219 18.777344 20.753906 18.644531 20.515625 18.40625 L 19.378906 17.269531 C 18.882812 16.773438 18.882812 15.964844 19.378906 15.46875 C 19.617188 15.230469 19.9375 15.097656 20.277344 15.097656 C 20.621094 15.097656 20.941406 15.230469 21.179688 15.46875 L 22.3125 16.605469 C 22.554688 16.84375 22.683594 17.164062 22.683594 17.503906 C 22.683594 17.84375 22.554688 18.164062 22.3125 18.402344 C 22.074219 18.644531 21.753906 18.777344 21.414062 18.777344 Z M 20.277344 15.914062 C 20.15625 15.914062 20.042969 15.960938 19.957031 16.046875 C 19.78125 16.226562 19.78125 16.515625 19.957031 16.691406 L 21.089844 17.828125 C 21.269531 18.003906 21.558594 18.003906 21.738281 17.828125 C 21.820312 17.742188 21.867188 17.625 21.867188 17.503906 C 21.867188 17.382812 21.820312 17.269531 21.738281 17.183594 L 20.601562 16.046875 C 20.515625 15.960938 20.402344 15.914062 20.277344 15.914062 Z M 19.667969 15.757812 Z M 19.667969 15.757812 " fill-opacity="1" fill-rule="nonzero"/><g clip-path="url(#0f19d52fb7)"><path fill="#0097b2" d="M 8.199219 13.117188 C 8.128906 13.117188 8.058594 13.097656 7.992188 13.0625 L 5.464844 11.605469 C 5.371094 11.550781 5.304688 11.460938 5.277344 11.355469 C 5.25 11.25 5.261719 11.136719 5.316406 11.046875 L 10.6875 1.742188 C 10.800781 1.546875 11.050781 1.476562 11.246094 1.589844 L 13.773438 3.050781 C 13.867188 3.105469 13.9375 3.191406 13.964844 3.296875 C 13.992188 3.402344 13.976562 3.515625 13.925781 3.609375 L 8.550781 12.914062 C 8.476562 13.042969 8.339844 13.117188 8.199219 13.117188 Z M 6.230469 11.101562 L 8.050781 12.148438 L 13.011719 3.554688 L 11.195312 2.503906 Z M 6.230469 11.101562 " fill-opacity="1" fill-rule="nonzero"/></g><path fill="#0097b2" d="M 28.804688 13.828125 C 28.769531 13.828125 28.734375 13.824219 28.699219 13.816406 C 28.59375 13.789062 28.503906 13.71875 28.449219 13.625 L 23.078125 4.320312 C 22.964844 4.125 23.03125 3.875 23.226562 3.761719 L 25.753906 2.300781 C 25.847656 2.25 25.960938 2.234375 26.0625 2.261719 C 26.167969 2.289062 26.257812 2.359375 26.3125 2.453125 L 31.683594 11.757812 C 31.738281 11.851562 31.753906 11.960938 31.726562 12.066406 C 31.699219 12.171875 31.628906 12.261719 31.535156 12.316406 L 29.007812 13.773438 C 28.945312 13.808594 28.875 13.828125 28.804688 13.828125 Z M 23.988281 4.265625 L 28.953125 12.863281 L 30.773438 11.8125 L 25.808594 3.214844 Z M 23.988281 4.265625 " fill-opacity="1" fill-rule="nonzero"/><path fill="#0097b2" d="M 19.039062 10.976562 C 18.929688 10.976562 18.820312 10.933594 18.742188 10.847656 C 18.585938 10.679688 18.597656 10.421875 18.761719 10.269531 C 21.234375 7.984375 23.9375 9.230469 24.050781 9.285156 C 24.253906 9.382812 24.34375 9.625 24.246094 9.828125 C 24.148438 10.03125 23.90625 10.121094 23.703125 10.023438 C 23.605469 9.976562 21.375 8.96875 19.316406 10.867188 C 19.238281 10.941406 19.140625 10.976562 19.039062 10.976562 Z M 19.039062 10.976562 " fill-opacity="1" fill-rule="nonzero"/><g clip-path="url(#c1f22d8371)"><path fill="#0097b2" d="M 6.574219 28.128906 C 3.234375 28.128906 0.519531 25.414062 0.519531 22.074219 C 0.519531 18.738281 3.234375 16.023438 6.574219 16.023438 C 9.910156 16.023438 12.625 18.738281 12.625 22.074219 C 12.625 25.414062 9.910156 28.128906 6.574219 28.128906 Z M 6.574219 16.839844 C 3.6875 16.839844 1.335938 19.1875 1.335938 22.074219 C 1.335938 24.960938 3.6875 27.3125 6.574219 27.3125 C 9.460938 27.3125 11.808594 24.960938 11.808594 22.074219 C 11.808594 19.1875 9.460938 16.839844 6.574219 16.839844 Z M 6.574219 16.839844 " fill-opacity="1" fill-rule="nonzero"/></g><path fill="#0097b2" d="M 10.511719 26.527344 C 10.320312 26.527344 10.152344 26.398438 10.113281 26.203125 C 9.753906 24.550781 8.265625 23.351562 6.574219 23.351562 C 4.878906 23.351562 3.390625 24.550781 3.035156 26.203125 C 2.988281 26.425781 2.769531 26.566406 2.550781 26.519531 C 2.328125 26.46875 2.1875 26.253906 2.234375 26.03125 C 2.671875 24.003906 4.496094 22.535156 6.574219 22.535156 C 8.648438 22.535156 10.472656 24.003906 10.910156 26.03125 C 10.957031 26.253906 10.820312 26.46875 10.597656 26.519531 C 10.566406 26.523438 10.539062 26.527344 10.511719 26.527344 Z M 10.511719 26.527344 " fill-opacity="1" fill-rule="nonzero"/><path fill="#0097b2" d="M 6.574219 23.351562 C 5.132812 23.351562 3.960938 22.179688 3.960938 20.742188 C 3.960938 19.300781 5.132812 18.128906 6.574219 18.128906 C 8.011719 18.128906 9.183594 19.300781 9.183594 20.742188 C 9.183594 22.179688 8.011719 23.351562 6.574219 23.351562 Z M 6.574219 18.945312 C 5.585938 18.945312 4.78125 19.75 4.78125 20.738281 C 4.78125 21.730469 5.585938 22.53125 6.574219 22.53125 C 7.5625 22.53125 8.367188 21.730469 8.367188 20.738281 C 8.367188 19.75 7.5625 18.945312 6.574219 18.945312 Z M 6.574219 18.945312 " fill-opacity="1" fill-rule="nonzero"/><g clip-path="url(#0b8c5b83b2)"><path fill="#0097b2" d="M 30.429688 28.128906 C 27.09375 28.128906 24.378906 25.414062 24.378906 22.074219 C 24.378906 18.738281 27.09375 16.023438 30.429688 16.023438 C 33.769531 16.023438 36.484375 18.738281 36.484375 22.074219 C 36.484375 25.414062 33.769531 28.128906 30.429688 28.128906 Z M 30.429688 16.839844 C 27.542969 16.839844 25.195312 19.1875 25.195312 22.074219 C 25.195312 24.960938 27.542969 27.3125 30.429688 27.3125 C 33.316406 27.3125 35.667969 24.960938 35.667969 22.074219 C 35.667969 19.1875 33.316406 16.839844 30.429688 16.839844 Z M 30.429688 16.839844 " fill-opacity="1" fill-rule="nonzero"/></g><path fill="#0097b2" d="M 34.367188 26.527344 C 34.179688 26.527344 34.011719 26.398438 33.96875 26.203125 C 33.613281 24.550781 32.125 23.351562 30.429688 23.351562 C 28.738281 23.351562 27.25 24.550781 26.894531 26.203125 C 26.84375 26.425781 26.628906 26.566406 26.40625 26.519531 C 26.1875 26.46875 26.046875 26.253906 26.09375 26.03125 C 26.53125 24.003906 28.355469 22.535156 30.433594 22.535156 C 32.507812 22.535156 34.332031 24.003906 34.769531 26.03125 C 34.816406 26.253906 34.679688 26.46875 34.457031 26.519531 C 34.425781 26.523438 34.398438 26.527344 34.367188 26.527344 Z M 34.367188 26.527344 " fill-opacity="1" fill-rule="nonzero"/><path fill="#0097b2" d="M 30.429688 23.351562 C 28.992188 23.351562 27.820312 22.179688 27.820312 20.742188 C 27.820312 19.300781 28.992188 18.128906 30.429688 18.128906 C 31.871094 18.128906 33.039062 19.300781 33.039062 20.742188 C 33.039062 22.179688 31.871094 23.351562 30.429688 23.351562 Z M 30.429688 18.945312 C 29.441406 18.945312 28.636719 19.75 28.636719 20.738281 C 28.636719 21.730469 29.441406 22.53125 30.429688 22.53125 C 31.417969 22.53125 32.222656 21.730469 32.222656 20.738281 C 32.222656 19.75 31.417969 18.945312 30.429688 18.945312 Z M 30.429688 18.945312 " fill-opacity="1" fill-rule="nonzero"/><g clip-path="url(#9fce1f22ce)"><path fill="#0097b2" d="M 18.5 35.515625 C 15.164062 35.515625 12.449219 32.796875 12.449219 29.460938 C 12.449219 26.125 15.164062 23.410156 18.5 23.410156 C 21.839844 23.410156 24.554688 26.125 24.554688 29.460938 C 24.554688 32.796875 21.839844 35.515625 18.5 35.515625 Z M 18.5 24.226562 C 15.613281 24.226562 13.265625 26.574219 13.265625 29.460938 C 13.265625 32.347656 15.613281 34.695312 18.5 34.695312 C 21.390625 34.695312 23.738281 32.347656 23.738281 29.460938 C 23.738281 26.574219 21.390625 24.226562 18.5 24.226562 Z M 18.5 24.226562 " fill-opacity="1" fill-rule="nonzero"/></g><path fill="#0097b2" d="M 22.441406 33.910156 C 22.253906 33.910156 22.082031 33.78125 22.042969 33.589844 C 21.683594 31.9375 20.195312 30.734375 18.503906 30.734375 C 16.808594 30.734375 15.320312 31.9375 14.964844 33.589844 C 14.917969 33.808594 14.699219 33.949219 14.480469 33.902344 C 14.257812 33.855469 14.117188 33.636719 14.164062 33.417969 C 14.601562 31.390625 16.425781 29.917969 18.503906 29.917969 C 20.578125 29.917969 22.402344 31.390625 22.839844 33.417969 C 22.886719 33.636719 22.75 33.855469 22.527344 33.902344 C 22.496094 33.910156 22.46875 33.910156 22.441406 33.910156 Z M 22.441406 33.910156 " fill-opacity="1" fill-rule="nonzero"/><path fill="#0097b2" d="M 18.5 30.734375 C 17.0625 30.734375 15.890625 29.566406 15.890625 28.125 C 15.890625 26.6875 17.0625 25.515625 18.5 25.515625 C 19.941406 25.515625 21.113281 26.6875 21.113281 28.125 C 21.113281 29.566406 19.941406 30.734375 18.5 30.734375 Z M 18.5 26.332031 C 17.511719 26.332031 16.707031 27.136719 16.707031 28.125 C 16.707031 29.113281 17.511719 29.917969 18.5 29.917969 C 19.492188 29.917969 20.292969 29.113281 20.292969 28.125 C 20.292969 27.136719 19.492188 26.332031 18.5 26.332031 Z M 18.5 26.332031 " fill-opacity="1" fill-rule="nonzero"/></svg>