<svg xmlns="http://www.w3.org/2000/svg" xmlns:xlink="http://www.w3.org/1999/xlink" width="50" zoomAndPan="magnify" viewBox="0 0 37.5 37.499999" height="50" preserveAspectRatio="xMidYMid meet" version="1.0"><defs><clipPath id="8485b30a83"><path d="M 1.824219 1.214844 L 35.128906 1.214844 L 35.128906 35.996094 L 1.824219 35.996094 Z M 1.824219 1.214844 " clip-rule="nonzero"/></clipPath></defs><g clip-path="url(#8485b30a83)"><path fill="#000000" d="M 22.660156 30.394531 C 22.457031 30.117188 21.609375 28.96875 21.566406 28.914062 C 20.699219 27.777344 20.578125 26.355469 21.101562 25.3125 C 21.261719 24.992188 21.574219 24.699219 21.898438 24.46875 C 22.183594 24.261719 22.476562 24.105469 22.652344 24.019531 L 22.652344 17.988281 C 22.652344 17.667969 22.78125 17.359375 23.007812 17.132812 C 23.234375 16.902344 23.542969 16.777344 23.867188 16.777344 C 24.1875 16.777344 24.496094 16.902344 24.722656 17.132812 C 24.949219 17.359375 25.078125 17.667969 25.078125 17.988281 L 25.078125 20.230469 C 25.277344 20.101562 25.507812 20.03125 25.746094 20.03125 C 26.070312 20.03125 26.378906 20.15625 26.605469 20.382812 C 26.832031 20.613281 26.960938 20.917969 26.960938 21.242188 L 26.960938 21.304688 C 27.15625 21.175781 27.390625 21.101562 27.628906 21.101562 C 27.953125 21.101562 28.261719 21.230469 28.488281 21.457031 C 28.714844 21.6875 28.84375 21.992188 28.84375 22.316406 L 28.84375 22.714844 C 29.039062 22.582031 29.273438 22.511719 29.511719 22.511719 C 29.832031 22.511719 30.140625 22.640625 30.371094 22.867188 C 30.597656 23.09375 30.726562 23.402344 30.726562 23.722656 L 30.726562 28.011719 C 30.726562 28.039062 30.722656 28.066406 30.714844 28.089844 L 29.929688 30.75 L 29.824219 32.207031 L 30.175781 32.207031 C 30.324219 32.207031 30.449219 32.328125 30.449219 32.476562 L 30.449219 35.726562 C 30.449219 35.875 30.324219 35.996094 30.175781 35.996094 L 22.410156 35.996094 C 22.257812 35.996094 22.136719 35.875 22.136719 35.726562 L 22.136719 32.476562 C 22.136719 32.328125 22.257812 32.207031 22.410156 32.207031 L 22.859375 32.207031 Z M 22.652344 24.632812 C 22.519531 24.707031 22.367188 24.800781 22.214844 24.910156 C 21.964844 25.089844 21.710938 25.308594 21.585938 25.558594 C 21.148438 26.433594 21.269531 27.628906 22 28.585938 C 22.046875 28.644531 23.144531 30.128906 23.144531 30.128906 C 23.171875 30.167969 23.191406 30.214844 23.195312 30.261719 L 23.40625 32.207031 L 29.277344 32.207031 C 29.277344 32.207031 29.386719 30.683594 29.386719 30.683594 C 29.386719 30.664062 29.390625 30.644531 29.398438 30.625 C 29.398438 30.625 30.179688 27.972656 30.179688 27.972656 L 30.179688 23.722656 C 30.179688 23.546875 30.109375 23.378906 29.984375 23.253906 C 29.859375 23.125 29.6875 23.054688 29.511719 23.054688 C 29.335938 23.054688 29.164062 23.125 29.039062 23.253906 C 28.914062 23.378906 28.84375 23.546875 28.84375 23.722656 L 28.84375 24.191406 C 28.84375 24.339844 28.722656 24.464844 28.570312 24.464844 C 28.421875 24.464844 28.296875 24.339844 28.296875 24.191406 L 28.296875 22.316406 C 28.296875 22.136719 28.226562 21.96875 28.101562 21.84375 C 27.976562 21.71875 27.808594 21.648438 27.628906 21.648438 C 27.453125 21.648438 27.28125 21.71875 27.15625 21.84375 C 27.03125 21.96875 26.960938 22.136719 26.960938 22.316406 L 26.960938 23.808594 C 26.960938 23.957031 26.839844 24.078125 26.6875 24.078125 C 26.539062 24.078125 26.417969 23.957031 26.417969 23.808594 L 26.417969 21.242188 C 26.417969 21.0625 26.347656 20.894531 26.21875 20.769531 C 26.09375 20.644531 25.925781 20.574219 25.746094 20.574219 C 25.570312 20.574219 25.398438 20.644531 25.273438 20.769531 C 25.148438 20.894531 25.078125 21.0625 25.078125 21.242188 L 25.078125 23.65625 C 25.078125 23.804688 24.957031 23.925781 24.808594 23.925781 C 24.65625 23.925781 24.535156 23.804688 24.535156 23.65625 L 24.535156 17.988281 C 24.535156 17.8125 24.464844 17.640625 24.339844 17.515625 C 24.214844 17.390625 24.042969 17.320312 23.867188 17.320312 C 23.6875 17.320312 23.519531 17.390625 23.394531 17.515625 C 23.265625 17.640625 23.195312 17.8125 23.195312 17.988281 L 23.195312 24.1875 C 23.195312 24.191406 23.195312 24.191406 23.195312 24.195312 L 23.195312 26.445312 C 23.195312 26.597656 23.074219 26.71875 22.925781 26.71875 C 22.773438 26.71875 22.652344 26.597656 22.652344 26.445312 Z M 23.15625 32.75 L 22.679688 32.75 C 22.679688 32.75 22.679688 35.453125 22.679688 35.453125 L 29.902344 35.453125 C 29.902344 35.453125 29.902344 32.75 29.902344 32.75 L 29.535156 32.75 C 29.53125 32.75 29.53125 32.75 29.527344 32.75 L 23.164062 32.75 C 23.160156 32.75 23.160156 32.75 23.15625 32.75 Z M 23.683594 1.210938 C 25.28125 1.210938 26.578125 2.507812 26.578125 4.101562 C 26.578125 5.699219 25.28125 6.992188 23.683594 6.992188 C 22.085938 6.992188 20.789062 5.699219 20.789062 4.101562 C 20.789062 2.507812 22.085938 1.210938 23.683594 1.210938 Z M 23.683594 1.753906 C 22.386719 1.753906 21.332031 2.808594 21.332031 4.101562 C 21.332031 5.398438 22.386719 6.449219 23.683594 6.449219 C 24.980469 6.449219 26.035156 5.398438 26.035156 4.101562 C 26.035156 2.808594 24.980469 1.753906 23.683594 1.753906 Z M 15.132812 3.832031 C 16.730469 3.832031 18.027344 5.125 18.027344 6.722656 C 18.027344 8.316406 16.730469 9.609375 15.132812 9.609375 C 13.535156 9.609375 12.238281 8.316406 12.238281 6.722656 C 12.238281 5.125 13.535156 3.832031 15.132812 3.832031 Z M 15.132812 4.375 C 13.835938 4.375 12.78125 5.425781 12.78125 6.722656 C 12.78125 8.015625 13.835938 9.066406 15.132812 9.066406 C 16.429688 9.066406 17.484375 8.015625 17.484375 6.722656 C 17.484375 5.425781 16.429688 4.375 15.132812 4.375 Z M 32.234375 3.832031 C 33.832031 3.832031 35.128906 5.125 35.128906 6.722656 C 35.128906 8.316406 33.832031 9.609375 32.234375 9.609375 C 30.636719 9.609375 29.339844 8.316406 29.339844 6.722656 C 29.339844 5.125 30.636719 3.832031 32.234375 3.832031 Z M 32.234375 4.375 C 30.9375 4.375 29.882812 5.425781 29.882812 6.722656 C 29.882812 8.015625 30.9375 9.066406 32.234375 9.066406 C 33.53125 9.066406 34.585938 8.015625 34.585938 6.722656 C 34.585938 5.425781 33.53125 4.375 32.234375 4.375 Z M 11.007812 17.660156 C 16.074219 17.660156 20.191406 21.769531 20.191406 26.828125 C 20.191406 31.890625 16.074219 35.996094 11.007812 35.996094 C 5.941406 35.996094 1.828125 31.890625 1.828125 26.828125 C 1.828125 21.769531 5.941406 17.660156 11.007812 17.660156 Z M 11.007812 18.207031 C 6.242188 18.207031 2.371094 22.070312 2.371094 26.828125 C 2.371094 31.589844 6.242188 35.453125 11.007812 35.453125 C 15.773438 35.453125 19.644531 31.589844 19.644531 26.828125 C 19.644531 22.070312 15.773438 18.207031 11.007812 18.207031 Z M 11.007812 19.355469 C 15.136719 19.355469 18.492188 22.707031 18.492188 26.828125 C 18.492188 30.953125 15.136719 34.300781 11.007812 34.300781 C 6.878906 34.300781 3.523438 30.953125 3.523438 26.828125 C 3.523438 22.707031 6.878906 19.355469 11.007812 19.355469 Z M 11.007812 19.902344 C 7.179688 19.902344 4.070312 23.003906 4.070312 26.828125 C 4.070312 30.652344 7.179688 33.757812 11.007812 33.757812 C 14.835938 33.757812 17.945312 30.652344 17.945312 26.828125 C 17.945312 23.003906 14.835938 19.902344 11.007812 19.902344 Z M 4.707031 27.101562 C 4.554688 27.101562 4.433594 26.980469 4.433594 26.828125 C 4.433594 26.679688 4.554688 26.558594 4.707031 26.558594 L 5.851562 26.558594 C 6.003906 26.558594 6.125 26.679688 6.125 26.828125 C 6.125 26.980469 6.003906 27.101562 5.851562 27.101562 Z M 17.3125 26.558594 C 17.460938 26.558594 17.582031 26.679688 17.582031 26.828125 C 17.582031 26.980469 17.460938 27.101562 17.3125 27.101562 L 16.164062 27.101562 C 16.015625 27.101562 15.890625 26.980469 15.890625 26.828125 C 15.890625 26.679688 16.015625 26.558594 16.164062 26.558594 Z M 11.28125 33.125 C 11.28125 33.273438 11.160156 33.394531 11.007812 33.394531 C 10.859375 33.394531 10.734375 33.273438 10.734375 33.125 L 10.734375 31.976562 C 10.734375 31.828125 10.859375 31.707031 11.007812 31.707031 C 11.160156 31.707031 11.28125 31.828125 11.28125 31.976562 Z M 12.828125 29.121094 C 12.910156 29.246094 12.875 29.414062 12.746094 29.496094 C 12.621094 29.578125 12.453125 29.542969 12.371094 29.417969 L 10.78125 26.976562 C 10.75 26.933594 10.734375 26.882812 10.734375 26.828125 L 10.734375 23.035156 C 10.734375 22.886719 10.859375 22.765625 11.007812 22.765625 C 11.160156 22.765625 11.28125 22.886719 11.28125 23.035156 L 11.28125 26.75 Z M 10.734375 20.535156 C 10.734375 20.386719 10.859375 20.265625 11.007812 20.265625 C 11.160156 20.265625 11.28125 20.386719 11.28125 20.535156 L 11.28125 21.679688 C 11.28125 21.832031 11.160156 21.953125 11.007812 21.953125 C 10.859375 21.953125 10.734375 21.832031 10.734375 21.679688 Z M 22.9375 15.890625 L 22.9375 11.394531 L 22.046875 11.394531 C 21.9375 11.394531 21.839844 11.328125 21.796875 11.230469 C 21.753906 11.128906 21.777344 11.011719 21.855469 10.933594 L 23.644531 9.148438 C 23.75 9.042969 23.921875 9.042969 24.027344 9.148438 L 25.816406 10.933594 C 25.894531 11.011719 25.917969 11.128906 25.875 11.230469 C 25.832031 11.328125 25.734375 11.394531 25.621094 11.394531 L 24.734375 11.394531 L 24.734375 15.890625 C 24.734375 16.039062 24.609375 16.164062 24.460938 16.164062 L 23.210938 16.164062 C 23.058594 16.164062 22.9375 16.039062 22.9375 15.890625 Z M 23.480469 15.617188 L 24.1875 15.617188 L 24.1875 11.125 C 24.1875 10.976562 24.308594 10.851562 24.460938 10.851562 L 24.964844 10.851562 C 24.964844 10.851562 23.835938 9.722656 23.835938 9.722656 L 22.703125 10.851562 L 23.210938 10.851562 C 23.359375 10.851562 23.480469 10.976562 23.480469 11.125 Z M 26.214844 16.289062 L 28.46875 12.394531 L 27.695312 11.953125 C 27.601562 11.894531 27.546875 11.789062 27.5625 11.679688 C 27.578125 11.570312 27.65625 11.480469 27.761719 11.453125 L 30.203125 10.800781 C 30.347656 10.761719 30.5 10.847656 30.539062 10.992188 L 31.191406 13.429688 C 31.21875 13.535156 31.183594 13.648438 31.09375 13.714844 C 31.007812 13.785156 30.886719 13.789062 30.792969 13.738281 L 30.023438 13.292969 L 27.773438 17.183594 C 27.695312 17.3125 27.53125 17.359375 27.398438 17.285156 L 26.316406 16.660156 C 26.1875 16.585938 26.140625 16.417969 26.214844 16.289062 Z M 26.824219 16.324219 L 27.4375 16.675781 L 29.6875 12.785156 C 29.761719 12.65625 29.929688 12.609375 30.058594 12.683594 L 30.496094 12.9375 C 30.496094 12.9375 30.082031 11.394531 30.082031 11.394531 L 28.539062 11.808594 L 28.976562 12.0625 C 29.105469 12.136719 29.148438 12.300781 29.074219 12.433594 Z M 19.898438 17.183594 L 17.648438 13.292969 L 16.878906 13.738281 C 16.78125 13.789062 16.664062 13.785156 16.574219 13.714844 C 16.488281 13.648438 16.449219 13.535156 16.476562 13.429688 L 17.132812 10.992188 C 17.171875 10.847656 17.320312 10.761719 17.464844 10.800781 L 19.90625 11.453125 C 20.015625 11.480469 20.09375 11.570312 20.109375 11.679688 C 20.121094 11.789062 20.070312 11.894531 19.972656 11.953125 L 19.203125 12.394531 L 21.453125 16.289062 C 21.527344 16.417969 21.484375 16.585938 21.355469 16.660156 L 20.269531 17.285156 C 20.140625 17.359375 19.972656 17.3125 19.898438 17.183594 Z M 20.234375 16.675781 L 20.847656 16.324219 L 18.59375 12.433594 C 18.519531 12.300781 18.566406 12.136719 18.695312 12.0625 L 19.132812 11.808594 C 19.132812 11.808594 17.589844 11.394531 17.589844 11.394531 L 17.175781 12.9375 L 17.613281 12.683594 C 17.742188 12.609375 17.90625 12.65625 17.984375 12.785156 Z M 20.234375 16.675781 " fill-opacity="1" fill-rule="evenodd"/></g></svg>