<svg width="50" height="50" viewBox="0 0 50 50" fill="none" xmlns="http://www.w3.org/2000/svg">
<g id="streamline:customer-support-1">
<path id="Vector" d="M12.6923 25.001V16.9091C12.7163 15.3185 13.054 13.7482 13.686 12.2884C14.3179 10.8285 15.2317 9.50765 16.3751 8.40153C17.5184 7.29542 18.8688 6.42576 20.3488 5.8424C21.8288 5.25903 23.4094 4.97343 25 5.00194C26.5906 4.97343 28.1712 5.25903 29.6512 5.8424C31.1312 6.42576 32.4816 7.29542 33.6249 8.40153C34.7683 9.50765 35.6821 10.8285 36.314 12.2884C36.946 13.7482 37.2837 15.3185 37.3077 16.9091V25.001M31.1538 41.154C32.7859 41.154 34.3512 40.5057 35.5053 39.3517C36.6593 38.1977 37.3077 36.6325 37.3077 35.0005V28.0777M31.1538 41.154C31.1538 42.174 30.7486 43.1523 30.0273 43.8735C29.306 44.5948 28.3278 45 27.3077 45H22.6923C21.6722 45 20.694 44.5948 19.9727 43.8735C19.2514 43.1523 18.8462 42.174 18.8462 41.154C18.8462 40.134 19.2514 39.1558 19.9727 38.4345C20.694 37.7133 21.6722 37.3081 22.6923 37.3081H27.3077C28.3278 37.3081 29.306 37.7133 30.0273 38.4345C30.7486 39.1558 31.1538 40.134 31.1538 41.154ZM8.07692 20.3858H11.1538C11.5619 20.3858 11.9532 20.5479 12.2417 20.8364C12.5302 21.1249 12.6923 21.5162 12.6923 21.9242V31.1545C12.6923 31.5625 12.5302 31.9538 12.2417 32.2423C11.9532 32.5308 11.5619 32.6929 11.1538 32.6929H8.07692C7.26087 32.6929 6.47824 32.3687 5.90121 31.7917C5.32417 31.2147 5 30.4321 5 29.6161V23.4626C5 22.6466 5.32417 21.864 5.90121 21.287C6.47824 20.71 7.26087 20.3858 8.07692 20.3858ZM41.9231 32.6929H38.8462C38.4381 32.6929 38.0468 32.5308 37.7583 32.2423C37.4698 31.9538 37.3077 31.5625 37.3077 31.1545V21.9242C37.3077 21.5162 37.4698 21.1249 37.7583 20.8364C38.0468 20.5479 38.4381 20.3858 38.8462 20.3858H41.9231C42.7391 20.3858 43.5218 20.71 44.0988 21.287C44.6758 21.864 45 22.6466 45 23.4626V29.6161C45 30.4321 44.6758 31.2147 44.0988 31.7917C43.5218 32.3687 42.7391 32.6929 41.9231 32.6929Z" stroke="#F1553F" stroke-width="2.5" stroke-linecap="round" stroke-linejoin="round"/>
</g>
</svg>
