<svg width="50" height="50" viewBox="0 0 50 50" fill="none" xmlns="http://www.w3.org/2000/svg">
<path d="M14.2285 31.6L21.2571 25.3857V44.0215M35.7749 37.8107L28.7428 44.0215V25.3857" stroke="#248EC8" stroke-width="2.9" stroke-linecap="round" stroke-linejoin="round"/>
<path d="M14.0001 38.7215C11.0233 38.8538 8.11299 37.8158 5.89186 35.8296C3.67074 33.8433 2.31527 31.0666 2.11552 28.0936C1.91576 25.1206 2.88759 22.1875 4.82303 19.922C6.75848 17.6565 9.50379 16.2385 12.4715 15.9715C12.6271 15.9749 12.7805 15.9337 12.9134 15.8527C13.0463 15.7717 13.1533 15.6542 13.2215 15.5143C14.2527 12.5283 16.2763 9.98588 18.9548 8.31095C21.6334 6.63602 24.8051 5.92975 27.9412 6.30986C31.0774 6.68998 33.9885 8.13351 36.1893 10.3998C38.3902 12.6662 39.7478 15.6184 40.0358 18.7643C40.0601 18.9298 40.1311 19.085 40.2406 19.2115C40.35 19.3381 40.4933 19.4307 40.6536 19.4786C42.6351 19.9446 44.421 21.0191 45.7609 22.5513C47.1008 24.0836 47.9276 25.9968 48.1253 28.0226C48.323 30.0485 47.8817 32.0854 46.8633 33.8478C45.8449 35.6102 44.3004 37.0097 42.4465 37.85" stroke="#248EC8" stroke-width="2.9" stroke-linecap="round" stroke-linejoin="round"/>
</svg>
