<svg width="50" height="50" viewBox="0 0 50 50" fill="none" xmlns="http://www.w3.org/2000/svg">
<g id="carbon:workflow-automation">
<path id="Vector" d="M25 42.1875C19.375 42.1875 13.9062 39.375 10.625 34.375H18.75V31.25H6.25V43.75H9.375V37.9688C13.2812 42.6562 18.9062 45.3125 25 45.3125V42.1875ZM48.4375 35.9375V32.8125H45.1562C45 31.875 44.5312 30.9375 44.0625 30L46.4062 27.6563L44.2188 25.4687L41.875 27.8125C41.0938 27.3437 40.1562 26.875 39.0625 26.7188V23.4375H35.9375V26.7188C35 26.875 34.0625 27.3437 33.125 27.8125L30.7813 25.4687L28.5937 27.6563L30.9375 30C30.4687 30.7813 30 31.7188 29.8438 32.8125H26.5625V35.9375H29.8438C30 36.875 30.4687 37.8125 30.9375 38.75L28.5937 41.0938L30.7813 43.2812L33.125 40.9375C33.9063 41.4062 34.8438 41.875 35.9375 42.0312V45.3125H39.0625V42.0312C40 41.875 40.9375 41.4062 41.875 40.9375L44.2188 43.2812L46.4062 41.0938L44.0625 38.75C44.5312 37.9688 45 37.0312 45.1562 35.9375H48.4375ZM37.5 39.0625C34.8438 39.0625 32.8125 37.0312 32.8125 34.375C32.8125 31.7188 34.8438 29.6875 37.5 29.6875C40.1562 29.6875 42.1875 31.7188 42.1875 34.375C42.1875 37.0312 40.1562 39.0625 37.5 39.0625ZM31.25 15.625H39.375C34.2188 7.65625 23.5938 5.46875 15.625 10.625C10.7812 13.75 7.8125 19.2188 7.8125 25H4.6875C4.6875 13.75 13.75 4.6875 25 4.6875C31.0938 4.6875 36.7188 7.34375 40.625 12.0312V6.25H43.75V18.75H31.25V15.625Z" fill="#248EC8"/>
</g>
</svg>
