<svg width="50" height="50" viewBox="0 0 50 50" fill="none" xmlns="http://www.w3.org/2000/svg">
<g id="mdi:account-convert-outline">
<path id="Vector" d="M25 4L23.8402 4.0525L30.5356 10.72L32.9079 8.375C38.6192 11.1225 42.7314 16.67 43.364 23.25H46C45.1038 12.47 36.0536 4 25 4ZM25 11C21.6084 11 18.8494 13.7475 18.8494 17.125C18.8494 20.5025 21.6084 23.25 25 23.25C28.3916 23.25 31.1506 20.5025 31.1506 17.125C31.1506 13.7475 28.3916 11 25 11ZM25 14.5C26.4586 14.5 27.636 15.6725 27.636 17.125C27.636 18.5775 26.4586 19.75 25 19.75C23.5414 19.75 22.364 18.5775 22.364 17.125C22.364 15.6725 23.5414 14.5 25 14.5ZM4 26.75C4.89623 37.53 13.9464 46 25 46L26.1598 45.9475L19.4644 39.28L17.092 41.625C11.3808 38.895 7.26862 33.33 6.63598 26.75H4ZM25 26.75C18.1992 26.75 12.6987 29.4975 12.6987 32.875V35.5H37.3013V32.875C37.3013 29.4975 31.8008 26.75 25 26.75ZM25 30.25C28.7079 30.25 31.3439 31.1775 32.7146 32H17.2854C18.6561 31.1775 21.292 30.25 25 30.25Z" fill="#24B768"/>
</g>
</svg>
