<svg width="50" height="50" viewBox="0 0 50 50" fill="none" xmlns="http://www.w3.org/2000/svg">
<g clip-path="url(#clip0_332_121)">
<path d="M24.7627 45.6698H10.8665C9.63796 45.6698 8.45977 45.1817 7.59108 44.3131C6.7224 43.4444 6.23438 42.2662 6.23438 41.0377V13.2451C6.23438 12.0166 6.7224 10.8384 7.59108 9.96975C8.45977 9.10107 9.63796 8.61305 10.8665 8.61305H38.659C39.8875 8.61305 41.0657 9.10107 41.9344 9.96975C42.8031 10.8384 43.2911 12.0166 43.2911 13.2451V24.8254M34.0269 3.98096V13.2451M15.4986 3.98096V13.2451M6.23438 22.5093H43.2911M40.9774 45.6698C39.7489 45.6698 38.5707 45.1817 37.702 44.3131C36.8333 43.4444 36.3453 42.2662 36.3453 41.0377C36.3453 39.8092 36.8333 38.631 37.702 37.7623C38.5707 36.8936 39.7489 36.4056 40.9774 36.4056M40.9774 45.6698C42.2059 45.6698 43.3841 45.1817 44.2527 44.3131C45.1214 43.4444 45.6094 42.2662 45.6094 41.0377C45.6094 39.8092 45.1214 38.631 44.2527 37.7623C43.3841 36.8936 42.2059 36.4056 40.9774 36.4056M40.9774 45.6698V49.1438M40.9774 36.4056V32.9315M47.9973 36.9846L44.9887 38.7216M36.9683 43.3537L33.9574 45.0907M33.9574 36.9846L36.9683 38.7216M44.9887 43.3537L47.9996 45.0907" stroke="#F1553F" stroke-width="2" stroke-linecap="round" stroke-linejoin="round"/>
</g>
<defs>
<clipPath id="clip0_332_121">
<rect width="50" height="50" fill="white"/>
</clipPath>
</defs>
</svg>
