<svg width="46" height="36" viewBox="0 0 46 36" fill="none" xmlns="http://www.w3.org/2000/svg">
<path d="M40.7077 1.33325H5.29102C3.56513 1.33325 2.16602 2.73236 2.16602 4.45825V31.5416C2.16602 33.2675 3.56513 34.6666 5.29102 34.6666H40.7077C42.4336 34.6666 43.8327 33.2675 43.8327 31.5416V4.45825C43.8327 2.73236 42.4336 1.33325 40.7077 1.33325Z" stroke="#F1553F" stroke-width="2.5" stroke-linejoin="round"/>
<path d="M2.16602 4.45825C2.16602 3.62945 2.49526 2.83459 3.08131 2.24854C3.66736 1.66249 4.46221 1.33325 5.29102 1.33325H40.7077C41.5365 1.33325 42.3313 1.66249 42.9174 2.24854C43.5034 2.83459 43.8327 3.62945 43.8327 4.45825V13.8333H2.16602V4.45825Z" stroke="#F1553F" stroke-width="2.5"/>
<path d="M6.33333 7.58317C6.33333 6.43258 7.26607 5.49984 8.41667 5.49984C9.56726 5.49984 10.5 6.43258 10.5 7.58317C10.5 8.73376 9.56726 9.6665 8.41667 9.6665C7.26607 9.6665 6.33333 8.73376 6.33333 7.58317Z" fill="#F1553F"/>
<path d="M12.5833 7.58317C12.5833 6.43258 13.5161 5.49984 14.6667 5.49984C15.8173 5.49984 16.75 6.43258 16.75 7.58317C16.75 8.73376 15.8173 9.6665 14.6667 9.6665C13.5161 9.6665 12.5833 8.73376 12.5833 7.58317Z" fill="#F1553F"/>
</svg>
