<svg width="50" height="44" viewBox="0 0 50 44" fill="none" xmlns="http://www.w3.org/2000/svg">
<path d="M21.428 33.2857L17.8566 42.2143M28.5709 33.2857L32.1423 42.2143M14.2852 42.2143H35.7137M48.2137 31.5V2.92854C48.2137 2.45494 48.0256 2.00073 47.6907 1.66585C47.3558 1.33096 46.9016 1.14282 46.428 1.14282H3.57087C2.62444 1.14282 1.78516 1.98211 1.78516 2.92854V31.5C1.78516 32.4464 2.62444 33.2857 3.57087 33.2857H46.428C47.3744 33.2857 48.2137 32.4464 48.2137 31.5Z" stroke="#248EC8" stroke-width="2" stroke-linecap="round" stroke-linejoin="round"/>
<path d="M17.8571 11.8572L12.5 17.2143L17.8571 22.5715M32.1429 11.8572L37.5 17.2143L32.1429 22.5715" stroke="#248EC8" stroke-width="2" stroke-linecap="round" stroke-linejoin="round"/>
</svg>
