<svg width="44" height="70" viewBox="0 0 44 70" fill="none" xmlns="http://www.w3.org/2000/svg">
<g clip-path="url(#clip0_608_1242)">
<path d="M37.6948 0.63855C38.0839 0.745282 38.4731 0.843475 38.858 0.958745C41.8331 1.85529 43.9304 4.55347 43.978 7.63589C44.0169 10.3981 43.991 13.1603 43.991 15.9226C43.991 31.3047 43.991 46.6869 43.991 62.0691C43.991 65.5529 42.0839 68.2724 38.9445 69.2799C38.1142 69.5446 37.2623 69.6385 36.3931 69.6385C26.7715 69.6343 17.1499 69.6386 7.52826 69.6343C3.15205 69.6343 0.00826489 66.5391 0.00394056 62.2015C-0.00470809 52.412 -0.000383763 42.6226 -0.000383763 32.8331C-0.000383763 24.7044 -0.000383763 16.5758 -0.000383763 8.44705C-0.000383763 4.22901 2.0234 1.70587 6.19205 0.715397C6.23097 0.706858 6.26556 0.664165 6.30016 0.63855C16.765 0.63855 27.2299 0.63855 37.6948 0.63855ZM1.63854 35.1343C1.63854 44.1638 1.63421 53.189 1.63854 62.2186C1.63854 65.6425 4.06016 68.0162 7.52394 68.0162C17.1672 68.0162 26.8148 68.0205 36.458 68.0162C39.9261 68.0162 42.3434 65.6425 42.3477 62.2186C42.3564 44.1638 42.3521 26.1048 42.3477 8.05001C42.3477 4.62178 39.9348 2.26087 36.458 2.26087C26.7888 2.2566 17.1239 2.26087 7.45475 2.26087C7.11313 2.26087 6.77151 2.26941 6.43421 2.32491C3.54124 2.80734 1.64286 5.0359 1.63854 7.98597C1.62989 17.0368 1.63854 26.0877 1.63854 35.1385V35.1343Z" fill="#198CCA"/>
<path d="M3.40332 35.1428C3.40332 26.1176 3.40332 17.0881 3.40332 8.06283C3.40332 5.95381 4.65305 4.36564 6.599 4.06252C7.31251 3.95152 8.05197 4.00702 8.77845 4.00275C10.0066 3.99422 11.2347 3.99422 12.4628 4.00275C13.2801 4.00702 13.5266 4.25037 13.5395 5.03592C13.5439 5.39454 13.5395 5.75316 13.5395 6.11178C13.5568 7.09371 13.8898 7.46514 14.8801 7.66152C15.4422 7.77252 16.0087 7.78533 16.5795 7.78533C20.1947 7.78533 23.8141 7.78533 27.4293 7.78533C28.0217 7.78533 28.6098 7.77252 29.1936 7.64445C30.0368 7.46087 30.3612 7.11079 30.413 6.26974C30.439 5.82147 30.4217 5.37319 30.426 4.92492C30.426 4.32722 30.7244 3.99849 31.3428 3.99849C33.2325 3.99849 35.1179 3.96006 37.0076 4.01983C38.8844 4.0796 40.4585 5.70193 40.5622 7.5676C40.5752 7.76825 40.5709 7.97318 40.5709 8.17384C40.5709 26.1389 40.5709 44.104 40.5795 62.0692C40.5795 63.3798 40.212 64.4984 39.1828 65.3565C38.4606 65.9627 37.6044 66.2445 36.666 66.2445C26.8844 66.2488 17.1071 66.2573 7.32548 66.2445C4.97305 66.2445 3.41197 64.5838 3.41197 62.1545C3.40764 53.1506 3.41197 44.1467 3.41197 35.1386L3.40332 35.1428ZM5.04224 35.0959C5.04224 44.0528 5.04224 53.014 5.04224 61.971C5.04224 63.8324 5.85521 64.635 7.73629 64.635C17.2195 64.635 26.7028 64.635 36.186 64.635C38.1363 64.635 38.9276 63.8622 38.9276 61.9539C38.9276 49.6968 38.9276 37.4354 38.9276 25.1784C38.9276 19.4746 38.9276 13.7709 38.9276 8.07137C38.9276 6.49174 38.0412 5.62935 36.4325 5.62081C35.2044 5.61654 33.9763 5.64216 32.7482 5.608C32.2509 5.59519 32.0606 5.68912 32.0347 6.24839C31.9612 8.00733 31.079 8.94231 29.332 9.27104C28.7482 9.37777 28.1601 9.40766 27.5676 9.40766C24.9514 9.40766 22.3352 9.40766 19.7233 9.40766C18.3828 9.40766 17.0379 9.43327 15.6974 9.38631C13.613 9.31373 11.7709 8.45134 11.9049 5.96235C11.9266 5.56104 11.6541 5.61654 11.4076 5.61654C10.1795 5.61654 8.9471 5.68485 7.72332 5.59946C6.16224 5.48846 5.00332 6.53443 5.01197 8.28484C5.06819 17.2204 5.03791 26.156 5.03791 35.0916L5.04224 35.0959Z" fill="#198CCA"/>
<path d="M21.9977 3.99848C22.9491 3.99848 23.9048 3.99848 24.8561 3.99848C25.401 3.99848 25.7988 4.18206 25.8421 4.77549C25.8767 5.29634 25.5091 5.61227 24.8518 5.61227C22.9448 5.62081 21.0377 5.62081 19.1307 5.61227C18.4821 5.61227 18.0929 5.29207 18.0972 4.79684C18.0972 4.29733 18.4734 4.00275 19.1394 3.99848C20.0907 3.98995 21.0464 3.99848 21.9977 3.99848Z" fill="#198CCA"/>
<path d="M22.0671 14.6375C25.8206 14.6375 29.5698 14.6375 33.3233 14.6375C33.5265 14.6375 33.7341 14.6247 33.9373 14.6546C34.3179 14.7101 34.5514 14.9449 34.5989 15.3206C34.6508 15.7219 34.4779 16.0122 34.093 16.1787C33.8292 16.2897 33.5568 16.2555 33.2844 16.2555C25.7557 16.2555 18.2314 16.2555 10.7027 16.2555C10.4303 16.2555 10.1579 16.2897 9.89409 16.1744C9.50922 16.0079 9.34057 15.7176 9.39679 15.3163C9.44868 14.9406 9.67787 14.7101 10.0627 14.6546C10.266 14.629 10.4692 14.6375 10.6768 14.6375C14.4735 14.6375 18.2703 14.6375 22.0671 14.6375Z" fill="#198CCA"/>
<path d="M21.9245 60.7755C18.197 60.7755 14.4651 60.7755 10.7375 60.7755C10.5083 60.7755 10.2791 60.7841 10.0586 60.7499C9.63912 60.6901 9.41426 60.4254 9.38831 60.0199C9.36669 59.6143 9.56561 59.3197 9.96777 59.2172C10.184 59.1617 10.4175 59.1617 10.6424 59.1617C18.2143 59.1617 25.7861 59.1617 33.358 59.1617C33.5829 59.1617 33.8164 59.1617 34.0326 59.2215C34.4391 59.3282 34.6337 59.6271 34.6034 60.0284C34.5775 60.434 34.3483 60.6987 33.9289 60.7499C33.704 60.7798 33.4748 60.7713 33.2499 60.7713C29.4748 60.7713 25.6997 60.7713 21.9245 60.7713V60.7755Z" fill="#198CCA"/>
</g>
<defs>
<clipPath id="clip0_608_1242">
<rect width="44" height="69" fill="white" transform="translate(0 0.63855)"/>
</clipPath>
</defs>
</svg>
