<svg xmlns="http://www.w3.org/2000/svg" xmlns:xlink="http://www.w3.org/1999/xlink" width="50" zoomAndPan="magnify" viewBox="0 0 37.5 37.499999" height="50" preserveAspectRatio="xMidYMid meet" version="1.0"><defs><clipPath id="e77d2844cc"><path d="M 0.644531 21 L 34 21 L 34 34.886719 L 0.644531 34.886719 Z M 0.644531 21 " clip-rule="nonzero"/></clipPath><clipPath id="6697063a0e"><path d="M 10 2.320312 L 36.171875 2.320312 L 36.171875 23 L 10 23 Z M 10 2.320312 " clip-rule="nonzero"/></clipPath></defs><g clip-path="url(#e77d2844cc)"><path fill="#000000" d="M 32.199219 22.785156 C 31.507812 22.421875 30.675781 22.476562 30.007812 22.953125 L 25.347656 26.546875 C 24.875 25.984375 23.875 25.734375 22.792969 25.480469 C 21.351562 25.144531 19.378906 24.695312 17.160156 23.429688 C 14.605469 22 12.527344 22.082031 11.082031 22.5625 C 10.804688 21.859375 10.167969 21.382812 9.390625 21.382812 L 3.976562 21.382812 C 3.671875 21.382812 3.421875 21.632812 3.421875 21.941406 C 3.421875 22.25 3.671875 22.503906 3.976562 22.503906 L 6.753906 22.503906 L 6.753906 32.609375 L 1.203125 32.609375 C 0.898438 32.609375 0.648438 32.863281 0.648438 33.171875 C 0.648438 33.480469 0.898438 33.734375 1.203125 33.734375 L 9.390625 33.734375 C 10.195312 33.734375 10.886719 33.171875 11.109375 32.441406 L 13.023438 31.824219 C 13.273438 31.742188 13.550781 31.769531 13.800781 31.882812 L 19.710938 34.632812 C 20.074219 34.800781 20.460938 34.886719 20.851562 34.886719 C 21.378906 34.886719 21.90625 34.746094 22.347656 34.4375 C 22.347656 34.4375 22.375 34.40625 22.375 34.40625 L 32.421875 26.660156 C 33.058594 26.210938 33.449219 25.480469 33.394531 24.667969 C 33.335938 23.851562 32.921875 23.148438 32.199219 22.785156 Z M 10.082031 31.882812 C 10.082031 32.300781 9.777344 32.640625 9.390625 32.640625 L 7.863281 32.640625 L 7.863281 22.53125 L 9.390625 22.53125 C 9.777344 22.53125 10.082031 22.871094 10.082031 23.289062 Z M 31.785156 25.734375 C 31.785156 25.734375 31.757812 25.761719 31.757812 25.761719 L 21.738281 33.507812 C 21.265625 33.820312 20.683594 33.847656 20.183594 33.621094 L 14.273438 30.871094 C 13.773438 30.644531 13.21875 30.589844 12.691406 30.785156 L 11.195312 31.234375 L 11.195312 23.710938 C 12.414062 23.234375 14.21875 23.09375 16.605469 24.441406 C 18.964844 25.761719 21.015625 26.238281 22.542969 26.601562 C 24.234375 26.996094 24.570312 27.164062 24.511719 27.5 C 24.429688 27.980469 24.125 28.371094 23.625 28.652344 C 22.292969 29.355469 19.960938 28.988281 17.410156 27.699219 C 17.132812 27.558594 16.800781 27.671875 16.660156 27.949219 C 16.519531 28.230469 16.632812 28.570312 16.910156 28.707031 C 18.769531 29.636719 20.488281 30.140625 21.960938 30.140625 C 22.792969 30.140625 23.515625 29.972656 24.125 29.664062 C 24.929688 29.242188 25.429688 28.597656 25.59375 27.8125 L 30.703125 23.878906 C 31.007812 23.65625 31.394531 23.628906 31.726562 23.824219 C 32.0625 23.992188 32.285156 24.359375 32.3125 24.777344 C 32.3125 25.117188 32.117188 25.507812 31.785156 25.734375 Z M 31.785156 25.734375 " fill-opacity="1" fill-rule="nonzero"/></g><g clip-path="url(#6697063a0e)"><path fill="#000000" d="M 35.613281 12.988281 L 34.808594 12.988281 L 32.394531 5.828125 C 32.839844 5.464844 33.144531 4.902344 33.144531 4.285156 C 33.144531 3.191406 32.285156 2.320312 31.199219 2.320312 C 30.3125 2.320312 29.589844 2.910156 29.34375 3.722656 L 24.984375 3.722656 C 24.734375 2.910156 24.015625 2.320312 23.125 2.320312 C 22.238281 2.320312 21.515625 2.910156 21.265625 3.722656 L 16.9375 3.722656 C 16.6875 2.910156 15.964844 2.320312 15.078125 2.320312 C 13.996094 2.320312 13.136719 3.191406 13.136719 4.285156 C 13.136719 4.902344 13.414062 5.464844 13.886719 5.828125 L 11.441406 12.988281 L 10.636719 12.988281 C 10.332031 12.988281 10.082031 13.238281 10.082031 13.550781 C 10.082031 16.328125 12.332031 18.601562 15.078125 18.601562 C 17.824219 18.601562 20.074219 16.328125 20.074219 13.550781 C 20.074219 13.238281 19.824219 12.988281 19.519531 12.988281 L 18.714844 12.988281 L 16.300781 5.828125 C 16.605469 5.574219 16.855469 5.238281 16.964844 4.847656 L 21.292969 4.847656 C 21.488281 5.492188 21.988281 5.96875 22.597656 6.164062 L 22.597656 16.917969 L 20.65625 16.917969 C 20.046875 16.917969 19.546875 17.421875 19.546875 18.039062 L 19.546875 19.164062 L 19.269531 19.164062 C 18.65625 19.164062 18.160156 19.667969 18.160156 20.285156 L 18.160156 21.972656 C 18.160156 22.28125 18.410156 22.53125 18.714844 22.53125 C 19.019531 22.53125 19.269531 22.28125 19.269531 21.972656 L 19.269531 20.285156 L 27.039062 20.285156 L 27.039062 21.972656 C 27.039062 22.28125 27.289062 22.53125 27.59375 22.53125 C 27.898438 22.53125 28.148438 22.28125 28.148438 21.972656 L 28.148438 20.285156 C 28.148438 19.667969 27.648438 19.164062 27.039062 19.164062 L 26.761719 19.164062 L 26.761719 18.039062 C 26.761719 17.421875 26.261719 16.917969 25.652344 16.917969 L 23.707031 16.917969 L 23.707031 6.164062 C 24.347656 5.96875 24.820312 5.464844 25.011719 4.847656 L 29.34375 4.847656 C 29.453125 5.238281 29.703125 5.574219 30.007812 5.828125 L 27.539062 12.988281 L 26.734375 12.988281 C 26.429688 12.988281 26.179688 13.238281 26.179688 13.550781 C 26.179688 16.328125 28.425781 18.601562 31.171875 18.601562 C 33.921875 18.601562 36.167969 16.328125 36.167969 13.550781 C 36.167969 13.238281 35.917969 12.988281 35.613281 12.988281 Z M 15.078125 3.441406 C 15.550781 3.441406 15.910156 3.808594 15.910156 4.285156 C 15.910156 4.761719 15.550781 5.125 15.078125 5.125 C 14.605469 5.125 14.246094 4.761719 14.246094 4.285156 C 14.246094 3.808594 14.605469 3.441406 15.078125 3.441406 Z M 18.9375 14.109375 C 18.65625 16.019531 17.046875 17.480469 15.078125 17.480469 C 13.109375 17.480469 11.5 16.019531 11.222656 14.109375 Z M 17.519531 12.988281 L 12.636719 12.988281 L 14.910156 6.25 C 14.96875 6.25 15.023438 6.25 15.078125 6.25 C 15.132812 6.25 15.1875 6.25 15.246094 6.25 Z M 25.625 18.039062 L 25.625 19.164062 L 20.628906 19.164062 L 20.628906 18.039062 Z M 23.125 5.125 C 22.652344 5.125 22.292969 4.761719 22.292969 4.285156 C 22.292969 3.808594 22.652344 3.441406 23.125 3.441406 C 23.597656 3.441406 23.957031 3.808594 23.957031 4.285156 C 23.957031 4.761719 23.597656 5.125 23.125 5.125 Z M 31.171875 3.441406 C 31.644531 3.441406 32.007812 3.808594 32.007812 4.285156 C 32.007812 4.761719 31.644531 5.125 31.171875 5.125 C 30.703125 5.125 30.339844 4.761719 30.339844 4.285156 C 30.339844 3.808594 30.703125 3.441406 31.171875 3.441406 Z M 31.007812 6.25 C 31.0625 6.25 31.117188 6.25 31.171875 6.25 C 31.230469 6.25 31.285156 6.25 31.339844 6.25 L 33.617188 12.988281 L 28.703125 12.988281 Z M 31.171875 17.480469 C 29.230469 17.480469 27.59375 16.019531 27.316406 14.109375 L 35.003906 14.109375 C 34.753906 16.019531 33.117188 17.480469 31.171875 17.480469 Z M 31.171875 17.480469 " fill-opacity="1" fill-rule="nonzero"/></g></svg>