<svg xmlns="http://www.w3.org/2000/svg" xmlns:xlink="http://www.w3.org/1999/xlink" width="50" zoomAndPan="magnify" viewBox="0 0 37.5 37.499999" height="50" preserveAspectRatio="xMidYMid meet" version="1.0"><defs><clipPath id="07e32819c7"><path d="M 0 1.242188 L 36 1.242188 L 36 36 L 0 36 Z M 0 1.242188 " clip-rule="nonzero"/></clipPath></defs><g clip-path="url(#07e32819c7)"><path fill="#0097b2" d="M 18.472656 35.402344 C 18.472656 35.710938 18.222656 35.960938 17.914062 35.960938 C 17.890625 35.960938 17.871094 35.960938 17.851562 35.960938 C 14.167969 35.960938 10.648438 34.816406 7.664062 32.648438 C 3.914062 29.921875 1.449219 25.898438 0.726562 21.320312 C 0 16.742188 1.101562 12.15625 3.828125 8.40625 C 5.644531 5.90625 8.058594 3.964844 10.859375 2.730469 L 9.582031 2.410156 C 9.285156 2.335938 9.101562 2.03125 9.175781 1.734375 C 9.253906 1.433594 9.554688 1.25 9.855469 1.324219 L 12.859375 2.078125 C 13.027344 2.121094 13.167969 2.238281 13.238281 2.394531 C 13.304688 2.550781 13.300781 2.734375 13.21875 2.886719 L 11.769531 5.621094 C 11.667969 5.8125 11.472656 5.917969 11.273438 5.917969 C 11.183594 5.917969 11.09375 5.898438 11.011719 5.855469 C 10.738281 5.710938 10.632812 5.371094 10.777344 5.097656 L 11.542969 3.65625 C 8.824219 4.800781 6.484375 6.660156 4.734375 9.066406 C 2.183594 12.574219 1.152344 16.863281 1.832031 21.144531 C 2.507812 25.429688 4.8125 29.191406 8.320312 31.742188 C 11.128906 33.78125 14.445312 34.851562 17.910156 34.84375 C 18.21875 34.84375 18.46875 35.09375 18.472656 35.402344 Z M 35.003906 15.898438 C 34.28125 11.320312 31.816406 7.296875 28.066406 4.574219 C 25.082031 2.402344 21.5625 1.257812 17.882812 1.257812 C 17.859375 1.257812 17.839844 1.257812 17.816406 1.257812 C 17.507812 1.257812 17.257812 1.507812 17.257812 1.820312 C 17.261719 2.128906 17.511719 2.375 17.820312 2.375 C 21.285156 2.363281 24.597656 3.4375 27.410156 5.476562 C 34.648438 10.742188 36.257812 20.914062 30.996094 28.152344 C 29.246094 30.558594 26.90625 32.417969 24.1875 33.5625 L 24.953125 32.121094 C 25.097656 31.847656 24.992188 31.511719 24.71875 31.363281 C 24.445312 31.21875 24.105469 31.324219 23.960938 31.597656 L 22.511719 34.335938 C 22.429688 34.484375 22.421875 34.667969 22.492188 34.824219 C 22.5625 34.980469 22.703125 35.097656 22.867188 35.140625 L 25.875 35.894531 C 25.917969 35.90625 25.964844 35.910156 26.011719 35.910156 C 26.261719 35.910156 26.488281 35.742188 26.554688 35.484375 C 26.628906 35.1875 26.445312 34.882812 26.144531 34.808594 L 24.871094 34.488281 C 27.671875 33.253906 30.085938 31.308594 31.902344 28.8125 C 34.628906 25.0625 35.730469 20.476562 35.003906 15.898438 Z M 23.402344 28.1875 C 22.558594 28.675781 21.660156 29.046875 20.722656 29.296875 L 20.042969 31.054688 C 19.960938 31.273438 19.753906 31.414062 19.523438 31.414062 L 16.207031 31.414062 C 15.976562 31.414062 15.769531 31.273438 15.683594 31.054688 L 15.007812 29.296875 C 14.070312 29.046875 13.171875 28.675781 12.328125 28.1875 L 10.605469 28.953125 C 10.394531 29.046875 10.144531 29 9.980469 28.835938 L 7.636719 26.492188 C 7.472656 26.328125 7.429688 26.082031 7.523438 25.871094 L 8.289062 24.148438 C 7.800781 23.304688 7.425781 22.40625 7.175781 21.464844 L 5.417969 20.789062 C 5.203125 20.707031 5.058594 20.5 5.058594 20.265625 L 5.058594 16.953125 C 5.058594 16.71875 5.203125 16.511719 5.417969 16.429688 L 7.175781 15.753906 C 7.425781 14.8125 7.800781 13.914062 8.289062 13.074219 L 7.523438 11.347656 C 7.429688 11.136719 7.472656 10.890625 7.636719 10.726562 L 9.980469 8.382812 C 10.144531 8.21875 10.394531 8.171875 10.605469 8.265625 L 12.328125 9.03125 C 13.171875 8.542969 14.070312 8.171875 15.007812 7.921875 L 15.683594 6.164062 C 15.769531 5.945312 15.976562 5.804688 16.207031 5.804688 L 19.523438 5.804688 C 19.753906 5.804688 19.960938 5.945312 20.042969 6.164062 L 20.722656 7.921875 C 21.660156 8.171875 22.558594 8.542969 23.402344 9.03125 L 25.125 8.265625 C 25.335938 8.171875 25.585938 8.21875 25.75 8.382812 L 28.09375 10.726562 C 28.253906 10.890625 28.300781 11.136719 28.207031 11.347656 L 27.441406 13.070312 C 27.929688 13.914062 28.304688 14.8125 28.554688 15.753906 L 30.3125 16.429688 C 30.527344 16.511719 30.671875 16.71875 30.671875 16.953125 L 30.671875 20.265625 C 30.671875 20.5 30.527344 20.707031 30.3125 20.789062 L 28.554688 21.464844 C 28.304688 22.40625 27.929688 23.304688 27.441406 24.144531 L 28.207031 25.871094 C 28.300781 26.082031 28.253906 26.328125 28.09375 26.492188 L 25.75 28.835938 C 25.585938 29 25.335938 29.046875 25.125 28.953125 Z M 23.589844 27.046875 L 25.226562 27.773438 L 27.027344 25.972656 L 26.300781 24.335938 C 26.226562 24.167969 26.238281 23.972656 26.335938 23.816406 C 26.890625 22.917969 27.292969 21.941406 27.535156 20.917969 C 27.578125 20.738281 27.707031 20.59375 27.878906 20.527344 L 29.550781 19.882812 L 29.550781 17.335938 L 27.882812 16.695312 C 27.707031 16.628906 27.582031 16.480469 27.539062 16.300781 C 27.292969 15.277344 26.890625 14.300781 26.335938 13.402344 C 26.238281 13.246094 26.226562 13.050781 26.300781 12.882812 L 27.027344 11.246094 L 25.226562 9.445312 L 23.589844 10.171875 C 23.421875 10.25 23.226562 10.234375 23.070312 10.136719 C 22.171875 9.585938 21.195312 9.179688 20.171875 8.9375 C 19.992188 8.894531 19.847656 8.765625 19.78125 8.59375 L 19.136719 6.921875 L 16.59375 6.921875 L 15.949219 8.59375 C 15.882812 8.765625 15.734375 8.894531 15.554688 8.9375 C 14.53125 9.179688 13.558594 9.585938 12.660156 10.136719 C 12.503906 10.234375 12.308594 10.25 12.140625 10.171875 L 10.5 9.445312 L 8.703125 11.246094 L 9.429688 12.882812 C 9.503906 13.050781 9.492188 13.246094 9.394531 13.402344 C 8.839844 14.304688 8.4375 15.277344 8.191406 16.300781 C 8.148438 16.480469 8.023438 16.628906 7.847656 16.695312 L 6.179688 17.335938 L 6.179688 19.882812 L 7.847656 20.527344 C 8.019531 20.589844 8.148438 20.738281 8.191406 20.917969 C 8.4375 21.941406 8.839844 22.917969 9.394531 23.816406 C 9.492188 23.972656 9.503906 24.167969 9.429688 24.335938 L 8.703125 25.972656 L 10.5 27.773438 L 12.140625 27.046875 C 12.308594 26.972656 12.503906 26.984375 12.660156 27.082031 C 13.558594 27.632812 14.53125 28.039062 15.554688 28.28125 C 15.734375 28.324219 15.882812 28.453125 15.949219 28.625 L 16.59375 30.296875 L 19.136719 30.296875 L 19.78125 28.625 C 19.847656 28.453125 19.992188 28.324219 20.171875 28.28125 C 21.199219 28.039062 22.171875 27.632812 23.070312 27.082031 C 23.226562 26.984375 23.421875 26.972656 23.589844 27.046875 Z M 24.710938 18.609375 C 24.710938 22.382812 21.640625 25.457031 17.863281 25.457031 C 14.089844 25.457031 11.019531 22.382812 11.019531 18.609375 C 11.019531 14.835938 14.089844 11.765625 17.863281 11.765625 C 21.640625 11.765625 24.710938 14.835938 24.710938 18.609375 Z M 23.589844 18.609375 C 23.589844 15.453125 21.023438 12.882812 17.863281 12.882812 C 14.707031 12.882812 12.140625 15.453125 12.140625 18.609375 C 12.140625 21.765625 14.707031 24.335938 17.863281 24.335938 C 21.023438 24.335938 23.589844 21.765625 23.589844 18.609375 Z M 21.8125 17.78125 C 21.351562 18.25 20.890625 18.714844 20.429688 19.183594 C 19.667969 19.957031 18.878906 20.757812 18.097656 21.539062 C 17.816406 21.820312 17.441406 21.976562 17.042969 21.976562 C 16.644531 21.976562 16.269531 21.820312 15.988281 21.539062 L 13.921875 19.472656 C 13.640625 19.191406 13.484375 18.816406 13.484375 18.417969 C 13.484375 18.019531 13.640625 17.644531 13.921875 17.363281 C 14.203125 17.082031 14.578125 16.925781 14.976562 16.925781 C 15.375 16.925781 15.75 17.082031 16.03125 17.363281 L 17.039062 18.371094 L 19.699219 15.683594 C 19.976562 15.402344 20.351562 15.242188 20.75 15.242188 C 20.753906 15.242188 20.753906 15.242188 20.757812 15.242188 C 21.152344 15.242188 21.527344 15.394531 21.808594 15.675781 C 22.390625 16.253906 22.390625 17.199219 21.8125 17.78125 Z M 21.019531 16.46875 C 20.949219 16.398438 20.855469 16.363281 20.753906 16.363281 C 20.65625 16.363281 20.5625 16.402344 20.492188 16.472656 L 17.4375 19.558594 C 17.332031 19.664062 17.191406 19.722656 17.039062 19.722656 C 16.890625 19.722656 16.75 19.664062 16.644531 19.558594 L 15.238281 18.15625 C 15.167969 18.085938 15.074219 18.046875 14.976562 18.046875 C 14.875 18.046875 14.78125 18.085938 14.710938 18.15625 C 14.640625 18.226562 14.601562 18.320312 14.601562 18.417969 C 14.601562 18.519531 14.640625 18.613281 14.710938 18.683594 L 16.777344 20.746094 C 16.847656 20.820312 16.941406 20.855469 17.042969 20.855469 C 17.140625 20.855469 17.234375 20.820312 17.304688 20.746094 C 18.085938 19.96875 18.871094 19.167969 19.632812 18.398438 C 20.09375 17.929688 20.554688 17.460938 21.019531 16.996094 C 21.164062 16.847656 21.164062 16.613281 21.019531 16.46875 Z M 21.019531 16.46875 " fill-opacity="1" fill-rule="nonzero"/></g></svg>