<svg xmlns="http://www.w3.org/2000/svg" xmlns:xlink="http://www.w3.org/1999/xlink" width="50" zoomAndPan="magnify" viewBox="0 0 37.5 37.499999" height="50" preserveAspectRatio="xMidYMid meet" version="1.0"><defs><clipPath id="53c77a2f93"><path d="M 0.925781 20 L 11 20 L 11 32 L 0.925781 32 Z M 0.925781 20 " clip-rule="nonzero"/></clipPath><clipPath id="7325549413"><path d="M 2 11 L 17 11 L 17 36.265625 L 2 36.265625 Z M 2 11 " clip-rule="nonzero"/></clipPath><clipPath id="2cba98bd40"><path d="M 21 11 L 36 11 L 36 36.265625 L 21 36.265625 Z M 21 11 " clip-rule="nonzero"/></clipPath></defs><path fill="#ff5757" d="M 19.621094 13.738281 C 18.066406 13.738281 16.574219 13.339844 15.300781 12.589844 C 15.203125 12.53125 15.085938 12.519531 14.976562 12.554688 L 11.28125 13.738281 L 12.988281 10.828125 C 13.0625 10.699219 13.058594 10.535156 12.976562 10.410156 C 12.351562 9.453125 12.019531 8.367188 12.019531 7.269531 C 12.019531 3.699219 15.429688 0.796875 19.621094 0.796875 C 23.808594 0.796875 27.21875 3.699219 27.21875 7.269531 C 27.21875 10.835938 23.808594 13.738281 19.621094 13.738281 Z M 28.015625 7.269531 C 28.015625 3.261719 24.25 0 19.621094 0 C 14.992188 0 11.222656 3.261719 11.222656 7.269531 C 11.222656 8.441406 11.554688 9.601562 12.175781 10.632812 L 10.066406 14.234375 C 9.984375 14.378906 9.996094 14.558594 10.097656 14.6875 C 10.175781 14.78125 10.289062 14.835938 10.410156 14.835938 C 10.449219 14.835938 10.492188 14.828125 10.53125 14.816406 L 15.054688 13.367188 C 16.414062 14.128906 17.988281 14.535156 19.621094 14.535156 C 24.25 14.535156 28.015625 11.273438 28.015625 7.269531 " fill-opacity="1" fill-rule="nonzero"/><g clip-path="url(#53c77a2f93)"><path fill="#ff5757" d="M 10.144531 31.0625 L 5.824219 31.0625 C 5.082031 31.0625 4.425781 30.558594 4.230469 29.839844 L 1.75 20.65625 C 1.691406 20.445312 1.46875 20.320312 1.261719 20.375 C 1.046875 20.433594 0.921875 20.652344 0.980469 20.863281 L 3.460938 30.050781 C 3.75 31.113281 4.722656 31.859375 5.824219 31.859375 L 10.144531 31.859375 C 10.363281 31.859375 10.542969 31.679688 10.542969 31.460938 C 10.542969 31.238281 10.363281 31.0625 10.144531 31.0625 " fill-opacity="1" fill-rule="nonzero"/></g><g clip-path="url(#7325549413)"><path fill="#ff5757" d="M 15.496094 35.078125 C 15.324219 35.304688 15.058594 35.433594 14.75 35.433594 C 14.34375 35.433594 13.984375 35.160156 13.878906 34.769531 L 12.59375 30.132812 C 12.425781 29.527344 11.867188 29.101562 11.238281 29.101562 L 8.089844 29.101562 C 7.050781 29.101562 6.128906 28.402344 5.855469 27.394531 L 4.214844 21.371094 C 3.914062 20.265625 4.019531 19.226562 4.503906 18.589844 C 4.84375 18.148438 5.351562 17.921875 6.011719 17.921875 L 6.074219 17.921875 C 7.109375 17.921875 7.390625 18.464844 7.832031 19.800781 L 9.21875 24.027344 C 9.269531 24.191406 9.425781 24.300781 9.597656 24.300781 L 12.835938 24.300781 C 13.355469 24.300781 13.773438 24.722656 13.773438 25.265625 C 13.773438 25.785156 13.355469 26.207031 12.835938 26.207031 L 8.886719 26.207031 C 8.40625 26.207031 7.972656 25.898438 7.816406 25.441406 L 6.125 20.511719 C 6.054688 20.300781 5.828125 20.191406 5.621094 20.261719 C 5.457031 20.320312 5.351562 20.472656 5.351562 20.640625 C 5.351562 20.683594 5.359375 20.726562 5.371094 20.769531 L 7.0625 25.699219 C 7.328125 26.480469 8.0625 27.003906 8.886719 27.003906 L 12.382812 27.003906 C 13.128906 27.003906 13.785156 27.503906 13.984375 28.222656 L 15.648438 34.289062 C 15.722656 34.5625 15.667969 34.851562 15.496094 35.078125 Z M 3.183594 14.554688 C 3.183594 13.132812 4.335938 11.980469 5.753906 11.980469 C 7.171875 11.980469 8.324219 13.132812 8.324219 14.554688 C 8.324219 15.96875 7.171875 17.125 5.753906 17.125 C 4.335938 17.125 3.183594 15.96875 3.183594 14.554688 Z M 14.75 28.011719 C 14.601562 27.464844 14.273438 27.003906 13.835938 26.683594 C 14.28125 26.367188 14.570312 25.839844 14.570312 25.238281 C 14.570312 24.28125 13.792969 23.503906 12.835938 23.503906 L 9.886719 23.503906 L 8.589844 19.550781 C 8.339844 18.789062 8.0625 17.957031 7.394531 17.492188 C 8.425781 16.917969 9.121094 15.816406 9.121094 14.554688 C 9.121094 12.695312 7.609375 11.183594 5.753906 11.183594 C 3.894531 11.183594 2.382812 12.695312 2.382812 14.554688 C 2.382812 15.917969 3.199219 17.09375 4.367188 17.621094 C 4.183594 17.757812 4.015625 17.917969 3.871094 18.109375 C 3.238281 18.9375 3.078125 20.234375 3.445312 21.582031 L 5.085938 27.605469 C 5.457031 28.957031 6.691406 29.898438 8.089844 29.898438 L 11.238281 29.898438 C 11.511719 29.898438 11.753906 30.082031 11.824219 30.347656 L 13.109375 34.984375 C 13.3125 35.71875 13.984375 36.230469 14.777344 36.230469 C 15.3125 36.230469 15.804688 35.988281 16.128906 35.5625 C 16.453125 35.136719 16.558594 34.59375 16.417969 34.078125 L 14.75 28.011719 " fill-opacity="1" fill-rule="nonzero"/></g><path fill="#ff5757" d="M 36.5 20.375 C 36.289062 20.320312 36.070312 20.445312 36.011719 20.65625 L 33.53125 29.839844 C 33.335938 30.558594 32.679688 31.0625 31.9375 31.0625 L 27.617188 31.0625 C 27.398438 31.0625 27.21875 31.238281 27.21875 31.460938 C 27.21875 31.679688 27.398438 31.859375 27.617188 31.859375 L 31.9375 31.859375 C 33.039062 31.859375 34.011719 31.113281 34.300781 30.050781 L 36.78125 20.863281 C 36.839844 20.652344 36.714844 20.433594 36.5 20.375 " fill-opacity="1" fill-rule="nonzero"/><g clip-path="url(#2cba98bd40)"><path fill="#ff5757" d="M 25.167969 30.132812 L 23.882812 34.769531 C 23.773438 35.160156 23.417969 35.433594 22.984375 35.433594 C 22.699219 35.433594 22.4375 35.304688 22.265625 35.078125 C 22.09375 34.851562 22.039062 34.5625 22.113281 34.289062 L 23.777344 28.222656 C 23.976562 27.503906 24.632812 27.003906 25.375 27.003906 L 28.871094 27.003906 C 29.695312 27.003906 30.429688 26.480469 30.699219 25.699219 L 32.386719 20.769531 C 32.402344 20.726562 32.410156 20.683594 32.410156 20.640625 C 32.410156 20.472656 32.304688 20.320312 32.140625 20.261719 C 31.929688 20.191406 31.707031 20.300781 31.632812 20.511719 L 29.945312 25.441406 C 29.785156 25.898438 29.355469 26.207031 28.871094 26.207031 L 24.925781 26.207031 C 24.40625 26.207031 23.984375 25.785156 23.984375 25.238281 C 23.984375 24.722656 24.40625 24.300781 24.925781 24.300781 L 28.164062 24.300781 C 28.335938 24.300781 28.488281 24.191406 28.542969 24.027344 L 29.929688 19.800781 C 30.367188 18.464844 30.648438 17.921875 31.6875 17.921875 L 31.75 17.921875 C 32.410156 17.921875 32.914062 18.148438 33.253906 18.589844 C 33.738281 19.226562 33.847656 20.265625 33.546875 21.371094 L 31.90625 27.394531 C 31.628906 28.402344 30.710938 29.101562 29.667969 29.101562 L 26.523438 29.101562 C 25.894531 29.101562 25.335938 29.527344 25.167969 30.132812 Z M 29.4375 14.554688 C 29.4375 13.132812 30.589844 11.980469 32.007812 11.980469 C 33.425781 11.980469 34.578125 13.132812 34.578125 14.554688 C 34.578125 15.96875 33.425781 17.125 32.007812 17.125 C 30.589844 17.125 29.4375 15.96875 29.4375 14.554688 Z M 32.675781 27.605469 L 34.316406 21.582031 C 34.683594 20.234375 34.523438 18.9375 33.886719 18.109375 C 33.746094 17.917969 33.578125 17.757812 33.394531 17.621094 C 34.5625 17.09375 35.375 15.917969 35.375 14.554688 C 35.375 12.695312 33.863281 11.183594 32.007812 11.183594 C 30.148438 11.183594 28.636719 12.695312 28.636719 14.554688 C 28.636719 15.816406 29.335938 16.917969 30.367188 17.492188 C 29.695312 17.957031 29.421875 18.789062 29.171875 19.550781 L 27.875 23.503906 L 24.925781 23.503906 C 23.96875 23.503906 23.1875 24.28125 23.1875 25.265625 C 23.1875 25.851562 23.480469 26.371094 23.921875 26.683594 C 23.488281 27.003906 23.160156 27.464844 23.007812 28.011719 L 21.34375 34.078125 C 21.203125 34.59375 21.308594 35.136719 21.632812 35.5625 C 21.957031 35.988281 22.449219 36.230469 23.011719 36.230469 C 23.773438 36.230469 24.449219 35.71875 24.652344 34.984375 L 25.933594 30.347656 C 26.007812 30.082031 26.25 29.898438 26.523438 29.898438 L 29.667969 29.898438 C 31.070312 29.898438 32.304688 28.957031 32.675781 27.605469 " fill-opacity="1" fill-rule="nonzero"/></g><path fill="#ff5757" d="M 19.800781 3.007812 C 19.15625 3 18.558594 3.226562 18.101562 3.671875 C 17.644531 4.117188 17.390625 4.714844 17.390625 5.351562 C 17.390625 5.574219 17.570312 5.75 17.789062 5.75 C 18.007812 5.75 18.1875 5.574219 18.1875 5.351562 C 18.1875 4.929688 18.355469 4.539062 18.65625 4.242188 C 18.957031 3.949219 19.347656 3.792969 19.78125 3.804688 C 20.585938 3.828125 21.257812 4.503906 21.28125 5.308594 C 21.300781 5.992188 20.878906 6.601562 20.230469 6.820312 C 19.695312 7 19.335938 7.488281 19.335938 8.03125 L 19.335938 8.855469 C 19.335938 9.078125 19.515625 9.253906 19.734375 9.253906 C 19.957031 9.253906 20.132812 9.078125 20.132812 8.855469 L 20.132812 8.03125 C 20.132812 7.828125 20.273438 7.648438 20.488281 7.574219 C 21.46875 7.242188 22.109375 6.324219 22.078125 5.289062 C 22.046875 4.066406 21.023438 3.042969 19.800781 3.007812 " fill-opacity="1" fill-rule="nonzero"/><path fill="#ff5757" d="M 19.734375 10.023438 C 19.515625 10.023438 19.335938 10.203125 19.335938 10.421875 L 19.335938 10.433594 C 19.335938 10.652344 19.515625 10.824219 19.734375 10.824219 C 19.957031 10.824219 20.132812 10.644531 20.132812 10.421875 C 20.132812 10.203125 19.957031 10.023438 19.734375 10.023438 " fill-opacity="1" fill-rule="nonzero"/></svg>