<svg xmlns="http://www.w3.org/2000/svg" xmlns:xlink="http://www.w3.org/1999/xlink" width="50" zoomAndPan="magnify" viewBox="0 0 37.5 37.499999" height="50" preserveAspectRatio="xMidYMid meet" version="1.0"><defs><clipPath id="16f2daff86"><path d="M 4 10 L 35.894531 10 L 35.894531 35.824219 L 4 35.824219 Z M 4 10 " clip-rule="nonzero"/></clipPath><clipPath id="3572d70280"><path d="M 1.109375 1.035156 L 33 1.035156 L 33 27 L 1.109375 27 Z M 1.109375 1.035156 " clip-rule="nonzero"/></clipPath></defs><g clip-path="url(#16f2daff86)"><path fill="#ffffff" d="M 35.46875 14.328125 C 35.148438 13.019531 34.675781 11.746094 34.0625 10.546875 C 33.917969 10.261719 33.570312 10.148438 33.285156 10.292969 C 33.003906 10.4375 32.890625 10.785156 33.035156 11.070312 C 34.210938 13.371094 34.808594 15.863281 34.808594 18.464844 C 34.808594 27.4375 27.507812 34.734375 18.535156 34.734375 C 13.949219 34.734375 9.648438 32.835938 6.570312 29.488281 L 9.453125 29.488281 C 9.773438 29.488281 10.03125 29.230469 10.03125 28.910156 C 10.03125 28.589844 9.773438 28.332031 9.453125 28.332031 L 4.601562 28.332031 L 4.601562 33.1875 C 4.601562 33.503906 4.859375 33.765625 5.179688 33.765625 C 5.496094 33.765625 5.753906 33.503906 5.753906 33.1875 L 5.753906 30.308594 C 6.339844 30.933594 6.964844 31.519531 7.628906 32.054688 C 8.632812 32.859375 9.71875 33.550781 10.867188 34.117188 C 12.039062 34.6875 13.273438 35.128906 14.539062 35.429688 C 15.84375 35.734375 17.1875 35.886719 18.535156 35.886719 C 20.890625 35.886719 23.171875 35.429688 25.320312 34.519531 C 27.394531 33.640625 29.257812 32.382812 30.859375 30.78125 C 32.460938 29.179688 33.71875 27.316406 34.59375 25.242188 C 35.503906 23.09375 35.964844 20.8125 35.964844 18.460938 C 35.964844 17.066406 35.796875 15.675781 35.46875 14.328125 Z M 35.46875 14.328125 " fill-opacity="1" fill-rule="nonzero"/></g><g clip-path="url(#3572d70280)"><path fill="#ffffff" d="M 2.265625 18.464844 C 2.265625 9.492188 9.566406 2.195312 18.535156 2.195312 C 22.960938 2.195312 27.160156 3.988281 30.21875 7.140625 L 27.203125 7.140625 C 26.886719 7.140625 26.625 7.398438 26.625 7.71875 C 26.625 8.039062 26.886719 8.296875 27.203125 8.296875 L 32.058594 8.296875 L 32.058594 3.441406 C 32.058594 3.125 31.796875 2.867188 31.480469 2.867188 C 31.160156 2.867188 30.902344 3.125 30.902344 3.441406 L 30.902344 6.1875 C 27.636719 2.898438 23.203125 1.039062 18.535156 1.039062 C 16.183594 1.039062 13.902344 1.5 11.753906 2.410156 C 9.679688 3.289062 7.816406 4.542969 6.214844 6.144531 C 4.613281 7.746094 3.355469 9.609375 2.476562 11.683594 C 1.570312 13.832031 1.109375 16.113281 1.109375 18.464844 C 1.109375 19.816406 1.265625 21.160156 1.574219 22.464844 C 1.871094 23.730469 2.3125 24.96875 2.886719 26.136719 C 2.984375 26.34375 3.191406 26.460938 3.40625 26.460938 C 3.492188 26.460938 3.578125 26.441406 3.660156 26.402344 C 3.945312 26.257812 4.0625 25.914062 3.921875 25.625 C 2.824219 23.390625 2.265625 20.980469 2.265625 18.464844 Z M 2.265625 18.464844 " fill-opacity="1" fill-rule="nonzero"/></g><path fill="#ffffff" d="M 29.285156 20.394531 L 29.285156 17 L 26.222656 16.308594 L 25.660156 14.953125 L 27.335938 12.300781 L 24.9375 9.902344 L 22.285156 11.578125 L 20.925781 11.015625 L 20.234375 7.949219 L 16.839844 7.949219 L 16.148438 11.011719 L 14.792969 11.574219 L 12.140625 9.898438 L 9.738281 12.296875 L 11.414062 14.949219 L 10.851562 16.308594 L 7.789062 17 L 7.789062 20.394531 L 10.851562 21.085938 L 11.414062 22.441406 L 9.738281 25.09375 L 12.136719 27.492188 L 14.789062 25.816406 L 16.148438 26.378906 L 16.839844 29.441406 L 20.230469 29.441406 L 20.921875 26.378906 L 22.277344 25.816406 L 24.933594 27.492188 L 27.332031 25.09375 L 25.65625 22.441406 L 26.21875 21.085938 Z M 25.867188 24.933594 L 24.773438 26.027344 L 22.394531 24.523438 L 19.929688 25.546875 L 19.3125 28.292969 L 17.765625 28.292969 L 17.144531 25.546875 L 14.683594 24.523438 L 12.304688 26.027344 L 11.210938 24.933594 L 12.710938 22.554688 L 11.691406 20.089844 L 8.945312 19.46875 L 8.945312 17.921875 L 11.691406 17.304688 L 12.710938 14.839844 L 11.210938 12.460938 L 12.304688 11.367188 L 14.683594 12.871094 L 17.144531 11.847656 L 17.765625 9.105469 L 19.3125 9.105469 L 19.929688 11.851562 L 22.394531 12.875 L 24.773438 11.371094 L 25.867188 12.464844 L 24.363281 14.84375 L 25.386719 17.304688 L 28.128906 17.925781 L 28.128906 19.472656 L 25.386719 20.089844 L 24.363281 22.554688 Z M 25.867188 24.933594 " fill-opacity="1" fill-rule="nonzero"/><path fill="#ffffff" d="M 20.535156 18.335938 C 20.269531 18.214844 19.769531 18.050781 19.03125 17.839844 C 18.953125 17.816406 18.898438 17.746094 18.898438 17.660156 L 18.898438 15.855469 C 18.898438 15.738281 19.007812 15.648438 19.125 15.675781 C 19.53125 15.777344 19.832031 16.058594 20.019531 16.523438 C 20.054688 16.605469 20.144531 16.652344 20.230469 16.632812 L 21.128906 16.445312 C 21.242188 16.421875 21.304688 16.304688 21.265625 16.199219 C 20.90625 15.261719 20.171875 14.703125 19.050781 14.519531 C 18.960938 14.503906 18.894531 14.425781 18.894531 14.335938 L 18.894531 13.785156 C 18.894531 13.683594 18.8125 13.601562 18.710938 13.601562 L 18.242188 13.601562 C 18.140625 13.601562 18.054688 13.683594 18.054688 13.785156 L 18.054688 14.332031 C 18.054688 14.425781 17.988281 14.503906 17.898438 14.515625 C 16.246094 14.757812 15.417969 15.554688 15.417969 16.90625 C 15.417969 17.445312 15.585938 17.90625 15.914062 18.292969 C 16.234375 18.664062 16.898438 18.96875 17.914062 19.21875 C 17.996094 19.238281 18.054688 19.3125 18.054688 19.398438 L 18.054688 21.492188 C 18.054688 21.605469 17.949219 21.691406 17.835938 21.675781 C 17.171875 21.554688 16.71875 21.148438 16.484375 20.453125 C 16.453125 20.363281 16.359375 20.3125 16.265625 20.332031 L 15.300781 20.558594 C 15.191406 20.582031 15.128906 20.695312 15.167969 20.800781 C 15.613281 21.988281 16.519531 22.664062 17.890625 22.820312 C 17.980469 22.832031 18.050781 22.910156 18.050781 23.003906 L 18.050781 23.800781 C 18.050781 23.902344 18.132812 23.984375 18.238281 23.984375 L 18.707031 23.984375 C 18.808594 23.984375 18.890625 23.902344 18.890625 23.800781 L 18.890625 23.003906 C 18.890625 22.910156 18.960938 22.828125 19.054688 22.820312 C 19.863281 22.726562 20.484375 22.464844 20.925781 22.039062 C 21.390625 21.582031 21.625 21.011719 21.625 20.328125 C 21.625 19.84375 21.511719 19.421875 21.289062 19.0625 C 21.070312 18.703125 20.816406 18.460938 20.535156 18.335938 Z M 18.0625 17.503906 C 18.0625 17.621094 17.957031 17.707031 17.84375 17.683594 C 17.148438 17.542969 16.796875 17.210938 16.796875 16.6875 C 16.796875 16.34375 16.917969 16.082031 17.160156 15.90625 C 17.355469 15.765625 17.589844 15.679688 17.863281 15.652344 C 17.96875 15.640625 18.066406 15.726562 18.066406 15.832031 L 18.066406 17.503906 Z M 19.878906 21.363281 C 19.664062 21.542969 19.40625 21.652344 19.109375 21.691406 C 18.996094 21.703125 18.898438 21.617188 18.898438 21.507812 L 18.898438 19.558594 C 18.898438 19.4375 19.011719 19.347656 19.128906 19.378906 C 19.890625 19.570312 20.269531 19.9375 20.269531 20.488281 C 20.269531 20.847656 20.136719 21.136719 19.878906 21.363281 Z M 19.878906 21.363281 " fill-opacity="1" fill-rule="nonzero"/></svg>