<svg xmlns="http://www.w3.org/2000/svg" xmlns:xlink="http://www.w3.org/1999/xlink" width="50" zoomAndPan="magnify" viewBox="0 0 37.5 37.499999" height="50" preserveAspectRatio="xMidYMid meet" version="1.0"><defs><clipPath id="6cc15054d6"><path d="M 13 0.8125 L 25 0.8125 L 25 12 L 13 12 Z M 13 0.8125 " clip-rule="nonzero"/></clipPath><clipPath id="10e2d4611d"><path d="M 0.8125 3 L 12 3 L 12 15 L 0.8125 15 Z M 0.8125 3 " clip-rule="nonzero"/></clipPath><clipPath id="2c06eaec99"><path d="M 25 3 L 36.339844 3 L 36.339844 15 L 25 15 Z M 25 3 " clip-rule="nonzero"/></clipPath><clipPath id="4d3080d86d"><path d="M 8 12 L 35 12 L 35 36.339844 L 8 36.339844 Z M 8 12 " clip-rule="nonzero"/></clipPath></defs><path fill="#ff5757" d="M 18.503906 24.140625 C 20.851562 24.140625 22.832031 22.214844 22.832031 19.863281 C 22.832031 17.511719 20.90625 15.589844 18.503906 15.589844 C 16.152344 15.589844 14.171875 17.511719 14.171875 19.863281 C 14.171875 22.269531 16.152344 24.140625 18.503906 24.140625 Z M 18.503906 16.710938 C 20.265625 16.710938 21.761719 18.15625 21.761719 19.917969 C 21.761719 21.683594 20.320312 23.125 18.503906 23.125 C 16.738281 23.125 15.242188 21.683594 15.242188 19.917969 C 15.242188 18.15625 16.738281 16.710938 18.503906 16.710938 Z M 18.503906 16.710938 " fill-opacity="1" fill-rule="nonzero"/><g clip-path="url(#6cc15054d6)"><path fill="#ff5757" d="M 15.507812 7.519531 L 14.976562 10.566406 C 14.921875 10.78125 15.027344 10.992188 15.1875 11.101562 C 15.347656 11.207031 15.5625 11.261719 15.777344 11.15625 L 18.554688 9.710938 L 21.335938 11.15625 C 21.496094 11.261719 21.707031 11.207031 21.921875 11.101562 C 22.082031 10.992188 22.1875 10.78125 22.136719 10.566406 L 21.601562 7.519531 L 23.847656 5.328125 C 24.007812 5.167969 24.058594 4.957031 24.007812 4.796875 C 23.953125 4.582031 23.792969 4.476562 23.578125 4.421875 L 20.480469 3.992188 L 19.089844 1.214844 C 18.929688 0.839844 18.289062 0.839844 18.128906 1.214844 L 16.738281 3.992188 L 13.640625 4.421875 C 13.425781 4.476562 13.265625 4.582031 13.210938 4.796875 C 13.160156 5.007812 13.210938 5.222656 13.371094 5.328125 Z M 17.058594 5.007812 C 17.21875 5.007812 17.378906 4.847656 17.488281 4.742188 L 18.503906 2.605469 L 19.515625 4.6875 C 19.570312 4.847656 19.730469 4.957031 19.945312 4.957031 L 22.242188 5.328125 L 20.585938 6.933594 C 20.480469 7.039062 20.425781 7.253906 20.425781 7.414062 L 20.800781 9.710938 L 18.769531 8.644531 C 18.714844 8.589844 18.609375 8.589844 18.503906 8.589844 C 18.394531 8.589844 18.34375 8.589844 18.234375 8.644531 L 16.203125 9.710938 L 16.578125 7.414062 C 16.632812 7.253906 16.523438 7.039062 16.417969 6.933594 L 14.761719 5.328125 Z M 17.058594 5.007812 " fill-opacity="1" fill-rule="nonzero"/></g><g clip-path="url(#10e2d4611d)"><path fill="#ff5757" d="M 9.578125 14.09375 C 9.738281 13.988281 9.84375 13.773438 9.792969 13.558594 L 9.257812 10.511719 L 11.5 8.320312 C 11.660156 8.160156 11.714844 7.949219 11.660156 7.789062 C 11.609375 7.574219 11.449219 7.46875 11.234375 7.414062 L 8.136719 6.984375 L 6.746094 4.152344 C 6.640625 3.992188 6.480469 3.832031 6.265625 3.832031 C 6.050781 3.832031 5.890625 3.941406 5.785156 4.152344 L 4.394531 6.933594 L 1.296875 7.359375 C 1.082031 7.414062 0.921875 7.519531 0.867188 7.734375 C 0.8125 7.949219 0.867188 8.160156 1.027344 8.269531 L 3.273438 10.511719 L 2.738281 13.558594 C 2.683594 13.773438 2.792969 13.988281 2.953125 14.09375 C 3.113281 14.199219 3.324219 14.253906 3.539062 14.148438 L 6.316406 12.703125 L 9.097656 14.148438 C 9.203125 14.253906 9.417969 14.199219 9.578125 14.09375 Z M 6.53125 11.582031 C 6.371094 11.476562 6.210938 11.476562 6.050781 11.582031 L 4.019531 12.652344 L 4.394531 10.351562 C 4.449219 10.191406 4.339844 9.980469 4.234375 9.871094 L 2.578125 8.269531 L 4.875 7.949219 C 5.035156 7.949219 5.195312 7.789062 5.304688 7.679688 L 6.316406 5.597656 L 7.332031 7.679688 C 7.386719 7.839844 7.546875 7.949219 7.761719 7.949219 L 10.058594 8.269531 L 8.402344 9.871094 C 8.296875 9.980469 8.242188 10.191406 8.242188 10.351562 L 8.617188 12.652344 Z M 6.53125 11.582031 " fill-opacity="1" fill-rule="nonzero"/></g><g clip-path="url(#2c06eaec99)"><path fill="#ff5757" d="M 36.136719 7.789062 C 36.082031 7.574219 35.921875 7.46875 35.710938 7.414062 L 32.609375 6.984375 L 31.21875 4.207031 C 31.058594 3.832031 30.417969 3.832031 30.257812 4.207031 L 28.867188 6.984375 L 25.769531 7.414062 C 25.554688 7.46875 25.394531 7.574219 25.34375 7.789062 C 25.289062 8 25.34375 8.214844 25.503906 8.320312 L 27.746094 10.511719 L 27.210938 13.558594 C 27.160156 13.773438 27.265625 13.988281 27.425781 14.09375 C 27.585938 14.199219 27.800781 14.253906 28.015625 14.148438 L 30.792969 12.703125 L 33.570312 14.148438 C 33.730469 14.253906 33.945312 14.199219 34.160156 14.09375 C 34.320312 13.988281 34.425781 13.773438 34.375 13.558594 L 33.839844 10.511719 L 36.082031 8.320312 C 36.136719 8.160156 36.191406 7.949219 36.136719 7.789062 Z M 32.769531 9.925781 C 32.664062 10.03125 32.609375 10.246094 32.609375 10.40625 L 32.984375 12.703125 L 30.953125 11.636719 C 30.898438 11.582031 30.792969 11.582031 30.6875 11.582031 C 30.578125 11.582031 30.527344 11.582031 30.417969 11.636719 L 28.386719 12.703125 L 28.761719 10.40625 C 28.816406 10.246094 28.707031 10.03125 28.601562 9.925781 L 26.945312 8.320312 L 29.242188 8 C 29.402344 8 29.5625 7.839844 29.671875 7.734375 L 30.6875 5.648438 L 31.703125 7.734375 C 31.753906 7.894531 31.914062 8 32.128906 8 L 34.425781 8.320312 Z M 32.769531 9.925781 " fill-opacity="1" fill-rule="nonzero"/></g><g clip-path="url(#4d3080d86d)"><path fill="#ff5757" d="M 28.546875 23.605469 C 28.386719 23.605469 28.226562 23.605469 28.066406 23.605469 C 28.175781 23.019531 28.226562 22.375 28.226562 21.734375 C 28.226562 16.390625 23.847656 12.007812 18.503906 12.007812 C 13.160156 12.007812 8.777344 16.339844 8.777344 21.734375 C 8.777344 27.078125 13.105469 31.460938 18.503906 31.460938 C 19.839844 31.460938 21.121094 31.195312 22.351562 30.660156 C 22.722656 33.757812 25.34375 36.164062 28.546875 36.164062 C 32.023438 36.164062 34.800781 33.332031 34.800781 29.910156 C 34.800781 26.4375 32.023438 23.605469 28.546875 23.605469 Z M 18.503906 13.132812 C 23.257812 13.132812 27.160156 16.980469 27.160156 21.789062 C 27.160156 22.484375 27.050781 23.179688 26.890625 23.820312 C 25.714844 24.140625 24.648438 24.835938 23.847656 25.742188 C 22.832031 24.886719 21.601562 24.460938 20.265625 24.460938 L 16.738281 24.460938 C 14.707031 24.460938 12.835938 25.582031 11.875 27.347656 C 10.59375 25.796875 9.84375 23.871094 9.84375 21.84375 C 9.84375 17.03125 13.746094 13.132812 18.503906 13.132812 Z M 12.675781 28.148438 C 13.425781 26.542969 14.976562 25.527344 16.738281 25.527344 L 20.265625 25.527344 C 21.386719 25.527344 22.402344 25.902344 23.203125 26.597656 C 22.671875 27.453125 22.351562 28.46875 22.296875 29.535156 C 19.144531 31.085938 15.347656 30.605469 12.675781 28.148438 Z M 28.546875 35.09375 C 25.664062 35.09375 23.363281 32.742188 23.363281 29.910156 C 23.363281 27.078125 25.714844 24.726562 28.546875 24.726562 C 31.378906 24.726562 33.730469 27.078125 33.730469 29.910156 C 33.730469 32.742188 31.433594 35.09375 28.546875 35.09375 Z M 28.546875 35.09375 " fill-opacity="1" fill-rule="nonzero"/></g><path fill="#ff5757" d="M 31.539062 27.558594 L 27.640625 30.980469 L 26.144531 29.214844 C 25.929688 29.003906 25.609375 28.949219 25.394531 29.164062 C 25.183594 29.375 25.128906 29.699219 25.34375 29.910156 L 27.160156 32.101562 C 27.265625 32.210938 27.371094 32.261719 27.53125 32.316406 C 27.695312 32.316406 27.800781 32.261719 27.90625 32.210938 L 32.234375 28.414062 C 32.449219 28.199219 32.503906 27.878906 32.289062 27.667969 C 32.074219 27.398438 31.753906 27.398438 31.539062 27.558594 Z M 31.539062 27.558594 " fill-opacity="1" fill-rule="nonzero"/></svg>