<svg xmlns="http://www.w3.org/2000/svg" xmlns:xlink="http://www.w3.org/1999/xlink" width="50" zoomAndPan="magnify" viewBox="0 0 37.5 37.499999" height="50" preserveAspectRatio="xMidYMid meet" version="1.0"><defs><clipPath id="fd4a205f86"><path d="M 11 12 L 35 12 L 35 36.371094 L 11 36.371094 Z M 11 12 " clip-rule="nonzero"/></clipPath></defs><path fill="#ffffff" d="M 17.425781 10.800781 C 17.308594 10.601562 17.050781 10.53125 16.851562 10.644531 L 15.835938 11.222656 C 15.503906 10.964844 15.136719 10.753906 14.75 10.601562 L 14.75 9.460938 C 14.75 9.226562 14.558594 9.039062 14.328125 9.039062 L 11.863281 9.039062 C 11.628906 9.039062 11.441406 9.226562 11.441406 9.460938 L 11.441406 10.601562 C 11.050781 10.753906 10.6875 10.964844 10.351562 11.222656 L 9.335938 10.644531 C 9.136719 10.53125 8.882812 10.601562 8.765625 10.800781 L 7.53125 12.898438 C 7.476562 12.996094 7.460938 13.113281 7.488281 13.222656 C 7.519531 13.332031 7.589844 13.421875 7.6875 13.480469 L 8.695312 14.050781 C 8.636719 14.464844 8.636719 14.867188 8.695312 15.28125 C 8.695312 15.28125 7.6875 15.851562 7.6875 15.851562 C 7.488281 15.960938 7.414062 16.238281 7.53125 16.429688 C 7.53125 16.429688 8.765625 18.53125 8.765625 18.53125 C 8.882812 18.730469 9.136719 18.796875 9.335938 18.683594 C 9.335938 18.683594 10.351562 18.105469 10.351562 18.105469 C 10.6875 18.367188 11.050781 18.574219 11.441406 18.730469 L 11.441406 19.871094 C 11.441406 20.101562 11.628906 20.292969 11.863281 20.292969 L 14.328125 20.292969 C 14.558594 20.292969 14.75 20.101562 14.75 19.871094 L 14.75 18.730469 C 15.136719 18.574219 15.503906 18.367188 15.835938 18.105469 L 16.851562 18.683594 C 17.050781 18.796875 17.308594 18.730469 17.425781 18.53125 L 18.65625 16.429688 C 18.714844 16.335938 18.730469 16.21875 18.699219 16.109375 C 18.671875 16 18.597656 15.90625 18.5 15.851562 C 18.5 15.851562 17.492188 15.28125 17.492188 15.28125 C 17.554688 14.867188 17.554688 14.460938 17.492188 14.050781 C 17.492188 14.050781 18.5 13.480469 18.5 13.480469 C 18.703125 13.371094 18.777344 13.09375 18.65625 12.898438 C 18.65625 12.898438 17.425781 10.800781 17.425781 10.800781 Z M 16.816406 13.464844 C 16.398438 13.726562 16.757812 14.277344 16.695312 14.664062 C 16.761719 15.054688 16.394531 15.601562 16.816406 15.863281 C 16.816406 15.863281 17.714844 16.375 17.714844 16.375 C 17.714844 16.375 16.90625 17.746094 16.90625 17.746094 L 16 17.230469 C 15.84375 17.140625 15.644531 17.160156 15.511719 17.28125 C 15.125 17.625 14.683594 17.878906 14.199219 18.03125 C 14.023438 18.085938 13.90625 18.25 13.90625 18.433594 L 13.90625 19.449219 L 12.285156 19.449219 L 12.285156 18.433594 C 12.285156 18.25 12.164062 18.085938 11.988281 18.03125 C 11.503906 17.875 11.0625 17.625 10.679688 17.28125 C 10.542969 17.160156 10.347656 17.140625 10.191406 17.230469 L 9.28125 17.746094 L 8.476562 16.375 L 9.371094 15.863281 C 9.53125 15.773438 9.613281 15.589844 9.574219 15.410156 C 9.464844 14.910156 9.464844 14.421875 9.574219 13.921875 C 9.613281 13.742188 9.53125 13.554688 9.371094 13.464844 L 8.476562 12.957031 C 8.476562 12.957031 9.28125 11.585938 9.28125 11.585938 L 10.191406 12.101562 C 10.347656 12.1875 10.542969 12.167969 10.679688 12.046875 C 11.0625 11.707031 11.503906 11.453125 11.988281 11.300781 C 12.164062 11.246094 12.285156 11.082031 12.285156 10.898438 L 12.285156 9.882812 L 13.90625 9.882812 L 13.90625 10.898438 C 13.90625 11.082031 14.023438 11.246094 14.199219 11.300781 C 14.683594 11.453125 15.125 11.707031 15.511719 12.046875 C 15.644531 12.167969 15.84375 12.1875 16 12.101562 C 16 12.101562 16.90625 11.585938 16.90625 11.585938 C 16.90625 11.585938 17.714844 12.957031 17.714844 12.957031 Z M 16.816406 13.464844 " fill-opacity="1" fill-rule="nonzero"/><path fill="#ffffff" d="M 13.09375 12.367188 C 10.03125 12.464844 10.03125 16.867188 13.09375 16.960938 C 16.160156 16.863281 16.15625 12.464844 13.09375 12.367188 Z M 13.09375 16.117188 C 11.148438 16.070312 11.148438 13.261719 13.09375 13.210938 C 15.039062 13.261719 15.039062 16.070312 13.09375 16.117188 Z M 13.09375 16.117188 " fill-opacity="1" fill-rule="nonzero"/><path fill="#ffffff" d="M 17.167969 30.492188 C 17.035156 30.589844 16.871094 30.644531 16.710938 30.644531 L 8.453125 30.644531 C 8.023438 30.644531 7.675781 30.300781 7.675781 29.875 C 7.613281 29.359375 7.894531 28.859375 8.457031 28.851562 C 8.457031 28.851562 13.496094 28.851562 13.496094 28.851562 C 13.730469 28.851562 13.917969 28.664062 13.917969 28.433594 C 13.917969 28.199219 13.730469 28.011719 13.496094 28.011719 L 8.457031 28.011719 C 7.902344 28.007812 7.613281 27.511719 7.675781 27 C 7.675781 26.574219 8.023438 26.226562 8.453125 26.226562 L 11.605469 26.226562 C 12.152344 26.222656 12.15625 25.386719 11.605469 25.382812 C 11.605469 25.382812 8.875 25.382812 8.875 25.382812 C 8.875 25.382812 8.875 24.195312 8.875 24.195312 C 8.875 22.332031 8.140625 20.601562 6.859375 19.445312 C 1.261719 14.4375 4.851562 5.300781 12.316406 5.0625 C 16.457031 4.9375 20.050781 7.71875 20.871094 11.660156 C 20.992188 12.207031 21.800781 12.027344 21.695312 11.488281 C 19.203125 0.847656 3.664062 2.382812 3.273438 13.292969 C 3.257812 15.859375 4.359375 18.332031 6.292969 20.070312 C 7.398438 21.066406 8.03125 22.570312 8.03125 24.195312 L 8.03125 25.445312 C 7.25 25.644531 6.753906 26.421875 6.835938 27.234375 C 6.835938 27.710938 7.046875 28.136719 7.375 28.433594 C 6.972656 28.777344 6.792969 29.332031 6.835938 29.875 C 6.835938 30.765625 7.558594 31.488281 8.453125 31.488281 L 9.460938 31.488281 L 9.753906 32.949219 C 10.019531 34.277344 11.207031 35.238281 12.582031 35.238281 C 13.957031 35.238281 15.148438 34.277344 15.414062 32.949219 L 15.707031 31.488281 C 16.285156 31.460938 17.1875 31.601562 17.667969 31.167969 C 18.109375 30.835938 17.613281 30.167969 17.167969 30.492188 Z M 14.585938 32.785156 C 14.148438 34.910156 11.015625 34.910156 10.578125 32.785156 C 10.578125 32.785156 10.320312 31.488281 10.320312 31.488281 L 14.84375 31.488281 Z M 14.585938 32.785156 " fill-opacity="1" fill-rule="nonzero"/><path fill="#ffffff" d="M 13.738281 20.855469 C 13.484375 20.839844 13.3125 21.03125 13.304688 21.265625 C 13.257812 23.253906 14.003906 25.121094 15.414062 26.515625 C 19.902344 31.011719 27.757812 27.808594 27.738281 21.4375 C 27.839844 16.824219 23.128906 13.242188 18.695312 14.480469 C 18.160156 14.625 18.371094 15.429688 18.90625 15.296875 C 21.089844 14.730469 23.4375 15.363281 25.027344 16.945312 C 27.496094 19.308594 27.5 23.558594 25.027344 25.921875 C 22.542969 28.398438 18.496094 28.398438 16.007812 25.917969 C 14.765625 24.6875 14.105469 23.042969 14.148438 21.285156 C 14.152344 21.054688 13.96875 20.859375 13.738281 20.855469 Z M 13.738281 20.855469 " fill-opacity="1" fill-rule="nonzero"/><g clip-path="url(#fd4a205f86)"><path fill="#ffffff" d="M 34.496094 33.3125 L 27.777344 26.621094 C 30.324219 23.101562 29.957031 18.230469 26.84375 15.136719 C 24.984375 13.285156 22.421875 12.347656 19.804688 12.554688 C 19.574219 12.570312 19.398438 12.773438 19.417969 13.007812 C 19.4375 13.238281 19.644531 13.40625 19.871094 13.394531 C 22.238281 13.203125 24.5625 14.058594 26.25 15.734375 C 29.824219 19.183594 29.246094 25.347656 25.097656 28.085938 C 19.78125 31.789062 12.238281 27.804688 12.417969 21.285156 C 12.425781 20.738281 11.609375 20.710938 11.574219 21.265625 C 11.378906 28.300781 19.378906 32.75 25.28125 28.96875 C 25.28125 28.96875 32.074219 35.730469 32.074219 35.730469 C 32.410156 36.066406 32.847656 36.234375 33.289062 36.234375 C 34.761719 36.273438 35.59375 34.34375 34.496094 33.3125 Z M 33.902344 35.140625 C 33.5625 35.476562 33.011719 35.476562 32.667969 35.136719 L 25.980469 28.476562 C 26.28125 28.246094 26.574219 28.003906 26.84375 27.734375 C 27 27.578125 27.136719 27.433594 27.257812 27.292969 L 33.902344 33.910156 C 34.242188 34.238281 34.242188 34.8125 33.902344 35.140625 Z M 33.902344 35.140625 " fill-opacity="1" fill-rule="nonzero"/></g><path fill="#ffffff" d="M 18.292969 21.316406 L 16.789062 21.316406 C 16.554688 21.316406 16.367188 21.503906 16.367188 21.738281 L 16.367188 23.585938 L 15.988281 23.585938 C 15.441406 23.589844 15.4375 24.429688 15.988281 24.429688 C 18.140625 24.429688 20.585938 24.429688 22.742188 24.429688 C 23.253906 24.425781 24.546875 24.433594 25.046875 24.429688 C 25.59375 24.425781 25.597656 23.589844 25.046875 23.585938 C 25.046875 23.585938 24.667969 23.585938 24.667969 23.585938 L 24.667969 18.859375 C 24.667969 18.628906 24.480469 18.4375 24.246094 18.4375 L 22.742188 18.4375 C 22.507812 18.4375 22.320312 18.628906 22.320312 18.859375 L 22.320312 23.585938 L 21.691406 23.585938 L 21.691406 20.273438 C 21.691406 20.039062 21.503906 19.851562 21.269531 19.851562 L 19.765625 19.851562 C 19.53125 19.851562 19.34375 20.039062 19.34375 20.273438 L 19.34375 23.585938 L 18.714844 23.585938 L 18.714844 21.738281 C 18.714844 21.503906 18.527344 21.316406 18.292969 21.316406 Z M 17.210938 23.585938 L 17.210938 22.160156 L 17.871094 22.160156 L 17.871094 23.585938 Z M 23.164062 19.28125 L 23.824219 19.28125 L 23.824219 23.585938 L 23.164062 23.585938 Z M 20.1875 20.695312 L 20.847656 20.695312 L 20.847656 23.585938 L 20.1875 23.585938 Z M 20.1875 20.695312 " fill-opacity="1" fill-rule="nonzero"/></svg>