<svg xmlns="http://www.w3.org/2000/svg" xmlns:xlink="http://www.w3.org/1999/xlink" width="50" zoomAndPan="magnify" viewBox="0 0 37.5 37.499999" height="50" preserveAspectRatio="xMidYMid meet" version="1.0"><defs><clipPath id="f9f2618d5a"><path d="M 12 20 L 26 20 L 26 35.90625 L 12 35.90625 Z M 12 20 " clip-rule="nonzero"/></clipPath><clipPath id="dc14b410f4"><path d="M 32 23 L 35.839844 23 L 35.839844 25 L 32 25 Z M 32 23 " clip-rule="nonzero"/></clipPath><clipPath id="a3ccb7ac61"><path d="M 5 1.121094 L 18 1.121094 L 18 17 L 5 17 Z M 5 1.121094 " clip-rule="nonzero"/></clipPath><clipPath id="45cc5358a5"><path d="M 1.050781 6 L 12 6 L 12 18 L 1.050781 18 Z M 1.050781 6 " clip-rule="nonzero"/></clipPath><clipPath id="745d1422b7"><path d="M 34 5 L 35.839844 5 L 35.839844 8 L 34 8 Z M 34 5 " clip-rule="nonzero"/></clipPath><clipPath id="a1e6fe4090"><path d="M 19 1.121094 L 35.839844 1.121094 L 35.839844 18 L 19 18 Z M 19 1.121094 " clip-rule="nonzero"/></clipPath></defs><g clip-path="url(#f9f2618d5a)"><path fill="#ffffff" d="M 24.375 35.710938 C 22.234375 32.292969 20.351562 31.714844 18.691406 31.207031 C 17.960938 30.984375 17.277344 30.773438 16.644531 30.351562 C 16.105469 29.992188 12.535156 26.953125 12.535156 24.082031 C 12.535156 23.101562 12.53125 22.148438 13.964844 20.714844 L 14.867188 21.617188 C 13.808594 22.675781 13.808594 23.214844 13.808594 24.023438 C 13.808594 26.1875 16.726562 28.875 17.351562 29.292969 C 17.828125 29.609375 18.402344 29.785156 19.066406 29.988281 C 20.847656 30.535156 23.066406 31.214844 25.457031 35.035156 Z M 24.375 35.710938 " fill-opacity="1" fill-rule="nonzero"/></g><path fill="#ffffff" d="M 15.261719 33.015625 C 12.632812 31.3125 9.980469 27.890625 9.980469 24.082031 L 11.257812 24.082031 C 11.257812 27.414062 13.617188 30.429688 15.953125 31.945312 Z M 15.261719 33.015625 " fill-opacity="1" fill-rule="nonzero"/><path fill="#ffffff" d="M 18.910156 34.285156 C 18.3125 34.285156 17.664062 34.15625 16.980469 33.898438 L 17.429688 32.703125 C 17.96875 32.90625 18.464844 33.011719 18.910156 33.011719 Z M 18.910156 34.285156 " fill-opacity="1" fill-rule="nonzero"/><path fill="#ffffff" d="M 28.929688 31.832031 L 27.316406 29.234375 C 26.847656 28.53125 26.503906 27.742188 26.304688 26.898438 L 25.636719 24.074219 C 25.457031 23.269531 25.160156 22.503906 24.753906 21.792969 L 23.703125 19.949219 C 23.21875 19.097656 22.179688 18.75 21.28125 19.140625 L 16.769531 21.101562 L 16.472656 20.652344 C 16.449219 20.613281 13.90625 16.753906 13.078125 15.460938 C 12.953125 15.269531 12.699219 15.089844 12.359375 15.175781 C 12.144531 15.230469 11.960938 15.417969 11.914062 15.632812 C 11.863281 15.859375 11.929688 16.027344 11.992188 16.128906 L 16.835938 23.8125 L 15.757812 24.492188 L 10.910156 16.808594 C 10.640625 16.375 10.554688 15.855469 10.671875 15.351562 C 10.828125 14.664062 11.367188 14.113281 12.046875 13.941406 C 12.867188 13.730469 13.695312 14.058594 14.152344 14.773438 C 14.804688 15.796875 16.546875 18.445312 17.242188 19.503906 L 20.773438 17.96875 C 22.269531 17.320312 24.007812 17.898438 24.8125 19.316406 L 25.863281 21.160156 C 26.328125 21.980469 26.671875 22.867188 26.878906 23.785156 L 27.546875 26.605469 C 27.710938 27.300781 27.992188 27.949219 28.386719 28.542969 L 30.011719 31.160156 Z M 28.929688 31.832031 " fill-opacity="1" fill-rule="nonzero"/><g clip-path="url(#dc14b410f4)"><path fill="#ffffff" d="M 32.9375 23.445312 L 36.125 23.445312 L 36.125 24.71875 L 32.9375 24.71875 Z M 32.9375 23.445312 " fill-opacity="1" fill-rule="nonzero"/></g><path fill="#ffffff" d="M 31.515625 19.5 L 33.472656 17.542969 L 34.375 18.445312 L 32.417969 20.402344 Z M 31.515625 19.5 " fill-opacity="1" fill-rule="nonzero"/><path fill="#ffffff" d="M 31.515625 28.027344 L 32.417969 27.125 L 34.425781 29.128906 L 33.523438 30.03125 Z M 31.515625 28.027344 " fill-opacity="1" fill-rule="nonzero"/><g clip-path="url(#a3ccb7ac61)"><path fill="#ffffff" d="M 14.28125 16.074219 L 13.519531 15.050781 C 15.324219 13.710938 16.359375 11.65625 16.359375 9.414062 C 16.359375 5.546875 13.210938 2.402344 9.34375 2.402344 C 8.167969 2.402344 7.007812 2.699219 5.980469 3.257812 L 5.371094 2.140625 C 6.582031 1.476562 7.957031 1.125 9.34375 1.125 C 13.914062 1.125 17.632812 4.84375 17.632812 9.414062 C 17.632812 12.027344 16.382812 14.515625 14.28125 16.074219 Z M 14.28125 16.074219 " fill-opacity="1" fill-rule="nonzero"/></g><path fill="#ffffff" d="M 3.359375 5.757812 L 2.273438 5.089844 C 2.613281 4.535156 3.019531 4.019531 3.480469 3.554688 L 4.386719 4.457031 C 3.992188 4.847656 3.648438 5.285156 3.359375 5.757812 Z M 3.359375 5.757812 " fill-opacity="1" fill-rule="nonzero"/><g clip-path="url(#45cc5358a5)"><path fill="#ffffff" d="M 9.34375 17.707031 C 4.773438 17.707031 1.054688 13.988281 1.054688 9.417969 C 1.054688 8.53125 1.191406 7.664062 1.46875 6.828125 L 2.679688 7.226562 C 2.445312 7.929688 2.328125 8.667969 2.328125 9.417969 C 2.328125 13.285156 5.476562 16.429688 9.34375 16.429688 C 10.054688 16.429688 10.757812 16.324219 11.429688 16.117188 L 11.808594 17.335938 C 11.015625 17.582031 10.183594 17.707031 9.34375 17.707031 Z M 9.34375 17.707031 " fill-opacity="1" fill-rule="nonzero"/></g><g clip-path="url(#745d1422b7)"><path fill="#ffffff" d="M 34.585938 7.496094 C 34.449219 7.011719 34.257812 6.542969 34.019531 6.101562 L 35.144531 5.5 C 35.425781 6.019531 35.648438 6.574219 35.8125 7.144531 Z M 34.585938 7.496094 " fill-opacity="1" fill-rule="nonzero"/></g><g clip-path="url(#a1e6fe4090)"><path fill="#ffffff" d="M 27.835938 17.707031 C 23.265625 17.707031 19.546875 13.988281 19.546875 9.417969 C 19.546875 4.847656 23.265625 1.125 27.835938 1.125 C 30.082031 1.125 32.179688 2.007812 33.753906 3.609375 L 32.84375 4.503906 C 31.511719 3.148438 29.734375 2.402344 27.835938 2.402344 C 23.96875 2.402344 20.820312 5.550781 20.820312 9.417969 C 20.820312 13.285156 23.96875 16.429688 27.835938 16.429688 C 31.703125 16.429688 34.851562 13.285156 34.851562 9.417969 L 36.125 9.417969 C 36.125 13.988281 32.40625 17.707031 27.835938 17.707031 Z M 27.835938 17.707031 " fill-opacity="1" fill-rule="nonzero"/></g><path fill="#ffffff" d="M 8.707031 14.144531 L 3.980469 9.417969 L 6.792969 6.601562 L 8.707031 8.515625 L 11.894531 5.328125 L 14.710938 8.140625 Z M 5.78125 9.417969 L 8.707031 12.339844 L 12.90625 8.140625 L 11.894531 7.128906 L 8.707031 10.316406 L 6.792969 8.40625 Z M 5.78125 9.417969 " fill-opacity="1" fill-rule="nonzero"/><path fill="#ffffff" d="M 29.75 14.144531 L 27.835938 12.230469 L 25.921875 14.144531 L 23.109375 11.328125 L 25.019531 9.417969 L 23.109375 7.503906 L 25.921875 4.6875 L 27.835938 6.601562 L 29.75 4.6875 L 32.5625 7.503906 L 30.652344 9.417969 L 32.5625 11.328125 Z M 27.835938 10.429688 L 29.75 12.339844 L 30.761719 11.328125 L 28.847656 9.417969 L 30.761719 7.503906 L 29.75 6.492188 L 27.835938 8.40625 L 25.921875 6.492188 L 24.910156 7.503906 L 26.824219 9.417969 L 24.910156 11.328125 L 25.921875 12.339844 Z M 27.835938 10.429688 " fill-opacity="1" fill-rule="nonzero"/></svg>