<svg xmlns="http://www.w3.org/2000/svg" xmlns:xlink="http://www.w3.org/1999/xlink" width="50" zoomAndPan="magnify" viewBox="0 0 37.5 37.499999" height="50" preserveAspectRatio="xMidYMid meet" version="1.0"><defs><clipPath id="935264f13f"><path d="M 1.589844 1 L 35 1 L 35 35 L 1.589844 35 Z M 1.589844 1 " clip-rule="nonzero"/></clipPath><clipPath id="2d442a61ac"><path d="M 9 0.558594 L 15 0.558594 L 15 6 L 9 6 Z M 9 0.558594 " clip-rule="nonzero"/></clipPath><clipPath id="90a2d4304f"><path d="M 12 31 L 18 31 L 18 36.082031 L 12 36.082031 Z M 12 31 " clip-rule="nonzero"/></clipPath><clipPath id="38ee2460a9"><path d="M 30 22 L 35.636719 22 L 35.636719 28 L 30 28 Z M 30 22 " clip-rule="nonzero"/></clipPath></defs><path fill="#ffbd59" d="M 19.058594 30.765625 L 17.273438 30.765625 C 16.316406 30.765625 15.535156 29.984375 15.535156 29.027344 L 15.535156 27.042969 C 14.90625 26.855469 14.296875 26.601562 13.71875 26.289062 L 12.3125 27.691406 C 11.984375 28.019531 11.550781 28.199219 11.082031 28.199219 C 10.617188 28.199219 10.183594 28.019531 9.855469 27.691406 L 8.59375 26.433594 C 8.265625 26.105469 8.085938 25.667969 8.085938 25.203125 C 8.085938 24.738281 8.265625 24.300781 8.59375 23.972656 L 10 22.566406 C 9.683594 21.992188 9.429688 21.382812 9.246094 20.75 L 7.257812 20.75 C 6.300781 20.75 5.519531 19.972656 5.519531 19.011719 L 5.519531 17.230469 C 5.519531 16.269531 6.300781 15.492188 7.257812 15.492188 L 9.246094 15.492188 C 9.429688 14.859375 9.683594 14.25 9.996094 13.671875 L 8.589844 12.265625 C 8.265625 11.941406 8.085938 11.503906 8.085938 11.039062 C 8.085938 10.574219 8.265625 10.136719 8.589844 9.808594 L 9.851562 8.546875 C 10.179688 8.222656 10.617188 8.039062 11.082031 8.039062 C 11.546875 8.039062 11.984375 8.222656 12.3125 8.546875 L 13.714844 9.953125 C 14.296875 9.636719 14.902344 9.386719 15.535156 9.199219 L 15.535156 7.210938 C 15.535156 6.253906 16.3125 5.472656 17.273438 5.472656 L 19.054688 5.472656 C 20.015625 5.472656 20.792969 6.253906 20.792969 7.210938 L 20.792969 9.199219 C 21.425781 9.386719 22.035156 9.636719 22.609375 9.953125 L 24.015625 8.546875 C 24.34375 8.222656 24.78125 8.039062 25.246094 8.039062 C 25.710938 8.039062 26.148438 8.222656 26.476562 8.546875 L 27.734375 9.808594 C 28.414062 10.488281 28.414062 11.589844 27.734375 12.265625 L 26.328125 13.671875 C 26.644531 14.25 26.898438 14.859375 27.085938 15.488281 L 29.070312 15.488281 C 30.03125 15.488281 30.808594 16.269531 30.808594 17.226562 L 30.808594 19.011719 C 30.808594 19.96875 30.03125 20.75 29.070312 20.75 L 27.085938 20.75 C 26.898438 21.378906 26.644531 21.988281 26.332031 22.566406 L 27.734375 23.972656 C 28.414062 24.652344 28.414062 25.753906 27.734375 26.429688 L 26.476562 27.691406 C 26.148438 28.019531 25.710938 28.199219 25.246094 28.199219 C 24.78125 28.199219 24.34375 28.019531 24.015625 27.691406 L 22.609375 26.285156 C 22.035156 26.601562 21.425781 26.855469 20.792969 27.042969 L 20.792969 29.027344 C 20.796875 29.984375 20.015625 30.765625 19.058594 30.765625 Z M 13.640625 25.238281 C 13.722656 25.238281 13.804688 25.261719 13.878906 25.304688 C 14.578125 25.722656 15.328125 26.035156 16.117188 26.234375 C 16.324219 26.285156 16.46875 26.472656 16.46875 26.6875 L 16.46875 29.027344 C 16.46875 29.472656 16.828125 29.835938 17.273438 29.835938 L 19.058594 29.835938 C 19.5 29.835938 19.863281 29.472656 19.863281 29.027344 L 19.863281 26.6875 C 19.863281 26.472656 20.007812 26.285156 20.214844 26.234375 C 21 26.035156 21.753906 25.722656 22.453125 25.308594 C 22.636719 25.199219 22.871094 25.226562 23.019531 25.378906 L 24.679688 27.035156 C 24.828125 27.1875 25.03125 27.269531 25.246094 27.269531 C 25.464844 27.269531 25.664062 27.1875 25.816406 27.035156 L 27.078125 25.773438 C 27.230469 25.621094 27.3125 25.417969 27.3125 25.203125 C 27.3125 24.988281 27.230469 24.785156 27.078125 24.632812 L 25.421875 22.976562 C 25.269531 22.824219 25.242188 22.589844 25.351562 22.40625 C 25.769531 21.710938 26.078125 20.957031 26.277344 20.171875 C 26.332031 19.964844 26.515625 19.820312 26.730469 19.820312 L 29.074219 19.820312 C 29.519531 19.820312 29.878906 19.457031 29.878906 19.015625 L 29.878906 17.230469 C 29.878906 16.785156 29.519531 16.421875 29.074219 16.421875 L 26.730469 16.421875 C 26.515625 16.421875 26.332031 16.277344 26.277344 16.070312 C 26.082031 15.285156 25.769531 14.53125 25.351562 13.835938 C 25.242188 13.652344 25.269531 13.417969 25.421875 13.265625 L 27.082031 11.609375 C 27.394531 11.296875 27.394531 10.785156 27.082031 10.46875 L 25.820312 9.207031 C 25.667969 9.058594 25.464844 8.972656 25.25 8.972656 C 25.03125 8.972656 24.832031 9.058594 24.679688 9.207031 L 23.023438 10.867188 C 22.871094 11.015625 22.636719 11.046875 22.453125 10.9375 C 21.757812 10.519531 21.003906 10.207031 20.21875 10.007812 C 20.011719 9.957031 19.863281 9.769531 19.863281 9.554688 L 19.863281 7.214844 C 19.863281 6.769531 19.503906 6.40625 19.058594 6.40625 L 17.273438 6.40625 C 16.832031 6.40625 16.46875 6.769531 16.46875 7.214844 L 16.46875 9.554688 C 16.46875 9.769531 16.324219 9.957031 16.117188 10.007812 C 15.332031 10.207031 14.578125 10.519531 13.878906 10.9375 C 13.699219 11.046875 13.464844 11.015625 13.3125 10.867188 L 11.65625 9.207031 C 11.503906 9.058594 11.300781 8.972656 11.085938 8.972656 C 10.871094 8.972656 10.667969 9.058594 10.515625 9.207031 L 9.253906 10.46875 C 8.941406 10.785156 8.941406 11.296875 9.253906 11.609375 L 10.910156 13.269531 C 11.0625 13.417969 11.09375 13.652344 10.984375 13.835938 C 10.566406 14.535156 10.253906 15.285156 10.054688 16.074219 C 10.003906 16.28125 9.816406 16.425781 9.601562 16.425781 L 7.257812 16.425781 C 6.816406 16.425781 6.453125 16.785156 6.453125 17.230469 L 6.453125 19.015625 C 6.453125 19.460938 6.816406 19.820312 7.257812 19.820312 L 9.601562 19.820312 C 9.816406 19.820312 10.003906 19.964844 10.054688 20.171875 C 10.253906 20.960938 10.566406 21.710938 10.984375 22.410156 C 11.089844 22.59375 11.0625 22.828125 10.910156 22.976562 L 9.253906 24.636719 C 9.105469 24.785156 9.019531 24.988281 9.019531 25.207031 C 9.019531 25.421875 9.105469 25.625 9.253906 25.773438 L 10.515625 27.035156 C 10.667969 27.1875 10.871094 27.269531 11.085938 27.269531 C 11.300781 27.269531 11.503906 27.1875 11.65625 27.035156 L 13.3125 25.378906 C 13.398438 25.285156 13.519531 25.238281 13.640625 25.238281 Z M 13.640625 25.238281 " fill-opacity="1" fill-rule="nonzero"/><path fill="#ffbd59" d="M 18.164062 24.941406 C 14.40625 24.941406 11.347656 21.882812 11.347656 18.121094 C 11.347656 14.359375 14.40625 11.300781 18.164062 11.300781 C 21.925781 11.300781 24.984375 14.359375 24.984375 18.121094 C 24.984375 21.882812 21.925781 24.941406 18.164062 24.941406 Z M 18.164062 12.230469 C 14.917969 12.230469 12.277344 14.875 12.277344 18.121094 C 12.277344 21.367188 14.917969 24.007812 18.164062 24.007812 C 21.414062 24.007812 24.054688 21.367188 24.054688 18.121094 C 24.054688 14.875 21.414062 12.230469 18.164062 12.230469 Z M 18.164062 12.230469 " fill-opacity="1" fill-rule="nonzero"/><g clip-path="url(#935264f13f)"><path fill="#ffbd59" d="M 18.164062 34.6875 C 17.800781 34.6875 17.421875 34.675781 17.039062 34.648438 C 16.78125 34.632812 16.585938 34.410156 16.605469 34.152344 C 16.621094 33.894531 16.84375 33.703125 17.101562 33.71875 C 17.464844 33.742188 17.820312 33.757812 18.164062 33.757812 C 22.472656 33.757812 26.484375 32.042969 29.464844 28.929688 C 29.640625 28.742188 29.9375 28.738281 30.121094 28.914062 C 30.308594 29.09375 30.3125 29.386719 30.136719 29.574219 C 28.605469 31.171875 26.804688 32.429688 24.785156 33.3125 C 22.691406 34.222656 20.464844 34.6875 18.164062 34.6875 Z M 9.8125 32.351562 C 9.730469 32.351562 9.648438 32.332031 9.570312 32.285156 C 7.183594 30.832031 5.183594 28.785156 3.792969 26.363281 C 2.355469 23.867188 1.597656 21.015625 1.597656 18.121094 C 1.597656 12.023438 4.933594 6.433594 10.300781 3.535156 C 10.527344 3.410156 10.8125 3.496094 10.933594 3.722656 C 11.058594 3.949219 10.972656 4.230469 10.746094 4.355469 C 5.679688 7.089844 2.53125 12.367188 2.53125 18.121094 C 2.53125 23.625 5.34375 28.625 10.054688 31.488281 C 10.273438 31.621094 10.34375 31.910156 10.210938 32.128906 C 10.125 32.273438 9.96875 32.351562 9.8125 32.351562 Z M 33.597656 23.195312 C 33.550781 23.195312 33.507812 23.191406 33.460938 23.175781 C 33.214844 23.105469 33.074219 22.84375 33.148438 22.597656 C 33.582031 21.148438 33.800781 19.640625 33.800781 18.121094 C 33.800781 9.5 26.785156 2.484375 18.164062 2.484375 C 17.957031 2.484375 17.746094 2.488281 17.539062 2.496094 C 17.28125 2.507812 17.066406 2.308594 17.054688 2.050781 C 17.046875 1.792969 17.246094 1.574219 17.503906 1.566406 C 17.722656 1.558594 17.945312 1.550781 18.164062 1.550781 C 27.300781 1.550781 34.734375 8.984375 34.734375 18.121094 C 34.734375 19.730469 34.5 21.328125 34.042969 22.863281 C 33.980469 23.066406 33.796875 23.195312 33.597656 23.195312 Z M 33.597656 23.195312 " fill-opacity="1" fill-rule="nonzero"/></g><g clip-path="url(#2d442a61ac)"><path fill="#ffbd59" d="M 12.398438 5.609375 C 11.003906 5.609375 9.871094 4.476562 9.871094 3.082031 C 9.871094 1.691406 11.003906 0.554688 12.398438 0.554688 C 13.789062 0.554688 14.921875 1.691406 14.921875 3.082031 C 14.921875 4.476562 13.789062 5.609375 12.398438 5.609375 Z M 12.398438 1.488281 C 11.515625 1.488281 10.800781 2.203125 10.800781 3.082031 C 10.800781 3.960938 11.515625 4.675781 12.398438 4.675781 C 13.277344 4.675781 13.992188 3.960938 13.992188 3.082031 C 13.992188 2.203125 13.277344 1.488281 12.398438 1.488281 Z M 12.398438 1.488281 " fill-opacity="1" fill-rule="nonzero"/></g><g clip-path="url(#90a2d4304f)"><path fill="#ffbd59" d="M 15.027344 36.441406 C 13.632812 36.441406 12.5 35.308594 12.5 33.914062 C 12.5 32.523438 13.632812 31.386719 15.027344 31.386719 C 16.417969 31.386719 17.550781 32.523438 17.550781 33.914062 C 17.550781 35.308594 16.417969 36.441406 15.027344 36.441406 Z M 15.027344 32.320312 C 14.144531 32.320312 13.429688 33.035156 13.429688 33.914062 C 13.429688 34.792969 14.144531 35.511719 15.027344 35.511719 C 15.90625 35.511719 16.621094 34.792969 16.621094 33.914062 C 16.621094 33.035156 15.90625 32.320312 15.027344 32.320312 Z M 15.027344 32.320312 " fill-opacity="1" fill-rule="nonzero"/></g><g clip-path="url(#38ee2460a9)"><path fill="#ffbd59" d="M 32.882812 27.191406 C 31.488281 27.191406 30.355469 26.058594 30.355469 24.664062 C 30.355469 23.269531 31.488281 22.136719 32.882812 22.136719 C 34.273438 22.136719 35.410156 23.269531 35.410156 24.664062 C 35.410156 26.058594 34.273438 27.191406 32.882812 27.191406 Z M 32.882812 23.070312 C 32.003906 23.070312 31.285156 23.785156 31.285156 24.664062 C 31.285156 25.542969 32.003906 26.257812 32.882812 26.257812 C 33.761719 26.257812 34.476562 25.542969 34.476562 24.664062 C 34.476562 23.785156 33.761719 23.070312 32.882812 23.070312 Z M 32.882812 23.070312 " fill-opacity="1" fill-rule="nonzero"/></g><path fill="#ffbd59" d="M 18.164062 19.707031 C 17.289062 19.707031 16.578125 18.996094 16.578125 18.121094 C 16.578125 17.246094 17.289062 16.53125 18.164062 16.53125 C 19.042969 16.53125 19.753906 17.246094 19.753906 18.121094 C 19.753906 18.996094 19.042969 19.707031 18.164062 19.707031 Z M 18.164062 17.464844 C 17.804688 17.464844 17.507812 17.757812 17.507812 18.121094 C 17.507812 18.480469 17.804688 18.777344 18.164062 18.777344 C 18.527344 18.777344 18.820312 18.480469 18.820312 18.121094 C 18.820312 17.757812 18.527344 17.464844 18.164062 17.464844 Z M 18.164062 17.464844 " fill-opacity="1" fill-rule="nonzero"/><path fill="#ffbd59" d="M 21.183594 18.585938 L 19.289062 18.585938 C 19.03125 18.585938 18.820312 18.378906 18.820312 18.121094 C 18.820312 17.863281 19.03125 17.65625 19.289062 17.65625 L 21.183594 17.65625 C 21.441406 17.65625 21.648438 17.863281 21.648438 18.121094 C 21.648438 18.378906 21.441406 18.585938 21.183594 18.585938 Z M 18.117188 17.464844 C 17.859375 17.464844 17.652344 17.253906 17.652344 17 L 17.652344 13.859375 C 17.652344 13.601562 17.859375 13.394531 18.117188 13.394531 C 18.375 13.394531 18.585938 13.601562 18.585938 13.859375 L 18.585938 17 C 18.582031 17.253906 18.375 17.464844 18.117188 17.464844 Z M 18.117188 17.464844 " fill-opacity="1" fill-rule="nonzero"/></svg>