<svg xmlns="http://www.w3.org/2000/svg" xmlns:xlink="http://www.w3.org/1999/xlink" width="50" zoomAndPan="magnify" viewBox="0 0 37.5 37.499999" height="50" preserveAspectRatio="xMidYMid meet" version="1.0"><defs><clipPath id="583f53ea5e"><path d="M 11 1.40625 L 26 1.40625 L 26 16 L 11 16 Z M 11 1.40625 " clip-rule="nonzero"/></clipPath><clipPath id="27cb5117f4"><path d="M 23 11 L 35.894531 11 L 35.894531 24 L 23 24 Z M 23 11 " clip-rule="nonzero"/></clipPath><clipPath id="3bae497312"><path d="M 1.109375 11 L 13 11 L 13 24 L 1.109375 24 Z M 1.109375 11 " clip-rule="nonzero"/></clipPath></defs><path fill="#ffffff" d="M 15.125 21.582031 C 15.125 23.355469 16.578125 24.808594 18.351562 24.808594 C 20.128906 24.808594 21.582031 23.355469 21.582031 21.582031 C 21.582031 19.804688 20.128906 18.351562 18.351562 18.351562 C 16.578125 18.351562 15.125 19.804688 15.125 21.582031 Z M 20.503906 21.582031 C 20.503906 22.765625 19.535156 23.734375 18.351562 23.734375 C 17.167969 23.734375 16.199219 22.765625 16.199219 21.582031 C 16.199219 20.398438 17.167969 19.429688 18.351562 19.429688 C 19.535156 19.429688 20.503906 20.398438 20.503906 21.582031 Z M 20.503906 21.582031 " fill-opacity="1" fill-rule="nonzero"/><path fill="#ffffff" d="M 28.519531 26.128906 C 28.117188 25.722656 27.5 25.667969 27.042969 26.019531 C 27.042969 26.019531 27.015625 26.019531 27.015625 26.046875 L 24.808594 27.875 C 24.78125 27.875 24.753906 27.875 24.753906 27.875 L 22.765625 26.421875 C 21.742188 25.453125 20.53125 25.347656 20.046875 25.347656 L 16.523438 25.347656 C 16.496094 25.347656 16.46875 25.347656 16.441406 25.347656 C 15.878906 25.375 14.828125 25.5625 13.914062 26.421875 L 11.949219 27.875 C 11.925781 27.875 11.898438 27.902344 11.898438 27.875 L 9.691406 26.046875 C 9.691406 26.046875 9.664062 26.046875 9.664062 26.019531 C 9.207031 25.695312 8.589844 25.722656 8.183594 26.128906 L 7.648438 26.691406 C 7.433594 26.933594 7.296875 27.230469 7.324219 27.554688 C 7.351562 27.875 7.511719 28.171875 7.753906 28.359375 L 11.25 31.238281 C 11.65625 31.535156 12.191406 31.535156 12.597656 31.265625 L 14.585938 29.972656 L 14.585938 34.65625 C 14.585938 35.21875 15.070312 35.890625 15.742188 35.890625 L 20.988281 35.890625 C 21.632812 35.890625 22.144531 35.246094 22.144531 34.65625 L 22.144531 29.972656 L 24.136719 31.292969 C 24.539062 31.585938 25.078125 31.5625 25.480469 31.265625 L 28.953125 28.414062 C 29.21875 28.226562 29.382812 27.929688 29.382812 27.605469 C 29.410156 27.285156 29.273438 26.960938 29.058594 26.746094 Z M 28.277344 27.5 L 24.808594 30.351562 C 24.78125 30.378906 24.753906 30.378906 24.726562 30.351562 C 24.726562 30.351562 24.703125 30.351562 24.703125 30.324219 L 21.851562 28.46875 C 21.6875 28.359375 21.472656 28.359375 21.3125 28.441406 C 21.152344 28.519531 21.042969 28.710938 21.042969 28.925781 L 21.042969 34.601562 C 21.042969 34.65625 20.988281 34.734375 20.933594 34.761719 L 16.226562 34.761719 C 16.199219 34.761719 16.175781 34.761719 16.175781 34.761719 L 15.769531 34.761719 C 15.742188 34.734375 15.664062 34.65625 15.664062 34.601562 L 15.664062 28.925781 C 15.664062 28.738281 15.554688 28.546875 15.394531 28.441406 C 15.3125 28.386719 15.234375 28.386719 15.125 28.386719 C 15.015625 28.386719 14.910156 28.414062 14.828125 28.46875 L 11.976562 30.296875 C 11.976562 30.296875 11.949219 30.296875 11.949219 30.324219 C 11.925781 30.351562 11.898438 30.351562 11.898438 30.324219 L 8.425781 27.5 C 8.425781 27.5 8.398438 27.5 8.398438 27.472656 C 8.398438 27.445312 8.398438 27.445312 8.398438 27.445312 L 8.9375 26.878906 C 8.964844 26.851562 8.992188 26.851562 9.019531 26.878906 L 11.222656 28.710938 C 11.222656 28.710938 11.25 28.710938 11.25 28.738281 C 11.65625 29.03125 12.191406 29.03125 12.597656 28.738281 L 14.585938 27.285156 C 14.613281 27.257812 14.613281 27.257812 14.640625 27.230469 C 15.3125 26.558594 16.121094 26.449219 16.523438 26.421875 C 16.523438 26.421875 16.550781 26.421875 16.550781 26.421875 L 20.046875 26.421875 C 20.398438 26.421875 21.285156 26.503906 22.039062 27.230469 C 22.066406 27.257812 22.066406 27.257812 22.09375 27.285156 L 24.082031 28.738281 C 24.484375 29.03125 25.023438 29.03125 25.425781 28.738281 C 25.425781 28.738281 25.453125 28.738281 25.453125 28.710938 L 27.660156 26.878906 C 27.6875 26.878906 27.714844 26.878906 27.742188 26.878906 L 28.277344 27.445312 C 28.277344 27.445312 28.304688 27.472656 28.277344 27.472656 C 28.304688 27.5 28.304688 27.5 28.277344 27.5 Z M 28.277344 27.5 " fill-opacity="1" fill-rule="nonzero"/><path fill="#ffffff" d="M 8.640625 14.050781 C 8.023438 14.023438 7.457031 14.316406 7.054688 14.722656 C 6.652344 14.316406 6.085938 14.023438 5.46875 14.050781 C 4.285156 14.101562 3.316406 15.125 3.289062 16.363281 C 3.261719 16.953125 3.476562 17.519531 3.800781 17.949219 C 3.828125 18.003906 6.625 21.394531 6.625 21.394531 C 6.730469 21.527344 6.867188 21.582031 7.027344 21.582031 C 7.191406 21.582031 7.351562 21.5 7.433594 21.394531 L 10.121094 18.109375 C 10.28125 17.921875 10.390625 17.761719 10.5 17.574219 C 10.714844 17.167969 10.792969 16.765625 10.792969 16.390625 C 10.792969 15.125 9.824219 14.101562 8.640625 14.050781 Z M 9.746094 16.390625 C 9.746094 16.605469 9.691406 16.820312 9.558594 17.0625 C 9.503906 17.167969 9.421875 17.304688 9.316406 17.410156 L 7.054688 20.210938 C 6.273438 19.269531 4.660156 17.304688 4.632812 17.277344 C 4.445312 17.0625 4.339844 16.738281 4.363281 16.417969 C 4.390625 15.742188 4.902344 15.179688 5.523438 15.152344 C 5.523438 15.152344 5.546875 15.152344 5.546875 15.152344 C 5.980469 15.152344 6.382812 15.527344 6.597656 15.878906 C 6.707031 16.039062 6.867188 16.121094 7.054688 16.121094 C 7.242188 16.121094 7.40625 16.011719 7.511719 15.878906 C 7.726562 15.527344 8.132812 15.125 8.589844 15.152344 C 9.207031 15.152344 9.71875 15.71875 9.746094 16.390625 Z M 9.746094 16.390625 " fill-opacity="1" fill-rule="nonzero"/><path fill="#ffffff" d="M 31.023438 15.691406 L 30.1875 13.808594 C 30.109375 13.617188 29.917969 13.484375 29.703125 13.484375 C 29.488281 13.484375 29.300781 13.59375 29.21875 13.78125 L 28.304688 15.609375 L 26.34375 15.878906 C 26.152344 15.90625 25.964844 16.039062 25.910156 16.226562 C 25.832031 16.417969 25.886719 16.632812 26.019531 16.765625 L 27.417969 18.246094 L 27.042969 20.289062 C 27.015625 20.503906 27.09375 20.695312 27.257812 20.828125 C 27.417969 20.960938 27.632812 20.960938 27.820312 20.882812 L 29.570312 19.96875 L 31.292969 20.960938 C 31.371094 21.015625 31.480469 21.042969 31.5625 21.042969 C 31.667969 21.042969 31.777344 21.015625 31.855469 20.960938 C 32.019531 20.855469 32.125 20.640625 32.097656 20.453125 L 31.804688 18.378906 L 33.253906 16.953125 C 33.390625 16.820312 33.445312 16.605469 33.390625 16.417969 C 33.335938 16.226562 33.175781 16.09375 32.960938 16.039062 Z M 30.863281 17.789062 C 30.726562 17.894531 30.671875 18.085938 30.699219 18.246094 L 30.886719 19.484375 L 29.867188 18.890625 C 29.785156 18.835938 29.679688 18.808594 29.597656 18.808594 C 29.515625 18.808594 29.4375 18.835938 29.355469 18.863281 L 28.304688 19.402344 L 28.519531 18.164062 C 28.546875 18.003906 28.496094 17.816406 28.386719 17.707031 L 27.527344 16.792969 L 28.710938 16.632812 C 28.898438 16.605469 29.03125 16.496094 29.113281 16.335938 L 29.652344 15.257812 L 30.136719 16.363281 C 30.214844 16.523438 30.351562 16.632812 30.539062 16.683594 L 31.722656 16.902344 Z M 30.863281 17.789062 " fill-opacity="1" fill-rule="nonzero"/><path fill="#ffffff" d="M 23.464844 8.347656 C 23.464844 8.023438 23.355469 7.699219 23.058594 7.457031 C 23.167969 7.269531 23.222656 7.082031 23.222656 6.867188 C 23.222656 6.167969 22.628906 5.601562 21.824219 5.523438 C 21.796875 5.523438 21.796875 5.523438 21.769531 5.523438 L 19.429688 5.523438 L 19.699219 4.742188 C 19.804688 4.417969 19.777344 4.070312 19.617188 3.773438 C 19.457031 3.449219 19.1875 3.234375 18.835938 3.128906 C 18.136719 2.914062 17.410156 3.289062 17.167969 3.960938 L 16.523438 5.953125 C 16.523438 5.980469 16.523438 6.007812 16.496094 6.03125 C 16.496094 6.085938 16.417969 6.140625 16.335938 6.167969 C 16.175781 5.980469 15.933594 5.871094 15.664062 5.871094 L 14.667969 5.871094 C 14.15625 5.871094 13.726562 6.300781 13.726562 6.8125 L 13.726562 11.816406 C 13.726562 12.328125 14.15625 12.757812 14.667969 12.757812 L 15.664062 12.757812 C 15.796875 12.757812 15.90625 12.730469 16.011719 12.675781 C 16.121094 12.730469 16.226562 12.757812 16.335938 12.757812 L 20.933594 12.757812 C 21.367188 12.757812 21.742188 12.597656 22.039062 12.300781 C 22.28125 12.058594 22.414062 11.707031 22.414062 11.386719 C 22.414062 11.226562 22.386719 11.0625 22.335938 10.929688 C 22.65625 10.714844 22.871094 10.335938 22.871094 9.878906 C 22.871094 9.746094 22.84375 9.609375 22.792969 9.476562 C 23.222656 9.234375 23.464844 8.859375 23.464844 8.347656 Z M 15.582031 11.628906 L 14.855469 11.628906 L 14.855469 6.867188 L 15.582031 6.867188 Z M 22.039062 8.5625 L 21.472656 8.5625 C 21.175781 8.5625 20.933594 8.804688 20.933594 9.097656 C 20.933594 9.394531 21.175781 9.636719 21.472656 9.636719 C 21.6875 9.636719 21.824219 9.773438 21.824219 9.851562 C 21.824219 9.988281 21.742188 10.066406 21.582031 10.066406 L 21.125 10.066406 C 20.828125 10.066406 20.585938 10.308594 20.585938 10.605469 C 20.585938 10.902344 20.828125 11.144531 21.125 11.144531 L 21.152344 11.144531 C 21.3125 11.144531 21.394531 11.226562 21.394531 11.359375 C 21.394531 11.386719 21.394531 11.441406 21.339844 11.519531 C 21.257812 11.601562 21.152344 11.628906 21.015625 11.628906 L 16.660156 11.628906 L 16.660156 7.136719 C 17.117188 7.027344 17.492188 6.679688 17.601562 6.222656 L 18.246094 4.257812 C 18.300781 4.148438 18.433594 4.070312 18.566406 4.125 C 18.648438 4.148438 18.703125 4.203125 18.703125 4.230469 C 18.730469 4.257812 18.730469 4.3125 18.703125 4.363281 L 18.273438 5.628906 C 18.191406 5.871094 18.246094 6.140625 18.40625 6.328125 C 18.566406 6.515625 18.785156 6.597656 19.027344 6.570312 L 21.742188 6.570312 C 21.984375 6.597656 22.117188 6.730469 22.117188 6.839844 C 22.117188 6.921875 21.984375 7.054688 21.769531 7.054688 C 21.769531 7.054688 21.769531 7.054688 21.742188 7.054688 C 21.445312 7.054688 21.203125 7.296875 21.203125 7.59375 C 21.203125 7.890625 21.445312 8.132812 21.742188 8.132812 C 21.851562 8.132812 22.335938 8.132812 22.335938 8.347656 C 22.386719 8.425781 22.386719 8.5625 22.039062 8.5625 Z M 22.039062 8.5625 " fill-opacity="1" fill-rule="nonzero"/><g clip-path="url(#583f53ea5e)"><path fill="#ffffff" d="M 25.617188 8.667969 C 25.617188 4.660156 22.359375 1.40625 18.351562 1.40625 C 14.34375 1.40625 11.089844 4.660156 11.089844 8.667969 C 11.089844 12.675781 14.34375 15.933594 18.351562 15.933594 C 22.359375 15.933594 25.617188 12.675781 25.617188 8.667969 Z M 18.351562 14.855469 C 14.9375 14.855469 12.164062 12.085938 12.164062 8.667969 C 12.164062 5.253906 14.9375 2.480469 18.351562 2.480469 C 21.769531 2.480469 24.539062 5.253906 24.539062 8.667969 C 24.539062 12.085938 21.769531 14.855469 18.351562 14.855469 Z M 18.351562 14.855469 " fill-opacity="1" fill-rule="nonzero"/></g><g clip-path="url(#27cb5117f4)"><path fill="#ffffff" d="M 29.652344 11.628906 C 26.394531 11.628906 23.734375 14.292969 23.734375 17.546875 C 23.734375 20.800781 26.394531 23.464844 29.652344 23.464844 C 32.90625 23.464844 35.570312 20.800781 35.570312 17.546875 C 35.570312 14.292969 32.90625 11.628906 29.652344 11.628906 Z M 29.652344 22.386719 C 26.988281 22.386719 24.808594 20.210938 24.808594 17.546875 C 24.808594 14.882812 26.988281 12.703125 29.652344 12.703125 C 32.3125 12.703125 34.492188 14.882812 34.492188 17.546875 C 34.492188 20.210938 32.3125 22.386719 29.652344 22.386719 Z M 29.652344 22.386719 " fill-opacity="1" fill-rule="nonzero"/></g><g clip-path="url(#3bae497312)"><path fill="#ffffff" d="M 12.972656 17.546875 C 12.972656 14.292969 10.308594 11.628906 7.054688 11.628906 C 3.800781 11.628906 1.136719 14.292969 1.136719 17.546875 C 1.136719 20.800781 3.800781 23.464844 7.054688 23.464844 C 10.308594 23.464844 12.972656 20.800781 12.972656 17.546875 Z M 7.054688 22.386719 C 4.390625 22.386719 2.214844 20.210938 2.214844 17.546875 C 2.214844 14.882812 4.390625 12.703125 7.054688 12.703125 C 9.71875 12.703125 11.898438 14.882812 11.898438 17.546875 C 11.898438 20.210938 9.71875 22.386719 7.054688 22.386719 Z M 7.054688 22.386719 " fill-opacity="1" fill-rule="nonzero"/></g></svg>