<svg xmlns="http://www.w3.org/2000/svg" xmlns:xlink="http://www.w3.org/1999/xlink" width="50" zoomAndPan="magnify" viewBox="0 0 37.5 37.499999" height="50" preserveAspectRatio="xMidYMid meet" version="1.0"><defs><clipPath id="65bccb70ba"><path d="M 1.289062 1.027344 L 36 1.027344 L 36 35.8125 L 1.289062 35.8125 Z M 1.289062 1.027344 " clip-rule="nonzero"/></clipPath></defs><g clip-path="url(#65bccb70ba)"><path fill="#ffffff" d="M 8.675781 19.628906 C 10.703125 19.628906 12.355469 17.980469 12.355469 15.953125 C 12.355469 13.921875 10.703125 12.273438 8.675781 12.273438 C 6.648438 12.273438 5 13.921875 5 15.953125 C 5 17.980469 6.648438 19.628906 8.675781 19.628906 Z M 8.675781 13.253906 C 10.164062 13.253906 11.375 14.464844 11.375 15.953125 C 11.375 17.4375 10.164062 18.648438 8.675781 18.648438 C 7.191406 18.648438 5.980469 17.4375 5.980469 15.953125 C 5.980469 14.464844 7.191406 13.253906 8.675781 13.253906 Z M 28.535156 19.628906 C 30.566406 19.628906 32.214844 17.980469 32.214844 15.953125 C 32.214844 13.921875 30.566406 12.273438 28.535156 12.273438 C 26.507812 12.273438 24.859375 13.921875 24.859375 15.953125 C 24.859375 17.980469 26.507812 19.628906 28.535156 19.628906 Z M 28.535156 13.253906 C 30.023438 13.253906 31.234375 14.464844 31.234375 15.953125 C 31.234375 17.4375 30.023438 18.648438 28.535156 18.648438 C 27.050781 18.648438 25.839844 17.4375 25.839844 15.953125 C 25.839844 14.464844 27.050781 13.253906 28.535156 13.253906 Z M 28.535156 20.484375 C 26.277344 20.484375 24.148438 21.519531 22.753906 23.277344 C 22.421875 23.140625 22.023438 23.203125 21.75 23.472656 C 21.476562 23.75 21.097656 23.824219 20.738281 23.675781 C 20.375 23.523438 20.160156 23.203125 20.160156 22.816406 C 20.160156 22.3125 19.753906 21.902344 19.25 21.902344 L 17.964844 21.902344 C 17.460938 21.902344 17.050781 22.3125 17.050781 22.816406 C 17.050781 23.203125 16.835938 23.523438 16.476562 23.675781 C 16.117188 23.824219 15.738281 23.75 15.460938 23.472656 C 15.191406 23.203125 14.792969 23.140625 14.460938 23.277344 C 13.0625 21.519531 10.9375 20.484375 8.675781 20.484375 C 4.601562 20.484375 1.289062 23.800781 1.289062 27.871094 C 1.289062 28.382812 1.484375 29.128906 2.417969 29.792969 C 3.796875 30.773438 6.234375 31.21875 8.632812 31.21875 C 10.300781 31.21875 11.953125 31 13.21875 30.601562 C 13.320312 30.691406 13.40625 30.808594 13.460938 30.949219 C 13.613281 31.308594 13.535156 31.6875 13.261719 31.964844 C 13.089844 32.136719 12.996094 32.363281 12.996094 32.609375 C 12.996094 32.851562 13.089844 33.082031 13.261719 33.253906 L 14.171875 34.164062 C 14.34375 34.335938 14.570312 34.429688 14.816406 34.429688 C 15.058594 34.429688 15.289062 34.335938 15.460938 34.164062 C 15.738281 33.886719 16.117188 33.8125 16.476562 33.960938 C 16.835938 34.109375 17.050781 34.433594 17.050781 34.820312 C 17.050781 35.324219 17.460938 35.734375 17.964844 35.734375 L 19.25 35.734375 C 19.753906 35.734375 20.160156 35.324219 20.160156 34.820312 C 20.160156 34.433594 20.375 34.109375 20.738281 33.960938 C 21.097656 33.8125 21.476562 33.886719 21.75 34.164062 C 21.925781 34.335938 22.152344 34.429688 22.398438 34.429688 C 22.640625 34.429688 22.871094 34.335938 23.042969 34.164062 L 23.953125 33.253906 C 24.125 33.082031 24.21875 32.851562 24.21875 32.609375 C 24.21875 32.363281 24.125 32.136719 23.953125 31.964844 C 23.675781 31.6875 23.601562 31.308594 23.75 30.949219 C 23.808594 30.808594 23.890625 30.691406 23.996094 30.601562 C 25.257812 31 26.910156 31.21875 28.578125 31.21875 C 30.976562 31.21875 33.414062 30.773438 34.792969 29.792969 C 35.726562 29.128906 35.925781 28.382812 35.925781 27.871094 C 35.925781 23.800781 32.609375 20.484375 28.535156 20.484375 Z M 2.988281 28.992188 C 2.511719 28.65625 2.269531 28.277344 2.269531 27.871094 C 2.269531 24.339844 5.144531 21.46875 8.675781 21.46875 C 10.652344 21.46875 12.507812 22.378906 13.71875 23.921875 L 13.261719 24.382812 C 13.089844 24.554688 12.996094 24.785156 12.996094 25.027344 C 12.996094 25.269531 13.089844 25.5 13.261719 25.671875 C 13.535156 25.949219 13.613281 26.328125 13.460938 26.6875 C 13.3125 27.046875 12.992188 27.261719 12.601562 27.261719 C 12.101562 27.261719 11.691406 27.671875 11.691406 28.175781 L 11.691406 29.460938 C 11.691406 29.640625 11.742188 29.804688 11.832031 29.945312 C 8.765625 30.574219 4.675781 30.191406 2.988281 28.992188 Z M 22.84375 30.574219 C 22.550781 31.28125 22.691406 32.054688 23.210938 32.609375 L 22.394531 33.421875 C 21.84375 32.902344 21.070312 32.761719 20.363281 33.054688 C 19.652344 33.347656 19.207031 33.996094 19.179688 34.753906 L 18.03125 34.753906 C 18.007812 33.992188 17.558594 33.347656 16.851562 33.054688 C 16.144531 32.761719 15.371094 32.902344 14.816406 33.421875 L 14.003906 32.609375 C 14.523438 32.054688 14.664062 31.28125 14.371094 30.574219 C 14.078125 29.867188 13.429688 29.417969 12.671875 29.394531 L 12.671875 28.242188 C 13.429688 28.21875 14.078125 27.769531 14.371094 27.0625 C 14.664062 26.355469 14.523438 25.582031 14.003906 25.027344 L 14.816406 24.214844 C 15.371094 24.734375 16.144531 24.875 16.851562 24.582031 C 17.558594 24.289062 18.007812 23.640625 18.03125 22.882812 L 19.179688 22.882812 C 19.207031 23.640625 19.652344 24.289062 20.363281 24.582031 C 21.070312 24.875 21.84375 24.734375 22.394531 24.214844 L 23.210938 25.027344 C 22.691406 25.582031 22.550781 26.355469 22.84375 27.0625 C 23.136719 27.769531 23.78125 28.21875 24.539062 28.242188 L 24.539062 29.394531 C 23.78125 29.417969 23.136719 29.867188 22.84375 30.574219 Z M 34.226562 28.992188 C 32.539062 30.191406 28.449219 30.574219 25.378906 29.945312 C 25.46875 29.804688 25.523438 29.640625 25.523438 29.460938 L 25.523438 28.175781 C 25.523438 27.671875 25.113281 27.261719 24.609375 27.261719 C 24.222656 27.261719 23.898438 27.046875 23.75 26.6875 C 23.601562 26.328125 23.675781 25.949219 23.949219 25.671875 C 24.125 25.5 24.21875 25.269531 24.21875 25.027344 C 24.21875 24.785156 24.125 24.554688 23.949219 24.382812 L 23.492188 23.921875 C 24.703125 22.378906 26.5625 21.464844 28.535156 21.464844 C 32.070312 21.464844 34.941406 24.339844 34.941406 27.871094 C 34.941406 28.277344 34.703125 28.65625 34.226562 28.992188 Z M 18.605469 25.1875 C 16.605469 25.1875 14.976562 26.816406 14.976562 28.816406 C 14.976562 30.820312 16.605469 32.449219 18.605469 32.449219 C 20.609375 32.449219 22.238281 30.820312 22.238281 28.816406 C 22.238281 26.816406 20.609375 25.1875 18.605469 25.1875 Z M 18.605469 31.46875 C 17.144531 31.46875 15.957031 30.277344 15.957031 28.816406 C 15.957031 27.359375 17.144531 26.167969 18.605469 26.167969 C 20.066406 26.167969 21.253906 27.359375 21.253906 28.816406 C 21.253906 30.277344 20.066406 31.46875 18.605469 31.46875 Z M 13.472656 3.996094 C 13.472656 3.726562 13.691406 3.507812 13.964844 3.507812 L 22.066406 3.523438 L 20.488281 1.933594 C 20.296875 1.742188 20.300781 1.433594 20.492188 1.242188 C 20.683594 1.050781 20.996094 1.050781 21.1875 1.242188 L 23.597656 3.671875 C 23.789062 3.863281 23.789062 4.171875 23.59375 4.363281 L 21.167969 6.777344 C 21.074219 6.871094 20.949219 6.917969 20.820312 6.917969 C 20.695312 6.917969 20.570312 6.871094 20.472656 6.773438 C 20.28125 6.582031 20.285156 6.273438 20.476562 6.082031 L 22.0625 4.503906 L 13.960938 4.488281 C 13.691406 4.488281 13.472656 4.265625 13.472656 3.996094 Z M 13.617188 12.554688 C 13.523438 12.464844 13.472656 12.339844 13.472656 12.210938 C 13.472656 12.078125 13.523438 11.953125 13.613281 11.863281 L 16.027344 9.433594 C 16.21875 9.242188 16.527344 9.242188 16.722656 9.433594 C 16.914062 9.625 16.914062 9.933594 16.722656 10.125 L 15.144531 11.714844 L 23.25 11.699219 C 23.519531 11.699219 23.738281 11.917969 23.742188 12.1875 C 23.742188 12.457031 23.523438 12.679688 23.25 12.679688 L 15.152344 12.695312 L 16.738281 14.273438 C 16.929688 14.460938 16.929688 14.773438 16.738281 14.964844 C 16.644531 15.0625 16.515625 15.109375 16.390625 15.109375 C 16.265625 15.109375 16.140625 15.0625 16.042969 14.96875 Z M 13.617188 12.554688 " fill-opacity="1" fill-rule="nonzero"/></g></svg>