<svg xmlns="http://www.w3.org/2000/svg" xmlns:xlink="http://www.w3.org/1999/xlink" width="50" zoomAndPan="magnify" viewBox="0 0 37.5 37.499999" height="50" preserveAspectRatio="xMidYMid meet" version="1.0"><defs><clipPath id="2433d47de2"><path d="M 2 6 L 31 6 L 31 35.710938 L 2 35.710938 Z M 2 6 " clip-rule="nonzero"/></clipPath><clipPath id="1b37ac6bf8"><path d="M 26 1.667969 L 32 1.667969 L 32 10 L 26 10 Z M 26 1.667969 " clip-rule="nonzero"/></clipPath><clipPath id="95177206be"><path d="M 27 5 L 35.792969 5 L 35.792969 11 L 27 11 Z M 27 5 " clip-rule="nonzero"/></clipPath></defs><g clip-path="url(#2433d47de2)"><path fill="#ffffff" d="M 16.300781 35.175781 C 15.761719 35.171875 15.222656 35.140625 14.683594 35.078125 C 14.148438 35.015625 13.617188 34.921875 13.089844 34.796875 C 12.566406 34.675781 12.046875 34.519531 11.539062 34.339844 C 11.03125 34.15625 10.535156 33.945312 10.050781 33.703125 C 9.566406 33.464844 9.097656 33.199219 8.644531 32.90625 C 8.191406 32.613281 7.757812 32.292969 7.339844 31.949219 C 6.921875 31.609375 6.523438 31.242188 6.148438 30.851562 C 5.773438 30.464844 5.421875 30.054688 5.09375 29.628906 C 4.765625 29.199219 4.460938 28.753906 4.183594 28.289062 C 3.90625 27.824219 3.65625 27.347656 3.433594 26.855469 C 3.210938 26.363281 3.015625 25.859375 2.851562 25.347656 C 2.6875 24.832031 2.550781 24.308594 2.445312 23.78125 C 2.339844 23.25 2.265625 22.71875 2.21875 22.179688 C 2.175781 21.640625 2.164062 21.101562 2.179688 20.5625 C 2.195312 20.019531 2.246094 19.484375 2.324219 18.949219 C 2.402344 18.414062 2.511719 17.886719 2.648438 17.363281 C 2.789062 16.84375 2.957031 16.332031 3.15625 15.828125 C 3.355469 15.324219 3.578125 14.835938 3.832031 14.359375 C 4.085938 13.882812 4.367188 13.421875 4.671875 12.976562 C 4.980469 12.53125 5.3125 12.105469 5.667969 11.699219 C 6.023438 11.292969 6.398438 10.90625 6.796875 10.542969 C 7.199219 10.179688 7.617188 9.839844 8.054688 9.523438 C 8.492188 9.207031 8.949219 8.917969 9.417969 8.65625 C 9.890625 8.390625 10.375 8.15625 10.875 7.945312 C 11.371094 7.738281 11.882812 7.558594 12.402344 7.410156 C 12.917969 7.257812 13.445312 7.140625 13.976562 7.050781 C 14.511719 6.960938 15.046875 6.902344 15.585938 6.871094 C 16.125 6.84375 16.664062 6.847656 17.203125 6.878906 C 17.742188 6.914062 18.277344 6.976562 18.808594 7.070312 C 19.34375 7.164062 19.867188 7.289062 20.382812 7.445312 C 20.902344 7.597656 21.410156 7.78125 21.90625 7.996094 C 22.402344 8.207031 22.886719 8.449219 23.355469 8.714844 C 23.496094 8.789062 23.589844 8.902344 23.636719 9.054688 C 23.679688 9.207031 23.664062 9.351562 23.585938 9.492188 C 23.503906 9.628906 23.386719 9.71875 23.234375 9.757812 C 23.078125 9.792969 22.933594 9.769531 22.800781 9.683594 C 22.324219 9.414062 21.835938 9.171875 21.332031 8.960938 C 20.824219 8.75 20.308594 8.570312 19.78125 8.421875 C 19.253906 8.277344 18.71875 8.164062 18.179688 8.085938 C 17.636719 8.007812 17.09375 7.960938 16.546875 7.949219 C 16 7.941406 15.453125 7.964844 14.910156 8.019531 C 14.367188 8.078125 13.828125 8.171875 13.296875 8.296875 C 12.761719 8.421875 12.238281 8.578125 11.726562 8.769531 C 11.214844 8.960938 10.714844 9.183594 10.230469 9.4375 C 9.746094 9.691406 9.277344 9.972656 8.828125 10.285156 C 8.378906 10.597656 7.953125 10.9375 7.546875 11.300781 C 7.140625 11.667969 6.757812 12.058594 6.398438 12.472656 C 6.039062 12.886719 5.710938 13.320312 5.40625 13.777344 C 5.105469 14.230469 4.832031 14.703125 4.585938 15.195312 C 4.34375 15.683594 4.128906 16.1875 3.949219 16.703125 C 3.769531 17.21875 3.621094 17.746094 3.507812 18.28125 C 3.390625 18.816406 3.3125 19.355469 3.265625 19.902344 C 3.21875 20.445312 3.203125 20.992188 3.226562 21.539062 C 3.25 22.085938 3.304688 22.628906 3.394531 23.167969 C 3.484375 23.707031 3.605469 24.238281 3.761719 24.761719 C 3.921875 25.289062 4.109375 25.800781 4.328125 26.300781 C 4.550781 26.800781 4.800781 27.285156 5.085938 27.753906 C 5.367188 28.222656 5.675781 28.671875 6.015625 29.101562 C 6.351562 29.535156 6.714844 29.941406 7.105469 30.324219 C 7.496094 30.710938 7.90625 31.066406 8.339844 31.398438 C 8.777344 31.734375 9.230469 32.035156 9.703125 32.3125 C 10.175781 32.589844 10.664062 32.832031 11.164062 33.046875 C 11.667969 33.261719 12.183594 33.445312 12.710938 33.59375 C 13.238281 33.742188 13.769531 33.859375 14.3125 33.941406 C 14.851562 34.027344 15.394531 34.074219 15.941406 34.089844 C 16.488281 34.101562 17.035156 34.082031 17.578125 34.03125 C 18.125 33.976562 18.664062 33.886719 19.195312 33.765625 C 19.730469 33.644531 20.253906 33.488281 20.765625 33.300781 C 21.28125 33.113281 21.78125 32.894531 22.269531 32.644531 C 22.753906 32.394531 23.222656 32.117188 23.675781 31.804688 C 24.125 31.496094 24.558594 31.160156 24.964844 30.796875 C 25.375 30.433594 25.761719 30.046875 26.121094 29.636719 C 26.480469 29.222656 26.816406 28.792969 27.121094 28.339844 C 27.425781 27.886719 27.703125 27.414062 27.953125 26.925781 C 28.199219 26.4375 28.414062 25.9375 28.597656 25.421875 C 28.78125 24.90625 28.933594 24.382812 29.050781 23.847656 C 29.171875 23.3125 29.253906 22.773438 29.304688 22.230469 C 29.355469 21.683594 29.371094 21.136719 29.355469 20.589844 C 29.335938 20.042969 29.285156 19.5 29.199219 18.960938 C 29.113281 18.421875 28.992188 17.886719 28.839844 17.363281 C 28.6875 16.835938 28.5 16.324219 28.28125 15.820312 C 28.066406 15.320312 27.816406 14.832031 27.539062 14.363281 C 27.261719 13.890625 26.953125 13.441406 26.617188 13.007812 C 26.28125 12.574219 25.921875 12.164062 25.535156 11.777344 C 25.425781 11.667969 25.371094 11.539062 25.371094 11.382812 C 25.371094 11.230469 25.425781 11.097656 25.535156 10.988281 C 25.644531 10.878906 25.773438 10.824219 25.929688 10.824219 C 26.082031 10.824219 26.214844 10.878906 26.324219 10.988281 C 26.820312 11.480469 27.273438 12.007812 27.691406 12.566406 C 28.109375 13.125 28.480469 13.714844 28.8125 14.328125 C 29.140625 14.941406 29.425781 15.578125 29.660156 16.234375 C 29.894531 16.890625 30.082031 17.5625 30.21875 18.246094 C 30.355469 18.929688 30.441406 19.621094 30.476562 20.316406 C 30.511719 21.015625 30.496094 21.710938 30.425781 22.40625 C 30.359375 23.101562 30.238281 23.785156 30.070312 24.460938 C 29.902344 25.140625 29.683594 25.800781 29.414062 26.445312 C 29.148438 27.089844 28.835938 27.710938 28.476562 28.308594 C 28.117188 28.90625 27.71875 29.476562 27.273438 30.015625 C 26.832031 30.554688 26.351562 31.058594 25.832031 31.527344 C 25.316406 31.992188 24.765625 32.421875 24.1875 32.808594 C 23.605469 33.195312 23 33.539062 22.367188 33.835938 C 21.738281 34.132812 21.089844 34.382812 20.417969 34.582031 C 19.75 34.785156 19.074219 34.933594 18.382812 35.035156 C 17.691406 35.136719 16.996094 35.1875 16.300781 35.183594 Z M 16.300781 35.175781 " fill-opacity="1" fill-rule="nonzero"/></g><path fill="#ffffff" d="M 16.300781 29.859375 C 15.425781 29.859375 14.566406 29.730469 13.730469 29.476562 C 12.890625 29.222656 12.109375 28.851562 11.378906 28.367188 C 10.652344 27.878906 10.007812 27.296875 9.453125 26.621094 C 8.898438 25.941406 8.453125 25.199219 8.117188 24.390625 C 7.78125 23.582031 7.574219 22.742188 7.488281 21.867188 C 7.402344 20.996094 7.445312 20.132812 7.613281 19.273438 C 7.785156 18.414062 8.078125 17.597656 8.492188 16.824219 C 8.902344 16.054688 9.421875 15.355469 10.039062 14.738281 C 10.671875 14.109375 11.386719 13.585938 12.179688 13.171875 C 12.96875 12.753906 13.804688 12.464844 14.683594 12.304688 C 15.5625 12.140625 16.445312 12.109375 17.332031 12.210938 C 18.222656 12.3125 19.074219 12.546875 19.890625 12.90625 C 20.035156 12.964844 20.136719 13.066406 20.195312 13.214844 C 20.253906 13.359375 20.25 13.503906 20.1875 13.648438 C 20.121094 13.789062 20.015625 13.890625 19.871094 13.945312 C 19.722656 14 19.578125 13.992188 19.4375 13.925781 C 18.722656 13.613281 17.980469 13.414062 17.207031 13.324219 C 16.429688 13.234375 15.660156 13.261719 14.894531 13.40625 C 14.128906 13.546875 13.402344 13.800781 12.710938 14.164062 C 12.019531 14.523438 11.398438 14.980469 10.84375 15.527344 C 10.304688 16.070312 9.851562 16.675781 9.492188 17.351562 C 9.132812 18.023438 8.875 18.738281 8.726562 19.488281 C 8.578125 20.238281 8.539062 20.992188 8.613281 21.753906 C 8.6875 22.515625 8.871094 23.25 9.160156 23.957031 C 9.453125 24.664062 9.84375 25.3125 10.328125 25.902344 C 10.8125 26.496094 11.371094 27.003906 12.003906 27.429688 C 12.640625 27.855469 13.324219 28.179688 14.054688 28.40625 C 14.785156 28.628906 15.535156 28.742188 16.300781 28.742188 C 17.066406 28.742188 17.8125 28.628906 18.546875 28.410156 C 19.277344 28.1875 19.960938 27.863281 20.597656 27.4375 C 21.234375 27.011719 21.796875 26.503906 22.28125 25.914062 C 22.765625 25.320312 23.15625 24.671875 23.449219 23.964844 C 23.742188 23.257812 23.925781 22.523438 24 21.761719 C 24.078125 21 24.039062 20.246094 23.890625 19.496094 C 23.742188 18.742188 23.488281 18.03125 23.125 17.355469 C 22.765625 16.679688 22.316406 16.074219 21.773438 15.53125 C 21.664062 15.421875 21.609375 15.289062 21.609375 15.136719 C 21.609375 14.980469 21.664062 14.847656 21.773438 14.738281 C 21.882812 14.628906 22.011719 14.574219 22.167969 14.574219 C 22.324219 14.574219 22.453125 14.628906 22.5625 14.738281 C 23.183594 15.359375 23.699219 16.054688 24.109375 16.828125 C 24.523438 17.597656 24.8125 18.414062 24.984375 19.273438 C 25.15625 20.132812 25.199219 20.996094 25.109375 21.867188 C 25.023438 22.742188 24.816406 23.582031 24.480469 24.390625 C 24.144531 25.199219 23.699219 25.941406 23.144531 26.617188 C 22.589844 27.296875 21.945312 27.878906 21.21875 28.363281 C 20.492188 28.851562 19.707031 29.222656 18.871094 29.476562 C 18.03125 29.730469 17.175781 29.859375 16.300781 29.859375 Z M 16.300781 29.859375 " fill-opacity="1" fill-rule="nonzero"/><path fill="#ffffff" d="M 16.300781 25.121094 C 15.984375 25.117188 15.671875 25.082031 15.367188 25.007812 C 15.058594 24.933594 14.761719 24.824219 14.480469 24.683594 C 14.199219 24.542969 13.933594 24.371094 13.691406 24.167969 C 13.449219 23.96875 13.234375 23.742188 13.042969 23.488281 C 12.851562 23.238281 12.691406 22.96875 12.5625 22.679688 C 12.433594 22.390625 12.339844 22.089844 12.28125 21.78125 C 12.21875 21.46875 12.195312 21.15625 12.207031 20.84375 C 12.222656 20.527344 12.269531 20.214844 12.351562 19.910156 C 12.4375 19.605469 12.554688 19.316406 12.703125 19.039062 C 12.855469 18.761719 13.035156 18.503906 13.246094 18.265625 C 13.453125 18.03125 13.6875 17.820312 13.945312 17.640625 C 14.203125 17.457031 14.480469 17.308594 14.773438 17.1875 C 15.066406 17.070312 15.367188 16.984375 15.679688 16.933594 C 15.992188 16.886719 16.304688 16.871094 16.621094 16.894531 C 16.933594 16.917969 17.242188 16.976562 17.546875 17.070312 C 17.847656 17.164062 18.132812 17.289062 18.40625 17.449219 C 18.679688 17.609375 18.929688 17.796875 19.160156 18.015625 C 19.386719 18.234375 19.589844 18.472656 19.761719 18.738281 C 19.9375 19 20.078125 19.28125 20.1875 19.578125 C 20.296875 19.875 20.371094 20.179688 20.410156 20.492188 C 20.449219 20.804688 20.453125 21.121094 20.417969 21.433594 C 20.386719 21.75 20.316406 22.054688 20.214844 22.351562 C 20.109375 22.652344 19.972656 22.933594 19.804688 23.203125 C 19.636719 23.46875 19.4375 23.714844 19.214844 23.933594 C 18.40625 24.734375 17.433594 25.128906 16.300781 25.121094 Z M 16.300781 18.003906 C 16.070312 18.003906 15.84375 18.027344 15.617188 18.082031 C 15.394531 18.132812 15.179688 18.210938 14.972656 18.3125 C 14.769531 18.417969 14.574219 18.539062 14.398438 18.6875 C 14.222656 18.832031 14.0625 18.996094 13.921875 19.179688 C 13.78125 19.363281 13.664062 19.558594 13.570312 19.769531 C 13.476562 19.980469 13.40625 20.195312 13.363281 20.421875 C 13.316406 20.648438 13.300781 20.875 13.308594 21.105469 C 13.316406 21.335938 13.351562 21.5625 13.410156 21.785156 C 13.46875 22.003906 13.554688 22.21875 13.664062 22.421875 C 13.769531 22.625 13.902344 22.8125 14.054688 22.984375 C 14.207031 23.15625 14.375 23.308594 14.5625 23.441406 C 14.75 23.578125 14.949219 23.6875 15.164062 23.777344 C 15.375 23.863281 15.59375 23.925781 15.820312 23.960938 C 16.050781 24 16.277344 24.011719 16.507812 23.996094 C 16.738281 23.980469 16.960938 23.9375 17.179688 23.871094 C 17.402344 23.804688 17.609375 23.714844 17.808594 23.597656 C 18.007812 23.480469 18.191406 23.347656 18.359375 23.1875 C 18.527344 23.03125 18.675781 22.855469 18.800781 22.664062 C 18.929688 22.472656 19.035156 22.269531 19.113281 22.054688 C 19.195312 21.839844 19.25 21.617188 19.28125 21.390625 C 19.308594 21.160156 19.3125 20.933594 19.289062 20.703125 C 19.269531 20.476562 19.21875 20.25 19.144531 20.035156 C 19.070312 19.816406 18.972656 19.609375 18.851562 19.414062 C 18.730469 19.21875 18.585938 19.039062 18.425781 18.878906 C 17.835938 18.292969 17.128906 18 16.300781 18.003906 Z M 16.300781 18.003906 " fill-opacity="1" fill-rule="nonzero"/><path fill="#ffffff" d="M 16.300781 21.5625 C 16.144531 21.558594 16.015625 21.503906 15.90625 21.398438 C 15.796875 21.289062 15.738281 21.15625 15.738281 21.003906 C 15.738281 20.847656 15.796875 20.714844 15.90625 20.605469 L 30.683594 5.828125 C 30.792969 5.71875 30.925781 5.664062 31.078125 5.664062 C 31.234375 5.664062 31.363281 5.71875 31.472656 5.828125 C 31.585938 5.9375 31.640625 6.066406 31.640625 6.222656 C 31.640625 6.378906 31.585938 6.507812 31.472656 6.617188 L 16.695312 21.398438 C 16.585938 21.503906 16.453125 21.558594 16.300781 21.5625 Z M 16.300781 21.5625 " fill-opacity="1" fill-rule="nonzero"/><g clip-path="url(#1b37ac6bf8)"><path fill="#ffffff" d="M 28.394531 9.46875 C 28.269531 9.46875 28.15625 9.429688 28.054688 9.351562 C 27.957031 9.277344 27.890625 9.175781 27.855469 9.054688 L 26.820312 5.152344 C 26.765625 4.945312 26.8125 4.765625 26.960938 4.613281 L 29.640625 1.949219 C 29.789062 1.785156 29.972656 1.730469 30.1875 1.78125 C 30.402344 1.835938 30.539062 1.96875 30.59375 2.183594 L 31.636719 6.085938 C 31.679688 6.234375 31.660156 6.375 31.582031 6.507812 C 31.503906 6.644531 31.390625 6.730469 31.242188 6.769531 C 31.09375 6.8125 30.953125 6.792969 30.820312 6.714844 C 30.683594 6.636719 30.597656 6.523438 30.558594 6.375 L 29.765625 3.394531 L 27.984375 5.175781 L 28.941406 8.769531 C 28.980469 8.917969 28.960938 9.058594 28.882812 9.191406 C 28.808594 9.324219 28.695312 9.410156 28.546875 9.449219 C 28.496094 9.464844 28.445312 9.46875 28.394531 9.46875 Z M 28.394531 9.46875 " fill-opacity="1" fill-rule="nonzero"/></g><g clip-path="url(#95177206be)"><path fill="#ffffff" d="M 32.421875 10.738281 C 32.363281 10.738281 32.304688 10.730469 32.25 10.714844 L 28.230469 9.433594 C 28.085938 9.386719 27.976562 9.296875 27.90625 9.160156 C 27.832031 9.023438 27.820312 8.878906 27.867188 8.734375 C 27.914062 8.585938 28.007812 8.476562 28.144531 8.40625 C 28.28125 8.335938 28.425781 8.324219 28.570312 8.371094 L 32.265625 9.546875 L 34.054688 7.753906 L 30.910156 6.753906 C 30.761719 6.707031 30.652344 6.617188 30.578125 6.476562 C 30.507812 6.339844 30.492188 6.195312 30.539062 6.046875 C 30.585938 5.894531 30.679688 5.785156 30.820312 5.714844 C 30.957031 5.640625 31.101562 5.628906 31.25 5.675781 L 35.269531 6.953125 C 35.46875 7.015625 35.59375 7.152344 35.640625 7.355469 C 35.703125 7.570312 35.65625 7.753906 35.496094 7.910156 L 32.832031 10.574219 C 32.71875 10.6875 32.582031 10.742188 32.421875 10.738281 Z M 32.421875 10.738281 " fill-opacity="1" fill-rule="nonzero"/></g></svg>