<svg xmlns="http://www.w3.org/2000/svg" xmlns:xlink="http://www.w3.org/1999/xlink" width="50" zoomAndPan="magnify" viewBox="0 0 37.5 37.499999" height="50" preserveAspectRatio="xMidYMid meet" version="1.0"><defs><clipPath id="39ecabfadb"><path d="M 1.40625 0.960938 L 36 0.960938 L 36 35.75 L 1.40625 35.75 Z M 1.40625 0.960938 " clip-rule="nonzero"/></clipPath></defs><g clip-path="url(#39ecabfadb)"><path fill="#ffffff" d="M 35.101562 20.207031 C 35.542969 20.210938 35.984375 19.945312 35.984375 19.394531 L 35.984375 2.957031 C 35.984375 1.824219 35.0625 0.902344 33.929688 0.902344 L 10.445312 0.902344 C 9.3125 0.902344 8.390625 1.824219 8.390625 2.957031 L 8.390625 26.441406 C 8.390625 27.574219 9.3125 28.496094 10.445312 28.496094 L 15.4375 28.496094 L 15.4375 33.484375 C 15.4375 33.644531 15.300781 33.777344 15.144531 33.777344 L 3.402344 33.777344 C 3.242188 33.777344 3.109375 33.644531 3.109375 33.484375 L 3.109375 21.742188 C 3.109375 21.585938 3.242188 21.449219 3.402344 21.449219 C 3.402344 21.449219 5.742188 21.449219 5.75 21.449219 C 6.882812 21.449219 6.890625 19.6875 5.75 19.6875 L 3.402344 19.6875 C 2.269531 19.6875 1.347656 20.609375 1.347656 21.742188 L 1.347656 33.484375 C 1.347656 34.617188 2.269531 35.539062 3.402344 35.539062 L 15.144531 35.539062 C 16.277344 35.539062 17.199219 34.617188 17.199219 33.484375 L 17.199219 28.496094 L 33.929688 28.496094 C 35.0625 28.496094 35.984375 27.574219 35.984375 26.441406 C 35.984375 26.441406 35.984375 22.933594 35.984375 22.917969 C 35.984375 21.785156 34.222656 21.78125 34.222656 22.917969 L 34.222656 26.441406 C 34.222656 26.597656 34.089844 26.734375 33.929688 26.734375 L 10.445312 26.734375 C 10.289062 26.734375 10.152344 26.597656 10.152344 26.441406 L 10.152344 2.957031 C 10.152344 2.796875 10.289062 2.664062 10.445312 2.664062 L 33.929688 2.664062 C 34.089844 2.664062 34.222656 2.796875 34.222656 2.957031 C 34.222656 2.957031 34.222656 19.308594 34.222656 19.394531 C 34.222656 19.929688 34.664062 20.203125 35.101562 20.207031 Z M 35.101562 20.207031 " fill-opacity="1" fill-rule="nonzero"/></g><path fill="#ffffff" d="M 30.40625 5.601562 C 30.40625 5.601562 26.898438 5.601562 26.882812 5.601562 C 25.757812 5.601562 25.742188 7.359375 26.882812 7.359375 L 28.28125 7.359375 L 14.851562 20.792969 C 14.851562 20.792969 14.851562 19.402344 14.851562 19.394531 C 14.851562 18.269531 13.089844 18.253906 13.089844 19.394531 L 13.089844 22.917969 C 13.089844 23.402344 13.484375 23.796875 13.96875 23.796875 C 13.96875 23.796875 17.480469 23.796875 17.492188 23.796875 C 18.625 23.796875 18.632812 22.039062 17.492188 22.039062 L 16.09375 22.039062 L 29.527344 8.605469 C 29.527344 8.605469 29.527344 9.992188 29.527344 10.003906 C 29.527344 11.039062 31.285156 11.113281 31.285156 10.003906 L 31.285156 6.480469 C 31.285156 5.996094 30.890625 5.601562 30.40625 5.601562 Z M 30.40625 5.601562 " fill-opacity="1" fill-rule="nonzero"/></svg>