<svg xmlns="http://www.w3.org/2000/svg" xmlns:xlink="http://www.w3.org/1999/xlink" width="50" zoomAndPan="magnify" viewBox="0 0 37.5 37.499999" height="50" preserveAspectRatio="xMidYMid meet" version="1.0"><defs><clipPath id="1edee338f9"><path d="M 0.730469 18 L 36.253906 18 L 36.253906 36.144531 L 0.730469 36.144531 Z M 0.730469 18 " clip-rule="nonzero"/></clipPath><clipPath id="80c8c5fc56"><path d="M 9 0.617188 L 28 0.617188 L 28 27 L 9 27 Z M 9 0.617188 " clip-rule="nonzero"/></clipPath></defs><g clip-path="url(#1edee338f9)"><path fill="#00bf63" d="M 35.671875 18.027344 L 27.972656 18.027344 C 27.648438 18.027344 27.378906 18.292969 27.378906 18.621094 C 27.378906 23.515625 23.394531 27.503906 18.496094 27.503906 C 13.601562 27.503906 9.613281 23.515625 9.613281 18.621094 C 9.613281 18.292969 9.347656 18.027344 9.023438 18.027344 L 1.324219 18.027344 C 0.996094 18.027344 0.730469 18.292969 0.730469 18.621094 L 0.730469 21.742188 C 0.730469 22.011719 0.914062 22.25 1.179688 22.316406 L 4.582031 23.164062 C 4.816406 23.882812 5.101562 24.582031 5.441406 25.246094 L 3.640625 28.25 C 3.496094 28.480469 3.539062 28.78125 3.726562 28.972656 L 8.140625 33.382812 C 8.328125 33.578125 8.632812 33.609375 8.863281 33.472656 L 11.863281 31.671875 C 12.527344 32.007812 13.226562 32.300781 13.949219 32.53125 L 14.796875 35.929688 C 14.863281 36.195312 15.097656 36.378906 15.371094 36.378906 L 21.613281 36.378906 C 21.886719 36.378906 22.121094 36.195312 22.1875 35.929688 L 23.035156 32.53125 C 23.757812 32.292969 24.457031 32.007812 25.117188 31.671875 L 28.121094 33.472656 C 28.351562 33.609375 28.652344 33.574219 28.84375 33.382812 L 33.253906 28.972656 C 33.445312 28.78125 33.484375 28.480469 33.34375 28.25 L 31.542969 25.246094 C 31.882812 24.582031 32.171875 23.882812 32.402344 23.164062 L 35.800781 22.316406 C 36.066406 22.25 36.25 22.011719 36.25 21.742188 L 36.25 18.621094 C 36.25 18.292969 35.984375 18.027344 35.660156 18.027344 Z M 35.078125 21.277344 L 31.804688 22.097656 C 31.601562 22.148438 31.4375 22.304688 31.378906 22.5 C 31.117188 23.371094 30.773438 24.210938 30.355469 24.984375 C 30.253906 25.167969 30.257812 25.394531 30.367188 25.574219 L 32.101562 28.460938 L 28.339844 32.222656 L 25.449219 30.488281 C 25.273438 30.382812 25.046875 30.375 24.863281 30.476562 C 24.089844 30.894531 23.246094 31.238281 22.375 31.5 C 22.175781 31.558594 22.019531 31.71875 21.972656 31.925781 L 21.15625 35.203125 L 15.839844 35.203125 L 15.019531 31.925781 C 14.96875 31.726562 14.8125 31.558594 14.617188 31.5 C 13.75 31.238281 12.90625 30.894531 12.132812 30.476562 C 11.949219 30.375 11.722656 30.382812 11.546875 30.488281 L 8.65625 32.222656 L 4.894531 28.460938 L 6.628906 25.574219 C 6.738281 25.394531 6.742188 25.167969 6.640625 24.984375 C 6.222656 24.210938 5.878906 23.371094 5.617188 22.5 C 5.558594 22.296875 5.398438 22.144531 5.191406 22.097656 L 1.914062 21.277344 L 1.914062 19.210938 L 8.449219 19.210938 C 8.753906 24.488281 13.144531 28.6875 18.496094 28.6875 C 23.851562 28.6875 28.238281 24.488281 28.546875 19.210938 L 35.078125 19.210938 Z M 35.078125 21.277344 " fill-opacity="1" fill-rule="nonzero"/></g><path fill="#00bf63" d="M 20.273438 10.921875 L 20.273438 15.066406 C 20.273438 15.390625 20.539062 15.660156 20.867188 15.660156 C 21.191406 15.660156 21.457031 15.390625 21.457031 15.066406 L 21.457031 11.164062 L 22.117188 10.507812 C 22.425781 10.761719 22.808594 10.914062 23.234375 10.914062 C 24.210938 10.914062 25.011719 10.117188 25.011719 9.140625 C 25.011719 8.160156 24.210938 7.363281 23.234375 7.363281 C 22.257812 7.363281 21.457031 8.160156 21.457031 9.140625 C 21.457031 9.246094 21.46875 9.351562 21.488281 9.453125 L 20.445312 10.496094 C 20.332031 10.605469 20.273438 10.753906 20.273438 10.914062 Z M 23.234375 8.550781 C 23.5625 8.550781 23.828125 8.820312 23.828125 9.144531 C 23.828125 9.46875 23.5625 9.738281 23.234375 9.738281 C 22.910156 9.738281 22.644531 9.46875 22.644531 9.144531 C 22.644531 8.820312 22.910156 8.550781 23.234375 8.550781 Z M 23.234375 8.550781 " fill-opacity="1" fill-rule="nonzero"/><path fill="#00bf63" d="M 14.878906 10.511719 L 15.535156 11.171875 L 15.535156 15.074219 C 15.535156 15.398438 15.804688 15.664062 16.128906 15.664062 C 16.453125 15.664062 16.722656 15.398438 16.722656 15.074219 L 16.722656 10.925781 C 16.722656 10.765625 16.65625 10.621094 16.550781 10.507812 L 15.507812 9.464844 C 15.523438 9.363281 15.535156 9.257812 15.535156 9.152344 C 15.535156 8.171875 14.738281 7.375 13.761719 7.375 C 12.78125 7.375 11.984375 8.171875 11.984375 9.152344 C 11.984375 10.128906 12.78125 10.925781 13.761719 10.925781 C 14.1875 10.925781 14.578125 10.765625 14.878906 10.519531 Z M 13.167969 9.144531 C 13.167969 8.820312 13.433594 8.550781 13.761719 8.550781 C 14.085938 8.550781 14.351562 8.820312 14.351562 9.144531 C 14.351562 9.46875 14.085938 9.738281 13.761719 9.738281 C 13.433594 9.738281 13.167969 9.46875 13.167969 9.144531 Z M 13.167969 9.144531 " fill-opacity="1" fill-rule="nonzero"/><g clip-path="url(#80c8c5fc56)"><path fill="#00bf63" d="M 13.132812 16.808594 C 13.398438 17.007812 13.582031 17.277344 13.675781 17.570312 C 13.03125 17.839844 12.574219 18.472656 12.574219 19.210938 C 12.574219 19.953125 13.074219 20.632812 13.761719 20.882812 L 13.761719 22.171875 C 13.761719 23.148438 14.558594 23.949219 15.535156 23.949219 L 15.597656 23.949219 C 15.867188 25.300781 17.066406 26.320312 18.496094 26.320312 C 19.929688 26.320312 21.121094 25.300781 21.398438 23.949219 L 21.457031 23.949219 C 22.4375 23.949219 23.234375 23.148438 23.234375 22.171875 L 23.234375 20.882812 C 23.921875 20.640625 24.417969 19.988281 24.417969 19.210938 C 24.417969 18.4375 23.964844 17.839844 23.316406 17.570312 C 23.417969 17.277344 23.601562 17.003906 23.875 16.796875 C 26.101562 15.097656 27.378906 12.527344 27.378906 9.738281 C 27.378906 7.214844 26.304688 4.796875 24.417969 3.117188 C 22.511719 1.410156 20.042969 0.621094 17.484375 0.914062 C 13.433594 1.363281 10.152344 4.625 9.679688 8.671875 C 9.304688 11.84375 10.597656 14.882812 13.132812 16.808594 Z M 18.496094 25.132812 C 17.726562 25.132812 17.066406 24.636719 16.820312 23.949219 L 20.171875 23.949219 C 19.929688 24.636719 19.265625 25.132812 18.496094 25.132812 Z M 22.050781 22.171875 C 22.050781 22.5 21.785156 22.765625 21.457031 22.765625 L 15.535156 22.765625 C 15.210938 22.765625 14.945312 22.5 14.945312 22.171875 L 14.945312 20.988281 L 22.050781 20.988281 Z M 22.644531 19.804688 L 14.351562 19.804688 C 14.027344 19.804688 13.761719 19.539062 13.761719 19.210938 C 13.761719 18.886719 14.027344 18.621094 14.351562 18.621094 L 22.644531 18.621094 C 22.96875 18.621094 23.234375 18.886719 23.234375 19.210938 C 23.234375 19.539062 22.96875 19.804688 22.644531 19.804688 Z M 17.90625 5.589844 C 17.90625 5.265625 18.171875 5 18.496094 5 C 18.824219 5 19.089844 5.265625 19.089844 5.589844 C 19.089844 5.917969 18.824219 6.183594 18.496094 6.183594 C 18.171875 6.183594 17.90625 5.917969 17.90625 5.589844 Z M 10.851562 8.808594 C 11.261719 5.300781 14.101562 2.476562 17.609375 2.085938 C 19.835938 1.835938 21.972656 2.519531 23.625 4 C 25.253906 5.460938 26.191406 7.550781 26.191406 9.738281 C 26.191406 12.152344 25.082031 14.386719 23.152344 15.855469 C 22.613281 16.261719 22.253906 16.820312 22.109375 17.433594 L 19.082031 17.433594 L 19.082031 7.367188 C 19.082031 7.332031 19.070312 7.304688 19.066406 7.265625 C 19.765625 7.03125 20.269531 6.375 20.269531 5.589844 C 20.269531 4.613281 19.46875 3.816406 18.492188 3.816406 C 17.515625 3.816406 16.714844 4.613281 16.714844 5.589844 C 16.714844 6.367188 17.222656 7.023438 17.917969 7.265625 C 17.910156 7.304688 17.898438 7.332031 17.898438 7.367188 L 17.898438 17.433594 L 14.875 17.433594 C 14.730469 16.820312 14.375 16.269531 13.84375 15.867188 C 11.644531 14.195312 10.527344 11.5625 10.847656 8.8125 Z M 10.851562 8.808594 " fill-opacity="1" fill-rule="nonzero"/></g><path fill="#00bf63" d="M 28.566406 9.738281 C 28.566406 10.0625 28.832031 10.328125 29.15625 10.328125 L 30.933594 10.328125 C 31.257812 10.328125 31.527344 10.0625 31.527344 9.738281 C 31.527344 9.410156 31.257812 9.144531 30.933594 9.144531 L 29.15625 9.144531 C 28.832031 9.144531 28.566406 9.410156 28.566406 9.738281 Z M 28.566406 9.738281 " fill-opacity="1" fill-rule="nonzero"/><path fill="#00bf63" d="M 6.0625 10.328125 L 7.839844 10.328125 C 8.164062 10.328125 8.429688 10.0625 8.429688 9.738281 C 8.429688 9.410156 8.164062 9.144531 7.839844 9.144531 L 6.0625 9.144531 C 5.734375 9.144531 5.46875 9.410156 5.46875 9.738281 C 5.46875 10.0625 5.734375 10.328125 6.0625 10.328125 Z M 6.0625 10.328125 " fill-opacity="1" fill-rule="nonzero"/><path fill="#00bf63" d="M 27.90625 14.777344 L 29.519531 15.527344 C 29.601562 15.5625 29.683594 15.582031 29.765625 15.582031 C 29.992188 15.582031 30.207031 15.457031 30.304688 15.238281 C 30.441406 14.941406 30.316406 14.585938 30.023438 14.449219 L 28.410156 13.699219 C 28.113281 13.5625 27.765625 13.6875 27.625 13.984375 C 27.488281 14.277344 27.613281 14.632812 27.90625 14.769531 Z M 27.90625 14.777344 " fill-opacity="1" fill-rule="nonzero"/><path fill="#00bf63" d="M 6.972656 5.015625 L 8.585938 5.769531 C 8.667969 5.804688 8.75 5.824219 8.832031 5.824219 C 9.058594 5.824219 9.269531 5.699219 9.371094 5.480469 C 9.507812 5.183594 9.382812 4.828125 9.085938 4.691406 L 7.476562 3.9375 C 7.179688 3.804688 6.832031 3.925781 6.6875 4.222656 C 6.554688 4.519531 6.675781 4.875 6.972656 5.011719 Z M 6.972656 5.015625 " fill-opacity="1" fill-rule="nonzero"/><path fill="#00bf63" d="M 28.15625 5.824219 C 28.238281 5.824219 28.328125 5.804688 28.40625 5.769531 L 30.015625 5.015625 C 30.3125 4.878906 30.441406 4.527344 30.300781 4.230469 C 30.164062 3.933594 29.808594 3.804688 29.511719 3.945312 L 27.902344 4.695312 C 27.605469 4.832031 27.476562 5.1875 27.617188 5.484375 C 27.71875 5.699219 27.929688 5.828125 28.15625 5.828125 Z M 28.15625 5.824219 " fill-opacity="1" fill-rule="nonzero"/><path fill="#00bf63" d="M 8.585938 13.703125 L 6.972656 14.457031 C 6.675781 14.59375 6.546875 14.949219 6.6875 15.246094 C 6.789062 15.457031 7.003906 15.585938 7.226562 15.585938 C 7.3125 15.585938 7.398438 15.570312 7.476562 15.535156 L 9.085938 14.78125 C 9.382812 14.644531 9.515625 14.289062 9.371094 13.996094 C 9.234375 13.699219 8.878906 13.570312 8.585938 13.710938 Z M 8.585938 13.703125 " fill-opacity="1" fill-rule="nonzero"/></svg>