<svg xmlns="http://www.w3.org/2000/svg" xmlns:xlink="http://www.w3.org/1999/xlink" width="50" zoomAndPan="magnify" viewBox="0 0 37.5 37.499999" height="50" preserveAspectRatio="xMidYMid meet" version="1.0"><defs><clipPath id="646fb3b27e"><path d="M 1.160156 3.699219 L 35 3.699219 L 35 27 L 1.160156 27 Z M 1.160156 3.699219 " clip-rule="nonzero"/></clipPath><clipPath id="e0551d2e32"><path d="M 20 21 L 27 21 L 27 34.046875 L 20 34.046875 Z M 20 21 " clip-rule="nonzero"/></clipPath><clipPath id="76404bd5b9"><path d="M 28 17 L 35.207031 17 L 35.207031 34.046875 L 28 34.046875 Z M 28 17 " clip-rule="nonzero"/></clipPath><clipPath id="79b39a4ce2"><path d="M 11 25 L 18 25 L 18 34.046875 L 11 34.046875 Z M 11 25 " clip-rule="nonzero"/></clipPath><clipPath id="432dac2498"><path d="M 2 27 L 9 27 L 9 34.046875 L 2 34.046875 Z M 2 27 " clip-rule="nonzero"/></clipPath></defs><g clip-path="url(#646fb3b27e)"><path fill="#040606" d="M 26.386719 12.550781 L 21.949219 12.550781 L 17.371094 18.875 L 12.253906 18.875 L 8.054688 25.195312 L 1.164062 25.195312 L 1.164062 26.460938 L 8.726562 26.460938 L 12.929688 20.136719 L 18.011719 20.136719 L 22.597656 13.816406 L 27.007812 13.816406 L 33.054688 5.933594 L 34.949219 7.394531 L 33.972656 3.699219 L 30.160156 3.699219 L 32.054688 5.164062 L 26.386719 12.550781 " fill-opacity="1" fill-rule="nonzero"/></g><g clip-path="url(#e0551d2e32)"><path fill="#040606" d="M 21.335938 22.667969 L 25.117188 22.667969 L 25.117188 32.78125 L 21.335938 32.78125 Z M 20.074219 21.402344 L 20.074219 34.046875 L 26.378906 34.046875 L 26.378906 21.402344 L 20.074219 21.402344 " fill-opacity="1" fill-rule="nonzero"/></g><g clip-path="url(#76404bd5b9)"><path fill="#040606" d="M 30.160156 18.875 L 33.941406 18.875 L 33.941406 32.78125 L 30.160156 32.78125 Z M 28.898438 17.609375 L 28.898438 34.046875 L 35.203125 34.046875 L 35.203125 17.609375 L 28.898438 17.609375 " fill-opacity="1" fill-rule="nonzero"/></g><g clip-path="url(#79b39a4ce2)"><path fill="#040606" d="M 12.511719 26.460938 L 16.292969 26.460938 L 16.292969 32.78125 L 12.511719 32.78125 Z M 11.25 25.195312 L 11.25 34.046875 L 17.554688 34.046875 L 17.554688 25.195312 L 11.25 25.195312 " fill-opacity="1" fill-rule="nonzero"/></g><g clip-path="url(#432dac2498)"><path fill="#040606" d="M 3.683594 28.988281 L 7.46875 28.988281 L 7.46875 32.78125 L 3.683594 32.78125 Z M 2.425781 27.722656 L 2.425781 34.046875 L 8.726562 34.046875 L 8.726562 27.722656 L 2.425781 27.722656 " fill-opacity="1" fill-rule="nonzero"/></g></svg>