<svg xmlns="http://www.w3.org/2000/svg" xmlns:xlink="http://www.w3.org/1999/xlink" width="50" zoomAndPan="magnify" viewBox="0 0 37.5 37.499999" height="50" preserveAspectRatio="xMidYMid meet" version="1.0"><defs><clipPath id="6e92ec5602"><path d="M 1.167969 1.339844 L 35.957031 1.339844 L 35.957031 36 L 1.167969 36 Z M 1.167969 1.339844 " clip-rule="nonzero"/></clipPath></defs><g clip-path="url(#6e92ec5602)"><path fill="#ffffff" d="M 34.589844 16.167969 L 33.589844 16.167969 C 33.429688 15.117188 33.160156 14.09375 32.78125 13.097656 L 33.644531 12.582031 C 33.886719 12.449219 34.078125 12.207031 34.15625 11.9375 C 34.238281 11.667969 34.183594 11.371094 34.050781 11.128906 L 32.703125 8.785156 C 32.566406 8.542969 32.324219 8.351562 32.054688 8.273438 C 31.785156 8.191406 31.488281 8.246094 31.246094 8.378906 L 30.382812 8.890625 C 29.710938 8.082031 28.957031 7.328125 28.148438 6.65625 L 28.660156 5.792969 C 28.792969 5.550781 28.847656 5.253906 28.765625 4.984375 C 28.6875 4.714844 28.523438 4.472656 28.253906 4.335938 L 25.910156 2.988281 C 25.667969 2.855469 25.371094 2.800781 25.101562 2.882812 C 24.832031 2.960938 24.589844 3.125 24.457031 3.394531 L 23.941406 4.257812 C 22.945312 3.878906 21.921875 3.609375 20.871094 3.449219 L 20.871094 2.421875 C 20.871094 1.832031 20.386719 1.34375 19.792969 1.34375 L 17.070312 1.34375 C 16.476562 1.34375 15.992188 1.832031 15.992188 2.421875 L 15.992188 3.421875 C 14.941406 3.582031 13.917969 3.851562 12.921875 4.230469 L 12.410156 3.367188 C 12.273438 3.125 12.03125 2.933594 11.761719 2.855469 C 11.492188 2.773438 11.195312 2.828125 10.953125 2.960938 L 8.609375 4.308594 C 8.367188 4.445312 8.175781 4.6875 8.097656 4.957031 C 8.015625 5.226562 8.070312 5.523438 8.203125 5.765625 L 8.714844 6.628906 C 7.90625 7.300781 7.152344 8.054688 6.480469 8.863281 L 5.617188 8.351562 C 5.375 8.21875 5.078125 8.164062 4.808594 8.246094 C 4.539062 8.324219 4.296875 8.488281 4.160156 8.757812 L 2.8125 11.101562 C 2.679688 11.34375 2.625 11.640625 2.707031 11.910156 C 2.785156 12.179688 2.949219 12.421875 3.21875 12.558594 L 4.082031 13.070312 C 3.703125 14.066406 3.433594 15.089844 3.273438 16.140625 L 2.246094 16.140625 C 1.65625 16.140625 1.167969 16.625 1.167969 17.21875 L 1.167969 19.914062 C 1.167969 20.507812 1.65625 20.992188 2.246094 20.992188 L 3.246094 20.992188 C 3.40625 22.042969 3.675781 23.066406 4.054688 24.066406 L 3.191406 24.578125 C 2.949219 24.710938 2.761719 24.953125 2.679688 25.222656 C 2.597656 25.492188 2.652344 25.789062 2.785156 26.03125 L 4.132812 28.378906 C 4.269531 28.621094 4.511719 28.808594 4.78125 28.890625 C 5.050781 28.96875 5.347656 28.914062 5.589844 28.78125 L 6.453125 28.269531 C 7.125 29.078125 7.878906 29.832031 8.6875 30.507812 L 8.175781 31.367188 C 8.042969 31.609375 7.988281 31.90625 8.070312 32.175781 C 8.148438 32.445312 8.3125 32.6875 8.582031 32.824219 L 10.925781 34.171875 C 11.167969 34.304688 11.464844 34.359375 11.734375 34.277344 C 12.003906 34.199219 12.246094 34.035156 12.382812 33.765625 L 12.894531 32.90625 C 13.890625 33.28125 14.914062 33.550781 15.964844 33.714844 L 15.964844 34.710938 C 15.964844 35.304688 16.449219 35.789062 17.042969 35.789062 L 19.738281 35.789062 C 20.332031 35.789062 20.816406 35.304688 20.816406 34.710938 L 20.816406 33.714844 C 21.867188 33.550781 22.890625 33.28125 23.890625 32.90625 L 24.402344 33.765625 C 24.535156 34.007812 24.777344 34.199219 25.046875 34.277344 C 25.128906 34.304688 25.238281 34.304688 25.316406 34.304688 C 25.507812 34.304688 25.695312 34.253906 25.855469 34.171875 L 28.203125 32.824219 C 28.445312 32.6875 28.632812 32.445312 28.714844 32.175781 C 28.792969 31.90625 28.742188 31.609375 28.605469 31.367188 L 28.09375 30.507812 C 28.902344 29.832031 29.65625 29.078125 30.332031 28.269531 L 31.191406 28.78125 C 31.4375 28.914062 31.730469 28.96875 32 28.890625 C 32.269531 28.808594 32.511719 28.648438 32.648438 28.378906 L 33.996094 26.03125 C 34.128906 25.789062 34.183594 25.492188 34.105469 25.222656 C 34.023438 24.953125 33.859375 24.710938 33.589844 24.578125 L 32.730469 24.066406 C 33.105469 23.066406 33.375 22.042969 33.539062 20.992188 L 34.535156 20.992188 C 35.128906 20.992188 35.613281 20.507812 35.613281 19.914062 L 35.613281 17.246094 C 35.667969 16.652344 35.183594 16.167969 34.589844 16.167969 Z M 34.589844 19.941406 L 33.132812 19.941406 C 32.863281 19.941406 32.621094 20.128906 32.59375 20.398438 C 32.433594 21.667969 32.109375 22.90625 31.597656 24.09375 C 31.488281 24.335938 31.597656 24.628906 31.8125 24.765625 L 33.078125 25.492188 L 31.730469 27.839844 L 30.464844 27.109375 C 30.222656 26.976562 29.925781 27.03125 29.765625 27.246094 C 28.984375 28.269531 28.09375 29.160156 27.070312 29.941406 C 26.855469 30.101562 26.800781 30.398438 26.933594 30.640625 L 27.664062 31.90625 L 25.316406 33.253906 L 24.589844 31.988281 C 24.457031 31.746094 24.160156 31.664062 23.917969 31.773438 C 22.757812 32.257812 21.570312 32.582031 20.332031 32.742188 C 20.332031 32.742188 20.304688 32.742188 20.304688 32.742188 C 20.035156 32.742188 19.792969 32.957031 19.765625 33.226562 C 19.765625 33.226562 19.765625 33.253906 19.765625 33.253906 C 19.765625 33.253906 19.765625 33.253906 19.765625 33.28125 L 19.765625 34.738281 L 17.070312 34.738281 L 17.070312 33.28125 C 17.070312 33.28125 17.070312 33.28125 17.070312 33.253906 C 17.070312 33.253906 17.070312 33.226562 17.070312 33.226562 C 17.042969 32.957031 16.828125 32.742188 16.53125 32.742188 C 16.53125 32.742188 16.503906 32.742188 16.503906 32.742188 C 15.265625 32.582031 14.050781 32.257812 12.921875 31.773438 C 12.679688 31.664062 12.382812 31.773438 12.246094 31.988281 L 11.519531 33.253906 L 9.175781 31.90625 L 9.902344 30.640625 C 10.035156 30.398438 9.984375 30.101562 9.765625 29.941406 C 8.742188 29.160156 7.855469 28.269531 7.070312 27.246094 C 6.910156 27.03125 6.613281 26.976562 6.371094 27.109375 L 5.105469 27.839844 L 3.757812 25.492188 L 5.023438 24.765625 C 5.265625 24.628906 5.347656 24.335938 5.238281 24.09375 C 4.753906 22.90625 4.402344 21.667969 4.242188 20.398438 C 4.214844 20.128906 3.972656 19.941406 3.703125 19.941406 L 2.246094 19.941406 L 2.246094 17.246094 L 3.703125 17.246094 C 3.972656 17.246094 4.214844 17.058594 4.242188 16.789062 C 4.402344 15.519531 4.726562 14.28125 5.238281 13.097656 C 5.347656 12.851562 5.238281 12.558594 5.023438 12.421875 L 3.757812 11.695312 L 5.105469 9.351562 L 6.371094 10.078125 C 6.613281 10.210938 6.910156 10.160156 7.070312 9.941406 C 7.855469 8.917969 8.742188 8.027344 9.765625 7.246094 C 9.984375 7.085938 10.035156 6.789062 9.902344 6.546875 L 9.175781 5.28125 L 11.519531 3.933594 L 12.246094 5.199219 C 12.382812 5.441406 12.679688 5.523438 12.921875 5.414062 C 14.105469 4.929688 15.347656 4.578125 16.613281 4.417969 C 16.882812 4.390625 17.070312 4.148438 17.070312 3.878906 L 17.070312 2.421875 L 19.765625 2.421875 L 19.765625 3.878906 C 19.765625 4.148438 19.953125 4.390625 20.222656 4.417969 C 21.492188 4.578125 22.730469 4.902344 23.917969 5.414062 C 24.160156 5.523438 24.457031 5.414062 24.589844 5.199219 L 25.316406 3.933594 L 27.664062 5.28125 L 26.933594 6.546875 C 26.800781 6.789062 26.855469 7.085938 27.070312 7.246094 C 28.09375 8.027344 28.984375 8.917969 29.765625 9.941406 C 29.925781 10.160156 30.222656 10.210938 30.464844 10.078125 L 31.730469 9.351562 L 33.078125 11.695312 L 31.8125 12.421875 C 31.570312 12.558594 31.488281 12.851562 31.597656 13.097656 C 32.082031 14.28125 32.433594 15.519531 32.59375 16.789062 C 32.621094 17.058594 32.863281 17.246094 33.132812 17.246094 L 34.589844 17.246094 Z M 34.589844 19.941406 " fill-opacity="1" fill-rule="nonzero"/></g><path fill="#ffffff" d="M 18.417969 6.277344 C 11.574219 6.277344 6.019531 11.828125 6.019531 18.675781 C 6.019531 25.519531 11.574219 31.070312 18.417969 31.070312 C 25.265625 31.070312 30.816406 25.519531 30.816406 18.675781 C 30.816406 11.828125 25.265625 6.277344 18.417969 6.277344 Z M 18.417969 29.992188 C 12.164062 29.992188 7.097656 24.925781 7.097656 18.675781 C 7.097656 12.421875 12.164062 7.355469 18.417969 7.355469 C 24.671875 7.355469 29.738281 12.421875 29.738281 18.675781 C 29.738281 24.925781 24.671875 29.992188 18.417969 29.992188 Z M 18.417969 29.992188 " fill-opacity="1" fill-rule="nonzero"/><path fill="#ffffff" d="M 24.078125 22.71875 L 24.078125 18.675781 C 24.078125 18.460938 23.96875 18.296875 23.78125 18.191406 L 18.957031 15.738281 L 18.957031 12.503906 L 20.222656 13.609375 C 20.332031 13.6875 20.441406 13.742188 20.574219 13.742188 C 20.734375 13.742188 20.871094 13.6875 20.980469 13.554688 C 21.167969 13.339844 21.140625 12.988281 20.925781 12.800781 L 18.769531 10.914062 C 18.769531 10.914062 18.769531 10.914062 18.742188 10.914062 C 18.742188 10.914062 18.714844 10.886719 18.714844 10.886719 C 18.714844 10.886719 18.6875 10.886719 18.6875 10.859375 C 18.6875 10.859375 18.660156 10.859375 18.660156 10.832031 C 18.660156 10.832031 18.632812 10.832031 18.632812 10.804688 C 18.632812 10.804688 18.605469 10.804688 18.605469 10.804688 C 18.605469 10.804688 18.578125 10.804688 18.578125 10.804688 C 18.578125 10.804688 18.554688 10.804688 18.554688 10.804688 C 18.554688 10.804688 18.527344 10.804688 18.527344 10.804688 C 18.527344 10.804688 18.5 10.804688 18.5 10.804688 C 18.5 10.804688 18.472656 10.804688 18.472656 10.804688 C 18.472656 10.804688 18.472656 10.804688 18.445312 10.804688 C 18.445312 10.804688 18.445312 10.804688 18.417969 10.804688 C 18.417969 10.804688 18.390625 10.804688 18.390625 10.804688 C 18.390625 10.804688 18.363281 10.804688 18.363281 10.804688 C 18.363281 10.804688 18.335938 10.804688 18.335938 10.804688 C 18.335938 10.804688 18.308594 10.804688 18.308594 10.804688 C 18.308594 10.804688 18.285156 10.804688 18.285156 10.804688 C 18.285156 10.804688 18.257812 10.804688 18.257812 10.832031 C 18.257812 10.832031 18.230469 10.832031 18.230469 10.832031 C 18.230469 10.832031 18.203125 10.832031 18.203125 10.859375 C 18.203125 10.859375 18.175781 10.859375 18.175781 10.886719 C 18.175781 10.886719 18.148438 10.886719 18.148438 10.914062 C 18.148438 10.914062 18.148438 10.914062 18.121094 10.914062 L 15.964844 12.800781 C 15.75 12.988281 15.722656 13.339844 15.910156 13.554688 C 16.019531 13.6875 16.15625 13.742188 16.316406 13.742188 C 16.449219 13.742188 16.558594 13.6875 16.667969 13.609375 L 17.933594 12.503906 L 17.933594 15.738281 L 13.109375 18.191406 C 12.921875 18.269531 12.8125 18.460938 12.8125 18.675781 L 12.8125 22.71875 C 12.03125 22.960938 11.464844 23.660156 11.464844 24.523438 C 11.464844 25.574219 12.300781 26.410156 13.351562 26.410156 C 14.402344 26.410156 15.238281 25.574219 15.238281 24.523438 C 15.238281 23.660156 14.671875 22.960938 13.890625 22.71875 L 13.890625 19.023438 L 17.933594 16.976562 L 17.933594 22.746094 C 17.152344 22.988281 16.585938 23.6875 16.585938 24.550781 C 16.585938 25.601562 17.421875 26.4375 18.472656 26.4375 C 19.523438 26.4375 20.359375 25.601562 20.359375 24.550781 C 20.359375 23.6875 19.792969 22.988281 19.011719 22.746094 L 19.011719 16.949219 L 23.054688 19 L 23.054688 22.691406 C 22.273438 22.933594 21.707031 23.632812 21.707031 24.496094 C 21.707031 25.546875 22.542969 26.382812 23.59375 26.382812 C 24.644531 26.382812 25.480469 25.546875 25.480469 24.496094 C 25.425781 23.660156 24.859375 22.960938 24.078125 22.71875 Z M 14.105469 24.523438 C 14.105469 24.980469 13.753906 25.332031 13.296875 25.332031 C 12.839844 25.332031 12.488281 24.980469 12.488281 24.523438 C 12.488281 24.066406 12.839844 23.714844 13.296875 23.714844 C 13.753906 23.714844 14.105469 24.066406 14.105469 24.523438 Z M 19.226562 24.523438 C 19.226562 24.980469 18.875 25.332031 18.417969 25.332031 C 17.960938 25.332031 17.609375 24.980469 17.609375 24.523438 C 17.609375 24.066406 17.960938 23.714844 18.417969 23.714844 C 18.875 23.714844 19.226562 24.066406 19.226562 24.523438 Z M 23.539062 25.332031 C 23.082031 25.332031 22.730469 24.980469 22.730469 24.523438 C 22.730469 24.066406 23.082031 23.714844 23.539062 23.714844 C 23.996094 23.714844 24.347656 24.066406 24.347656 24.523438 C 24.347656 24.980469 23.996094 25.332031 23.539062 25.332031 Z M 23.539062 25.332031 " fill-opacity="1" fill-rule="nonzero"/></svg>