<svg xmlns="http://www.w3.org/2000/svg" xmlns:xlink="http://www.w3.org/1999/xlink" width="50" zoomAndPan="magnify" viewBox="0 0 37.5 37.499999" height="50" preserveAspectRatio="xMidYMid meet" version="1.0"><defs><clipPath id="8c4233345a"><path d="M 1.109375 1.554688 L 35.15625 1.554688 L 35.15625 35.601562 L 1.109375 35.601562 Z M 1.109375 1.554688 " clip-rule="nonzero"/></clipPath></defs><path fill="#000000" d="M 18.132812 21.917969 C 16.320312 21.917969 14.847656 20.441406 14.847656 18.632812 C 14.847656 16.820312 16.320312 15.347656 18.132812 15.347656 C 19.945312 15.347656 21.417969 16.820312 21.417969 18.632812 C 21.417969 20.441406 19.945312 21.917969 18.132812 21.917969 Z M 22.511719 18.632812 C 22.511719 16.21875 20.546875 14.253906 18.132812 14.253906 C 15.71875 14.253906 13.753906 16.21875 13.753906 18.632812 C 13.753906 21.046875 15.71875 23.011719 18.132812 23.011719 C 20.546875 23.011719 22.511719 21.046875 22.511719 18.632812 " fill-opacity="1" fill-rule="nonzero"/><g clip-path="url(#8c4233345a)"><path fill="#000000" d="M 34.007812 21.367188 L 30.722656 21.367188 L 30.722656 20.820312 C 30.722656 19.914062 31.457031 19.179688 32.363281 19.179688 C 33.269531 19.179688 34.007812 19.914062 34.007812 20.820312 Z M 34.007812 31.222656 L 32.910156 31.222656 L 32.910156 22.464844 L 34.007812 22.464844 Z M 32.667969 34.320312 C 32.554688 34.546875 32.175781 34.550781 32.0625 34.316406 L 31.058594 32.316406 L 33.667969 32.316406 Z M 30.722656 22.464844 L 31.816406 22.464844 L 31.816406 31.222656 L 30.722656 31.222656 Z M 29.628906 20.820312 L 29.628906 26.054688 C 27.191406 29.824219 23.140625 32.125 18.679688 32.300781 L 18.679688 25.746094 L 20.164062 25.746094 L 20.515625 24.746094 C 20.601562 24.714844 20.6875 24.679688 20.773438 24.640625 L 21.730469 25.097656 L 24.597656 22.226562 L 24.140625 21.273438 C 24.179688 21.1875 24.214844 21.097656 24.25 21.015625 L 25.25 20.660156 L 25.25 19.179688 L 30.191406 19.179688 C 29.839844 19.640625 29.628906 20.203125 29.628906 20.820312 Z M 16.878906 24.652344 L 16.609375 23.890625 L 16.359375 23.804688 C 16.148438 23.734375 15.9375 23.644531 15.730469 23.542969 L 15.492188 23.429688 L 14.761719 23.777344 L 12.988281 22 L 13.335938 21.273438 L 13.222656 21.03125 C 13.121094 20.828125 13.03125 20.617188 12.957031 20.40625 L 12.875 20.15625 L 12.113281 19.886719 L 12.113281 17.375 L 12.875 17.109375 L 12.957031 16.855469 C 13.03125 16.648438 13.121094 16.4375 13.222656 16.230469 L 13.335938 15.992188 L 12.988281 15.261719 L 14.761719 13.488281 L 15.492188 13.835938 L 15.730469 13.722656 C 15.9375 13.617188 16.148438 13.53125 16.359375 13.457031 L 16.609375 13.371094 L 16.878906 12.609375 L 19.386719 12.609375 L 19.65625 13.371094 L 19.90625 13.457031 C 20.117188 13.53125 20.328125 13.617188 20.535156 13.722656 L 20.773438 13.835938 L 21.503906 13.488281 L 23.277344 15.261719 L 22.929688 15.992188 L 23.042969 16.230469 C 23.148438 16.4375 23.234375 16.648438 23.308594 16.855469 L 23.394531 17.109375 L 24.152344 17.375 L 24.152344 19.886719 L 23.394531 20.15625 L 23.308594 20.40625 C 23.234375 20.617188 23.148438 20.828125 23.042969 21.03125 L 22.929688 21.273438 L 23.277344 22 L 21.503906 23.777344 L 20.773438 23.429688 L 20.535156 23.542969 C 20.328125 23.644531 20.117188 23.734375 19.90625 23.804688 L 19.65625 23.890625 L 19.386719 24.652344 Z M 11.015625 16.601562 L 11.015625 18.085938 L 4.46875 18.085938 C 4.558594 15.753906 5.238281 13.5 6.449219 11.515625 L 13.207031 11.515625 L 13.207031 5.863281 C 14.609375 5.324219 16.078125 5.019531 17.585938 4.960938 L 17.585938 11.515625 L 16.105469 11.515625 L 15.75 12.515625 C 15.664062 12.550781 15.578125 12.585938 15.492188 12.625 L 14.535156 12.167969 L 11.667969 15.035156 L 12.125 15.992188 C 12.085938 16.078125 12.050781 16.164062 12.019531 16.25 Z M 4.996094 25.746094 L 4.996094 24.652344 C 4.996094 24.050781 5.488281 23.558594 6.089844 23.558594 C 6.695312 23.558594 7.1875 24.050781 7.1875 24.652344 L 7.1875 25.746094 L 9.375 25.746094 C 9.675781 25.746094 9.921875 25.992188 9.921875 26.296875 L 9.921875 27.9375 C 8.714844 27.9375 7.734375 28.917969 7.734375 30.125 C 7.734375 31.335938 8.714844 32.316406 9.921875 32.316406 L 9.921875 33.957031 C 9.921875 34.257812 9.675781 34.503906 9.375 34.503906 L 2.808594 34.503906 C 2.503906 34.503906 2.257812 34.257812 2.257812 33.957031 L 2.257812 32.316406 C 3.46875 32.316406 4.449219 31.335938 4.449219 30.125 C 4.449219 28.917969 3.46875 27.9375 2.257812 27.9375 L 2.257812 26.296875 C 2.257812 25.992188 2.503906 25.746094 2.808594 25.746094 Z M 6.636719 4.949219 L 7.734375 4.949219 L 7.734375 10.421875 L 6.636719 10.421875 Z M 11.015625 2.757812 L 12.113281 2.757812 L 12.113281 10.421875 L 11.015625 10.421875 Z M 18.679688 4.964844 C 20.792969 5.050781 22.859375 5.621094 24.703125 6.632812 C 24.714844 8.296875 25.550781 9.828125 26.980469 10.738281 C 27.261719 10.921875 27.4375 11.273438 27.4375 11.652344 L 27.4375 13.160156 C 27.4375 14.066406 28.175781 14.800781 29.082031 14.800781 L 30.175781 14.800781 C 30.550781 14.800781 30.890625 14.671875 31.164062 14.457031 C 31.542969 15.628906 31.753906 16.84375 31.804688 18.085938 L 25.25 18.085938 L 25.25 16.601562 L 24.25 16.25 C 24.214844 16.164062 24.179688 16.078125 24.140625 15.992188 L 24.597656 15.035156 L 21.730469 12.167969 L 20.773438 12.625 C 20.6875 12.585938 20.601562 12.550781 20.515625 12.515625 L 20.164062 11.515625 L 18.679688 11.515625 Z M 29.082031 6.589844 C 29.082031 6.289062 29.328125 6.042969 29.628906 6.042969 C 29.929688 6.042969 30.175781 6.289062 30.175781 6.589844 C 30.175781 6.890625 29.929688 7.136719 29.628906 7.136719 C 29.328125 7.136719 29.082031 6.890625 29.082031 6.589844 Z M 30.722656 12.609375 L 30.722656 13.160156 C 30.722656 13.460938 30.476562 13.707031 30.175781 13.707031 L 29.082031 13.707031 C 28.777344 13.707031 28.53125 13.460938 28.53125 13.160156 L 28.53125 12.609375 Z M 25.828125 6.082031 C 26.046875 4.367188 27.457031 2.980469 29.179688 2.785156 C 29.332031 2.765625 29.484375 2.757812 29.632812 2.757812 C 30.578125 2.757812 31.464844 3.097656 32.179688 3.730469 C 32.992188 4.457031 33.460938 5.5 33.460938 6.589844 C 33.460938 7.898438 32.800781 9.101562 31.699219 9.8125 C 31.117188 10.183594 30.765625 10.816406 30.730469 11.515625 L 30.175781 11.515625 L 30.175781 8.132812 C 30.808594 7.90625 31.269531 7.300781 31.269531 6.589844 C 31.269531 5.683594 30.535156 4.949219 29.628906 4.949219 C 28.722656 4.949219 27.984375 5.683594 27.984375 6.589844 C 27.984375 7.300781 28.445312 7.90625 29.082031 8.132812 L 29.082031 11.515625 L 28.523438 11.515625 C 28.484375 10.808594 28.136719 10.179688 27.570312 9.820312 C 26.304688 9.011719 25.636719 7.578125 25.828125 6.082031 Z M 3.355469 10.421875 L 2.257812 10.421875 L 2.257812 7.136719 L 3.355469 7.136719 Z M 32.898438 18.136719 C 32.84375 16.378906 32.480469 14.671875 31.816406 13.046875 L 31.816406 11.628906 C 31.816406 11.265625 32 10.917969 32.289062 10.734375 C 33.707031 9.820312 34.554688 8.273438 34.554688 6.589844 C 34.554688 5.191406 33.957031 3.847656 32.90625 2.914062 C 31.863281 1.980469 30.460938 1.539062 29.058594 1.695312 C 27.003906 1.929688 25.296875 3.480469 24.832031 5.460938 C 22.765625 4.410156 20.46875 3.851562 18.132812 3.851562 C 16.4375 3.851562 14.785156 4.136719 13.207031 4.695312 L 13.207031 1.664062 L 9.921875 1.664062 L 9.921875 10.421875 L 8.828125 10.421875 L 8.828125 3.851562 L 5.542969 3.851562 L 5.542969 10.421875 L 4.449219 10.421875 L 4.449219 6.042969 L 1.164062 6.042969 L 1.164062 11.515625 L 5.179688 11.515625 C 3.984375 13.6875 3.355469 16.128906 3.355469 18.632812 C 3.355469 20.324219 3.648438 21.976562 4.207031 23.558594 C 4.015625 23.882812 3.902344 24.253906 3.902344 24.652344 L 2.808594 24.652344 C 1.902344 24.652344 1.164062 25.386719 1.164062 26.296875 L 1.164062 29.03125 L 2.257812 29.03125 C 2.863281 29.03125 3.355469 29.523438 3.355469 30.125 C 3.355469 30.730469 2.863281 31.222656 2.257812 31.222656 L 1.164062 31.222656 L 1.164062 33.957031 C 1.164062 34.863281 1.902344 35.601562 2.808594 35.601562 L 9.375 35.601562 C 10.28125 35.601562 11.015625 34.863281 11.015625 33.957031 L 11.015625 31.222656 L 9.921875 31.222656 C 9.320312 31.222656 8.828125 30.730469 8.828125 30.125 C 8.828125 29.523438 9.320312 29.03125 9.921875 29.03125 L 11.015625 29.03125 L 11.015625 26.296875 C 11.015625 25.386719 10.28125 24.652344 9.375 24.652344 L 8.28125 24.652344 C 8.28125 23.445312 7.300781 22.464844 6.089844 22.464844 C 5.726562 22.464844 5.386719 22.5625 5.085938 22.71875 C 4.726562 21.574219 4.523438 20.390625 4.472656 19.179688 L 11.015625 19.179688 L 11.015625 20.660156 L 12.019531 21.015625 C 12.050781 21.097656 12.085938 21.1875 12.125 21.273438 L 11.667969 22.226562 L 14.535156 25.097656 L 15.492188 24.640625 C 15.578125 24.679688 15.664062 24.714844 15.75 24.746094 L 16.105469 25.746094 L 17.585938 25.746094 L 17.585938 32.300781 C 15.765625 32.230469 14.011719 31.8125 12.363281 31.042969 L 11.902344 32.035156 C 13.859375 32.949219 15.957031 33.410156 18.132812 33.410156 C 22.652344 33.410156 26.835938 31.382812 29.628906 27.917969 L 29.628906 31.898438 L 31.082031 34.808594 C 31.328125 35.296875 31.816406 35.601562 32.363281 35.601562 C 32.910156 35.601562 33.402344 35.296875 33.648438 34.808594 L 35.101562 31.898438 L 35.101562 20.820312 C 35.101562 19.496094 34.15625 18.386719 32.898438 18.136719 " fill-opacity="1" fill-rule="nonzero"/></g><path fill="#000000" d="M 19.851562 31.105469 C 22.707031 30.714844 25.367188 29.332031 27.34375 27.214844 L 26.542969 26.46875 C 24.738281 28.402344 22.308594 29.664062 19.699219 30.019531 L 19.851562 31.105469 " fill-opacity="1" fill-rule="nonzero"/><path fill="#000000" d="M 29.039062 24.925781 L 28.089844 24.378906 C 27.882812 24.738281 27.65625 25.089844 27.410156 25.425781 L 28.289062 26.074219 C 28.558594 25.703125 28.8125 25.320312 29.039062 24.925781 " fill-opacity="1" fill-rule="nonzero"/></svg>