<svg xmlns="http://www.w3.org/2000/svg" xmlns:xlink="http://www.w3.org/1999/xlink" width="50" zoomAndPan="magnify" viewBox="0 0 37.5 37.499999" height="50" preserveAspectRatio="xMidYMid meet" version="1.0"><defs><clipPath id="e6d99e288e"><path d="M 10 3.699219 L 26 3.699219 L 26 17 L 10 17 Z M 10 3.699219 " clip-rule="nonzero"/></clipPath><clipPath id="006bfcb909"><path d="M 0.886719 22 L 11 22 L 11 31 L 0.886719 31 Z M 0.886719 22 " clip-rule="nonzero"/></clipPath><clipPath id="7eb4e28b05"><path d="M 25 22 L 35.675781 22 L 35.675781 31 L 25 31 Z M 25 22 " clip-rule="nonzero"/></clipPath><clipPath id="be0bf54ade"><path d="M 13 28 L 24 28 L 24 36.265625 L 13 36.265625 Z M 13 28 " clip-rule="nonzero"/></clipPath></defs><path fill="#000000" d="M 11.839844 17.433594 C 11.460938 17.324219 11.132812 17.132812 10.835938 16.890625 L 5.835938 21.882812 L 7.382812 21.882812 Z M 11.839844 17.433594 " fill-opacity="1" fill-rule="nonzero"/><path fill="#000000" d="M 17.738281 17.542969 L 18.824219 17.542969 L 18.824219 27.582031 L 17.738281 27.582031 Z M 17.738281 17.542969 " fill-opacity="1" fill-rule="nonzero"/><path fill="#000000" d="M 29.207031 21.882812 L 30.753906 21.882812 L 25.726562 16.890625 C 25.429688 17.132812 25.101562 17.324219 24.722656 17.433594 Z M 29.207031 21.882812 " fill-opacity="1" fill-rule="nonzero"/><g clip-path="url(#e6d99e288e)"><path fill="#000000" d="M 12.574219 16.457031 L 23.988281 16.457031 C 24.886719 16.457031 25.617188 15.722656 25.617188 14.828125 L 25.617188 5.328125 C 25.617188 4.433594 24.886719 3.703125 23.988281 3.703125 L 18.851562 3.703125 C 18.308594 3.703125 17.792969 3.972656 17.492188 4.433594 L 16.351562 6.144531 L 12.574219 6.144531 C 11.675781 6.144531 10.945312 6.875 10.945312 7.773438 L 10.945312 14.828125 C 10.945312 15.722656 11.675781 16.457031 12.574219 16.457031 Z M 23.988281 15.371094 L 12.574219 15.371094 C 12.273438 15.371094 12.03125 15.125 12.03125 14.828125 L 12.03125 9.398438 L 14.449219 9.398438 C 14.640625 9.398438 14.800781 9.480469 14.910156 9.644531 C 14.9375 9.671875 14.9375 9.699219 14.964844 9.726562 L 16.078125 10.867188 C 16.296875 11.136719 16.597656 11.300781 16.949219 11.300781 L 24.53125 11.300781 L 24.53125 14.828125 C 24.53125 15.125 24.289062 15.371094 23.988281 15.371094 Z M 12.574219 7.230469 L 16.351562 7.230469 C 16.703125 7.230469 17.058594 7.039062 17.25 6.742188 L 18.390625 5.03125 C 18.5 4.867188 18.660156 4.785156 18.851562 4.785156 L 23.988281 4.785156 C 24.289062 4.785156 24.53125 5.03125 24.53125 5.328125 L 24.53125 10.214844 L 16.949219 10.214844 C 16.921875 10.1875 16.921875 10.160156 16.894531 10.132812 L 15.78125 8.992188 C 15.480469 8.558594 14.992188 8.316406 14.449219 8.316406 L 12.03125 8.316406 L 12.03125 7.773438 C 12.03125 7.472656 12.273438 7.230469 12.574219 7.230469 Z M 12.574219 7.230469 " fill-opacity="1" fill-rule="nonzero"/></g><g clip-path="url(#006bfcb909)"><path fill="#000000" d="M 1.976562 30.566406 L 9.585938 30.566406 C 10.183594 30.566406 10.671875 30.078125 10.671875 29.480469 L 10.671875 24.054688 C 10.671875 23.457031 10.183594 22.96875 9.585938 22.96875 L 1.976562 22.96875 C 1.378906 22.96875 0.886719 23.457031 0.886719 24.054688 L 0.886719 29.480469 C 0.886719 30.078125 1.378906 30.566406 1.976562 30.566406 Z M 1.976562 24.054688 L 9.585938 24.054688 L 9.585938 29.480469 L 1.976562 29.480469 Z M 1.976562 24.054688 " fill-opacity="1" fill-rule="nonzero"/></g><g clip-path="url(#7eb4e28b05)"><path fill="#000000" d="M 25.890625 24.054688 L 25.890625 29.480469 C 25.890625 30.078125 26.378906 30.566406 26.976562 30.566406 L 34.585938 30.566406 C 35.183594 30.566406 35.675781 30.078125 35.675781 29.480469 L 35.675781 24.054688 C 35.675781 23.457031 35.183594 22.96875 34.585938 22.96875 L 26.976562 22.96875 C 26.378906 22.96875 25.890625 23.457031 25.890625 24.054688 Z M 34.585938 29.480469 L 26.976562 29.480469 L 26.976562 24.054688 L 34.585938 24.054688 Z M 34.585938 29.480469 " fill-opacity="1" fill-rule="nonzero"/></g><g clip-path="url(#be0bf54ade)"><path fill="#000000" d="M 13.390625 29.753906 L 13.390625 35.179688 C 13.390625 35.777344 13.878906 36.265625 14.476562 36.265625 L 22.085938 36.265625 C 22.683594 36.265625 23.171875 35.777344 23.171875 35.179688 L 23.171875 29.753906 C 23.171875 29.15625 22.683594 28.667969 22.085938 28.667969 L 14.476562 28.667969 C 13.878906 28.667969 13.390625 29.15625 13.390625 29.753906 Z M 22.085938 35.179688 L 14.476562 35.179688 L 14.476562 29.753906 L 22.085938 29.753906 Z M 22.085938 35.179688 " fill-opacity="1" fill-rule="nonzero"/></g><path fill="#000000" d="M 16.105469 31.921875 L 20.457031 31.921875 C 20.753906 31.921875 21 31.679688 21 31.382812 C 21 31.082031 20.753906 30.839844 20.457031 30.839844 L 16.105469 30.839844 C 15.808594 30.839844 15.5625 31.082031 15.5625 31.382812 C 15.5625 31.679688 15.808594 31.921875 16.105469 31.921875 Z M 16.105469 31.921875 " fill-opacity="1" fill-rule="nonzero"/><path fill="#000000" d="M 16.105469 34.066406 L 20.457031 34.066406 C 20.753906 34.066406 21 33.824219 21 33.523438 C 21 33.226562 20.753906 32.980469 20.457031 32.980469 L 16.105469 32.980469 C 15.808594 32.980469 15.5625 33.226562 15.5625 33.523438 C 15.5625 33.824219 15.808594 34.066406 16.105469 34.066406 Z M 16.105469 34.066406 " fill-opacity="1" fill-rule="nonzero"/><path fill="#000000" d="M 7.953125 25.140625 L 3.605469 25.140625 C 3.308594 25.140625 3.0625 25.382812 3.0625 25.683594 C 3.0625 25.980469 3.308594 26.226562 3.605469 26.226562 L 7.953125 26.226562 C 8.253906 26.226562 8.496094 25.980469 8.496094 25.683594 C 8.496094 25.382812 8.253906 25.140625 7.953125 25.140625 Z M 7.953125 25.140625 " fill-opacity="1" fill-rule="nonzero"/><path fill="#000000" d="M 7.953125 27.285156 L 3.605469 27.285156 C 3.308594 27.285156 3.0625 27.527344 3.0625 27.824219 C 3.0625 28.125 3.308594 28.367188 3.605469 28.367188 L 7.953125 28.367188 C 8.253906 28.367188 8.496094 28.125 8.496094 27.824219 C 8.496094 27.527344 8.253906 27.285156 7.953125 27.285156 Z M 7.953125 27.285156 " fill-opacity="1" fill-rule="nonzero"/><path fill="#000000" d="M 28.609375 26.226562 L 32.957031 26.226562 C 33.253906 26.226562 33.5 25.980469 33.5 25.683594 C 33.5 25.382812 33.253906 25.140625 32.957031 25.140625 L 28.609375 25.140625 C 28.308594 25.140625 28.066406 25.382812 28.066406 25.683594 C 28.066406 25.980469 28.308594 26.226562 28.609375 26.226562 Z M 28.609375 26.226562 " fill-opacity="1" fill-rule="nonzero"/><path fill="#000000" d="M 28.609375 28.367188 L 32.957031 28.367188 C 33.253906 28.367188 33.5 28.125 33.5 27.824219 C 33.5 27.527344 33.253906 27.285156 32.957031 27.285156 L 28.609375 27.285156 C 28.308594 27.285156 28.066406 27.527344 28.066406 27.824219 C 28.066406 28.125 28.308594 28.367188 28.609375 28.367188 Z M 28.609375 28.367188 " fill-opacity="1" fill-rule="nonzero"/></svg>