<svg xmlns="http://www.w3.org/2000/svg" xmlns:xlink="http://www.w3.org/1999/xlink" width="50" zoomAndPan="magnify" viewBox="0 0 37.5 37.499999" height="50" preserveAspectRatio="xMidYMid meet" version="1.0"><defs><clipPath id="aab666da54"><path d="M 0.300781 0 L 11 0 L 11 11 L 0.300781 11 Z M 0.300781 0 " clip-rule="nonzero"/></clipPath><clipPath id="1e10bc362c"><path d="M 26 0 L 36.566406 0 L 36.566406 11 L 26 11 Z M 26 0 " clip-rule="nonzero"/></clipPath></defs><path fill="#000000" d="M 18.433594 14.246094 C 18.164062 14.246094 17.902344 14.296875 17.652344 14.402344 C 17.398438 14.507812 17.179688 14.65625 16.984375 14.847656 C 16.792969 15.039062 16.644531 15.261719 16.542969 15.515625 C 16.4375 15.765625 16.386719 16.027344 16.386719 16.300781 L 17.554688 16.300781 C 17.554688 16.058594 17.640625 15.851562 17.8125 15.679688 C 17.984375 15.507812 18.191406 15.421875 18.433594 15.421875 C 18.675781 15.421875 18.882812 15.507812 19.054688 15.679688 C 19.226562 15.851562 19.3125 16.058594 19.3125 16.300781 C 19.3125 16.542969 19.226562 16.753906 19.054688 16.925781 C 18.882812 17.097656 18.675781 17.183594 18.433594 17.183594 C 18.273438 17.183594 18.132812 17.238281 18.019531 17.355469 C 17.90625 17.46875 17.847656 17.605469 17.847656 17.769531 L 17.847656 19.238281 L 19.019531 19.238281 L 19.019531 18.269531 C 19.253906 18.195312 19.46875 18.085938 19.664062 17.9375 C 19.859375 17.789062 20.023438 17.609375 20.152344 17.402344 C 20.285156 17.195312 20.375 16.972656 20.429688 16.730469 C 20.480469 16.488281 20.488281 16.246094 20.453125 16.003906 C 20.417969 15.761719 20.339844 15.53125 20.222656 15.316406 C 20.105469 15.097656 19.953125 14.910156 19.769531 14.75 C 19.582031 14.589844 19.375 14.464844 19.144531 14.378906 C 18.917969 14.289062 18.679688 14.246094 18.433594 14.246094 Z M 18.433594 14.246094 " fill-opacity="1" fill-rule="nonzero"/><path fill="#000000" d="M 17.847656 20.117188 L 19.019531 20.117188 L 19.019531 21.292969 L 17.847656 21.292969 Z M 17.847656 20.117188 " fill-opacity="1" fill-rule="nonzero"/><g clip-path="url(#aab666da54)"><path fill="#000000" d="M 5.566406 10.722656 C 5.910156 10.722656 6.253906 10.6875 6.59375 10.621094 C 6.929688 10.554688 7.261719 10.453125 7.578125 10.320312 C 7.898438 10.1875 8.203125 10.023438 8.488281 9.832031 C 8.777344 9.640625 9.042969 9.421875 9.289062 9.175781 C 9.53125 8.929688 9.75 8.664062 9.941406 8.375 C 10.132812 8.085938 10.296875 7.78125 10.429688 7.460938 C 10.5625 7.140625 10.660156 6.808594 10.726562 6.46875 C 10.796875 6.128906 10.828125 5.785156 10.828125 5.4375 C 10.828125 5.089844 10.796875 4.746094 10.726562 4.40625 C 10.660156 4.066406 10.5625 3.738281 10.429688 3.417969 C 10.296875 3.09375 10.132812 2.792969 9.941406 2.503906 C 9.75 2.214844 9.53125 1.945312 9.289062 1.703125 C 9.042969 1.457031 8.777344 1.238281 8.488281 1.042969 C 8.203125 0.851562 7.898438 0.6875 7.578125 0.554688 C 7.261719 0.421875 6.929688 0.324219 6.59375 0.253906 C 6.253906 0.1875 5.910156 0.152344 5.566406 0.152344 C 5.21875 0.152344 4.878906 0.1875 4.539062 0.253906 C 4.199219 0.324219 3.871094 0.421875 3.550781 0.554688 C 3.230469 0.6875 2.929688 0.851562 2.640625 1.042969 C 2.351562 1.238281 2.085938 1.457031 1.84375 1.703125 C 1.597656 1.945312 1.378906 2.214844 1.1875 2.503906 C 0.996094 2.792969 0.832031 3.09375 0.703125 3.417969 C 0.570312 3.738281 0.46875 4.066406 0.402344 4.40625 C 0.335938 4.746094 0.300781 5.089844 0.300781 5.4375 C 0.300781 5.785156 0.335938 6.128906 0.402344 6.46875 C 0.46875 6.808594 0.570312 7.140625 0.703125 7.460938 C 0.832031 7.78125 0.996094 8.085938 1.1875 8.375 C 1.378906 8.664062 1.597656 8.929688 1.84375 9.175781 C 2.085938 9.421875 2.351562 9.640625 2.640625 9.832031 C 2.929688 10.023438 3.230469 10.1875 3.550781 10.320312 C 3.871094 10.453125 4.199219 10.554688 4.539062 10.621094 C 4.878906 10.6875 5.21875 10.722656 5.566406 10.722656 Z M 5.566406 1.328125 C 5.835938 1.328125 6.101562 1.355469 6.363281 1.40625 C 6.628906 1.460938 6.882812 1.539062 7.132812 1.640625 C 7.378906 1.746094 7.617188 1.871094 7.839844 2.019531 C 8.0625 2.171875 8.269531 2.339844 8.460938 2.53125 C 8.652344 2.722656 8.820312 2.929688 8.96875 3.15625 C 9.117188 3.378906 9.246094 3.617188 9.347656 3.867188 C 9.449219 4.113281 9.527344 4.371094 9.582031 4.636719 C 9.632812 4.902344 9.660156 5.167969 9.660156 5.4375 C 9.660156 5.707031 9.632812 5.976562 9.582031 6.242188 C 9.527344 6.503906 9.449219 6.761719 9.347656 7.011719 C 9.246094 7.261719 9.117188 7.496094 8.96875 7.722656 C 8.820312 7.945312 8.652344 8.152344 8.460938 8.34375 C 8.269531 8.535156 8.0625 8.707031 7.839844 8.855469 C 7.617188 9.007812 7.378906 9.132812 7.132812 9.234375 C 6.882812 9.339844 6.628906 9.417969 6.363281 9.46875 C 6.101562 9.523438 5.835938 9.546875 5.566406 9.546875 C 5.296875 9.546875 5.03125 9.523438 4.765625 9.46875 C 4.503906 9.417969 4.246094 9.339844 4 9.234375 C 3.75 9.132812 3.515625 9.007812 3.289062 8.855469 C 3.066406 8.707031 2.859375 8.535156 2.667969 8.34375 C 2.480469 8.152344 2.308594 7.945312 2.160156 7.722656 C 2.011719 7.496094 1.886719 7.261719 1.78125 7.011719 C 1.679688 6.761719 1.601562 6.503906 1.550781 6.242188 C 1.496094 5.976562 1.46875 5.707031 1.46875 5.4375 C 1.46875 5.167969 1.496094 4.902344 1.550781 4.636719 C 1.601562 4.371094 1.679688 4.113281 1.78125 3.867188 C 1.886719 3.617188 2.011719 3.378906 2.160156 3.15625 C 2.308594 2.929688 2.480469 2.722656 2.667969 2.53125 C 2.859375 2.339844 3.066406 2.171875 3.289062 2.019531 C 3.515625 1.871094 3.75 1.746094 4 1.640625 C 4.246094 1.539062 4.503906 1.460938 4.765625 1.40625 C 5.03125 1.355469 5.296875 1.328125 5.566406 1.328125 Z M 5.566406 1.328125 " fill-opacity="1" fill-rule="nonzero"/></g><g clip-path="url(#1e10bc362c)"><path fill="#000000" d="M 31.300781 0.152344 C 30.957031 0.152344 30.613281 0.1875 30.277344 0.253906 C 29.9375 0.324219 29.605469 0.421875 29.289062 0.554688 C 28.96875 0.6875 28.664062 0.851562 28.378906 1.042969 C 28.089844 1.238281 27.824219 1.457031 27.582031 1.703125 C 27.335938 1.945312 27.117188 2.214844 26.925781 2.503906 C 26.734375 2.792969 26.570312 3.09375 26.4375 3.417969 C 26.304688 3.738281 26.207031 4.066406 26.140625 4.40625 C 26.070312 4.746094 26.039062 5.089844 26.039062 5.4375 C 26.039062 5.785156 26.070312 6.128906 26.140625 6.46875 C 26.207031 6.808594 26.304688 7.140625 26.4375 7.460938 C 26.570312 7.78125 26.734375 8.085938 26.925781 8.375 C 27.117188 8.664062 27.335938 8.929688 27.582031 9.175781 C 27.824219 9.421875 28.089844 9.640625 28.378906 9.832031 C 28.664062 10.023438 28.96875 10.1875 29.289062 10.320312 C 29.605469 10.453125 29.9375 10.554688 30.277344 10.621094 C 30.613281 10.6875 30.957031 10.722656 31.300781 10.722656 C 31.648438 10.722656 31.992188 10.6875 32.328125 10.621094 C 32.667969 10.554688 32.996094 10.453125 33.316406 10.320312 C 33.636719 10.1875 33.941406 10.023438 34.226562 9.832031 C 34.515625 9.640625 34.78125 9.421875 35.023438 9.175781 C 35.269531 8.929688 35.488281 8.664062 35.679688 8.375 C 35.871094 8.085938 36.035156 7.78125 36.167969 7.460938 C 36.296875 7.140625 36.398438 6.808594 36.464844 6.46875 C 36.535156 6.128906 36.566406 5.785156 36.566406 5.4375 C 36.566406 5.089844 36.535156 4.746094 36.464844 4.40625 C 36.398438 4.066406 36.296875 3.738281 36.167969 3.417969 C 36.035156 3.09375 35.871094 2.792969 35.679688 2.503906 C 35.488281 2.214844 35.269531 1.945312 35.023438 1.703125 C 34.78125 1.457031 34.515625 1.238281 34.226562 1.042969 C 33.941406 0.851562 33.636719 0.6875 33.316406 0.554688 C 32.996094 0.421875 32.667969 0.324219 32.328125 0.253906 C 31.992188 0.1875 31.648438 0.152344 31.300781 0.152344 Z M 31.300781 9.546875 C 31.035156 9.546875 30.765625 9.523438 30.503906 9.46875 C 30.238281 9.417969 29.984375 9.339844 29.734375 9.234375 C 29.488281 9.132812 29.25 9.007812 29.027344 8.855469 C 28.804688 8.707031 28.597656 8.535156 28.40625 8.34375 C 28.21875 8.152344 28.046875 7.945312 27.898438 7.722656 C 27.75 7.496094 27.621094 7.261719 27.519531 7.011719 C 27.417969 6.761719 27.339844 6.503906 27.285156 6.242188 C 27.234375 5.976562 27.207031 5.707031 27.207031 5.4375 C 27.207031 5.167969 27.234375 4.902344 27.285156 4.636719 C 27.339844 4.371094 27.417969 4.113281 27.519531 3.867188 C 27.621094 3.617188 27.75 3.378906 27.898438 3.15625 C 28.046875 2.929688 28.21875 2.722656 28.40625 2.53125 C 28.597656 2.339844 28.804688 2.171875 29.027344 2.019531 C 29.25 1.871094 29.488281 1.746094 29.734375 1.640625 C 29.984375 1.539062 30.238281 1.460938 30.503906 1.40625 C 30.765625 1.355469 31.035156 1.328125 31.300781 1.328125 C 31.570312 1.328125 31.835938 1.355469 32.101562 1.40625 C 32.363281 1.460938 32.621094 1.539062 32.871094 1.640625 C 33.117188 1.746094 33.355469 1.871094 33.578125 2.019531 C 33.800781 2.171875 34.007812 2.339844 34.199219 2.53125 C 34.386719 2.722656 34.558594 2.929688 34.707031 3.15625 C 34.855469 3.378906 34.984375 3.617188 35.085938 3.867188 C 35.1875 4.113281 35.265625 4.371094 35.320312 4.636719 C 35.371094 4.902344 35.398438 5.167969 35.398438 5.4375 C 35.398438 5.707031 35.371094 5.976562 35.320312 6.242188 C 35.265625 6.503906 35.1875 6.761719 35.085938 7.011719 C 34.984375 7.261719 34.855469 7.496094 34.707031 7.722656 C 34.558594 7.945312 34.386719 8.152344 34.199219 8.34375 C 34.007812 8.535156 33.800781 8.707031 33.578125 8.855469 C 33.355469 9.007812 33.117188 9.132812 32.871094 9.234375 C 32.621094 9.339844 32.363281 9.417969 32.101562 9.46875 C 31.835938 9.523438 31.570312 9.546875 31.300781 9.546875 Z M 31.300781 9.546875 " fill-opacity="1" fill-rule="nonzero"/></g><path fill="#000000" d="M 4.742188 7.394531 C 4.898438 7.394531 5.035156 7.335938 5.148438 7.222656 L 8.074219 4.316406 L 7.21875 3.484375 L 4.742188 5.972656 L 3.910156 5.144531 L 3.085938 5.972656 L 4.324219 7.199219 C 4.4375 7.324219 4.574219 7.386719 4.742188 7.394531 Z M 4.742188 7.394531 " fill-opacity="1" fill-rule="nonzero"/><path fill="#000000" d="M 32.542969 3.359375 L 31.300781 4.609375 L 30.0625 3.359375 L 29.238281 4.195312 L 30.476562 5.4375 L 29.238281 6.683594 L 30.0625 7.515625 L 31.300781 6.265625 L 32.542969 7.515625 L 33.367188 6.683594 L 32.128906 5.4375 L 33.367188 4.195312 Z M 32.542969 3.359375 " fill-opacity="1" fill-rule="nonzero"/><path fill="#000000" d="M 6.851562 15.1875 L 7.789062 14.480469 L 6.03125 12.132812 C 5.976562 12.058594 5.910156 12 5.828125 11.960938 C 5.746094 11.917969 5.65625 11.898438 5.566406 11.898438 C 5.472656 11.898438 5.386719 11.917969 5.304688 11.960938 C 5.222656 12 5.152344 12.058594 5.097656 12.132812 L 3.34375 14.480469 L 4.277344 15.1875 L 4.980469 14.246094 L 4.980469 17.769531 C 4.980469 17.929688 5.039062 18.070312 5.152344 18.183594 C 5.265625 18.300781 5.402344 18.355469 5.566406 18.355469 L 12 18.355469 L 12 17.183594 L 6.148438 17.183594 L 6.148438 14.246094 Z M 6.851562 15.1875 " fill-opacity="1" fill-rule="nonzero"/><path fill="#000000" d="M 24.867188 17.183594 L 24.867188 18.355469 L 31.300781 18.355469 C 31.464844 18.355469 31.601562 18.300781 31.714844 18.183594 C 31.832031 18.070312 31.886719 17.929688 31.886719 17.769531 L 31.886719 14.246094 L 32.589844 15.1875 L 33.527344 14.480469 L 31.769531 12.132812 C 31.714844 12.058594 31.648438 12 31.5625 11.960938 C 31.480469 11.917969 31.394531 11.898438 31.300781 11.898438 C 31.210938 11.898438 31.125 11.917969 31.042969 11.960938 C 30.957031 12 30.890625 12.058594 30.835938 12.132812 L 29.078125 14.480469 L 30.015625 15.1875 L 30.71875 14.246094 L 30.71875 17.183594 Z M 24.867188 17.183594 " fill-opacity="1" fill-rule="nonzero"/><path fill="#000000" d="M 22.527344 23.640625 C 22.683594 23.640625 22.832031 23.609375 22.976562 23.550781 C 23.121094 23.492188 23.246094 23.40625 23.355469 23.296875 C 23.464844 23.1875 23.550781 23.058594 23.609375 22.917969 C 23.667969 22.773438 23.699219 22.621094 23.699219 22.464844 L 23.699219 13.070312 C 23.699219 12.917969 23.667969 12.765625 23.609375 12.621094 C 23.550781 12.480469 23.464844 12.351562 23.355469 12.242188 C 23.246094 12.132812 23.121094 12.046875 22.976562 11.988281 C 22.832031 11.925781 22.683594 11.898438 22.527344 11.898438 L 14.339844 11.898438 C 14.183594 11.898438 14.035156 11.925781 13.890625 11.988281 C 13.75 12.046875 13.621094 12.132812 13.511719 12.242188 C 13.402344 12.351562 13.316406 12.480469 13.257812 12.621094 C 13.199219 12.765625 13.167969 12.917969 13.167969 13.070312 L 13.167969 22.464844 C 13.167969 22.621094 13.199219 22.773438 13.257812 22.917969 C 13.316406 23.058594 13.402344 23.1875 13.511719 23.296875 C 13.621094 23.40625 13.75 23.492188 13.890625 23.550781 C 14.035156 23.609375 14.183594 23.640625 14.339844 23.640625 Z M 14.339844 13.070312 L 22.527344 13.070312 L 22.527344 22.464844 L 14.339844 22.464844 Z M 14.339844 13.070312 " fill-opacity="1" fill-rule="nonzero"/><path fill="#000000" d="M 35.015625 36.558594 C 35.128906 36.363281 35.128906 36.167969 35.015625 35.972656 L 32.472656 30.839844 L 32.472656 27.75 C 32.472656 27.589844 32.414062 27.449219 32.300781 27.335938 C 32.1875 27.222656 32.050781 27.164062 31.886719 27.164062 L 19.019531 27.164062 L 19.019531 24.816406 L 17.847656 24.816406 L 17.847656 27.164062 L 4.980469 27.164062 C 4.820312 27.164062 4.679688 27.222656 4.566406 27.335938 C 4.453125 27.449219 4.394531 27.589844 4.394531 27.75 L 4.394531 30.453125 C 4.132812 30.5 3.882812 30.582031 3.640625 30.691406 C 3.398438 30.804688 3.175781 30.941406 2.96875 31.109375 C 2.761719 31.277344 2.578125 31.464844 2.414062 31.679688 C 2.253906 31.890625 2.125 32.121094 2.019531 32.367188 C 1.914062 32.609375 1.84375 32.867188 1.800781 33.128906 C 1.761719 33.394531 1.753906 33.65625 1.777344 33.921875 C 1.800781 34.1875 1.855469 34.445312 1.945312 34.699219 C 2.03125 34.949219 2.152344 35.1875 2.296875 35.410156 C 2.445312 35.632812 2.617188 35.832031 2.8125 36.011719 C 3.007812 36.195312 3.222656 36.347656 3.457031 36.472656 C 3.691406 36.597656 3.9375 36.695312 4.195312 36.761719 C 4.453125 36.824219 4.714844 36.859375 4.980469 36.859375 C 5.246094 36.859375 5.507812 36.824219 5.765625 36.761719 C 6.023438 36.695312 6.269531 36.597656 6.503906 36.472656 C 6.738281 36.347656 6.953125 36.195312 7.148438 36.011719 C 7.34375 35.832031 7.515625 35.632812 7.664062 35.410156 C 7.808594 35.1875 7.925781 34.949219 8.015625 34.699219 C 8.105469 34.445312 8.160156 34.1875 8.183594 33.921875 C 8.207031 33.65625 8.199219 33.394531 8.160156 33.128906 C 8.117188 32.867188 8.046875 32.609375 7.941406 32.367188 C 7.835938 32.121094 7.707031 31.890625 7.542969 31.679688 C 7.382812 31.464844 7.199219 31.277344 6.992188 31.109375 C 6.785156 30.941406 6.5625 30.804688 6.320312 30.691406 C 6.078125 30.582031 5.828125 30.5 5.566406 30.453125 L 5.566406 28.339844 L 13.167969 28.339844 L 13.167969 30.6875 L 12.402344 30.6875 C 12.175781 30.6875 12.007812 30.785156 11.894531 30.980469 L 10.542969 33.328125 C 10.429688 33.523438 10.429688 33.722656 10.542969 33.917969 L 11.894531 36.265625 C 12.007812 36.460938 12.175781 36.558594 12.402344 36.558594 L 15.105469 36.558594 C 15.332031 36.558594 15.5 36.460938 15.613281 36.265625 L 16.964844 33.917969 C 17.078125 33.722656 17.078125 33.523438 16.964844 33.328125 L 15.613281 30.980469 C 15.5 30.785156 15.332031 30.6875 15.105469 30.6875 L 14.339844 30.6875 L 14.339844 28.339844 L 22.527344 28.339844 L 22.527344 30.6875 L 20.773438 30.6875 C 20.613281 30.6875 20.472656 30.746094 20.359375 30.859375 C 20.246094 30.972656 20.1875 31.113281 20.1875 31.273438 L 20.1875 35.972656 C 20.1875 36.132812 20.246094 36.273438 20.359375 36.386719 C 20.472656 36.5 20.613281 36.558594 20.773438 36.558594 L 25.453125 36.558594 C 25.613281 36.558594 25.753906 36.5 25.867188 36.386719 C 25.980469 36.273438 26.039062 36.132812 26.039062 35.972656 L 26.039062 31.273438 C 26.039062 31.113281 25.980469 30.972656 25.867188 30.859375 C 25.753906 30.746094 25.613281 30.6875 25.453125 30.6875 L 23.699219 30.6875 L 23.699219 28.339844 L 31.300781 28.339844 L 31.300781 30.839844 L 28.734375 36 C 28.6875 36.09375 28.667969 36.1875 28.671875 36.289062 C 28.675781 36.390625 28.707031 36.484375 28.757812 36.574219 C 28.8125 36.660156 28.882812 36.726562 28.972656 36.777344 C 29.058594 36.828125 29.152344 36.851562 29.253906 36.851562 L 34.519531 36.851562 C 34.742188 36.847656 34.90625 36.75 35.015625 36.558594 Z M 7.027344 33.625 C 7.027344 33.894531 6.976562 34.15625 6.871094 34.410156 C 6.769531 34.660156 6.621094 34.882812 6.429688 35.078125 C 6.234375 35.269531 6.015625 35.417969 5.765625 35.523438 C 5.511719 35.625 5.25 35.679688 4.980469 35.679688 C 4.707031 35.679688 4.449219 35.625 4.195312 35.523438 C 3.945312 35.417969 3.722656 35.269531 3.53125 35.078125 C 3.339844 34.882812 3.191406 34.660156 3.089844 34.410156 C 2.984375 34.15625 2.933594 33.894531 2.933594 33.625 C 2.933594 33.351562 2.984375 33.089844 3.089844 32.835938 C 3.191406 32.585938 3.339844 32.363281 3.53125 32.171875 C 3.722656 31.976562 3.945312 31.828125 4.195312 31.722656 C 4.449219 31.621094 4.707031 31.566406 4.980469 31.566406 C 5.25 31.566406 5.511719 31.621094 5.765625 31.722656 C 6.015625 31.828125 6.234375 31.976562 6.429688 32.171875 C 6.621094 32.363281 6.769531 32.585938 6.871094 32.835938 C 6.976562 33.089844 7.027344 33.351562 7.027344 33.625 Z M 14.765625 31.863281 L 15.777344 33.625 L 14.765625 35.382812 L 12.742188 35.382812 L 11.730469 33.625 L 12.742188 31.863281 Z M 24.867188 31.863281 L 24.867188 35.382812 L 21.359375 35.382812 L 21.359375 31.863281 Z M 30.203125 35.679688 L 31.886719 32.296875 L 33.570312 35.679688 Z M 30.203125 35.679688 " fill-opacity="1" fill-rule="nonzero"/></svg>