<svg xmlns="http://www.w3.org/2000/svg" xmlns:xlink="http://www.w3.org/1999/xlink" width="50" zoomAndPan="magnify" viewBox="0 0 37.5 37.499999" height="50" preserveAspectRatio="xMidYMid meet" version="1.0"><defs><clipPath id="1e727a2c5b"><path d="M 1.109375 2 L 35.15625 2 L 35.15625 36 L 1.109375 36 Z M 1.109375 2 " clip-rule="nonzero"/></clipPath></defs><g clip-path="url(#1e727a2c5b)"><path fill="#ff5757" d="M 15.507812 28.355469 C 15.726562 28.574219 15.726562 28.933594 15.507812 29.152344 C 15.285156 29.375 14.929688 29.375 14.707031 29.152344 L 13.941406 28.386719 C 13.71875 28.164062 13.71875 27.808594 13.941406 27.585938 C 14.160156 27.367188 14.519531 27.367188 14.738281 27.585938 Z M 11.648438 24.496094 C 11.867188 24.71875 11.867188 25.074219 11.648438 25.296875 C 11.425781 25.515625 11.070312 25.515625 10.847656 25.296875 L 10.601562 25.046875 L 10.425781 25.347656 C 10.269531 25.617188 9.925781 25.710938 9.65625 25.554688 C 9.386719 25.402344 9.296875 25.058594 9.449219 24.789062 L 9.96875 23.894531 C 10.128906 23.539062 10.601562 23.449219 10.878906 23.730469 Z M 18.285156 28.195312 C 18.207031 28.496094 17.898438 28.675781 17.597656 28.59375 C 17.296875 28.511719 17.117188 28.203125 17.195312 27.902344 L 17.476562 26.855469 C 17.558594 26.554688 17.867188 26.375 18.167969 26.453125 C 18.46875 26.535156 18.648438 26.84375 18.566406 27.144531 Z M 20.40625 20.289062 C 20.324219 20.589844 20.015625 20.769531 19.714844 20.6875 C 19.414062 20.609375 19.234375 20.296875 19.316406 19.996094 L 19.597656 18.949219 C 19.675781 18.648438 19.984375 18.46875 20.285156 18.550781 C 20.585938 18.628906 20.765625 18.9375 20.6875 19.238281 Z M 19.699219 22.921875 C 19.617188 23.226562 19.308594 23.402344 19.007812 23.324219 C 18.707031 23.242188 18.527344 22.933594 18.609375 22.632812 L 18.890625 21.585938 C 18.96875 21.28125 19.28125 21.105469 19.582031 21.183594 C 19.882812 21.265625 20.058594 21.574219 19.980469 21.875 Z M 24.675781 16.902344 C 24.976562 16.980469 25.15625 17.289062 25.074219 17.59375 C 24.996094 17.894531 24.6875 18.070312 24.386719 17.992188 L 23.335938 17.710938 C 23.035156 17.628906 22.855469 17.320312 22.9375 17.019531 C 23.019531 16.71875 23.328125 16.539062 23.628906 16.621094 Z M 22.042969 16.195312 C 22.34375 16.277344 22.519531 16.585938 22.441406 16.886719 C 22.359375 17.1875 22.050781 17.367188 21.75 17.285156 L 21.246094 17.148438 L 21.109375 17.652344 C 21.03125 17.953125 20.722656 18.132812 20.421875 18.050781 C 20.121094 17.972656 19.941406 17.664062 20.019531 17.363281 L 20.300781 16.3125 C 20.382812 16.011719 20.691406 15.832031 20.992188 15.914062 Z M 29.019531 16.070312 C 28.863281 16.339844 28.519531 16.433594 28.25 16.277344 C 27.980469 16.121094 27.886719 15.777344 28.042969 15.507812 L 28.585938 14.570312 C 28.738281 14.300781 29.082031 14.207031 29.351562 14.363281 C 29.621094 14.515625 29.714844 14.859375 29.558594 15.128906 Z M 30.382812 13.710938 C 30.226562 13.980469 29.882812 14.070312 29.613281 13.914062 C 29.34375 13.757812 29.25 13.414062 29.40625 13.144531 L 29.949219 12.203125 C 30.105469 11.933594 30.449219 11.84375 30.71875 12 C 30.988281 12.15625 31.082031 12.5 30.925781 12.769531 Z M 27.222656 16.929688 C 27.375 16.660156 27.722656 16.570312 27.992188 16.726562 C 28.261719 16.878906 28.351562 17.226562 28.195312 17.496094 L 27.652344 18.433594 C 27.523438 18.660156 27.261719 18.761719 27.019531 18.695312 L 25.972656 18.417969 C 25.671875 18.335938 25.492188 18.027344 25.570312 17.726562 C 25.652344 17.425781 25.960938 17.246094 26.261719 17.328125 L 26.894531 17.496094 Z M 31.800781 8.710938 C 32.582031 8.710938 33.214844 9.34375 33.214844 10.125 C 33.214844 10.90625 32.582031 11.535156 31.800781 11.535156 C 31.726562 11.535156 31.65625 11.53125 31.585938 11.519531 C 31.414062 11.644531 31.175781 11.664062 30.976562 11.550781 C 30.777344 11.4375 30.675781 11.222656 30.699219 11.007812 C 30.503906 10.765625 30.386719 10.457031 30.386719 10.125 C 30.386719 9.34375 31.019531 8.710938 31.800781 8.710938 Z M 7.421875 28.398438 C 7.355469 28.386719 7.28125 28.382812 7.210938 28.382812 C 6.429688 28.382812 5.796875 29.015625 5.796875 29.792969 C 5.796875 30.574219 6.429688 31.207031 7.210938 31.207031 C 7.988281 31.207031 8.621094 30.574219 8.621094 29.792969 C 8.621094 29.671875 8.605469 29.554688 8.578125 29.441406 L 12.1875 26.632812 L 12.777344 27.226562 C 13 27.445312 13.355469 27.445312 13.578125 27.226562 C 13.796875 27.003906 13.796875 26.648438 13.578125 26.425781 L 13.085938 25.933594 L 14.140625 25.113281 C 14.339844 25.222656 14.570312 25.285156 14.816406 25.285156 C 15.183594 25.285156 15.515625 25.144531 15.769531 24.914062 L 22.863281 28.09375 C 22.863281 28.101562 22.863281 28.105469 22.863281 28.109375 C 22.863281 28.890625 23.496094 29.523438 24.277344 29.523438 C 25.054688 29.523438 25.6875 28.890625 25.6875 28.109375 C 25.6875 27.914062 25.648438 27.730469 25.578125 27.558594 L 32.765625 19.992188 C 32.914062 20.046875 33.078125 20.078125 33.25 20.078125 C 34.027344 20.078125 34.660156 19.445312 34.660156 18.667969 C 34.660156 17.886719 34.027344 17.253906 33.25 17.253906 C 32.46875 17.253906 31.835938 17.886719 31.835938 18.667969 C 31.835938 18.863281 31.875 19.046875 31.949219 19.21875 L 24.761719 26.785156 C 24.609375 26.726562 24.445312 26.699219 24.277344 26.699219 C 23.910156 26.699219 23.574219 26.839844 23.324219 27.066406 L 19.097656 25.171875 L 19.273438 24.511719 C 19.355469 24.210938 19.175781 23.898438 18.875 23.820312 C 18.574219 23.738281 18.265625 23.917969 18.183594 24.21875 L 18.054688 24.707031 L 16.226562 23.886719 C 16.226562 23.882812 16.226562 23.878906 16.226562 23.871094 C 16.226562 23.089844 15.597656 22.460938 14.816406 22.460938 C 14.035156 22.460938 13.402344 23.089844 13.402344 23.871094 C 13.402344 23.992188 13.417969 24.109375 13.449219 24.222656 L 9.140625 27.578125 L 9.605469 26.773438 C 9.761719 26.503906 9.667969 26.160156 9.398438 26.003906 C 9.128906 25.847656 8.785156 25.941406 8.628906 26.207031 L 8.085938 27.148438 C 7.929688 27.417969 8.023438 27.761719 8.292969 27.917969 C 8.390625 27.976562 8.5 28 8.605469 27.992188 L 8.085938 28.398438 C 8.066406 28.386719 8.050781 28.375 8.03125 28.367188 C 7.835938 28.253906 7.597656 28.273438 7.421875 28.398438 Z M 17.875 29.546875 C 17.839844 29.332031 17.683594 29.148438 17.460938 29.089844 C 17.242188 29.03125 17.015625 29.113281 16.878906 29.28125 C 16.734375 29.296875 16.597656 29.332031 16.472656 29.390625 C 16.269531 29.3125 16.03125 29.355469 15.867188 29.515625 C 15.707031 29.679688 15.664062 29.917969 15.742188 30.117188 C 15.664062 30.292969 15.625 30.484375 15.625 30.683594 C 15.625 31.464844 16.253906 32.097656 17.035156 32.097656 C 17.816406 32.097656 18.449219 31.464844 18.449219 30.683594 C 18.449219 30.21875 18.222656 29.804688 17.875 29.546875 Z M 17.132812 3.917969 C 14.433594 3.917969 12.246094 6.105469 12.246094 8.808594 C 12.246094 11.507812 14.433594 13.695312 17.132812 13.695312 C 19.835938 13.695312 22.023438 11.507812 22.023438 8.808594 C 22.023438 6.105469 19.835938 3.917969 17.132812 3.917969 Z M 17.132812 2 C 13.375 2 10.324219 5.046875 10.324219 8.808594 C 10.324219 10.257812 10.78125 11.605469 11.554688 12.710938 C 10.84375 13.402344 10.132812 14.089844 9.421875 14.78125 L 9.34375 14.703125 C 9.109375 14.457031 8.714844 14.453125 8.46875 14.691406 L 4.730469 18.316406 C 4.484375 18.554688 4.480469 18.949219 4.71875 19.191406 L 6.066406 20.585938 C 6.304688 20.828125 6.699219 20.835938 6.941406 20.597656 L 10.679688 16.96875 C 10.925781 16.730469 10.933594 16.339844 10.695312 16.09375 L 10.617188 16.015625 L 12.710938 13.984375 C 13.902344 15 15.445312 15.617188 17.132812 15.617188 C 20.894531 15.617188 23.941406 12.566406 23.941406 8.808594 C 23.941406 5.046875 20.894531 2 17.132812 2 Z M 2.972656 34.03125 L 2.972656 2 L 1.109375 2 L 1.109375 35.894531 L 35.007812 35.894531 L 35.007812 34.03125 Z M 2.972656 34.03125 " fill-opacity="1" fill-rule="evenodd"/></g></svg>