<svg xmlns="http://www.w3.org/2000/svg" xmlns:xlink="http://www.w3.org/1999/xlink" width="50" zoomAndPan="magnify" viewBox="0 0 37.5 37.499999" height="50" preserveAspectRatio="xMidYMid meet" version="1.0"><defs><clipPath id="261002af4e"><path d="M 0.582031 1 L 36.109375 1 L 36.109375 36.15625 L 0.582031 36.15625 Z M 0.582031 1 " clip-rule="nonzero"/></clipPath></defs><g clip-path="url(#261002af4e)"><path fill="#000000" d="M 35.691406 32.160156 L 33.863281 32.160156 L 33.863281 14.671875 C 33.863281 13.460938 32.875 12.46875 31.65625 12.46875 L 25.527344 12.46875 L 25.527344 10.621094 L 27.71875 10.621094 C 27.925781 10.621094 28.09375 10.453125 28.09375 10.242188 L 28.09375 8.019531 C 29.667969 7.828125 30.890625 6.492188 30.890625 4.859375 C 30.730469 0.644531 24.707031 0.644531 24.546875 4.859375 C 24.546875 6.484375 25.769531 7.828125 27.34375 8.019531 L 27.34375 9.867188 L 25.15625 9.867188 C 24.949219 9.867188 24.78125 10.035156 24.78125 10.242188 L 24.78125 12.316406 L 24.238281 11.769531 C 23.917969 11.449219 23.410156 11.421875 23.070312 11.707031 L 22.132812 12.46875 L 20.703125 12.46875 L 20.515625 10.640625 C 20.460938 10.203125 20.09375 9.867188 19.648438 9.867188 L 18.703125 9.867188 L 18.703125 8.121094 C 20.523438 7.664062 20.21875 4.976562 18.324219 4.949219 C 16.425781 4.976562 16.125 7.667969 17.949219 8.121094 L 17.949219 9.867188 L 16.988281 9.867188 C 16.539062 9.867188 16.167969 10.203125 16.121094 10.648438 L 15.933594 12.46875 L 14.511719 12.46875 L 13.59375 11.707031 C 13.246094 11.414062 12.722656 11.441406 12.425781 11.765625 L 11.875 12.308594 L 11.875 10.238281 C 11.875 10.027344 11.707031 9.859375 11.5 9.859375 L 9.308594 9.859375 L 9.308594 8.019531 C 10.878906 7.828125 12.113281 6.492188 12.113281 4.859375 C 11.953125 0.644531 5.925781 0.644531 5.765625 4.859375 C 5.765625 6.484375 6.992188 7.828125 8.5625 8.019531 L 8.5625 10.238281 C 8.5625 10.445312 8.730469 10.613281 8.941406 10.613281 L 11.132812 10.613281 L 11.132812 12.460938 L 4.988281 12.460938 C 3.769531 12.460938 2.78125 13.453125 2.78125 14.667969 L 2.78125 32.160156 L 0.957031 32.160156 C 0.75 32.160156 0.582031 32.328125 0.582031 32.539062 C 0.582031 34.5 2.175781 36.09375 4.132812 36.09375 L 32.519531 36.09375 C 34.425781 36.136719 36.109375 34.449219 36.066406 32.539062 C 36.066406 32.328125 35.902344 32.160156 35.691406 32.160156 Z M 25.289062 4.863281 C 25.289062 3.527344 26.375 2.429688 27.71875 2.429688 C 30.925781 2.542969 30.925781 7.179688 27.71875 7.292969 C 26.375 7.292969 25.289062 6.203125 25.289062 4.863281 Z M 6.511719 4.863281 C 6.511719 3.527344 7.597656 2.429688 8.941406 2.429688 C 12.148438 2.542969 12.148438 7.179688 8.941406 7.292969 C 7.597656 7.292969 6.511719 6.203125 6.511719 4.863281 Z M 17.46875 6.558594 C 17.496094 5.421875 19.160156 5.421875 19.1875 6.558594 C 19.152344 7.691406 17.496094 7.691406 17.46875 6.558594 Z M 11.0625 14.183594 L 12.953125 12.292969 C 12.996094 12.253906 13.066406 12.253906 13.121094 12.292969 L 14.722656 13.597656 C 14.8125 13.667969 14.929688 13.695312 15.035156 13.675781 C 15.402344 13.515625 15.765625 13.3125 16.140625 13.203125 C 16.355469 13.132812 16.640625 13.074219 16.664062 12.796875 C 16.664062 12.796875 16.878906 10.726562 16.878906 10.726562 C 16.886719 10.660156 16.941406 10.613281 17.003906 10.613281 L 19.65625 10.613281 C 19.722656 10.613281 19.78125 10.660156 19.785156 10.726562 L 19.996094 12.796875 C 20.015625 13.074219 20.300781 13.132812 20.515625 13.203125 C 20.898438 13.304688 21.261719 13.542969 21.652344 13.683594 C 21.75 13.695312 21.851562 13.667969 21.9375 13.605469 L 23.550781 12.292969 C 23.597656 12.253906 23.667969 12.257812 23.71875 12.308594 L 24.523438 13.117188 C 24.523438 13.117188 25.597656 14.191406 25.597656 14.191406 C 25.644531 14.246094 25.636719 14.324219 25.589844 14.378906 L 24.296875 15.96875 C 24.199219 16.089844 24.183594 16.25 24.253906 16.382812 C 24.46875 16.785156 24.648438 17.210938 24.773438 17.652344 C 24.816406 17.796875 24.941406 17.902344 25.09375 17.917969 L 27.15625 18.132812 C 27.222656 18.140625 27.273438 18.195312 27.273438 18.265625 L 27.273438 20.929688 C 27.273438 20.992188 27.222656 21.050781 27.15625 21.050781 L 25.09375 21.265625 C 24.949219 21.277344 24.816406 21.382812 24.773438 21.53125 C 24.691406 21.816406 24.546875 22.207031 24.378906 22.542969 C 24.273438 22.75 24.101562 23.003906 24.289062 23.21875 L 25.597656 24.828125 C 25.644531 24.886719 25.617188 24.960938 25.589844 24.996094 L 23.710938 26.878906 C 23.660156 26.929688 23.59375 26.929688 23.542969 26.886719 L 21.929688 25.578125 C 21.8125 25.480469 21.652344 25.464844 21.519531 25.535156 C 21.117188 25.75 20.691406 25.933594 20.253906 26.058594 C 20.105469 26.097656 20.003906 26.226562 19.988281 26.378906 L 19.78125 28.4375 C 19.773438 28.507812 19.71875 28.5625 19.648438 28.5625 L 16.996094 28.5625 C 16.933594 28.5625 16.878906 28.511719 16.871094 28.441406 L 16.65625 26.378906 C 16.640625 26.230469 16.539062 26.097656 16.390625 26.058594 C 15.960938 25.925781 15.535156 25.75 15.125 25.535156 C 14.992188 25.464844 14.824219 25.480469 14.714844 25.578125 L 13.105469 26.886719 C 13.058594 26.929688 12.988281 26.921875 12.941406 26.875 L 11.0625 25.003906 C 11.011719 24.957031 11.007812 24.871094 11.046875 24.824219 L 12.355469 23.210938 C 12.453125 23.09375 12.46875 22.933594 12.398438 22.800781 C 12.1875 22.402344 11.992188 21.929688 11.882812 21.53125 C 11.839844 21.382812 11.714844 21.277344 11.5625 21.265625 L 9.496094 21.050781 C 9.433594 21.042969 9.382812 20.984375 9.382812 20.929688 L 9.382812 18.265625 C 9.382812 18.195312 9.433594 18.140625 9.503906 18.132812 L 11.570312 17.917969 C 11.722656 17.902344 11.847656 17.792969 11.890625 17.644531 C 12.007812 17.21875 12.183594 16.792969 12.40625 16.382812 C 12.472656 16.25 12.460938 16.082031 12.363281 15.96875 L 11.070312 14.367188 C 11.019531 14.316406 11.007812 14.234375 11.0625 14.183594 Z M 9.417969 21.78125 L 11.234375 21.96875 C 11.332031 22.261719 11.472656 22.605469 11.625 22.910156 L 10.464844 24.335938 C 10.191406 24.675781 10.210938 25.179688 10.527344 25.507812 L 12.40625 27.382812 C 12.71875 27.710938 13.230469 27.738281 13.582031 27.445312 L 14.992188 26.289062 C 15.300781 26.441406 15.613281 26.566406 15.933594 26.679688 L 16.121094 28.5 C 16.167969 28.953125 16.539062 29.289062 16.988281 29.289062 L 19.640625 29.289062 C 20.085938 29.289062 20.460938 28.953125 20.511719 28.5 L 20.699219 26.679688 C 21.019531 26.566406 21.332031 26.441406 21.636719 26.289062 L 23.058594 27.4375 C 23.40625 27.730469 23.90625 27.703125 24.234375 27.382812 L 26.117188 25.492188 C 26.425781 25.164062 26.445312 24.664062 26.167969 24.328125 L 25.011719 22.90625 C 25.164062 22.605469 25.3125 22.234375 25.402344 21.960938 L 27.210938 21.773438 C 27.65625 21.734375 28.003906 21.355469 28.003906 20.910156 L 28.003906 18.246094 C 28.003906 17.792969 27.664062 17.414062 27.21875 17.371094 L 25.402344 17.183594 C 25.289062 16.863281 25.164062 16.550781 25.011719 16.242188 L 26.078125 14.929688 L 31.390625 14.929688 L 31.390625 30.445312 L 5.246094 30.445312 L 5.246094 14.929688 L 10.5625 14.929688 L 11.625 16.242188 C 11.472656 16.550781 11.339844 16.863281 11.242188 17.183594 L 9.425781 17.371094 C 8.972656 17.421875 8.640625 17.796875 8.640625 18.246094 L 8.640625 20.910156 C 8.632812 21.355469 8.980469 21.738281 9.417969 21.78125 Z M 3.535156 14.671875 C 3.535156 13.871094 4.1875 13.222656 4.996094 13.222656 L 10.972656 13.222656 C 10.726562 13.480469 10.296875 13.800781 10.289062 14.191406 L 4.988281 14.191406 C 4.714844 14.191406 4.5 14.40625 4.5 14.679688 L 4.5 30.828125 C 4.5 31.039062 4.667969 31.207031 4.875 31.207031 L 31.773438 31.207031 C 31.984375 31.207031 32.152344 31.039062 32.152344 30.828125 L 32.152344 14.671875 C 32.152344 14.402344 31.929688 14.183594 31.664062 14.183594 L 26.367188 14.183594 C 26.363281 13.800781 25.929688 13.472656 25.6875 13.214844 L 31.664062 13.214844 C 32.46875 13.214844 33.125 13.871094 33.125 14.667969 L 33.125 32.160156 L 3.535156 32.160156 Z M 24.226562 32.914062 C 23.960938 33.425781 23.4375 33.757812 22.839844 33.757812 L 13.808594 33.757812 C 13.210938 33.757812 12.683594 33.425781 12.425781 32.914062 Z M 34.496094 34.527344 C 33.964844 35.054688 33.265625 35.347656 32.511719 35.347656 L 4.132812 35.347656 C 2.710938 35.347656 1.535156 34.289062 1.355469 32.914062 L 11.625 32.914062 C 11.929688 33.855469 12.800781 34.511719 13.808594 34.511719 L 22.835938 34.511719 C 23.84375 34.511719 24.710938 33.855469 25.019531 32.914062 L 35.289062 32.914062 C 35.210938 33.523438 34.941406 34.085938 34.496094 34.527344 Z M 27.898438 6.910156 L 29.386719 6.050781 C 29.507812 5.980469 29.578125 5.863281 29.578125 5.722656 L 29.578125 4 C 29.578125 3.867188 29.507812 3.742188 29.386719 3.671875 L 27.898438 2.808594 C 27.78125 2.738281 27.640625 2.738281 27.523438 2.808594 L 26.035156 3.671875 C 25.917969 3.742188 25.847656 3.859375 25.847656 4 L 25.847656 5.722656 C 25.847656 5.855469 25.917969 5.980469 26.035156 6.050781 L 27.523438 6.917969 C 27.628906 6.964844 27.738281 6.984375 27.851562 6.9375 C 27.871094 6.921875 27.886719 6.921875 27.898438 6.910156 Z M 28.832031 5.507812 L 28.085938 5.933594 L 28.085938 5.082031 C 28.171875 5.03125 28.761719 4.691406 28.832031 4.648438 Z M 27.34375 5.9375 L 26.597656 5.507812 L 26.597656 4.648438 C 26.730469 4.726562 27.21875 5.003906 27.34375 5.082031 Z M 27.675781 4.40625 L 26.972656 4 L 27.71875 3.566406 L 28.464844 4 C 28.28125 4.105469 27.90625 4.320312 27.71875 4.433594 Z M 15.527344 22.808594 C 18.234375 25.199219 22.632812 23.199219 22.597656 19.570312 C 22.597656 17.210938 20.683594 15.292969 18.324219 15.292969 C 14.414062 15.285156 12.578125 20.253906 15.527344 22.808594 Z M 18.320312 16.046875 C 21.554688 16.035156 23.078125 20.136719 20.628906 22.242188 C 18.394531 24.214844 14.769531 22.570312 14.804688 19.578125 C 14.8125 17.628906 16.382812 16.046875 18.320312 16.046875 Z M 10.796875 5.722656 L 10.796875 4 C 10.796875 3.867188 10.726562 3.742188 10.609375 3.671875 L 9.121094 2.808594 C 9.003906 2.738281 8.863281 2.738281 8.746094 2.808594 L 7.253906 3.671875 C 7.136719 3.742188 7.066406 3.859375 7.066406 4 L 7.066406 5.722656 C 7.066406 5.855469 7.136719 5.980469 7.253906 6.050781 C 7.351562 6.085938 8.863281 7.035156 8.933594 6.964844 C 8.996094 7.042969 10.519531 6.085938 10.609375 6.050781 C 10.726562 5.980469 10.796875 5.855469 10.796875 5.722656 Z M 8.5625 5.9375 L 7.820312 5.507812 L 7.820312 4.648438 L 8.5625 5.082031 Z M 8.941406 4.433594 C 8.8125 4.363281 8.328125 4.078125 8.195312 4 L 8.941406 3.566406 L 9.683594 4 C 9.496094 4.105469 9.121094 4.320312 8.941406 4.433594 Z M 10.050781 5.507812 L 9.308594 5.933594 L 9.308594 5.082031 C 9.390625 5.03125 9.984375 4.691406 10.050781 4.648438 Z M 10.050781 5.507812 " fill-opacity="1" fill-rule="nonzero"/></g></svg>