<svg xmlns="http://www.w3.org/2000/svg" xmlns:xlink="http://www.w3.org/1999/xlink" width="50" zoomAndPan="magnify" viewBox="0 0 37.5 37.499999" height="50" preserveAspectRatio="xMidYMid meet" version="1.0"><defs><clipPath id="9f27e89041"><path d="M 6 0.523438 L 34 0.523438 L 34 36.792969 L 6 36.792969 Z M 6 0.523438 " clip-rule="nonzero"/></clipPath><clipPath id="d1d834187d"><path d="M 28 7 L 36.769531 7 L 36.769531 11 L 28 11 Z M 28 7 " clip-rule="nonzero"/></clipPath><clipPath id="dba87cdb85"><path d="M 28 11 L 36.769531 11 L 36.769531 17 L 28 17 Z M 28 11 " clip-rule="nonzero"/></clipPath><clipPath id="36cbd6ed5a"><path d="M 0.503906 11 L 9 11 L 9 17 L 0.503906 17 Z M 0.503906 11 " clip-rule="nonzero"/></clipPath><clipPath id="121a152c38"><path d="M 0.503906 7 L 9 7 L 9 11 L 0.503906 11 Z M 0.503906 7 " clip-rule="nonzero"/></clipPath></defs><path fill="#00bf63" d="M 14.523438 9.628906 L 15.28125 9.828125 C 15.320312 9.945312 15.371094 10.066406 15.425781 10.179688 L 15.027344 10.859375 C 14.929688 11.023438 14.960938 11.238281 15.09375 11.375 L 15.714844 11.992188 C 15.847656 12.128906 16.058594 12.15625 16.230469 12.0625 L 16.910156 11.664062 C 17.023438 11.722656 17.140625 11.765625 17.261719 11.804688 L 17.460938 12.566406 C 17.511719 12.753906 17.675781 12.882812 17.875 12.882812 L 18.75 12.882812 C 18.945312 12.882812 19.113281 12.753906 19.164062 12.566406 L 19.363281 11.804688 C 19.484375 11.765625 19.601562 11.714844 19.714844 11.664062 L 20.394531 12.0625 C 20.558594 12.15625 20.777344 12.128906 20.910156 11.992188 L 21.53125 11.375 C 21.664062 11.238281 21.695312 11.03125 21.597656 10.859375 L 21.199219 10.179688 C 21.257812 10.066406 21.304688 9.945312 21.34375 9.828125 L 22.101562 9.628906 C 22.289062 9.578125 22.421875 9.414062 22.421875 9.214844 L 22.421875 8.34375 C 22.421875 8.148438 22.289062 7.980469 22.101562 7.929688 L 21.335938 7.730469 C 21.296875 7.609375 21.246094 7.492188 21.195312 7.378906 L 21.59375 6.699219 C 21.6875 6.535156 21.660156 6.316406 21.523438 6.183594 L 20.90625 5.5625 C 20.769531 5.429688 20.558594 5.398438 20.390625 5.496094 L 19.710938 5.894531 C 19.597656 5.835938 19.476562 5.792969 19.359375 5.75 L 19.160156 4.992188 C 19.109375 4.804688 18.945312 4.675781 18.746094 4.675781 L 17.867188 4.675781 C 17.675781 4.675781 17.503906 4.804688 17.453125 4.992188 L 17.253906 5.75 C 17.136719 5.792969 17.015625 5.84375 16.902344 5.894531 L 16.222656 5.496094 C 16.058594 5.398438 15.84375 5.429688 15.707031 5.5625 L 15.089844 6.183594 C 14.953125 6.316406 14.925781 6.527344 15.019531 6.699219 L 15.417969 7.378906 C 15.363281 7.492188 15.316406 7.609375 15.277344 7.730469 L 14.515625 7.929688 C 14.328125 7.980469 14.199219 8.144531 14.199219 8.34375 L 14.199219 9.214844 C 14.203125 9.414062 14.335938 9.578125 14.523438 9.628906 Z M 15.054688 8.671875 L 15.730469 8.496094 C 15.878906 8.457031 15.996094 8.34375 16.03125 8.1875 C 16.085938 7.980469 16.167969 7.773438 16.28125 7.589844 C 16.359375 7.457031 16.359375 7.292969 16.28125 7.15625 L 15.929688 6.554688 L 16.082031 6.402344 L 16.683594 6.753906 C 16.8125 6.835938 16.976562 6.835938 17.113281 6.753906 C 17.300781 6.648438 17.503906 6.5625 17.714844 6.503906 C 17.863281 6.464844 17.980469 6.351562 18.019531 6.199219 L 18.195312 5.523438 L 18.417969 5.523438 L 18.59375 6.199219 C 18.632812 6.347656 18.746094 6.464844 18.898438 6.503906 C 19.109375 6.5625 19.3125 6.640625 19.5 6.753906 C 19.628906 6.835938 19.796875 6.835938 19.929688 6.753906 L 20.53125 6.402344 L 20.683594 6.554688 L 20.332031 7.15625 C 20.253906 7.289062 20.253906 7.453125 20.332031 7.589844 C 20.441406 7.773438 20.527344 7.980469 20.582031 8.1875 C 20.621094 8.335938 20.734375 8.457031 20.882812 8.496094 L 21.558594 8.671875 L 21.558594 8.890625 L 20.882812 9.066406 C 20.734375 9.109375 20.617188 9.222656 20.582031 9.375 C 20.527344 9.582031 20.445312 9.789062 20.332031 9.976562 C 20.253906 10.105469 20.253906 10.269531 20.332031 10.40625 L 20.683594 11.007812 L 20.53125 11.160156 L 19.929688 10.808594 C 19.796875 10.730469 19.636719 10.730469 19.5 10.808594 C 19.3125 10.917969 19.109375 11 18.898438 11.058594 C 18.75 11.097656 18.632812 11.210938 18.59375 11.363281 L 18.417969 12.039062 L 18.195312 12.039062 L 18.019531 11.359375 C 17.980469 11.210938 17.867188 11.09375 17.714844 11.050781 C 17.503906 10.996094 17.300781 10.917969 17.113281 10.804688 C 16.984375 10.722656 16.820312 10.722656 16.683594 10.804688 L 16.082031 11.152344 L 15.929688 11 L 16.28125 10.398438 C 16.359375 10.269531 16.359375 10.105469 16.28125 9.96875 C 16.171875 9.78125 16.085938 9.578125 16.03125 9.367188 C 15.992188 9.222656 15.878906 9.101562 15.730469 9.0625 L 15.054688 8.886719 Z M 15.054688 8.671875 " fill-opacity="1" fill-rule="nonzero"/><path fill="#00bf63" d="M 18.308594 10.335938 C 19.164062 10.335938 19.863281 9.640625 19.863281 8.785156 C 19.863281 7.929688 19.164062 7.230469 18.308594 7.230469 C 17.453125 7.230469 16.757812 7.929688 16.757812 8.785156 C 16.757812 9.640625 17.453125 10.335938 18.308594 10.335938 Z M 18.308594 8.074219 C 18.695312 8.074219 19.011719 8.394531 19.011719 8.777344 C 19.011719 9.164062 18.695312 9.480469 18.308594 9.480469 C 17.917969 9.480469 17.605469 9.164062 17.605469 8.777344 C 17.605469 8.394531 17.925781 8.074219 18.308594 8.074219 Z M 18.308594 8.074219 " fill-opacity="1" fill-rule="nonzero"/><g clip-path="url(#9f27e89041)"><path fill="#00bf63" d="M 29.710938 19.316406 C 29.824219 18.746094 30.113281 16.941406 29.828125 14.824219 C 29.800781 14.613281 29.621094 14.453125 29.410156 14.453125 L 27.402344 14.453125 L 27.402344 2.832031 C 27.402344 2.140625 26.84375 1.574219 26.148438 1.574219 L 24.386719 1.574219 C 24.25 0.984375 23.722656 0.542969 23.089844 0.542969 L 11.8125 0.542969 C 10.394531 0.542969 9.246094 1.691406 9.246094 3.109375 L 9.246094 14.460938 L 7.367188 14.460938 C 7.167969 14.460938 6.992188 14.601562 6.953125 14.792969 C 6.699219 15.980469 6.601562 17.1875 6.675781 18.285156 C 6.835938 20.644531 7.957031 22.355469 9.101562 23.984375 C 9.121094 24.132812 9.210938 24.257812 9.335938 24.3125 C 9.339844 24.320312 9.339844 24.324219 9.347656 24.324219 C 10.457031 25.882812 11.5 27.351562 11.5 29.175781 C 11.5 31.222656 10.859375 33.542969 10.328125 35.128906 C 10.253906 35.351562 10.371094 35.59375 10.59375 35.667969 C 10.816406 35.742188 11.058594 35.625 11.132812 35.402344 C 11.6875 33.757812 12.351562 31.34375 12.351562 29.175781 C 12.351562 27.304688 11.457031 25.847656 10.417969 24.375 L 19.09375 24.566406 C 21.445312 24.617188 23.355469 26.574219 23.355469 28.921875 L 23.355469 33.417969 L 22.296875 35.871094 C 22.203125 36.089844 22.300781 36.335938 22.515625 36.433594 C 22.574219 36.457031 22.628906 36.46875 22.6875 36.46875 C 22.851562 36.46875 23.007812 36.371094 23.078125 36.210938 L 24.070312 33.910156 L 27.335938 33.910156 C 28.945312 33.910156 30.285156 32.703125 30.449219 31.105469 L 30.90625 26.644531 L 32.277344 26.066406 C 32.675781 25.894531 32.96875 25.566406 33.089844 25.152344 C 33.207031 24.738281 33.140625 24.300781 32.898438 23.945312 Z M 26.546875 2.832031 L 26.546875 14.453125 L 24.414062 14.453125 L 24.414062 2.421875 L 26.144531 2.421875 C 26.371094 2.421875 26.546875 2.605469 26.546875 2.832031 Z M 23.570312 1.878906 L 23.570312 1.992188 C 23.570312 2 23.570312 2 23.570312 2 C 23.570312 2 23.570312 2.003906 23.570312 2.003906 L 23.570312 14.453125 L 13.449219 14.453125 L 13.449219 1.390625 L 23.082031 1.390625 C 23.351562 1.390625 23.570312 1.605469 23.570312 1.878906 Z M 10.101562 3.109375 C 10.101562 2.164062 10.871094 1.390625 11.816406 1.390625 L 12.605469 1.390625 L 12.605469 14.453125 L 10.105469 14.453125 L 10.105469 3.109375 Z M 32.277344 24.902344 C 32.226562 25.066406 32.113281 25.203125 31.949219 25.269531 L 30.34375 25.953125 C 30.203125 26.015625 30.101562 26.144531 30.089844 26.296875 L 29.601562 31.007812 C 29.484375 32.175781 28.507812 33.054688 27.335938 33.054688 L 24.207031 33.054688 L 24.207031 28.921875 C 24.207031 26.109375 21.921875 23.773438 19.113281 23.71875 L 9.8125 23.511719 C 8.722656 21.976562 7.664062 20.367188 7.519531 18.230469 C 7.457031 17.3125 7.527344 16.3125 7.714844 15.308594 L 29.023438 15.308594 C 29.257812 17.503906 28.84375 19.296875 28.835938 19.3125 C 28.808594 19.429688 28.832031 19.550781 28.898438 19.652344 L 32.195312 24.421875 C 32.296875 24.5625 32.324219 24.738281 32.277344 24.902344 Z M 32.277344 24.902344 " fill-opacity="1" fill-rule="nonzero"/></g><path fill="#00bf63" d="M 18.171875 25.757812 C 15.972656 25.757812 14.183594 27.550781 14.183594 29.75 C 14.183594 31.949219 15.972656 33.742188 18.171875 33.742188 C 20.375 33.742188 22.164062 31.949219 22.164062 29.75 C 22.164062 27.550781 20.375 25.757812 18.171875 25.757812 Z M 18.171875 32.886719 C 16.445312 32.886719 15.03125 31.480469 15.03125 29.742188 C 15.03125 28.007812 16.4375 26.601562 18.171875 26.601562 C 19.910156 26.601562 21.308594 28.015625 21.308594 29.742188 C 21.308594 31.472656 19.902344 32.886719 18.171875 32.886719 Z M 18.171875 32.886719 " fill-opacity="1" fill-rule="nonzero"/><path fill="#00bf63" d="M 18.171875 27.90625 C 17.160156 27.90625 16.335938 28.730469 16.335938 29.742188 C 16.335938 30.757812 17.160156 31.582031 18.171875 31.582031 C 19.1875 31.582031 20.011719 30.757812 20.011719 29.742188 C 20.011719 28.730469 19.183594 27.90625 18.171875 27.90625 Z M 18.171875 30.734375 C 17.628906 30.734375 17.1875 30.292969 17.1875 29.75 C 17.1875 29.207031 17.628906 28.761719 18.171875 28.761719 C 18.71875 28.761719 19.160156 29.207031 19.160156 29.75 C 19.160156 30.292969 18.71875 30.734375 18.171875 30.734375 Z M 18.171875 30.734375 " fill-opacity="1" fill-rule="nonzero"/><path fill="#00bf63" d="M 29.058594 5.988281 L 31.570312 5.988281 C 31.683594 5.988281 31.792969 5.945312 31.871094 5.863281 L 33.496094 4.238281 C 33.71875 4.34375 33.960938 4.414062 34.230469 4.414062 C 35.136719 4.414062 35.878906 3.675781 35.878906 2.761719 C 35.878906 1.851562 35.140625 1.113281 34.230469 1.113281 C 33.320312 1.113281 32.578125 1.851562 32.578125 2.761719 C 32.578125 3.097656 32.679688 3.410156 32.855469 3.671875 L 31.394531 5.132812 L 29.058594 5.132812 C 28.828125 5.132812 28.632812 5.324219 28.632812 5.558594 C 28.632812 5.792969 28.828125 5.988281 29.058594 5.988281 Z M 34.230469 1.976562 C 34.671875 1.976562 35.027344 2.332031 35.027344 2.773438 C 35.027344 3.21875 34.671875 3.574219 34.230469 3.574219 C 33.785156 3.574219 33.429688 3.21875 33.429688 2.773438 C 33.429688 2.332031 33.785156 1.976562 34.230469 1.976562 Z M 34.230469 1.976562 " fill-opacity="1" fill-rule="nonzero"/><g clip-path="url(#d1d834187d)"><path fill="#00bf63" d="M 29.058594 9.085938 L 33.207031 9.085938 C 33.351562 9.851562 34.019531 10.429688 34.824219 10.429688 C 35.730469 10.429688 36.472656 9.691406 36.472656 8.777344 C 36.472656 7.867188 35.738281 7.128906 34.824219 7.128906 C 34.109375 7.128906 33.503906 7.59375 33.277344 8.234375 L 29.058594 8.234375 C 28.828125 8.234375 28.632812 8.425781 28.632812 8.660156 C 28.632812 8.890625 28.828125 9.085938 29.058594 9.085938 Z M 34.824219 7.984375 C 35.265625 7.984375 35.625 8.34375 35.625 8.785156 C 35.625 9.226562 35.265625 9.582031 34.824219 9.582031 C 34.382812 9.582031 34.023438 9.226562 34.023438 8.785156 C 34.023438 8.34375 34.386719 7.984375 34.824219 7.984375 Z M 34.824219 7.984375 " fill-opacity="1" fill-rule="nonzero"/></g><g clip-path="url(#dba87cdb85)"><path fill="#00bf63" d="M 34.609375 12.921875 C 34.25 12.921875 33.921875 13.042969 33.652344 13.234375 L 31.871094 11.453125 C 31.792969 11.375 31.683594 11.328125 31.570312 11.328125 L 29.058594 11.328125 C 28.828125 11.328125 28.632812 11.523438 28.632812 11.753906 C 28.632812 11.988281 28.828125 12.179688 29.058594 12.179688 L 31.394531 12.179688 L 33.113281 13.898438 C 33.023438 14.101562 32.964844 14.328125 32.964844 14.574219 C 32.964844 15.480469 33.703125 16.222656 34.613281 16.222656 C 35.523438 16.222656 36.265625 15.484375 36.265625 14.574219 C 36.265625 13.660156 35.523438 12.921875 34.609375 12.921875 Z M 34.609375 15.367188 C 34.167969 15.367188 33.808594 15.007812 33.808594 14.566406 C 33.808594 14.125 34.167969 13.769531 34.609375 13.769531 C 35.050781 13.769531 35.410156 14.125 35.410156 14.566406 C 35.410156 15.007812 35.050781 15.367188 34.609375 15.367188 Z M 34.609375 15.367188 " fill-opacity="1" fill-rule="nonzero"/></g><g clip-path="url(#36cbd6ed5a)"><path fill="#00bf63" d="M 7.890625 12.179688 C 8.121094 12.179688 8.316406 11.988281 8.316406 11.753906 C 8.316406 11.523438 8.121094 11.328125 7.890625 11.328125 L 5.378906 11.328125 C 5.265625 11.328125 5.15625 11.375 5.078125 11.453125 L 3.296875 13.234375 C 3.023438 13.042969 2.695312 12.921875 2.339844 12.921875 C 1.433594 12.921875 0.6875 13.660156 0.6875 14.574219 C 0.6875 15.484375 1.425781 16.222656 2.339844 16.222656 C 3.246094 16.222656 3.988281 15.484375 3.988281 14.574219 C 3.988281 14.335938 3.933594 14.101562 3.839844 13.898438 L 5.558594 12.179688 Z M 2.332031 15.367188 C 1.890625 15.367188 1.535156 15.007812 1.535156 14.566406 C 1.535156 14.125 1.890625 13.769531 2.332031 13.769531 C 2.777344 13.769531 3.132812 14.125 3.132812 14.566406 C 3.132812 15.007812 2.777344 15.367188 2.332031 15.367188 Z M 2.332031 15.367188 " fill-opacity="1" fill-rule="nonzero"/></g><path fill="#00bf63" d="M 2.71875 4.417969 C 2.980469 4.417969 3.230469 4.351562 3.449219 4.242188 L 5.078125 5.871094 C 5.15625 5.949219 5.265625 5.996094 5.378906 5.996094 L 7.890625 5.996094 C 8.121094 5.996094 8.316406 5.800781 8.316406 5.570312 C 8.316406 5.335938 8.121094 5.144531 7.890625 5.144531 L 5.554688 5.144531 L 4.089844 3.683594 C 4.265625 3.421875 4.367188 3.109375 4.367188 2.773438 C 4.367188 1.867188 3.632812 1.125 2.71875 1.125 C 1.8125 1.125 1.070312 1.863281 1.070312 2.773438 C 1.070312 3.6875 1.8125 4.417969 2.71875 4.417969 Z M 2.71875 1.976562 C 3.160156 1.976562 3.519531 2.332031 3.519531 2.773438 C 3.519531 3.21875 3.160156 3.574219 2.71875 3.574219 C 2.277344 3.574219 1.917969 3.21875 1.917969 2.773438 C 1.925781 2.332031 2.28125 1.976562 2.71875 1.976562 Z M 2.71875 1.976562 " fill-opacity="1" fill-rule="nonzero"/><g clip-path="url(#121a152c38)"><path fill="#00bf63" d="M 2.125 10.429688 C 2.929688 10.429688 3.597656 9.851562 3.738281 9.085938 L 7.890625 9.085938 C 8.121094 9.085938 8.316406 8.890625 8.316406 8.660156 C 8.316406 8.425781 8.121094 8.234375 7.890625 8.234375 L 3.671875 8.234375 C 3.445312 7.59375 2.839844 7.128906 2.125 7.128906 C 1.214844 7.128906 0.472656 7.867188 0.472656 8.777344 C 0.472656 9.691406 1.210938 10.429688 2.125 10.429688 Z M 2.125 7.984375 C 2.566406 7.984375 2.921875 8.34375 2.921875 8.785156 C 2.921875 9.226562 2.566406 9.582031 2.125 9.582031 C 1.679688 9.582031 1.324219 9.226562 1.324219 8.785156 C 1.324219 8.34375 1.679688 7.984375 2.125 7.984375 Z M 2.125 7.984375 " fill-opacity="1" fill-rule="nonzero"/></g></svg>