<svg xmlns="http://www.w3.org/2000/svg" xmlns:xlink="http://www.w3.org/1999/xlink" width="50" zoomAndPan="magnify" viewBox="0 0 37.5 37.499999" height="50" preserveAspectRatio="xMidYMid meet" version="1.0"><defs><clipPath id="be56f5b696"><path d="M 3 0 L 34 0 L 34 37.007812 L 3 37.007812 Z M 3 0 " clip-rule="nonzero"/></clipPath><clipPath id="175e86c820"><path d="M 21 0 L 37.007812 0 L 37.007812 23 L 21 23 Z M 21 0 " clip-rule="nonzero"/></clipPath></defs><path fill="#000000" d="M 15.417969 6.167969 L 21.585938 6.167969 L 21.585938 7.402344 L 15.417969 7.402344 Z M 15.417969 6.167969 " fill-opacity="1" fill-rule="nonzero"/><path fill="#000000" d="M 15.417969 8.636719 L 21.585938 8.636719 L 21.585938 9.867188 L 15.417969 9.867188 Z M 15.417969 8.636719 " fill-opacity="1" fill-rule="nonzero"/><g clip-path="url(#be56f5b696)"><path fill="#000000" d="M 33.921875 32.074219 L 33.921875 27.136719 C 33.921875 26.863281 33.742188 26.625 33.480469 26.546875 L 19.121094 22.359375 L 19.121094 14.800781 L 23.4375 14.800781 C 23.777344 14.800781 24.054688 14.527344 24.054688 14.1875 L 24.054688 4.316406 C 24.054688 4.152344 23.988281 3.996094 23.875 3.882812 L 20.171875 0.179688 C 20.058594 0.0664062 19.902344 0 19.738281 0 L 13.570312 0 C 13.226562 0 12.953125 0.277344 12.953125 0.617188 L 12.953125 14.1875 C 12.953125 14.527344 13.226562 14.800781 13.570312 14.800781 L 17.886719 14.800781 L 17.886719 22.359375 L 3.527344 26.546875 C 3.265625 26.625 3.082031 26.863281 3.082031 27.136719 L 3.082031 32.074219 C 3.082031 32.347656 3.265625 32.585938 3.527344 32.664062 L 18.332031 36.980469 C 18.386719 37 18.445312 37.007812 18.503906 37.007812 C 18.5625 37.007812 18.621094 37 18.675781 36.980469 L 33.480469 32.664062 C 33.742188 32.585938 33.921875 32.347656 33.921875 32.074219 Z M 20.355469 2.105469 L 21.949219 3.699219 L 20.355469 3.699219 Z M 14.1875 1.234375 L 19.121094 1.234375 L 19.121094 4.316406 C 19.121094 4.65625 19.394531 4.933594 19.738281 4.933594 L 22.820312 4.933594 L 22.820312 13.570312 L 14.1875 13.570312 Z M 17.886719 23.644531 L 17.886719 26.882812 L 16.472656 25.46875 L 15.601562 26.339844 L 18.066406 28.808594 C 18.1875 28.929688 18.34375 28.988281 18.503906 28.988281 C 18.660156 28.988281 18.820312 28.929688 18.9375 28.808594 L 21.40625 26.339844 L 20.535156 25.46875 L 19.121094 26.882812 L 19.121094 23.644531 L 31.101562 27.136719 L 18.503906 30.8125 L 5.902344 27.136719 Z M 4.316406 27.960938 L 17.886719 31.917969 L 17.886719 35.566406 L 4.316406 31.609375 Z M 19.121094 35.566406 L 19.121094 31.917969 L 32.6875 27.960938 L 32.6875 31.609375 Z M 19.121094 35.566406 " fill-opacity="1" fill-rule="nonzero"/></g><path fill="#000000" d="M 15.417969 3.699219 L 17.886719 3.699219 L 17.886719 4.933594 L 15.417969 4.933594 Z M 15.417969 3.699219 " fill-opacity="1" fill-rule="nonzero"/><path fill="#000000" d="M 0.617188 14.800781 L 4.933594 14.800781 C 4.933594 16.503906 6.316406 17.886719 8.019531 17.886719 L 9.867188 17.886719 C 10.886719 17.886719 11.71875 18.714844 11.71875 19.738281 L 11.71875 20.714844 L 10.304688 19.300781 L 9.433594 20.171875 L 11.898438 22.640625 C 12.019531 22.761719 12.175781 22.820312 12.335938 22.820312 C 12.492188 22.820312 12.652344 22.761719 12.773438 22.640625 L 15.238281 20.171875 L 14.367188 19.300781 L 12.953125 20.714844 L 12.953125 19.738281 C 12.953125 18.035156 11.570312 16.652344 9.867188 16.652344 L 8.019531 16.652344 C 6.996094 16.652344 6.167969 15.824219 6.167969 14.800781 L 10.484375 14.800781 C 10.828125 14.800781 11.101562 14.527344 11.101562 14.1875 L 11.101562 4.316406 C 11.101562 4.152344 11.039062 3.996094 10.921875 3.882812 L 7.21875 0.179688 C 7.105469 0.0664062 6.949219 0 6.785156 0 L 0.617188 0 C 0.277344 0 0 0.277344 0 0.617188 L 0 14.1875 C 0 14.527344 0.277344 14.800781 0.617188 14.800781 Z M 7.402344 2.105469 L 8.996094 3.699219 L 7.402344 3.699219 Z M 1.234375 1.234375 L 6.167969 1.234375 L 6.167969 4.316406 C 6.167969 4.65625 6.445312 4.933594 6.785156 4.933594 L 9.867188 4.933594 L 9.867188 13.570312 L 1.234375 13.570312 Z M 1.234375 1.234375 " fill-opacity="1" fill-rule="nonzero"/><path fill="#000000" d="M 2.46875 6.167969 L 8.636719 6.167969 L 8.636719 7.402344 L 2.46875 7.402344 Z M 2.46875 6.167969 " fill-opacity="1" fill-rule="nonzero"/><path fill="#000000" d="M 2.46875 8.636719 L 8.636719 8.636719 L 8.636719 9.867188 L 2.46875 9.867188 Z M 2.46875 8.636719 " fill-opacity="1" fill-rule="nonzero"/><path fill="#000000" d="M 2.46875 11.101562 L 8.636719 11.101562 L 8.636719 12.335938 L 2.46875 12.335938 Z M 2.46875 11.101562 " fill-opacity="1" fill-rule="nonzero"/><path fill="#000000" d="M 2.46875 3.699219 L 4.933594 3.699219 L 4.933594 4.933594 L 2.46875 4.933594 Z M 2.46875 3.699219 " fill-opacity="1" fill-rule="nonzero"/><g clip-path="url(#175e86c820)"><path fill="#000000" d="M 37.007812 14.1875 L 37.007812 4.316406 C 37.007812 4.152344 36.941406 3.996094 36.824219 3.882812 L 33.125 0.179688 C 33.011719 0.0664062 32.851562 0 32.6875 0 L 26.519531 0 C 26.179688 0 25.90625 0.277344 25.90625 0.617188 L 25.90625 14.1875 C 25.90625 14.527344 26.179688 14.800781 26.519531 14.800781 L 30.839844 14.800781 C 30.839844 15.824219 30.007812 16.652344 28.988281 16.652344 L 27.136719 16.652344 C 25.4375 16.652344 24.054688 18.035156 24.054688 19.738281 L 24.054688 20.714844 L 22.640625 19.300781 L 21.769531 20.171875 L 24.234375 22.640625 C 24.355469 22.761719 24.511719 22.820312 24.671875 22.820312 C 24.828125 22.820312 24.988281 22.761719 25.105469 22.640625 L 27.574219 20.171875 L 26.703125 19.300781 L 25.289062 20.714844 L 25.289062 19.738281 C 25.289062 18.714844 26.117188 17.886719 27.136719 17.886719 L 28.988281 17.886719 C 30.6875 17.886719 32.074219 16.503906 32.074219 14.800781 L 36.390625 14.800781 C 36.730469 14.800781 37.007812 14.527344 37.007812 14.1875 Z M 33.304688 2.105469 L 34.902344 3.699219 L 33.304688 3.699219 Z M 27.136719 13.570312 L 27.136719 1.234375 L 32.074219 1.234375 L 32.074219 4.316406 C 32.074219 4.65625 32.347656 4.933594 32.6875 4.933594 L 35.773438 4.933594 L 35.773438 13.570312 Z M 27.136719 13.570312 " fill-opacity="1" fill-rule="nonzero"/></g><path fill="#000000" d="M 28.371094 6.167969 L 34.539062 6.167969 L 34.539062 7.402344 L 28.371094 7.402344 Z M 28.371094 6.167969 " fill-opacity="1" fill-rule="nonzero"/><path fill="#000000" d="M 28.371094 8.636719 L 34.539062 8.636719 L 34.539062 9.867188 L 28.371094 9.867188 Z M 28.371094 8.636719 " fill-opacity="1" fill-rule="nonzero"/><path fill="#000000" d="M 28.371094 11.101562 L 34.539062 11.101562 L 34.539062 12.335938 L 28.371094 12.335938 Z M 28.371094 11.101562 " fill-opacity="1" fill-rule="nonzero"/><path fill="#000000" d="M 28.371094 3.699219 L 30.839844 3.699219 L 30.839844 4.933594 L 28.371094 4.933594 Z M 28.371094 3.699219 " fill-opacity="1" fill-rule="nonzero"/><path fill="#000000" d="M 15.417969 11.101562 L 16.652344 11.101562 L 16.652344 12.335938 L 15.417969 12.335938 Z M 15.417969 11.101562 " fill-opacity="1" fill-rule="nonzero"/><path fill="#000000" d="M 17.886719 11.101562 L 19.121094 11.101562 L 19.121094 12.335938 L 17.886719 12.335938 Z M 17.886719 11.101562 " fill-opacity="1" fill-rule="nonzero"/><path fill="#000000" d="M 20.355469 11.101562 L 21.585938 11.101562 L 21.585938 12.335938 L 20.355469 12.335938 Z M 20.355469 11.101562 " fill-opacity="1" fill-rule="nonzero"/></svg>