<svg xmlns="http://www.w3.org/2000/svg" xmlns:xlink="http://www.w3.org/1999/xlink" width="50" zoomAndPan="magnify" viewBox="0 0 37.5 37.499999" height="50" preserveAspectRatio="xMidYMid meet" version="1.0"><defs><clipPath id="12d48e70cd"><path d="M 0.546875 1.601562 L 36.8125 1.601562 L 36.8125 35.648438 L 0.546875 35.648438 Z M 0.546875 1.601562 " clip-rule="nonzero"/></clipPath></defs><g clip-path="url(#12d48e70cd)"><path fill="#00bf63" d="M 28.78125 20.558594 C 28.160156 20.558594 27.65625 20.054688 27.65625 19.433594 C 27.65625 18.8125 28.160156 18.308594 28.78125 18.308594 C 29.402344 18.308594 29.90625 18.8125 29.90625 19.433594 C 29.90625 20.054688 29.402344 20.558594 28.78125 20.558594 Z M 6.761719 25.328125 C 6.761719 25.949219 6.257812 26.457031 5.636719 26.457031 C 5.015625 26.457031 4.507812 25.949219 4.507812 25.328125 C 4.507812 24.707031 5.015625 24.203125 5.636719 24.203125 C 6.257812 24.203125 6.761719 24.707031 6.761719 25.328125 Z M 9.671875 20.082031 C 9.671875 19.457031 10.179688 18.953125 10.800781 18.953125 C 11.421875 18.953125 11.925781 19.457031 11.925781 20.082031 C 11.925781 20.703125 11.421875 21.207031 10.800781 21.207031 C 10.179688 21.207031 9.671875 20.703125 9.671875 20.082031 Z M 19.152344 24.394531 C 19.152344 25.015625 18.648438 25.523438 18.027344 25.523438 C 17.40625 25.523438 16.902344 25.015625 16.902344 24.394531 C 16.902344 23.773438 17.40625 23.269531 18.027344 23.269531 C 18.648438 23.269531 19.152344 23.773438 19.152344 24.394531 Z M 20.609375 17.078125 C 20.609375 16.457031 21.113281 15.953125 21.734375 15.953125 C 22.355469 15.953125 22.863281 16.457031 22.863281 17.078125 C 22.863281 17.699219 22.355469 18.203125 21.734375 18.203125 C 21.113281 18.203125 20.609375 17.699219 20.609375 17.078125 Z M 26.613281 28.539062 C 27.507812 28.539062 28.238281 27.808594 28.238281 26.914062 L 28.238281 21.582031 C 27.105469 21.292969 26.375 20.167969 26.609375 18.992188 L 23.65625 18.175781 C 23.183594 19 22.230469 19.449219 21.269531 19.242188 L 19.519531 22.761719 C 19.964844 23.167969 20.242188 23.75 20.242188 24.394531 C 20.242188 25.617188 19.25 26.609375 18.027344 26.609375 C 16.539062 26.609375 15.484375 25.171875 15.90625 23.761719 L 12.363281 21.648438 C 11.652344 22.355469 10.554688 22.5 9.683594 21.992188 L 7.527344 24.179688 C 8.417969 25.644531 7.367188 27.542969 5.636719 27.542969 C 4.414062 27.542969 3.421875 26.550781 3.421875 25.328125 C 3.421875 23.617188 5.289062 22.558594 6.753906 23.417969 L 8.90625 21.226562 C 8.015625 19.765625 9.070312 17.867188 10.800781 17.867188 C 12.277344 17.867188 13.34375 19.285156 12.921875 20.714844 L 16.464844 22.828125 C 17.007812 22.285156 17.796875 22.058594 18.5625 22.246094 L 20.292969 18.757812 C 19.820312 18.351562 19.519531 17.75 19.519531 17.078125 C 19.519531 15.855469 20.515625 14.863281 21.734375 14.863281 C 22.957031 14.863281 23.949219 15.855469 23.949219 17.078125 C 23.949219 17.09375 23.949219 17.109375 23.949219 17.125 L 27.097656 18 C 27.390625 17.65625 27.785156 17.402344 28.238281 17.289062 L 28.238281 12.929688 C 28.238281 12.035156 27.507812 11.304688 26.613281 11.304688 L 21.816406 11.304688 C 20.820312 14.144531 18.109375 16.1875 14.933594 16.1875 C 11.757812 16.1875 9.050781 14.144531 8.050781 11.304688 L 3.257812 11.304688 C 2.359375 11.304688 1.632812 12.035156 1.632812 12.929688 L 1.632812 26.914062 C 1.632812 27.808594 2.359375 28.539062 3.257812 28.539062 Z M 17.847656 31.632812 L 12.023438 31.632812 C 12.382812 31.039062 12.667969 30.359375 12.863281 29.625 L 17.007812 29.625 C 17.203125 30.359375 17.484375 31.039062 17.847656 31.632812 Z M 22.921875 34.316406 L 6.949219 34.316406 C 7.066406 33.328125 7.53125 32.71875 7.863281 32.71875 L 22.003906 32.71875 C 22.339844 32.71875 22.804688 33.328125 22.921875 34.316406 Z M 12.984375 3.007812 C 12.21875 4.3125 11.789062 6.359375 11.726562 8.390625 L 8.753906 8.390625 C 8.957031 5.871094 10.667969 3.777344 12.984375 3.007812 Z M 21.117188 8.398438 L 18.140625 8.398438 C 18.082031 6.359375 17.652344 4.3125 16.886719 3.007812 C 19.203125 3.777344 20.917969 5.878906 21.117188 8.398438 Z M 18.140625 9.410156 L 21.117188 9.414062 C 20.90625 11.925781 19.195312 14.015625 16.886719 14.78125 C 17.648438 13.480469 18.078125 11.441406 18.140625 9.410156 Z M 12.816406 9.410156 L 17.054688 9.410156 C 16.949219 12.949219 15.78125 15.097656 14.933594 15.097656 C 14.085938 15.097656 12.921875 12.945312 12.816406 9.410156 Z M 14.933594 2.691406 C 14.085938 2.691406 12.917969 4.847656 12.816406 8.394531 L 17.054688 8.394531 C 16.953125 4.847656 15.785156 2.691406 14.933594 2.691406 Z M 11.726562 9.40625 C 11.789062 11.4375 12.21875 13.476562 12.984375 14.78125 C 10.671875 14.015625 8.960938 11.921875 8.753906 9.40625 Z M 36.4375 11.691406 L 36.261719 8.335938 C 36.242188 7.945312 35.828125 7.707031 35.480469 7.875 L 32.46875 9.335938 C 32.199219 9.464844 32.085938 9.789062 32.21875 10.0625 C 32.347656 10.332031 32.671875 10.445312 32.945312 10.3125 L 34.253906 9.679688 L 29.460938 17.328125 C 29.414062 17.3125 29.371094 17.296875 29.324219 17.289062 L 29.324219 12.929688 C 29.324219 11.433594 28.109375 10.21875 26.613281 10.21875 L 22.105469 10.21875 C 22.929688 5.742188 19.484375 1.601562 14.933594 1.601562 C 10.382812 1.601562 6.941406 5.742188 7.761719 10.21875 L 3.257812 10.21875 C 1.761719 10.21875 0.542969 11.433594 0.542969 12.929688 L 0.542969 26.914062 C 0.542969 28.410156 1.761719 29.625 3.257812 29.625 L 11.730469 29.625 C 11.492188 30.394531 11.132812 31.085938 10.691406 31.632812 L 7.863281 31.632812 C 6.726562 31.632812 5.832031 33.019531 5.832031 34.792969 L 5.832031 34.859375 C 5.832031 35.160156 6.078125 35.402344 6.378906 35.402344 L 23.492188 35.402344 C 23.792969 35.402344 24.035156 35.160156 24.035156 34.859375 L 24.035156 34.792969 C 24.035156 33.019531 23.144531 31.632812 22.003906 31.632812 L 19.175781 31.632812 C 18.734375 31.085938 18.378906 30.394531 18.140625 29.625 L 26.613281 29.625 C 28.109375 29.625 29.324219 28.410156 29.324219 26.914062 L 29.324219 21.582031 C 30.964844 21.164062 31.550781 19.128906 30.378906 17.90625 L 35.265625 10.109375 L 35.351562 11.746094 C 35.367188 12.046875 35.613281 12.269531 35.925781 12.261719 C 36.222656 12.246094 36.457031 11.992188 36.4375 11.691406 Z M 36.4375 11.691406 " fill-opacity="1" fill-rule="evenodd"/></g></svg>