<svg xmlns="http://www.w3.org/2000/svg" xmlns:xlink="http://www.w3.org/1999/xlink" width="50" zoomAndPan="magnify" viewBox="0 0 37.5 37.499999" height="50" preserveAspectRatio="xMidYMid meet" version="1.0"><defs><clipPath id="e241bafc61"><path d="M 0.667969 0.667969 L 36.191406 0.667969 L 36.191406 36.191406 L 0.667969 36.191406 Z M 0.667969 0.667969 " clip-rule="nonzero"/></clipPath></defs><g clip-path="url(#e241bafc61)"><path fill="#000000" d="M 16.503906 1.632812 C 16.292969 1.421875 16.292969 1.082031 16.503906 0.871094 C 16.710938 0.664062 17.050781 0.664062 17.261719 0.871094 L 18.851562 2.46875 C 19.015625 2.6875 18.992188 2.988281 18.800781 3.175781 L 17.261719 4.71875 C 17.050781 4.925781 16.710938 4.925781 16.503906 4.71875 C 16.292969 4.507812 16.292969 4.167969 16.503906 3.957031 L 16.929688 3.53125 C 16.976562 3.484375 16.9375 3.402344 16.871094 3.410156 C 10.398438 4.074219 5.054688 8.851562 3.675781 15.203125 C 3.613281 15.492188 3.328125 15.675781 3.039062 15.613281 C 2.75 15.550781 2.566406 15.265625 2.628906 14.976562 C 4.121094 8.085938 9.980469 2.925781 17.023438 2.316406 C 17.082031 2.3125 17.109375 2.238281 17.066406 2.195312 Z M 9.167969 20.054688 L 9.167969 28.753906 C 9.167969 28.820312 9.246094 28.851562 9.292969 28.804688 L 10.394531 27.675781 C 11.113281 26.9375 12.023438 26.554688 13.046875 26.554688 L 20.339844 26.554688 C 21.382812 26.554688 22.242188 25.699219 22.242188 24.652344 L 22.242188 20.054688 C 22.242188 19.007812 21.382812 18.148438 20.339844 18.148438 L 11.070312 18.148438 C 10.027344 18.148438 9.167969 19.007812 9.167969 20.054688 Z M 17.453125 14.082031 L 17.453125 17.015625 C 17.453125 17.054688 17.484375 17.085938 17.523438 17.085938 L 20.339844 17.085938 C 21.921875 17.085938 23.222656 18.339844 23.300781 19.90625 C 23.304688 19.945312 23.335938 19.972656 23.375 19.972656 L 25.800781 19.972656 C 26.75 19.972656 27.59375 20.328125 28.257812 21.007812 L 29.175781 21.949219 C 29.222656 21.996094 29.296875 21.964844 29.296875 21.898438 L 29.296875 14.082031 C 29.296875 13.152344 28.535156 12.390625 27.605469 12.390625 L 19.144531 12.390625 C 18.214844 12.390625 17.453125 13.152344 17.453125 14.082031 Z M 26.996094 15.316406 L 20.976562 15.316406 C 20.679688 15.316406 20.441406 15.078125 20.441406 14.785156 C 20.441406 14.492188 20.679688 14.253906 20.976562 14.253906 L 26.996094 14.253906 C 27.289062 14.253906 27.527344 14.492188 27.527344 14.785156 C 27.527344 15.078125 27.289062 15.316406 26.996094 15.316406 Z M 24.324219 16.648438 L 26.996094 16.648438 C 27.289062 16.648438 27.527344 16.886719 27.527344 17.179688 C 27.527344 17.472656 27.289062 17.710938 26.996094 17.710938 L 24.324219 17.710938 C 24.03125 17.710938 23.792969 17.472656 23.792969 17.179688 C 23.792969 16.886719 24.03125 16.648438 24.324219 16.648438 Z M 17.199219 12.136719 C 17.695312 11.636719 18.386719 11.324219 19.144531 11.324219 L 21.664062 11.324219 C 21.707031 11.324219 21.738281 11.292969 21.738281 11.253906 L 21.738281 9.832031 C 21.738281 9.097656 21.136719 8.496094 20.402344 8.496094 L 14.8125 8.496094 C 13.996094 8.496094 13.265625 8.1875 12.691406 7.601562 L 12.085938 6.984375 C 12.042969 6.9375 11.964844 6.96875 11.964844 7.03125 L 11.964844 13.359375 C 11.964844 14.089844 12.566406 14.691406 13.300781 14.691406 L 16.316406 14.691406 C 16.355469 14.691406 16.386719 14.660156 16.386719 14.621094 L 16.386719 14.082031 C 16.386719 13.324219 16.699219 12.632812 17.199219 12.136719 Z M 17.230469 9.632812 L 13.671875 9.632812 C 13.378906 9.632812 13.140625 9.871094 13.140625 10.164062 C 13.140625 10.457031 13.378906 10.695312 13.671875 10.695312 L 17.230469 10.695312 C 17.527344 10.695312 17.765625 10.457031 17.765625 10.164062 C 17.765625 9.871094 17.527344 9.632812 17.230469 9.632812 Z M 13.671875 11.976562 C 13.378906 11.976562 13.140625 12.214844 13.140625 12.507812 C 13.140625 12.800781 13.378906 13.039062 13.671875 13.039062 L 15.25 13.039062 C 15.542969 13.039062 15.78125 12.800781 15.78125 12.507812 C 15.78125 12.214844 15.542969 11.976562 15.25 11.976562 Z M 11.640625 24.199219 C 11.640625 23.90625 11.878906 23.667969 12.171875 23.667969 L 15.46875 23.667969 C 15.761719 23.667969 16 23.90625 16 24.199219 C 16 24.492188 15.761719 24.730469 15.46875 24.730469 L 12.171875 24.730469 C 11.878906 24.730469 11.640625 24.492188 11.640625 24.199219 Z M 12.171875 21.492188 C 11.878906 21.492188 11.640625 21.253906 11.640625 20.960938 C 11.640625 20.667969 11.878906 20.429688 12.171875 20.429688 L 19.605469 20.429688 C 19.898438 20.429688 20.136719 20.667969 20.136719 20.960938 C 20.136719 21.253906 19.898438 21.492188 19.605469 21.492188 Z M 1.632812 20.347656 C 1.421875 20.558594 1.082031 20.558594 0.871094 20.347656 C 0.664062 20.136719 0.664062 19.796875 0.871094 19.589844 L 2.46875 17.996094 C 2.6875 17.832031 2.988281 17.855469 3.175781 18.050781 L 4.71875 19.589844 C 4.925781 19.796875 4.925781 20.136719 4.71875 20.347656 C 4.507812 20.558594 4.167969 20.558594 3.957031 20.347656 L 3.53125 19.921875 C 3.484375 19.875 3.402344 19.914062 3.410156 19.980469 C 4.074219 26.453125 8.851562 31.796875 15.203125 33.171875 C 15.492188 33.234375 15.675781 33.519531 15.613281 33.808594 C 15.550781 34.101562 15.265625 34.285156 14.976562 34.222656 C 8.085938 32.726562 2.925781 26.871094 2.316406 19.828125 C 2.3125 19.765625 2.238281 19.738281 2.195312 19.78125 Z M 32.132812 17.261719 C 31.921875 17.050781 31.921875 16.710938 32.132812 16.503906 C 32.34375 16.292969 32.683594 16.292969 32.890625 16.503906 L 33.316406 16.929688 C 33.363281 16.976562 33.445312 16.9375 33.441406 16.871094 C 32.777344 10.398438 27.996094 5.054688 21.648438 3.675781 C 21.359375 3.613281 21.175781 3.328125 21.238281 3.039062 C 21.300781 2.75 21.585938 2.566406 21.875 2.628906 C 28.761719 4.121094 33.925781 9.980469 34.53125 17.023438 C 34.539062 17.082031 34.609375 17.109375 34.652344 17.066406 L 35.21875 16.503906 C 35.429688 16.292969 35.769531 16.292969 35.976562 16.503906 C 36.1875 16.710938 36.1875 17.050781 35.976562 17.261719 L 34.378906 18.851562 C 34.164062 19.015625 33.863281 18.992188 33.671875 18.800781 Z M 19.589844 32.132812 C 19.796875 31.921875 20.136719 31.921875 20.347656 32.132812 C 20.558594 32.34375 20.558594 32.683594 20.347656 32.890625 L 19.921875 33.316406 C 19.875 33.363281 19.914062 33.445312 19.980469 33.441406 C 26.453125 32.777344 31.796875 27.996094 33.171875 21.648438 C 33.234375 21.359375 33.519531 21.175781 33.808594 21.238281 C 34.101562 21.300781 34.285156 21.585938 34.222656 21.875 C 32.726562 28.761719 26.871094 33.925781 19.828125 34.53125 C 19.765625 34.539062 19.738281 34.609375 19.78125 34.652344 L 20.347656 35.21875 C 20.558594 35.429688 20.558594 35.769531 20.347656 35.976562 C 20.136719 36.1875 19.796875 36.1875 19.589844 35.976562 L 17.996094 34.378906 C 17.832031 34.164062 17.855469 33.863281 18.050781 33.671875 Z M 19.589844 32.132812 " fill-opacity="1" fill-rule="evenodd"/></g></svg>