<svg xmlns="http://www.w3.org/2000/svg" xmlns:xlink="http://www.w3.org/1999/xlink" width="50" zoomAndPan="magnify" viewBox="0 0 37.5 37.499999" height="50" preserveAspectRatio="xMidYMid meet" version="1.0"><defs><clipPath id="746499fe92"><path d="M 1.28125 2.1875 L 36 2.1875 L 36 34.753906 L 1.28125 34.753906 Z M 1.28125 2.1875 " clip-rule="nonzero"/></clipPath></defs><g clip-path="url(#746499fe92)"><path fill="#ff5757" d="M 33.054688 26.964844 C 31.414062 25.324219 29.144531 24.304688 26.652344 24.304688 L 23.515625 24.304688 C 23.519531 24.261719 23.519531 24.21875 23.519531 24.179688 L 23.519531 22.675781 C 23.65625 22.554688 23.789062 22.433594 23.914062 22.304688 C 24.304688 21.917969 24.648438 21.488281 24.949219 21.027344 C 26.519531 20.847656 27.746094 20.296875 28.058594 18.839844 C 28.554688 18.742188 29.003906 18.496094 29.347656 18.152344 C 29.804688 17.695312 30.085938 17.066406 30.085938 16.375 L 30.085938 13.585938 C 30.085938 12.894531 29.804688 12.265625 29.347656 11.8125 L 29.3125 11.777344 C 29.011719 11.488281 28.640625 11.273438 28.230469 11.160156 C 28.230469 11.152344 28.230469 11.140625 28.230469 11.132812 C 28.230469 8.667969 27.160156 6.429688 25.433594 4.8125 C 23.714844 3.199219 21.347656 2.199219 18.746094 2.199219 L 18.253906 2.199219 C 15.65625 2.199219 13.289062 3.199219 11.570312 4.8125 C 9.84375 6.429688 8.769531 8.667969 8.769531 11.132812 C 8.769531 11.140625 8.769531 11.152344 8.773438 11.160156 C 8.34375 11.277344 7.960938 11.503906 7.65625 11.808594 L 7.652344 11.8125 C 7.199219 12.269531 6.914062 12.898438 6.914062 13.585938 L 6.914062 16.375 C 6.914062 17.046875 7.183594 17.660156 7.621094 18.117188 L 7.652344 18.152344 C 8.109375 18.605469 8.738281 18.890625 9.429688 18.890625 C 10.011719 18.890625 10.546875 18.6875 10.976562 18.355469 C 11.273438 19.878906 12.023438 21.246094 13.085938 22.304688 C 13.285156 22.503906 13.492188 22.691406 13.710938 22.867188 L 13.710938 24.179688 C 13.710938 24.222656 13.714844 24.261719 13.714844 24.304688 L 10.347656 24.304688 C 7.855469 24.304688 5.585938 25.324219 3.945312 26.96875 C 2.300781 28.609375 1.28125 30.875 1.28125 33.371094 L 1.28125 34.246094 C 1.28125 34.554688 1.527344 34.800781 1.835938 34.800781 L 35.164062 34.800781 C 35.472656 34.800781 35.71875 34.554688 35.71875 34.246094 L 35.71875 33.371094 C 35.71875 30.875 34.699219 28.609375 33.054688 26.964844 Z M 25.605469 19.761719 C 25.789062 19.308594 25.929688 18.839844 26.023438 18.351562 C 26.28125 18.554688 26.578125 18.707031 26.898438 18.796875 C 26.6875 19.285156 26.226562 19.582031 25.605469 19.761719 Z M 28.5625 12.59375 C 28.816406 12.851562 28.976562 13.199219 28.976562 13.585938 L 28.976562 16.375 C 28.976562 16.757812 28.816406 17.109375 28.5625 17.363281 C 28.304688 17.621094 27.957031 17.777344 27.570312 17.777344 C 27.183594 17.777344 26.832031 17.621094 26.578125 17.363281 L 26.574219 17.363281 C 26.324219 17.113281 26.164062 16.761719 26.164062 16.375 L 26.164062 13.585938 C 26.164062 13.199219 26.324219 12.847656 26.574219 12.59375 L 26.578125 12.59375 C 26.832031 12.339844 27.183594 12.183594 27.570312 12.183594 C 27.945312 12.183594 28.285156 12.328125 28.539062 12.570312 Z M 12.328125 5.617188 C 13.847656 4.191406 15.945312 3.308594 18.253906 3.308594 L 18.746094 3.308594 C 21.054688 3.308594 23.152344 4.191406 24.671875 5.617188 C 26.175781 7.03125 27.113281 8.976562 27.117188 11.113281 C 26.757812 11.179688 26.421875 11.324219 26.128906 11.53125 C 25.957031 9.707031 25.140625 8.066406 23.914062 6.835938 C 22.523438 5.449219 20.609375 4.585938 18.5 4.585938 C 16.390625 4.585938 14.472656 5.449219 13.085938 6.835938 C 11.855469 8.066406 11.039062 9.707031 10.867188 11.53125 C 10.578125 11.324219 10.242188 11.179688 9.878906 11.113281 C 9.886719 8.976562 10.820312 7.03125 12.328125 5.617188 Z M 25.003906 11.453125 C 23.695312 11.449219 22.4375 11.28125 21.234375 10.953125 C 19.859375 10.574219 18.542969 9.984375 17.292969 9.175781 C 17.078125 9.039062 16.789062 9.0625 16.601562 9.25 C 16.046875 9.804688 15.339844 10.269531 14.46875 10.636719 C 13.757812 10.941406 12.933594 11.179688 12.007812 11.359375 C 12.207031 9.910156 12.882812 8.609375 13.871094 7.621094 C 15.058594 6.433594 16.699219 5.695312 18.5 5.695312 C 20.304688 5.695312 21.941406 6.433594 23.128906 7.621094 C 24.140625 8.632812 24.820312 9.96875 25.003906 11.453125 Z M 9.429688 17.777344 C 9.042969 17.777344 8.691406 17.621094 8.4375 17.363281 L 8.414062 17.339844 C 8.171875 17.089844 8.027344 16.75 8.027344 16.375 L 8.027344 13.585938 C 8.027344 13.199219 8.183594 12.847656 8.4375 12.59375 C 8.691406 12.339844 9.042969 12.183594 9.429688 12.183594 C 9.820312 12.183594 10.167969 12.339844 10.421875 12.59375 C 10.675781 12.851562 10.835938 13.199219 10.835938 13.585938 L 10.835938 16.375 C 10.835938 16.757812 10.675781 17.109375 10.421875 17.363281 C 10.167969 17.621094 9.816406 17.777344 9.429688 17.777344 Z M 11.945312 16.890625 L 11.945312 12.5 C 13.058594 12.304688 14.042969 12.023438 14.902344 11.65625 C 15.742188 11.300781 16.460938 10.859375 17.058594 10.335938 C 18.292969 11.085938 19.585938 11.648438 20.945312 12.019531 C 22.261719 12.378906 23.628906 12.558594 25.054688 12.558594 L 25.054688 16.890625 C 25.054688 18 24.773438 19.046875 24.28125 19.964844 C 23.429688 20.023438 22.460938 19.988281 21.507812 19.949219 L 21.3125 19.945312 C 21.226562 19.660156 21.074219 19.402344 20.871094 19.195312 C 20.546875 18.863281 20.09375 18.65625 19.597656 18.65625 C 19.101562 18.65625 18.652344 18.863281 18.324219 19.195312 C 18.003906 19.527344 17.804688 19.980469 17.804688 20.480469 C 17.804688 20.980469 18.003906 21.4375 18.324219 21.765625 C 18.652344 22.101562 19.101562 22.308594 19.597656 22.308594 C 20.09375 22.308594 20.546875 22.101562 20.871094 21.765625 C 21.066406 21.566406 21.214844 21.324219 21.300781 21.050781 L 21.46875 21.058594 C 22.15625 21.085938 22.847656 21.109375 23.511719 21.105469 C 23.390625 21.25 23.261719 21.386719 23.128906 21.519531 C 21.941406 22.710938 20.304688 23.449219 18.5 23.449219 C 17.40625 23.449219 16.375 23.175781 15.464844 22.695312 C 15.164062 22.53125 14.875 22.34375 14.609375 22.136719 C 14.570312 22.109375 14.53125 22.085938 14.492188 22.066406 C 14.273438 21.898438 14.066406 21.714844 13.871094 21.519531 C 12.683594 20.332031 11.945312 18.691406 11.945312 16.890625 Z M 20.28125 20.480469 C 20.28125 20.683594 20.203125 20.863281 20.078125 20.992188 C 19.953125 21.121094 19.785156 21.195312 19.597656 21.195312 C 19.410156 21.195312 19.238281 21.121094 19.117188 20.992188 C 18.988281 20.863281 18.910156 20.683594 18.910156 20.480469 C 18.910156 20.28125 18.988281 20.097656 19.117188 19.96875 C 19.238281 19.84375 19.410156 19.765625 19.597656 19.765625 C 19.785156 19.765625 19.953125 19.84375 20.078125 19.96875 C 20.203125 20.097656 20.28125 20.28125 20.28125 20.480469 Z M 15.359375 23.878906 C 15.585938 23.984375 15.816406 24.078125 16.054688 24.160156 C 16.757812 24.402344 17.511719 24.539062 18.296875 24.554688 C 18.304688 24.554688 18.308594 24.554688 18.316406 24.554688 C 18.355469 24.554688 18.390625 24.558594 18.429688 24.558594 L 18.800781 24.558594 C 19.632812 24.558594 20.429688 24.417969 21.179688 24.160156 C 21.605469 24.015625 22.019531 23.828125 22.40625 23.605469 L 22.40625 24.179688 C 22.40625 25.191406 21.992188 26.109375 21.328125 26.773438 C 20.660156 27.441406 19.742188 27.855469 18.730469 27.855469 L 18.5 27.855469 C 17.488281 27.855469 16.570312 27.441406 15.902344 26.773438 C 15.238281 26.109375 14.824219 25.1875 14.824219 24.179688 L 14.824219 23.613281 C 15 23.707031 15.175781 23.796875 15.359375 23.878906 Z M 2.390625 33.371094 C 2.390625 31.183594 3.285156 29.195312 4.730469 27.75 C 6.171875 26.308594 8.160156 25.414062 10.347656 25.414062 L 13.875 25.414062 C 14.097656 26.234375 14.53125 26.972656 15.117188 27.558594 C 15.863281 28.300781 16.847656 28.804688 17.945312 28.933594 L 17.945312 33.691406 L 2.390625 33.691406 Z M 34.609375 33.691406 L 19.054688 33.691406 L 19.054688 28.953125 C 20.246094 28.875 21.316406 28.355469 22.113281 27.558594 C 22.699219 26.972656 23.132812 26.234375 23.355469 25.414062 L 26.652344 25.414062 C 28.839844 25.414062 30.828125 26.308594 32.269531 27.75 C 33.710938 29.195312 34.609375 31.183594 34.609375 33.371094 Z M 34.609375 33.691406 " fill-opacity="1" fill-rule="nonzero"/></g></svg>