<svg xmlns="http://www.w3.org/2000/svg" xmlns:xlink="http://www.w3.org/1999/xlink" width="50" zoomAndPan="magnify" viewBox="0 0 37.5 37.499999" height="50" preserveAspectRatio="xMidYMid meet" version="1.0"><defs><clipPath id="03664a3cda"><path d="M 34 12 L 35.304688 12 L 35.304688 22 L 34 22 Z M 34 12 " clip-rule="nonzero"/></clipPath><clipPath id="73d3a8599c"><path d="M 1.257812 4 L 23 4 L 23 32 L 1.257812 32 Z M 1.257812 4 " clip-rule="nonzero"/></clipPath><clipPath id="8a9e68e187"><path d="M 12 32 L 20 32 L 20 35.601562 L 12 35.601562 Z M 12 32 " clip-rule="nonzero"/></clipPath><clipPath id="b1ab279006"><path d="M 20 20 L 35.304688 20 L 35.304688 35.601562 L 20 35.601562 Z M 20 20 " clip-rule="nonzero"/></clipPath><clipPath id="5f38993a79"><path d="M 22 1.554688 L 35.304688 1.554688 L 35.304688 15 L 22 15 Z M 22 1.554688 " clip-rule="nonzero"/></clipPath></defs><g clip-path="url(#03664a3cda)"><path fill="#0097b2" d="M 34.875 12.828125 C 34.558594 12.828125 34.304688 13.085938 34.304688 13.398438 L 34.304688 20.554688 C 34.304688 20.867188 34.558594 21.125 34.875 21.125 C 35.1875 21.125 35.441406 20.867188 35.441406 20.554688 L 35.441406 13.398438 C 35.441406 13.085938 35.1875 12.828125 34.875 12.828125 Z M 34.875 12.828125 " fill-opacity="1" fill-rule="nonzero"/></g><g clip-path="url(#73d3a8599c)"><path fill="#0097b2" d="M 19.488281 30.613281 C 19.488281 30.296875 19.234375 30.042969 18.921875 30.042969 L 4.105469 30.042969 C 3.167969 30.042969 2.398438 29.273438 2.398438 28.332031 L 2.398438 26.625 L 18.921875 26.625 C 19.234375 26.625 19.488281 26.367188 19.488281 26.054688 C 19.488281 25.738281 19.234375 25.484375 18.921875 25.484375 L 2.398438 25.484375 L 2.398438 7.820312 C 2.398438 6.882812 3.167969 6.113281 4.105469 6.113281 L 21.53125 6.113281 C 21.84375 6.113281 22.097656 5.855469 22.097656 5.542969 C 22.097656 5.230469 21.84375 4.972656 21.53125 4.972656 L 4.105469 4.972656 C 2.535156 4.972656 1.257812 6.25 1.257812 7.820312 L 1.257812 28.332031 C 1.257812 29.90625 2.535156 31.179688 4.105469 31.179688 L 18.921875 31.179688 C 19.234375 31.179688 19.488281 30.925781 19.488281 30.613281 Z M 19.488281 30.613281 " fill-opacity="1" fill-rule="nonzero"/></g><g clip-path="url(#8a9e68e187)"><path fill="#0097b2" d="M 19.121094 34.597656 L 13.574219 34.597656 L 14.304688 33.148438 C 14.449219 32.867188 14.332031 32.527344 14.050781 32.382812 C 13.765625 32.242188 13.421875 32.355469 13.285156 32.640625 L 12.144531 34.917969 C 12.0625 35.09375 12.066406 35.304688 12.167969 35.472656 C 12.269531 35.636719 12.453125 35.738281 12.652344 35.738281 L 19.121094 35.738281 C 19.433594 35.738281 19.691406 35.484375 19.691406 35.167969 C 19.691406 34.855469 19.433594 34.597656 19.121094 34.597656 Z M 19.121094 34.597656 " fill-opacity="1" fill-rule="nonzero"/></g><g clip-path="url(#b1ab279006)"><path fill="#0097b2" d="M 33.734375 22.066406 L 32.023438 22.066406 L 32.023438 20.925781 C 32.023438 20.613281 31.769531 20.355469 31.453125 20.355469 C 31.140625 20.355469 30.886719 20.613281 30.886719 20.925781 L 30.886719 22.066406 L 25.1875 22.066406 L 25.1875 20.925781 C 25.1875 20.613281 24.929688 20.355469 24.617188 20.355469 C 24.304688 20.355469 24.046875 20.613281 24.046875 20.925781 L 24.046875 22.066406 L 22.339844 22.066406 C 21.398438 22.066406 20.628906 22.835938 20.628906 23.773438 L 20.628906 34.03125 C 20.628906 34.96875 21.398438 35.738281 22.339844 35.738281 L 33.734375 35.738281 C 34.675781 35.738281 35.441406 34.96875 35.441406 34.03125 L 35.441406 23.773438 C 35.441406 22.835938 34.675781 22.066406 33.734375 22.066406 Z M 22.339844 23.203125 L 33.734375 23.203125 C 34.046875 23.203125 34.304688 23.460938 34.304688 23.773438 L 34.304688 25.484375 L 21.769531 25.484375 L 21.769531 23.773438 C 21.769531 23.460938 22.027344 23.203125 22.339844 23.203125 Z M 33.734375 34.597656 L 22.339844 34.597656 C 22.027344 34.597656 21.769531 34.34375 21.769531 34.03125 L 21.769531 26.625 L 34.304688 26.625 L 34.304688 34.03125 C 34.304688 34.34375 34.046875 34.597656 33.734375 34.597656 Z M 33.734375 34.597656 " fill-opacity="1" fill-rule="nonzero"/></g><path fill="#0097b2" d="M 8.09375 17.507812 L 5.246094 17.507812 C 4.933594 17.507812 4.675781 17.761719 4.675781 18.078125 L 4.675781 22.636719 C 4.675781 22.949219 4.933594 23.203125 5.246094 23.203125 L 8.09375 23.203125 C 8.410156 23.203125 8.664062 22.949219 8.664062 22.636719 L 8.664062 18.078125 C 8.664062 17.761719 8.410156 17.507812 8.09375 17.507812 Z M 7.527344 22.066406 L 5.816406 22.066406 L 5.816406 18.648438 L 7.527344 18.648438 Z M 7.527344 22.066406 " fill-opacity="1" fill-rule="nonzero"/><path fill="#0097b2" d="M 10.375 23.203125 L 13.222656 23.203125 C 13.535156 23.203125 13.792969 22.949219 13.792969 22.636719 L 13.792969 14.660156 C 13.792969 14.34375 13.535156 14.089844 13.222656 14.089844 L 10.375 14.089844 C 10.0625 14.089844 9.804688 14.34375 9.804688 14.660156 L 9.804688 22.636719 C 9.804688 22.949219 10.0625 23.203125 10.375 23.203125 Z M 10.945312 15.226562 L 12.652344 15.226562 L 12.652344 22.066406 L 10.945312 22.066406 Z M 10.945312 15.226562 " fill-opacity="1" fill-rule="nonzero"/><path fill="#0097b2" d="M 15.5 15.796875 C 15.1875 15.796875 14.933594 16.054688 14.933594 16.367188 L 14.933594 22.636719 C 14.933594 22.949219 15.1875 23.203125 15.5 23.203125 L 18.351562 23.203125 C 18.664062 23.203125 18.921875 22.949219 18.921875 22.636719 L 18.921875 16.367188 C 18.921875 16.054688 18.664062 15.796875 18.351562 15.796875 Z M 17.78125 22.066406 L 16.070312 22.066406 L 16.070312 16.9375 L 17.78125 16.9375 Z M 17.78125 22.066406 " fill-opacity="1" fill-rule="nonzero"/><path fill="#0097b2" d="M 5.246094 8.960938 L 12.082031 8.960938 C 12.398438 8.960938 12.652344 8.703125 12.652344 8.390625 C 12.652344 8.078125 12.398438 7.820312 12.082031 7.820312 L 5.246094 7.820312 C 4.933594 7.820312 4.675781 8.078125 4.675781 8.390625 C 4.675781 8.703125 4.933594 8.960938 5.246094 8.960938 Z M 5.246094 8.960938 " fill-opacity="1" fill-rule="nonzero"/><path fill="#0097b2" d="M 12.652344 10.671875 C 12.652344 10.355469 12.398438 10.101562 12.082031 10.101562 L 5.246094 10.101562 C 4.933594 10.101562 4.675781 10.355469 4.675781 10.671875 C 4.675781 10.984375 4.933594 11.238281 5.246094 11.238281 L 12.082031 11.238281 C 12.398438 11.238281 12.652344 10.984375 12.652344 10.671875 Z M 12.652344 10.671875 " fill-opacity="1" fill-rule="nonzero"/><path fill="#0097b2" d="M 8.09375 12.378906 L 5.246094 12.378906 C 4.933594 12.378906 4.675781 12.636719 4.675781 12.949219 C 4.675781 13.261719 4.933594 13.519531 5.246094 13.519531 L 8.09375 13.519531 C 8.410156 13.519531 8.664062 13.261719 8.664062 12.949219 C 8.664062 12.636719 8.410156 12.378906 8.09375 12.378906 Z M 8.09375 12.378906 " fill-opacity="1" fill-rule="nonzero"/><g clip-path="url(#5f38993a79)"><path fill="#0097b2" d="M 29.175781 14.089844 C 32.632812 14.089844 35.441406 11.28125 35.441406 7.820312 C 35.441406 4.363281 32.632812 1.554688 29.175781 1.554688 C 25.71875 1.554688 22.910156 4.363281 22.910156 7.820312 C 22.910156 11.28125 25.71875 14.089844 29.175781 14.089844 Z M 29.175781 2.695312 C 32 2.695312 34.304688 4.996094 34.304688 7.820312 C 34.304688 10.648438 32 12.949219 29.175781 12.949219 C 26.351562 12.949219 24.046875 10.648438 24.046875 7.820312 C 24.046875 4.996094 26.351562 2.695312 29.175781 2.695312 Z M 29.175781 2.695312 " fill-opacity="1" fill-rule="nonzero"/></g><path fill="#0097b2" d="M 28.863281 8.292969 L 30.570312 9.433594 C 30.667969 9.496094 30.777344 9.53125 30.886719 9.53125 C 31.066406 9.53125 31.25 9.441406 31.359375 9.273438 C 31.535156 9.011719 31.460938 8.660156 31.199219 8.480469 L 29.746094 7.515625 L 29.746094 4.972656 C 29.746094 4.660156 29.488281 4.402344 29.175781 4.402344 C 28.863281 4.402344 28.605469 4.660156 28.605469 4.972656 L 28.605469 7.820312 C 28.605469 8.007812 28.703125 8.191406 28.863281 8.292969 Z M 28.863281 8.292969 " fill-opacity="1" fill-rule="nonzero"/><path fill="#0097b2" d="M 25.757812 27.761719 L 23.476562 27.761719 C 23.164062 27.761719 22.910156 28.019531 22.910156 28.332031 L 22.910156 30.613281 C 22.910156 30.925781 23.164062 31.179688 23.476562 31.179688 L 25.757812 31.179688 C 26.070312 31.179688 26.328125 30.925781 26.328125 30.613281 L 26.328125 28.332031 C 26.328125 28.019531 26.070312 27.761719 25.757812 27.761719 Z M 25.1875 30.042969 L 24.046875 30.042969 L 24.046875 28.902344 L 25.1875 28.902344 Z M 25.1875 30.042969 " fill-opacity="1" fill-rule="nonzero"/></svg>