<svg xmlns="http://www.w3.org/2000/svg" xmlns:xlink="http://www.w3.org/1999/xlink" width="50" zoomAndPan="magnify" viewBox="0 0 37.5 37.499999" height="50" preserveAspectRatio="xMidYMid meet" version="1.0"><defs><clipPath id="ccbddba42e"><path d="M 2.6875 0 L 34.515625 0 L 34.515625 37.007812 L 2.6875 37.007812 Z M 2.6875 0 " clip-rule="nonzero"/></clipPath></defs><g clip-path="url(#ccbddba42e)"><path fill="#ffbd59" d="M 24.566406 21.796875 C 23.785156 22.554688 22.46875 21.988281 22.488281 20.898438 C 22.507812 19.804688 23.839844 19.285156 24.59375 20.066406 C 25.0625 20.550781 25.050781 21.328125 24.566406 21.796875 Z M 23.703125 21.496094 C 24.21875 21.503906 24.492188 20.886719 24.132812 20.515625 C 23.769531 20.140625 23.140625 20.394531 23.132812 20.910156 C 23.128906 21.230469 23.382812 21.492188 23.703125 21.496094 Z M 14.347656 11.234375 C 13.859375 11.703125 13.085938 11.695312 12.617188 11.210938 C 12.152344 10.742188 12.152344 9.953125 12.636719 9.480469 L 12.636719 9.476562 C 13.101562 9.011719 13.894531 9.011719 14.371094 9.5 L 14.371094 9.496094 C 14.835938 9.964844 14.839844 10.757812 14.347656 11.234375 Z M 13.484375 10.9375 C 14.03125 10.945312 14.253906 10.277344 13.914062 9.957031 L 13.917969 9.957031 C 13.683594 9.714844 13.296875 9.722656 13.09375 9.933594 C 12.851562 10.164062 12.859375 10.550781 13.074219 10.753906 C 13.1875 10.871094 13.335938 10.933594 13.484375 10.9375 Z M 27.171875 15.363281 C 27.207031 16.453125 25.90625 17.039062 25.109375 16.296875 C 24.320312 15.554688 24.820312 14.214844 25.910156 14.179688 C 26.585938 14.15625 27.152344 14.6875 27.171875 15.363281 Z M 26.375 15.800781 C 26.726562 15.421875 26.445312 14.808594 25.933594 14.824219 C 25.417969 14.839844 25.175781 15.472656 25.550781 15.828125 C 25.785156 16.046875 26.152344 16.035156 26.375 15.800781 Z M 12.484375 15.832031 C 12.503906 16.511719 11.972656 17.078125 11.289062 17.09375 C 10.933594 17.082031 10.671875 16.996094 10.421875 16.761719 C 10.191406 16.546875 10.042969 16.242188 10.035156 15.898438 C 10.046875 15.546875 10.132812 15.28125 10.367188 15.03125 C 11.109375 14.238281 12.449219 14.742188 12.484375 15.832031 Z M 11.683594 16.265625 C 12.035156 15.890625 11.753906 15.273438 11.242188 15.289062 C 10.921875 15.296875 10.679688 15.546875 10.679688 15.898438 C 10.695312 16.214844 10.945312 16.449219 11.289062 16.449219 C 11.445312 16.441406 11.582031 16.375 11.683594 16.265625 Z M 24.703125 9.609375 C 25.160156 10.089844 25.152344 10.851562 24.679688 11.324219 C 24.203125 11.796875 23.425781 11.800781 22.945312 11.316406 C 22.46875 10.84375 22.46875 10.0625 22.949219 9.585938 L 22.949219 9.582031 C 23.425781 9.109375 24.203125 9.105469 24.683594 9.589844 C 24.691406 9.597656 24.699219 9.601562 24.703125 9.609375 Z M 24.394531 10.457031 C 24.394531 10.3125 24.335938 10.152344 24.226562 10.046875 C 24.003906 9.8125 23.617188 9.816406 23.40625 10.042969 C 23.175781 10.261719 23.179688 10.652344 23.402344 10.863281 C 23.625 11.09375 24.011719 11.089844 24.222656 10.863281 L 24.222656 10.867188 C 24.335938 10.757812 24.394531 10.601562 24.394531 10.457031 Z M 14.261719 19.953125 C 15.03125 20.726562 14.480469 22.046875 13.390625 22.042969 C 12.300781 22.039062 11.761719 20.714844 12.53125 19.949219 C 13.007812 19.472656 13.785156 19.472656 14.261719 19.953125 Z M 13.976562 20.820312 C 13.976562 20.304688 13.351562 20.042969 12.984375 20.40625 C 12.617188 20.773438 12.882812 21.398438 13.390625 21.398438 C 13.710938 21.402344 13.972656 21.140625 13.976562 20.820312 Z M 18.605469 7.058594 C 19.691406 7.058594 20.242188 8.382812 19.46875 9.152344 C 18.699219 9.925781 17.375 9.375 17.375 8.289062 C 17.375 7.609375 17.925781 7.058594 18.605469 7.058594 Z M 19.015625 7.878906 C 18.648438 7.511719 18.023438 7.773438 18.023438 8.289062 C 18.023438 8.804688 18.648438 9.0625 19.015625 8.699219 C 19.242188 8.472656 19.242188 8.101562 19.015625 7.878906 Z M 18.605469 21.757812 C 19.691406 21.757812 20.242188 23.082031 19.46875 23.851562 C 18.699219 24.625 17.375 24.074219 17.375 22.984375 C 17.375 22.308594 17.925781 21.757812 18.605469 21.757812 Z M 19.015625 22.574219 C 18.648438 22.210938 18.023438 22.46875 18.023438 22.984375 C 18.023438 23.5 18.648438 23.757812 19.015625 23.394531 C 19.242188 23.167969 19.242188 22.800781 19.015625 22.574219 Z M 15.59375 15.660156 C 15.574219 13.988281 16.914062 12.621094 18.582031 12.601562 C 20.253906 12.582031 21.621094 13.921875 21.640625 15.589844 C 21.660156 17.261719 20.320312 18.628906 18.648438 18.648438 C 16.980469 18.667969 15.613281 17.328125 15.59375 15.660156 Z M 16.917969 13.960938 C 15.996094 14.902344 16.015625 16.40625 16.953125 17.324219 C 17.894531 18.246094 19.398438 18.230469 20.316406 17.289062 C 21.234375 16.347656 21.222656 14.84375 20.28125 13.921875 C 19.339844 13.003906 17.835938 13.019531 16.917969 13.960938 Z M 13.4375 15.414062 C 13.4375 15.175781 13.460938 15 13.640625 14.820312 C 13.988281 14.464844 14.433594 14.695312 14.46875 14.558594 C 14.558594 14.203125 14.703125 13.847656 14.882812 13.527344 L 14.875 13.457031 L 14.671875 13.257812 C 14.398438 12.984375 14.390625 12.542969 14.664062 12.265625 L 14.675781 12.253906 L 14.257812 11.851562 C 13.953125 11.558594 14.402344 11.09375 14.707031 11.390625 L 15.121094 11.792969 C 15.28125 11.632812 15.433594 11.546875 15.65625 11.542969 C 16.15625 11.535156 16.304688 12.015625 16.425781 11.945312 C 16.746094 11.757812 17.089844 11.605469 17.449219 11.507812 C 17.585938 11.46875 17.339844 11.03125 17.691406 10.671875 C 17.847656 10.511719 18.019531 10.460938 18.246094 10.460938 L 18.242188 9.878906 C 18.238281 9.453125 18.882812 9.449219 18.886719 9.875 L 18.890625 10.453125 C 19.296875 10.449219 19.609375 10.757812 19.613281 11.148438 C 19.613281 11.28125 19.585938 11.460938 19.664062 11.480469 C 20.015625 11.570312 20.375 11.71875 20.695312 11.894531 C 20.816406 11.964844 20.957031 11.476562 21.457031 11.476562 C 21.601562 11.472656 21.753906 11.515625 21.875 11.609375 L 22.269531 11.183594 C 22.554688 10.875 23.027344 11.3125 22.738281 11.621094 L 22.339844 12.050781 L 22.472656 12.179688 L 22.472656 12.175781 C 22.746094 12.449219 22.75 12.894531 22.480469 13.171875 L 22.269531 13.40625 C 22.269531 13.417969 22.269531 13.429688 22.277344 13.441406 C 22.507812 13.824219 22.585938 14.054688 22.71875 14.46875 C 22.753906 14.589844 23.199219 14.363281 23.550781 14.703125 C 23.675781 14.824219 23.75 14.992188 23.761719 15.175781 L 24.339844 15.164062 C 24.761719 15.15625 24.777344 15.796875 24.351562 15.808594 L 23.769531 15.820312 C 23.773438 16.058594 23.75 16.234375 23.570312 16.414062 C 23.222656 16.773438 22.777344 16.539062 22.742188 16.675781 C 22.652344 17.03125 22.507812 17.386719 22.328125 17.707031 L 22.335938 17.777344 L 22.539062 17.976562 C 22.8125 18.246094 22.820312 18.691406 22.542969 18.972656 L 22.535156 18.980469 L 22.949219 19.382812 C 23.253906 19.679688 22.804688 20.140625 22.5 19.847656 L 22.085938 19.441406 L 22.042969 19.484375 C 21.769531 19.757812 21.328125 19.765625 21.050781 19.492188 L 20.816406 19.28125 C 20.808594 19.28125 20.792969 19.28125 20.78125 19.289062 C 20.464844 19.480469 20.121094 19.625 19.757812 19.726562 C 19.621094 19.765625 19.867188 20.203125 19.519531 20.5625 C 19.359375 20.726562 19.191406 20.773438 18.964844 20.777344 L 18.96875 21.359375 C 18.96875 21.78125 18.328125 21.785156 18.324219 21.359375 L 18.320312 20.785156 C 17.914062 20.789062 17.601562 20.480469 17.59375 20.085938 C 17.59375 19.953125 17.621094 19.773438 17.546875 19.753906 C 17.191406 19.664062 16.832031 19.519531 16.515625 19.339844 L 16.445312 19.347656 L 16.246094 19.550781 L 16.246094 19.554688 C 16 19.796875 15.609375 19.828125 15.332031 19.625 L 14.941406 20.050781 C 14.652344 20.359375 14.183594 19.921875 14.46875 19.613281 L 14.867188 19.183594 L 14.738281 19.054688 L 14.734375 19.054688 C 14.464844 18.785156 14.457031 18.339844 14.730469 18.0625 L 14.9375 17.832031 C 14.941406 17.820312 14.9375 17.804688 14.929688 17.792969 C 14.703125 17.410156 14.625 17.179688 14.492188 16.765625 C 14.453125 16.648438 14.011719 16.875 13.660156 16.53125 C 13.535156 16.410156 13.457031 16.242188 13.449219 16.058594 L 12.871094 16.070312 C 12.449219 16.082031 12.433594 15.4375 12.859375 15.429688 Z M 14.082031 15.3125 L 14.09375 16.03125 C 14.09375 16.183594 14.503906 15.957031 14.859375 16.222656 C 14.984375 16.316406 15.066406 16.441406 15.117188 16.597656 C 15.210938 16.921875 15.3125 17.171875 15.488281 17.464844 C 15.652344 17.742188 15.609375 18.082031 15.386719 18.3125 L 15.1875 18.515625 C 15.164062 18.542969 15.167969 18.574219 15.195312 18.597656 L 15.707031 19.101562 C 15.730469 19.121094 15.765625 19.121094 15.789062 19.09375 C 15.980469 18.902344 16.105469 18.734375 16.382812 18.691406 C 16.710938 18.644531 16.890625 18.835938 17.253906 18.984375 C 17.617188 19.128906 17.882812 19.113281 18.085938 19.375 C 18.359375 19.722656 18.140625 20.140625 18.300781 20.140625 L 19.015625 20.128906 C 19.167969 20.128906 18.941406 19.71875 19.207031 19.363281 C 19.300781 19.242188 19.429688 19.152344 19.582031 19.105469 C 19.902344 19.011719 20.160156 18.90625 20.449219 18.734375 C 20.726562 18.570312 21.070312 18.613281 21.300781 18.835938 L 21.503906 19.035156 C 21.527344 19.058594 21.5625 19.054688 21.585938 19.03125 L 22.085938 18.515625 C 22.109375 18.492188 22.105469 18.460938 22.082031 18.433594 C 21.890625 18.246094 21.71875 18.117188 21.679688 17.839844 C 21.632812 17.511719 21.824219 17.332031 21.96875 16.964844 C 22.113281 16.605469 22.101562 16.339844 22.359375 16.136719 C 22.707031 15.863281 23.128906 16.082031 23.125 15.925781 L 23.117188 15.207031 C 23.113281 15.054688 22.703125 15.28125 22.347656 15.011719 C 22.222656 14.921875 22.140625 14.796875 22.09375 14.640625 C 21.996094 14.3125 21.894531 14.066406 21.722656 13.773438 C 21.558594 13.496094 21.597656 13.152344 21.824219 12.925781 L 22.019531 12.71875 L 22.023438 12.71875 C 22.042969 12.695312 22.042969 12.664062 22.015625 12.636719 L 21.503906 12.136719 C 21.394531 12.027344 21.261719 12.480469 20.824219 12.546875 C 20.5 12.59375 20.316406 12.402344 19.953125 12.253906 C 19.589844 12.109375 19.328125 12.125 19.125 11.863281 C 18.847656 11.515625 19.070312 11.097656 18.910156 11.097656 L 18.195312 11.109375 C 18.039062 11.109375 18.265625 11.519531 18 11.875 C 17.800781 12.136719 17.539062 12.132812 17.179688 12.289062 C 16.820312 12.441406 16.640625 12.636719 16.316406 12.597656 C 15.878906 12.546875 15.734375 12.097656 15.625 12.203125 L 15.121094 12.722656 C 15.097656 12.746094 15.101562 12.78125 15.128906 12.804688 L 15.125 12.804688 C 15.320312 12.996094 15.488281 13.121094 15.527344 13.402344 C 15.578125 13.726562 15.386719 13.910156 15.242188 14.273438 C 15.097656 14.636719 15.109375 14.898438 14.847656 15.101562 C 14.496094 15.371094 14.082031 15.15625 14.082031 15.3125 Z M 24.980469 3.492188 L 24.980469 1.625 C 24.980469 1.089844 24.542969 0.648438 24.003906 0.648438 L 13.203125 0.648438 C 12.667969 0.648438 12.226562 1.089844 12.226562 1.625 L 12.226562 3.492188 Z M 11.582031 3.492188 L 11.582031 1.625 C 11.582031 0.734375 12.3125 0.00390625 13.203125 0.00390625 L 24.003906 0.00390625 C 24.898438 0.00390625 25.628906 0.734375 25.628906 1.625 L 25.628906 3.492188 L 30.589844 3.492188 C 32.75 3.492188 34.507812 5.257812 34.507812 7.414062 L 34.507812 23.859375 C 34.507812 26.015625 32.75 27.78125 30.589844 27.78125 L 21.230469 27.78125 C 21.441406 28.59375 21.796875 29.339844 22.292969 30.007812 C 22.851562 30.769531 23.601562 31.441406 24.53125 32.019531 L 27.414062 32.019531 C 28.789062 32.019531 29.910156 33.140625 29.910156 34.515625 C 29.910156 35.886719 28.789062 37.011719 27.414062 37.011719 L 9.792969 37.011719 C 8.417969 37.011719 7.296875 35.886719 7.296875 34.515625 C 7.296875 33.140625 8.417969 32.019531 9.792969 32.019531 L 12.675781 32.019531 C 13.605469 31.441406 14.355469 30.769531 14.917969 30.007812 C 15.414062 29.339844 15.765625 28.59375 15.980469 27.78125 L 6.617188 27.78125 C 4.460938 27.78125 2.699219 26.015625 2.699219 23.859375 L 2.699219 7.414062 C 2.699219 5.257812 4.460938 3.492188 6.617188 3.492188 Z M 27.414062 32.664062 L 9.792969 32.664062 C 8.167969 32.664062 7.3125 34.644531 8.488281 35.820312 C 8.820312 36.15625 9.285156 36.363281 9.792969 36.363281 L 27.414062 36.363281 C 29.039062 36.363281 29.894531 34.382812 28.722656 33.207031 C 28.386719 32.875 27.921875 32.664062 27.414062 32.664062 Z M 7.882812 6.242188 L 29.324219 6.242188 C 30.5 6.242188 31.484375 7.171875 31.484375 8.34375 L 31.484375 22.929688 C 31.484375 24.101562 30.5 25.03125 29.324219 25.03125 L 7.882812 25.03125 C 6.710938 25.03125 5.722656 24.101562 5.722656 22.929688 L 5.722656 8.34375 C 5.722656 7.171875 6.710938 6.242188 7.882812 6.242188 Z M 29.324219 6.886719 L 7.882812 6.886719 C 7.0625 6.886719 6.371094 7.527344 6.371094 8.34375 L 6.371094 22.929688 C 6.371094 23.742188 7.0625 24.386719 7.882812 24.386719 L 29.324219 24.386719 C 30.148438 24.386719 30.839844 23.742188 30.839844 22.929688 L 30.839844 8.34375 C 30.839844 7.527344 30.148438 6.886719 29.324219 6.886719 Z M 15.433594 30.394531 C 14.996094 30.988281 14.453125 31.527344 13.8125 32.019531 L 23.394531 32.019531 C 21.960938 30.925781 20.976562 29.523438 20.5625 27.78125 L 16.644531 27.78125 C 16.417969 28.738281 16.015625 29.609375 15.433594 30.394531 Z M 30.589844 4.140625 C 22.597656 4.140625 14.609375 4.140625 6.617188 4.140625 C 4.820312 4.140625 3.347656 5.613281 3.347656 7.414062 L 3.347656 23.859375 C 3.347656 25.660156 4.820312 27.132812 6.617188 27.132812 C 14.609375 27.132812 22.597656 27.132812 30.589844 27.132812 C 32.390625 27.132812 33.863281 25.660156 33.863281 23.859375 L 33.863281 7.414062 C 33.863281 5.613281 32.390625 4.140625 30.589844 4.140625 Z M 30.589844 4.140625 " fill-opacity="1" fill-rule="nonzero"/></g></svg>