<svg xmlns="http://www.w3.org/2000/svg" xmlns:xlink="http://www.w3.org/1999/xlink" width="50" zoomAndPan="magnify" viewBox="0 0 37.5 37.499999" height="50" preserveAspectRatio="xMidYMid meet" version="1.0"><defs><clipPath id="6ca21ec125"><path d="M 0.738281 1.035156 L 36 1.035156 L 36 36.5625 L 0.738281 36.5625 Z M 0.738281 1.035156 " clip-rule="nonzero"/></clipPath></defs><path fill="#0097b2" d="M 24.035156 24.898438 C 20.585938 24.898438 17.785156 22.09375 17.785156 18.648438 C 17.785156 15.203125 20.585938 12.398438 24.035156 12.398438 C 27.480469 12.398438 30.285156 15.203125 30.285156 18.648438 C 30.285156 22.09375 27.480469 24.898438 24.035156 24.898438 Z M 24.035156 11.261719 C 19.960938 11.261719 16.648438 14.578125 16.648438 18.648438 C 16.648438 22.722656 19.960938 26.035156 24.035156 26.035156 C 28.105469 26.035156 31.421875 22.722656 31.421875 18.648438 C 31.421875 14.578125 28.105469 11.261719 24.035156 11.261719 " fill-opacity="1" fill-rule="nonzero"/><path fill="#0097b2" d="M 9.261719 32.851562 C 8.949219 32.851562 8.695312 33.109375 8.695312 33.421875 C 8.695312 33.734375 8.949219 33.988281 9.261719 33.988281 C 9.574219 33.988281 9.832031 33.734375 9.832031 33.421875 C 9.832031 33.109375 9.574219 32.851562 9.261719 32.851562 " fill-opacity="1" fill-rule="nonzero"/><g clip-path="url(#6ca21ec125)"><path fill="#0097b2" d="M 32.824219 22.625 C 33.378906 21.410156 33.691406 20.066406 33.691406 18.648438 C 33.691406 13.324219 29.359375 8.992188 24.035156 8.992188 C 18.707031 8.992188 14.375 13.324219 14.375 18.648438 C 14.375 20.066406 14.691406 21.410156 15.242188 22.625 L 1.875 22.625 L 1.875 6.71875 L 34.828125 6.71875 L 34.828125 22.625 Z M 24.035156 27.171875 C 19.332031 27.171875 15.511719 23.347656 15.511719 18.648438 C 15.511719 13.949219 19.332031 10.125 24.035156 10.125 C 28.734375 10.125 32.558594 13.949219 32.558594 18.648438 C 32.558594 23.347656 28.734375 27.171875 24.035156 27.171875 Z M 16.648438 27.503906 L 15.179688 26.035156 L 16.515625 24.699219 C 16.953125 25.238281 17.445312 25.730469 17.984375 26.167969 Z M 15.511719 29.777344 L 12.90625 27.171875 L 13.808594 26.269531 L 16.414062 28.875 Z M 10.703125 34.585938 C 10.355469 34.933594 9.894531 35.125 9.398438 35.125 C 8.382812 35.125 7.558594 34.300781 7.558594 33.285156 C 7.558594 32.789062 7.75 32.328125 8.097656 31.980469 L 12.101562 27.976562 L 14.707031 30.582031 Z M 34.828125 2.171875 L 34.828125 5.582031 L 1.875 5.582031 L 1.875 2.171875 Z M 35.964844 1.035156 L 0.738281 1.035156 L 0.738281 23.761719 L 15.84375 23.761719 L 14.375 25.230469 L 13.808594 24.664062 L 7.292969 31.175781 C 6.730469 31.742188 6.421875 32.488281 6.421875 33.285156 C 6.421875 34.925781 7.757812 36.261719 9.398438 36.261719 C 10.195312 36.261719 10.945312 35.949219 11.507812 35.390625 L 18.019531 28.875 L 17.453125 28.308594 L 18.929688 26.832031 C 20.410156 27.761719 22.160156 28.308594 24.035156 28.308594 C 27.480469 28.308594 30.503906 26.484375 32.210938 23.761719 L 35.964844 23.761719 L 35.964844 1.035156 " fill-opacity="1" fill-rule="nonzero"/></g><path fill="#0097b2" d="M 4.148438 3.308594 L 3.011719 3.308594 L 3.011719 4.445312 L 4.148438 4.445312 L 4.148438 3.308594 " fill-opacity="1" fill-rule="nonzero"/><path fill="#0097b2" d="M 6.421875 3.308594 L 5.285156 3.308594 L 5.285156 4.445312 L 6.421875 4.445312 L 6.421875 3.308594 " fill-opacity="1" fill-rule="nonzero"/><path fill="#0097b2" d="M 8.695312 3.308594 L 7.558594 3.308594 L 7.558594 4.445312 L 8.695312 4.445312 L 8.695312 3.308594 " fill-opacity="1" fill-rule="nonzero"/><path fill="#0097b2" d="M 20.058594 21.488281 L 28.011719 21.488281 L 28.011719 20.351562 L 20.058594 20.351562 L 20.058594 21.488281 " fill-opacity="1" fill-rule="nonzero"/><path fill="#0097b2" d="M 21.195312 18.082031 L 20.058594 18.082031 L 20.058594 19.21875 L 21.195312 19.21875 L 21.195312 18.082031 " fill-opacity="1" fill-rule="nonzero"/><path fill="#0097b2" d="M 22.328125 18.082031 L 22.328125 19.21875 L 23.464844 19.21875 L 23.464844 18.082031 L 22.328125 18.082031 " fill-opacity="1" fill-rule="nonzero"/><path fill="#0097b2" d="M 24.601562 18.082031 L 24.601562 19.21875 L 25.738281 19.21875 L 25.738281 18.082031 L 24.601562 18.082031 " fill-opacity="1" fill-rule="nonzero"/><path fill="#0097b2" d="M 26.875 19.21875 L 28.011719 19.21875 L 28.011719 18.082031 L 26.875 18.082031 L 26.875 19.21875 " fill-opacity="1" fill-rule="nonzero"/><path fill="#0097b2" d="M 20.058594 16.945312 L 28.011719 16.945312 L 28.011719 15.808594 L 20.058594 15.808594 L 20.058594 16.945312 " fill-opacity="1" fill-rule="nonzero"/><path fill="#0097b2" d="M 13.238281 8.992188 L 12.101562 8.992188 L 12.101562 15.808594 L 10.96875 15.808594 L 10.96875 10.125 L 9.832031 10.125 L 9.832031 15.808594 L 8.695312 15.808594 L 8.695312 11.261719 L 7.558594 11.261719 L 7.558594 15.808594 L 6.421875 15.808594 L 6.421875 12.398438 L 5.285156 12.398438 L 5.285156 15.808594 L 4.148438 15.808594 L 4.148438 7.855469 L 3.011719 7.855469 L 3.011719 16.945312 L 14.375 16.945312 L 14.375 15.808594 L 13.238281 15.808594 L 13.238281 8.992188 " fill-opacity="1" fill-rule="nonzero"/></svg>