<svg xmlns="http://www.w3.org/2000/svg" xmlns:xlink="http://www.w3.org/1999/xlink" width="50" zoomAndPan="magnify" viewBox="0 0 37.5 37.499999" height="50" preserveAspectRatio="xMidYMid meet" version="1.0"><defs><clipPath id="7351063d67"><path d="M 1.386719 1.300781 L 35.433594 1.300781 L 35.433594 36.828125 L 1.386719 36.828125 Z M 1.386719 1.300781 " clip-rule="nonzero"/></clipPath></defs><g clip-path="url(#7351063d67)"><path fill="#000000" d="M 21.230469 34.507812 C 21.394531 34.640625 21.425781 34.878906 21.292969 35.046875 L 19.996094 36.683594 C 19.921875 36.777344 19.808594 36.828125 19.699219 36.828125 C 19.613281 36.828125 19.53125 36.800781 19.460938 36.746094 C 19.292969 36.613281 19.265625 36.375 19.398438 36.207031 L 20.15625 35.253906 C 19.585938 35.308594 19 35.34375 18.425781 35.351562 C 12.996094 35.351562 8.023438 32.859375 4.78125 28.519531 C 4.765625 28.5 4.761719 28.46875 4.746094 28.449219 C 2.625 25.566406 1.40625 22.050781 1.398438 18.363281 C 1.398438 18.15625 1.566406 17.980469 1.773438 17.980469 C 1.984375 17.980469 2.148438 18.148438 2.148438 18.359375 C 2.164062 24.136719 5.28125 29.527344 10.292969 32.417969 C 10.308594 32.425781 10.320312 32.445312 10.335938 32.453125 C 12.75 33.832031 15.515625 34.585938 18.417969 34.585938 C 18.945312 34.585938 19.46875 34.550781 19.992188 34.5 L 19.113281 33.804688 C 18.945312 33.671875 18.917969 33.4375 19.050781 33.269531 C 19.183594 33.101562 19.417969 33.074219 19.585938 33.207031 Z M 32.152344 8.292969 L 33.242188 8.574219 C 33.445312 8.621094 33.65625 8.503906 33.703125 8.300781 C 33.75 8.097656 33.632812 7.890625 33.429688 7.839844 L 31.414062 7.324219 C 31.210938 7.277344 31.003906 7.394531 30.953125 7.597656 L 30.4375 9.617188 C 30.390625 9.820312 30.507812 10.027344 30.710938 10.078125 C 30.738281 10.082031 30.773438 10.089844 30.800781 10.089844 C 30.96875 10.089844 31.121094 9.980469 31.167969 9.804688 L 31.46875 8.636719 C 33.550781 11.441406 34.65625 14.765625 34.664062 18.253906 L 34.664062 18.324219 C 34.664062 18.65625 34.648438 18.992188 34.628906 19.320312 C 34.621094 19.394531 34.613281 19.464844 34.613281 19.542969 C 34.59375 19.820312 34.566406 20.097656 34.53125 20.378906 C 34.523438 20.425781 34.515625 20.476562 34.511719 20.523438 C 33.828125 25.449219 30.910156 29.871094 26.546875 32.398438 C 26.367188 32.503906 26.304688 32.734375 26.40625 32.914062 C 26.476562 33.03125 26.601562 33.101562 26.734375 33.101562 C 26.796875 33.101562 26.867188 33.089844 26.921875 33.054688 C 30.097656 31.214844 32.535156 28.414062 33.96875 25.148438 C 33.996094 25.121094 34.015625 25.085938 34.03125 25.050781 C 34.644531 23.625 35.054688 22.132812 35.253906 20.609375 C 35.261719 20.566406 35.269531 20.523438 35.269531 20.480469 C 35.3125 20.183594 35.339844 19.875 35.359375 19.570312 C 35.367188 19.5 35.375 19.429688 35.375 19.359375 C 35.394531 19.011719 35.410156 18.65625 35.410156 18.300781 C 35.421875 14.6875 34.292969 11.234375 32.152344 8.292969 Z M 2.332031 12.429688 C 2.359375 12.527344 2.421875 12.613281 2.503906 12.660156 C 2.566406 12.695312 2.628906 12.714844 2.699219 12.714844 C 2.726562 12.714844 2.761719 12.710938 2.789062 12.703125 L 4.808594 12.1875 C 5.011719 12.136719 5.136719 11.929688 5.082031 11.726562 C 5.03125 11.527344 4.824219 11.398438 4.621094 11.457031 L 3.550781 11.726562 C 4.675781 9.179688 6.453125 6.949219 8.699219 5.277344 C 9.25 4.867188 9.820312 4.5 10.414062 4.164062 C 10.511719 4.109375 10.605469 4.058594 10.703125 4.003906 C 10.921875 3.890625 11.128906 3.773438 11.34375 3.667969 C 11.457031 3.613281 11.566406 3.570312 11.671875 3.515625 C 11.882812 3.425781 12.082031 3.328125 12.292969 3.246094 C 12.429688 3.1875 12.578125 3.132812 12.722656 3.085938 C 12.90625 3.015625 13.078125 2.953125 13.265625 2.890625 C 13.453125 2.828125 13.640625 2.769531 13.832031 2.714844 C 13.96875 2.671875 14.117188 2.632812 14.253906 2.589844 C 14.484375 2.527344 14.714844 2.480469 14.945312 2.429688 C 15.054688 2.410156 15.160156 2.382812 15.269531 2.359375 C 15.523438 2.3125 15.773438 2.269531 16.023438 2.234375 C 16.121094 2.222656 16.222656 2.199219 16.320312 2.1875 C 17.011719 2.09375 17.699219 2.054688 18.402344 2.054688 C 21.242188 2.054688 24.035156 2.800781 26.484375 4.199219 C 26.664062 4.304688 26.894531 4.242188 27 4.058594 C 27.105469 3.878906 27.042969 3.648438 26.859375 3.542969 C 24.304688 2.082031 21.382812 1.300781 18.410156 1.300781 C 17.75 1.300781 17.085938 1.34375 16.441406 1.421875 C 16.425781 1.421875 16.414062 1.414062 16.398438 1.414062 C 16.351562 1.421875 16.292969 1.425781 16.246094 1.433594 C 16.132812 1.449219 16.03125 1.46875 15.917969 1.484375 C 15.660156 1.515625 15.402344 1.558594 15.144531 1.609375 C 15.027344 1.628906 14.910156 1.664062 14.789062 1.683594 C 14.554688 1.734375 14.316406 1.789062 14.082031 1.851562 C 13.925781 1.894531 13.773438 1.941406 13.621094 1.984375 C 13.425781 2.039062 13.230469 2.09375 13.042969 2.160156 C 12.847656 2.222656 12.660156 2.296875 12.472656 2.367188 C 12.328125 2.421875 12.171875 2.480469 12.027344 2.535156 C 11.804688 2.625 11.59375 2.722656 11.378906 2.820312 C 11.261719 2.875 11.144531 2.925781 11.03125 2.980469 C 10.808594 3.085938 10.585938 3.203125 10.371094 3.320312 C 10.257812 3.378906 10.15625 3.433594 10.042969 3.496094 C 9.988281 3.53125 9.925781 3.558594 9.871094 3.585938 C 9.855469 3.59375 9.839844 3.605469 9.828125 3.621094 C 9.285156 3.933594 8.753906 4.277344 8.253906 4.652344 C 5.902344 6.40625 4.042969 8.738281 2.867188 11.40625 L 2.5625 10.203125 C 2.511719 10 2.304688 9.875 2.101562 9.929688 C 1.898438 9.980469 1.773438 10.1875 1.828125 10.390625 Z M 25.441406 13.195312 L 28.015625 13.195312 C 28.621094 13.195312 29.109375 13.683594 29.109375 14.285156 L 29.109375 15.601562 C 29.109375 15.808594 28.941406 15.976562 28.734375 15.976562 C 28.523438 15.976562 28.355469 15.808594 28.355469 15.601562 L 28.355469 14.285156 C 28.355469 14.101562 28.210938 13.957031 28.023438 13.957031 L 8.796875 13.957031 C 8.617188 13.957031 8.46875 14.101562 8.46875 14.285156 L 8.46875 22.015625 C 8.46875 22.222656 8.304688 22.390625 8.09375 22.390625 C 7.886719 22.390625 7.71875 22.222656 7.71875 22.015625 L 7.71875 14.285156 C 7.71875 13.683594 8.207031 13.195312 8.804688 13.195312 L 11.378906 13.195312 C 11.511719 12.882812 11.660156 12.578125 11.824219 12.292969 L 10.800781 11.269531 C 10.550781 11.011719 10.558594 10.621094 10.800781 10.371094 L 12.648438 8.523438 C 12.898438 8.273438 13.292969 8.28125 13.542969 8.523438 L 14.566406 9.546875 C 15.167969 9.191406 15.808594 8.929688 16.480469 8.753906 L 16.480469 7.3125 C 16.480469 6.964844 16.765625 6.679688 17.117188 6.679688 L 19.71875 6.679688 C 20.066406 6.679688 20.351562 6.964844 20.351562 7.3125 L 20.351562 8.753906 C 21.019531 8.929688 21.660156 9.191406 22.265625 9.546875 L 23.289062 8.523438 C 23.539062 8.273438 23.9375 8.28125 24.1875 8.523438 L 26.03125 10.371094 C 26.277344 10.613281 26.28125 11.011719 26.039062 11.261719 L 25.015625 12.285156 C 25.167969 12.578125 25.308594 12.882812 25.441406 13.195312 Z M 24.621094 13.195312 C 24.492188 12.933594 24.355469 12.675781 24.203125 12.4375 C 24.105469 12.285156 24.125 12.089844 24.25 11.964844 L 25.390625 10.820312 L 23.726562 9.15625 L 22.585938 10.300781 C 22.460938 10.425781 22.265625 10.445312 22.113281 10.347656 C 21.429688 9.910156 20.679688 9.597656 19.894531 9.429688 C 19.71875 9.394531 19.59375 9.234375 19.59375 9.058594 L 19.59375 7.4375 L 17.242188 7.4375 L 17.242188 9.058594 C 17.242188 9.242188 17.117188 9.394531 16.941406 9.429688 C 16.148438 9.597656 15.402344 9.910156 14.722656 10.347656 C 14.574219 10.445312 14.371094 10.425781 14.246094 10.300781 L 13.105469 9.15625 L 11.441406 10.820312 L 12.585938 11.964844 C 12.710938 12.089844 12.730469 12.285156 12.632812 12.4375 C 12.480469 12.683594 12.332031 12.933594 12.207031 13.195312 L 14.671875 13.195312 C 15.570312 12.054688 16.957031 11.371094 18.417969 11.371094 C 18.625 11.371094 18.792969 11.539062 18.792969 11.75 C 18.792969 11.957031 18.625 12.125 18.417969 12.125 C 17.40625 12.125 16.441406 12.515625 15.710938 13.191406 L 21.117188 13.191406 C 20.726562 12.835938 20.28125 12.550781 19.78125 12.367188 C 19.585938 12.296875 19.480469 12.082031 19.550781 11.878906 C 19.621094 11.6875 19.84375 11.582031 20.039062 11.652344 C 20.882812 11.957031 21.605469 12.488281 22.15625 13.191406 L 24.621094 13.191406 Z M 28.023438 27.605469 L 23.867188 27.605469 C 23.660156 27.605469 23.492188 27.441406 23.492188 27.230469 C 23.492188 27.023438 23.660156 26.855469 23.867188 26.855469 L 28.023438 26.855469 C 28.203125 26.855469 28.355469 26.707031 28.355469 26.527344 L 28.355469 25.390625 L 8.464844 25.390625 L 8.464844 26.527344 C 8.464844 26.707031 8.609375 26.855469 8.796875 26.855469 L 16.925781 26.855469 C 16.941406 26.855469 16.957031 26.847656 16.96875 26.847656 L 18.410156 26.855469 L 19.84375 26.847656 C 19.859375 26.847656 19.871094 26.855469 19.886719 26.855469 L 22.328125 26.855469 C 22.539062 26.855469 22.703125 27.023438 22.703125 27.230469 C 22.703125 27.441406 22.539062 27.605469 22.328125 27.605469 L 20.304688 27.605469 L 20.597656 29.175781 L 21.777344 29.175781 C 22.121094 29.175781 22.398438 29.453125 22.398438 29.792969 L 22.398438 30.816406 C 22.398438 31.160156 22.121094 31.4375 21.777344 31.4375 L 15.042969 31.4375 C 14.699219 31.4375 14.421875 31.160156 14.421875 30.816406 L 14.421875 29.792969 C 14.421875 29.453125 14.699219 29.175781 15.042969 29.175781 L 16.222656 29.175781 L 16.515625 27.605469 L 8.796875 27.605469 C 8.199219 27.605469 7.710938 27.121094 7.710938 26.519531 L 7.710938 25.003906 C 7.710938 25.003906 7.710938 24.996094 7.710938 24.996094 L 7.710938 23.429688 C 7.710938 23.21875 7.878906 23.050781 8.085938 23.050781 C 8.296875 23.050781 8.464844 23.21875 8.464844 23.429688 L 8.464844 24.625 L 28.351562 24.625 L 28.351562 17.460938 C 28.351562 17.25 28.515625 17.082031 28.726562 17.082031 C 28.933594 17.082031 29.101562 17.25 29.101562 17.460938 L 29.101562 25.007812 C 29.101562 25.007812 29.101562 25.015625 29.101562 25.015625 L 29.101562 26.527344 C 29.109375 27.121094 28.621094 27.605469 28.023438 27.605469 Z M 16.992188 29.179688 L 19.824219 29.179688 L 19.53125 27.613281 L 17.28125 27.613281 Z M 15.179688 29.941406 L 15.179688 30.683594 L 21.640625 30.683594 L 21.640625 29.941406 Z M 15.457031 16.921875 C 15.339844 16.75 15.109375 16.699219 14.9375 16.820312 L 11.164062 19.3125 C 11.058594 19.382812 10.996094 19.5 10.996094 19.625 C 10.996094 19.75 11.058594 19.871094 11.164062 19.9375 L 14.9375 22.433594 C 15 22.472656 15.074219 22.496094 15.144531 22.496094 C 15.269531 22.496094 15.390625 22.433594 15.457031 22.328125 C 15.578125 22.152344 15.527344 21.917969 15.355469 21.804688 L 12.0625 19.625 L 15.355469 17.445312 C 15.527344 17.335938 15.578125 17.097656 15.457031 16.921875 Z M 21.363281 22.328125 C 21.429688 22.4375 21.554688 22.496094 21.675781 22.496094 C 21.746094 22.496094 21.820312 22.472656 21.882812 22.433594 L 25.65625 19.9375 C 25.761719 19.871094 25.824219 19.75 25.824219 19.625 C 25.824219 19.5 25.761719 19.382812 25.65625 19.3125 L 21.882812 16.820312 C 21.710938 16.699219 21.472656 16.75 21.363281 16.921875 C 21.242188 17.097656 21.292969 17.335938 21.464844 17.445312 L 24.757812 19.625 L 21.464844 21.804688 C 21.292969 21.917969 21.242188 22.152344 21.363281 22.328125 Z M 19.488281 16.945312 L 16.671875 21.929688 C 16.566406 22.113281 16.628906 22.339844 16.816406 22.445312 C 16.871094 22.480469 16.941406 22.496094 17.003906 22.496094 C 17.136719 22.496094 17.261719 22.425781 17.332031 22.300781 L 20.152344 17.320312 C 20.253906 17.140625 20.191406 16.910156 20.003906 16.804688 C 19.824219 16.699219 19.59375 16.761719 19.488281 16.945312 Z M 19.488281 16.945312 " fill-opacity="1" fill-rule="nonzero"/></g></svg>