<svg xmlns="http://www.w3.org/2000/svg" xmlns:xlink="http://www.w3.org/1999/xlink" width="50" zoomAndPan="magnify" viewBox="0 0 37.5 37.499999" height="50" preserveAspectRatio="xMidYMid meet" version="1.0"><defs><clipPath id="b6da7ebb16"><path d="M 1.527344 0 L 35.574219 0 L 35.574219 37.007812 L 1.527344 37.007812 Z M 1.527344 0 " clip-rule="nonzero"/></clipPath></defs><g clip-path="url(#b6da7ebb16)"><path fill="#000000" d="M 29.410156 13.230469 C 29.59375 13.480469 29.535156 13.832031 29.285156 14.011719 L 27.082031 15.625 C 26.847656 15.796875 26.515625 15.757812 26.324219 15.535156 L 25.445312 14.511719 C 25.242188 14.277344 25.269531 13.921875 25.507812 13.722656 C 25.742188 13.519531 26.097656 13.546875 26.300781 13.78125 L 26.835938 14.410156 L 28.621094 13.109375 C 28.871094 12.925781 29.226562 12.980469 29.410156 13.230469 Z M 29.410156 8.824219 C 29.59375 9.074219 29.535156 9.425781 29.285156 9.609375 L 27.082031 11.21875 C 26.847656 11.394531 26.515625 11.355469 26.324219 11.132812 L 25.445312 10.109375 C 25.242188 9.871094 25.269531 9.519531 25.507812 9.316406 C 25.742188 9.117188 26.097656 9.144531 26.300781 9.378906 L 26.835938 10.007812 L 28.621094 8.707031 C 28.871094 8.523438 29.226562 8.578125 29.410156 8.824219 Z M 6.410156 10.242188 C 5.757812 10.242188 5.199219 9.832031 4.972656 9.261719 L 7.851562 9.261719 C 7.625 9.832031 7.0625 10.242188 6.410156 10.242188 Z M 6.410156 5.699219 L 7.613281 8.140625 L 5.207031 8.140625 Z M 15.847656 8.140625 L 13.441406 8.140625 L 14.644531 5.699219 Z M 14.644531 10.242188 C 13.992188 10.242188 13.429688 9.832031 13.203125 9.261719 L 16.082031 9.261719 C 15.855469 9.832031 15.296875 10.242188 14.644531 10.242188 Z M 13.578125 13.496094 C 13.578125 13.1875 13.328125 12.9375 13.015625 12.9375 L 11.089844 12.9375 L 11.089844 4.988281 L 13.742188 4.988281 L 12.035156 8.453125 C 11.996094 8.527344 11.976562 8.613281 11.976562 8.699219 C 11.976562 10.167969 13.171875 11.363281 14.644531 11.363281 C 16.113281 11.363281 17.3125 10.167969 17.3125 8.699219 C 17.3125 8.613281 17.289062 8.527344 17.257812 8.453125 L 15.148438 4.179688 C 15.054688 3.988281 14.859375 3.867188 14.644531 3.867188 L 6.410156 3.867188 C 6.195312 3.867188 6 3.988281 5.90625 4.179688 L 3.800781 8.453125 C 3.765625 8.527344 3.742188 8.613281 3.742188 8.699219 C 3.742188 10.167969 4.9375 11.363281 6.410156 11.363281 C 7.882812 11.363281 9.082031 10.167969 9.082031 8.699219 C 9.082031 8.613281 9.058594 8.527344 9.019531 8.453125 L 7.3125 4.988281 L 9.964844 4.988281 L 9.964844 12.9375 L 8.039062 12.9375 C 7.726562 12.9375 7.476562 13.1875 7.476562 13.496094 C 7.476562 13.808594 7.726562 14.058594 8.039062 14.058594 L 13.015625 14.058594 C 13.328125 14.058594 13.578125 13.808594 13.578125 13.496094 Z M 33.648438 28.011719 C 33.550781 28.359375 33.328125 28.648438 33.019531 28.828125 L 24.738281 33.546875 C 22.875 34.609375 22.085938 34.660156 19.996094 34.796875 C 16.785156 35.007812 13.671875 34.636719 10.503906 34.378906 C 10.464844 34.375 10.421875 34.378906 10.382812 34.382812 L 7.746094 34.730469 L 7.746094 27.96875 L 8.367188 27.96875 C 8.515625 27.96875 8.65625 27.917969 8.769531 27.820312 C 11.105469 25.753906 13.636719 25.558594 16.988281 27.179688 C 17.074219 27.21875 17.164062 27.238281 17.25 27.238281 L 22.914062 27.238281 C 24.109375 27.238281 24.710938 28.683594 23.871094 29.527344 L 16.929688 29.527344 C 16.597656 29.527344 16.328125 29.796875 16.328125 30.125 C 16.328125 30.457031 16.597656 30.726562 16.929688 30.726562 L 24.164062 30.71875 L 24.390625 30.644531 L 31.679688 26.492188 C 32.707031 25.90625 33.964844 26.851562 33.648438 28.011719 Z M 6.621094 35.671875 C 6.621094 35.789062 6.523438 35.886719 6.40625 35.886719 L 4.753906 35.886719 C 4.636719 35.886719 4.539062 35.789062 4.539062 35.671875 L 4.539062 26.941406 C 4.539062 26.824219 4.636719 26.726562 4.753906 26.726562 L 6.40625 26.726562 C 6.523438 26.726562 6.621094 26.824219 6.621094 26.941406 Z M 33.019531 25.210938 C 32.363281 25.03125 31.671875 25.117188 31.082031 25.453125 L 25.460938 28.660156 C 25.460938 28.632812 25.460938 28.609375 25.460938 28.582031 C 25.460938 27.183594 24.320312 26.042969 22.914062 26.042969 L 17.386719 26.042969 C 15.675781 25.230469 14.144531 24.863281 12.703125 24.914062 C 11.070312 24.976562 9.539062 25.601562 8.148438 26.773438 L 7.734375 26.773438 C 7.652344 26.113281 7.089844 25.601562 6.40625 25.601562 L 4.753906 25.601562 C 4.019531 25.601562 3.414062 26.203125 3.414062 26.941406 L 3.414062 35.671875 C 3.414062 36.40625 4.019531 37.007812 4.753906 37.007812 L 6.40625 37.007812 C 7.050781 37.007812 7.59375 36.550781 7.71875 35.941406 L 10.476562 35.578125 C 11.078125 35.625 11.679688 35.675781 12.265625 35.726562 C 14.867188 35.953125 17.375 36.164062 20.074219 35.992188 C 22.238281 35.851562 23.230469 35.785156 25.332031 34.585938 L 33.613281 29.867188 C 35.570312 28.75 35.214844 25.804688 33.019531 25.210938 Z M 29.410156 4.421875 C 29.59375 4.671875 29.535156 5.023438 29.285156 5.207031 L 27.082031 6.816406 C 26.847656 6.992188 26.515625 6.953125 26.324219 6.730469 L 25.445312 5.703125 C 25.242188 5.46875 25.269531 5.117188 25.507812 4.914062 C 25.742188 4.710938 26.097656 4.738281 26.300781 4.976562 L 26.835938 5.605469 L 28.621094 4.300781 C 28.871094 4.117188 29.226562 4.171875 29.410156 4.421875 Z M 33.753906 16.574219 C 34.007812 16.574219 34.214844 16.367188 34.214844 16.113281 L 34.214844 6.128906 L 32.011719 6.128906 C 31.136719 6.128906 30.421875 5.417969 30.421875 4.542969 L 30.421875 2.347656 L 24.648438 2.347656 C 24.394531 2.347656 24.1875 2.554688 24.1875 2.808594 L 24.1875 16.113281 C 24.1875 16.367188 24.394531 16.574219 24.648438 16.574219 Z M 31.546875 3.140625 L 33.417969 5.007812 L 32.011719 5.007812 C 31.757812 5.007812 31.546875 4.800781 31.546875 4.542969 Z M 2.664062 8.960938 C 2.664062 13.285156 6.1875 16.804688 10.527344 16.804688 C 14.863281 16.804688 18.394531 13.285156 18.394531 8.960938 C 18.394531 4.636719 14.863281 1.121094 10.527344 1.121094 C 6.1875 1.121094 2.664062 4.636719 2.664062 8.960938 Z M 35.171875 5.171875 L 31.378906 1.390625 C 31.277344 1.285156 31.136719 1.222656 30.984375 1.222656 L 24.648438 1.222656 C 23.777344 1.222656 23.0625 1.933594 23.0625 2.808594 L 23.0625 16.113281 C 23.0625 16.984375 23.777344 17.695312 24.648438 17.695312 L 28.761719 17.695312 L 28.761719 20.132812 L 11.089844 20.132812 L 11.089844 17.90625 C 15.785156 17.617188 19.515625 13.714844 19.515625 8.960938 C 19.515625 4.019531 15.484375 0 10.527344 0 C 5.570312 0 1.539062 4.019531 1.539062 8.960938 C 1.539062 13.714844 5.269531 17.617188 9.964844 17.90625 L 9.964844 20.691406 C 9.964844 21.003906 10.21875 21.253906 10.527344 21.253906 L 19.363281 21.253906 L 19.363281 24.640625 C 19.363281 24.953125 19.613281 25.203125 19.925781 25.203125 C 20.238281 25.203125 20.488281 24.953125 20.488281 24.640625 L 20.488281 21.253906 L 29.328125 21.253906 C 29.640625 21.253906 29.890625 21.003906 29.890625 20.691406 L 29.890625 17.695312 L 33.753906 17.695312 C 34.625 17.695312 35.339844 16.984375 35.339844 16.113281 L 35.339844 5.566406 C 35.339844 5.417969 35.28125 5.277344 35.171875 5.171875 Z M 35.171875 5.171875 " fill-opacity="1" fill-rule="evenodd"/></g></svg>