<svg xmlns="http://www.w3.org/2000/svg" xmlns:xlink="http://www.w3.org/1999/xlink" width="50" zoomAndPan="magnify" viewBox="0 0 37.5 37.499999" height="50" preserveAspectRatio="xMidYMid meet" version="1.0"><defs><clipPath id="89d2ce224c"><path d="M 15 0.597656 L 33 0.597656 L 33 9 L 15 9 Z M 15 0.597656 " clip-rule="nonzero"/></clipPath><clipPath id="74c50aa3a7"><path d="M 14.082031 17.527344 L 34.402344 17.527344 L 34.402344 30.644531 L 14.082031 30.644531 Z M 14.082031 17.527344 " clip-rule="nonzero"/></clipPath><clipPath id="9e5f20c54e"><path d="M 8.636719 20.613281 L 24.292969 20.613281 L 24.292969 36.125 L 8.636719 36.125 Z M 8.636719 20.613281 " clip-rule="nonzero"/></clipPath><clipPath id="d56a1609f2"><path d="M 2.589844 21 L 16 21 L 16 34 L 2.589844 34 Z M 2.589844 21 " clip-rule="nonzero"/></clipPath></defs><g clip-path="url(#89d2ce224c)"><path fill="#373435" d="M 16.671875 7.621094 C 16.65625 7.828125 16.476562 7.980469 16.269531 7.964844 C 16.066406 7.949219 15.910156 7.773438 15.925781 7.566406 C 15.988281 6.726562 16.1875 5.914062 16.519531 5.160156 C 16.84375 4.425781 17.292969 3.742188 17.875 3.136719 C 19.375 1.578125 21.449219 0.769531 23.558594 0.660156 C 24.761719 0.597656 25.976562 0.757812 27.101562 1.136719 C 28.230469 1.519531 29.273438 2.117188 30.125 2.921875 C 31.371094 4.101562 32.207031 5.714844 32.3125 7.730469 C 32.324219 7.933594 32.167969 8.109375 31.960938 8.117188 C 31.753906 8.128906 31.582031 7.972656 31.570312 7.769531 C 31.472656 5.957031 30.726562 4.511719 29.613281 3.457031 C 28.839844 2.726562 27.894531 2.183594 26.863281 1.839844 C 25.824219 1.488281 24.703125 1.339844 23.59375 1.398438 C 21.667969 1.5 19.777344 2.230469 18.414062 3.648438 C 17.894531 4.1875 17.492188 4.796875 17.199219 5.457031 C 16.90625 6.132812 16.726562 6.859375 16.671875 7.621094 " fill-opacity="1" fill-rule="nonzero"/></g><path fill="#1a1a1a" d="M 18.003906 10.011719 L 18.003906 8.167969 C 18.003906 5.632812 19.601562 4.015625 21.644531 3.308594 C 22.429688 3.039062 23.273438 2.902344 24.117188 2.902344 C 24.957031 2.902344 25.804688 3.039062 26.585938 3.308594 C 28.628906 4.015625 30.226562 5.632812 30.226562 8.167969 L 30.226562 10.011719 C 30.226562 10.019531 30.226562 10.054688 30.226562 10.152344 C 30.191406 12.105469 29.417969 13.726562 28.277344 14.855469 C 27.128906 15.992188 25.609375 16.636719 24.089844 16.636719 C 24.066406 16.636719 24.078125 16.636719 23.996094 16.636719 C 22.410156 16.605469 20.84375 15.871094 19.707031 14.609375 C 18.679688 13.464844 18.003906 11.882812 18.003906 10.011719 Z M 18.75 8.167969 L 18.75 10.011719 C 18.75 11.6875 19.347656 13.097656 20.265625 14.117188 C 21.261719 15.226562 22.632812 15.875 24.007812 15.898438 C 24.03125 15.898438 24.007812 15.898438 24.089844 15.898438 C 25.414062 15.898438 26.742188 15.332031 27.75 14.332031 C 28.761719 13.328125 29.449219 11.886719 29.480469 10.140625 C 29.480469 10.128906 29.480469 10.105469 29.480469 10.011719 L 29.480469 8.167969 C 29.480469 6.003906 28.105469 4.617188 26.339844 4.007812 C 25.640625 3.765625 24.878906 3.644531 24.117188 3.644531 C 23.351562 3.644531 22.589844 3.765625 21.890625 4.007812 C 20.128906 4.617188 18.75 6.003906 18.75 8.167969 " fill-opacity="1" fill-rule="nonzero"/><g clip-path="url(#74c50aa3a7)"><path fill="#1a1a1a" d="M 20.039062 30.566406 C 19.832031 30.566406 19.664062 30.398438 19.664062 30.195312 C 19.664062 29.988281 19.832031 29.824219 20.039062 29.824219 L 33.628906 29.824219 L 33.132812 22.511719 C 32.988281 20.363281 31.613281 20.027344 29.777344 19.582031 C 28.957031 19.378906 28.050781 19.160156 27.101562 18.761719 L 26.226562 18.394531 C 26.164062 18.4375 26.101562 18.480469 26.042969 18.527344 C 25.925781 18.613281 25.8125 18.714844 25.695312 18.832031 L 24.398438 20.125 C 24.253906 20.269531 24.019531 20.269531 23.875 20.128906 L 22.539062 18.835938 C 22.425781 18.722656 22.308594 18.625 22.191406 18.539062 C 22.128906 18.492188 22.066406 18.445312 22.007812 18.40625 L 21.128906 18.761719 C 20.199219 19.140625 19.308594 19.359375 18.496094 19.554688 C 16.636719 20.003906 15.246094 20.34375 15.097656 22.511719 L 14.914062 25.195312 C 14.902344 25.398438 14.722656 25.550781 14.519531 25.539062 C 14.3125 25.523438 14.15625 25.347656 14.171875 25.144531 L 14.351562 22.464844 C 14.535156 19.753906 16.15625 19.359375 18.320312 18.835938 C 19.105469 18.644531 19.964844 18.4375 20.84375 18.082031 L 21.882812 17.65625 C 21.996094 17.605469 22.128906 17.605469 22.242188 17.675781 C 22.371094 17.757812 22.507812 17.84375 22.640625 17.945312 C 22.777344 18.050781 22.917969 18.167969 23.0625 18.308594 L 24.132812 19.34375 L 25.164062 18.3125 C 25.308594 18.167969 25.449219 18.046875 25.585938 17.941406 C 25.726562 17.832031 25.859375 17.742188 25.984375 17.664062 C 26.085938 17.601562 26.214844 17.589844 26.328125 17.636719 L 27.390625 18.082031 C 28.277344 18.453125 29.160156 18.667969 29.957031 18.863281 C 32.09375 19.382812 33.695312 19.773438 33.878906 22.464844 L 34.398438 30.148438 C 34.402344 30.164062 34.402344 30.179688 34.402344 30.195312 C 34.402344 30.398438 34.234375 30.566406 34.027344 30.566406 L 20.039062 30.566406 " fill-opacity="1" fill-rule="nonzero"/></g><path fill="#1a1a1a" d="M 16.988281 8.121094 L 16.269531 8.121094 C 16.074219 8.121094 15.894531 8.199219 15.765625 8.328125 C 15.636719 8.457031 15.554688 8.636719 15.554688 8.832031 L 15.554688 10.492188 C 15.554688 10.597656 15.601562 10.699219 15.671875 10.769531 C 15.746094 10.84375 15.847656 10.886719 15.957031 10.886719 L 16.988281 10.886719 Z M 16.269531 7.378906 L 17.359375 7.378906 C 17.566406 7.378906 17.734375 7.546875 17.734375 7.75 L 17.734375 11.257812 C 17.734375 11.460938 17.566406 11.628906 17.359375 11.628906 L 15.957031 11.628906 C 15.640625 11.628906 15.351562 11.5 15.144531 11.292969 C 14.9375 11.089844 14.808594 10.804688 14.808594 10.492188 L 14.808594 8.832031 C 14.808594 8.429688 14.972656 8.066406 15.238281 7.804688 C 15.503906 7.542969 15.867188 7.378906 16.269531 7.378906 " fill-opacity="1" fill-rule="nonzero"/><path fill="#1a1a1a" d="M 30.871094 7.378906 L 31.960938 7.378906 C 32.363281 7.378906 32.730469 7.542969 32.992188 7.804688 C 33.257812 8.066406 33.421875 8.429688 33.421875 8.832031 L 33.421875 10.492188 C 33.421875 10.804688 33.292969 11.089844 33.085938 11.292969 C 32.878906 11.5 32.59375 11.628906 32.277344 11.628906 L 30.871094 11.628906 C 30.664062 11.628906 30.496094 11.460938 30.496094 11.257812 L 30.496094 7.75 C 30.496094 7.546875 30.664062 7.378906 30.871094 7.378906 Z M 31.960938 8.121094 L 31.242188 8.121094 L 31.242188 10.886719 L 32.277344 10.886719 C 32.386719 10.886719 32.484375 10.84375 32.558594 10.769531 C 32.632812 10.699219 32.675781 10.597656 32.675781 10.492188 L 32.675781 8.832031 C 32.675781 8.636719 32.597656 8.457031 32.464844 8.328125 C 32.335938 8.199219 32.15625 8.121094 31.960938 8.121094 " fill-opacity="1" fill-rule="nonzero"/><path fill="#1a1a1a" d="M 24.992188 14.378906 C 24.785156 14.378906 24.617188 14.214844 24.617188 14.011719 C 24.617188 13.804688 24.785156 13.640625 24.992188 13.640625 L 29.472656 13.640625 C 30.398438 13.640625 30.882812 13.496094 31.113281 13.167969 C 31.359375 12.816406 31.394531 12.183594 31.394531 11.257812 C 31.394531 11.054688 31.5625 10.886719 31.769531 10.886719 C 31.976562 10.886719 32.144531 11.054688 32.144531 11.257812 C 32.144531 12.324219 32.089844 13.066406 31.722656 13.59375 C 31.335938 14.140625 30.671875 14.378906 29.472656 14.378906 L 24.992188 14.378906 " fill-opacity="1" fill-rule="nonzero"/><path fill="#1a1a1a" d="M 24.421875 13.914062 L 23.8125 13.914062 C 23.773438 13.914062 23.742188 13.929688 23.71875 13.953125 C 23.695312 13.976562 23.679688 14.007812 23.679688 14.042969 C 23.679688 14.082031 23.695312 14.113281 23.71875 14.136719 C 23.742188 14.160156 23.773438 14.175781 23.8125 14.175781 L 24.421875 14.175781 C 24.457031 14.175781 24.488281 14.160156 24.511719 14.136719 L 24.515625 14.136719 C 24.535156 14.113281 24.550781 14.082031 24.550781 14.042969 C 24.550781 14.007812 24.535156 13.976562 24.515625 13.953125 L 24.511719 13.953125 C 24.488281 13.929688 24.457031 13.914062 24.421875 13.914062 Z M 23.8125 13.175781 L 24.421875 13.175781 C 24.660156 13.175781 24.878906 13.273438 25.039062 13.429688 L 25.042969 13.433594 C 25.199219 13.589844 25.296875 13.808594 25.296875 14.042969 C 25.296875 14.28125 25.199219 14.5 25.039062 14.65625 L 25.039062 14.660156 C 24.878906 14.816406 24.660156 14.914062 24.421875 14.914062 L 23.8125 14.914062 C 23.570312 14.914062 23.351562 14.816406 23.191406 14.660156 L 23.191406 14.65625 C 23.03125 14.5 22.933594 14.28125 22.933594 14.042969 C 22.933594 13.804688 23.03125 13.589844 23.191406 13.429688 L 23.195312 13.429688 C 23.351562 13.273438 23.570312 13.175781 23.8125 13.175781 " fill-opacity="1" fill-rule="nonzero"/><g clip-path="url(#9e5f20c54e)"><path fill="#1a1a1a" d="M 18.695312 20.78125 C 19.457031 20.585938 20.265625 20.59375 21.023438 20.804688 C 21.089844 20.820312 21.152344 20.851562 21.203125 20.902344 C 21.347656 21.046875 21.347656 21.28125 21.203125 21.425781 L 18.222656 24.382812 L 20.492188 26.636719 L 23.472656 23.679688 C 23.515625 23.636719 23.570312 23.601562 23.632812 23.585938 C 23.832031 23.53125 24.039062 23.644531 24.09375 23.839844 C 24.3125 24.597656 24.324219 25.402344 24.125 26.167969 C 23.929688 26.90625 23.542969 27.605469 22.964844 28.179688 C 22.398438 28.738281 21.722656 29.117188 21.003906 29.3125 C 20.328125 29.5 19.617188 29.523438 18.933594 29.386719 L 12.859375 35.410156 C 12.378906 35.886719 11.75 36.125 11.117188 36.125 C 10.484375 36.125 9.855469 35.886719 9.375 35.410156 C 8.894531 34.933594 8.65625 34.308594 8.65625 33.683594 C 8.65625 33.054688 8.894531 32.429688 9.375 31.953125 L 15.449219 25.929688 C 15.3125 25.25 15.335938 24.546875 15.523438 23.878906 C 15.71875 23.164062 16.101562 22.492188 16.664062 21.933594 C 17.246094 21.355469 17.949219 20.972656 18.695312 20.78125 Z M 20.175781 21.398438 C 19.742188 21.355469 19.304688 21.386719 18.878906 21.496094 C 18.261719 21.65625 17.679688 21.976562 17.191406 22.457031 C 16.722656 22.921875 16.402344 23.484375 16.238281 24.074219 C 16.070312 24.6875 16.0625 25.339844 16.21875 25.957031 C 16.25 26.089844 16.210938 26.21875 16.121094 26.308594 L 9.902344 32.476562 C 9.570312 32.808594 9.402344 33.246094 9.402344 33.683594 C 9.402344 34.121094 9.570312 34.554688 9.902344 34.886719 C 10.234375 35.21875 10.675781 35.382812 11.117188 35.382812 C 11.558594 35.382812 12 35.21875 12.332031 34.886719 L 18.550781 28.71875 C 18.652344 28.621094 18.796875 28.589844 18.921875 28.628906 C 19.542969 28.777344 20.191406 28.769531 20.804688 28.601562 C 21.398438 28.4375 21.964844 28.125 22.433594 27.65625 C 22.921875 27.175781 23.242188 26.59375 23.402344 25.980469 C 23.511719 25.5625 23.546875 25.128906 23.503906 24.695312 L 20.929688 27.246094 C 20.808594 27.367188 20.652344 27.429688 20.492188 27.429688 C 20.335938 27.429688 20.175781 27.367188 20.054688 27.246094 L 17.605469 24.820312 C 17.59375 24.808594 17.585938 24.796875 17.578125 24.789062 C 17.472656 24.671875 17.421875 24.527344 17.421875 24.382812 C 17.421875 24.226562 17.484375 24.070312 17.605469 23.949219 L 20.175781 21.398438 " fill-opacity="1" fill-rule="nonzero"/></g><path fill="#1a1a1a" d="M 15.664062 28.652344 C 15.808594 28.503906 16.042969 28.503906 16.191406 28.652344 C 16.335938 28.796875 16.335938 29.03125 16.191406 29.175781 L 11.375 33.949219 C 11.230469 34.09375 10.996094 34.09375 10.847656 33.949219 C 10.703125 33.804688 10.703125 33.570312 10.847656 33.425781 L 15.664062 28.652344 " fill-opacity="1" fill-rule="nonzero"/><path fill="#1a1a1a" d="M 10.277344 26.164062 C 9.9375 25.828125 9.46875 25.617188 8.949219 25.617188 C 8.429688 25.617188 7.960938 25.828125 7.621094 26.164062 C 7.28125 26.5 7.070312 26.96875 7.070312 27.480469 C 7.070312 27.996094 7.28125 28.460938 7.621094 28.800781 C 7.960938 29.136719 8.429688 29.34375 8.949219 29.34375 C 9.46875 29.34375 9.9375 29.136719 10.277344 28.800781 C 10.617188 28.460938 10.828125 27.996094 10.828125 27.480469 C 10.828125 26.96875 10.617188 26.5 10.277344 26.164062 Z M 8.949219 24.878906 C 9.671875 24.878906 10.328125 25.167969 10.804688 25.640625 C 11.28125 26.113281 11.574219 26.761719 11.574219 27.480469 C 11.574219 28.199219 11.28125 28.851562 10.804688 29.324219 C 10.328125 29.792969 9.671875 30.085938 8.949219 30.085938 C 8.222656 30.085938 7.566406 29.792969 7.089844 29.324219 C 6.617188 28.851562 6.324219 28.199219 6.324219 27.480469 C 6.324219 26.761719 6.617188 26.113281 7.089844 25.640625 C 7.566406 25.167969 8.222656 24.878906 8.949219 24.878906 " fill-opacity="1" fill-rule="nonzero"/><g clip-path="url(#d56a1609f2)"><path fill="#1a1a1a" d="M 9.046875 33.03125 C 9.253906 33.03125 9.421875 33.195312 9.421875 33.398438 C 9.421875 33.605469 9.253906 33.769531 9.046875 33.769531 L 8.277344 33.769531 C 8.082031 33.769531 7.917969 33.621094 7.902344 33.429688 L 7.699219 32.160156 C 7.488281 32.101562 7.28125 32.035156 7.082031 31.953125 C 6.878906 31.867188 6.683594 31.773438 6.496094 31.664062 L 5.421875 32.4375 C 5.273438 32.546875 5.066406 32.527344 4.941406 32.398438 L 3.992188 31.457031 C 3.855469 31.324219 3.84375 31.109375 3.964844 30.960938 L 4.730469 29.914062 C 4.621094 29.726562 4.523438 29.535156 4.441406 29.332031 C 4.359375 29.136719 4.289062 28.929688 4.234375 28.71875 L 2.921875 28.511719 C 2.738281 28.484375 2.609375 28.328125 2.609375 28.148438 L 2.609375 26.816406 C 2.609375 26.621094 2.761719 26.460938 2.953125 26.445312 L 4.234375 26.242188 C 4.289062 26.03125 4.359375 25.828125 4.441406 25.628906 C 4.523438 25.429688 4.621094 25.234375 4.730469 25.050781 L 3.953125 23.984375 C 3.84375 23.835938 3.863281 23.632812 3.992188 23.507812 L 4.941406 22.5625 C 5.074219 22.429688 5.292969 22.421875 5.4375 22.539062 L 6.496094 23.296875 C 6.683594 23.191406 6.878906 23.09375 7.082031 23.011719 C 7.28125 22.929688 7.488281 22.859375 7.699219 22.804688 L 7.910156 21.503906 C 7.9375 21.324219 8.097656 21.195312 8.277344 21.195312 L 8.277344 21.191406 L 9.621094 21.191406 C 9.816406 21.191406 9.976562 21.34375 9.992188 21.535156 L 10.195312 22.804688 C 10.410156 22.859375 10.617188 22.929688 10.816406 23.011719 C 11.015625 23.09375 11.210938 23.191406 11.398438 23.296875 L 12.472656 22.527344 C 12.625 22.417969 12.828125 22.4375 12.957031 22.5625 L 13.90625 23.507812 C 14.042969 23.640625 14.050781 23.855469 13.933594 24 L 13.164062 25.050781 C 13.273438 25.238281 13.371094 25.429688 13.453125 25.628906 C 13.539062 25.828125 13.605469 26.03125 13.664062 26.242188 L 14.972656 26.449219 C 15.175781 26.484375 15.3125 26.671875 15.28125 26.875 C 15.25 27.074219 15.058594 27.210938 14.855469 27.179688 L 13.316406 26.933594 C 13.160156 26.917969 13.027344 26.804688 12.992188 26.644531 C 12.941406 26.390625 12.863281 26.148438 12.765625 25.914062 C 12.667969 25.675781 12.546875 25.449219 12.40625 25.238281 C 12.324219 25.113281 12.320312 24.945312 12.414062 24.816406 L 13.152344 23.808594 L 12.652344 23.3125 L 11.644531 24.035156 C 11.519531 24.128906 11.347656 24.140625 11.210938 24.054688 C 10.996094 23.914062 10.765625 23.792969 10.527344 23.695312 C 10.292969 23.597656 10.046875 23.519531 9.792969 23.46875 C 9.644531 23.4375 9.527344 23.320312 9.5 23.164062 L 9.300781 21.933594 L 8.59375 21.933594 L 8.398438 23.148438 C 8.378906 23.304688 8.265625 23.4375 8.101562 23.46875 C 7.847656 23.519531 7.601562 23.597656 7.367188 23.695312 C 7.128906 23.792969 6.902344 23.914062 6.683594 24.054688 C 6.558594 24.132812 6.390625 24.136719 6.261719 24.042969 L 5.242188 23.3125 L 4.742188 23.808594 L 5.472656 24.808594 C 5.570312 24.929688 5.582031 25.101562 5.492188 25.238281 C 5.351562 25.449219 5.226562 25.675781 5.128906 25.914062 C 5.03125 26.148438 4.957031 26.390625 4.902344 26.644531 C 4.871094 26.789062 4.753906 26.910156 4.597656 26.933594 L 3.355469 27.128906 L 3.355469 27.832031 L 4.582031 28.027344 C 4.734375 28.046875 4.867188 28.160156 4.902344 28.320312 C 4.957031 28.570312 5.03125 28.816406 5.128906 29.050781 C 5.226562 29.285156 5.351562 29.511719 5.492188 29.726562 C 5.574219 29.851562 5.574219 30.015625 5.480469 30.144531 L 4.742188 31.15625 L 5.242188 31.652344 L 6.253906 30.929688 C 6.375 30.832031 6.546875 30.820312 6.683594 30.910156 C 6.902344 31.050781 7.128906 31.171875 7.367188 31.269531 C 7.601562 31.367188 7.847656 31.441406 8.101562 31.496094 C 8.25 31.523438 8.371094 31.644531 8.394531 31.796875 L 8.59375 33.03125 L 9.046875 33.03125 " fill-opacity="1" fill-rule="nonzero"/></g></svg>