<svg width="50" height="50" viewBox="0 0 50 50" fill="none" xmlns="http://www.w3.org/2000/svg">
<path d="M9.11106 21.2815C10.0207 22.1905 11.4162 20.8134 10.4975 19.8947L7.26945 16.6666L10.4975 13.4382C10.8806 13.0554 10.8806 12.4345 10.4975 12.0517C10.1147 11.669 9.49415 11.669 9.11106 12.0517L5.18944 15.9731C4.80665 16.3561 4.80665 16.9767 5.18944 17.3598L9.11106 21.2815Z" fill="#FFBD59"/>
<path d="M20.3003 21.2815L24.2219 17.3598C24.6047 16.9771 24.6047 16.3562 24.2219 15.9731L20.3003 12.0517C19.9175 11.669 19.2969 11.669 18.9138 12.0517C18.531 12.4345 18.531 13.0551 18.9138 13.4382L22.1422 16.6666L18.9138 19.895C17.9948 20.8137 19.3933 22.1881 20.3003 21.2815Z" fill="#FFBD59"/>
<path d="M13.7256 21.5688C14.1651 21.5688 14.5648 21.2714 14.676 20.8262L16.6369 12.9829C16.7684 12.4576 16.4489 11.9253 15.9235 11.7942C15.3982 11.6628 14.8662 11.9823 14.7348 12.5073L12.7738 20.3503C12.6195 20.9684 13.087 21.5688 13.7256 21.5688Z" fill="#FFBD59"/>
<path d="M24.5098 27.4511C23.9681 27.4511 23.5293 27.89 23.5293 28.4313C23.5293 28.9726 23.9681 29.4118 24.5098 29.4118H44.1176C44.6589 29.4118 45.0978 28.9726 45.0978 28.4313C45.0978 27.89 44.6589 27.4511 44.1176 27.4511H43.1371V19.6079C43.1371 19.0663 42.698 18.6274 42.1566 18.6274C41.6153 18.6274 41.1764 19.0663 41.1764 19.6079V27.4511H39.2155V17.6469C39.2155 17.1056 38.7766 16.6667 38.2353 16.6667C37.6937 16.6667 37.2548 17.1056 37.2548 17.6469V27.4511H35.2939V23.5295C35.2939 22.9879 34.855 22.549 34.3137 22.549C33.7724 22.549 33.3332 22.9879 33.3332 23.5295V27.4511H31.3725V21.5685C31.3725 21.0272 30.9334 20.5884 30.3921 20.5884C29.8507 20.5884 29.4116 21.0272 29.4116 21.5685V27.4511H27.4509V24.5097C27.4509 23.9684 27.0118 23.5295 26.4704 23.5295C25.9291 23.5295 25.49 23.9684 25.49 24.5097V27.4511H24.5098Z" fill="#FFBD59"/>
<path d="M26.4707 6.86282H44.1179C44.6592 6.86282 45.098 6.42367 45.098 5.88234C45.098 5.34101 44.6592 4.90186 44.1179 4.90186H26.4707C25.9294 4.90186 25.4902 5.34101 25.4902 5.88234C25.4902 6.42367 25.9294 6.86282 26.4707 6.86282Z" fill="#FFBD59"/>
<path d="M26.4707 10.7844H38.2356C38.7769 10.7844 39.2158 10.3453 39.2158 9.80397C39.2158 9.26264 38.7769 8.82349 38.2356 8.82349H26.4707C25.9294 8.82349 25.4902 9.26264 25.4902 9.80397C25.4902 10.3453 25.9294 10.7844 26.4707 10.7844Z" fill="#FFBD59"/>
<path d="M45.0974 37.2549C45.0974 37.3191 45.0914 37.383 45.0787 37.446C45.066 37.5093 45.0476 37.5705 45.0229 37.6298C44.9982 37.6895 44.9681 37.7459 44.9322 37.7995C44.8966 37.8529 44.856 37.9026 44.8104 37.9481C44.7649 37.9936 44.7152 38.034 44.6618 38.0699C44.6082 38.1058 44.5518 38.1359 44.4922 38.1606C44.4328 38.185 44.3716 38.2037 44.3083 38.2164C44.2453 38.2287 44.1814 38.2351 44.1172 38.2351C44.0527 38.2351 43.9891 38.2287 43.9258 38.2164C43.8628 38.2037 43.8013 38.185 43.7419 38.1606C43.6826 38.1359 43.6259 38.1058 43.5726 38.0699C43.5189 38.034 43.4695 37.9936 43.424 37.9481C43.3784 37.9026 43.3378 37.8529 43.3019 37.7995C43.2663 37.7459 43.2359 37.6895 43.2115 37.6298C43.1868 37.5705 43.1681 37.5093 43.1557 37.446C43.143 37.383 43.1367 37.3191 43.1367 37.2549C43.1367 37.1904 43.143 37.1265 43.1557 37.0635C43.1681 37.0005 43.1868 36.939 43.2115 36.8796C43.2359 36.8203 43.2663 36.7636 43.3019 36.7099C43.3378 36.6566 43.3784 36.6072 43.424 36.5617C43.4695 36.5161 43.5189 36.4755 43.5726 36.4396C43.6259 36.4037 43.6826 36.3736 43.7419 36.3489C43.8013 36.3244 43.8628 36.3058 43.9258 36.2931C43.9891 36.2807 44.0527 36.2744 44.1172 36.2744C44.1814 36.2744 44.2453 36.2807 44.3083 36.2931C44.3716 36.3058 44.4328 36.3244 44.4922 36.3489C44.5518 36.3736 44.6082 36.4037 44.6618 36.4396C44.7152 36.4755 44.7649 36.5161 44.8104 36.5617C44.856 36.6072 44.8966 36.6566 44.9322 36.7099C44.9681 36.7636 44.9982 36.8203 45.0229 36.8796C45.0476 36.939 45.066 37.0005 45.0787 37.0635C45.0914 37.1265 45.0974 37.1904 45.0974 37.2549Z" fill="#FFBD59"/>
<path d="M40.197 36.2744H39.2165C38.6752 36.2744 38.2363 36.7133 38.2363 37.2549C38.2363 37.7962 38.6752 38.2351 39.2165 38.2351H40.197C40.7383 38.2351 41.1775 37.7962 41.1775 37.2549C41.1775 36.7133 40.7383 36.2744 40.197 36.2744Z" fill="#FFBD59"/>
<path d="M35.2946 36.2744H34.3145C33.7731 36.2744 33.334 36.7133 33.334 37.2549C33.334 37.7962 33.7731 38.2351 34.3145 38.2351H35.2946C35.8363 38.2351 36.2751 37.7962 36.2751 37.2549C36.2751 36.7133 35.8363 36.2744 35.2946 36.2744Z" fill="#FFBD59"/>
<mask id="mask0_2356_382" style="mask-type:luminance" maskUnits="userSpaceOnUse" x="0" y="0" width="50" height="50">
<path d="M0 0H50V50H0V0Z" fill="white"/>
</mask>
<g mask="url(#mask0_2356_382)">
<path d="M44.6156 0H5.38436C2.41549 0 0 2.41518 0 5.38436V36.7724C0 39.7413 2.41549 42.1568 5.38436 42.1568H20.0979V44.1177H19.1177C16.4147 44.1177 14.2156 46.3165 14.2156 49.0195C14.2156 49.5608 14.6545 50 15.1961 50H34.8039C35.3452 50 35.7844 49.5608 35.7844 49.0195C35.7844 46.3165 33.5853 44.1177 30.8823 44.1177H29.9021V42.1568H44.6156C47.5845 42.1568 50 39.7413 50 36.7724V5.38436C50 2.41518 47.5845 0 44.6156 0ZM5.38436 1.96066H44.6156C46.5034 1.96066 48.0393 3.49664 48.0393 5.38436V32.3529H1.96066V5.38436C1.96066 3.49664 3.49664 1.96066 5.38436 1.96066ZM33.6555 48.039H16.3445C16.7493 46.8979 17.8394 46.0784 19.1177 46.0784H30.8823C32.1606 46.0784 33.2507 46.8979 33.6555 48.039ZM27.9411 44.1177H22.0589V42.1568H27.9411V44.1177ZM44.6156 40.1961H5.38436C3.49664 40.1961 1.96066 38.6601 1.96066 36.7724V34.3135H48.0393V36.7724C48.0393 38.6601 46.5034 40.1961 44.6156 40.1961Z" fill="#FFBD59"/>
</g>
</svg>
