<svg xmlns="http://www.w3.org/2000/svg" xmlns:xlink="http://www.w3.org/1999/xlink" width="1440" zoomAndPan="magnify" viewBox="0 0 1080 1619.99993" height="2160" preserveAspectRatio="xMidYMid meet" version="1.0"><defs><clipPath id="c5cb95e8a7"><path d="M 216 528.3125 L 864 528.3125 L 864 1176.3125 L 216 1176.3125 Z M 216 528.3125 " clip-rule="nonzero"/></clipPath></defs><path fill="#ffbd59" d="M 334.074219 804.121094 C 345.863281 815.902344 363.949219 798.054688 352.042969 786.148438 L 310.207031 744.3125 L 352.042969 702.472656 C 357.007812 697.511719 357.007812 689.464844 352.042969 684.503906 C 347.082031 679.542969 339.039062 679.542969 334.074219 684.503906 L 283.25 735.324219 C 278.289062 740.289062 278.289062 748.332031 283.25 753.296875 Z M 334.074219 804.121094 " fill-opacity="1" fill-rule="nonzero"/><path fill="#ffbd59" d="M 479.101562 804.121094 L 529.925781 753.296875 C 534.886719 748.335938 534.886719 740.289062 529.925781 735.324219 L 479.101562 684.503906 C 474.140625 679.542969 466.097656 679.542969 461.132812 684.503906 C 456.171875 689.464844 456.171875 697.507812 461.132812 702.472656 L 502.972656 744.3125 L 461.132812 786.152344 C 449.222656 798.058594 467.347656 815.871094 479.101562 804.121094 Z M 479.101562 804.121094 " fill-opacity="1" fill-rule="nonzero"/><path fill="#ffbd59" d="M 393.890625 807.84375 C 399.585938 807.84375 404.765625 803.988281 406.207031 798.21875 L 431.621094 696.570312 C 433.324219 689.761719 429.183594 682.863281 422.375 681.164062 C 415.566406 679.460938 408.671875 683.601562 406.96875 690.40625 L 381.554688 792.050781 C 379.554688 800.0625 385.613281 807.84375 393.890625 807.84375 Z M 393.890625 807.84375 " fill-opacity="1" fill-rule="nonzero"/><path fill="#ffbd59" d="M 533.648438 884.078125 C 526.628906 884.078125 520.941406 889.765625 520.941406 896.78125 C 520.941406 903.796875 526.628906 909.488281 533.648438 909.488281 L 787.765625 909.488281 C 794.78125 909.488281 800.46875 903.796875 800.46875 896.78125 C 800.46875 889.765625 794.78125 884.078125 787.765625 884.078125 L 775.058594 884.078125 L 775.058594 782.429688 C 775.058594 775.410156 769.367188 769.722656 762.351562 769.722656 C 755.335938 769.722656 749.648438 775.410156 749.648438 782.429688 L 749.648438 884.078125 L 724.234375 884.078125 L 724.234375 757.015625 C 724.234375 750 718.546875 744.3125 711.53125 744.3125 C 704.511719 744.3125 698.824219 750 698.824219 757.015625 L 698.824219 884.078125 L 673.410156 884.078125 L 673.410156 833.253906 C 673.410156 826.234375 667.722656 820.546875 660.707031 820.546875 C 653.691406 820.546875 648 826.234375 648 833.253906 L 648 884.078125 L 622.589844 884.078125 L 622.589844 807.839844 C 622.589844 800.824219 616.898438 795.136719 609.882812 795.136719 C 602.867188 795.136719 597.175781 800.824219 597.175781 807.839844 L 597.175781 884.078125 L 571.765625 884.078125 L 571.765625 845.957031 C 571.765625 838.941406 566.074219 833.253906 559.058594 833.253906 C 552.042969 833.253906 546.351562 838.941406 546.351562 845.957031 L 546.351562 884.078125 Z M 533.648438 884.078125 " fill-opacity="1" fill-rule="nonzero"/><path fill="#ffbd59" d="M 559.058594 617.253906 L 787.765625 617.253906 C 794.78125 617.253906 800.46875 611.5625 800.46875 604.546875 C 800.46875 597.53125 794.78125 591.839844 787.765625 591.839844 L 559.058594 591.839844 C 552.042969 591.839844 546.351562 597.53125 546.351562 604.546875 C 546.351562 611.5625 552.042969 617.253906 559.058594 617.253906 Z M 559.058594 617.253906 " fill-opacity="1" fill-rule="nonzero"/><path fill="#ffbd59" d="M 559.058594 668.078125 L 711.53125 668.078125 C 718.546875 668.078125 724.234375 662.386719 724.234375 655.371094 C 724.234375 648.355469 718.546875 642.664062 711.53125 642.664062 L 559.058594 642.664062 C 552.042969 642.664062 546.351562 648.355469 546.351562 655.371094 C 546.351562 662.386719 552.042969 668.078125 559.058594 668.078125 Z M 559.058594 668.078125 " fill-opacity="1" fill-rule="nonzero"/><path fill="#ffbd59" d="M 800.46875 1011.136719 C 800.46875 1011.96875 800.390625 1012.796875 800.226562 1013.613281 C 800.0625 1014.433594 799.824219 1015.226562 799.503906 1015.996094 C 799.183594 1016.769531 798.792969 1017.5 798.328125 1018.195312 C 797.867188 1018.886719 797.339844 1019.53125 796.75 1020.121094 C 796.160156 1020.710938 795.515625 1021.234375 794.824219 1021.699219 C 794.128906 1022.164062 793.398438 1022.554688 792.625 1022.875 C 791.855469 1023.191406 791.0625 1023.433594 790.242188 1023.597656 C 789.425781 1023.757812 788.597656 1023.839844 787.765625 1023.839844 C 786.929688 1023.839844 786.105469 1023.757812 785.285156 1023.597656 C 784.46875 1023.433594 783.671875 1023.191406 782.902344 1022.875 C 782.132812 1022.554688 781.398438 1022.164062 780.707031 1021.699219 C 780.011719 1021.234375 779.371094 1020.710938 778.78125 1020.121094 C 778.191406 1019.53125 777.664062 1018.886719 777.199219 1018.195312 C 776.738281 1017.5 776.34375 1016.769531 776.027344 1015.996094 C 775.707031 1015.226562 775.464844 1014.433594 775.304688 1013.613281 C 775.140625 1012.796875 775.058594 1011.96875 775.058594 1011.136719 C 775.058594 1010.300781 775.140625 1009.472656 775.304688 1008.65625 C 775.464844 1007.839844 775.707031 1007.042969 776.027344 1006.273438 C 776.34375 1005.503906 776.738281 1004.769531 777.199219 1004.074219 C 777.664062 1003.382812 778.191406 1002.742188 778.78125 1002.152344 C 779.371094 1001.5625 780.011719 1001.035156 780.707031 1000.570312 C 781.398438 1000.105469 782.132812 999.714844 782.902344 999.394531 C 783.671875 999.078125 784.46875 998.835938 785.285156 998.671875 C 786.105469 998.511719 786.929688 998.429688 787.765625 998.429688 C 788.597656 998.429688 789.425781 998.511719 790.242188 998.671875 C 791.0625 998.835938 791.855469 999.078125 792.625 999.394531 C 793.398438 999.714844 794.128906 1000.105469 794.824219 1000.570312 C 795.515625 1001.035156 796.160156 1001.5625 796.75 1002.152344 C 797.339844 1002.742188 797.867188 1003.382812 798.328125 1004.074219 C 798.792969 1004.769531 799.183594 1005.503906 799.503906 1006.273438 C 799.824219 1007.042969 800.0625 1007.839844 800.226562 1008.65625 C 800.390625 1009.472656 800.46875 1010.300781 800.46875 1011.136719 Z M 800.46875 1011.136719 " fill-opacity="1" fill-rule="nonzero"/><path fill="#ffbd59" d="M 736.941406 998.429688 L 724.234375 998.429688 C 717.21875 998.429688 711.53125 1004.117188 711.53125 1011.136719 C 711.53125 1018.152344 717.21875 1023.839844 724.234375 1023.839844 L 736.941406 1023.839844 C 743.957031 1023.839844 749.648438 1018.152344 749.648438 1011.136719 C 749.648438 1004.117188 743.957031 998.429688 736.941406 998.429688 Z M 736.941406 998.429688 " fill-opacity="1" fill-rule="nonzero"/><path fill="#ffbd59" d="M 673.410156 998.429688 L 660.707031 998.429688 C 653.691406 998.429688 648 1004.117188 648 1011.136719 C 648 1018.152344 653.691406 1023.839844 660.707031 1023.839844 L 673.410156 1023.839844 C 680.429688 1023.839844 686.117188 1018.152344 686.117188 1011.136719 C 686.117188 1004.117188 680.429688 998.429688 673.410156 998.429688 Z M 673.410156 998.429688 " fill-opacity="1" fill-rule="nonzero"/><g clip-path="url(#c5cb95e8a7)"><path fill="#ffbd59" d="M 794.21875 528.3125 L 285.78125 528.3125 C 247.304688 528.3125 216 559.613281 216 598.09375 L 216 1004.882812 C 216 1043.359375 247.304688 1074.664062 285.78125 1074.664062 L 476.46875 1074.664062 L 476.46875 1100.078125 L 463.765625 1100.078125 C 428.734375 1100.078125 400.234375 1128.574219 400.234375 1163.605469 C 400.234375 1170.621094 405.921875 1176.3125 412.941406 1176.3125 L 667.058594 1176.3125 C 674.074219 1176.3125 679.765625 1170.621094 679.765625 1163.605469 C 679.765625 1128.574219 651.265625 1100.078125 616.234375 1100.078125 L 603.53125 1100.078125 L 603.53125 1074.664062 L 794.21875 1074.664062 C 832.695312 1074.664062 864 1043.359375 864 1004.882812 L 864 598.09375 C 864 559.613281 832.695312 528.3125 794.21875 528.3125 Z M 285.78125 553.722656 L 794.21875 553.722656 C 818.683594 553.722656 838.589844 573.628906 838.589844 598.09375 L 838.589844 947.605469 L 241.410156 947.605469 L 241.410156 598.09375 C 241.410156 573.628906 261.316406 553.722656 285.78125 553.722656 Z M 652.175781 1150.898438 L 427.824219 1150.898438 C 433.070312 1136.109375 447.199219 1125.488281 463.765625 1125.488281 L 616.234375 1125.488281 C 632.800781 1125.488281 646.929688 1136.109375 652.175781 1150.898438 Z M 578.117188 1100.078125 L 501.882812 1100.078125 L 501.882812 1074.664062 L 578.117188 1074.664062 Z M 794.21875 1049.253906 L 285.78125 1049.253906 C 261.316406 1049.253906 241.410156 1029.347656 241.410156 1004.882812 L 241.410156 973.015625 L 838.589844 973.015625 L 838.589844 1004.882812 C 838.589844 1029.347656 818.683594 1049.253906 794.21875 1049.253906 Z M 794.21875 1049.253906 " fill-opacity="1" fill-rule="nonzero"/></g></svg>