<svg xmlns="http://www.w3.org/2000/svg" xmlns:xlink="http://www.w3.org/1999/xlink" width="1440" zoomAndPan="magnify" viewBox="0 0 1080 1619.99993" height="2160" preserveAspectRatio="xMidYMid meet" version="1.0"><defs><clipPath id="9a6fa60ef1"><path d="M 129.847656 406.109375 L 857 406.109375 L 857 1133 L 129.847656 1133 Z M 129.847656 406.109375 " clip-rule="nonzero"/></clipPath><clipPath id="becb045661"><path d="M 449 1074 L 712 1074 L 712 1219.859375 L 449 1219.859375 Z M 449 1074 " clip-rule="nonzero"/></clipPath><clipPath id="c4baf17b6e"><path d="M 798 1074 L 943.597656 1074 L 943.597656 1219.859375 L 798 1219.859375 Z M 798 1074 " clip-rule="nonzero"/></clipPath><clipPath id="b782a5b6f8"><path d="M 565 1074 L 712 1074 L 712 1219.859375 L 565 1219.859375 Z M 565 1074 " clip-rule="nonzero"/></clipPath><clipPath id="ec5ff63800"><path d="M 682 1074 L 828 1074 L 828 1219.859375 L 682 1219.859375 Z M 682 1074 " clip-rule="nonzero"/></clipPath></defs><g clip-path="url(#9a6fa60ef1)"><path fill="#7ed957" d="M 173.449219 406.109375 C 149.546875 406.109375 129.847656 425.808594 129.847656 449.714844 L 129.847656 1089.269531 C 129.847656 1113.175781 149.546875 1132.886719 173.449219 1132.886719 L 471.917969 1132.886719 C 473.195312 1132.886719 474.449219 1132.722656 475.683594 1132.390625 C 476.914062 1132.058594 478.085938 1131.574219 479.191406 1130.933594 C 480.296875 1130.296875 481.300781 1129.523438 482.203125 1128.621094 C 483.105469 1127.714844 483.875 1126.710938 484.511719 1125.605469 C 486.699219 1121.808594 489.433594 1118.375 492.613281 1115.425781 C 492.746094 1115.300781 492.875 1115.175781 493 1115.050781 L 522.308594 1085.742188 L 536.109375 1099.558594 C 537.472656 1100.917969 539.042969 1101.96875 540.824219 1102.703125 C 542.601562 1103.441406 544.457031 1103.808594 546.382812 1103.808594 L 842.085938 1103.808594 C 843.039062 1103.808594 843.984375 1103.714844 844.921875 1103.527344 C 845.855469 1103.339844 846.765625 1103.066406 847.644531 1102.699219 C 848.527344 1102.332031 849.363281 1101.886719 850.15625 1101.355469 C 850.949219 1100.824219 851.683594 1100.222656 852.359375 1099.546875 C 853.03125 1098.871094 853.636719 1098.136719 854.164062 1097.34375 C 854.695312 1096.550781 855.140625 1095.714844 855.507812 1094.832031 C 855.871094 1093.949219 856.148438 1093.042969 856.332031 1092.105469 C 856.519531 1091.167969 856.613281 1090.222656 856.609375 1089.269531 L 856.609375 909.867188 C 856.230469 908.007812 855.511719 906.289062 854.460938 904.710938 C 853.40625 903.132812 852.09375 901.808594 850.523438 900.746094 C 852.09375 899.679688 853.40625 898.359375 854.460938 896.78125 C 855.511719 895.203125 856.230469 893.484375 856.609375 891.625 L 856.609375 449.714844 C 856.609375 425.808594 836.914062 406.109375 813.007812 406.109375 Z M 173.449219 435.175781 L 813.007812 435.175781 C 821.3125 435.175781 827.546875 441.40625 827.546875 449.714844 L 827.546875 856.539062 L 779.25 808.242188 C 778.574219 807.566406 777.839844 806.964844 777.046875 806.433594 C 776.253906 805.90625 775.414062 805.457031 774.535156 805.09375 C 773.652344 804.726562 772.746094 804.453125 771.808594 804.265625 C 770.875 804.082031 769.929688 803.988281 768.972656 803.988281 C 768.019531 803.988281 767.074219 804.082031 766.140625 804.265625 C 765.203125 804.453125 764.296875 804.726562 763.414062 805.09375 C 762.535156 805.457031 761.695312 805.90625 760.902344 806.433594 C 760.109375 806.964844 759.375 807.566406 758.699219 808.242188 L 676.484375 890.472656 L 594.25 972.691406 C 593.578125 973.363281 592.972656 974.097656 592.441406 974.894531 C 591.914062 975.6875 591.464844 976.523438 591.097656 977.40625 C 590.734375 978.289062 590.457031 979.199219 590.269531 980.132812 C 590.085938 981.070312 589.992188 982.015625 589.992188 982.96875 C 589.992188 983.925781 590.085938 984.871094 590.269531 985.808594 C 590.457031 986.742188 590.734375 987.652344 591.097656 988.535156 C 591.464844 989.417969 591.914062 990.253906 592.441406 991.046875 C 592.972656 991.84375 593.578125 992.578125 594.25 993.25 L 675.757812 1074.746094 L 552.40625 1074.746094 L 532.582031 1054.921875 C 531.90625 1054.246094 531.171875 1053.644531 530.378906 1053.113281 C 529.585938 1052.582031 528.746094 1052.132812 527.863281 1051.769531 C 526.984375 1051.402344 526.074219 1051.128906 525.136719 1050.941406 C 524.199219 1050.753906 523.253906 1050.660156 522.300781 1050.660156 C 521.347656 1050.660156 520.402344 1050.753906 519.464844 1050.941406 C 518.527344 1051.128906 517.617188 1051.402344 516.738281 1051.769531 C 515.855469 1052.132812 515.015625 1052.582031 514.222656 1053.113281 C 513.429688 1053.644531 512.695312 1054.246094 512.019531 1054.921875 L 472.84375 1094.113281 C 469.804688 1096.929688 467.628906 1100.511719 465.117188 1103.808594 L 173.449219 1103.808594 C 165.144531 1103.808594 158.910156 1097.578125 158.910156 1089.269531 L 158.910156 449.714844 C 158.910156 441.40625 165.144531 435.175781 173.449219 435.175781 Z M 768.972656 839.074219 L 830.644531 900.746094 L 686.757812 1044.632812 L 625.085938 982.964844 L 697.03125 911.019531 Z M 827.546875 944.953125 L 827.546875 1074.746094 L 697.753906 1074.746094 Z M 827.546875 944.953125 " fill-opacity="1" fill-rule="nonzero"/></g><path fill="#7ed957" d="M 472.441406 1094.492188 C 471.765625 1095.15625 471.160156 1095.878906 470.628906 1096.664062 C 470.097656 1097.445312 469.644531 1098.273438 469.273438 1099.144531 C 468.902344 1100.015625 468.617188 1100.917969 468.421875 1101.84375 C 468.226562 1102.769531 468.125 1103.707031 468.109375 1104.65625 C 468.097656 1105.601562 468.179688 1106.542969 468.351562 1107.472656 C 468.523438 1108.40625 468.78125 1109.3125 469.132812 1110.195312 C 469.480469 1111.074219 469.910156 1111.914062 470.421875 1112.710938 C 470.9375 1113.507812 471.523438 1114.246094 472.179688 1114.929688 C 472.835938 1115.609375 473.554688 1116.222656 474.332031 1116.765625 C 475.109375 1117.304688 475.929688 1117.769531 476.796875 1118.148438 C 477.664062 1118.53125 478.5625 1118.824219 479.488281 1119.03125 C 480.410156 1119.234375 481.347656 1119.351562 482.296875 1119.371094 C 483.242188 1119.394531 484.183594 1119.328125 485.117188 1119.164062 C 486.050781 1119.003906 486.960938 1118.753906 487.84375 1118.414062 C 488.730469 1118.078125 489.574219 1117.65625 490.375 1117.152344 C 491.175781 1116.648438 491.921875 1116.070312 492.613281 1115.421875 C 500.394531 1108.199219 510.691406 1103.8125 522.296875 1103.8125 L 580.445312 1103.804688 C 581.398438 1103.804688 582.34375 1103.710938 583.277344 1103.523438 C 584.214844 1103.335938 585.121094 1103.0625 586.003906 1102.695312 C 586.886719 1102.332031 587.722656 1101.882812 588.515625 1101.355469 C 589.308594 1100.824219 590.042969 1100.222656 590.71875 1099.546875 C 591.390625 1098.871094 591.992188 1098.136719 592.523438 1097.34375 C 593.054688 1096.550781 593.5 1095.714844 593.867188 1094.832031 C 594.230469 1093.953125 594.507812 1093.042969 594.695312 1092.109375 C 594.878906 1091.171875 594.972656 1090.226562 594.972656 1089.273438 C 594.972656 1088.320312 594.878906 1087.375 594.695312 1086.441406 C 594.507812 1085.503906 594.230469 1084.597656 593.867188 1083.714844 C 593.5 1082.832031 593.054688 1081.996094 592.523438 1081.203125 C 591.992188 1080.410156 591.390625 1079.675781 590.71875 1079 C 590.042969 1078.328125 589.308594 1077.726562 588.515625 1077.195312 C 587.722656 1076.664062 586.886719 1076.21875 586.003906 1075.851562 C 585.121094 1075.488281 584.214844 1075.210938 583.277344 1075.023438 C 582.34375 1074.839844 581.398438 1074.746094 580.445312 1074.746094 L 533.308594 1074.746094 L 604.523438 1003.53125 L 676.46875 1075.476562 C 677.144531 1076.148438 677.878906 1076.753906 678.671875 1077.285156 C 679.464844 1077.8125 680.304688 1078.261719 681.1875 1078.628906 C 682.066406 1078.992188 682.976562 1079.269531 683.914062 1079.457031 C 684.851562 1079.640625 685.796875 1079.734375 686.75 1079.734375 C 687.707031 1079.734375 688.652344 1079.640625 689.585938 1079.457031 C 690.523438 1079.269531 691.433594 1078.992188 692.316406 1078.628906 C 693.195312 1078.261719 694.035156 1077.816406 694.828125 1077.285156 C 695.621094 1076.753906 696.355469 1076.148438 697.03125 1075.476562 C 697.707031 1074.800781 698.308594 1074.066406 698.839844 1073.273438 C 699.371094 1072.476562 699.820312 1071.640625 700.183594 1070.757812 C 700.550781 1069.875 700.824219 1068.96875 701.011719 1068.03125 C 701.199219 1067.09375 701.292969 1066.148438 701.292969 1065.195312 C 701.292969 1064.238281 701.199219 1063.292969 701.011719 1062.359375 C 700.824219 1061.421875 700.550781 1060.511719 700.183594 1059.628906 C 699.820312 1058.746094 699.371094 1057.910156 698.839844 1057.117188 C 698.308594 1056.324219 697.707031 1055.589844 697.03125 1054.914062 L 614.804688 972.6875 C 614.128906 972.011719 613.394531 971.410156 612.601562 970.882812 C 611.808594 970.351562 610.96875 969.90625 610.089844 969.539062 C 609.207031 969.175781 608.296875 968.902344 607.363281 968.714844 C 606.425781 968.53125 605.480469 968.4375 604.527344 968.4375 C 603.574219 968.4375 602.628906 968.53125 601.691406 968.71875 C 600.757812 968.902344 599.847656 969.179688 598.964844 969.546875 C 598.085938 969.910156 597.246094 970.359375 596.453125 970.890625 C 595.660156 971.417969 594.929688 972.023438 594.253906 972.695312 Z M 472.441406 1094.492188 " fill-opacity="1" fill-rule="nonzero"/><path fill="#7ed957" d="M 676.480469 890.472656 C 675.804688 891.144531 675.203125 891.878906 674.671875 892.671875 C 674.140625 893.464844 673.695312 894.304688 673.328125 895.183594 C 672.960938 896.066406 672.6875 896.972656 672.5 897.910156 C 672.3125 898.84375 672.21875 899.789062 672.21875 900.746094 C 672.21875 901.699219 672.3125 902.644531 672.496094 903.578125 C 672.683594 904.515625 672.957031 905.425781 673.324219 906.304688 C 673.6875 907.1875 674.132812 908.027344 674.664062 908.820312 C 675.195312 909.613281 675.796875 910.347656 676.46875 911.023438 L 758.695312 993.25 C 759.371094 993.925781 760.105469 994.527344 760.898438 995.058594 C 761.691406 995.589844 762.53125 996.035156 763.414062 996.402344 C 764.292969 996.765625 765.203125 997.042969 766.140625 997.230469 C 767.078125 997.414062 768.023438 997.507812 768.976562 997.507812 C 769.929688 997.507812 770.878906 997.414062 771.8125 997.230469 C 772.75 997.042969 773.660156 996.765625 774.539062 996.402344 C 775.421875 996.035156 776.261719 995.589844 777.054688 995.058594 C 777.847656 994.527344 778.582031 993.925781 779.257812 993.25 L 861.484375 911.023438 C 862.15625 910.347656 862.757812 909.613281 863.289062 908.820312 C 863.820312 908.027344 864.265625 907.1875 864.628906 906.304688 C 864.996094 905.425781 865.269531 904.515625 865.457031 903.578125 C 865.640625 902.644531 865.734375 901.699219 865.734375 900.746094 C 865.734375 899.789062 865.640625 898.84375 865.453125 897.910156 C 865.265625 896.972656 864.992188 896.066406 864.625 895.183594 C 864.261719 894.300781 863.8125 893.464844 863.28125 892.671875 C 862.75 891.878906 862.148438 891.144531 861.472656 890.472656 L 779.246094 808.246094 C 778.574219 807.570312 777.839844 806.96875 777.046875 806.441406 C 776.253906 805.910156 775.414062 805.464844 774.535156 805.097656 C 773.652344 804.734375 772.746094 804.457031 771.808594 804.273438 C 770.875 804.085938 769.929688 803.996094 768.976562 803.996094 C 768.023438 803.996094 767.078125 804.085938 766.144531 804.273438 C 765.207031 804.460938 764.300781 804.734375 763.417969 805.097656 C 762.539062 805.464844 761.699219 805.910156 760.90625 806.441406 C 760.113281 806.96875 759.378906 807.570312 758.707031 808.246094 Z M 707.3125 900.742188 L 768.976562 839.078125 L 830.640625 900.742188 L 768.976562 962.40625 Z M 707.3125 900.742188 " fill-opacity="1" fill-rule="nonzero"/><g clip-path="url(#becb045661)"><path fill="#7ed957" d="M 522.308594 1074.746094 C 482.296875 1074.746094 449.625 1107.402344 449.625 1147.414062 C 449.625 1187.425781 482.296875 1220.09375 522.308594 1220.09375 L 696.734375 1220.09375 C 697.691406 1220.09375 698.632812 1220 699.570312 1219.8125 C 700.507812 1219.625 701.414062 1219.351562 702.296875 1218.984375 C 703.175781 1218.621094 704.015625 1218.171875 704.808594 1217.640625 C 705.601562 1217.109375 706.335938 1216.507812 707.007812 1215.832031 C 707.683594 1215.15625 708.285156 1214.421875 708.816406 1213.628906 C 709.34375 1212.835938 709.792969 1212 710.15625 1211.117188 C 710.519531 1210.234375 710.796875 1209.328125 710.984375 1208.390625 C 711.167969 1207.453125 711.261719 1206.511719 711.261719 1205.554688 L 711.261719 1089.269531 C 711.261719 1088.316406 711.167969 1087.371094 710.980469 1086.4375 C 710.792969 1085.503906 710.519531 1084.59375 710.152344 1083.714844 C 709.789062 1082.832031 709.339844 1081.996094 708.808594 1081.203125 C 708.28125 1080.410156 707.679688 1079.675781 707.003906 1079.003906 C 706.328125 1078.328125 705.597656 1077.726562 704.804688 1077.195312 C 704.011719 1076.664062 703.171875 1076.21875 702.292969 1075.851562 C 701.410156 1075.488281 700.503906 1075.210938 699.570312 1075.027344 C 698.632812 1074.839844 697.6875 1074.746094 696.734375 1074.746094 Z M 522.308594 1103.808594 L 682.195312 1103.808594 L 682.195312 1191.03125 L 522.308594 1191.03125 C 497.898438 1191.03125 478.691406 1171.824219 478.691406 1147.414062 C 478.691406 1123.003906 497.898438 1103.808594 522.308594 1103.808594 Z M 522.308594 1103.808594 " fill-opacity="1" fill-rule="nonzero"/></g><path fill="#7ed957" d="M 536.839844 1147.417969 C 536.839844 1148.371094 536.746094 1149.316406 536.558594 1150.253906 C 536.375 1151.1875 536.097656 1152.097656 535.734375 1152.980469 C 535.367188 1153.863281 534.917969 1154.699219 534.390625 1155.492188 C 533.859375 1156.285156 533.257812 1157.019531 532.582031 1157.695312 C 531.90625 1158.371094 531.171875 1158.972656 530.378906 1159.503906 C 529.585938 1160.035156 528.746094 1160.480469 527.867188 1160.847656 C 526.984375 1161.210938 526.074219 1161.488281 525.140625 1161.671875 C 524.203125 1161.859375 523.257812 1161.953125 522.304688 1161.953125 C 521.347656 1161.953125 520.402344 1161.859375 519.46875 1161.671875 C 518.53125 1161.488281 517.621094 1161.210938 516.742188 1160.847656 C 515.859375 1160.480469 515.023438 1160.035156 514.226562 1159.503906 C 513.433594 1158.972656 512.699219 1158.371094 512.027344 1157.695312 C 511.351562 1157.019531 510.75 1156.285156 510.21875 1155.492188 C 509.6875 1154.699219 509.238281 1153.863281 508.875 1152.980469 C 508.507812 1152.097656 508.234375 1151.1875 508.046875 1150.253906 C 507.863281 1149.316406 507.769531 1148.371094 507.769531 1147.417969 C 507.769531 1146.464844 507.859375 1145.519531 508.046875 1144.582031 C 508.234375 1143.644531 508.507812 1142.738281 508.875 1141.855469 C 509.238281 1140.972656 509.6875 1140.136719 510.21875 1139.34375 C 510.75 1138.546875 511.351562 1137.8125 512.027344 1137.140625 C 512.699219 1136.464844 513.433594 1135.863281 514.226562 1135.332031 C 515.023438 1134.800781 515.859375 1134.355469 516.742188 1133.988281 C 517.621094 1133.625 518.53125 1133.347656 519.46875 1133.160156 C 520.402344 1132.976562 521.347656 1132.882812 522.304688 1132.882812 C 523.257812 1132.882812 524.203125 1132.976562 525.140625 1133.160156 C 526.074219 1133.347656 526.984375 1133.625 527.867188 1133.988281 C 528.746094 1134.355469 529.585938 1134.800781 530.378906 1135.332031 C 531.171875 1135.863281 531.90625 1136.464844 532.582031 1137.140625 C 533.257812 1137.8125 533.859375 1138.546875 534.390625 1139.34375 C 534.917969 1140.136719 535.367188 1140.972656 535.734375 1141.855469 C 536.097656 1142.738281 536.375 1143.644531 536.558594 1144.582031 C 536.746094 1145.519531 536.839844 1146.464844 536.839844 1147.417969 Z M 536.839844 1147.417969 " fill-opacity="1" fill-rule="nonzero"/><g clip-path="url(#c4baf17b6e)"><path fill="#7ed957" d="M 813.007812 1074.746094 C 812.054688 1074.746094 811.109375 1074.839844 810.175781 1075.027344 C 809.238281 1075.210938 808.332031 1075.488281 807.449219 1075.851562 C 806.570312 1076.21875 805.734375 1076.664062 804.941406 1077.195312 C 804.148438 1077.726562 803.414062 1078.328125 802.738281 1079.003906 C 802.066406 1079.675781 801.460938 1080.410156 800.933594 1081.203125 C 800.402344 1081.996094 799.957031 1082.832031 799.589844 1083.714844 C 799.226562 1084.59375 798.949219 1085.503906 798.761719 1086.4375 C 798.574219 1087.371094 798.484375 1088.316406 798.480469 1089.269531 L 798.480469 1205.554688 C 798.480469 1206.511719 798.574219 1207.453125 798.761719 1208.390625 C 798.945312 1209.328125 799.222656 1210.234375 799.585938 1211.117188 C 799.949219 1212 800.398438 1212.835938 800.929688 1213.628906 C 801.457031 1214.421875 802.058594 1215.15625 802.734375 1215.832031 C 803.410156 1216.507812 804.144531 1217.109375 804.9375 1217.640625 C 805.730469 1218.171875 806.566406 1218.621094 807.445312 1218.984375 C 808.328125 1219.351562 809.238281 1219.628906 810.171875 1219.8125 C 811.109375 1220 812.054688 1220.09375 813.007812 1220.09375 L 929.292969 1220.09375 C 930.246094 1220.09375 931.191406 1220.003906 932.128906 1219.816406 C 933.066406 1219.628906 933.976562 1219.355469 934.855469 1218.988281 C 935.738281 1218.625 936.578125 1218.175781 937.371094 1217.644531 C 938.164062 1217.113281 938.898438 1216.511719 939.574219 1215.835938 C 940.25 1215.164062 940.851562 1214.429688 941.382812 1213.632812 C 941.914062 1212.839844 942.359375 1212.003906 942.726562 1211.121094 C 943.089844 1210.238281 943.367188 1209.328125 943.554688 1208.390625 C 943.738281 1207.457031 943.832031 1206.511719 943.832031 1205.554688 L 943.832031 1089.269531 C 943.832031 1088.316406 943.738281 1087.371094 943.550781 1086.4375 C 943.363281 1085.5 943.085938 1084.589844 942.722656 1083.710938 C 942.355469 1082.828125 941.910156 1081.992188 941.378906 1081.199219 C 940.847656 1080.40625 940.246094 1079.671875 939.570312 1078.996094 C 938.894531 1078.324219 938.160156 1077.722656 937.367188 1077.191406 C 936.574219 1076.660156 935.734375 1076.214844 934.855469 1075.847656 C 933.972656 1075.484375 933.0625 1075.210938 932.128906 1075.023438 C 931.191406 1074.835938 930.246094 1074.746094 929.292969 1074.746094 Z M 827.546875 1103.808594 L 914.765625 1103.808594 L 914.765625 1191.03125 L 827.546875 1191.03125 Z M 827.546875 1103.808594 " fill-opacity="1" fill-rule="nonzero"/></g><g clip-path="url(#b782a5b6f8)"><path fill="#7ed957" d="M 580.449219 1074.746094 C 579.496094 1074.746094 578.550781 1074.835938 577.613281 1075.023438 C 576.679688 1075.210938 575.769531 1075.484375 574.890625 1075.847656 C 574.007812 1076.214844 573.167969 1076.660156 572.375 1077.191406 C 571.582031 1077.722656 570.847656 1078.324219 570.171875 1078.996094 C 569.5 1079.671875 568.894531 1080.40625 568.363281 1081.199219 C 567.835938 1081.992188 567.386719 1082.828125 567.019531 1083.710938 C 566.65625 1084.589844 566.378906 1085.5 566.191406 1086.4375 C 566.003906 1087.371094 565.910156 1088.316406 565.910156 1089.269531 L 565.910156 1205.554688 C 565.910156 1206.511719 566.003906 1207.457031 566.191406 1208.390625 C 566.375 1209.328125 566.652344 1210.238281 567.015625 1211.121094 C 567.382812 1212.003906 567.828125 1212.839844 568.359375 1213.632812 C 568.890625 1214.429688 569.492188 1215.164062 570.167969 1215.835938 C 570.84375 1216.511719 571.578125 1217.113281 572.371094 1217.644531 C 573.164062 1218.175781 574.003906 1218.625 574.886719 1218.988281 C 575.769531 1219.355469 576.675781 1219.628906 577.613281 1219.816406 C 578.550781 1220.003906 579.496094 1220.09375 580.449219 1220.09375 L 696.734375 1220.09375 C 697.691406 1220.09375 698.632812 1220 699.570312 1219.8125 C 700.507812 1219.628906 701.414062 1219.351562 702.296875 1218.984375 C 703.175781 1218.621094 704.015625 1218.171875 704.808594 1217.640625 C 705.601562 1217.109375 706.335938 1216.507812 707.007812 1215.832031 C 707.683594 1215.15625 708.285156 1214.421875 708.816406 1213.628906 C 709.34375 1212.835938 709.792969 1212 710.15625 1211.117188 C 710.519531 1210.234375 710.796875 1209.328125 710.984375 1208.390625 C 711.167969 1207.453125 711.261719 1206.511719 711.261719 1205.554688 L 711.261719 1089.269531 C 711.261719 1088.316406 711.167969 1087.371094 710.980469 1086.4375 C 710.792969 1085.503906 710.519531 1084.59375 710.152344 1083.714844 C 709.789062 1082.832031 709.339844 1081.996094 708.808594 1081.203125 C 708.28125 1080.410156 707.679688 1079.675781 707.003906 1079.003906 C 706.328125 1078.328125 705.597656 1077.726562 704.804688 1077.195312 C 704.011719 1076.664062 703.171875 1076.21875 702.292969 1075.851562 C 701.410156 1075.488281 700.503906 1075.210938 699.570312 1075.027344 C 698.632812 1074.839844 697.6875 1074.746094 696.734375 1074.746094 Z M 594.976562 1103.808594 L 682.195312 1103.808594 L 682.195312 1191.03125 L 594.976562 1191.03125 Z M 594.976562 1103.808594 " fill-opacity="1" fill-rule="nonzero"/></g><g clip-path="url(#ec5ff63800)"><path fill="#7ed957" d="M 696.734375 1074.746094 C 695.78125 1074.746094 694.835938 1074.835938 693.898438 1075.023438 C 692.964844 1075.210938 692.054688 1075.484375 691.175781 1075.847656 C 690.292969 1076.214844 689.453125 1076.660156 688.660156 1077.191406 C 687.867188 1077.722656 687.132812 1078.324219 686.457031 1078.996094 C 685.785156 1079.671875 685.179688 1080.40625 684.648438 1081.199219 C 684.121094 1081.992188 683.671875 1082.828125 683.304688 1083.710938 C 682.941406 1084.589844 682.664062 1085.5 682.476562 1086.4375 C 682.289062 1087.371094 682.195312 1088.316406 682.195312 1089.269531 L 682.195312 1205.554688 C 682.195312 1206.511719 682.289062 1207.457031 682.476562 1208.390625 C 682.660156 1209.328125 682.9375 1210.238281 683.300781 1211.121094 C 683.667969 1212.003906 684.117188 1212.839844 684.644531 1213.632812 C 685.175781 1214.429688 685.777344 1215.164062 686.453125 1215.835938 C 687.128906 1216.511719 687.863281 1217.117188 688.65625 1217.644531 C 689.449219 1218.175781 690.289062 1218.625 691.171875 1218.988281 C 692.054688 1219.355469 692.960938 1219.628906 693.898438 1219.816406 C 694.835938 1220.003906 695.78125 1220.09375 696.734375 1220.09375 L 813.007812 1220.09375 C 813.960938 1220.09375 814.90625 1220.003906 815.84375 1219.816406 C 816.78125 1219.628906 817.691406 1219.355469 818.570312 1218.988281 C 819.453125 1218.625 820.292969 1218.175781 821.085938 1217.644531 C 821.878906 1217.113281 822.613281 1216.511719 823.289062 1215.835938 C 823.964844 1215.164062 824.566406 1214.429688 825.097656 1213.632812 C 825.628906 1212.839844 826.074219 1212.003906 826.441406 1211.121094 C 826.804688 1210.238281 827.082031 1209.328125 827.269531 1208.390625 C 827.453125 1207.457031 827.546875 1206.511719 827.546875 1205.554688 L 827.546875 1089.269531 C 827.546875 1088.316406 827.453125 1087.371094 827.265625 1086.4375 C 827.078125 1085.5 826.800781 1084.589844 826.4375 1083.710938 C 826.070312 1082.828125 825.625 1081.992188 825.09375 1081.199219 C 824.5625 1080.40625 823.960938 1079.671875 823.285156 1078.996094 C 822.609375 1078.324219 821.875 1077.722656 821.082031 1077.191406 C 820.289062 1076.660156 819.449219 1076.214844 818.570312 1075.847656 C 817.6875 1075.484375 816.777344 1075.210938 815.84375 1075.023438 C 814.90625 1074.835938 813.960938 1074.746094 813.007812 1074.746094 Z M 711.261719 1103.808594 L 798.480469 1103.808594 L 798.480469 1191.03125 L 711.261719 1191.03125 Z M 711.261719 1103.808594 " fill-opacity="1" fill-rule="nonzero"/></g><path fill="#7ed957" d="M 231.59375 551.460938 C 230.640625 551.460938 229.695312 551.554688 228.757812 551.738281 C 227.820312 551.925781 226.910156 552.199219 226.027344 552.566406 C 225.148438 552.929688 224.308594 553.378906 223.515625 553.910156 C 222.722656 554.441406 221.988281 555.042969 221.3125 555.71875 C 220.636719 556.390625 220.035156 557.128906 219.503906 557.921875 C 218.972656 558.714844 218.527344 559.554688 218.160156 560.433594 C 217.796875 561.316406 217.519531 562.226562 217.332031 563.164062 C 217.148438 564.097656 217.054688 565.042969 217.054688 566 C 217.054688 566.953125 217.148438 567.898438 217.332031 568.835938 C 217.519531 569.773438 217.796875 570.683594 218.160156 571.5625 C 218.527344 572.445312 218.972656 573.285156 219.503906 574.078125 C 220.035156 574.871094 220.636719 575.605469 221.3125 576.28125 C 221.988281 576.957031 222.722656 577.558594 223.515625 578.089844 C 224.308594 578.621094 225.148438 579.066406 226.027344 579.433594 C 226.910156 579.796875 227.820312 580.074219 228.757812 580.261719 C 229.695312 580.445312 230.640625 580.539062 231.59375 580.539062 L 347.878906 580.539062 C 348.832031 580.539062 349.78125 580.445312 350.714844 580.261719 C 351.652344 580.074219 352.5625 579.796875 353.445312 579.433594 C 354.324219 579.066406 355.164062 578.621094 355.957031 578.089844 C 356.75 577.558594 357.484375 576.957031 358.160156 576.28125 C 358.835938 575.605469 359.4375 574.871094 359.96875 574.078125 C 360.5 573.285156 360.949219 572.445312 361.3125 571.5625 C 361.679688 570.683594 361.953125 569.773438 362.140625 568.835938 C 362.324219 567.898438 362.417969 566.953125 362.417969 566 C 362.417969 565.042969 362.324219 564.097656 362.140625 563.164062 C 361.953125 562.226562 361.679688 561.316406 361.3125 560.433594 C 360.949219 559.554688 360.5 558.714844 359.96875 557.921875 C 359.4375 557.128906 358.835938 556.390625 358.160156 555.71875 C 357.484375 555.042969 356.75 554.441406 355.957031 553.910156 C 355.164062 553.378906 354.324219 552.929688 353.445312 552.566406 C 352.5625 552.199219 351.652344 551.925781 350.714844 551.738281 C 349.78125 551.554688 348.832031 551.460938 347.878906 551.460938 Z M 231.59375 551.460938 " fill-opacity="1" fill-rule="nonzero"/><path fill="#7ed957" d="M 231.59375 609.601562 C 230.640625 609.601562 229.695312 609.695312 228.757812 609.882812 C 227.820312 610.066406 226.910156 610.34375 226.027344 610.707031 C 225.148438 611.074219 224.308594 611.523438 223.515625 612.050781 C 222.722656 612.582031 221.988281 613.183594 221.3125 613.859375 C 220.636719 614.535156 220.035156 615.269531 219.503906 616.0625 C 218.972656 616.859375 218.527344 617.695312 218.160156 618.578125 C 217.796875 619.460938 217.519531 620.367188 217.332031 621.304688 C 217.148438 622.242188 217.054688 623.1875 217.054688 624.140625 C 217.054688 625.097656 217.148438 626.042969 217.332031 626.980469 C 217.519531 627.914062 217.796875 628.824219 218.160156 629.707031 C 218.527344 630.589844 218.972656 631.425781 219.503906 632.222656 C 220.035156 633.015625 220.636719 633.75 221.3125 634.425781 C 221.988281 635.097656 222.722656 635.703125 223.515625 636.230469 C 224.308594 636.761719 225.148438 637.210938 226.027344 637.574219 C 226.910156 637.941406 227.820312 638.214844 228.757812 638.402344 C 229.695312 638.589844 230.640625 638.679688 231.59375 638.679688 L 260.671875 638.679688 C 261.625 638.679688 262.570312 638.585938 263.507812 638.398438 C 264.441406 638.214844 265.351562 637.9375 266.230469 637.570312 C 267.113281 637.207031 267.949219 636.757812 268.742188 636.226562 C 269.535156 635.695312 270.269531 635.09375 270.945312 634.417969 C 271.621094 633.746094 272.222656 633.011719 272.75 632.214844 C 273.28125 631.421875 273.726562 630.585938 274.09375 629.703125 C 274.457031 628.820312 274.734375 627.914062 274.917969 626.976562 C 275.105469 626.042969 275.199219 625.097656 275.199219 624.140625 C 275.199219 623.1875 275.105469 622.242188 274.917969 621.308594 C 274.734375 620.371094 274.457031 619.460938 274.09375 618.582031 C 273.726562 617.699219 273.28125 616.859375 272.75 616.066406 C 272.222656 615.273438 271.621094 614.539062 270.945312 613.863281 C 270.269531 613.191406 269.535156 612.585938 268.742188 612.054688 C 267.949219 611.527344 267.113281 611.078125 266.230469 610.710938 C 265.351562 610.347656 264.441406 610.070312 263.507812 609.882812 C 262.570312 609.699219 261.625 609.605469 260.671875 609.601562 Z M 231.59375 609.601562 " fill-opacity="1" fill-rule="nonzero"/><path fill="#7ed957" d="M 231.59375 667.746094 C 230.640625 667.746094 229.695312 667.839844 228.757812 668.023438 C 227.820312 668.210938 226.910156 668.484375 226.027344 668.851562 C 225.148438 669.214844 224.308594 669.664062 223.515625 670.195312 C 222.722656 670.726562 221.988281 671.328125 221.3125 672.003906 C 220.636719 672.679688 220.035156 673.414062 219.503906 674.207031 C 218.972656 675 218.527344 675.839844 218.160156 676.71875 C 217.796875 677.601562 217.519531 678.511719 217.332031 679.449219 C 217.148438 680.382812 217.054688 681.332031 217.054688 682.285156 C 217.054688 683.238281 217.148438 684.183594 217.332031 685.121094 C 217.519531 686.058594 217.796875 686.96875 218.160156 687.847656 C 218.527344 688.730469 218.972656 689.570312 219.503906 690.363281 C 220.035156 691.15625 220.636719 691.890625 221.3125 692.566406 C 221.988281 693.242188 222.722656 693.84375 223.515625 694.375 C 224.308594 694.90625 225.148438 695.351562 226.027344 695.71875 C 226.910156 696.082031 227.820312 696.359375 228.757812 696.546875 C 229.695312 696.730469 230.640625 696.824219 231.59375 696.824219 L 318.800781 696.824219 C 319.757812 696.824219 320.703125 696.730469 321.636719 696.546875 C 322.574219 696.359375 323.484375 696.082031 324.367188 695.71875 C 325.246094 695.351562 326.085938 694.90625 326.878906 694.375 C 327.671875 693.84375 328.40625 693.242188 329.082031 692.566406 C 329.757812 691.890625 330.359375 691.15625 330.890625 690.363281 C 331.421875 689.570312 331.871094 688.730469 332.234375 687.847656 C 332.601562 686.96875 332.875 686.058594 333.0625 685.121094 C 333.246094 684.183594 333.339844 683.238281 333.339844 682.285156 C 333.339844 681.332031 333.246094 680.382812 333.0625 679.449219 C 332.875 678.511719 332.601562 677.601562 332.234375 676.71875 C 331.871094 675.839844 331.421875 675 330.890625 674.207031 C 330.359375 673.414062 329.757812 672.679688 329.082031 672.003906 C 328.40625 671.328125 327.671875 670.726562 326.878906 670.195312 C 326.085938 669.664062 325.246094 669.214844 324.367188 668.851562 C 323.484375 668.484375 322.574219 668.210938 321.636719 668.023438 C 320.703125 667.839844 319.757812 667.746094 318.800781 667.746094 Z M 231.59375 667.746094 " fill-opacity="1" fill-rule="nonzero"/><path fill="#7ed957" d="M 435.085938 551.460938 C 434.132812 551.460938 433.1875 551.554688 432.25 551.742188 C 431.316406 551.929688 430.40625 552.203125 429.527344 552.570312 C 428.644531 552.933594 427.808594 553.382812 427.015625 553.914062 C 426.222656 554.445312 425.488281 555.046875 424.8125 555.722656 C 424.140625 556.398438 423.535156 557.132812 423.007812 557.925781 C 422.476562 558.71875 422.03125 559.554688 421.664062 560.4375 C 421.300781 561.320312 421.023438 562.226562 420.839844 563.164062 C 420.652344 564.101562 420.5625 565.046875 420.5625 566 C 420.5625 566.953125 420.652344 567.898438 420.839844 568.835938 C 421.023438 569.769531 421.300781 570.679688 421.664062 571.5625 C 422.03125 572.441406 422.476562 573.28125 423.007812 574.074219 C 423.535156 574.867188 424.140625 575.601562 424.8125 576.277344 C 425.488281 576.953125 426.222656 577.554688 427.015625 578.085938 C 427.808594 578.617188 428.644531 579.0625 429.527344 579.429688 C 430.40625 579.792969 431.316406 580.070312 432.25 580.257812 C 433.1875 580.445312 434.132812 580.539062 435.085938 580.539062 L 551.371094 580.539062 C 552.328125 580.539062 553.273438 580.445312 554.207031 580.261719 C 555.144531 580.074219 556.054688 579.796875 556.9375 579.433594 C 557.820312 579.066406 558.65625 578.621094 559.449219 578.089844 C 560.246094 577.558594 560.980469 576.957031 561.652344 576.28125 C 562.328125 575.605469 562.933594 574.871094 563.460938 574.078125 C 563.992188 573.285156 564.441406 572.445312 564.804688 571.5625 C 565.171875 570.683594 565.445312 569.773438 565.632812 568.835938 C 565.820312 567.898438 565.910156 566.953125 565.910156 566 C 565.910156 565.042969 565.820312 564.097656 565.632812 563.164062 C 565.445312 562.226562 565.171875 561.316406 564.804688 560.433594 C 564.441406 559.550781 563.992188 558.714844 563.460938 557.921875 C 562.933594 557.128906 562.328125 556.390625 561.652344 555.71875 C 560.980469 555.042969 560.246094 554.441406 559.449219 553.910156 C 558.65625 553.378906 557.820312 552.929688 556.9375 552.566406 C 556.054688 552.199219 555.144531 551.925781 554.207031 551.738281 C 553.273438 551.554688 552.328125 551.460938 551.371094 551.460938 Z M 435.085938 551.460938 " fill-opacity="1" fill-rule="nonzero"/><path fill="#7ed957" d="M 478.703125 609.601562 C 477.75 609.601562 476.804688 609.695312 475.867188 609.882812 C 474.929688 610.066406 474.019531 610.34375 473.140625 610.707031 C 472.257812 611.074219 471.417969 611.523438 470.625 612.050781 C 469.832031 612.582031 469.097656 613.183594 468.421875 613.859375 C 467.746094 614.535156 467.144531 615.269531 466.613281 616.0625 C 466.082031 616.859375 465.636719 617.695312 465.269531 618.578125 C 464.90625 619.460938 464.628906 620.367188 464.441406 621.304688 C 464.257812 622.242188 464.164062 623.1875 464.164062 624.140625 C 464.164062 625.097656 464.257812 626.042969 464.441406 626.980469 C 464.628906 627.914062 464.90625 628.824219 465.269531 629.707031 C 465.636719 630.589844 466.082031 631.425781 466.613281 632.222656 C 467.144531 633.015625 467.746094 633.75 468.421875 634.425781 C 469.097656 635.097656 469.832031 635.703125 470.625 636.230469 C 471.417969 636.761719 472.257812 637.210938 473.140625 637.574219 C 474.019531 637.941406 474.929688 638.214844 475.867188 638.402344 C 476.804688 638.589844 477.75 638.679688 478.703125 638.679688 L 507.769531 638.679688 C 508.722656 638.679688 509.667969 638.589844 510.605469 638.402344 C 511.542969 638.214844 512.449219 637.941406 513.332031 637.574219 C 514.214844 637.210938 515.054688 636.761719 515.847656 636.230469 C 516.640625 635.703125 517.375 635.097656 518.050781 634.425781 C 518.726562 633.75 519.328125 633.015625 519.859375 632.222656 C 520.390625 631.425781 520.835938 630.589844 521.203125 629.707031 C 521.566406 628.824219 521.84375 627.914062 522.027344 626.980469 C 522.214844 626.042969 522.308594 625.097656 522.308594 624.140625 C 522.308594 623.1875 522.214844 622.242188 522.027344 621.304688 C 521.84375 620.367188 521.566406 619.460938 521.203125 618.578125 C 520.835938 617.695312 520.390625 616.859375 519.859375 616.0625 C 519.328125 615.269531 518.726562 614.535156 518.050781 613.859375 C 517.375 613.183594 516.640625 612.582031 515.847656 612.050781 C 515.054688 611.523438 514.214844 611.074219 513.332031 610.707031 C 512.449219 610.34375 511.542969 610.066406 510.605469 609.882812 C 509.667969 609.695312 508.722656 609.601562 507.769531 609.601562 Z M 478.703125 609.601562 " fill-opacity="1" fill-rule="nonzero"/><path fill="#7ed957" d="M 449.625 667.746094 C 448.671875 667.746094 447.726562 667.839844 446.789062 668.023438 C 445.851562 668.210938 444.941406 668.484375 444.0625 668.851562 C 443.179688 669.214844 442.339844 669.664062 441.546875 670.195312 C 440.753906 670.726562 440.019531 671.328125 439.34375 672.003906 C 438.667969 672.679688 438.066406 673.414062 437.535156 674.207031 C 437.003906 675 436.558594 675.839844 436.191406 676.71875 C 435.828125 677.601562 435.550781 678.511719 435.363281 679.449219 C 435.179688 680.382812 435.085938 681.332031 435.085938 682.285156 C 435.085938 683.238281 435.179688 684.183594 435.363281 685.121094 C 435.550781 686.058594 435.828125 686.96875 436.191406 687.847656 C 436.558594 688.730469 437.003906 689.570312 437.535156 690.363281 C 438.066406 691.15625 438.667969 691.890625 439.34375 692.566406 C 440.019531 693.242188 440.753906 693.84375 441.546875 694.375 C 442.339844 694.90625 443.179688 695.351562 444.0625 695.71875 C 444.941406 696.082031 445.851562 696.359375 446.789062 696.546875 C 447.726562 696.730469 448.671875 696.824219 449.625 696.824219 L 536.832031 696.824219 C 537.789062 696.824219 538.734375 696.730469 539.667969 696.546875 C 540.605469 696.359375 541.515625 696.082031 542.398438 695.71875 C 543.28125 695.351562 544.117188 694.90625 544.910156 694.375 C 545.707031 693.84375 546.441406 693.242188 547.113281 692.566406 C 547.789062 691.890625 548.394531 691.15625 548.921875 690.363281 C 549.453125 689.570312 549.902344 688.730469 550.265625 687.847656 C 550.632812 686.96875 550.90625 686.058594 551.09375 685.121094 C 551.28125 684.183594 551.371094 683.238281 551.371094 682.285156 C 551.371094 681.332031 551.28125 680.382812 551.09375 679.449219 C 550.90625 678.511719 550.632812 677.601562 550.265625 676.71875 C 549.902344 675.839844 549.453125 675 548.921875 674.207031 C 548.394531 673.414062 547.789062 672.679688 547.113281 672.003906 C 546.441406 671.328125 545.707031 670.726562 544.910156 670.195312 C 544.117188 669.664062 543.28125 669.214844 542.398438 668.851562 C 541.515625 668.484375 540.605469 668.210938 539.667969 668.023438 C 538.734375 667.839844 537.789062 667.746094 536.832031 667.746094 Z M 449.625 667.746094 " fill-opacity="1" fill-rule="nonzero"/><path fill="#7ed957" d="M 638.59375 551.460938 C 637.636719 551.460938 636.691406 551.554688 635.757812 551.738281 C 634.820312 551.925781 633.910156 552.199219 633.027344 552.566406 C 632.144531 552.929688 631.308594 553.378906 630.515625 553.910156 C 629.71875 554.441406 628.984375 555.042969 628.3125 555.71875 C 627.636719 556.390625 627.03125 557.128906 626.503906 557.921875 C 625.972656 558.714844 625.523438 559.550781 625.160156 560.433594 C 624.792969 561.316406 624.519531 562.226562 624.332031 563.164062 C 624.144531 564.097656 624.054688 565.042969 624.054688 566 C 624.054688 566.953125 624.144531 567.898438 624.332031 568.835938 C 624.519531 569.773438 624.792969 570.683594 625.160156 571.5625 C 625.523438 572.445312 625.972656 573.285156 626.503906 574.078125 C 627.03125 574.871094 627.636719 575.605469 628.3125 576.28125 C 628.984375 576.957031 629.71875 577.558594 630.515625 578.089844 C 631.308594 578.621094 632.144531 579.066406 633.027344 579.433594 C 633.910156 579.796875 634.820312 580.074219 635.757812 580.261719 C 636.691406 580.445312 637.636719 580.539062 638.59375 580.539062 L 754.863281 580.539062 C 755.820312 580.539062 756.765625 580.445312 757.703125 580.261719 C 758.636719 580.074219 759.546875 579.796875 760.429688 579.433594 C 761.3125 579.066406 762.148438 578.621094 762.941406 578.089844 C 763.738281 577.558594 764.472656 576.957031 765.148438 576.28125 C 765.820312 575.605469 766.425781 574.871094 766.953125 574.078125 C 767.484375 573.285156 767.933594 572.445312 768.296875 571.5625 C 768.664062 570.683594 768.9375 569.773438 769.125 568.835938 C 769.3125 567.898438 769.402344 566.953125 769.402344 566 C 769.402344 565.042969 769.3125 564.097656 769.125 563.164062 C 768.9375 562.226562 768.664062 561.316406 768.296875 560.433594 C 767.933594 559.554688 767.484375 558.714844 766.953125 557.921875 C 766.425781 557.128906 765.820312 556.390625 765.148438 555.71875 C 764.472656 555.042969 763.738281 554.441406 762.941406 553.910156 C 762.148438 553.378906 761.3125 552.929688 760.429688 552.566406 C 759.546875 552.199219 758.636719 551.925781 757.703125 551.738281 C 756.765625 551.554688 755.820312 551.460938 754.863281 551.460938 Z M 638.59375 551.460938 " fill-opacity="1" fill-rule="nonzero"/><path fill="#7ed957" d="M 725.800781 609.601562 C 724.84375 609.601562 723.898438 609.695312 722.964844 609.882812 C 722.027344 610.066406 721.117188 610.34375 720.234375 610.707031 C 719.351562 611.074219 718.515625 611.523438 717.722656 612.050781 C 716.925781 612.582031 716.191406 613.183594 715.519531 613.859375 C 714.84375 614.535156 714.242188 615.269531 713.710938 616.0625 C 713.179688 616.859375 712.730469 617.695312 712.367188 618.578125 C 712 619.460938 711.726562 620.367188 711.539062 621.304688 C 711.355469 622.242188 711.261719 623.1875 711.261719 624.140625 C 711.261719 625.097656 711.355469 626.042969 711.539062 626.980469 C 711.726562 627.914062 712 628.824219 712.367188 629.707031 C 712.730469 630.589844 713.179688 631.425781 713.710938 632.222656 C 714.238281 633.015625 714.84375 633.75 715.519531 634.425781 C 716.191406 635.097656 716.925781 635.703125 717.722656 636.230469 C 718.515625 636.761719 719.351562 637.210938 720.234375 637.574219 C 721.117188 637.941406 722.027344 638.214844 722.964844 638.402344 C 723.898438 638.589844 724.84375 638.679688 725.800781 638.679688 L 754.863281 638.679688 C 755.820312 638.679688 756.765625 638.589844 757.703125 638.402344 C 758.636719 638.214844 759.546875 637.941406 760.429688 637.574219 C 761.3125 637.210938 762.148438 636.761719 762.941406 636.230469 C 763.738281 635.703125 764.472656 635.097656 765.148438 634.425781 C 765.820312 633.75 766.425781 633.015625 766.953125 632.222656 C 767.484375 631.425781 767.933594 630.589844 768.296875 629.707031 C 768.664062 628.824219 768.9375 627.914062 769.125 626.980469 C 769.3125 626.042969 769.402344 625.097656 769.402344 624.140625 C 769.402344 623.1875 769.3125 622.242188 769.125 621.304688 C 768.9375 620.367188 768.664062 619.460938 768.296875 618.578125 C 767.933594 617.695312 767.484375 616.859375 766.953125 616.0625 C 766.425781 615.269531 765.820312 614.535156 765.148438 613.859375 C 764.472656 613.183594 763.738281 612.582031 762.941406 612.050781 C 762.148438 611.523438 761.3125 611.074219 760.429688 610.707031 C 759.546875 610.34375 758.636719 610.066406 757.703125 609.882812 C 756.765625 609.695312 755.820312 609.601562 754.863281 609.601562 Z M 725.800781 609.601562 " fill-opacity="1" fill-rule="nonzero"/><path fill="#7ed957" d="M 667.65625 667.746094 C 666.703125 667.746094 665.757812 667.839844 664.820312 668.023438 C 663.882812 668.210938 662.976562 668.484375 662.09375 668.851562 C 661.210938 669.214844 660.371094 669.664062 659.578125 670.195312 C 658.785156 670.726562 658.050781 671.328125 657.375 672.003906 C 656.699219 672.679688 656.097656 673.414062 655.566406 674.207031 C 655.035156 675 654.589844 675.839844 654.222656 676.71875 C 653.859375 677.601562 653.582031 678.511719 653.398438 679.449219 C 653.210938 680.382812 653.117188 681.332031 653.117188 682.285156 C 653.117188 683.238281 653.210938 684.183594 653.398438 685.121094 C 653.582031 686.058594 653.859375 686.96875 654.222656 687.847656 C 654.589844 688.730469 655.035156 689.570312 655.566406 690.363281 C 656.097656 691.15625 656.699219 691.890625 657.375 692.566406 C 658.050781 693.242188 658.785156 693.84375 659.578125 694.375 C 660.371094 694.90625 661.210938 695.351562 662.09375 695.71875 C 662.976562 696.082031 663.882812 696.359375 664.820312 696.546875 C 665.757812 696.730469 666.703125 696.824219 667.65625 696.824219 L 754.863281 696.824219 C 755.820312 696.824219 756.765625 696.730469 757.703125 696.546875 C 758.636719 696.359375 759.546875 696.082031 760.429688 695.71875 C 761.3125 695.351562 762.148438 694.90625 762.941406 694.375 C 763.738281 693.84375 764.472656 693.242188 765.148438 692.566406 C 765.820312 691.890625 766.425781 691.15625 766.953125 690.363281 C 767.484375 689.570312 767.933594 688.730469 768.296875 687.847656 C 768.664062 686.96875 768.9375 686.058594 769.125 685.121094 C 769.3125 684.183594 769.402344 683.238281 769.402344 682.285156 C 769.402344 681.332031 769.3125 680.382812 769.125 679.449219 C 768.9375 678.511719 768.664062 677.601562 768.296875 676.71875 C 767.933594 675.839844 767.484375 675 766.953125 674.207031 C 766.425781 673.414062 765.820312 672.679688 765.148438 672.003906 C 764.472656 671.328125 763.738281 670.726562 762.941406 670.195312 C 762.148438 669.664062 761.3125 669.214844 760.429688 668.851562 C 759.546875 668.484375 758.636719 668.210938 757.703125 668.023438 C 756.765625 667.839844 755.820312 667.746094 754.863281 667.746094 Z M 667.65625 667.746094 " fill-opacity="1" fill-rule="nonzero"/><path fill="#7ed957" d="M 231.59375 813.109375 C 230.640625 813.109375 229.695312 813.203125 228.757812 813.386719 C 227.824219 813.574219 226.914062 813.847656 226.03125 814.214844 C 225.152344 814.578125 224.3125 815.027344 223.519531 815.554688 C 222.726562 816.085938 221.992188 816.6875 221.316406 817.363281 C 220.640625 818.035156 220.039062 818.769531 219.507812 819.5625 C 218.976562 820.355469 218.53125 821.191406 218.164062 822.074219 C 217.796875 822.957031 217.523438 823.863281 217.335938 824.800781 C 217.148438 825.734375 217.054688 826.679688 217.054688 827.636719 L 217.054688 914.855469 C 217.054688 915.808594 217.148438 916.753906 217.335938 917.691406 C 217.523438 918.625 217.796875 919.535156 218.164062 920.417969 C 218.53125 921.296875 218.976562 922.132812 219.507812 922.929688 C 220.039062 923.722656 220.640625 924.453125 221.316406 925.128906 C 221.992188 925.804688 222.726562 926.40625 223.519531 926.933594 C 224.3125 927.464844 225.152344 927.914062 226.03125 928.277344 C 226.914062 928.640625 227.824219 928.917969 228.757812 929.101562 C 229.695312 929.289062 230.640625 929.382812 231.59375 929.382812 C 232.546875 929.382812 233.492188 929.289062 234.429688 929.101562 C 235.363281 928.917969 236.273438 928.640625 237.15625 928.277344 C 238.035156 927.914062 238.875 927.464844 239.667969 926.933594 C 240.460938 926.40625 241.195312 925.804688 241.871094 925.128906 C 242.546875 924.453125 243.148438 923.722656 243.679688 922.929688 C 244.210938 922.132812 244.65625 921.296875 245.023438 920.417969 C 245.390625 919.535156 245.664062 918.625 245.851562 917.691406 C 246.039062 916.753906 246.132812 915.808594 246.132812 914.855469 L 246.132812 827.636719 C 246.132812 826.679688 246.039062 825.734375 245.851562 824.800781 C 245.664062 823.863281 245.390625 822.957031 245.023438 822.074219 C 244.65625 821.191406 244.210938 820.355469 243.679688 819.5625 C 243.148438 818.769531 242.546875 818.035156 241.871094 817.363281 C 241.195312 816.6875 240.460938 816.085938 239.667969 815.554688 C 238.875 815.027344 238.035156 814.578125 237.15625 814.214844 C 236.273438 813.847656 235.363281 813.574219 234.429688 813.386719 C 233.492188 813.203125 232.546875 813.109375 231.59375 813.109375 Z M 231.59375 813.109375 " fill-opacity="1" fill-rule="nonzero"/><path fill="#7ed957" d="M 304.277344 813.109375 C 302.347656 813.105469 300.492188 813.472656 298.707031 814.210938 C 296.925781 814.949219 295.351562 815.996094 293.988281 817.359375 C 293.3125 818.035156 292.710938 818.769531 292.183594 819.5625 C 291.652344 820.355469 291.203125 821.195312 290.839844 822.074219 C 290.476562 822.957031 290.199219 823.863281 290.011719 824.800781 C 289.828125 825.734375 289.734375 826.679688 289.734375 827.636719 C 289.734375 828.589844 289.828125 829.535156 290.011719 830.46875 C 290.199219 831.40625 290.476562 832.3125 290.839844 833.195312 C 291.203125 834.074219 291.652344 834.914062 292.183594 835.707031 C 292.710938 836.5 293.3125 837.234375 293.988281 837.910156 L 327.316406 871.238281 L 293.988281 904.570312 C 293.3125 905.242188 292.710938 905.976562 292.179688 906.769531 C 291.648438 907.566406 291.199219 908.402344 290.835938 909.285156 C 290.46875 910.167969 290.195312 911.074219 290.007812 912.011719 C 289.820312 912.949219 289.726562 913.894531 289.726562 914.847656 C 289.726562 915.804688 289.820312 916.75 290.007812 917.6875 C 290.195312 918.621094 290.46875 919.53125 290.835938 920.414062 C 291.199219 921.296875 291.648438 922.132812 292.179688 922.925781 C 292.710938 923.71875 293.3125 924.453125 293.988281 925.128906 C 294.664062 925.804688 295.398438 926.40625 296.191406 926.9375 C 296.984375 927.46875 297.824219 927.917969 298.703125 928.28125 C 299.585938 928.648438 300.496094 928.925781 301.433594 929.109375 C 302.367188 929.296875 303.3125 929.390625 304.269531 929.390625 C 305.222656 929.390625 306.167969 929.296875 307.105469 929.109375 C 308.042969 928.925781 308.949219 928.648438 309.832031 928.28125 C 310.714844 927.917969 311.554688 927.46875 312.347656 926.9375 C 313.140625 926.40625 313.875 925.804688 314.550781 925.128906 L 358.152344 881.527344 C 358.828125 880.851562 359.429688 880.117188 359.960938 879.324219 C 360.492188 878.527344 360.941406 877.691406 361.304688 876.808594 C 361.671875 875.925781 361.945312 875.019531 362.132812 874.082031 C 362.320312 873.144531 362.414062 872.199219 362.414062 871.246094 C 362.414062 870.289062 362.320312 869.34375 362.132812 868.410156 C 361.945312 867.472656 361.671875 866.5625 361.304688 865.679688 C 360.941406 864.800781 360.492188 863.960938 359.960938 863.167969 C 359.429688 862.375 358.828125 861.640625 358.152344 860.964844 L 314.550781 817.359375 C 313.1875 816 311.613281 814.949219 309.835938 814.214844 C 308.054688 813.476562 306.203125 813.109375 304.277344 813.109375 Z M 304.277344 813.109375 " fill-opacity="1" fill-rule="nonzero"/><path fill="#7ed957" d="M 289.738281 856.714844 C 288.78125 856.710938 287.835938 856.804688 286.902344 856.992188 C 285.964844 857.175781 285.058594 857.453125 284.175781 857.816406 C 283.292969 858.183594 282.457031 858.628906 281.660156 859.160156 C 280.867188 859.6875 280.132812 860.289062 279.460938 860.964844 C 278.785156 861.640625 278.179688 862.375 277.652344 863.167969 C 277.121094 863.960938 276.671875 864.796875 276.308594 865.679688 C 275.941406 866.558594 275.664062 867.46875 275.476562 868.402344 C 275.292969 869.339844 275.199219 870.285156 275.199219 871.238281 C 275.195312 872.195312 275.289062 873.140625 275.476562 874.074219 C 275.660156 875.011719 275.9375 875.921875 276.304688 876.804688 C 276.667969 877.683594 277.117188 878.523438 277.644531 879.316406 C 278.175781 880.109375 278.78125 880.84375 279.453125 881.519531 C 280.128906 882.195312 280.863281 882.796875 281.65625 883.328125 C 282.453125 883.859375 283.289062 884.308594 284.171875 884.671875 C 285.054688 885.039062 285.964844 885.3125 286.898438 885.5 C 287.835938 885.683594 288.78125 885.777344 289.738281 885.777344 L 347.878906 885.777344 C 348.832031 885.777344 349.78125 885.683594 350.714844 885.5 C 351.652344 885.3125 352.5625 885.039062 353.445312 884.671875 C 354.324219 884.308594 355.164062 883.859375 355.957031 883.328125 C 356.75 882.796875 357.484375 882.195312 358.160156 881.519531 C 358.835938 880.84375 359.4375 880.109375 359.96875 879.316406 C 360.5 878.523438 360.949219 877.683594 361.3125 876.804688 C 361.679688 875.921875 361.953125 875.011719 362.140625 874.074219 C 362.324219 873.140625 362.417969 872.191406 362.417969 871.238281 C 362.417969 870.285156 362.324219 869.339844 362.136719 868.402344 C 361.949219 867.46875 361.675781 866.558594 361.308594 865.679688 C 360.941406 864.796875 360.496094 863.960938 359.964844 863.167969 C 359.433594 862.375 358.832031 861.640625 358.15625 860.964844 C 357.480469 860.289062 356.746094 859.6875 355.953125 859.160156 C 355.160156 858.628906 354.324219 858.183594 353.441406 857.816406 C 352.558594 857.453125 351.648438 857.175781 350.714844 856.992188 C 349.777344 856.804688 348.832031 856.710938 347.878906 856.714844 Z M 289.738281 856.714844 " fill-opacity="1" fill-rule="nonzero"/><path fill="#7ed957" d="M 551.371094 813.109375 C 550.417969 813.109375 549.472656 813.203125 548.539062 813.390625 C 547.605469 813.578125 546.695312 813.851562 545.816406 814.21875 C 544.933594 814.582031 544.097656 815.03125 543.304688 815.558594 C 542.511719 816.089844 541.777344 816.691406 541.101562 817.367188 C 540.429688 818.039062 539.828125 818.773438 539.296875 819.566406 C 538.765625 820.359375 538.320312 821.195312 537.953125 822.078125 C 537.589844 822.957031 537.3125 823.867188 537.125 824.800781 C 536.941406 825.738281 536.847656 826.679688 536.847656 827.636719 L 536.847656 914.855469 C 536.847656 915.808594 536.941406 916.753906 537.125 917.6875 C 537.3125 918.625 537.589844 919.53125 537.953125 920.414062 C 538.320312 921.292969 538.765625 922.128906 539.296875 922.921875 C 539.828125 923.714844 540.429688 924.449219 541.101562 925.125 C 541.777344 925.796875 542.511719 926.402344 543.304688 926.929688 C 544.097656 927.460938 544.933594 927.90625 545.816406 928.273438 C 546.695312 928.636719 547.605469 928.914062 548.539062 929.101562 C 549.472656 929.289062 550.417969 929.378906 551.371094 929.382812 C 552.328125 929.382812 553.269531 929.289062 554.207031 929.101562 C 555.144531 928.917969 556.050781 928.640625 556.933594 928.277344 C 557.816406 927.914062 558.652344 927.464844 559.445312 926.933594 C 560.238281 926.40625 560.972656 925.804688 561.648438 925.128906 C 562.324219 924.453125 562.925781 923.722656 563.457031 922.929688 C 563.988281 922.136719 564.4375 921.296875 564.800781 920.417969 C 565.167969 919.535156 565.445312 918.625 565.628906 917.691406 C 565.816406 916.753906 565.910156 915.808594 565.910156 914.855469 L 565.910156 827.636719 C 565.910156 826.679688 565.816406 825.734375 565.628906 824.800781 C 565.445312 823.863281 565.167969 822.957031 564.800781 822.074219 C 564.4375 821.191406 563.988281 820.355469 563.457031 819.5625 C 562.925781 818.769531 562.324219 818.035156 561.648438 817.363281 C 560.972656 816.6875 560.238281 816.085938 559.445312 815.554688 C 558.652344 815.027344 557.816406 814.578125 556.933594 814.214844 C 556.050781 813.847656 555.144531 813.574219 554.207031 813.386719 C 553.269531 813.203125 552.328125 813.109375 551.371094 813.109375 Z M 551.371094 813.109375 " fill-opacity="1" fill-rule="nonzero"/><path fill="#7ed957" d="M 478.703125 813.109375 C 476.773438 813.105469 474.917969 813.472656 473.136719 814.210938 C 471.355469 814.949219 469.78125 815.996094 468.417969 817.359375 L 424.8125 860.964844 C 424.136719 861.640625 423.535156 862.375 423.003906 863.167969 C 422.472656 863.960938 422.027344 864.800781 421.660156 865.679688 C 421.292969 866.5625 421.019531 867.472656 420.832031 868.410156 C 420.644531 869.34375 420.554688 870.289062 420.554688 871.246094 C 420.554688 872.199219 420.644531 873.144531 420.832031 874.082031 C 421.019531 875.019531 421.292969 875.925781 421.660156 876.808594 C 422.027344 877.691406 422.472656 878.527344 423.003906 879.324219 C 423.535156 880.117188 424.136719 880.851562 424.8125 881.527344 L 468.417969 925.128906 C 469.089844 925.804688 469.824219 926.40625 470.621094 926.9375 C 471.414062 927.46875 472.25 927.917969 473.132812 928.28125 C 474.015625 928.648438 474.925781 928.925781 475.859375 929.109375 C 476.796875 929.296875 477.742188 929.390625 478.695312 929.390625 C 479.652344 929.390625 480.597656 929.296875 481.535156 929.109375 C 482.46875 928.925781 483.378906 928.648438 484.261719 928.28125 C 485.144531 927.917969 485.980469 927.46875 486.773438 926.9375 C 487.566406 926.40625 488.300781 925.804688 488.976562 925.128906 C 489.652344 924.453125 490.253906 923.71875 490.785156 922.925781 C 491.316406 922.132812 491.765625 921.296875 492.128906 920.414062 C 492.496094 919.53125 492.773438 918.621094 492.957031 917.6875 C 493.144531 916.75 493.238281 915.804688 493.238281 914.847656 C 493.238281 913.894531 493.144531 912.949219 492.957031 912.011719 C 492.773438 911.074219 492.496094 910.167969 492.128906 909.285156 C 491.765625 908.402344 491.316406 907.566406 490.785156 906.769531 C 490.253906 905.976562 489.652344 905.242188 488.976562 904.570312 L 455.648438 871.238281 L 488.976562 837.910156 C 489.652344 837.234375 490.253906 836.5 490.785156 835.707031 C 491.3125 834.914062 491.761719 834.074219 492.125 833.195312 C 492.492188 832.3125 492.765625 831.40625 492.953125 830.46875 C 493.136719 829.535156 493.230469 828.589844 493.230469 827.636719 C 493.230469 826.679688 493.136719 825.734375 492.953125 824.800781 C 492.765625 823.863281 492.492188 822.957031 492.125 822.074219 C 491.761719 821.195312 491.3125 820.355469 490.785156 819.5625 C 490.253906 818.769531 489.652344 818.035156 488.976562 817.359375 C 487.613281 816 486.042969 814.949219 484.261719 814.214844 C 482.484375 813.476562 480.628906 813.109375 478.703125 813.109375 Z M 478.703125 813.109375 " fill-opacity="1" fill-rule="nonzero"/><path fill="#7ed957" d="M 435.085938 856.714844 C 434.132812 856.714844 433.1875 856.808594 432.253906 856.992188 C 431.316406 857.179688 430.410156 857.457031 429.527344 857.820312 C 428.648438 858.1875 427.8125 858.632812 427.019531 859.164062 C 426.226562 859.695312 425.492188 860.296875 424.816406 860.96875 C 424.144531 861.644531 423.542969 862.378906 423.011719 863.171875 C 422.480469 863.964844 422.035156 864.800781 421.667969 865.679688 C 421.304688 866.5625 421.027344 867.46875 420.839844 868.40625 C 420.65625 869.339844 420.5625 870.285156 420.5625 871.238281 C 420.5625 872.191406 420.652344 873.136719 420.839844 874.074219 C 421.023438 875.007812 421.300781 875.917969 421.664062 876.800781 C 422.03125 877.683594 422.476562 878.519531 423.007812 879.3125 C 423.535156 880.105469 424.140625 880.839844 424.8125 881.515625 C 425.488281 882.191406 426.222656 882.792969 427.015625 883.324219 C 427.808594 883.855469 428.644531 884.300781 429.527344 884.667969 C 430.40625 885.035156 431.316406 885.308594 432.25 885.496094 C 433.1875 885.683594 434.132812 885.777344 435.085938 885.777344 L 493.230469 885.777344 C 494.183594 885.777344 495.128906 885.683594 496.066406 885.5 C 497.003906 885.3125 497.910156 885.039062 498.792969 884.671875 C 499.675781 884.308594 500.515625 883.859375 501.308594 883.328125 C 502.101562 882.796875 502.835938 882.195312 503.511719 881.519531 C 504.1875 880.84375 504.789062 880.109375 505.320312 879.316406 C 505.851562 878.523438 506.296875 877.683594 506.664062 876.804688 C 507.027344 875.921875 507.304688 875.011719 507.488281 874.074219 C 507.675781 873.140625 507.769531 872.191406 507.769531 871.238281 C 507.769531 870.285156 507.675781 869.339844 507.488281 868.402344 C 507.300781 867.46875 507.023438 866.558594 506.660156 865.679688 C 506.292969 864.796875 505.84375 863.960938 505.316406 863.167969 C 504.785156 862.375 504.179688 861.640625 503.507812 860.964844 C 502.832031 860.289062 502.097656 859.6875 501.304688 859.160156 C 500.511719 858.628906 499.671875 858.183594 498.789062 857.816406 C 497.910156 857.453125 497 857.175781 496.0625 856.992188 C 495.128906 856.804688 494.183594 856.710938 493.230469 856.714844 Z M 435.085938 856.714844 " fill-opacity="1" fill-rule="nonzero"/></svg>