<svg width="50" height="50" viewBox="0 0 50 50" fill="none" xmlns="http://www.w3.org/2000/svg">
<mask id="mask0_2356_379" style="mask-type:luminance" maskUnits="userSpaceOnUse" x="0" y="0" width="45" height="45">
<path d="M0 0H44.6791V44.663H0V0Z" fill="white"/>
</mask>
<g mask="url(#mask0_2356_379)">
<path d="M2.67905 0C1.2104 0 0 1.2104 0 2.67929V41.9761C0 43.4449 1.2104 44.6561 2.67905 44.6561H21.0182C21.0966 44.6561 21.1737 44.646 21.2495 44.6256C21.3251 44.6052 21.3971 44.5754 21.4651 44.5361C21.533 44.4969 21.5947 44.4494 21.6501 44.394C21.7056 44.3383 21.7528 44.2766 21.792 44.2087C21.9264 43.9754 22.0944 43.7644 22.2898 43.5832C22.2979 43.5755 22.3058 43.5678 22.3135 43.5602L24.1144 41.7593L24.9623 42.6083C25.0461 42.6918 25.1426 42.7563 25.252 42.8015C25.3612 42.8468 25.4752 42.8694 25.5936 42.8694H43.7627C43.8213 42.8694 43.8794 42.8636 43.937 42.8521C43.9944 42.8406 44.0503 42.8238 44.1043 42.8012C44.1585 42.7787 44.2099 42.7513 44.2586 42.7187C44.3073 42.686 44.3525 42.6491 44.394 42.6075C44.4353 42.566 44.4725 42.5209 44.5049 42.4722C44.5375 42.4234 44.5649 42.3721 44.5874 42.3178C44.6098 42.2636 44.6268 42.2079 44.6381 42.1503C44.6496 42.0927 44.6554 42.0346 44.6551 41.9761V30.9529C44.6318 30.8386 44.5877 30.733 44.5231 30.636C44.4583 30.5391 44.3777 30.4577 44.2812 30.3924C44.3777 30.3269 44.4583 30.2458 44.5231 30.1488C44.5877 30.0518 44.6318 29.9462 44.6551 29.832V2.67929C44.6551 1.2104 43.445 0 41.9761 0H2.67905ZM2.67905 1.78595H41.9761C42.4863 1.78595 42.8694 2.16878 42.8694 2.67929V27.6762L39.9019 24.7086C39.8603 24.6671 39.8152 24.6301 39.7665 24.5975C39.7178 24.5651 39.6662 24.5375 39.6122 24.5152C39.5579 24.4926 39.5022 24.4758 39.4446 24.4643C39.3873 24.453 39.3292 24.4472 39.2704 24.4472C39.2118 24.4472 39.1537 24.453 39.0964 24.4643C39.0388 24.4758 38.9831 24.4926 38.9288 24.5152C38.8748 24.5375 38.8232 24.5651 38.7745 24.5975C38.7258 24.6301 38.6807 24.6671 38.6391 24.7086L33.5875 29.7612L28.5347 34.813C28.4934 34.8543 28.4562 34.8994 28.4236 34.9484C28.3912 34.9971 28.3636 35.0485 28.341 35.1027C28.3187 35.157 28.3017 35.2129 28.2901 35.2703C28.2789 35.3279 28.2731 35.3859 28.2731 35.4445C28.2731 35.5033 28.2789 35.5614 28.2901 35.619C28.3017 35.6764 28.3187 35.7323 28.341 35.7865C28.3636 35.8408 28.3912 35.8921 28.4236 35.9409C28.4562 35.9898 28.4934 36.035 28.5347 36.0762L33.5429 41.0837H25.9637L24.7456 39.8656C24.7041 39.8241 24.659 39.7871 24.6102 39.7545C24.5615 39.7218 24.5099 39.6942 24.4557 39.6719C24.4017 39.6493 24.3457 39.6325 24.2881 39.621C24.2305 39.6095 24.1724 39.6037 24.1139 39.6037C24.0553 39.6037 23.9972 39.6095 23.9396 39.621C23.882 39.6325 23.8261 39.6493 23.7721 39.6719C23.7179 39.6942 23.6662 39.7218 23.6175 39.7545C23.5688 39.7871 23.5237 39.8241 23.4822 39.8656L21.075 42.2737C20.8883 42.4467 20.7546 42.6668 20.6003 42.8694H2.67905C2.16878 42.8694 1.78572 42.4866 1.78572 41.9761V2.67929C1.78572 2.16878 2.16878 1.78595 2.67905 1.78595ZM39.2704 26.6031L43.0597 30.3924L34.2188 39.2334L30.4294 35.4443L34.85 31.0237L39.2704 26.6031ZM42.8694 33.1087V41.0837H34.8944L42.8694 33.1087Z" fill="#7ED957"/>
</g>
<path d="M21.0494 42.2971C21.0079 42.3379 20.9707 42.3823 20.9381 42.4305C20.9054 42.4785 20.8776 42.5294 20.8548 42.5829C20.832 42.6364 20.8145 42.6919 20.8025 42.7488C20.7905 42.8056 20.7842 42.8633 20.7833 42.9216C20.7826 42.9797 20.7876 43.0375 20.7982 43.0946C20.8087 43.152 20.8246 43.2077 20.8462 43.2619C20.8675 43.3159 20.8939 43.3675 20.9254 43.4165C20.957 43.4654 20.993 43.5108 21.0334 43.5528C21.0737 43.5946 21.1179 43.6323 21.1656 43.6656C21.2134 43.6987 21.2638 43.7273 21.3171 43.7506C21.3703 43.7741 21.4256 43.7921 21.4824 43.8048C21.5391 43.8173 21.5967 43.8245 21.655 43.8257C21.7131 43.8272 21.7709 43.8231 21.8283 43.813C21.8857 43.8032 21.9416 43.7878 21.9958 43.7669C22.0503 43.7463 22.1022 43.7203 22.1514 43.6894C22.2006 43.6584 22.2464 43.6229 22.2889 43.5831C22.767 43.1393 23.3997 42.8697 24.1128 42.8697L27.6856 42.8693C27.7442 42.8693 27.8023 42.8635 27.8596 42.852C27.9173 42.8404 27.9729 42.8236 28.0272 42.8011C28.0814 42.7788 28.1328 42.7512 28.1815 42.7188C28.2302 42.6861 28.2754 42.6492 28.3169 42.6076C28.3582 42.5661 28.3951 42.521 28.4278 42.4723C28.4604 42.4235 28.4878 42.3722 28.5103 42.3179C28.5327 42.2639 28.5497 42.208 28.5612 42.1506C28.5725 42.093 28.5783 42.035 28.5783 41.9764C28.5783 41.9178 28.5725 41.8597 28.5612 41.8024C28.5497 41.7448 28.5327 41.6891 28.5103 41.6349C28.4878 41.5806 28.4604 41.5292 28.4278 41.4805C28.3951 41.4318 28.3582 41.3867 28.3169 41.3452C28.2754 41.3039 28.2302 41.2669 28.1815 41.2343C28.1328 41.2016 28.0814 41.1743 28.0272 41.1517C27.9729 41.1294 27.9173 41.1123 27.8596 41.1008C27.8023 41.0895 27.7442 41.0838 27.6856 41.0838H24.7894L29.1651 36.7081L33.5857 41.1287C33.6272 41.1699 33.6723 41.2071 33.7211 41.2398C33.7698 41.2722 33.8214 41.2998 33.8756 41.3224C33.9296 41.3447 33.9856 41.3617 34.0432 41.3732C34.1008 41.3845 34.1589 41.3903 34.2174 41.3903C34.2762 41.3903 34.3343 41.3845 34.3917 41.3732C34.4493 41.3617 34.5052 41.3447 34.5594 41.3224C34.6134 41.2998 34.665 41.2724 34.7138 41.2398C34.7625 41.2071 34.8076 41.1699 34.8491 41.1287C34.8907 41.0871 34.9276 41.042 34.9603 40.9933C34.9929 40.9443 35.0205 40.893 35.0428 40.8387C35.0654 40.7845 35.0822 40.7288 35.0937 40.6712C35.1052 40.6136 35.111 40.5555 35.111 40.4969C35.111 40.4381 35.1052 40.3801 35.0937 40.3227C35.0822 40.2651 35.0654 40.2092 35.0428 40.1549C35.0205 40.1007 34.9929 40.0493 34.9603 40.0006C34.9276 39.9519 34.8907 39.9067 34.8491 39.8652L29.7968 34.8129C29.7553 34.7714 29.7102 34.7344 29.6614 34.702C29.6127 34.6694 29.5611 34.642 29.5071 34.6194C29.4529 34.5971 29.3969 34.5803 29.3396 34.5688C29.282 34.5575 29.2239 34.5518 29.1653 34.5518C29.1068 34.5518 29.0487 34.5575 28.9911 34.569C28.9337 34.5803 28.8778 34.5974 28.8236 34.6199C28.7695 34.6422 28.7179 34.6698 28.6692 34.7025C28.6205 34.7349 28.5756 34.7721 28.5341 34.8134L21.0494 42.2971Z" fill="#7ED957"/>
<path d="M33.588 29.7612C33.5465 29.8025 33.5095 29.8476 33.4769 29.8963C33.4443 29.9451 33.4169 29.9967 33.3943 30.0507C33.3718 30.1049 33.355 30.1606 33.3435 30.2182C33.3319 30.2756 33.3262 30.3337 33.3262 30.3925C33.3262 30.451 33.3319 30.5091 33.3432 30.5665C33.3547 30.6241 33.3715 30.68 33.3941 30.734C33.4164 30.7882 33.4438 30.8398 33.4764 30.8886C33.5091 30.9373 33.546 30.9824 33.5873 31.0239L38.6396 36.0763C38.6812 36.1178 38.7263 36.1547 38.775 36.1874C38.8237 36.22 38.8753 36.2474 38.9296 36.27C38.9836 36.2923 39.0395 36.3093 39.0971 36.3208C39.1547 36.3321 39.2128 36.3379 39.2714 36.3379C39.3299 36.3379 39.3882 36.3321 39.4456 36.3208C39.5032 36.3093 39.5591 36.2923 39.6131 36.27C39.6674 36.2474 39.719 36.22 39.7677 36.1874C39.8164 36.1547 39.8616 36.1178 39.9031 36.0763L44.9554 31.0239C44.9967 30.9824 45.0336 30.9373 45.0663 30.8886C45.0989 30.8398 45.1263 30.7882 45.1486 30.734C45.1712 30.68 45.188 30.6241 45.1995 30.5665C45.2108 30.5091 45.2165 30.451 45.2165 30.3925C45.2165 30.3337 45.2108 30.2756 45.1993 30.2182C45.1877 30.1606 45.1709 30.1049 45.1484 30.0507C45.1261 29.9964 45.0985 29.9451 45.0658 29.8963C45.0332 29.8476 44.9962 29.8025 44.9547 29.7612L39.9024 24.7089C39.8611 24.6674 39.816 24.6304 39.7672 24.598C39.7185 24.5654 39.6669 24.538 39.6129 24.5154C39.5587 24.4931 39.503 24.4761 39.4454 24.4648C39.388 24.4533 39.3299 24.4478 39.2714 24.4478C39.2128 24.4478 39.1547 24.4533 39.0973 24.4648C39.0397 24.4763 38.9841 24.4931 38.9298 24.5154C38.8758 24.538 38.8242 24.5654 38.7755 24.598C38.7268 24.6304 38.6816 24.6674 38.6404 24.7089L33.588 29.7612ZM35.4825 30.3922L39.2714 26.6033L43.0602 30.3922L39.2714 34.1811L35.4825 30.3922Z" fill="#7ED957"/>
<mask id="mask1_2356_379" style="mask-type:luminance" maskUnits="userSpaceOnUse" x="19" y="41" width="17" height="9">
<path d="M19.6113 41.0378H35.7711V50H19.6113V41.0378Z" fill="white"/>
</mask>
<g mask="url(#mask1_2356_379)">
<path d="M24.1144 41.0837C21.6559 41.0837 19.6484 43.0903 19.6484 45.5487C19.6484 48.0072 21.6559 50.0145 24.1144 50.0145H34.8318C34.8906 50.0145 34.9485 50.0087 35.0061 49.9972C35.0637 49.9857 35.1194 49.9689 35.1736 49.9463C35.2276 49.924 35.2792 49.8964 35.3279 49.8637C35.3767 49.8311 35.4218 49.7941 35.4631 49.7526C35.5046 49.7111 35.5415 49.666 35.5742 49.6172C35.6066 49.5685 35.6342 49.5172 35.6565 49.4629C35.6788 49.4087 35.6959 49.353 35.7074 49.2954C35.7187 49.2378 35.7244 49.1799 35.7244 49.1211V41.9761C35.7244 41.9176 35.7187 41.8595 35.7072 41.8021C35.6956 41.7447 35.6788 41.6888 35.6563 41.6348C35.634 41.5806 35.6063 41.5292 35.5737 41.4805C35.5413 41.4318 35.5043 41.3866 35.4628 41.3454C35.4213 41.3038 35.3764 41.2669 35.3277 41.2342C35.279 41.2016 35.2274 41.1742 35.1734 41.1517C35.1191 41.1293 35.0634 41.1123 35.0061 41.101C34.9485 41.0895 34.8904 41.0837 34.8318 41.0837H24.1144ZM24.1144 42.8695H33.9385V48.2288H24.1144C22.6145 48.2288 21.4344 47.0486 21.4344 45.5487C21.4344 44.0489 22.6145 42.8695 24.1144 42.8695Z" fill="#7ED957"/>
</g>
<path d="M25.0069 45.5489C25.0069 45.6074 25.0011 45.6655 24.9896 45.7231C24.9783 45.7805 24.9613 45.8364 24.939 45.8906C24.9164 45.9449 24.8888 45.9962 24.8564 46.045C24.8238 46.0937 24.7868 46.1388 24.7453 46.1803C24.7038 46.2219 24.6586 46.2588 24.6099 46.2915C24.5612 46.3241 24.5096 46.3515 24.4556 46.374C24.4013 46.3964 24.3454 46.4134 24.2881 46.4247C24.2304 46.4362 24.1724 46.442 24.1138 46.442C24.055 46.442 23.9969 46.4362 23.9395 46.4247C23.8819 46.4134 23.826 46.3964 23.772 46.374C23.7178 46.3515 23.6664 46.3241 23.6174 46.2915C23.5687 46.2588 23.5236 46.2219 23.4823 46.1803C23.4408 46.1388 23.4038 46.0937 23.3712 46.045C23.3386 45.9962 23.3109 45.9449 23.2886 45.8906C23.2661 45.8364 23.2493 45.7805 23.2377 45.7231C23.2265 45.6655 23.2207 45.6074 23.2207 45.5489C23.2207 45.4903 23.2262 45.4322 23.2377 45.3746C23.2493 45.317 23.2661 45.2613 23.2886 45.2071C23.3109 45.1528 23.3386 45.1015 23.3712 45.0527C23.4038 45.0038 23.4408 44.9587 23.4823 44.9174C23.5236 44.8759 23.5687 44.8389 23.6174 44.8063C23.6664 44.7736 23.7178 44.7462 23.772 44.7237C23.826 44.7014 23.8819 44.6843 23.9395 44.6728C23.9969 44.6615 24.055 44.6558 24.1138 44.6558C24.1724 44.6558 24.2304 44.6615 24.2881 44.6728C24.3454 44.6843 24.4013 44.7014 24.4556 44.7237C24.5096 44.7462 24.5612 44.7736 24.6099 44.8063C24.6586 44.8389 24.7038 44.8759 24.7453 44.9174C24.7868 44.9587 24.8238 45.0038 24.8564 45.0527C24.8888 45.1015 24.9164 45.1528 24.939 45.2071C24.9613 45.2613 24.9783 45.317 24.9896 45.3746C25.0011 45.4322 25.0069 45.4903 25.0069 45.5489Z" fill="#7ED957"/>
<mask id="mask2_2356_379" style="mask-type:luminance" maskUnits="userSpaceOnUse" x="41" y="41" width="9" height="9">
<path d="M41.0527 41.0378H49.9988V50H41.0527V41.0378Z" fill="white"/>
</mask>
<g mask="url(#mask2_2356_379)">
<path d="M41.9746 41.0837C41.9161 41.0837 41.858 41.0895 41.8006 41.101C41.743 41.1123 41.6874 41.1293 41.6331 41.1517C41.5791 41.1742 41.5277 41.2016 41.479 41.2342C41.4303 41.2669 41.3852 41.3038 41.3436 41.3454C41.3024 41.3866 41.2652 41.4318 41.2328 41.4805C41.2001 41.5292 41.1728 41.5806 41.1502 41.6348C41.1279 41.6888 41.1108 41.7447 41.0993 41.8021C41.0878 41.8595 41.0823 41.9176 41.082 41.9761V49.1211C41.082 49.1799 41.0878 49.2378 41.0993 49.2954C41.1106 49.353 41.1276 49.4087 41.15 49.4629C41.1723 49.5172 41.1999 49.5685 41.2325 49.6172C41.2649 49.666 41.3019 49.7111 41.3434 49.7526C41.3849 49.7941 41.4301 49.8311 41.4788 49.8637C41.5275 49.8964 41.5789 49.924 41.6329 49.9463C41.6871 49.9689 41.743 49.9859 41.8004 49.9972C41.858 50.0087 41.9161 50.0145 41.9746 50.0145H49.1197C49.1782 50.0145 49.2363 50.009 49.2939 49.9974C49.3515 49.9859 49.4074 49.9691 49.4615 49.9465C49.5157 49.9242 49.5673 49.8966 49.616 49.864C49.6647 49.8313 49.7099 49.7944 49.7514 49.7529C49.7929 49.7116 49.8299 49.6665 49.8625 49.6175C49.8952 49.5688 49.9225 49.5174 49.9451 49.4632C49.9674 49.4089 49.9844 49.353 49.996 49.2954C50.0072 49.238 50.013 49.1799 50.013 49.1211V41.9761C50.013 41.9176 50.0072 41.8595 49.9957 41.8021C49.9842 41.7445 49.9672 41.6886 49.9448 41.6346C49.9223 41.5803 49.8949 41.529 49.8623 41.4802C49.8296 41.4315 49.7927 41.3864 49.7512 41.3449C49.7096 41.3036 49.6645 41.2666 49.6158 41.234C49.5671 41.2013 49.5155 41.174 49.4615 41.1514C49.4072 41.1291 49.3513 41.1123 49.2939 41.1008C49.2363 41.0893 49.1782 41.0837 49.1197 41.0837H41.9746ZM42.868 42.8695H48.2271V48.2288H42.868V42.8695Z" fill="#7ED957"/>
</g>
<mask id="mask3_2356_379" style="mask-type:luminance" maskUnits="userSpaceOnUse" x="26" y="41" width="10" height="9">
<path d="M26.7363 41.0378H35.7686V50H26.7363V41.0378Z" fill="white"/>
</mask>
<g mask="url(#mask3_2356_379)">
<path d="M27.6863 41.0837C27.6277 41.0837 27.5697 41.0893 27.5121 41.1008C27.4547 41.1123 27.3988 41.1291 27.3448 41.1514C27.2905 41.174 27.2389 41.2013 27.1902 41.234C27.1415 41.2666 27.0963 41.3036 27.0548 41.3449C27.0135 41.3864 26.9763 41.4315 26.9437 41.4802C26.9113 41.529 26.8837 41.5803 26.8611 41.6346C26.8388 41.6886 26.8218 41.7445 26.8102 41.8021C26.7987 41.8595 26.793 41.9176 26.793 41.9761V49.1211C26.793 49.1799 26.7987 49.238 26.8102 49.2954C26.8215 49.353 26.8386 49.4089 26.8609 49.4632C26.8835 49.5174 26.9108 49.5688 26.9435 49.6175C26.9761 49.6665 27.0131 49.7116 27.0546 49.7529C27.0961 49.7944 27.1412 49.8313 27.19 49.864C27.2387 49.8966 27.2903 49.9242 27.3445 49.9465C27.3988 49.9691 27.4545 49.9859 27.5121 49.9974C27.5697 50.009 27.6277 50.0145 27.6863 50.0145H34.8313C34.8901 50.0145 34.948 50.0087 35.0056 49.9972C35.0632 49.9859 35.1189 49.9689 35.1731 49.9463C35.2271 49.924 35.2787 49.8964 35.3274 49.8637C35.3762 49.8311 35.4213 49.7941 35.4626 49.7526C35.5041 49.7111 35.5411 49.666 35.5737 49.6172C35.6061 49.5685 35.6337 49.5172 35.656 49.4629C35.6783 49.4087 35.6954 49.353 35.7069 49.2954C35.7182 49.2378 35.7239 49.1799 35.7239 49.1211V41.9761C35.7239 41.9176 35.7182 41.8595 35.7067 41.8021C35.6951 41.7447 35.6783 41.6888 35.6558 41.6348C35.6335 41.5806 35.6059 41.5292 35.5732 41.4805C35.5408 41.4318 35.5039 41.3866 35.4623 41.3454C35.4208 41.3038 35.3759 41.2669 35.3272 41.2342C35.2785 41.2016 35.2269 41.1742 35.1729 41.1517C35.1186 41.1293 35.0629 41.1123 35.0056 41.101C34.948 41.0895 34.8899 41.0837 34.8313 41.0837H27.6863ZM28.5789 42.8695H33.938V48.2288H28.5789V42.8695Z" fill="#7ED957"/>
</g>
<mask id="mask4_2356_379" style="mask-type:luminance" maskUnits="userSpaceOnUse" x="33" y="41" width="10" height="9">
<path d="M33.9277 41.0378H42.8986V50H33.9277V41.0378Z" fill="white"/>
</mask>
<g mask="url(#mask4_2356_379)">
<path d="M34.8328 41.0837C34.7742 41.0837 34.7161 41.0893 34.6585 41.1008C34.6012 41.1123 34.5453 41.1291 34.4912 41.1514C34.437 41.174 34.3854 41.2013 34.3367 41.234C34.288 41.2666 34.2428 41.3036 34.2013 41.3449C34.16 41.3864 34.1228 41.4315 34.0902 41.4802C34.0578 41.529 34.0302 41.5803 34.0076 41.6346C33.9853 41.6886 33.9683 41.7445 33.9567 41.8021C33.9452 41.8595 33.9395 41.9176 33.9395 41.9761V49.1211C33.9395 49.1799 33.9452 49.238 33.9567 49.2954C33.968 49.353 33.9851 49.4089 34.0074 49.4632C34.0299 49.5174 34.0575 49.5688 34.0899 49.6175C34.1226 49.6665 34.1595 49.7116 34.2011 49.7529C34.2426 49.7944 34.2877 49.8316 34.3364 49.864C34.3852 49.8966 34.4368 49.9242 34.491 49.9465C34.5453 49.9691 34.6009 49.9859 34.6585 49.9974C34.7161 50.009 34.7742 50.0145 34.8328 50.0145H41.9771C42.0357 50.0145 42.0937 50.009 42.1513 49.9974C42.2089 49.9859 42.2649 49.9691 42.3189 49.9465C42.3731 49.9242 42.4247 49.8966 42.4734 49.864C42.5222 49.8313 42.5673 49.7944 42.6088 49.7529C42.6503 49.7116 42.6873 49.6665 42.7199 49.6175C42.7526 49.5688 42.7799 49.5174 42.8025 49.4632C42.8248 49.4089 42.8419 49.353 42.8534 49.2954C42.8647 49.238 42.8704 49.1799 42.8704 49.1211V41.9761C42.8704 41.9176 42.8647 41.8595 42.8531 41.8021C42.8416 41.7445 42.8246 41.6886 42.8023 41.6346C42.7797 41.5803 42.7523 41.529 42.7197 41.4802C42.6871 41.4315 42.6501 41.3864 42.6086 41.3449C42.5671 41.3036 42.5219 41.2666 42.4732 41.234C42.4245 41.2013 42.3729 41.174 42.3189 41.1514C42.2646 41.1291 42.2087 41.1123 42.1513 41.1008C42.0937 41.0893 42.0357 41.0837 41.9771 41.0837H34.8328ZM35.7254 42.8695H41.0845V48.2288H35.7254V42.8695Z" fill="#7ED957"/>
</g>
<path d="M6.25076 8.93091C6.1922 8.93091 6.13411 8.93667 6.07651 8.94795C6.0189 8.95947 5.96298 8.97627 5.90874 8.99883C5.85473 9.02115 5.80313 9.04876 5.75441 9.0814C5.70568 9.11404 5.66056 9.151 5.61904 9.19252C5.57752 9.23381 5.54055 9.27917 5.50791 9.32789C5.47527 9.37662 5.44791 9.42822 5.42535 9.48222C5.40302 9.53647 5.38598 9.59239 5.37446 9.64999C5.36318 9.70736 5.35742 9.76544 5.35742 9.82425C5.35742 9.88281 5.36318 9.94089 5.37446 9.9985C5.38598 10.0561 5.40302 10.112 5.42535 10.166C5.44791 10.2203 5.47527 10.2719 5.50791 10.3206C5.54055 10.3693 5.57752 10.4144 5.61904 10.456C5.66056 10.4975 5.70568 10.5345 5.75441 10.5671C5.80313 10.5997 5.85473 10.6271 5.90874 10.6497C5.96298 10.672 6.0189 10.689 6.07651 10.7005C6.13411 10.7118 6.1922 10.7176 6.25076 10.7176H13.3958C13.4543 10.7176 13.5127 10.7118 13.57 10.7005C13.6276 10.689 13.6836 10.672 13.7378 10.6497C13.7918 10.6271 13.8434 10.5997 13.8921 10.5671C13.9409 10.5345 13.986 10.4975 14.0275 10.456C14.069 10.4144 14.106 10.3693 14.1386 10.3206C14.1713 10.2719 14.1989 10.2203 14.2212 10.166C14.2438 10.112 14.2606 10.0561 14.2721 9.9985C14.2834 9.94089 14.2891 9.88281 14.2891 9.82425C14.2891 9.76544 14.2834 9.70736 14.2721 9.64999C14.2606 9.59239 14.2438 9.53647 14.2212 9.48222C14.1989 9.42822 14.1713 9.37662 14.1386 9.32789C14.106 9.27917 14.069 9.23381 14.0275 9.19252C13.986 9.151 13.9409 9.11404 13.8921 9.0814C13.8434 9.04876 13.7918 9.02115 13.7378 8.99883C13.6836 8.97627 13.6276 8.95947 13.57 8.94795C13.5127 8.93667 13.4543 8.93091 13.3958 8.93091H6.25076Z" fill="#7ED957"/>
<path d="M6.25076 12.5034C6.1922 12.5034 6.13411 12.5092 6.07651 12.5207C6.0189 12.532 5.96298 12.549 5.90874 12.5713C5.85473 12.5939 5.80313 12.6215 5.75441 12.6539C5.70568 12.6865 5.66056 12.7235 5.61904 12.765C5.57752 12.8066 5.54055 12.8517 5.50791 12.9004C5.47527 12.9494 5.44791 13.0007 5.42535 13.055C5.40302 13.1092 5.38598 13.1649 5.37446 13.2225C5.36318 13.2801 5.35742 13.3382 5.35742 13.3968C5.35742 13.4556 5.36318 13.5136 5.37446 13.5712C5.38598 13.6286 5.40302 13.6845 5.42535 13.7388C5.44791 13.793 5.47527 13.8444 5.50791 13.8933C5.54055 13.9421 5.57752 13.9872 5.61904 14.0287C5.66056 14.07 5.70568 14.1072 5.75441 14.1396C5.80313 14.1722 5.85473 14.1998 5.90874 14.2222C5.96298 14.2447 6.0189 14.2615 6.07651 14.2731C6.13411 14.2846 6.1922 14.2901 6.25076 14.2901H8.03744C8.096 14.2901 8.15408 14.2843 8.21169 14.2728C8.26905 14.2615 8.32497 14.2445 8.37898 14.2219C8.43322 14.1996 8.48458 14.172 8.53331 14.1394C8.58203 14.1067 8.62715 14.0698 8.66868 14.0282C8.7102 13.987 8.74716 13.9418 8.77956 13.8929C8.81221 13.8441 8.83957 13.7928 8.86213 13.7385C8.88445 13.6843 8.90149 13.6286 8.91277 13.571C8.92429 13.5136 8.93005 13.4556 8.93005 13.3968C8.93005 13.3382 8.92429 13.2801 8.91277 13.2227C8.90149 13.1651 8.88445 13.1092 8.86213 13.0552C8.83957 13.001 8.81221 12.9494 8.77956 12.9006C8.74716 12.8519 8.7102 12.8068 8.66868 12.7653C8.62715 12.724 8.58203 12.6868 8.53331 12.6541C8.48458 12.6217 8.43322 12.5941 8.37898 12.5716C8.32497 12.5493 8.26905 12.5322 8.21169 12.5207C8.15408 12.5094 8.096 12.5037 8.03744 12.5034H6.25076Z" fill="#7ED957"/>
<path d="M6.25076 16.0759C6.1922 16.0759 6.13411 16.0817 6.07651 16.093C6.0189 16.1045 5.96298 16.1213 5.90874 16.1439C5.85473 16.1662 5.80313 16.1938 5.75441 16.2264C5.70568 16.2591 5.66056 16.296 5.61904 16.3375C5.57752 16.3791 5.54055 16.4242 5.50791 16.4729C5.47527 16.5216 5.44791 16.5732 5.42535 16.6272C5.40302 16.6815 5.38598 16.7374 5.37446 16.795C5.36318 16.8524 5.35742 16.9107 5.35742 16.9693C5.35742 17.0278 5.36318 17.0859 5.37446 17.1435C5.38598 17.2011 5.40302 17.257 5.42535 17.311C5.44791 17.3653 5.47527 17.4169 5.50791 17.4656C5.54055 17.5143 5.57752 17.5595 5.61904 17.601C5.66056 17.6425 5.70568 17.6795 5.75441 17.7121C5.80313 17.7448 5.85473 17.7721 5.90874 17.7947C5.96298 17.817 6.0189 17.834 6.07651 17.8456C6.13411 17.8568 6.1922 17.8626 6.25076 17.8626H11.6091C11.6679 17.8626 11.726 17.8568 11.7834 17.8456C11.841 17.834 11.8969 17.817 11.9511 17.7947C12.0051 17.7721 12.0567 17.7448 12.1055 17.7121C12.1542 17.6795 12.1993 17.6425 12.2408 17.601C12.2823 17.5595 12.3193 17.5143 12.352 17.4656C12.3846 17.4169 12.4122 17.3653 12.4345 17.311C12.4571 17.257 12.4739 17.2011 12.4854 17.1435C12.4967 17.0859 12.5024 17.0278 12.5024 16.9693C12.5024 16.9107 12.4967 16.8524 12.4854 16.795C12.4739 16.7374 12.4571 16.6815 12.4345 16.6272C12.4122 16.5732 12.3846 16.5216 12.352 16.4729C12.3193 16.4242 12.2823 16.3791 12.2408 16.3375C12.1993 16.296 12.1542 16.2591 12.1055 16.2264C12.0567 16.1938 12.0051 16.1662 11.9511 16.1439C11.8969 16.1213 11.841 16.1045 11.7834 16.093C11.726 16.0817 11.6679 16.0759 11.6091 16.0759H6.25076Z" fill="#7ED957"/>
<path d="M18.7557 8.93091C18.6971 8.93091 18.639 8.93667 18.5814 8.94819C18.524 8.95971 18.4681 8.97651 18.4141 8.99907C18.3599 9.02139 18.3085 9.049 18.2598 9.08164C18.2111 9.11428 18.1659 9.15124 18.1244 9.19277C18.0831 9.23429 18.0459 9.27941 18.0135 9.32813C17.9809 9.37686 17.9535 9.42822 17.931 9.48246C17.9086 9.53671 17.8916 9.59239 17.8803 9.64999C17.8688 9.7076 17.8633 9.76568 17.8633 9.82425C17.8633 9.88281 17.8688 9.94089 17.8803 9.9985C17.8916 10.0559 17.9086 10.1118 17.931 10.166C17.9535 10.22 17.9809 10.2716 18.0135 10.3204C18.0459 10.3691 18.0831 10.4142 18.1244 10.4557C18.1659 10.4972 18.2111 10.5342 18.2598 10.5669C18.3085 10.5995 18.3599 10.6269 18.4141 10.6494C18.4681 10.6717 18.524 10.6888 18.5814 10.7003C18.639 10.7118 18.6971 10.7176 18.7557 10.7176H25.9007C25.9595 10.7176 26.0176 10.7118 26.0749 10.7005C26.1325 10.689 26.1885 10.672 26.2427 10.6497C26.2969 10.6271 26.3483 10.5997 26.397 10.5671C26.446 10.5345 26.4911 10.4975 26.5324 10.456C26.5739 10.4144 26.6111 10.3693 26.6435 10.3206C26.6762 10.2719 26.7038 10.2203 26.7261 10.166C26.7487 10.112 26.7655 10.0561 26.777 9.9985C26.7885 9.94089 26.794 9.88281 26.794 9.82425C26.794 9.76544 26.7885 9.70736 26.777 9.64999C26.7655 9.59239 26.7487 9.53647 26.7261 9.48222C26.7038 9.42798 26.6762 9.37662 26.6435 9.32789C26.6111 9.27917 26.5739 9.23381 26.5324 9.19252C26.4911 9.151 26.446 9.11404 26.397 9.0814C26.3483 9.04876 26.2969 9.02115 26.2427 8.99883C26.1885 8.97627 26.1325 8.95947 26.0749 8.94795C26.0176 8.93667 25.9595 8.93091 25.9007 8.93091H18.7557Z" fill="#7ED957"/>
<path d="M21.4344 12.5034C21.3758 12.5034 21.3177 12.5092 21.2601 12.5207C21.2025 12.532 21.1466 12.549 21.0926 12.5713C21.0383 12.5939 20.9867 12.6215 20.938 12.6539C20.8893 12.6865 20.8442 12.7235 20.8026 12.765C20.7611 12.8066 20.7241 12.8517 20.6915 12.9004C20.6589 12.9494 20.6315 13.0007 20.6089 13.055C20.5866 13.1092 20.5696 13.1649 20.5581 13.2225C20.5468 13.2801 20.541 13.3382 20.541 13.3968C20.541 13.4556 20.5468 13.5136 20.5581 13.5712C20.5696 13.6286 20.5866 13.6845 20.6089 13.7388C20.6315 13.793 20.6589 13.8444 20.6915 13.8933C20.7241 13.9421 20.7611 13.9872 20.8026 14.0287C20.8442 14.07 20.8893 14.1072 20.938 14.1396C20.9867 14.1722 21.0383 14.1998 21.0926 14.2222C21.1466 14.2447 21.2025 14.2615 21.2601 14.2731C21.3177 14.2846 21.3758 14.2901 21.4344 14.2901H23.2203C23.2789 14.2901 23.337 14.2846 23.3946 14.2731C23.4522 14.2615 23.5078 14.2447 23.5621 14.2222C23.6163 14.1998 23.6679 14.1722 23.7167 14.1396C23.7654 14.1072 23.8105 14.07 23.852 14.0287C23.8936 13.9872 23.9305 13.9421 23.9632 13.8933C23.9958 13.8444 24.0232 13.793 24.0457 13.7388C24.068 13.6845 24.0851 13.6286 24.0964 13.5712C24.1079 13.5136 24.1136 13.4556 24.1136 13.3968C24.1136 13.3382 24.1079 13.2801 24.0964 13.2225C24.0851 13.1649 24.068 13.1092 24.0457 13.055C24.0232 13.0007 23.9958 12.9494 23.9632 12.9004C23.9305 12.8517 23.8936 12.8066 23.852 12.765C23.8105 12.7235 23.7654 12.6865 23.7167 12.6539C23.6679 12.6215 23.6163 12.5939 23.5621 12.5713C23.5078 12.549 23.4522 12.532 23.3946 12.5207C23.337 12.5092 23.2789 12.5034 23.2203 12.5034H21.4344Z" fill="#7ED957"/>
<path d="M19.6492 16.0759C19.5906 16.0759 19.5325 16.0817 19.4749 16.093C19.4173 16.1045 19.3614 16.1213 19.3074 16.1439C19.2532 16.1662 19.2016 16.1938 19.1528 16.2264C19.1041 16.2591 19.059 16.296 19.0175 16.3375C18.976 16.3791 18.939 16.4242 18.9063 16.4729C18.8737 16.5216 18.8463 16.5732 18.8238 16.6272C18.8015 16.6815 18.7844 16.7374 18.7729 16.795C18.7616 16.8524 18.7559 16.9107 18.7559 16.9693C18.7559 17.0278 18.7616 17.0859 18.7729 17.1435C18.7844 17.2011 18.8015 17.257 18.8238 17.311C18.8463 17.3653 18.8737 17.4169 18.9063 17.4656C18.939 17.5143 18.976 17.5595 19.0175 17.601C19.059 17.6425 19.1041 17.6795 19.1528 17.7121C19.2016 17.7448 19.2532 17.7721 19.3074 17.7947C19.3614 17.817 19.4173 17.834 19.4749 17.8456C19.5325 17.8568 19.5906 17.8626 19.6492 17.8626H25.0075C25.0663 17.8626 25.1244 17.8568 25.1818 17.8456C25.2394 17.834 25.2953 17.817 25.3496 17.7947C25.4038 17.7721 25.4552 17.7448 25.5039 17.7121C25.5529 17.6795 25.598 17.6425 25.6393 17.601C25.6808 17.5595 25.718 17.5143 25.7504 17.4656C25.783 17.4169 25.8106 17.3653 25.833 17.311C25.8555 17.257 25.8723 17.2011 25.8838 17.1435C25.8954 17.0859 25.9009 17.0278 25.9009 16.9693C25.9009 16.9107 25.8954 16.8524 25.8838 16.795C25.8723 16.7374 25.8555 16.6815 25.833 16.6272C25.8106 16.5732 25.783 16.5216 25.7504 16.4729C25.718 16.4242 25.6808 16.3791 25.6393 16.3375C25.598 16.296 25.5529 16.2591 25.5039 16.2264C25.4552 16.1938 25.4038 16.1662 25.3496 16.1439C25.2953 16.1213 25.2394 16.1045 25.1818 16.093C25.1244 16.0817 25.0663 16.0759 25.0075 16.0759H19.6492Z" fill="#7ED957"/>
<path d="M31.2586 8.93091C31.1998 8.93091 31.1417 8.93667 31.0843 8.94795C31.0267 8.95947 30.9708 8.97627 30.9165 8.99883C30.8623 9.02115 30.8109 9.04876 30.7622 9.0814C30.7133 9.11404 30.6681 9.151 30.6269 9.19252C30.5853 9.23381 30.5481 9.27917 30.5157 9.32789C30.4831 9.37662 30.4555 9.42798 30.4332 9.48222C30.4106 9.53647 30.3938 9.59239 30.3823 9.64999C30.3708 9.70736 30.3652 9.76544 30.3652 9.82425C30.3652 9.88281 30.3708 9.94089 30.3823 9.9985C30.3938 10.0561 30.4106 10.112 30.4332 10.166C30.4555 10.2203 30.4831 10.2719 30.5157 10.3206C30.5481 10.3693 30.5853 10.4144 30.6269 10.456C30.6681 10.4975 30.7133 10.5345 30.7622 10.5671C30.8109 10.5997 30.8623 10.6271 30.9165 10.6497C30.9708 10.672 31.0267 10.689 31.0843 10.7005C31.1417 10.7118 31.1998 10.7176 31.2586 10.7176H38.4026C38.4614 10.7176 38.5195 10.7118 38.5771 10.7005C38.6345 10.689 38.6904 10.672 38.7447 10.6497C38.7989 10.6271 38.8503 10.5997 38.899 10.5671C38.9479 10.5345 38.9931 10.4975 39.0346 10.456C39.0759 10.4144 39.1131 10.3693 39.1455 10.3206C39.1781 10.2719 39.2057 10.2203 39.228 10.166C39.2506 10.112 39.2674 10.0561 39.2789 9.9985C39.2905 9.94089 39.296 9.88281 39.296 9.82425C39.296 9.76544 39.2905 9.70736 39.2789 9.64999C39.2674 9.59239 39.2506 9.53647 39.228 9.48222C39.2057 9.42822 39.1781 9.37662 39.1455 9.32789C39.1131 9.27917 39.0759 9.23381 39.0346 9.19252C38.9931 9.151 38.9479 9.11404 38.899 9.0814C38.8503 9.04876 38.7989 9.02115 38.7447 8.99883C38.6904 8.97627 38.6345 8.95947 38.5771 8.94795C38.5195 8.93667 38.4614 8.93091 38.4026 8.93091H31.2586Z" fill="#7ED957"/>
<path d="M36.6179 12.5034C36.5591 12.5034 36.5011 12.5092 36.4437 12.5207C36.3861 12.532 36.3302 12.549 36.2759 12.5713C36.2217 12.5939 36.1703 12.6215 36.1216 12.6539C36.0726 12.6865 36.0275 12.7235 35.9862 12.765C35.9447 12.8066 35.9077 12.8517 35.8751 12.9004C35.8425 12.9494 35.8149 13.0007 35.7925 13.055C35.77 13.1092 35.7532 13.1649 35.7417 13.2225C35.7304 13.2801 35.7246 13.3382 35.7246 13.3968C35.7246 13.4556 35.7304 13.5136 35.7417 13.5712C35.7532 13.6286 35.77 13.6845 35.7925 13.7388C35.8149 13.793 35.8425 13.8444 35.8751 13.8933C35.9075 13.9421 35.9447 13.9872 35.9862 14.0287C36.0275 14.07 36.0726 14.1072 36.1216 14.1396C36.1703 14.1722 36.2217 14.1998 36.2759 14.2222C36.3302 14.2447 36.3861 14.2615 36.4437 14.2731C36.5011 14.2846 36.5591 14.2901 36.6179 14.2901H38.4037C38.4625 14.2901 38.5206 14.2846 38.5782 14.2731C38.6355 14.2615 38.6914 14.2447 38.7457 14.2222C38.7999 14.1998 38.8513 14.1722 38.9 14.1396C38.949 14.1072 38.9941 14.07 39.0356 14.0287C39.0769 13.9872 39.1141 13.9421 39.1465 13.8933C39.1792 13.8444 39.2068 13.793 39.2291 13.7388C39.2516 13.6845 39.2684 13.6286 39.28 13.5712C39.2915 13.5136 39.297 13.4556 39.297 13.3968C39.297 13.3382 39.2915 13.2801 39.28 13.2225C39.2684 13.1649 39.2516 13.1092 39.2291 13.055C39.2068 13.0007 39.1792 12.9494 39.1465 12.9004C39.1141 12.8517 39.0769 12.8066 39.0356 12.765C38.9941 12.7235 38.949 12.6865 38.9 12.6539C38.8513 12.6215 38.7999 12.5939 38.7457 12.5713C38.6914 12.549 38.6355 12.532 38.5782 12.5207C38.5206 12.5092 38.4625 12.5034 38.4037 12.5034H36.6179Z" fill="#7ED957"/>
<path d="M33.0457 16.0759C32.9871 16.0759 32.929 16.0817 32.8714 16.093C32.8138 16.1045 32.7581 16.1213 32.7039 16.1439C32.6497 16.1662 32.5981 16.1938 32.5493 16.2264C32.5006 16.2591 32.4555 16.296 32.414 16.3375C32.3724 16.3791 32.3355 16.4242 32.3028 16.4729C32.2702 16.5216 32.2428 16.5732 32.2203 16.6272C32.1979 16.6815 32.1809 16.7374 32.1696 16.795C32.1581 16.8524 32.1523 16.9107 32.1523 16.9693C32.1523 17.0278 32.1581 17.0859 32.1696 17.1435C32.1809 17.2011 32.1979 17.257 32.2203 17.311C32.2428 17.3653 32.2702 17.4169 32.3028 17.4656C32.3355 17.5143 32.3724 17.5595 32.414 17.601C32.4555 17.6425 32.5006 17.6795 32.5493 17.7121C32.5981 17.7448 32.6497 17.7721 32.7039 17.7947C32.7581 17.817 32.8138 17.834 32.8714 17.8456C32.929 17.8568 32.9871 17.8626 33.0457 17.8626H38.404C38.4628 17.8626 38.5209 17.8568 38.5785 17.8456C38.6359 17.834 38.6918 17.817 38.746 17.7947C38.8003 17.7721 38.8517 17.7448 38.9004 17.7121C38.9493 17.6795 38.9945 17.6425 39.036 17.601C39.0773 17.5595 39.1145 17.5143 39.1469 17.4656C39.1795 17.4169 39.2071 17.3653 39.2294 17.311C39.252 17.257 39.2688 17.2011 39.2803 17.1435C39.2918 17.0859 39.2974 17.0278 39.2974 16.9693C39.2974 16.9107 39.2918 16.8524 39.2803 16.795C39.2688 16.7374 39.252 16.6815 39.2294 16.6272C39.2071 16.5732 39.1795 16.5216 39.1469 16.4729C39.1145 16.4242 39.0773 16.3791 39.036 16.3375C38.9945 16.296 38.9493 16.2591 38.9004 16.2264C38.8517 16.1938 38.8003 16.1662 38.746 16.1439C38.6918 16.1213 38.6359 16.1045 38.5785 16.093C38.5209 16.0817 38.4628 16.0759 38.404 16.0759H33.0457Z" fill="#7ED957"/>
<path d="M6.25076 25.0076C6.1922 25.0076 6.13411 25.0133 6.07651 25.0246C6.01914 25.0361 5.96322 25.0529 5.90898 25.0755C5.85497 25.0978 5.80337 25.1254 5.75465 25.1578C5.70592 25.1905 5.6608 25.2274 5.61928 25.2689C5.57776 25.3102 5.54079 25.3554 5.50815 25.4041C5.47551 25.4528 5.44815 25.5042 5.42559 25.5584C5.40302 25.6126 5.38622 25.6683 5.3747 25.7259C5.36318 25.7833 5.35742 25.8414 5.35742 25.9002V31.2592C5.35742 31.3178 5.36318 31.3759 5.3747 31.4335C5.38622 31.4909 5.40302 31.5468 5.42559 31.601C5.44815 31.655 5.47551 31.7064 5.50815 31.7554C5.54079 31.8041 5.57776 31.849 5.61928 31.8905C5.6608 31.932 5.70592 31.969 5.75465 32.0014C5.80337 32.034 5.85497 32.0616 5.90898 32.0839C5.96322 32.1063 6.01914 32.1233 6.07651 32.1346C6.13411 32.1461 6.1922 32.1519 6.25076 32.1519C6.30932 32.1519 6.36741 32.1461 6.42501 32.1346C6.48237 32.1233 6.5383 32.1063 6.59254 32.0839C6.64655 32.0616 6.69815 32.034 6.74687 32.0014C6.79559 31.969 6.84072 31.932 6.88224 31.8905C6.92376 31.849 6.96073 31.8041 6.99337 31.7554C7.02601 31.7064 7.05337 31.655 7.07593 31.601C7.09849 31.5468 7.1153 31.4909 7.12682 31.4335C7.13834 31.3759 7.1441 31.3178 7.1441 31.2592V25.9002C7.1441 25.8414 7.13834 25.7833 7.12682 25.7259C7.1153 25.6683 7.09849 25.6126 7.07593 25.5584C7.05337 25.5042 7.02601 25.4528 6.99337 25.4041C6.96073 25.3554 6.92376 25.3102 6.88224 25.2689C6.84072 25.2274 6.79559 25.1905 6.74687 25.1578C6.69815 25.1254 6.64655 25.0978 6.59254 25.0755C6.5383 25.0529 6.48237 25.0361 6.42501 25.0246C6.36741 25.0133 6.30932 25.0076 6.25076 25.0076Z" fill="#7ED957"/>
<path d="M10.7183 25.0076C10.5997 25.0073 10.4857 25.0299 10.376 25.0753C10.2666 25.1206 10.1698 25.1849 10.0861 25.2687C10.0446 25.3102 10.0076 25.3554 9.97519 25.4041C9.94255 25.4528 9.91494 25.5044 9.89262 25.5584C9.8703 25.6126 9.85326 25.6683 9.84174 25.7259C9.83046 25.7833 9.8247 25.8414 9.8247 25.9002C9.8247 25.9588 9.83046 26.0168 9.84174 26.0742C9.85326 26.1318 9.8703 26.1875 9.89262 26.2417C9.91494 26.2957 9.94255 26.3473 9.97519 26.3961C10.0076 26.4448 10.0446 26.4899 10.0861 26.5314L12.1339 28.5792L10.0861 30.6273C10.0446 30.6686 10.0076 30.7137 9.97495 30.7624C9.94231 30.8114 9.9147 30.8627 9.89238 30.917C9.86982 30.9712 9.85302 31.0269 9.8415 31.0845C9.82998 31.1421 9.82422 31.2002 9.82422 31.2588C9.82422 31.3176 9.82998 31.3757 9.8415 31.4333C9.85302 31.4906 9.86982 31.5465 9.89238 31.6008C9.9147 31.655 9.94231 31.7064 9.97495 31.7551C10.0076 31.8038 10.0446 31.849 10.0861 31.8905C10.1276 31.932 10.1727 31.969 10.2214 32.0016C10.2702 32.0343 10.3218 32.0619 10.3758 32.0842C10.43 32.1067 10.4859 32.1238 10.5435 32.1351C10.6009 32.1466 10.659 32.1523 10.7178 32.1523C10.7764 32.1523 10.8344 32.1466 10.892 32.1351C10.9497 32.1238 11.0053 32.1067 11.0596 32.0842C11.1138 32.0619 11.1654 32.0343 11.2141 32.0016C11.2629 31.969 11.308 31.932 11.3495 31.8905L14.0286 29.2114C14.0701 29.1699 14.1071 29.1248 14.1397 29.0761C14.1723 29.0271 14.1999 28.9757 14.2223 28.9215C14.2448 28.8673 14.2616 28.8116 14.2731 28.754C14.2847 28.6964 14.2904 28.6383 14.2904 28.5797C14.2904 28.5209 14.2847 28.4628 14.2731 28.4055C14.2616 28.3479 14.2448 28.2919 14.2223 28.2377C14.1999 28.1837 14.1723 28.1321 14.1397 28.0834C14.1071 28.0346 14.0701 27.9895 14.0286 27.948L11.3495 25.2687C11.2658 25.1852 11.169 25.1206 11.0598 25.0755C10.9504 25.0301 10.8366 25.0076 10.7183 25.0076Z" fill="#7ED957"/>
<path d="M9.82499 27.687C9.76618 27.6868 9.7081 27.6925 9.65073 27.7041C9.59313 27.7153 9.53745 27.7324 9.4832 27.7547C9.42896 27.7773 9.3776 27.8046 9.32863 27.8373C9.27991 27.8697 9.23479 27.9066 9.1935 27.9482C9.15198 27.9897 9.11478 28.0348 9.08238 28.0835C9.04974 28.1322 9.02213 28.1836 8.99981 28.2379C8.97725 28.2919 8.96021 28.3478 8.94869 28.4051C8.93741 28.4627 8.93165 28.5208 8.93165 28.5794C8.93141 28.6382 8.93717 28.6963 8.94869 28.7536C8.95997 28.8113 8.97701 28.8672 8.99957 28.9214C9.02189 28.9754 9.0495 29.027 9.0819 29.0757C9.11454 29.1245 9.15174 29.1696 9.19302 29.2111C9.23455 29.2526 9.27967 29.2896 9.32839 29.3222C9.37736 29.3549 9.42872 29.3825 9.48296 29.4048C9.53721 29.4274 9.59313 29.4442 9.65049 29.4557C9.7081 29.467 9.76618 29.4727 9.82499 29.4727H13.3974C13.4559 29.4727 13.5143 29.467 13.5716 29.4557C13.6292 29.4442 13.6852 29.4274 13.7394 29.4048C13.7934 29.3825 13.845 29.3549 13.8937 29.3222C13.9425 29.2896 13.9876 29.2526 14.0291 29.2111C14.0706 29.1696 14.1076 29.1245 14.1402 29.0757C14.1729 29.027 14.2005 28.9754 14.2228 28.9214C14.2454 28.8672 14.2622 28.8113 14.2737 28.7536C14.285 28.6963 14.2907 28.638 14.2907 28.5794C14.2907 28.5208 14.285 28.4627 14.2734 28.4051C14.2619 28.3478 14.2451 28.2919 14.2225 28.2379C14.2 28.1836 14.1726 28.1322 14.14 28.0835C14.1073 28.0348 14.0704 27.9897 14.0289 27.9482C13.9873 27.9066 13.9422 27.8697 13.8935 27.8373C13.8448 27.8046 13.7934 27.7773 13.7392 27.7547C13.6849 27.7324 13.629 27.7153 13.5716 27.7041C13.514 27.6925 13.4559 27.6868 13.3974 27.687H9.82499Z" fill="#7ED957"/>
<path d="M25.9002 25.0076C25.8416 25.0076 25.7835 25.0133 25.7262 25.0248C25.6688 25.0364 25.6129 25.0532 25.5589 25.0757C25.5046 25.0981 25.4533 25.1257 25.4046 25.1581C25.3558 25.1907 25.3107 25.2277 25.2692 25.2692C25.2279 25.3105 25.1909 25.3556 25.1583 25.4043C25.1257 25.453 25.0983 25.5044 25.0757 25.5586C25.0534 25.6126 25.0364 25.6686 25.0249 25.7259C25.0136 25.7835 25.0078 25.8414 25.0078 25.9002V31.2592C25.0078 31.3178 25.0136 31.3759 25.0249 31.4333C25.0364 31.4909 25.0534 31.5465 25.0757 31.6008C25.0983 31.6548 25.1257 31.7062 25.1583 31.7549C25.1909 31.8036 25.2279 31.8487 25.2692 31.8902C25.3107 31.9315 25.3558 31.9687 25.4046 32.0011C25.4533 32.0338 25.5046 32.0611 25.5589 32.0837C25.6129 32.106 25.6688 32.1231 25.7262 32.1346C25.7835 32.1461 25.8416 32.1516 25.9002 32.1519C25.959 32.1519 26.0168 32.1461 26.0744 32.1346C26.132 32.1233 26.1877 32.1063 26.242 32.0839C26.2962 32.0616 26.3476 32.034 26.3963 32.0014C26.445 31.969 26.4901 31.932 26.5317 31.8905C26.5732 31.849 26.6102 31.8041 26.6428 31.7554C26.6754 31.7066 26.703 31.655 26.7254 31.601C26.7479 31.5468 26.765 31.4909 26.7762 31.4335C26.7878 31.3759 26.7935 31.3178 26.7935 31.2592V25.9002C26.7935 25.8414 26.7878 25.7833 26.7762 25.7259C26.765 25.6683 26.7479 25.6126 26.7254 25.5584C26.703 25.5042 26.6754 25.4528 26.6428 25.4041C26.6102 25.3554 26.5732 25.3102 26.5317 25.2689C26.4901 25.2274 26.445 25.1905 26.3963 25.1578C26.3476 25.1254 26.2962 25.0978 26.242 25.0755C26.1877 25.0529 26.132 25.0361 26.0744 25.0246C26.0168 25.0133 25.959 25.0076 25.9002 25.0076Z" fill="#7ED957"/>
<path d="M21.4342 25.0076C21.3156 25.0073 21.2016 25.0299 21.0922 25.0753C20.9827 25.1206 20.886 25.1849 20.8022 25.2687L18.1229 27.948C18.0814 27.9895 18.0445 28.0346 18.0118 28.0834C17.9792 28.1321 17.9518 28.1837 17.9293 28.2377C17.9067 28.2919 17.8899 28.3479 17.8784 28.4055C17.8668 28.4628 17.8613 28.5209 17.8613 28.5797C17.8613 28.6383 17.8668 28.6964 17.8784 28.754C17.8899 28.8116 17.9067 28.8673 17.9293 28.9215C17.9518 28.9757 17.9792 29.0271 18.0118 29.0761C18.0445 29.1248 18.0814 29.1699 18.1229 29.2114L20.8022 31.8905C20.8435 31.932 20.8886 31.969 20.9376 32.0016C20.9863 32.0343 21.0377 32.0619 21.0919 32.0842C21.1462 32.1067 21.2021 32.1238 21.2595 32.1351C21.3171 32.1466 21.3752 32.1523 21.4337 32.1523C21.4925 32.1523 21.5506 32.1466 21.6082 32.1351C21.6656 32.1238 21.7215 32.1067 21.7757 32.0842C21.83 32.0619 21.8813 32.0343 21.9301 32.0016C21.9788 31.969 22.0239 31.932 22.0654 31.8905C22.107 31.849 22.1439 31.8038 22.1766 31.7551C22.2092 31.7064 22.2368 31.655 22.2591 31.6008C22.2817 31.5465 22.2987 31.4906 22.31 31.4333C22.3215 31.3757 22.3273 31.3176 22.3273 31.2588C22.3273 31.2002 22.3215 31.1421 22.31 31.0845C22.2987 31.0269 22.2817 30.9712 22.2591 30.917C22.2368 30.8627 22.2092 30.8114 22.1766 30.7624C22.1439 30.7137 22.107 30.6686 22.0654 30.6273L20.0176 28.5792L22.0654 26.5314C22.107 26.4899 22.1439 26.4448 22.1766 26.3961C22.209 26.3473 22.2366 26.2957 22.2589 26.2417C22.2815 26.1875 22.2983 26.1318 22.3098 26.0742C22.3211 26.0168 22.3268 25.9588 22.3268 25.9002C22.3268 25.8414 22.3211 25.7833 22.3098 25.7259C22.2983 25.6683 22.2815 25.6126 22.2589 25.5584C22.2366 25.5044 22.209 25.4528 22.1766 25.4041C22.1439 25.3554 22.107 25.3102 22.0654 25.2687C21.9817 25.1852 21.8852 25.1206 21.7757 25.0755C21.6665 25.0301 21.5525 25.0076 21.4342 25.0076Z" fill="#7ED957"/>
<path d="M18.7557 27.687C18.6971 27.687 18.639 27.6928 18.5816 27.7041C18.524 27.7156 18.4684 27.7326 18.4141 27.7549C18.3601 27.7775 18.3088 27.8049 18.26 27.8375C18.2113 27.8702 18.1662 27.9071 18.1247 27.9484C18.0834 27.9899 18.0464 28.035 18.0138 28.0838C17.9811 28.1325 17.9538 28.1839 17.9312 28.2379C17.9089 28.2921 17.8918 28.3478 17.8803 28.4054C17.869 28.4627 17.8633 28.5208 17.8633 28.5794C17.8633 28.638 17.8688 28.696 17.8803 28.7536C17.8916 28.811 17.9086 28.8669 17.931 28.9212C17.9535 28.9754 17.9809 29.0268 18.0135 29.0755C18.0459 29.1242 18.0831 29.1694 18.1244 29.2109C18.1659 29.2524 18.2111 29.2894 18.2598 29.322C18.3085 29.3546 18.3599 29.382 18.4141 29.4046C18.4681 29.4271 18.524 29.4439 18.5814 29.4555C18.639 29.467 18.6971 29.4727 18.7557 29.4727H22.3283C22.3869 29.4727 22.4449 29.467 22.5025 29.4557C22.5601 29.4442 22.6158 29.4274 22.6701 29.4048C22.7243 29.3825 22.7759 29.3549 22.8246 29.3222C22.8734 29.2896 22.9185 29.2526 22.96 29.2111C23.0015 29.1696 23.0385 29.1245 23.0711 29.0757C23.1038 29.027 23.1311 28.9754 23.1537 28.9214C23.176 28.8672 23.1931 28.8113 23.2043 28.7536C23.2159 28.6963 23.2216 28.638 23.2216 28.5794C23.2216 28.5208 23.2159 28.4627 23.2043 28.4051C23.1928 28.3478 23.1758 28.2919 23.1535 28.2379C23.1309 28.1836 23.1033 28.1322 23.0709 28.0835C23.0383 28.0348 23.0011 27.9897 22.9598 27.9482C22.9182 27.9066 22.8731 27.8697 22.8244 27.8373C22.7757 27.8046 22.7241 27.7773 22.6698 27.7547C22.6158 27.7324 22.5599 27.7153 22.5023 27.7041C22.4449 27.6925 22.3869 27.6868 22.3283 27.687H18.7557Z" fill="#7ED957"/>
</svg>
