<svg xmlns="http://www.w3.org/2000/svg" xmlns:xlink="http://www.w3.org/1999/xlink" width="1440" zoomAndPan="magnify" viewBox="0 0 1080 1619.99993" height="2160" preserveAspectRatio="xMidYMid meet" version="1.0"><defs><clipPath id="f8dd276deb"><path d="M 174.207031 477.128906 L 905.457031 477.128906 L 905.457031 1035 L 174.207031 1035 Z M 174.207031 477.128906 " clip-rule="nonzero"/></clipPath></defs><path fill="#0cc0df" d="M 826.023438 966.519531 L 254.394531 966.519531 C 249.25 966.519531 245.820312 962.660156 245.820312 957.945312 L 245.820312 553.558594 C 245.820312 548.84375 249.25 544.984375 254.394531 544.984375 L 826.023438 544.984375 C 830.738281 544.984375 834.597656 548.84375 834.597656 553.558594 L 834.597656 957.945312 C 834.597656 962.660156 830.738281 966.519531 826.023438 966.519531 Z M 262.972656 949.367188 L 817.445312 949.367188 L 817.445312 562.136719 L 262.972656 562.136719 Z M 262.972656 949.367188 " fill-opacity="1" fill-rule="evenodd"/><path fill="#0cc0df" d="M 708.09375 1142.769531 L 372.324219 1142.769531 C 366.75 1142.769531 362.460938 1137.621094 364.175781 1132.046875 C 382.1875 1061.71875 501.402344 1080.160156 506.546875 1024.839844 C 507.402344 1013.691406 524.558594 1015.40625 523.269531 1026.554688 C 517.265625 1092.59375 410.917969 1079.730469 385.1875 1125.613281 L 695.230469 1125.613281 C 669.070312 1079.730469 562.722656 1092.59375 556.71875 1026.554688 C 555.863281 1015.40625 572.585938 1013.691406 573.871094 1024.839844 C 579.445312 1080.589844 698.230469 1061.71875 716.242188 1132.046875 C 717.527344 1137.621094 713.667969 1142.769531 708.09375 1142.769531 Z M 708.09375 1142.769531 " fill-opacity="1" fill-rule="evenodd"/><path fill="#0cc0df" d="M 319.578125 1000.398438 L 285.273438 1000.398438 C 273.695312 1000.398438 273.695312 983.246094 285.273438 983.246094 L 319.578125 983.246094 C 330.726562 983.246094 330.726562 1000.398438 319.578125 1000.398438 Z M 319.578125 1000.398438 " fill-opacity="1" fill-rule="evenodd"/><path fill="#0cc0df" d="M 388.191406 1000.398438 L 353.457031 1000.398438 C 342.304688 1000.398438 342.304688 983.246094 353.457031 983.246094 L 388.191406 983.246094 C 399.339844 983.246094 399.339844 1000.398438 388.191406 1000.398438 Z M 388.191406 1000.398438 " fill-opacity="1" fill-rule="evenodd"/><path fill="#0cc0df" d="M 795.148438 1000.398438 L 760.839844 1000.398438 C 749.261719 1000.398438 749.261719 983.246094 760.839844 983.246094 L 795.148438 983.246094 C 806.296875 983.246094 806.296875 1000.398438 795.148438 1000.398438 Z M 795.148438 1000.398438 " fill-opacity="1" fill-rule="evenodd"/><path fill="#0cc0df" d="M 437.933594 846.449219 C 435.789062 846.449219 433.644531 845.589844 431.929688 843.875 L 350.023438 761.96875 C 346.59375 758.539062 346.59375 752.964844 350.023438 749.960938 L 431.929688 667.628906 C 440.078125 659.910156 452.085938 671.917969 444.367188 679.636719 L 368.035156 755.964844 L 444.367188 831.867188 C 449.511719 837.015625 445.652344 846.449219 437.933594 846.449219 Z M 437.933594 846.449219 " fill-opacity="1" fill-rule="evenodd"/><path fill="#0cc0df" d="M 642.054688 846.449219 C 634.335938 846.449219 630.90625 837.445312 636.050781 831.867188 L 711.953125 755.964844 L 636.050781 679.636719 C 628.332031 671.917969 640.339844 659.480469 648.058594 667.628906 L 730.394531 749.960938 C 733.824219 752.964844 733.824219 758.539062 730.394531 761.96875 L 648.058594 843.875 C 646.773438 845.589844 644.199219 846.449219 642.054688 846.449219 Z M 642.054688 846.449219 " fill-opacity="1" fill-rule="evenodd"/><path fill="#0cc0df" d="M 487.25 859.742188 C 480.386719 859.742188 476.527344 852.453125 479.53125 846.878906 L 589.308594 656.480469 C 594.882812 646.617188 609.894531 655.191406 604.320312 665.054688 L 494.539062 855.453125 C 492.824219 858.027344 489.820312 859.742188 487.25 859.742188 Z M 487.25 859.742188 " fill-opacity="1" fill-rule="evenodd"/><g clip-path="url(#f8dd276deb)"><path fill="#0cc0df" d="M 850.894531 1034.273438 L 229.523438 1034.273438 C 199.078125 1034.273438 174.207031 1009.832031 174.207031 979.386719 L 174.207031 532.546875 C 174.207031 502.101562 199.078125 477.230469 229.523438 477.230469 L 850.894531 477.230469 C 881.339844 477.230469 905.785156 502.101562 905.785156 532.546875 L 905.785156 979.386719 C 905.785156 1009.832031 881.339844 1034.273438 850.894531 1034.273438 Z M 229.523438 494.382812 C 208.511719 494.382812 191.359375 511.535156 191.359375 532.546875 L 191.359375 979.386719 C 191.359375 1000.398438 208.511719 1017.121094 229.523438 1017.121094 L 850.894531 1017.121094 C 871.90625 1017.121094 888.632812 1000.398438 888.632812 979.386719 L 888.632812 532.546875 C 888.632812 511.535156 871.90625 494.382812 850.894531 494.382812 Z M 229.523438 494.382812 " fill-opacity="1" fill-rule="evenodd"/></g></svg>