<svg width="55" height="50" viewBox="0 0 55 50" fill="none" xmlns="http://www.w3.org/2000/svg">
<path fill-rule="evenodd" clip-rule="evenodd" d="M48.9612 36.7608H6.02296C5.63653 36.7608 5.37891 36.4709 5.37891 36.1167V5.74098C5.37891 5.38682 5.63653 5.09692 6.02296 5.09692H48.9612C49.3154 5.09692 49.6053 5.38682 49.6053 5.74098V36.1167C49.6053 36.4709 49.3154 36.7608 48.9612 36.7608ZM6.66731 35.4724H48.3169V6.38533H6.66731V35.4724Z" fill="#0CC0DF"/>
<path fill-rule="evenodd" clip-rule="evenodd" d="M40.1026 49.9999H14.881C14.4623 49.9999 14.1401 49.6132 14.269 49.1945C15.6219 43.9118 24.5768 45.297 24.9632 41.1416C25.0275 40.3042 26.3162 40.433 26.2194 41.2704C25.7684 46.231 17.78 45.2647 15.8473 48.7112H39.1363C37.1713 45.2647 29.1829 46.231 28.7319 41.2704C28.6677 40.433 29.9238 40.3042 30.0203 41.1416C30.4391 45.3293 39.3617 43.9118 40.7146 49.1945C40.8112 49.6132 40.5213 49.9999 40.1026 49.9999Z" fill="#0CC0DF"/>
<path fill-rule="evenodd" clip-rule="evenodd" d="M10.9205 39.3057H8.34368C7.47398 39.3057 7.47398 38.0173 8.34368 38.0173H10.9205C11.7579 38.0173 11.7579 39.3057 10.9205 39.3057Z" fill="#0CC0DF"/>
<path fill-rule="evenodd" clip-rule="evenodd" d="M16.0733 39.3057H13.4642C12.6265 39.3057 12.6265 38.0173 13.4642 38.0173H16.0733C16.9107 38.0173 16.9107 39.3057 16.0733 39.3057Z" fill="#0CC0DF"/>
<path fill-rule="evenodd" clip-rule="evenodd" d="M46.6415 39.3057H44.0644C43.1947 39.3057 43.1947 38.0173 44.0644 38.0173H46.6415C47.4789 38.0173 47.4789 39.3057 46.6415 39.3057Z" fill="#0CC0DF"/>
<path fill-rule="evenodd" clip-rule="evenodd" d="M19.8103 27.7416C19.6492 27.7416 19.4881 27.6771 19.3593 27.5483L13.2069 21.3958C12.9493 21.1382 12.9493 20.7195 13.2069 20.4939L19.3593 14.3094C19.9714 13.7296 20.8734 14.6316 20.2936 15.2114L14.5599 20.9448L20.2936 26.6463C20.68 27.033 20.3901 27.7416 19.8103 27.7416Z" fill="#0CC0DF"/>
<path fill-rule="evenodd" clip-rule="evenodd" d="M35.1418 27.7416C34.562 27.7416 34.3044 27.0653 34.6908 26.6463L40.3922 20.9448L34.6908 15.2114C34.111 14.6316 35.013 13.6974 35.5928 14.3094L41.7775 20.4939C42.0351 20.7195 42.0351 21.1382 41.7775 21.3958L35.5928 27.5483C35.4962 27.6771 35.3029 27.7416 35.1418 27.7416Z" fill="#0CC0DF"/>
<path fill-rule="evenodd" clip-rule="evenodd" d="M23.5146 28.7403C22.9991 28.7403 22.7092 28.1928 22.9348 27.7741L31.1808 13.4722C31.5996 12.7313 32.7272 13.3754 32.3085 14.1162L24.0622 28.4181C23.9334 28.6115 23.7077 28.7403 23.5146 28.7403Z" fill="#0CC0DF"/>
<mask id="mask0_2356_381" style="mask-type:luminance" maskUnits="userSpaceOnUse" x="0" y="0" width="55" height="42">
<path d="M0 0H54.9283V41.9048H0V0Z" fill="white"/>
</mask>
<g mask="url(#mask0_2356_381)">
<path fill-rule="evenodd" clip-rule="evenodd" d="M50.8298 41.8502H4.15512C1.86821 41.8502 0 40.0143 0 37.7273V4.16269C0 1.87578 1.86821 0.00756836 4.15512 0.00756836H50.8298C53.1167 0.00756836 54.9529 1.87578 54.9529 4.16269V37.7273C54.9529 40.0143 53.1167 41.8502 50.8298 41.8502ZM4.15512 1.29598C2.57682 1.29598 1.28841 2.58439 1.28841 4.16269V37.7273C1.28841 39.3056 2.57682 40.5618 4.15512 40.5618H50.8298C52.4081 40.5618 53.6645 39.3056 53.6645 37.7273V4.16269C53.6645 2.58439 52.4081 1.29598 50.8298 1.29598H4.15512Z" fill="#0CC0DF"/>
</g>
</svg>
