<svg width="50" height="50" viewBox="0 0 50 50" fill="none" xmlns="http://www.w3.org/2000/svg">
<mask id="mask0_2356_385" style="mask-type:luminance" maskUnits="userSpaceOnUse" x="0" y="0" width="50" height="50">
<path d="M0 0H50V50H0V0Z" fill="white"/>
</mask>
<g mask="url(#mask0_2356_385)">
<path d="M47.0335 39.305V15.6779C47.0335 13.5167 45.2753 11.7582 43.1141 11.7582H39.1947V10.3231L41.6977 8.65423C41.9705 8.4725 42.1343 8.16644 42.1343 7.83882V5.71069C43.2745 5.30606 44.0939 4.21707 44.0939 2.93963C44.0939 1.3186 42.7753 0 41.1542 0C39.5335 0 38.2146 1.3186 38.2146 2.93963C38.2146 4.21707 39.0339 5.30606 40.1744 5.71069V7.31463L37.6711 8.98325C37.3986 9.16499 37.2348 9.47105 37.2348 9.79867V11.7582H28.4159V10.3231L30.9193 8.65423C31.192 8.4725 31.3556 8.16644 31.3556 7.83882V5.71069C32.4961 5.30606 33.3154 4.21707 33.3154 2.93963C33.3154 1.3186 31.9968 0 30.3758 0C28.755 0 27.4362 1.3186 27.4362 2.93963C27.4362 4.21707 28.2555 5.30606 29.396 5.71069V7.31463L26.8926 8.98325C26.6202 9.16499 26.4564 9.47105 26.4564 9.79867V11.7582H23.5167V9.79867C23.5167 9.47105 23.3529 9.16499 23.0805 8.98325L20.5771 7.31435V5.71069C21.7176 5.30606 22.537 4.21707 22.537 2.93963C22.537 1.3186 21.2181 0 19.5973 0C17.9763 0 16.6577 1.3186 16.6577 2.93963C16.6577 4.21707 17.477 5.30606 18.6176 5.71069V7.83882C18.6176 8.16644 18.7811 8.4725 19.0538 8.65423L21.5569 10.3231V11.7582H12.7383V9.79867C12.7383 9.47105 12.5745 9.16499 12.302 8.98325L9.79867 7.31435V5.71069C10.9392 5.30606 11.7582 4.21707 11.7582 2.93963C11.7582 1.3186 10.4396 0 8.81888 0C7.19786 0 5.87926 1.3186 5.87926 2.93963C5.87926 4.21707 6.69831 5.30606 7.83882 5.71069V7.83882C7.83882 8.16644 8.00263 8.4725 8.27537 8.65423L10.7784 10.3231V11.7582H6.85904C4.69786 11.7582 2.93963 13.5167 2.93963 15.6779V39.305C1.25448 39.7169 0 41.2385 0 43.0486C0 46.8669 3.10624 49.9731 6.92428 49.9731H43.0486C46.8669 49.9731 49.9731 46.8669 49.9731 43.0486C49.9731 41.2385 48.7186 39.7169 47.0335 39.305ZM41.1542 1.95985C41.6947 1.95985 42.1343 2.39919 42.1343 2.93963C42.1343 3.47978 41.6947 3.91941 41.1542 3.91941C40.6141 3.91941 40.1744 3.47978 40.1744 2.93963C40.1744 2.39919 40.6141 1.95985 41.1542 1.95985ZM30.3758 1.95985C30.9162 1.95985 31.3556 2.39919 31.3556 2.93963C31.3556 3.47978 30.9162 3.91941 30.3758 3.91941C29.8356 3.91941 29.396 3.47978 29.396 2.93963C29.396 2.39919 29.8356 1.95985 30.3758 1.95985ZM19.5973 1.95985C20.1375 1.95985 20.5771 2.39919 20.5771 2.93963C20.5771 3.47978 20.1375 3.91941 19.5973 3.91941C19.0569 3.91941 18.6176 3.47978 18.6176 2.93963C18.6176 2.39919 19.0569 1.95985 19.5973 1.95985ZM8.81888 1.95985C9.35904 1.95985 9.79867 2.39919 9.79867 2.93963C9.79867 3.47978 9.35904 3.91941 8.81888 3.91941C8.27845 3.91941 7.83882 3.47978 7.83882 2.93963C7.83882 2.39919 8.27845 1.95985 8.81888 1.95985ZM4.89919 15.6779C4.89919 14.5973 5.77845 13.7181 6.85904 13.7181H43.1141C44.1947 13.7181 45.0736 14.5973 45.0736 15.6779V39.1947H43.1141V16.6577C43.1141 16.1167 42.6753 15.6779 42.1343 15.6779H7.83882C7.29783 15.6779 6.85904 16.1167 6.85904 16.6577V39.1947H4.89919V15.6779ZM8.81888 39.1947V17.6375H41.1542V39.1947C37.7078 39.1947 12.948 39.1947 8.81888 39.1947ZM33.3711 41.1542L32.6364 43.1141H17.3367L16.6017 41.1542H33.3711ZM43.0486 48.0133H6.92428C4.18683 48.0133 1.95985 45.7863 1.95985 43.0486C1.95985 42.0041 2.80942 41.1542 3.85417 41.1542C5.42395 41.1542 12.8814 41.1542 14.5088 41.1542L15.7404 44.438C15.8837 44.8205 16.2492 45.0736 16.6577 45.0736H33.3154C33.7237 45.0736 34.0894 44.8205 34.2327 44.438L35.4643 41.1542C35.9218 41.1542 45.6583 41.1542 46.0537 41.1542H46.1189C47.1634 41.1542 48.0133 42.0041 48.0133 43.0486C48.0133 45.7863 45.7863 48.0133 43.0486 48.0133Z" fill="#FF5757"/>
</g>
<path d="M33.668 25.8172L31.5777 22.1965C31.3069 21.7275 30.7071 21.5676 30.2392 21.8378L28.635 22.7641C28.4477 22.6429 28.2545 22.5312 28.0559 22.4295V20.5772C28.0559 20.0362 27.6171 19.5974 27.0761 19.5974H22.8955C22.3545 19.5974 21.9157 20.0362 21.9157 20.5772V22.4292C21.7172 22.5312 21.5239 22.6429 21.3366 22.7641L19.7321 21.8378C19.2639 21.5671 18.6644 21.7278 18.3936 22.1963L16.3033 25.8172C16.0328 26.2856 16.1932 26.8849 16.662 27.1557L18.2657 28.0814C18.2547 28.3046 18.2547 28.5275 18.2657 28.7506L16.662 29.6767C16.1932 29.9472 16.0328 30.5464 16.3033 31.0151L18.3936 34.6358C18.665 35.1056 19.2656 35.2641 19.7321 34.9945L21.3366 34.0679C21.5239 34.1891 21.7172 34.3009 21.9157 34.4028V36.2551C21.9157 36.7961 22.3545 37.2349 22.8955 37.2349H27.0761C27.6171 37.2349 28.0559 36.7961 28.0559 36.2551V34.4028C28.2545 34.3012 28.4477 34.1894 28.635 34.0682L30.2392 34.9945C30.7074 35.265 31.3072 35.1045 31.5777 34.6361L33.668 31.0151C33.9388 30.5467 33.7781 29.9472 33.3096 29.6767L31.706 28.7509C31.7169 28.5277 31.7169 28.3048 31.706 28.0817L33.3096 27.1557C33.7781 26.8852 33.9388 26.2859 33.668 25.8172ZM29.7002 27.6955C29.7699 28.1559 29.7749 28.6426 29.7002 29.1371C29.64 29.5355 29.8298 29.9306 30.1793 30.1322L31.4811 30.8838L30.3705 32.8075L29.0671 32.0549C28.717 31.853 28.2791 31.886 27.9641 32.1389C27.5872 32.4407 27.1685 32.6829 26.7197 32.8582C26.3436 33.005 26.0964 33.3673 26.0964 33.7708V35.2753H23.8752V33.7708C23.8752 33.3673 23.628 33.005 23.2519 32.8582C22.8031 32.6829 22.3844 32.4407 22.0073 32.1389C21.6922 31.8863 21.2543 31.853 20.9045 32.0549L19.6011 32.8075L18.4905 30.8838L19.7923 30.1322C20.1415 29.9306 20.3316 29.5355 20.2711 29.1371C20.2017 28.6767 20.1964 28.1898 20.2711 27.6955C20.3316 27.2968 20.1418 26.9017 19.7923 26.7001L18.4905 25.9485L19.6011 24.0248L20.9045 24.7777C21.2543 24.9796 21.6922 24.9463 22.0073 24.6937C22.3844 24.3916 22.8031 24.1497 23.2519 23.9741C23.628 23.8274 23.8752 23.465 23.8752 23.0615V21.557H26.0964V23.0615C26.0964 23.465 26.3436 23.8274 26.7197 23.9741C27.1685 24.1494 27.5872 24.3913 27.9641 24.6935C28.2794 24.946 28.717 24.9794 29.0671 24.7775L30.3705 24.0248L31.4811 25.9482L30.1793 26.7001C29.8298 26.9017 29.64 27.2968 29.7002 27.6955Z" fill="#FF5757"/>
<path d="M24.9865 25.4766C23.3655 25.4766 22.0469 26.7952 22.0469 28.4159C22.0469 30.0369 23.3655 31.3555 24.9865 31.3555C26.6072 31.3555 27.9261 30.0369 27.9261 28.4159C27.9261 26.7952 26.6072 25.4766 24.9865 25.4766ZM24.9865 29.396C24.4461 29.396 24.0067 28.9563 24.0067 28.4159C24.0067 27.8758 24.4461 27.4361 24.9865 27.4361C25.5267 27.4361 25.9663 27.8758 25.9663 28.4159C25.9663 28.9563 25.5267 29.396 24.9865 29.396Z" fill="#FF5757"/>
</svg>
