<svg xmlns="http://www.w3.org/2000/svg" xmlns:xlink="http://www.w3.org/1999/xlink" width="1440" zoomAndPan="magnify" viewBox="0 0 1080 1619.99993" height="2160" preserveAspectRatio="xMidYMid meet" version="1.0"><defs><clipPath id="a3d2c1833e"><path d="M 191.433594 461.433594 L 888.933594 461.433594 L 888.933594 1158.933594 L 191.433594 1158.933594 Z M 191.433594 461.433594 " clip-rule="nonzero"/></clipPath></defs><g clip-path="url(#a3d2c1833e)"><path fill="#ff5757" d="M 847.550781 1009.738281 L 847.550781 680.140625 C 847.550781 649.992188 823.023438 625.460938 792.875 625.460938 L 738.199219 625.460938 L 738.199219 605.441406 L 773.117188 582.160156 C 776.921875 579.625 779.207031 575.355469 779.207031 570.785156 L 779.207031 541.097656 C 795.113281 535.453125 806.542969 520.261719 806.542969 502.441406 C 806.542969 479.828125 788.148438 461.433594 765.535156 461.433594 C 742.925781 461.433594 724.527344 479.828125 724.527344 502.441406 C 724.527344 520.261719 735.957031 535.453125 751.867188 541.097656 L 751.867188 563.472656 L 716.945312 586.75 C 713.144531 589.285156 710.859375 593.554688 710.859375 598.125 L 710.859375 625.460938 L 587.835938 625.460938 L 587.835938 605.441406 L 622.757812 582.160156 C 626.5625 579.625 628.84375 575.355469 628.84375 570.785156 L 628.84375 541.097656 C 644.753906 535.453125 656.183594 520.261719 656.183594 502.441406 C 656.183594 479.828125 637.789062 461.433594 615.175781 461.433594 C 592.566406 461.433594 574.167969 479.828125 574.167969 502.441406 C 574.167969 520.261719 585.597656 535.453125 601.507812 541.097656 L 601.507812 563.472656 L 566.585938 586.75 C 562.785156 589.285156 560.5 593.554688 560.5 598.125 L 560.5 625.460938 L 519.492188 625.460938 L 519.492188 598.125 C 519.492188 593.554688 517.207031 589.285156 513.40625 586.75 L 478.484375 563.46875 L 478.484375 541.097656 C 494.394531 535.453125 505.824219 520.261719 505.824219 502.441406 C 505.824219 479.828125 487.425781 461.433594 464.816406 461.433594 C 442.203125 461.433594 423.808594 479.828125 423.808594 502.441406 C 423.808594 520.261719 435.238281 535.453125 451.148438 541.097656 L 451.148438 570.785156 C 451.148438 575.355469 453.429688 579.625 457.234375 582.160156 L 492.152344 605.441406 L 492.152344 625.460938 L 369.132812 625.460938 L 369.132812 598.125 C 369.132812 593.554688 366.847656 589.285156 363.046875 586.75 L 328.125 563.46875 L 328.125 541.097656 C 344.035156 535.453125 355.460938 520.261719 355.460938 502.441406 C 355.460938 479.828125 337.066406 461.433594 314.457031 461.433594 C 291.84375 461.433594 273.449219 479.828125 273.449219 502.441406 C 273.449219 520.261719 284.875 535.453125 300.785156 541.097656 L 300.785156 570.785156 C 300.785156 575.355469 303.070312 579.625 306.875 582.160156 L 341.792969 605.441406 L 341.792969 625.460938 L 287.117188 625.460938 C 256.96875 625.460938 232.441406 649.992188 232.441406 680.140625 L 232.441406 1009.738281 C 208.933594 1015.484375 191.433594 1036.710938 191.433594 1061.960938 C 191.433594 1115.226562 234.765625 1158.558594 288.027344 1158.558594 L 791.960938 1158.558594 C 845.226562 1158.558594 888.558594 1115.226562 888.558594 1061.960938 C 888.558594 1036.710938 871.058594 1015.484375 847.550781 1009.738281 Z M 765.535156 488.773438 C 773.074219 488.773438 779.207031 494.902344 779.207031 502.441406 C 779.207031 509.976562 773.074219 516.109375 765.535156 516.109375 C 758 516.109375 751.867188 509.976562 751.867188 502.441406 C 751.867188 494.902344 758 488.773438 765.535156 488.773438 Z M 615.175781 488.773438 C 622.714844 488.773438 628.84375 494.902344 628.84375 502.441406 C 628.84375 509.976562 622.714844 516.109375 615.175781 516.109375 C 607.640625 516.109375 601.507812 509.976562 601.507812 502.441406 C 601.507812 494.902344 607.640625 488.773438 615.175781 488.773438 Z M 464.816406 488.773438 C 472.351562 488.773438 478.484375 494.902344 478.484375 502.441406 C 478.484375 509.976562 472.351562 516.109375 464.816406 516.109375 C 457.277344 516.109375 451.148438 509.976562 451.148438 502.441406 C 451.148438 494.902344 457.277344 488.773438 464.816406 488.773438 Z M 314.457031 488.773438 C 321.992188 488.773438 328.125 494.902344 328.125 502.441406 C 328.125 509.976562 321.992188 516.109375 314.457031 516.109375 C 306.917969 516.109375 300.785156 509.976562 300.785156 502.441406 C 300.785156 494.902344 306.917969 488.773438 314.457031 488.773438 Z M 259.777344 680.140625 C 259.777344 665.066406 272.042969 652.800781 287.117188 652.800781 L 792.875 652.800781 C 807.949219 652.800781 820.210938 665.066406 820.210938 680.140625 L 820.210938 1008.199219 L 792.875 1008.199219 L 792.875 693.808594 C 792.875 686.261719 786.753906 680.140625 779.207031 680.140625 L 300.785156 680.140625 C 293.238281 680.140625 287.117188 686.261719 287.117188 693.808594 L 287.117188 1008.199219 L 259.777344 1008.199219 Z M 314.457031 1008.199219 L 314.457031 707.476562 L 765.535156 707.476562 L 765.535156 1008.199219 C 717.457031 1008.199219 372.058594 1008.199219 314.457031 1008.199219 Z M 656.960938 1035.535156 L 646.710938 1062.875 L 433.28125 1062.875 L 423.027344 1035.535156 Z M 791.960938 1131.21875 L 288.027344 1131.21875 C 249.839844 1131.21875 218.773438 1100.152344 218.773438 1061.960938 C 218.773438 1047.390625 230.625 1035.535156 245.199219 1035.535156 C 267.097656 1035.535156 371.128906 1035.535156 393.832031 1035.535156 L 411.011719 1081.34375 C 413.011719 1086.679688 418.109375 1090.210938 423.808594 1090.210938 L 656.183594 1090.210938 C 661.878906 1090.210938 666.980469 1086.679688 668.980469 1081.34375 L 686.160156 1035.535156 C 692.542969 1035.535156 828.367188 1035.535156 833.882812 1035.535156 L 834.792969 1035.535156 C 849.363281 1035.535156 861.21875 1047.390625 861.21875 1061.960938 C 861.21875 1100.152344 830.152344 1131.21875 791.960938 1131.21875 Z M 791.960938 1131.21875 " fill-opacity="1" fill-rule="nonzero"/></g><path fill="#ff5757" d="M 661.113281 821.582031 L 631.953125 771.074219 C 628.175781 764.53125 619.808594 762.300781 613.28125 766.070312 L 590.902344 778.992188 C 588.289062 777.300781 585.59375 775.742188 582.824219 774.324219 L 582.824219 748.484375 C 582.824219 740.9375 576.703125 734.816406 569.15625 734.816406 L 510.835938 734.816406 C 503.289062 734.816406 497.167969 740.9375 497.167969 748.484375 L 497.167969 774.320312 C 494.398438 775.742188 491.703125 777.300781 489.089844 778.992188 L 466.707031 766.070312 C 460.175781 762.292969 451.8125 764.535156 448.035156 771.070312 L 418.875 821.582031 C 415.101562 828.117188 417.339844 836.476562 423.878906 840.253906 L 446.25 853.167969 C 446.097656 856.28125 446.097656 859.390625 446.25 862.503906 L 423.878906 875.421875 C 417.339844 879.195312 415.101562 887.554688 418.875 894.09375 L 448.035156 944.601562 C 451.820312 951.15625 460.199219 953.367188 466.707031 949.605469 L 489.089844 936.679688 C 491.703125 938.371094 494.398438 939.929688 497.167969 941.351562 L 497.167969 967.191406 C 497.167969 974.738281 503.289062 980.859375 510.835938 980.859375 L 569.15625 980.859375 C 576.703125 980.859375 582.824219 974.738281 582.824219 967.191406 L 582.824219 941.351562 C 585.59375 939.933594 588.289062 938.375 590.902344 936.683594 L 613.28125 949.605469 C 619.8125 953.378906 628.179688 951.140625 631.953125 944.605469 L 661.113281 894.09375 C 664.890625 887.558594 662.648438 879.195312 656.113281 875.421875 L 633.742188 862.507812 C 633.894531 859.394531 633.894531 856.285156 633.742188 853.171875 L 656.113281 840.253906 C 662.648438 836.480469 664.890625 828.121094 661.113281 821.582031 Z M 605.761719 847.785156 C 606.734375 854.207031 606.804688 860.996094 605.761719 867.894531 C 604.921875 873.453125 607.570312 878.964844 612.445312 881.777344 L 630.605469 892.261719 L 615.113281 919.097656 L 596.929688 908.597656 C 592.046875 905.78125 585.9375 906.242188 581.542969 909.769531 C 576.285156 913.980469 570.445312 917.359375 564.183594 919.804688 C 558.9375 921.851562 555.488281 926.90625 555.488281 932.535156 L 555.488281 953.523438 L 524.503906 953.523438 L 524.503906 932.535156 C 524.503906 926.90625 521.054688 921.851562 515.808594 919.804688 C 509.546875 917.359375 503.707031 913.980469 498.445312 909.769531 C 494.050781 906.246094 487.941406 905.78125 483.0625 908.597656 L 464.878906 919.097656 L 449.386719 892.261719 L 467.546875 881.777344 C 472.417969 878.964844 475.070312 873.453125 474.226562 867.894531 C 473.257812 861.472656 473.183594 854.679688 474.226562 847.785156 C 475.070312 842.222656 472.421875 836.710938 467.546875 833.898438 L 449.386719 823.414062 L 464.878906 796.578125 L 483.0625 807.082031 C 487.941406 809.898438 494.050781 809.433594 498.445312 805.910156 C 503.707031 801.695312 509.546875 798.320312 515.808594 795.871094 C 521.054688 793.824219 524.503906 788.769531 524.503906 783.140625 L 524.503906 762.152344 L 555.488281 762.152344 L 555.488281 783.140625 C 555.488281 788.769531 558.9375 793.824219 564.183594 795.871094 C 570.445312 798.316406 576.285156 801.691406 581.542969 805.90625 C 585.941406 809.429688 592.046875 809.894531 596.929688 807.078125 L 615.113281 796.578125 L 630.605469 823.410156 L 612.445312 833.898438 C 607.570312 836.710938 604.921875 842.222656 605.761719 847.785156 Z M 605.761719 847.785156 " fill-opacity="1" fill-rule="nonzero"/><path fill="#ff5757" d="M 539.996094 816.832031 C 517.382812 816.832031 498.988281 835.226562 498.988281 857.835938 C 498.988281 880.449219 517.382812 898.84375 539.996094 898.84375 C 562.605469 898.84375 581.003906 880.449219 581.003906 857.835938 C 581.003906 835.226562 562.605469 816.832031 539.996094 816.832031 Z M 539.996094 871.507812 C 532.457031 871.507812 526.328125 865.375 526.328125 857.835938 C 526.328125 850.300781 532.457031 844.167969 539.996094 844.167969 C 547.53125 844.167969 553.664062 850.300781 553.664062 857.835938 C 553.664062 865.375 547.53125 871.507812 539.996094 871.507812 Z M 539.996094 871.507812 " fill-opacity="1" fill-rule="nonzero"/></svg>