<svg xmlns="http://www.w3.org/2000/svg" xmlns:xlink="http://www.w3.org/1999/xlink" width="1440" zoomAndPan="magnify" viewBox="0 0 1080 1619.99993" height="2160" preserveAspectRatio="xMidYMid meet" version="1.0"><path fill="#7ed957" d="M 799.199219 1112.398438 L 280.800781 1112.398438 C 256.964844 1112.398438 237.601562 1093.035156 237.601562 1069.199219 L 237.601562 594 L 464.398438 594 L 464.398438 626.738281 C 464.398438 634.964844 465.875 643.0625 468.746094 650.785156 L 558.5625 890.242188 C 562.359375 900.367188 572.1875 907.199219 583.03125 907.199219 L 617.117188 907.199219 C 621.96875 925.761719 638.71875 939.601562 658.800781 939.601562 L 766.800781 939.601562 C 786.882812 939.601562 803.628906 925.761719 808.480469 907.199219 L 842.398438 907.199219 L 842.398438 1069.199219 C 842.398438 1093.035156 823.035156 1112.398438 799.199219 1112.398438 Z M 691.199219 680.398438 L 734.398438 680.398438 C 752.289062 680.398438 766.800781 665.886719 766.800781 648 L 766.800781 637.199219 C 778.695312 637.199219 788.398438 646.902344 788.398438 658.800781 L 788.398438 896.398438 C 788.398438 908.296875 778.695312 918 766.800781 918 L 658.800781 918 C 646.902344 918 637.199219 908.296875 637.199219 896.398438 L 637.199219 658.800781 C 637.199219 646.902344 646.902344 637.199219 658.800781 637.199219 L 658.800781 648 C 658.800781 665.886719 673.3125 680.398438 691.199219 680.398438 Z M 680.398438 637.199219 L 745.199219 637.199219 L 745.199219 648 C 745.199219 653.949219 740.347656 658.800781 734.398438 658.800781 L 691.199219 658.800781 C 685.25 658.800781 680.398438 653.949219 680.398438 648 Z M 766.800781 615.601562 L 658.800781 615.601562 C 634.964844 615.601562 615.601562 634.964844 615.601562 658.800781 L 615.601562 885.601562 L 583.03125 885.601562 C 581.175781 885.601562 579.445312 884.417969 578.769531 882.648438 L 488.996094 643.191406 C 487.011719 637.917969 486 632.390625 486 626.738281 L 486 594 L 842.398438 594 L 842.398438 885.601562 L 810 885.601562 L 810 658.800781 C 810 634.964844 790.636719 615.601562 766.800781 615.601562 Z M 280.800781 507.601562 L 799.199219 507.601562 C 823.035156 507.601562 842.398438 526.964844 842.398438 550.800781 L 842.398438 572.398438 L 237.601562 572.398438 L 237.601562 550.800781 C 237.601562 526.964844 256.964844 507.601562 280.800781 507.601562 Z M 799.199219 486 L 280.800781 486 C 245.066406 486 216 515.066406 216 550.800781 L 216 1069.199219 C 216 1104.933594 245.066406 1134 280.800781 1134 L 799.199219 1134 C 834.933594 1134 864 1104.933594 864 1069.199219 L 864 550.800781 C 864 515.066406 834.933594 486 799.199219 486 " fill-opacity="1" fill-rule="nonzero"/><path fill="#7ed957" d="M 356.398438 1026 C 344.503906 1026 334.800781 1016.296875 334.800781 1004.398438 C 334.800781 992.503906 344.503906 982.800781 356.398438 982.800781 C 368.296875 982.800781 378 992.503906 378 1004.398438 C 378 1016.296875 368.296875 1026 356.398438 1026 Z M 356.398438 961.199219 C 332.5625 961.199219 313.199219 980.5625 313.199219 1004.398438 C 313.199219 1028.234375 332.5625 1047.601562 356.398438 1047.601562 C 380.234375 1047.601562 399.601562 1028.234375 399.601562 1004.398438 C 399.601562 980.5625 380.234375 961.199219 356.398438 961.199219 " fill-opacity="1" fill-rule="nonzero"/><path fill="#7ed957" d="M 540 1026 C 528.101562 1026 518.398438 1016.296875 518.398438 1004.398438 C 518.398438 992.503906 528.101562 982.800781 540 982.800781 C 551.898438 982.800781 561.601562 992.503906 561.601562 1004.398438 C 561.601562 1016.296875 551.898438 1026 540 1026 Z M 540 961.199219 C 516.164062 961.199219 496.800781 980.5625 496.800781 1004.398438 C 496.800781 1028.234375 516.164062 1047.601562 540 1047.601562 C 563.835938 1047.601562 583.199219 1028.234375 583.199219 1004.398438 C 583.199219 980.5625 563.835938 961.199219 540 961.199219 " fill-opacity="1" fill-rule="nonzero"/><path fill="#7ed957" d="M 723.601562 1026 C 711.703125 1026 702 1016.296875 702 1004.398438 C 702 992.503906 711.703125 982.800781 723.601562 982.800781 C 735.496094 982.800781 745.199219 992.503906 745.199219 1004.398438 C 745.199219 1016.296875 735.496094 1026 723.601562 1026 Z M 723.601562 961.199219 C 699.765625 961.199219 680.398438 980.5625 680.398438 1004.398438 C 680.398438 1028.234375 699.765625 1047.601562 723.601562 1047.601562 C 747.4375 1047.601562 766.800781 1028.234375 766.800781 1004.398438 C 766.800781 980.5625 747.4375 961.199219 723.601562 961.199219 " fill-opacity="1" fill-rule="nonzero"/><path fill="#7ed957" d="M 280.800781 550.800781 L 291.601562 550.800781 C 297.546875 550.800781 302.398438 545.949219 302.398438 540 C 302.398438 534.050781 297.546875 529.199219 291.601562 529.199219 L 280.800781 529.199219 C 274.851562 529.199219 270 534.050781 270 540 C 270 545.949219 274.851562 550.800781 280.800781 550.800781 " fill-opacity="1" fill-rule="nonzero"/><path fill="#7ed957" d="M 334.800781 550.800781 L 345.601562 550.800781 C 351.546875 550.800781 356.398438 545.949219 356.398438 540 C 356.398438 534.050781 351.546875 529.199219 345.601562 529.199219 L 334.800781 529.199219 C 328.851562 529.199219 324 534.050781 324 540 C 324 545.949219 328.851562 550.800781 334.800781 550.800781 " fill-opacity="1" fill-rule="nonzero"/><path fill="#7ed957" d="M 388.800781 550.800781 L 399.601562 550.800781 C 405.546875 550.800781 410.398438 545.949219 410.398438 540 C 410.398438 534.050781 405.546875 529.199219 399.601562 529.199219 L 388.800781 529.199219 C 382.851562 529.199219 378 534.050781 378 540 C 378 545.949219 382.851562 550.800781 388.800781 550.800781 " fill-opacity="1" fill-rule="nonzero"/><path fill="#7ed957" d="M 507.601562 550.800781 L 702 550.800781 C 707.949219 550.800781 712.800781 545.949219 712.800781 540 C 712.800781 534.050781 707.949219 529.199219 702 529.199219 L 507.601562 529.199219 C 501.652344 529.199219 496.800781 534.050781 496.800781 540 C 496.800781 545.949219 501.652344 550.800781 507.601562 550.800781 " fill-opacity="1" fill-rule="nonzero"/><path fill="#7ed957" d="M 669.601562 896.398438 L 756 896.398438 C 761.949219 896.398438 766.800781 891.546875 766.800781 885.601562 C 766.800781 879.652344 761.949219 874.800781 756 874.800781 L 669.601562 874.800781 C 663.652344 874.800781 658.800781 879.652344 658.800781 885.601562 C 658.800781 891.546875 663.652344 896.398438 669.601562 896.398438 " fill-opacity="1" fill-rule="nonzero"/><path fill="#7ed957" d="M 280.800781 658.800781 L 334.800781 658.800781 C 340.75 658.800781 345.601562 653.949219 345.601562 648 C 345.601562 642.050781 340.75 637.199219 334.800781 637.199219 L 280.800781 637.199219 C 274.851562 637.199219 270 642.050781 270 648 C 270 653.949219 274.851562 658.800781 280.800781 658.800781 " fill-opacity="1" fill-rule="nonzero"/><path fill="#7ed957" d="M 280.800781 712.800781 L 453.601562 712.800781 C 459.546875 712.800781 464.398438 707.949219 464.398438 702 C 464.398438 696.050781 459.546875 691.199219 453.601562 691.199219 L 280.800781 691.199219 C 274.851562 691.199219 270 696.050781 270 702 C 270 707.949219 274.851562 712.800781 280.800781 712.800781 " fill-opacity="1" fill-rule="nonzero"/><path fill="#7ed957" d="M 280.800781 756 L 388.800781 756 C 394.75 756 399.601562 751.148438 399.601562 745.199219 C 399.601562 739.25 394.75 734.398438 388.800781 734.398438 L 280.800781 734.398438 C 274.851562 734.398438 270 739.25 270 745.199219 C 270 751.148438 274.851562 756 280.800781 756 " fill-opacity="1" fill-rule="nonzero"/><path fill="#7ed957" d="M 388.800781 1069.199219 L 324 1069.199219 C 318.050781 1069.199219 313.199219 1074.050781 313.199219 1080 C 313.199219 1085.949219 318.050781 1090.800781 324 1090.800781 L 388.800781 1090.800781 C 394.75 1090.800781 399.601562 1085.949219 399.601562 1080 C 399.601562 1074.050781 394.75 1069.199219 388.800781 1069.199219 " fill-opacity="1" fill-rule="nonzero"/><path fill="#7ed957" d="M 572.398438 1069.199219 L 507.601562 1069.199219 C 501.652344 1069.199219 496.800781 1074.050781 496.800781 1080 C 496.800781 1085.949219 501.652344 1090.800781 507.601562 1090.800781 L 572.398438 1090.800781 C 578.347656 1090.800781 583.199219 1085.949219 583.199219 1080 C 583.199219 1074.050781 578.347656 1069.199219 572.398438 1069.199219 " fill-opacity="1" fill-rule="nonzero"/><path fill="#7ed957" d="M 756 1069.199219 L 691.199219 1069.199219 C 685.25 1069.199219 680.398438 1074.050781 680.398438 1080 C 680.398438 1085.949219 685.25 1090.800781 691.199219 1090.800781 L 756 1090.800781 C 761.949219 1090.800781 766.800781 1085.949219 766.800781 1080 C 766.800781 1074.050781 761.949219 1069.199219 756 1069.199219 " fill-opacity="1" fill-rule="nonzero"/><path fill="#7ed957" d="M 302.398438 810 C 296.453125 810 291.601562 814.851562 291.601562 820.800781 C 291.601562 826.75 296.453125 831.601562 302.398438 831.601562 L 432 831.601562 C 437.949219 831.601562 442.800781 826.75 442.800781 820.800781 C 442.800781 814.851562 437.949219 810 432 810 Z M 432 853.199219 L 302.398438 853.199219 C 284.511719 853.199219 270 838.6875 270 820.800781 C 270 802.914062 284.511719 788.398438 302.398438 788.398438 L 432 788.398438 C 449.886719 788.398438 464.398438 802.914062 464.398438 820.800781 C 464.398438 838.6875 449.886719 853.199219 432 853.199219 " fill-opacity="1" fill-rule="nonzero"/></svg>