<svg width="50" height="50" viewBox="0 0 50 50" fill="none" xmlns="http://www.w3.org/2000/svg">
<path d="M44.9999 48.3332H5.00006C3.16087 48.3332 1.66679 46.8391 1.66679 44.9999V8.33333H19.1665V10.8594C19.1665 11.4942 19.2805 12.119 19.502 12.7149L26.4323 31.1915C26.7253 31.9728 27.4836 32.4999 28.3203 32.4999H30.9504C31.3247 33.9322 32.6172 35.0001 34.1667 35.0001H42.5001C44.0496 35.0001 45.3417 33.9322 45.7161 32.4999H48.3332V44.9999C48.3332 46.8391 46.8391 48.3332 44.9999 48.3332ZM36.6666 14.9999H39.9999C41.3803 14.9999 42.5001 13.8801 42.5001 12.5V11.6666C43.4178 11.6666 44.1665 12.4153 44.1665 13.3334V31.6665C44.1665 32.5846 43.4178 33.3333 42.5001 33.3333H34.1667C33.2486 33.3333 32.4999 32.5846 32.4999 31.6665V13.3334C32.4999 12.4153 33.2486 11.6666 34.1667 11.6666V12.5C34.1667 13.8801 35.2865 14.9999 36.6666 14.9999ZM35.8332 11.6666H40.8333V12.5C40.8333 12.959 40.4589 13.3334 39.9999 13.3334H36.6666C36.2076 13.3334 35.8332 12.959 35.8332 12.5V11.6666ZM42.5001 10.0001H34.1667C32.3275 10.0001 30.8335 11.4942 30.8335 13.3334V30.8335H28.3203C28.1771 30.8335 28.0436 30.7421 27.9915 30.6056L21.0645 12.129C20.9114 11.7221 20.8333 11.2956 20.8333 10.8594V8.33333H48.3332V30.8335H45.8333V13.3334C45.8333 11.4942 44.3393 10.0001 42.5001 10.0001ZM5.00006 1.66679H44.9999C46.8391 1.66679 48.3332 3.16087 48.3332 5.00006V6.66655H1.66679V5.00006C1.66679 3.16087 3.16087 1.66679 5.00006 1.66679ZM44.9999 0H5.00006C2.24278 0 0 2.24278 0 5.00006V44.9999C0 47.7572 2.24278 50 5.00006 50H44.9999C47.7572 50 50 47.7572 50 44.9999V5.00006C50 2.24278 47.7572 0 44.9999 0Z" fill="#7ED957"/>
<path d="M10.8333 41.6666C9.91549 41.6666 9.16679 40.9179 9.16679 39.9998C9.16679 39.082 9.91549 38.3333 10.8333 38.3333C11.7514 38.3333 12.5001 39.082 12.5001 39.9998C12.5001 40.9179 11.7514 41.6666 10.8333 41.6666ZM10.8333 36.6665C8.99408 36.6665 7.5 38.1606 7.5 39.9998C7.5 41.839 8.99408 43.3334 10.8333 43.3334C12.6725 43.3334 14.1668 41.839 14.1668 39.9998C14.1668 38.1606 12.6725 36.6665 10.8333 36.6665Z" fill="#7ED957"/>
<path d="M24.9993 41.6666C24.0812 41.6666 23.3325 40.9179 23.3325 39.9998C23.3325 39.082 24.0812 38.3333 24.9993 38.3333C25.9174 38.3333 26.6661 39.082 26.6661 39.9998C26.6661 40.9179 25.9174 41.6666 24.9993 41.6666ZM24.9993 36.6665C23.1601 36.6665 21.666 38.1606 21.666 39.9998C21.666 41.839 23.1601 43.3334 24.9993 43.3334C26.8385 43.3334 28.3326 41.839 28.3326 39.9998C28.3326 38.1606 26.8385 36.6665 24.9993 36.6665Z" fill="#7ED957"/>
<path d="M39.1676 41.6666C38.2495 41.6666 37.5008 40.9179 37.5008 39.9998C37.5008 39.082 38.2495 38.3333 39.1676 38.3333C40.0853 38.3333 40.834 39.082 40.834 39.9998C40.834 40.9179 40.0853 41.6666 39.1676 41.6666ZM39.1676 36.6665C37.3284 36.6665 35.834 38.1606 35.834 39.9998C35.834 41.839 37.3284 43.3334 39.1676 43.3334C41.0068 43.3334 42.5008 41.839 42.5008 39.9998C42.5008 38.1606 41.0068 36.6665 39.1676 36.6665Z" fill="#7ED957"/>
<path d="M4.99941 5.00004H5.8328C6.29155 5.00004 6.6659 4.62569 6.6659 4.16665C6.6659 3.7076 6.29155 3.33325 5.8328 3.33325H4.99941C4.54036 3.33325 4.16602 3.7076 4.16602 4.16665C4.16602 4.62569 4.54036 5.00004 4.99941 5.00004Z" fill="#7ED957"/>
<path d="M9.16738 5.00004H10.0008C10.4595 5.00004 10.8339 4.62569 10.8339 4.16665C10.8339 3.7076 10.4595 3.33325 10.0008 3.33325H9.16738C8.70833 3.33325 8.33398 3.7076 8.33398 4.16665C8.33398 4.62569 8.70833 5.00004 9.16738 5.00004Z" fill="#7ED957"/>
<path d="M13.3334 5.00004H14.1668C14.6255 5.00004 14.9999 4.62569 14.9999 4.16665C14.9999 3.7076 14.6255 3.33325 14.1668 3.33325H13.3334C12.8743 3.33325 12.5 3.7076 12.5 4.16665C12.5 4.62569 12.8743 5.00004 13.3334 5.00004Z" fill="#7ED957"/>
<path d="M22.4994 5.00004H37.4993C37.9583 5.00004 38.3327 4.62569 38.3327 4.16665C38.3327 3.7076 37.9583 3.33325 37.4993 3.33325H22.4994C22.0404 3.33325 21.666 3.7076 21.666 4.16665C21.666 4.62569 22.0404 5.00004 22.4994 5.00004Z" fill="#7ED957"/>
<path d="M34.9994 31.6665H41.666C42.125 31.6665 42.4993 31.2921 42.4993 30.8334C42.4993 30.3743 42.125 30 41.666 30H34.9994C34.5404 30 34.166 30.3743 34.166 30.8334C34.166 31.2921 34.5404 31.6665 34.9994 31.6665Z" fill="#7ED957"/>
<path d="M4.99941 13.3333H9.16608C9.62512 13.3333 9.99947 12.9589 9.99947 12.4999C9.99947 12.0409 9.62512 11.6665 9.16608 11.6665H4.99941C4.54036 11.6665 4.16602 12.0409 4.16602 12.4999C4.16602 12.9589 4.54036 13.3333 4.99941 13.3333Z" fill="#7ED957"/>
<path d="M4.99941 17.5H18.3328C18.7915 17.5 19.1659 17.1257 19.1659 16.6666C19.1659 16.2076 18.7915 15.8333 18.3328 15.8333H4.99941C4.54036 15.8333 4.16602 16.2076 4.16602 16.6666C4.16602 17.1257 4.54036 17.5 4.99941 17.5Z" fill="#7ED957"/>
<path d="M4.99941 20.8333H13.3327C13.7918 20.8333 14.1661 20.4589 14.1661 19.9999C14.1661 19.5409 13.7918 19.1665 13.3327 19.1665H4.99941C4.54036 19.1665 4.16602 19.5409 4.16602 19.9999C4.16602 20.4589 4.54036 20.8333 4.99941 20.8333Z" fill="#7ED957"/>
<path d="M13.3335 45H8.33339C7.87435 45 7.5 45.3743 7.5 45.8334C7.5 46.2924 7.87435 46.6668 8.33339 46.6668H13.3335C13.7925 46.6668 14.1668 46.2924 14.1668 45.8334C14.1668 45.3743 13.7925 45 13.3335 45Z" fill="#7ED957"/>
<path d="M27.4992 45H22.4994C22.0404 45 21.666 45.3743 21.666 45.8334C21.666 46.2924 22.0404 46.6668 22.4994 46.6668H27.4992C27.9582 46.6668 28.3326 46.2924 28.3326 45.8334C28.3326 45.3743 27.9582 45 27.4992 45Z" fill="#7ED957"/>
<path d="M41.6674 45H36.6674C36.2083 45 35.834 45.3743 35.834 45.8334C35.834 46.2924 36.2083 46.6668 36.6674 46.6668H41.6674C42.1265 46.6668 42.5008 46.2924 42.5008 45.8334C42.5008 45.3743 42.1265 45 41.6674 45Z" fill="#7ED957"/>
<path d="M6.6659 25C6.20715 25 5.8328 25.3744 5.8328 25.8334C5.8328 26.2925 6.20715 26.6668 6.6659 26.6668H16.666C17.1251 26.6668 17.4994 26.2925 17.4994 25.8334C17.4994 25.3744 17.1251 25 16.666 25H6.6659ZM16.666 28.3333H6.6659C5.28575 28.3333 4.16602 27.2136 4.16602 25.8334C4.16602 24.4533 5.28575 23.3333 6.6659 23.3333H16.666C18.0462 23.3333 19.1659 24.4533 19.1659 25.8334C19.1659 27.2136 18.0462 28.3333 16.666 28.3333Z" fill="#7ED957"/>
</svg>
