<svg xmlns="http://www.w3.org/2000/svg" xmlns:xlink="http://www.w3.org/1999/xlink" width="1440" zoomAndPan="magnify" viewBox="0 0 1080 1619.99993" height="2160" preserveAspectRatio="xMidYMid meet" version="1.0"><defs><clipPath id="696bcf8c04"><path d="M 296 471 L 778 471 L 778 1149.496094 L 296 1149.496094 Z M 296 471 " clip-rule="nonzero"/></clipPath></defs><g clip-path="url(#696bcf8c04)"><path fill="#ff5757" d="M 720.320312 1149.527344 L 353.207031 1149.527344 C 351.335938 1149.523438 349.472656 1149.429688 347.613281 1149.246094 C 345.753906 1149.0625 343.90625 1148.785156 342.074219 1148.417969 C 340.238281 1148.054688 338.429688 1147.597656 336.640625 1147.054688 C 334.851562 1146.511719 333.09375 1145.882812 331.367188 1145.164062 C 329.640625 1144.449219 327.957031 1143.652344 326.308594 1142.769531 C 324.660156 1141.886719 323.058594 1140.925781 321.503906 1139.886719 C 319.949219 1138.851562 318.449219 1137.738281 317.007812 1136.550781 C 315.5625 1135.367188 314.179688 1134.113281 312.855469 1132.789062 C 311.535156 1131.46875 310.28125 1130.085938 309.09375 1128.640625 C 307.910156 1127.195312 306.796875 1125.695312 305.757812 1124.140625 C 304.71875 1122.589844 303.757812 1120.988281 302.878906 1119.339844 C 301.996094 1117.691406 301.195312 1116.003906 300.480469 1114.277344 C 299.765625 1112.550781 299.132812 1110.792969 298.589844 1109.003906 C 298.046875 1107.214844 297.59375 1105.40625 297.226562 1103.574219 C 296.859375 1101.738281 296.585938 1099.894531 296.398438 1098.035156 C 296.214844 1096.171875 296.121094 1094.308594 296.121094 1092.441406 L 296.121094 528.308594 C 296.121094 526.441406 296.214844 524.574219 296.398438 522.714844 C 296.585938 520.855469 296.859375 519.007812 297.226562 517.175781 C 297.59375 515.34375 298.046875 513.53125 298.589844 511.746094 C 299.132812 509.957031 299.765625 508.199219 300.480469 506.472656 C 301.195312 504.746094 301.996094 503.058594 302.878906 501.410156 C 303.757812 499.761719 304.71875 498.160156 305.757812 496.605469 C 306.796875 495.054688 307.910156 493.554688 309.09375 492.109375 C 310.28125 490.664062 311.535156 489.28125 312.855469 487.960938 C 314.179688 486.636719 315.5625 485.382812 317.007812 484.199219 C 318.449219 483.011719 319.949219 481.898438 321.503906 480.859375 C 323.058594 479.824219 324.660156 478.863281 326.308594 477.980469 C 327.953125 477.097656 329.640625 476.300781 331.367188 475.582031 C 333.09375 474.867188 334.851562 474.238281 336.640625 473.695312 C 338.429688 473.152344 340.238281 472.695312 342.074219 472.328125 C 343.90625 471.964844 345.753906 471.6875 347.613281 471.503906 C 349.472656 471.320312 351.335938 471.226562 353.207031 471.222656 L 720.320312 471.222656 C 722.191406 471.226562 724.054688 471.320312 725.914062 471.503906 C 727.773438 471.6875 729.621094 471.964844 731.453125 472.328125 C 733.289062 472.695312 735.097656 473.152344 736.886719 473.695312 C 738.675781 474.238281 740.433594 474.867188 742.160156 475.582031 C 743.886719 476.300781 745.574219 477.097656 747.222656 477.980469 C 748.867188 478.863281 750.46875 479.824219 752.023438 480.859375 C 753.578125 481.898438 755.078125 483.011719 756.523438 484.199219 C 757.964844 485.382812 759.347656 486.636719 760.671875 487.960938 C 761.992188 489.28125 763.246094 490.664062 764.433594 492.109375 C 765.617188 493.554688 766.730469 495.054688 767.769531 496.605469 C 768.808594 498.160156 769.769531 499.761719 770.652344 501.410156 C 771.53125 503.058594 772.332031 504.746094 773.046875 506.472656 C 773.761719 508.199219 774.394531 509.957031 774.9375 511.746094 C 775.480469 513.53125 775.933594 515.34375 776.300781 517.175781 C 776.667969 519.007812 776.941406 520.855469 777.128906 522.714844 C 777.3125 524.574219 777.40625 526.441406 777.40625 528.308594 L 777.40625 1092.457031 C 777.40625 1094.324219 777.3125 1096.1875 777.125 1098.046875 C 776.941406 1099.90625 776.664062 1101.753906 776.296875 1103.585938 C 775.933594 1105.417969 775.476562 1107.230469 774.933594 1109.015625 C 774.390625 1110.804688 773.757812 1112.5625 773.042969 1114.289062 C 772.328125 1116.015625 771.527344 1117.699219 770.644531 1119.347656 C 769.765625 1120.996094 768.804688 1122.597656 767.765625 1124.152344 C 766.726562 1125.703125 765.613281 1127.203125 764.425781 1128.648438 C 763.242188 1130.089844 761.988281 1131.472656 760.664062 1132.796875 C 759.34375 1134.117188 757.960938 1135.371094 756.515625 1136.554688 C 755.070312 1137.742188 753.574219 1138.851562 752.019531 1139.890625 C 750.464844 1140.929688 748.863281 1141.890625 747.214844 1142.769531 C 745.570312 1143.652344 743.882812 1144.453125 742.15625 1145.167969 C 740.429688 1145.882812 738.671875 1146.511719 736.882812 1147.054688 C 735.09375 1147.601562 733.285156 1148.054688 731.453125 1148.421875 C 729.621094 1148.785156 727.773438 1149.0625 725.914062 1149.246094 C 724.054688 1149.429688 722.191406 1149.523438 720.320312 1149.527344 Z M 353.207031 486.667969 C 351.84375 486.667969 350.480469 486.734375 349.125 486.867188 C 347.765625 487.003906 346.417969 487.203125 345.078125 487.46875 C 343.742188 487.734375 342.417969 488.066406 341.113281 488.460938 C 339.808594 488.859375 338.523438 489.316406 337.265625 489.839844 C 336.003906 490.359375 334.773438 490.945312 333.570312 491.585938 C 332.367188 492.230469 331.195312 492.929688 330.0625 493.6875 C 328.929688 494.445312 327.832031 495.257812 326.777344 496.125 C 325.726562 496.988281 324.714844 497.90625 323.75 498.867188 C 322.785156 499.832031 321.871094 500.84375 321.003906 501.898438 C 320.140625 502.953125 319.328125 504.046875 318.570312 505.183594 C 317.8125 506.316406 317.109375 507.484375 316.46875 508.6875 C 315.824219 509.890625 315.242188 511.125 314.71875 512.382812 C 314.199219 513.644531 313.738281 514.925781 313.34375 516.234375 C 312.945312 517.539062 312.617188 518.859375 312.347656 520.199219 C 312.082031 521.535156 311.882812 522.882812 311.75 524.242188 C 311.617188 525.601562 311.550781 526.960938 311.550781 528.324219 L 311.550781 1092.472656 C 311.550781 1093.835938 311.617188 1095.195312 311.75 1096.554688 C 311.882812 1097.910156 312.082031 1099.257812 312.347656 1100.597656 C 312.617188 1101.9375 312.945312 1103.257812 313.34375 1104.5625 C 313.738281 1105.867188 314.199219 1107.152344 314.71875 1108.414062 C 315.242188 1109.671875 315.824219 1110.90625 316.46875 1112.109375 C 317.109375 1113.3125 317.8125 1114.480469 318.570312 1115.613281 C 319.328125 1116.75 320.140625 1117.84375 321.003906 1118.898438 C 321.871094 1119.953125 322.785156 1120.960938 323.75 1121.925781 C 324.714844 1122.890625 325.726562 1123.808594 326.777344 1124.671875 C 327.832031 1125.539062 328.929688 1126.347656 330.0625 1127.105469 C 331.195312 1127.867188 332.367188 1128.566406 333.570312 1129.210938 C 334.773438 1129.851562 336.003906 1130.433594 337.265625 1130.957031 C 338.523438 1131.480469 339.808594 1131.9375 341.113281 1132.335938 C 342.417969 1132.730469 343.742188 1133.0625 345.078125 1133.328125 C 346.417969 1133.59375 347.765625 1133.792969 349.125 1133.925781 C 350.480469 1134.0625 351.84375 1134.128906 353.207031 1134.128906 L 720.320312 1134.128906 C 721.6875 1134.128906 723.046875 1134.0625 724.40625 1133.925781 C 725.761719 1133.792969 727.109375 1133.59375 728.449219 1133.328125 C 729.785156 1133.0625 731.109375 1132.730469 732.414062 1132.335938 C 733.71875 1131.9375 735.003906 1131.480469 736.261719 1130.957031 C 737.523438 1130.433594 738.753906 1129.851562 739.957031 1129.210938 C 741.160156 1128.566406 742.332031 1127.867188 743.464844 1127.105469 C 744.597656 1126.347656 745.695312 1125.539062 746.75 1124.671875 C 747.804688 1123.808594 748.8125 1122.890625 749.777344 1121.925781 C 750.742188 1120.960938 751.65625 1119.953125 752.523438 1118.898438 C 753.386719 1117.84375 754.199219 1116.75 754.957031 1115.613281 C 755.714844 1114.480469 756.417969 1113.3125 757.058594 1112.109375 C 757.703125 1110.90625 758.285156 1109.671875 758.808594 1108.414062 C 759.328125 1107.152344 759.789062 1105.867188 760.183594 1104.5625 C 760.582031 1103.257812 760.910156 1101.9375 761.179688 1100.597656 C 761.445312 1099.257812 761.644531 1097.910156 761.777344 1096.554688 C 761.910156 1095.195312 761.980469 1093.835938 761.980469 1092.472656 L 761.980469 528.308594 C 761.980469 526.945312 761.910156 525.585938 761.777344 524.226562 C 761.644531 522.867188 761.445312 521.519531 761.179688 520.183594 C 760.910156 518.84375 760.582031 517.523438 760.183594 516.21875 C 759.789062 514.910156 759.328125 513.628906 758.808594 512.367188 C 758.285156 511.109375 757.703125 509.875 757.058594 508.671875 C 756.417969 507.46875 755.714844 506.300781 754.957031 505.167969 C 754.199219 504.03125 753.386719 502.9375 752.523438 501.882812 C 751.65625 500.828125 750.742188 499.820312 749.777344 498.855469 C 748.8125 497.890625 747.804688 496.972656 746.75 496.109375 C 745.695312 495.242188 744.597656 494.429688 743.464844 493.671875 C 742.332031 492.914062 741.160156 492.214844 739.957031 491.570312 C 738.753906 490.929688 737.523438 490.34375 736.261719 489.824219 C 735.003906 489.300781 733.71875 488.84375 732.414062 488.445312 C 731.109375 488.050781 729.785156 487.71875 728.449219 487.453125 C 727.109375 487.1875 725.761719 486.988281 724.40625 486.851562 C 723.046875 486.71875 721.6875 486.652344 720.320312 486.652344 Z M 353.207031 486.667969 " fill-opacity="1" fill-rule="nonzero"/></g><path fill="#ff5757" d="M 733.027344 1057.855469 L 340.53125 1057.855469 C 340.023438 1057.855469 339.523438 1057.808594 339.027344 1057.707031 C 338.53125 1057.609375 338.046875 1057.464844 337.578125 1057.269531 C 337.113281 1057.074219 336.667969 1056.839844 336.246094 1056.558594 C 335.824219 1056.273438 335.433594 1055.957031 335.078125 1055.597656 C 334.71875 1055.238281 334.398438 1054.847656 334.117188 1054.429688 C 333.835938 1054.007812 333.597656 1053.5625 333.40625 1053.09375 C 333.210938 1052.625 333.0625 1052.144531 332.964844 1051.648438 C 332.867188 1051.152344 332.816406 1050.648438 332.816406 1050.140625 L 332.816406 570.621094 C 332.816406 570.117188 332.867188 569.613281 332.964844 569.117188 C 333.066406 568.621094 333.210938 568.136719 333.40625 567.671875 C 333.597656 567.203125 333.835938 566.757812 334.117188 566.335938 C 334.398438 565.914062 334.71875 565.527344 335.078125 565.167969 C 335.433594 564.808594 335.824219 564.488281 336.246094 564.207031 C 336.667969 563.925781 337.113281 563.6875 337.578125 563.496094 C 338.046875 563.300781 338.53125 563.15625 339.027344 563.054688 C 339.523438 562.957031 340.023438 562.910156 340.53125 562.910156 L 733.027344 562.910156 C 733.535156 562.910156 734.035156 562.957031 734.53125 563.054688 C 735.027344 563.15625 735.511719 563.300781 735.980469 563.496094 C 736.445312 563.6875 736.890625 563.925781 737.3125 564.207031 C 737.734375 564.488281 738.125 564.808594 738.480469 565.167969 C 738.839844 565.527344 739.160156 565.914062 739.441406 566.335938 C 739.722656 566.757812 739.960938 567.203125 740.152344 567.671875 C 740.347656 568.136719 740.492188 568.621094 740.59375 569.117188 C 740.691406 569.613281 740.742188 570.117188 740.742188 570.621094 L 740.742188 1050.140625 C 740.742188 1050.648438 740.691406 1051.152344 740.59375 1051.648438 C 740.492188 1052.144531 740.347656 1052.625 740.152344 1053.09375 C 739.960938 1053.5625 739.722656 1054.007812 739.441406 1054.429688 C 739.160156 1054.847656 738.839844 1055.238281 738.480469 1055.597656 C 738.125 1055.957031 737.734375 1056.273438 737.3125 1056.558594 C 736.890625 1056.839844 736.445312 1057.074219 735.980469 1057.269531 C 735.511719 1057.464844 735.027344 1057.609375 734.53125 1057.707031 C 734.035156 1057.808594 733.535156 1057.855469 733.027344 1057.855469 Z M 348.246094 1042.429688 L 725.3125 1042.429688 L 725.3125 578.335938 L 348.246094 578.335938 Z M 348.246094 1042.429688 " fill-opacity="1" fill-rule="nonzero"/><path fill="#ff5757" d="M 594.355469 533.671875 L 479.171875 533.671875 C 478.667969 533.671875 478.164062 533.621094 477.667969 533.523438 C 477.171875 533.425781 476.6875 533.277344 476.21875 533.082031 C 475.753906 532.890625 475.308594 532.652344 474.886719 532.371094 C 474.464844 532.089844 474.078125 531.769531 473.71875 531.410156 C 473.359375 531.054688 473.039062 530.664062 472.757812 530.242188 C 472.476562 529.820312 472.238281 529.378906 472.046875 528.910156 C 471.851562 528.441406 471.707031 527.957031 471.605469 527.460938 C 471.507812 526.964844 471.457031 526.464844 471.457031 525.957031 C 471.457031 525.449219 471.507812 524.949219 471.605469 524.453125 C 471.707031 523.953125 471.851562 523.472656 472.046875 523.003906 C 472.238281 522.535156 472.476562 522.09375 472.757812 521.671875 C 473.039062 521.25 473.359375 520.859375 473.71875 520.503906 C 474.078125 520.144531 474.464844 519.824219 474.886719 519.542969 C 475.308594 519.261719 475.753906 519.023438 476.21875 518.828125 C 476.6875 518.636719 477.171875 518.488281 477.667969 518.390625 C 478.164062 518.292969 478.667969 518.242188 479.171875 518.242188 L 594.355469 518.242188 C 594.859375 518.242188 595.363281 518.292969 595.859375 518.390625 C 596.355469 518.488281 596.839844 518.636719 597.308594 518.828125 C 597.773438 519.023438 598.21875 519.261719 598.640625 519.542969 C 599.0625 519.824219 599.453125 520.144531 599.808594 520.503906 C 600.167969 520.859375 600.488281 521.25 600.769531 521.671875 C 601.050781 522.09375 601.289062 522.535156 601.480469 523.003906 C 601.675781 523.472656 601.820312 523.953125 601.921875 524.453125 C 602.019531 524.949219 602.070312 525.449219 602.070312 525.957031 C 602.070312 526.464844 602.019531 526.964844 601.921875 527.460938 C 601.820312 527.957031 601.675781 528.441406 601.480469 528.910156 C 601.289062 529.378906 601.050781 529.820312 600.769531 530.242188 C 600.488281 530.664062 600.167969 531.054688 599.808594 531.410156 C 599.453125 531.769531 599.0625 532.089844 598.640625 532.371094 C 598.21875 532.652344 597.773438 532.890625 597.308594 533.082031 C 596.839844 533.277344 596.355469 533.425781 595.859375 533.523438 C 595.363281 533.621094 594.859375 533.671875 594.355469 533.671875 Z M 594.355469 533.671875 " fill-opacity="1" fill-rule="nonzero"/><path fill="#ff5757" d="M 450.816406 533.671875 L 437.601562 533.671875 C 437.09375 533.671875 436.59375 533.621094 436.09375 533.523438 C 435.597656 533.425781 435.117188 533.277344 434.648438 533.082031 C 434.179688 532.890625 433.734375 532.652344 433.316406 532.371094 C 432.894531 532.089844 432.503906 531.769531 432.144531 531.410156 C 431.789062 531.054688 431.46875 530.664062 431.1875 530.242188 C 430.90625 529.820312 430.667969 529.378906 430.472656 528.910156 C 430.28125 528.441406 430.132812 527.957031 430.035156 527.460938 C 429.9375 526.964844 429.886719 526.464844 429.886719 525.957031 C 429.886719 525.449219 429.9375 524.949219 430.035156 524.453125 C 430.132812 523.953125 430.28125 523.472656 430.472656 523.003906 C 430.667969 522.535156 430.90625 522.09375 431.1875 521.671875 C 431.46875 521.25 431.789062 520.859375 432.144531 520.503906 C 432.503906 520.144531 432.894531 519.824219 433.316406 519.542969 C 433.734375 519.261719 434.179688 519.023438 434.648438 518.828125 C 435.117188 518.636719 435.597656 518.488281 436.09375 518.390625 C 436.59375 518.292969 437.09375 518.242188 437.601562 518.242188 L 450.816406 518.242188 C 451.320312 518.242188 451.824219 518.292969 452.320312 518.390625 C 452.816406 518.488281 453.300781 518.636719 453.765625 518.828125 C 454.234375 519.023438 454.679688 519.261719 455.101562 519.542969 C 455.523438 519.824219 455.910156 520.144531 456.269531 520.503906 C 456.628906 520.859375 456.949219 521.25 457.230469 521.671875 C 457.511719 522.09375 457.75 522.535156 457.941406 523.003906 C 458.136719 523.472656 458.28125 523.953125 458.382812 524.453125 C 458.480469 524.949219 458.53125 525.449219 458.53125 525.957031 C 458.53125 526.464844 458.480469 526.964844 458.382812 527.460938 C 458.28125 527.957031 458.136719 528.441406 457.941406 528.910156 C 457.75 529.378906 457.511719 529.820312 457.230469 530.242188 C 456.949219 530.664062 456.628906 531.054688 456.269531 531.410156 C 455.910156 531.769531 455.523438 532.089844 455.101562 532.371094 C 454.679688 532.652344 454.234375 532.890625 453.765625 533.082031 C 453.300781 533.277344 452.816406 533.425781 452.320312 533.523438 C 451.824219 533.621094 451.320312 533.671875 450.816406 533.671875 Z M 450.816406 533.671875 " fill-opacity="1" fill-rule="nonzero"/><path fill="#ff5757" d="M 536.761719 1125.1875 C 535.785156 1125.1875 534.8125 1125.140625 533.839844 1125.042969 C 532.871094 1124.949219 531.90625 1124.804688 530.949219 1124.617188 C 529.992188 1124.425781 529.046875 1124.191406 528.113281 1123.90625 C 527.179688 1123.625 526.265625 1123.296875 525.363281 1122.921875 C 524.460938 1122.550781 523.582031 1122.132812 522.722656 1121.675781 C 521.859375 1121.214844 521.023438 1120.714844 520.214844 1120.171875 C 519.402344 1119.628906 518.621094 1119.050781 517.867188 1118.429688 C 517.113281 1117.8125 516.390625 1117.160156 515.699219 1116.46875 C 515.011719 1115.78125 514.355469 1115.058594 513.738281 1114.304688 C 513.117188 1113.550781 512.539062 1112.769531 511.996094 1111.957031 C 511.453125 1111.144531 510.953125 1110.3125 510.492188 1109.449219 C 510.035156 1108.589844 509.617188 1107.710938 509.242188 1106.808594 C 508.871094 1105.90625 508.542969 1104.992188 508.257812 1104.058594 C 507.976562 1103.125 507.738281 1102.179688 507.546875 1101.222656 C 507.359375 1100.265625 507.214844 1099.300781 507.117188 1098.332031 C 507.023438 1097.359375 506.976562 1096.386719 506.976562 1095.414062 C 506.976562 1094.4375 507.023438 1093.464844 507.117188 1092.492188 C 507.214844 1091.523438 507.355469 1090.558594 507.546875 1089.601562 C 507.738281 1088.644531 507.972656 1087.699219 508.257812 1086.769531 C 508.539062 1085.835938 508.867188 1084.917969 509.242188 1084.015625 C 509.613281 1083.113281 510.03125 1082.234375 510.492188 1081.375 C 510.949219 1080.515625 511.453125 1079.679688 511.992188 1078.867188 C 512.535156 1078.054688 513.117188 1077.273438 513.734375 1076.519531 C 514.351562 1075.765625 515.007812 1075.042969 515.695312 1074.355469 C 516.386719 1073.664062 517.109375 1073.011719 517.863281 1072.390625 C 518.617188 1071.773438 519.398438 1071.191406 520.210938 1070.652344 C 521.019531 1070.109375 521.855469 1069.609375 522.714844 1069.148438 C 523.578125 1068.6875 524.457031 1068.273438 525.359375 1067.898438 C 526.257812 1067.527344 527.175781 1067.199219 528.109375 1066.914062 C 529.042969 1066.632812 529.988281 1066.394531 530.945312 1066.203125 C 531.902344 1066.015625 532.863281 1065.871094 533.835938 1065.777344 C 534.804688 1065.679688 535.78125 1065.632812 536.753906 1065.632812 C 537.730469 1065.632812 538.703125 1065.679688 539.671875 1065.777344 C 540.644531 1065.871094 541.609375 1066.015625 542.566406 1066.207031 C 543.519531 1066.394531 544.464844 1066.632812 545.398438 1066.917969 C 546.332031 1067.199219 547.25 1067.527344 548.152344 1067.902344 C 549.050781 1068.273438 549.933594 1068.691406 550.792969 1069.152344 C 551.652344 1069.609375 552.488281 1070.113281 553.300781 1070.652344 C 554.109375 1071.195312 554.890625 1071.777344 555.644531 1072.394531 C 556.398438 1073.015625 557.121094 1073.667969 557.8125 1074.359375 C 558.5 1075.046875 559.15625 1075.769531 559.773438 1076.523438 C 560.390625 1077.277344 560.972656 1078.058594 561.515625 1078.871094 C 562.054688 1079.683594 562.558594 1080.519531 563.015625 1081.378906 C 563.476562 1082.238281 563.890625 1083.121094 564.265625 1084.019531 C 564.636719 1084.921875 564.964844 1085.839844 565.25 1086.773438 C 565.53125 1087.707031 565.769531 1088.652344 565.957031 1089.609375 C 566.148438 1090.5625 566.292969 1091.527344 566.386719 1092.5 C 566.480469 1093.46875 566.53125 1094.441406 566.53125 1095.417969 C 566.527344 1096.390625 566.480469 1097.363281 566.382812 1098.335938 C 566.285156 1099.304688 566.144531 1100.265625 565.953125 1101.222656 C 565.761719 1102.179688 565.523438 1103.125 565.242188 1104.054688 C 564.957031 1104.988281 564.628906 1105.90625 564.253906 1106.804688 C 563.882812 1107.707031 563.464844 1108.585938 563.003906 1109.445312 C 562.546875 1110.304688 562.042969 1111.140625 561.503906 1111.949219 C 560.960938 1112.757812 560.382812 1113.542969 559.761719 1114.296875 C 559.144531 1115.046875 558.492188 1115.769531 557.800781 1116.457031 C 557.113281 1117.148438 556.390625 1117.800781 555.636719 1118.421875 C 554.882812 1119.039062 554.101562 1119.617188 553.292969 1120.160156 C 552.480469 1120.703125 551.648438 1121.203125 550.789062 1121.664062 C 549.925781 1122.121094 549.046875 1122.539062 548.148438 1122.914062 C 547.246094 1123.285156 546.332031 1123.613281 545.398438 1123.898438 C 544.464844 1124.183594 543.519531 1124.417969 542.566406 1124.609375 C 541.609375 1124.800781 540.648438 1124.945312 539.675781 1125.042969 C 538.707031 1125.136719 537.734375 1125.1875 536.761719 1125.1875 Z M 536.761719 1081.0625 C 535.816406 1081.0625 534.882812 1081.152344 533.960938 1081.335938 C 533.035156 1081.519531 532.140625 1081.789062 531.269531 1082.152344 C 530.398438 1082.511719 529.570312 1082.953125 528.785156 1083.476562 C 528.003906 1084 527.277344 1084.59375 526.613281 1085.257812 C 525.945312 1085.925781 525.351562 1086.648438 524.824219 1087.433594 C 524.300781 1088.214844 523.859375 1089.042969 523.5 1089.910156 C 523.136719 1090.78125 522.867188 1091.679688 522.679688 1092.601562 C 522.496094 1093.527344 522.402344 1094.460938 522.402344 1095.402344 C 522.402344 1096.34375 522.496094 1097.277344 522.679688 1098.203125 C 522.859375 1099.125 523.132812 1100.023438 523.492188 1100.894531 C 523.851562 1101.765625 524.292969 1102.589844 524.816406 1103.375 C 525.339844 1104.160156 525.933594 1104.882812 526.601562 1105.550781 C 527.265625 1106.21875 527.992188 1106.8125 528.773438 1107.335938 C 529.558594 1107.859375 530.382812 1108.300781 531.253906 1108.664062 C 532.125 1109.023438 533.023438 1109.296875 533.945312 1109.480469 C 534.871094 1109.664062 535.800781 1109.757812 536.746094 1109.757812 C 537.6875 1109.757812 538.621094 1109.667969 539.542969 1109.484375 C 540.46875 1109.300781 541.367188 1109.027344 542.234375 1108.667969 C 543.105469 1108.308594 543.933594 1107.867188 544.71875 1107.34375 C 545.5 1106.820312 546.226562 1106.226562 546.894531 1105.5625 C 547.558594 1104.894531 548.15625 1104.171875 548.679688 1103.386719 C 549.203125 1102.605469 549.644531 1101.777344 550.003906 1100.90625 C 550.367188 1100.039062 550.640625 1099.140625 550.824219 1098.214844 C 551.007812 1097.292969 551.101562 1096.359375 551.101562 1095.417969 C 551.101562 1094.476562 551.007812 1093.542969 550.824219 1092.621094 C 550.640625 1091.695312 550.367188 1090.796875 550.007812 1089.929688 C 549.648438 1089.058594 549.207031 1088.230469 548.683594 1087.449219 C 548.160156 1086.664062 547.566406 1085.941406 546.898438 1085.273438 C 546.234375 1084.609375 545.507812 1084.011719 544.726562 1083.488281 C 543.945312 1082.964844 543.117188 1082.523438 542.246094 1082.160156 C 541.378906 1081.800781 540.480469 1081.527344 539.558594 1081.339844 C 538.632812 1081.15625 537.703125 1081.0625 536.761719 1081.0625 Z M 536.761719 1081.0625 " fill-opacity="1" fill-rule="nonzero"/><path fill="#ff5757" d="M 483.59375 683.867188 C 482.296875 683.289062 481.050781 682.621094 479.855469 681.855469 C 478.660156 681.09375 477.527344 680.246094 476.457031 679.3125 C 475.386719 678.378906 474.394531 677.371094 473.476562 676.292969 C 472.554688 675.210938 471.722656 674.066406 470.976562 672.859375 C 470.226562 671.65625 469.570312 670.402344 469.011719 669.097656 C 468.449219 667.792969 467.988281 666.457031 467.628906 665.085938 C 467.265625 663.710938 467.011719 662.320312 466.855469 660.910156 C 466.703125 659.5 466.65625 658.085938 466.714844 656.667969 L 466.714844 612.21875 C 466.703125 611.535156 466.824219 610.878906 467.074219 610.246094 C 467.328125 609.613281 467.695312 609.054688 468.171875 608.570312 C 468.636719 608.066406 469.179688 607.683594 469.808594 607.414062 C 470.4375 607.144531 471.09375 607.015625 471.773438 607.027344 C 472.113281 607.027344 472.449219 607.058594 472.785156 607.125 C 473.117188 607.191406 473.441406 607.289062 473.753906 607.417969 C 474.066406 607.550781 474.367188 607.707031 474.648438 607.898438 C 474.929688 608.085938 475.191406 608.300781 475.433594 608.539062 C 475.671875 608.78125 475.886719 609.039062 476.074219 609.324219 C 476.265625 609.605469 476.425781 609.902344 476.554688 610.214844 C 476.683594 610.53125 476.785156 610.851562 476.851562 611.1875 C 476.917969 611.519531 476.949219 611.855469 476.949219 612.195312 L 476.949219 656.992188 C 476.886719 659.011719 477.117188 661 477.644531 662.953125 C 478.167969 664.90625 478.964844 666.738281 480.035156 668.457031 C 481.035156 670 482.226562 671.375 483.609375 672.582031 C 484.996094 673.789062 486.523438 674.777344 488.191406 675.550781 C 489.882812 676.332031 491.640625 676.921875 493.460938 677.320312 C 495.285156 677.71875 497.125 677.917969 498.992188 677.917969 C 500.855469 677.917969 502.699219 677.71875 504.519531 677.320312 C 506.339844 676.921875 508.097656 676.332031 509.789062 675.550781 C 511.457031 674.777344 512.984375 673.785156 514.371094 672.578125 C 515.753906 671.375 516.949219 670 517.945312 668.457031 C 519.011719 666.738281 519.8125 664.902344 520.335938 662.953125 C 520.863281 661 521.09375 659.011719 521.03125 656.992188 L 521.03125 612.21875 C 521.019531 611.535156 521.140625 610.878906 521.390625 610.246094 C 521.644531 609.613281 522.011719 609.054688 522.488281 608.570312 C 522.953125 608.066406 523.496094 607.683594 524.125 607.414062 C 524.753906 607.144531 525.410156 607.015625 526.089844 607.027344 C 526.429688 607.027344 526.765625 607.058594 527.101562 607.125 C 527.433594 607.191406 527.757812 607.289062 528.070312 607.417969 C 528.382812 607.550781 528.683594 607.707031 528.964844 607.898438 C 529.246094 608.085938 529.507812 608.300781 529.75 608.539062 C 529.988281 608.78125 530.203125 609.039062 530.390625 609.324219 C 530.582031 609.605469 530.742188 609.902344 530.871094 610.214844 C 531 610.53125 531.101562 610.851562 531.167969 611.1875 C 531.234375 611.519531 531.265625 611.855469 531.265625 612.195312 L 531.265625 656.644531 C 531.367188 659.648438 531.015625 662.597656 530.210938 665.492188 C 529.40625 668.390625 528.183594 671.097656 526.546875 673.617188 C 525.039062 675.855469 523.257812 677.847656 521.199219 679.585938 C 519.136719 681.328125 516.878906 682.757812 514.417969 683.867188 C 512 684.984375 509.492188 685.828125 506.890625 686.398438 C 504.285156 686.96875 501.65625 687.253906 498.992188 687.253906 C 496.328125 687.253906 493.695312 686.96875 491.09375 686.398438 C 488.492188 685.828125 485.980469 684.984375 483.5625 683.867188 Z M 483.59375 683.867188 " fill-opacity="1" fill-rule="nonzero"/><path fill="#ff5757" d="M 499.007812 688.8125 C 493.398438 688.808594 488.050781 687.640625 482.953125 685.304688 C 481.589844 684.695312 480.277344 683.984375 479.019531 683.179688 C 477.761719 682.375 476.570312 681.484375 475.445312 680.5 C 474.320312 679.519531 473.273438 678.457031 472.308594 677.320312 C 471.339844 676.183594 470.464844 674.976562 469.675781 673.710938 C 468.886719 672.441406 468.199219 671.121094 467.605469 669.75 C 467.015625 668.378906 466.527344 666.96875 466.148438 665.527344 C 465.765625 664.082031 465.492188 662.617188 465.328125 661.132812 C 465.167969 659.648438 465.113281 658.160156 465.171875 656.667969 L 465.171875 612.21875 C 465.164062 611.558594 465.253906 610.910156 465.441406 610.277344 C 465.628906 609.640625 465.902344 609.050781 466.265625 608.496094 C 466.628906 607.945312 467.066406 607.460938 467.574219 607.039062 C 468.085938 606.617188 468.644531 606.28125 469.253906 606.023438 C 469.863281 605.769531 470.5 605.613281 471.15625 605.546875 C 471.8125 605.484375 472.464844 605.515625 473.113281 605.644531 C 473.761719 605.777344 474.378906 606 474.957031 606.3125 C 475.539062 606.625 476.0625 607.019531 476.527344 607.488281 C 477.167969 608.109375 477.65625 608.828125 478 609.652344 C 478.339844 610.472656 478.503906 611.328125 478.492188 612.21875 L 478.492188 657.015625 C 478.4375 658.894531 478.652344 660.738281 479.144531 662.554688 C 479.632812 664.371094 480.375 666.074219 481.371094 667.667969 C 483.25 670.570312 485.757812 672.75 488.894531 674.210938 C 490.484375 674.9375 492.136719 675.488281 493.851562 675.859375 C 495.5625 676.234375 497.292969 676.417969 499.042969 676.417969 C 500.796875 676.417969 502.527344 676.234375 504.238281 675.859375 C 505.953125 675.488281 507.605469 674.9375 509.195312 674.210938 C 512.324219 672.75 514.828125 670.570312 516.710938 667.675781 C 517.695312 666.082031 518.429688 664.382812 518.910156 662.574219 C 519.394531 660.765625 519.605469 658.925781 519.550781 657.054688 L 519.550781 612.21875 C 519.542969 611.558594 519.632812 610.910156 519.820312 610.277344 C 520.003906 609.640625 520.28125 609.050781 520.644531 608.496094 C 521.007812 607.945312 521.445312 607.460938 521.953125 607.039062 C 522.464844 606.617188 523.023438 606.28125 523.632812 606.023438 C 524.242188 605.769531 524.875 605.613281 525.535156 605.546875 C 526.191406 605.484375 526.84375 605.515625 527.492188 605.644531 C 528.140625 605.777344 528.753906 606 529.335938 606.3125 C 529.917969 606.625 530.441406 607.019531 530.90625 607.488281 C 531.542969 608.109375 532.035156 608.828125 532.375 609.652344 C 532.71875 610.472656 532.882812 611.328125 532.871094 612.21875 L 532.871094 656.667969 C 532.929688 658.160156 532.878906 659.648438 532.714844 661.128906 C 532.554688 662.613281 532.28125 664.078125 531.902344 665.519531 C 531.523438 666.964844 531.039062 668.371094 530.449219 669.742188 C 529.859375 671.113281 529.171875 672.433594 528.382812 673.703125 C 527.597656 674.96875 526.722656 676.171875 525.757812 677.3125 C 524.792969 678.449219 523.746094 679.511719 522.625 680.496094 C 521.5 681.476562 520.3125 682.371094 519.054688 683.175781 C 517.800781 683.984375 516.492188 684.691406 515.128906 685.304688 C 510.011719 687.648438 504.636719 688.820312 499.007812 688.8125 Z M 471.765625 608.585938 C 471.296875 608.570312 470.84375 608.652344 470.410156 608.835938 C 469.976562 609.019531 469.601562 609.285156 469.28125 609.632812 C 468.574219 610.347656 468.230469 611.203125 468.25 612.210938 L 468.25 656.660156 C 468.160156 659.5 468.492188 662.289062 469.253906 665.03125 C 470.011719 667.769531 471.160156 670.332031 472.699219 672.722656 C 474.132812 674.851562 475.824219 676.746094 477.785156 678.402344 C 479.742188 680.0625 481.890625 681.417969 484.226562 682.480469 C 486.542969 683.539062 488.949219 684.34375 491.4375 684.886719 C 493.929688 685.429688 496.449219 685.699219 499 685.699219 C 501.546875 685.699219 504.066406 685.429688 506.558594 684.886719 C 509.050781 684.34375 511.453125 683.539062 513.769531 682.480469 C 516.105469 681.417969 518.253906 680.0625 520.210938 678.402344 C 522.167969 676.746094 523.859375 674.851562 525.289062 672.722656 C 526.832031 670.332031 527.980469 667.769531 528.738281 665.03125 C 529.5 662.292969 529.832031 659.5 529.738281 656.660156 L 529.738281 612.21875 C 529.738281 611.863281 529.6875 611.515625 529.585938 611.179688 C 529.484375 610.839844 529.332031 610.523438 529.136719 610.226562 C 528.941406 609.933594 528.707031 609.671875 528.433594 609.445312 C 528.160156 609.21875 527.863281 609.039062 527.535156 608.902344 C 527.210938 608.761719 526.871094 608.675781 526.519531 608.636719 C 526.164062 608.601562 525.816406 608.617188 525.46875 608.679688 C 525.121094 608.746094 524.789062 608.863281 524.472656 609.023438 C 524.160156 609.1875 523.875 609.394531 523.621094 609.640625 C 522.914062 610.355469 522.566406 611.210938 522.589844 612.21875 L 522.589844 657.015625 C 522.648438 659.1875 522.394531 661.320312 521.824219 663.414062 C 521.253906 665.511719 520.394531 667.476562 519.242188 669.320312 C 518.167969 670.984375 516.882812 672.464844 515.386719 673.765625 C 513.894531 675.066406 512.25 676.136719 510.453125 676.972656 C 508.65625 677.796875 506.792969 678.417969 504.859375 678.839844 C 502.929688 679.261719 500.976562 679.472656 499 679.472656 C 497.023438 679.472656 495.066406 679.261719 493.136719 678.839844 C 491.203125 678.417969 489.339844 677.796875 487.542969 676.972656 C 485.746094 676.136719 484.097656 675.066406 482.605469 673.765625 C 481.109375 672.460938 479.824219 670.976562 478.75 669.3125 C 477.59375 667.472656 476.730469 665.503906 476.160156 663.40625 C 475.585938 661.3125 475.332031 659.179688 475.394531 657.007812 L 475.394531 612.21875 C 475.410156 611.210938 475.054688 610.359375 474.328125 609.664062 C 473.636719 608.921875 472.78125 608.566406 471.765625 608.59375 Z M 471.765625 608.585938 " fill-opacity="1" fill-rule="nonzero"/><path fill="#ff5757" d="M 548 685.3125 C 547.542969 684.878906 547.191406 684.371094 546.949219 683.792969 C 546.703125 683.210938 546.582031 682.609375 546.589844 681.976562 C 546.566406 680.8125 546.90625 679.765625 547.605469 678.832031 L 573.59375 646.839844 L 547.828125 615.109375 C 547.132812 614.175781 546.796875 613.128906 546.820312 611.964844 C 546.808594 611.636719 546.832031 611.3125 546.890625 610.988281 C 546.945312 610.664062 547.035156 610.351562 547.15625 610.046875 C 547.273438 609.742188 547.425781 609.453125 547.605469 609.179688 C 547.785156 608.90625 547.992188 608.652344 548.222656 608.421875 C 548.453125 608.191406 548.707031 607.984375 548.980469 607.804688 C 549.253906 607.625 549.542969 607.472656 549.847656 607.355469 C 550.152344 607.234375 550.464844 607.144531 550.789062 607.089844 C 551.113281 607.03125 551.4375 607.007812 551.765625 607.019531 C 552.597656 607.015625 553.386719 607.203125 554.132812 607.574219 C 554.847656 607.917969 555.449219 608.410156 555.929688 609.039062 L 579.675781 639.203125 L 603.417969 608.816406 C 603.839844 608.214844 604.378906 607.75 605.039062 607.429688 C 605.699219 607.109375 606.398438 606.972656 607.128906 607.019531 C 607.78125 607.011719 608.410156 607.128906 609.015625 607.371094 C 609.617188 607.613281 610.152344 607.964844 610.617188 608.421875 C 611.09375 608.863281 611.460938 609.382812 611.714844 609.984375 C 611.972656 610.582031 612.09375 611.207031 612.082031 611.855469 C 612.097656 612.894531 611.796875 613.835938 611.179688 614.671875 L 585.183594 646.738281 L 611.179688 678.691406 C 611.898438 679.535156 612.238281 680.507812 612.191406 681.617188 C 612.207031 682.285156 612.097656 682.933594 611.851562 683.558594 C 611.609375 684.183594 611.253906 684.738281 610.785156 685.21875 C 610.523438 685.476562 610.238281 685.703125 609.925781 685.898438 C 609.613281 686.097656 609.285156 686.257812 608.9375 686.382812 C 608.589844 686.507812 608.234375 686.59375 607.871094 686.640625 C 607.503906 686.6875 607.140625 686.695312 606.773438 686.660156 C 606.40625 686.628906 606.046875 686.558594 605.695312 686.449219 C 605.34375 686.335938 605.007812 686.191406 604.6875 686.007812 C 604.371094 685.824219 604.074219 685.609375 603.800781 685.359375 C 603.527344 685.113281 603.285156 684.839844 603.070312 684.539062 L 578.996094 654.269531 L 555.25 684.664062 C 554.785156 685.285156 554.203125 685.769531 553.511719 686.125 C 552.820312 686.476562 552.085938 686.664062 551.308594 686.675781 C 550.6875 686.683594 550.089844 686.570312 549.515625 686.332031 C 548.9375 686.097656 548.433594 685.753906 548 685.3125 Z M 548 685.3125 " fill-opacity="1" fill-rule="nonzero"/><path fill="#ff5757" d="M 607.113281 688.25 C 606.058594 688.257812 605.058594 688.015625 604.125 687.523438 C 603.1875 687.035156 602.417969 686.351562 601.820312 685.480469 L 579.011719 656.792969 L 556.46875 685.644531 C 556.203125 686.011719 555.898438 686.347656 555.558594 686.652344 C 555.21875 686.957031 554.851562 687.21875 554.453125 687.441406 C 554.054688 687.667969 553.640625 687.84375 553.203125 687.976562 C 552.769531 688.109375 552.324219 688.195312 551.867188 688.234375 C 551.414062 688.269531 550.960938 688.257812 550.511719 688.195312 C 550.058594 688.132812 549.617188 688.023438 549.191406 687.867188 C 548.761719 687.710938 548.355469 687.507812 547.972656 687.265625 C 547.589844 687.019531 547.234375 686.734375 546.910156 686.414062 C 546.308594 685.839844 545.84375 685.167969 545.519531 684.398438 C 545.195312 683.628906 545.035156 682.828125 545.046875 681.992188 C 545.023438 680.484375 545.46875 679.128906 546.371094 677.921875 L 571.628906 646.839844 L 546.640625 616.082031 C 545.71875 614.867188 545.265625 613.492188 545.292969 611.964844 C 545.269531 611.097656 545.421875 610.261719 545.746094 609.457031 C 546.070312 608.652344 546.539062 607.945312 547.160156 607.335938 C 547.664062 606.847656 548.226562 606.453125 548.855469 606.144531 C 549.484375 605.835938 550.144531 605.632812 550.835938 605.53125 C 551.527344 605.429688 552.21875 605.4375 552.90625 605.554688 C 553.597656 605.667969 554.253906 605.886719 554.875 606.207031 C 555.792969 606.664062 556.566406 607.300781 557.1875 608.121094 L 579.683594 636.710938 L 602.214844 607.867188 C 602.5 607.523438 602.8125 607.210938 603.160156 606.929688 C 603.507812 606.652344 603.882812 606.410156 604.277344 606.207031 C 604.675781 606.003906 605.089844 605.847656 605.519531 605.730469 C 605.953125 605.613281 606.390625 605.542969 606.835938 605.515625 C 607.28125 605.488281 607.722656 605.507812 608.164062 605.574219 C 608.605469 605.640625 609.035156 605.75 609.453125 605.90625 C 609.871094 606.058594 610.269531 606.253906 610.648438 606.492188 C 611.027344 606.730469 611.375 607.003906 611.695312 607.3125 C 612.328125 607.898438 612.8125 608.589844 613.152344 609.382812 C 613.488281 610.175781 613.652344 611 613.640625 611.863281 C 613.652344 613.234375 613.253906 614.472656 612.445312 615.582031 L 587.1875 646.746094 L 612.390625 677.726562 C 613.34375 678.835938 613.800781 680.121094 613.757812 681.585938 C 613.773438 682.453125 613.621094 683.292969 613.304688 684.105469 C 612.984375 684.914062 612.519531 685.628906 611.914062 686.253906 C 611.292969 686.914062 610.5625 687.417969 609.726562 687.765625 C 608.890625 688.113281 608.019531 688.273438 607.113281 688.25 Z M 578.980469 651.808594 L 604.269531 683.613281 C 604.46875 683.933594 604.71875 684.214844 605.011719 684.453125 C 605.308594 684.695312 605.632812 684.878906 605.988281 685.011719 C 606.34375 685.140625 606.710938 685.214844 607.089844 685.222656 C 607.472656 685.234375 607.839844 685.183594 608.203125 685.070312 C 608.566406 684.960938 608.902344 684.792969 609.210938 684.570312 C 609.515625 684.347656 609.78125 684.082031 610 683.769531 C 610.21875 683.460938 610.382812 683.125 610.492188 682.761719 C 610.597656 682.398438 610.644531 682.027344 610.632812 681.648438 C 610.679688 680.933594 610.476562 680.304688 610.015625 679.757812 L 583.199219 646.769531 L 609.976562 613.730469 C 610.367188 613.175781 610.554688 612.5625 610.539062 611.886719 C 610.5625 610.964844 610.234375 610.191406 609.550781 609.570312 C 608.882812 608.902344 608.074219 608.578125 607.128906 608.601562 C 606.652344 608.550781 606.195312 608.628906 605.757812 608.828125 C 605.320312 609.03125 604.964844 609.332031 604.691406 609.726562 L 579.683594 641.742188 L 554.71875 610.035156 C 554.378906 609.582031 553.949219 609.234375 553.4375 608.992188 C 553.109375 608.820312 552.761719 608.703125 552.394531 608.636719 C 552.027344 608.574219 551.660156 608.566406 551.289062 608.617188 C 550.921875 608.664062 550.570312 608.769531 550.230469 608.929688 C 549.894531 609.089844 549.589844 609.296875 549.320312 609.550781 C 548.640625 610.226562 548.320312 611.042969 548.363281 612.003906 C 548.335938 612.824219 548.570312 613.566406 549.0625 614.222656 L 575.585938 646.839844 L 548.808594 679.773438 C 548.339844 680.421875 548.117188 681.148438 548.136719 681.949219 C 548.125 682.832031 548.441406 683.578125 549.085938 684.183594 C 549.253906 684.359375 549.4375 684.511719 549.640625 684.640625 C 549.84375 684.773438 550.058594 684.878906 550.28125 684.964844 C 550.507812 685.046875 550.742188 685.101562 550.980469 685.132812 C 551.21875 685.164062 551.460938 685.164062 551.699219 685.140625 C 551.9375 685.117188 552.171875 685.066406 552.402344 684.988281 C 552.628906 684.910156 552.84375 684.808594 553.050781 684.679688 C 553.253906 684.554688 553.441406 684.40625 553.613281 684.234375 C 553.785156 684.066406 553.933594 683.878906 554.0625 683.675781 Z M 578.980469 651.808594 " fill-opacity="1" fill-rule="nonzero"/><path fill="#ff5757" d="M 495.09375 830.570312 C 493.796875 829.992188 492.550781 829.320312 491.355469 828.554688 C 490.160156 827.789062 489.023438 826.941406 487.957031 826.007812 C 486.886719 825.074219 485.890625 824.066406 484.972656 822.980469 C 484.050781 821.898438 483.21875 820.753906 482.46875 819.546875 C 481.722656 818.339844 481.066406 817.085938 480.507812 815.78125 C 479.945312 814.476562 479.484375 813.136719 479.121094 811.765625 C 478.761719 810.390625 478.503906 808.996094 478.351562 807.585938 C 478.199219 806.175781 478.152344 804.757812 478.207031 803.339844 L 478.207031 758.898438 C 478.195312 758.214844 478.316406 757.554688 478.574219 756.917969 C 478.828125 756.28125 479.195312 755.722656 479.675781 755.234375 C 480.136719 754.734375 480.683594 754.347656 481.308594 754.082031 C 481.933594 753.8125 482.585938 753.679688 483.269531 753.691406 C 483.609375 753.691406 483.945312 753.722656 484.28125 753.789062 C 484.613281 753.855469 484.9375 753.953125 485.25 754.085938 C 485.566406 754.214844 485.863281 754.375 486.148438 754.5625 C 486.429688 754.753906 486.691406 754.96875 486.933594 755.210938 C 487.171875 755.449219 487.386719 755.710938 487.574219 755.996094 C 487.765625 756.277344 487.921875 756.578125 488.054688 756.890625 C 488.183594 757.207031 488.28125 757.53125 488.347656 757.863281 C 488.414062 758.195312 488.445312 758.535156 488.445312 758.875 L 488.445312 803.617188 C 488.378906 805.640625 488.609375 807.632812 489.136719 809.589844 C 489.664062 811.546875 490.460938 813.382812 491.53125 815.105469 C 492.527344 816.648438 493.71875 818.019531 495.105469 819.222656 C 496.492188 820.429688 498.019531 821.414062 499.683594 822.183594 C 501.378906 822.960938 503.136719 823.550781 504.957031 823.949219 C 506.777344 824.34375 508.621094 824.542969 510.484375 824.542969 C 512.347656 824.542969 514.191406 824.34375 516.011719 823.949219 C 517.832031 823.550781 519.589844 822.960938 521.285156 822.183594 C 522.953125 821.414062 524.480469 820.429688 525.867188 819.222656 C 527.253906 818.019531 528.441406 816.648438 529.4375 815.105469 C 530.507812 813.382812 531.304688 811.542969 531.832031 809.589844 C 532.355469 807.632812 532.589844 805.640625 532.523438 803.617188 L 532.523438 758.875 C 532.511719 758.191406 532.632812 757.53125 532.890625 756.894531 C 533.144531 756.257812 533.511719 755.699219 533.992188 755.210938 C 534.453125 754.710938 534.996094 754.324219 535.625 754.058594 C 536.25 753.789062 536.902344 753.660156 537.585938 753.667969 C 537.925781 753.667969 538.261719 753.699219 538.597656 753.765625 C 538.929688 753.832031 539.253906 753.929688 539.566406 754.0625 C 539.882812 754.191406 540.179688 754.351562 540.464844 754.542969 C 540.746094 754.730469 541.007812 754.945312 541.25 755.1875 C 541.488281 755.425781 541.703125 755.6875 541.890625 755.972656 C 542.082031 756.253906 542.238281 756.554688 542.371094 756.867188 C 542.5 757.183594 542.597656 757.507812 542.664062 757.839844 C 542.730469 758.175781 542.761719 758.511719 542.761719 758.851562 L 542.761719 803.292969 C 542.859375 806.296875 542.507812 809.246094 541.703125 812.140625 C 540.898438 815.035156 539.675781 817.742188 538.039062 820.265625 C 536.535156 822.511719 534.75 824.507812 532.683594 826.257812 C 530.621094 828.007812 528.355469 829.4375 525.890625 830.554688 C 523.472656 831.667969 520.960938 832.507812 518.359375 833.078125 C 515.757812 833.648438 513.125 833.933594 510.460938 833.933594 C 507.796875 833.933594 505.167969 833.648438 502.566406 833.078125 C 499.964844 832.507812 497.453125 831.667969 495.035156 830.554688 Z M 495.09375 830.570312 " fill-opacity="1" fill-rule="nonzero"/><path fill="#ff5757" d="M 510.507812 835.484375 C 504.914062 835.476562 499.574219 834.308594 494.484375 831.984375 C 491.894531 830.808594 489.511719 829.304688 487.339844 827.472656 C 485.167969 825.636719 483.285156 823.539062 481.695312 821.183594 C 479.976562 818.539062 478.691406 815.695312 477.835938 812.65625 C 476.984375 809.621094 476.605469 806.523438 476.695312 803.371094 L 476.695312 758.898438 C 476.6875 758.234375 476.773438 757.585938 476.957031 756.949219 C 477.144531 756.3125 477.417969 755.71875 477.777344 755.164062 C 478.140625 754.609375 478.578125 754.121094 479.085938 753.699219 C 479.59375 753.273438 480.15625 752.933594 480.765625 752.679688 C 481.375 752.421875 482.011719 752.261719 482.667969 752.195312 C 483.328125 752.128906 483.984375 752.164062 484.632812 752.292969 C 485.28125 752.421875 485.898438 752.644531 486.480469 752.960938 C 487.0625 753.273438 487.585938 753.667969 488.050781 754.136719 C 488.695312 754.761719 489.1875 755.484375 489.53125 756.3125 C 489.875 757.140625 490.039062 758 490.027344 758.898438 L 490.027344 803.640625 C 489.96875 805.515625 490.179688 807.355469 490.664062 809.167969 C 491.148438 810.980469 491.882812 812.683594 492.867188 814.277344 C 494.742188 817.179688 497.246094 819.351562 500.378906 820.804688 C 501.972656 821.53125 503.625 822.082031 505.335938 822.457031 C 507.046875 822.828125 508.78125 823.015625 510.53125 823.015625 C 512.28125 823.015625 514.015625 822.828125 515.726562 822.457031 C 517.4375 822.082031 519.089844 821.53125 520.683594 820.804688 C 523.820312 819.351562 526.328125 817.171875 528.203125 814.269531 C 529.191406 812.675781 529.921875 810.972656 530.40625 809.160156 C 530.890625 807.347656 531.101562 805.507812 531.042969 803.632812 L 531.042969 758.890625 C 531.035156 758.226562 531.121094 757.578125 531.304688 756.941406 C 531.488281 756.308594 531.761719 755.710938 532.125 755.15625 C 532.488281 754.601562 532.925781 754.113281 533.433594 753.691406 C 533.941406 753.265625 534.5 752.925781 535.113281 752.671875 C 535.722656 752.414062 536.359375 752.253906 537.015625 752.1875 C 537.675781 752.121094 538.328125 752.15625 538.980469 752.285156 C 539.628906 752.414062 540.246094 752.636719 540.828125 752.953125 C 541.410156 753.265625 541.933594 753.660156 542.398438 754.128906 C 543.042969 754.753906 543.535156 755.480469 543.875 756.304688 C 544.21875 757.132812 544.378906 757.996094 544.367188 758.890625 L 544.367188 803.332031 C 544.460938 806.484375 544.082031 809.578125 543.230469 812.613281 C 542.378906 815.652344 541.09375 818.492188 539.375 821.136719 C 537.785156 823.496094 535.90625 825.589844 533.734375 827.425781 C 531.5625 829.261719 529.183594 830.765625 526.59375 831.9375 C 521.488281 834.289062 516.128906 835.472656 510.507812 835.484375 Z M 483.269531 755.257812 C 482.277344 755.230469 481.449219 755.582031 480.777344 756.3125 C 480.070312 757.03125 479.726562 757.890625 479.75 758.898438 L 479.75 803.339844 C 479.660156 806.183594 479.996094 808.972656 480.757812 811.714844 C 481.519531 814.453125 482.667969 817.019531 484.210938 819.410156 C 485.640625 821.539062 487.332031 823.429688 489.289062 825.085938 C 491.246094 826.742188 493.390625 828.101562 495.726562 829.160156 C 498.042969 830.226562 500.449219 831.03125 502.9375 831.574219 C 505.429688 832.121094 507.949219 832.394531 510.5 832.394531 C 513.050781 832.394531 515.570312 832.121094 518.0625 831.574219 C 520.554688 831.03125 522.957031 830.226562 525.273438 829.160156 C 527.609375 828.101562 529.757812 826.746094 531.714844 825.085938 C 533.671875 823.425781 535.363281 821.53125 536.789062 819.402344 C 538.332031 817.011719 539.480469 814.449219 540.242188 811.710938 C 541 808.96875 541.332031 806.179688 541.242188 803.339844 L 541.242188 758.898438 C 541.269531 757.882812 540.914062 757.027344 540.175781 756.328125 C 540.015625 756.15625 539.835938 756.003906 539.640625 755.867188 C 539.449219 755.730469 539.242188 755.617188 539.023438 755.523438 C 538.808594 755.429688 538.582031 755.359375 538.351562 755.3125 C 538.117188 755.265625 537.882812 755.242188 537.648438 755.242188 C 537.410156 755.242188 537.175781 755.265625 536.945312 755.3125 C 536.710938 755.359375 536.488281 755.429688 536.269531 755.523438 C 536.050781 755.617188 535.847656 755.730469 535.652344 755.867188 C 535.457031 756.003906 535.28125 756.15625 535.117188 756.328125 C 534.410156 757.042969 534.066406 757.90625 534.089844 758.914062 L 534.089844 803.65625 C 534.152344 805.832031 533.898438 807.972656 533.332031 810.074219 C 532.761719 812.175781 531.898438 814.152344 530.742188 816 C 529.667969 817.660156 528.382812 819.140625 526.886719 820.441406 C 525.390625 821.738281 523.746094 822.804688 521.949219 823.636719 C 520.152344 824.460938 518.289062 825.085938 516.355469 825.507812 C 514.425781 825.929688 512.46875 826.140625 510.492188 826.140625 C 508.515625 826.140625 506.5625 825.929688 504.628906 825.507812 C 502.699219 825.085938 500.832031 824.460938 499.035156 823.636719 C 497.238281 822.808594 495.59375 821.746094 494.101562 820.445312 C 492.605469 819.148438 491.324219 817.667969 490.25 816.007812 C 489.09375 814.160156 488.230469 812.183594 487.660156 810.082031 C 487.089844 807.980469 486.832031 805.839844 486.894531 803.664062 L 486.894531 758.921875 C 486.921875 757.90625 486.566406 757.050781 485.832031 756.351562 C 485.136719 755.613281 484.28125 755.246094 483.269531 755.257812 Z M 483.269531 755.257812 " fill-opacity="1" fill-rule="nonzero"/><path fill="#ff5757" d="M 565.527344 831.921875 C 565.042969 831.449219 564.675781 830.898438 564.421875 830.273438 C 564.167969 829.652344 564.046875 829 564.0625 828.324219 L 564.0625 758.898438 C 564.046875 758.210938 564.167969 757.550781 564.421875 756.917969 C 564.675781 756.28125 565.042969 755.71875 565.527344 755.234375 C 565.988281 754.730469 566.535156 754.347656 567.160156 754.078125 C 567.785156 753.808594 568.441406 753.679688 569.121094 753.691406 C 569.460938 753.691406 569.796875 753.726562 570.132812 753.792969 C 570.464844 753.859375 570.789062 753.957031 571.101562 754.089844 C 571.414062 754.21875 571.714844 754.378906 571.996094 754.570312 C 572.277344 754.757812 572.539062 754.972656 572.78125 755.214844 C 573.019531 755.453125 573.234375 755.714844 573.421875 756 C 573.613281 756.28125 573.773438 756.578125 573.902344 756.894531 C 574.03125 757.207031 574.128906 757.53125 574.195312 757.863281 C 574.261719 758.199219 574.296875 758.535156 574.296875 758.875 L 574.296875 828.304688 C 574.308594 828.984375 574.179688 829.640625 573.910156 830.265625 C 573.640625 830.890625 573.257812 831.4375 572.753906 831.898438 C 572.265625 832.375 571.707031 832.742188 571.074219 832.996094 C 570.4375 833.25 569.78125 833.371094 569.097656 833.363281 C 568.429688 833.375 567.785156 833.253906 567.164062 833.003906 C 566.546875 832.753906 566 832.394531 565.527344 831.921875 Z M 565.527344 831.921875 " fill-opacity="1" fill-rule="nonzero"/><path fill="#ff5757" d="M 569.121094 834.929688 C 568.242188 834.945312 567.398438 834.789062 566.582031 834.453125 C 565.769531 834.121094 565.054688 833.644531 564.4375 833.015625 C 563.8125 832.398438 563.332031 831.683594 563 830.867188 C 562.667969 830.054688 562.511719 829.207031 562.527344 828.324219 L 562.527344 758.898438 C 562.511719 758.011719 562.667969 757.15625 562.996094 756.335938 C 563.328125 755.511719 563.800781 754.785156 564.421875 754.152344 C 564.734375 753.84375 565.074219 753.566406 565.4375 753.324219 C 565.804688 753.082031 566.1875 752.878906 566.59375 752.710938 C 567 752.542969 567.417969 752.417969 567.847656 752.332031 C 568.277344 752.246094 568.714844 752.203125 569.152344 752.203125 C 569.589844 752.203125 570.027344 752.246094 570.457031 752.332031 C 570.886719 752.417969 571.304688 752.542969 571.710938 752.710938 C 572.113281 752.878906 572.5 753.082031 572.867188 753.324219 C 573.230469 753.566406 573.570312 753.84375 573.882812 754.152344 C 574.523438 754.777344 575.015625 755.503906 575.355469 756.328125 C 575.699219 757.15625 575.863281 758.019531 575.847656 758.914062 L 575.847656 828.339844 C 575.863281 829.230469 575.699219 830.089844 575.351562 830.910156 C 575.003906 831.730469 574.507812 832.445312 573.859375 833.054688 C 573.222656 833.667969 572.496094 834.136719 571.675781 834.464844 C 570.855469 834.789062 570.003906 834.941406 569.121094 834.929688 Z M 566.605469 830.832031 C 566.949219 831.164062 567.339844 831.417969 567.785156 831.597656 C 568.226562 831.773438 568.683594 831.863281 569.160156 831.863281 C 569.636719 831.863281 570.09375 831.773438 570.535156 831.597656 C 570.976562 831.417969 571.371094 831.164062 571.714844 830.832031 C 572.4375 830.164062 572.785156 829.335938 572.753906 828.347656 L 572.753906 758.921875 C 572.78125 757.90625 572.425781 757.050781 571.691406 756.351562 C 571.441406 756.097656 571.160156 755.882812 570.847656 755.714844 C 570.535156 755.542969 570.203125 755.421875 569.851562 755.351562 C 569.503906 755.28125 569.152344 755.265625 568.796875 755.300781 C 568.441406 755.335938 568.101562 755.421875 567.769531 755.5625 C 567.441406 755.699219 567.140625 755.882812 566.867188 756.113281 C 566.597656 756.34375 566.363281 756.605469 566.167969 756.90625 C 565.976562 757.207031 565.832031 757.527344 565.734375 757.871094 C 565.636719 758.214844 565.59375 758.5625 565.605469 758.921875 L 565.605469 828.347656 C 565.582031 829.320312 565.917969 830.148438 566.605469 830.832031 Z M 566.605469 830.832031 " fill-opacity="1" fill-rule="nonzero"/><path fill="#ff5757" d="M 687.34375 724.886719 L 386.152344 724.886719 C 385.648438 724.886719 385.144531 724.835938 384.648438 724.738281 C 384.152344 724.636719 383.667969 724.492188 383.203125 724.296875 C 382.734375 724.105469 382.289062 723.867188 381.867188 723.585938 C 381.445312 723.304688 381.058594 722.984375 380.699219 722.625 C 380.339844 722.265625 380.019531 721.878906 379.738281 721.457031 C 379.457031 721.035156 379.222656 720.589844 379.027344 720.121094 C 378.832031 719.65625 378.6875 719.171875 378.585938 718.675781 C 378.488281 718.179688 378.441406 717.675781 378.441406 717.171875 C 378.441406 716.664062 378.488281 716.164062 378.589844 715.664062 C 378.6875 715.167969 378.832031 714.6875 379.027344 714.21875 C 379.222656 713.75 379.457031 713.304688 379.738281 712.886719 C 380.019531 712.464844 380.339844 712.074219 380.699219 711.714844 C 381.058594 711.359375 381.445312 711.039062 381.867188 710.757812 C 382.289062 710.476562 382.734375 710.238281 383.203125 710.042969 C 383.667969 709.851562 384.152344 709.703125 384.648438 709.605469 C 385.144531 709.507812 385.648438 709.457031 386.152344 709.457031 L 687.34375 709.457031 C 687.847656 709.457031 688.351562 709.507812 688.847656 709.605469 C 689.34375 709.703125 689.828125 709.851562 690.292969 710.042969 C 690.761719 710.238281 691.207031 710.476562 691.628906 710.757812 C 692.050781 711.039062 692.4375 711.359375 692.796875 711.714844 C 693.15625 712.074219 693.476562 712.464844 693.757812 712.886719 C 694.039062 713.304688 694.277344 713.75 694.46875 714.21875 C 694.664062 714.6875 694.808594 715.167969 694.910156 715.664062 C 695.007812 716.164062 695.058594 716.664062 695.058594 717.171875 C 695.058594 717.675781 695.007812 718.179688 694.910156 718.675781 C 694.808594 719.171875 694.664062 719.65625 694.46875 720.121094 C 694.277344 720.589844 694.039062 721.035156 693.757812 721.457031 C 693.476562 721.878906 693.15625 722.265625 692.796875 722.625 C 692.4375 722.984375 692.050781 723.304688 691.628906 723.585938 C 691.207031 723.867188 690.761719 724.105469 690.296875 724.296875 C 689.828125 724.492188 689.34375 724.636719 688.847656 724.738281 C 688.351562 724.835938 687.847656 724.886719 687.34375 724.886719 Z M 687.34375 724.886719 " fill-opacity="1" fill-rule="nonzero"/><path fill="#ff5757" d="M 680.902344 1011.648438 L 392.65625 1011.648438 C 392.152344 1011.648438 391.648438 1011.597656 391.152344 1011.5 C 390.65625 1011.402344 390.171875 1011.253906 389.703125 1011.0625 C 389.238281 1010.867188 388.792969 1010.628906 388.371094 1010.347656 C 387.949219 1010.066406 387.558594 1009.746094 387.203125 1009.390625 C 386.84375 1009.03125 386.523438 1008.640625 386.242188 1008.21875 C 385.960938 1007.796875 385.722656 1007.355469 385.53125 1006.886719 C 385.335938 1006.417969 385.191406 1005.9375 385.089844 1005.4375 C 384.992188 1004.941406 384.941406 1004.441406 384.941406 1003.933594 C 384.941406 1003.425781 384.992188 1002.925781 385.089844 1002.429688 C 385.191406 1001.933594 385.335938 1001.449219 385.53125 1000.980469 C 385.722656 1000.515625 385.960938 1000.070312 386.242188 999.648438 C 386.523438 999.226562 386.84375 998.835938 387.203125 998.480469 C 387.558594 998.121094 387.949219 997.800781 388.371094 997.519531 C 388.792969 997.238281 389.238281 997 389.703125 996.808594 C 390.171875 996.613281 390.65625 996.464844 391.152344 996.367188 C 391.648438 996.269531 392.152344 996.21875 392.65625 996.21875 L 680.902344 996.21875 C 681.40625 996.21875 681.910156 996.269531 682.40625 996.367188 C 682.902344 996.464844 683.386719 996.613281 683.851562 996.808594 C 684.320312 997 684.765625 997.238281 685.1875 997.519531 C 685.609375 997.800781 685.996094 998.121094 686.355469 998.480469 C 686.714844 998.835938 687.035156 999.226562 687.316406 999.648438 C 687.597656 1000.070312 687.835938 1000.515625 688.027344 1000.980469 C 688.222656 1001.449219 688.367188 1001.933594 688.46875 1002.429688 C 688.566406 1002.925781 688.617188 1003.425781 688.617188 1003.933594 C 688.617188 1004.441406 688.566406 1004.941406 688.46875 1005.4375 C 688.367188 1005.9375 688.222656 1006.417969 688.027344 1006.886719 C 687.835938 1007.355469 687.597656 1007.796875 687.316406 1008.21875 C 687.035156 1008.640625 686.714844 1009.03125 686.355469 1009.390625 C 685.996094 1009.746094 685.609375 1010.066406 685.1875 1010.347656 C 684.765625 1010.628906 684.320312 1010.867188 683.851562 1011.0625 C 683.386719 1011.253906 682.902344 1011.402344 682.40625 1011.5 C 681.910156 1011.597656 681.40625 1011.648438 680.902344 1011.648438 Z M 680.902344 1011.648438 " fill-opacity="1" fill-rule="nonzero"/><path fill="#ff5757" d="M 633.574219 973.015625 L 439.945312 973.015625 C 439.4375 973.015625 438.9375 972.964844 438.441406 972.867188 C 437.945312 972.769531 437.460938 972.621094 436.992188 972.429688 C 436.527344 972.234375 436.082031 971.996094 435.660156 971.714844 C 435.238281 971.433594 434.847656 971.113281 434.492188 970.753906 C 434.132812 970.398438 433.8125 970.007812 433.53125 969.585938 C 433.25 969.164062 433.011719 968.722656 432.820312 968.253906 C 432.625 967.785156 432.476562 967.300781 432.378906 966.804688 C 432.28125 966.308594 432.230469 965.808594 432.230469 965.300781 C 432.230469 964.792969 432.28125 964.292969 432.378906 963.796875 C 432.476562 963.300781 432.625 962.816406 432.820312 962.347656 C 433.011719 961.878906 433.25 961.4375 433.53125 961.015625 C 433.8125 960.59375 434.132812 960.203125 434.492188 959.847656 C 434.847656 959.488281 435.238281 959.167969 435.660156 958.886719 C 436.082031 958.605469 436.527344 958.367188 436.992188 958.171875 C 437.460938 957.980469 437.945312 957.832031 438.441406 957.734375 C 438.9375 957.636719 439.4375 957.585938 439.945312 957.585938 L 633.574219 957.585938 C 634.082031 957.585938 634.582031 957.636719 635.078125 957.734375 C 635.574219 957.832031 636.058594 957.980469 636.527344 958.171875 C 636.996094 958.367188 637.4375 958.605469 637.859375 958.886719 C 638.28125 959.167969 638.671875 959.488281 639.027344 959.847656 C 639.386719 960.203125 639.707031 960.59375 639.988281 961.015625 C 640.269531 961.4375 640.507812 961.878906 640.703125 962.347656 C 640.894531 962.816406 641.042969 963.300781 641.140625 963.796875 C 641.238281 964.292969 641.289062 964.792969 641.289062 965.300781 C 641.289062 965.808594 641.238281 966.308594 641.140625 966.804688 C 641.042969 967.300781 640.894531 967.785156 640.703125 968.253906 C 640.507812 968.722656 640.269531 969.164062 639.988281 969.585938 C 639.707031 970.007812 639.386719 970.398438 639.027344 970.753906 C 638.671875 971.113281 638.28125 971.433594 637.859375 971.714844 C 637.4375 971.996094 636.996094 972.234375 636.527344 972.429688 C 636.058594 972.621094 635.574219 972.769531 635.078125 972.867188 C 634.582031 972.964844 634.082031 973.015625 633.574219 973.015625 Z M 633.574219 973.015625 " fill-opacity="1" fill-rule="nonzero"/><path fill="#ff5757" d="M 592.574219 938.933594 L 480.945312 938.933594 C 480.242188 938.933594 479.539062 938.898438 478.839844 938.828125 C 478.136719 938.757812 477.441406 938.652344 476.75 938.515625 C 476.058594 938.375 475.375 938.203125 474.703125 938 C 474.027344 937.792969 473.367188 937.558594 472.714844 937.285156 C 472.066406 937.015625 471.429688 936.714844 470.808594 936.382812 C 470.1875 936.050781 469.582031 935.6875 468.996094 935.296875 C 468.410156 934.90625 467.847656 934.484375 467.300781 934.039062 C 466.757812 933.589844 466.234375 933.117188 465.738281 932.621094 C 465.238281 932.121094 464.765625 931.601562 464.320312 931.054688 C 463.871094 930.511719 463.453125 929.945312 463.0625 929.359375 C 462.667969 928.773438 462.308594 928.171875 461.976562 927.550781 C 461.640625 926.929688 461.339844 926.292969 461.070312 925.640625 C 460.800781 924.992188 460.5625 924.328125 460.359375 923.65625 C 460.152344 922.980469 459.980469 922.296875 459.84375 921.605469 C 459.703125 920.917969 459.601562 920.21875 459.53125 919.519531 C 459.460938 918.816406 459.425781 918.113281 459.425781 917.410156 L 459.425781 881.152344 C 459.425781 880.449219 459.460938 879.746094 459.53125 879.042969 C 459.601562 878.34375 459.703125 877.648438 459.84375 876.957031 C 459.980469 876.265625 460.152344 875.582031 460.359375 874.910156 C 460.5625 874.234375 460.800781 873.574219 461.070312 872.921875 C 461.339844 872.269531 461.640625 871.636719 461.976562 871.015625 C 462.308594 870.390625 462.667969 869.789062 463.0625 869.203125 C 463.453125 868.617188 463.871094 868.050781 464.320312 867.507812 C 464.765625 866.964844 465.238281 866.441406 465.738281 865.945312 C 466.234375 865.445312 466.757812 864.972656 467.300781 864.527344 C 467.847656 864.078125 468.410156 863.660156 468.996094 863.265625 C 469.582031 862.875 470.1875 862.511719 470.808594 862.179688 C 471.429688 861.847656 472.066406 861.546875 472.714844 861.277344 C 473.367188 861.007812 474.027344 860.769531 474.703125 860.5625 C 475.375 860.359375 476.058594 860.1875 476.75 860.050781 C 477.441406 859.910156 478.136719 859.808594 478.839844 859.738281 C 479.539062 859.667969 480.242188 859.632812 480.945312 859.628906 L 592.574219 859.628906 C 593.277344 859.632812 593.980469 859.667969 594.683594 859.734375 C 595.382812 859.804688 596.078125 859.910156 596.769531 860.046875 C 597.460938 860.1875 598.144531 860.359375 598.816406 860.5625 C 599.492188 860.769531 600.15625 861.003906 600.804688 861.273438 C 601.457031 861.546875 602.09375 861.847656 602.714844 862.179688 C 603.335938 862.511719 603.9375 862.875 604.523438 863.265625 C 605.109375 863.65625 605.675781 864.074219 606.21875 864.523438 C 606.765625 864.96875 607.285156 865.441406 607.785156 865.941406 C 608.285156 866.441406 608.757812 866.960938 609.203125 867.503906 C 609.652344 868.050781 610.070312 868.617188 610.460938 869.203125 C 610.851562 869.789062 611.214844 870.390625 611.546875 871.011719 C 611.878906 871.632812 612.179688 872.269531 612.453125 872.921875 C 612.722656 873.570312 612.957031 874.234375 613.164062 874.910156 C 613.367188 875.582031 613.539062 876.265625 613.679688 876.957031 C 613.816406 877.648438 613.921875 878.34375 613.988281 879.042969 C 614.058594 879.746094 614.09375 880.449219 614.097656 881.152344 L 614.097656 917.410156 C 614.09375 918.117188 614.058594 918.816406 613.988281 919.519531 C 613.921875 920.21875 613.816406 920.917969 613.679688 921.609375 C 613.539062 922.300781 613.367188 922.980469 613.164062 923.65625 C 612.957031 924.328125 612.722656 924.992188 612.453125 925.644531 C 612.179688 926.292969 611.878906 926.929688 611.546875 927.550781 C 611.214844 928.171875 610.851562 928.777344 610.460938 929.363281 C 610.070312 929.949219 609.652344 930.515625 609.203125 931.058594 C 608.757812 931.601562 608.285156 932.125 607.785156 932.621094 C 607.285156 933.121094 606.765625 933.59375 606.21875 934.042969 C 605.675781 934.488281 605.109375 934.90625 604.523438 935.300781 C 603.9375 935.691406 603.335938 936.054688 602.714844 936.386719 C 602.09375 936.71875 601.457031 937.019531 600.804688 937.289062 C 600.15625 937.558594 599.492188 937.796875 598.816406 938 C 598.144531 938.207031 597.460938 938.378906 596.769531 938.515625 C 596.078125 938.652344 595.382812 938.757812 594.683594 938.828125 C 593.980469 938.898438 593.277344 938.933594 592.574219 938.933594 Z M 480.945312 875.058594 C 480.546875 875.058594 480.152344 875.097656 479.757812 875.175781 C 479.367188 875.257812 478.984375 875.371094 478.617188 875.523438 C 478.246094 875.679688 477.894531 875.867188 477.5625 876.089844 C 477.230469 876.3125 476.921875 876.5625 476.640625 876.847656 C 476.355469 877.128906 476.105469 877.4375 475.882812 877.769531 C 475.660156 878.101562 475.472656 878.453125 475.320312 878.824219 C 475.164062 879.191406 475.050781 879.574219 474.972656 879.964844 C 474.894531 880.355469 474.851562 880.753906 474.851562 881.152344 L 474.851562 917.410156 C 474.851562 917.8125 474.894531 918.207031 474.972656 918.597656 C 475.050781 918.992188 475.164062 919.371094 475.320312 919.742188 C 475.472656 920.109375 475.660156 920.460938 475.882812 920.792969 C 476.105469 921.128906 476.355469 921.433594 476.640625 921.71875 C 476.921875 922 477.230469 922.253906 477.5625 922.476562 C 477.894531 922.699219 478.246094 922.886719 478.617188 923.039062 C 478.984375 923.191406 479.367188 923.308594 479.757812 923.386719 C 480.152344 923.464844 480.546875 923.503906 480.945312 923.503906 L 592.574219 923.503906 C 592.972656 923.503906 593.367188 923.464844 593.761719 923.386719 C 594.152344 923.308594 594.535156 923.191406 594.902344 923.039062 C 595.273438 922.886719 595.625 922.699219 595.957031 922.476562 C 596.289062 922.253906 596.597656 922 596.878906 921.71875 C 597.164062 921.433594 597.414062 921.128906 597.636719 920.792969 C 597.859375 920.460938 598.046875 920.109375 598.203125 919.742188 C 598.355469 919.371094 598.46875 918.992188 598.546875 918.597656 C 598.628906 918.207031 598.667969 917.8125 598.667969 917.410156 L 598.667969 881.152344 C 598.667969 880.753906 598.628906 880.355469 598.546875 879.964844 C 598.46875 879.574219 598.355469 879.191406 598.203125 878.824219 C 598.046875 878.453125 597.859375 878.101562 597.636719 877.769531 C 597.414062 877.4375 597.164062 877.128906 596.878906 876.847656 C 596.597656 876.5625 596.289062 876.3125 595.957031 876.089844 C 595.625 875.867188 595.273438 875.679688 594.902344 875.523438 C 594.535156 875.371094 594.152344 875.257812 593.761719 875.175781 C 593.367188 875.097656 592.972656 875.058594 592.574219 875.058594 Z M 480.945312 875.058594 " fill-opacity="1" fill-rule="nonzero"/><path fill="#ff5757" d="M 816.171875 651.953125 L 687.34375 651.953125 C 686.835938 651.953125 686.335938 651.90625 685.835938 651.804688 C 685.339844 651.707031 684.859375 651.5625 684.390625 651.367188 C 683.921875 651.171875 683.476562 650.9375 683.058594 650.652344 C 682.636719 650.371094 682.246094 650.054688 681.886719 649.695312 C 681.53125 649.335938 681.210938 648.945312 680.929688 648.527344 C 680.648438 648.105469 680.410156 647.660156 680.214844 647.191406 C 680.023438 646.722656 679.875 646.242188 679.777344 645.746094 C 679.679688 645.25 679.628906 644.746094 679.628906 644.238281 C 679.628906 643.734375 679.679688 643.230469 679.777344 642.734375 C 679.875 642.238281 680.023438 641.757812 680.214844 641.289062 C 680.410156 640.820312 680.648438 640.375 680.929688 639.953125 C 681.210938 639.53125 681.53125 639.144531 681.886719 638.785156 C 682.246094 638.425781 682.636719 638.105469 683.058594 637.824219 C 683.476562 637.542969 683.921875 637.308594 684.390625 637.113281 C 684.859375 636.917969 685.339844 636.773438 685.835938 636.675781 C 686.335938 636.574219 686.835938 636.527344 687.34375 636.527344 L 816.171875 636.527344 C 816.679688 636.527344 817.179688 636.574219 817.675781 636.675781 C 818.171875 636.773438 818.65625 636.917969 819.125 637.113281 C 819.589844 637.308594 820.035156 637.542969 820.457031 637.824219 C 820.878906 638.105469 821.269531 638.425781 821.625 638.785156 C 821.984375 639.144531 822.304688 639.53125 822.585938 639.953125 C 822.867188 640.375 823.105469 640.820312 823.296875 641.289062 C 823.492188 641.757812 823.636719 642.238281 823.738281 642.734375 C 823.835938 643.230469 823.886719 643.734375 823.886719 644.238281 C 823.886719 644.746094 823.835938 645.25 823.738281 645.746094 C 823.636719 646.242188 823.492188 646.722656 823.296875 647.191406 C 823.105469 647.660156 822.867188 648.105469 822.585938 648.527344 C 822.304688 648.945312 821.984375 649.335938 821.625 649.695312 C 821.269531 650.054688 820.878906 650.371094 820.457031 650.652344 C 820.035156 650.9375 819.589844 651.171875 819.125 651.367188 C 818.65625 651.5625 818.171875 651.707031 817.675781 651.804688 C 817.179688 651.90625 816.679688 651.953125 816.171875 651.953125 Z M 816.171875 651.953125 " fill-opacity="1" fill-rule="nonzero"/><path fill="#ff5757" d="M 910.285156 699.027344 L 816.171875 699.027344 C 815.664062 699.027344 815.164062 698.976562 814.667969 698.878906 C 814.167969 698.78125 813.6875 698.632812 813.21875 698.441406 C 812.75 698.246094 812.308594 698.007812 811.886719 697.726562 C 811.464844 697.445312 811.074219 697.125 810.714844 696.765625 C 810.359375 696.410156 810.039062 696.019531 809.757812 695.597656 C 809.476562 695.175781 809.238281 694.734375 809.042969 694.265625 C 808.851562 693.796875 808.703125 693.3125 808.605469 692.816406 C 808.507812 692.320312 808.457031 691.820312 808.457031 691.3125 L 808.457031 597.199219 C 808.457031 596.691406 808.507812 596.191406 808.605469 595.691406 C 808.703125 595.195312 808.851562 594.714844 809.042969 594.246094 C 809.238281 593.777344 809.476562 593.332031 809.757812 592.914062 C 810.039062 592.492188 810.359375 592.101562 810.714844 591.742188 C 811.074219 591.386719 811.464844 591.066406 811.886719 590.785156 C 812.308594 590.503906 812.75 590.265625 813.21875 590.070312 C 813.6875 589.878906 814.167969 589.730469 814.667969 589.632812 C 815.164062 589.535156 815.664062 589.484375 816.171875 589.484375 L 910.285156 589.484375 C 910.792969 589.484375 911.292969 589.535156 911.789062 589.632812 C 912.289062 589.730469 912.769531 589.878906 913.238281 590.070312 C 913.707031 590.265625 914.148438 590.503906 914.570312 590.785156 C 914.992188 591.066406 915.382812 591.386719 915.742188 591.742188 C 916.097656 592.101562 916.417969 592.492188 916.699219 592.914062 C 916.980469 593.332031 917.21875 593.777344 917.414062 594.246094 C 917.605469 594.714844 917.753906 595.195312 917.851562 595.691406 C 917.949219 596.191406 918 596.691406 918 597.199219 L 918 691.3125 C 918 691.820312 917.949219 692.320312 917.851562 692.816406 C 917.753906 693.3125 917.605469 693.796875 917.414062 694.265625 C 917.21875 694.734375 916.980469 695.175781 916.699219 695.597656 C 916.417969 696.019531 916.097656 696.410156 915.742188 696.765625 C 915.382812 697.125 914.992188 697.445312 914.570312 697.726562 C 914.148438 698.007812 913.707031 698.246094 913.238281 698.441406 C 912.769531 698.632812 912.289062 698.78125 911.789062 698.878906 C 911.292969 698.976562 910.792969 699.027344 910.285156 699.027344 Z M 823.886719 683.597656 L 902.570312 683.597656 L 902.570312 604.914062 L 823.886719 604.914062 Z M 823.886719 683.597656 " fill-opacity="1" fill-rule="nonzero"/><path fill="#ff5757" d="M 882.882812 638.207031 L 843.542969 638.207031 C 843.035156 638.207031 842.535156 638.15625 842.035156 638.058594 C 841.539062 637.960938 841.058594 637.8125 840.589844 637.621094 C 840.121094 637.425781 839.675781 637.1875 839.253906 636.90625 C 838.835938 636.625 838.445312 636.304688 838.085938 635.949219 C 837.730469 635.589844 837.410156 635.199219 837.128906 634.777344 C 836.847656 634.359375 836.609375 633.914062 836.414062 633.445312 C 836.21875 632.976562 836.074219 632.496094 835.976562 632 C 835.875 631.5 835.828125 631 835.828125 630.492188 C 835.828125 629.988281 835.875 629.484375 835.976562 628.988281 C 836.074219 628.492188 836.222656 628.007812 836.414062 627.539062 C 836.609375 627.074219 836.847656 626.628906 837.128906 626.207031 C 837.410156 625.785156 837.730469 625.394531 838.085938 625.039062 C 838.445312 624.679688 838.835938 624.359375 839.253906 624.078125 C 839.675781 623.796875 840.121094 623.558594 840.589844 623.367188 C 841.058594 623.171875 841.539062 623.027344 842.035156 622.925781 C 842.535156 622.828125 843.035156 622.777344 843.542969 622.777344 L 882.882812 622.777344 C 883.390625 622.777344 883.890625 622.828125 884.390625 622.925781 C 884.886719 623.027344 885.367188 623.171875 885.835938 623.367188 C 886.304688 623.558594 886.75 623.796875 887.171875 624.078125 C 887.589844 624.359375 887.980469 624.679688 888.339844 625.039062 C 888.699219 625.394531 889.015625 625.785156 889.296875 626.207031 C 889.578125 626.628906 889.816406 627.074219 890.011719 627.539062 C 890.207031 628.007812 890.351562 628.492188 890.449219 628.988281 C 890.550781 629.484375 890.597656 629.988281 890.597656 630.492188 C 890.597656 631 890.550781 631.5 890.449219 632 C 890.351562 632.496094 890.207031 632.976562 890.011719 633.445312 C 889.816406 633.914062 889.578125 634.359375 889.296875 634.777344 C 889.015625 635.199219 888.699219 635.589844 888.339844 635.949219 C 887.980469 636.304688 887.589844 636.625 887.171875 636.90625 C 886.75 637.1875 886.304688 637.425781 885.835938 637.621094 C 885.367188 637.8125 884.886719 637.960938 884.390625 638.058594 C 883.894531 638.15625 883.390625 638.207031 882.882812 638.207031 Z M 882.882812 638.207031 " fill-opacity="1" fill-rule="nonzero"/><path fill="#ff5757" d="M 882.882812 665.707031 L 843.542969 665.707031 C 843.035156 665.707031 842.535156 665.660156 842.035156 665.5625 C 841.539062 665.460938 841.058594 665.316406 840.589844 665.121094 C 840.121094 664.929688 839.675781 664.691406 839.253906 664.410156 C 838.835938 664.128906 838.445312 663.808594 838.085938 663.449219 C 837.730469 663.089844 837.410156 662.703125 837.128906 662.28125 C 836.847656 661.859375 836.609375 661.414062 836.414062 660.945312 C 836.21875 660.480469 836.074219 659.996094 835.976562 659.5 C 835.875 659.003906 835.828125 658.5 835.828125 657.996094 C 835.828125 657.488281 835.875 656.988281 835.976562 656.488281 C 836.074219 655.992188 836.222656 655.511719 836.414062 655.042969 C 836.609375 654.574219 836.847656 654.128906 837.128906 653.707031 C 837.410156 653.289062 837.730469 652.898438 838.085938 652.539062 C 838.445312 652.179688 838.835938 651.863281 839.253906 651.582031 C 839.675781 651.300781 840.121094 651.0625 840.589844 650.867188 C 841.058594 650.671875 841.539062 650.527344 842.035156 650.429688 C 842.535156 650.328125 843.035156 650.28125 843.542969 650.28125 L 882.882812 650.28125 C 883.390625 650.28125 883.890625 650.328125 884.390625 650.429688 C 884.886719 650.527344 885.367188 650.671875 885.835938 650.867188 C 886.304688 651.0625 886.75 651.300781 887.171875 651.582031 C 887.589844 651.863281 887.980469 652.179688 888.339844 652.539062 C 888.699219 652.898438 889.015625 653.289062 889.296875 653.707031 C 889.578125 654.128906 889.816406 654.574219 890.011719 655.042969 C 890.207031 655.511719 890.351562 655.992188 890.449219 656.488281 C 890.550781 656.988281 890.597656 657.488281 890.597656 657.996094 C 890.597656 658.5 890.550781 659.003906 890.449219 659.5 C 890.351562 659.996094 890.207031 660.480469 890.011719 660.945312 C 889.816406 661.414062 889.578125 661.859375 889.296875 662.28125 C 889.015625 662.703125 888.699219 663.089844 888.339844 663.449219 C 887.980469 663.808594 887.589844 664.128906 887.171875 664.410156 C 886.75 664.691406 886.304688 664.929688 885.835938 665.121094 C 885.367188 665.316406 884.886719 665.460938 884.390625 665.5625 C 883.894531 665.660156 883.390625 665.707031 882.882812 665.707031 Z M 882.882812 665.707031 " fill-opacity="1" fill-rule="nonzero"/><path fill="#ff5757" d="M 392.65625 799.488281 L 263.828125 799.488281 C 263.320312 799.488281 262.820312 799.441406 262.324219 799.339844 C 261.828125 799.242188 261.34375 799.097656 260.875 798.902344 C 260.410156 798.707031 259.964844 798.472656 259.542969 798.191406 C 259.121094 797.910156 258.730469 797.589844 258.375 797.230469 C 258.015625 796.871094 257.695312 796.484375 257.414062 796.0625 C 257.132812 795.640625 256.894531 795.195312 256.703125 794.726562 C 256.507812 794.261719 256.359375 793.777344 256.261719 793.28125 C 256.164062 792.785156 256.113281 792.28125 256.113281 791.777344 C 256.113281 791.269531 256.164062 790.765625 256.261719 790.269531 C 256.359375 789.773438 256.507812 789.292969 256.703125 788.824219 C 256.894531 788.355469 257.132812 787.910156 257.414062 787.488281 C 257.695312 787.070312 258.015625 786.679688 258.375 786.320312 C 258.730469 785.960938 259.121094 785.644531 259.542969 785.363281 C 259.964844 785.082031 260.410156 784.84375 260.875 784.648438 C 261.34375 784.453125 261.828125 784.308594 262.324219 784.210938 C 262.820312 784.109375 263.320312 784.0625 263.828125 784.0625 L 392.65625 784.0625 C 393.164062 784.0625 393.664062 784.109375 394.160156 784.210938 C 394.660156 784.308594 395.140625 784.453125 395.609375 784.648438 C 396.078125 784.84375 396.523438 785.082031 396.941406 785.363281 C 397.363281 785.644531 397.753906 785.960938 398.113281 786.320312 C 398.46875 786.679688 398.789062 787.070312 399.070312 787.488281 C 399.351562 787.910156 399.589844 788.355469 399.785156 788.824219 C 399.976562 789.292969 400.125 789.773438 400.222656 790.269531 C 400.320312 790.765625 400.371094 791.269531 400.371094 791.777344 C 400.371094 792.28125 400.320312 792.785156 400.222656 793.28125 C 400.125 793.777344 399.976562 794.261719 399.785156 794.726562 C 399.589844 795.195312 399.351562 795.640625 399.070312 796.0625 C 398.789062 796.484375 398.46875 796.871094 398.113281 797.230469 C 397.753906 797.589844 397.363281 797.910156 396.941406 798.191406 C 396.523438 798.472656 396.078125 798.707031 395.609375 798.902344 C 395.140625 799.097656 394.660156 799.242188 394.160156 799.339844 C 393.664062 799.441406 393.164062 799.488281 392.65625 799.488281 Z M 392.65625 799.488281 " fill-opacity="1" fill-rule="nonzero"/><path fill="#ff5757" d="M 263.828125 846.5625 L 169.714844 846.5625 C 169.207031 846.5625 168.707031 846.511719 168.210938 846.414062 C 167.710938 846.316406 167.230469 846.167969 166.761719 845.976562 C 166.292969 845.78125 165.851562 845.542969 165.429688 845.261719 C 165.007812 844.980469 164.617188 844.660156 164.257812 844.304688 C 163.902344 843.945312 163.582031 843.554688 163.300781 843.132812 C 163.019531 842.714844 162.78125 842.269531 162.585938 841.800781 C 162.394531 841.332031 162.246094 840.851562 162.148438 840.351562 C 162.050781 839.855469 162 839.355469 162 838.847656 L 162 744.734375 C 162 744.226562 162.050781 743.726562 162.148438 743.230469 C 162.246094 742.730469 162.394531 742.25 162.585938 741.78125 C 162.78125 741.3125 163.019531 740.871094 163.300781 740.449219 C 163.582031 740.027344 163.902344 739.636719 164.257812 739.277344 C 164.617188 738.921875 165.007812 738.601562 165.429688 738.320312 C 165.851562 738.039062 166.292969 737.800781 166.761719 737.605469 C 167.230469 737.414062 167.710938 737.265625 168.210938 737.167969 C 168.707031 737.070312 169.207031 737.019531 169.714844 737.019531 L 263.828125 737.019531 C 264.335938 737.019531 264.835938 737.070312 265.332031 737.167969 C 265.832031 737.265625 266.3125 737.414062 266.78125 737.605469 C 267.25 737.800781 267.691406 738.039062 268.113281 738.320312 C 268.535156 738.601562 268.925781 738.921875 269.285156 739.277344 C 269.640625 739.636719 269.960938 740.027344 270.242188 740.449219 C 270.523438 740.871094 270.761719 741.3125 270.957031 741.78125 C 271.148438 742.25 271.296875 742.730469 271.394531 743.230469 C 271.492188 743.726562 271.542969 744.226562 271.542969 744.734375 L 271.542969 838.847656 C 271.542969 839.355469 271.492188 839.855469 271.394531 840.351562 C 271.296875 840.851562 271.148438 841.332031 270.957031 841.800781 C 270.761719 842.269531 270.523438 842.714844 270.242188 843.132812 C 269.960938 843.554688 269.640625 843.945312 269.285156 844.304688 C 268.925781 844.660156 268.535156 844.980469 268.113281 845.261719 C 267.691406 845.542969 267.25 845.78125 266.78125 845.976562 C 266.3125 846.167969 265.832031 846.316406 265.332031 846.414062 C 264.835938 846.511719 264.335938 846.5625 263.828125 846.5625 Z M 177.429688 831.132812 L 256.113281 831.132812 L 256.113281 752.449219 L 177.429688 752.449219 Z M 177.429688 831.132812 " fill-opacity="1" fill-rule="nonzero"/><path fill="#ff5757" d="M 239.382812 785.734375 L 194.183594 785.734375 C 193.675781 785.734375 193.175781 785.6875 192.679688 785.585938 C 192.183594 785.488281 191.699219 785.34375 191.230469 785.148438 C 190.765625 784.953125 190.320312 784.714844 189.898438 784.433594 C 189.476562 784.152344 189.085938 783.835938 188.730469 783.476562 C 188.371094 783.117188 188.050781 782.726562 187.769531 782.308594 C 187.488281 781.886719 187.25 781.441406 187.058594 780.972656 C 186.863281 780.503906 186.714844 780.023438 186.617188 779.527344 C 186.519531 779.03125 186.46875 778.527344 186.46875 778.019531 C 186.46875 777.515625 186.519531 777.011719 186.617188 776.515625 C 186.714844 776.019531 186.863281 775.535156 187.058594 775.070312 C 187.25 774.601562 187.488281 774.15625 187.769531 773.734375 C 188.050781 773.3125 188.371094 772.925781 188.730469 772.566406 C 189.085938 772.207031 189.476562 771.886719 189.898438 771.605469 C 190.320312 771.324219 190.765625 771.089844 191.230469 770.894531 C 191.699219 770.699219 192.183594 770.554688 192.679688 770.457031 C 193.175781 770.355469 193.675781 770.308594 194.183594 770.308594 L 239.382812 770.308594 C 239.886719 770.308594 240.390625 770.355469 240.886719 770.457031 C 241.382812 770.554688 241.867188 770.699219 242.335938 770.894531 C 242.800781 771.085938 243.246094 771.324219 243.667969 771.605469 C 244.089844 771.886719 244.480469 772.207031 244.835938 772.566406 C 245.195312 772.925781 245.515625 773.3125 245.796875 773.734375 C 246.078125 774.15625 246.316406 774.601562 246.507812 775.070312 C 246.703125 775.535156 246.847656 776.019531 246.949219 776.515625 C 247.046875 777.011719 247.097656 777.515625 247.097656 778.019531 C 247.097656 778.527344 247.046875 779.03125 246.949219 779.527344 C 246.847656 780.023438 246.703125 780.503906 246.507812 780.972656 C 246.316406 781.441406 246.078125 781.886719 245.796875 782.308594 C 245.515625 782.726562 245.195312 783.117188 244.835938 783.476562 C 244.480469 783.835938 244.089844 784.152344 243.667969 784.433594 C 243.246094 784.714844 242.800781 784.953125 242.335938 785.148438 C 241.867188 785.34375 241.382812 785.488281 240.886719 785.585938 C 240.390625 785.6875 239.886719 785.734375 239.382812 785.734375 Z M 239.382812 785.734375 " fill-opacity="1" fill-rule="nonzero"/><path fill="#ff5757" d="M 239.382812 813.246094 L 194.183594 813.246094 C 193.675781 813.246094 193.175781 813.195312 192.679688 813.097656 C 192.183594 812.996094 191.699219 812.851562 191.230469 812.65625 C 190.765625 812.464844 190.320312 812.226562 189.898438 811.945312 C 189.476562 811.664062 189.085938 811.34375 188.730469 810.984375 C 188.371094 810.625 188.050781 810.238281 187.769531 809.816406 C 187.488281 809.394531 187.25 808.949219 187.058594 808.480469 C 186.863281 808.015625 186.714844 807.53125 186.617188 807.035156 C 186.519531 806.539062 186.46875 806.035156 186.46875 805.53125 C 186.46875 805.023438 186.519531 804.523438 186.617188 804.023438 C 186.714844 803.527344 186.863281 803.046875 187.058594 802.578125 C 187.25 802.109375 187.488281 801.664062 187.769531 801.246094 C 188.050781 800.824219 188.371094 800.433594 188.730469 800.074219 C 189.085938 799.71875 189.476562 799.398438 189.898438 799.117188 C 190.320312 798.835938 190.765625 798.597656 191.230469 798.402344 C 191.699219 798.210938 192.183594 798.0625 192.679688 797.964844 C 193.175781 797.867188 193.675781 797.816406 194.183594 797.816406 L 239.382812 797.816406 C 239.886719 797.816406 240.390625 797.867188 240.886719 797.964844 C 241.382812 798.0625 241.867188 798.210938 242.335938 798.402344 C 242.800781 798.597656 243.246094 798.835938 243.667969 799.117188 C 244.089844 799.398438 244.480469 799.71875 244.835938 800.074219 C 245.195312 800.433594 245.515625 800.824219 245.796875 801.246094 C 246.078125 801.664062 246.316406 802.109375 246.507812 802.578125 C 246.703125 803.046875 246.847656 803.527344 246.949219 804.023438 C 247.046875 804.523438 247.097656 805.023438 247.097656 805.53125 C 247.097656 806.035156 247.046875 806.539062 246.949219 807.035156 C 246.847656 807.53125 246.703125 808.015625 246.507812 808.480469 C 246.316406 808.949219 246.078125 809.394531 245.796875 809.816406 C 245.515625 810.238281 245.195312 810.625 244.835938 810.984375 C 244.480469 811.34375 244.089844 811.664062 243.667969 811.945312 C 243.246094 812.226562 242.800781 812.464844 242.335938 812.65625 C 241.867188 812.851562 241.382812 812.996094 240.886719 813.097656 C 240.390625 813.195312 239.886719 813.246094 239.382812 813.246094 Z M 239.382812 813.246094 " fill-opacity="1" fill-rule="nonzero"/></svg>