<svg width="56" height="50" viewBox="0 0 56 50" fill="none" xmlns="http://www.w3.org/2000/svg">
<mask id="mask0_2356_380" style="mask-type:luminance" maskUnits="userSpaceOnUse" x="9" y="0" width="37" height="50">
<path d="M9.875 0H45.3947V50H9.875V0Z" fill="white"/>
</mask>
<g mask="url(#mask0_2356_380)">
<path d="M41.1431 50.0025H14.0896C13.9517 50.0022 13.8144 49.9953 13.6774 49.9818C13.5404 49.9682 13.4042 49.9478 13.2692 49.9207C13.1339 49.894 13.0006 49.8603 12.8688 49.8203C12.737 49.7803 12.6074 49.7339 12.4802 49.681C12.3529 49.6283 12.2289 49.5696 12.1074 49.5045C11.9859 49.4394 11.8679 49.3686 11.7533 49.2921C11.6388 49.2158 11.5282 49.1337 11.422 49.0462C11.3155 48.959 11.2136 48.8666 11.116 48.769C11.0187 48.6717 10.9263 48.5698 10.8388 48.4633C10.7516 48.3568 10.6695 48.2463 10.593 48.1317C10.5164 48.0174 10.4456 47.8994 10.3808 47.7779C10.3158 47.6564 10.2567 47.5321 10.2041 47.4048C10.1514 47.2776 10.1048 47.1481 10.0647 47.0162C10.0247 46.8844 9.99134 46.7511 9.96428 46.6161C9.93722 46.4808 9.91707 46.3449 9.90325 46.2079C9.88972 46.0706 9.88281 45.9333 9.88281 45.7957V4.2234C9.88281 4.0858 9.88972 3.94821 9.90325 3.81118C9.91707 3.67416 9.93722 3.538 9.96428 3.403C9.99134 3.26799 10.0247 3.13442 10.0647 3.00287C10.1048 2.87103 10.1514 2.74149 10.2041 2.61426C10.2567 2.48702 10.3158 2.36267 10.3808 2.24119C10.4456 2.11971 10.5164 2.00169 10.593 1.88712C10.6695 1.77284 10.7516 1.6623 10.8388 1.55579C10.9263 1.44929 11.0187 1.34738 11.116 1.25009C11.2136 1.1525 11.3155 1.0601 11.422 0.972875C11.5282 0.885366 11.6388 0.803325 11.7533 0.726754C11.8679 0.650471 11.9859 0.579657 12.1074 0.514601C12.2286 0.449544 12.3529 0.390821 12.4802 0.337854C12.6074 0.285176 12.737 0.23883 12.8688 0.198818C13.0006 0.158805 13.1339 0.125125 13.2692 0.0980662C13.4042 0.0712951 13.5404 0.050857 13.6774 0.0373275C13.8144 0.0237981 13.9517 0.0168894 14.0896 0.0166016H41.1431C41.281 0.0168894 41.4183 0.0237981 41.5553 0.0373275C41.6923 0.050857 41.8285 0.0712951 41.9635 0.0980662C42.0988 0.125125 42.232 0.158805 42.3639 0.198818C42.4957 0.23883 42.6253 0.285176 42.7525 0.337854C42.8797 0.390821 43.0041 0.449544 43.1256 0.514601C43.2468 0.579657 43.3648 0.650471 43.4793 0.726754C43.5939 0.803325 43.7045 0.885366 43.811 0.972875C43.9172 1.0601 44.0191 1.1525 44.1167 1.25009C44.214 1.34738 44.3064 1.44929 44.3939 1.55579C44.4811 1.6623 44.5631 1.77284 44.6397 1.88712C44.7163 2.00169 44.7871 2.11971 44.8522 2.24119C44.9169 2.36267 44.9759 2.48702 45.0286 2.61426C45.0813 2.74149 45.1279 2.87103 45.1679 3.00287C45.2079 3.13442 45.2413 3.26799 45.2684 3.403C45.2955 3.538 45.3156 3.67416 45.3294 3.81118C45.343 3.94821 45.3499 4.0858 45.3499 4.2234V45.7968C45.3499 45.9344 45.343 46.0718 45.3291 46.2088C45.3156 46.3458 45.2952 46.482 45.2681 46.617C45.2413 46.752 45.2077 46.8855 45.1676 47.0171C45.1276 47.1489 45.081 47.2785 45.0283 47.4057C44.9756 47.5329 44.9166 47.657 44.8516 47.7785C44.7868 47.9 44.716 48.018 44.6394 48.1325C44.5629 48.2468 44.4808 48.3574 44.3933 48.4639C44.3061 48.5701 44.2137 48.672 44.1161 48.7696C44.0188 48.8669 43.9169 48.9593 43.8104 49.0465C43.7039 49.134 43.5936 49.2158 43.4791 49.2923C43.3645 49.3689 43.2465 49.4397 43.125 49.5045C43.0038 49.5696 42.8794 49.6286 42.7522 49.6812C42.625 49.7339 42.4954 49.7803 42.3636 49.8203C42.2318 49.8606 42.0985 49.894 41.9635 49.921C41.8285 49.9478 41.6923 49.9682 41.5553 49.9818C41.4183 49.9953 41.281 50.0022 41.1431 50.0025ZM14.0896 1.1548C13.9891 1.1548 13.8887 1.1597 13.7888 1.16948C13.6886 1.17956 13.5893 1.19424 13.4906 1.21382C13.3921 1.23339 13.2945 1.25786 13.1984 1.28693C13.1022 1.31629 13.0075 1.34997 12.9149 1.38855C12.8219 1.42683 12.7312 1.47001 12.6425 1.51722C12.5539 1.56472 12.4675 1.61624 12.384 1.67209C12.3006 1.72793 12.2197 1.78781 12.1419 1.85171C12.0645 1.91533 11.99 1.98298 11.9189 2.05379C11.8478 2.12489 11.7804 2.19945 11.7165 2.27717C11.6529 2.3549 11.593 2.4355 11.5371 2.51926C11.4813 2.60274 11.4295 2.68881 11.3823 2.77748C11.3348 2.86614 11.2919 2.9571 11.2533 3.04979C11.215 3.14277 11.1811 3.23719 11.152 3.33362C11.1226 3.42977 11.0984 3.52707 11.0786 3.6258C11.059 3.72425 11.0443 3.82356 11.0345 3.92374C11.0248 4.02391 11.0199 4.12409 11.0199 4.22455V45.798C11.0199 45.8985 11.0248 45.9986 11.0345 46.0988C11.0443 46.1987 11.059 46.298 11.0786 46.3967C11.0984 46.4955 11.1226 46.5928 11.152 46.6889C11.1811 46.7851 11.215 46.8798 11.2533 46.9728C11.2919 47.0654 11.3348 47.1564 11.3823 47.2451C11.4295 47.3337 11.4813 47.4198 11.5371 47.5033C11.593 47.5871 11.6529 47.6677 11.7165 47.7454C11.7804 47.8231 11.8478 47.8974 11.9189 47.9685C11.99 48.0396 12.0645 48.1072 12.1419 48.1708C12.2197 48.2347 12.3006 48.2943 12.384 48.3502C12.4675 48.4063 12.5539 48.4578 12.6425 48.5053C12.7312 48.5525 12.8219 48.5954 12.9149 48.634C13.0075 48.6726 13.1022 48.7063 13.1984 48.7356C13.2945 48.7647 13.3921 48.7892 13.4906 48.8087C13.5893 48.8283 13.6886 48.843 13.7888 48.8528C13.8887 48.8629 13.9891 48.8677 14.0896 48.8677H41.1431C41.2438 48.8677 41.344 48.8629 41.4442 48.8528C41.5441 48.843 41.6434 48.8283 41.7421 48.8087C41.8406 48.7892 41.9381 48.7647 42.0343 48.7356C42.1304 48.7063 42.2251 48.6726 42.3178 48.634C42.4108 48.5954 42.5015 48.5525 42.5901 48.5053C42.6788 48.4578 42.7652 48.4063 42.8486 48.3502C42.9321 48.2943 43.013 48.2347 43.0907 48.1708C43.1685 48.1072 43.2427 48.0396 43.3138 47.9685C43.3849 47.8974 43.4523 47.8231 43.5162 47.7454C43.5798 47.6677 43.6397 47.5871 43.6955 47.5033C43.7514 47.4198 43.8032 47.3337 43.8504 47.2451C43.8979 47.1564 43.9408 47.0654 43.9794 46.9728C44.0176 46.8798 44.0516 46.7851 44.0807 46.6889C44.11 46.5928 44.1342 46.4955 44.1541 46.3967C44.1737 46.298 44.1883 46.1987 44.1981 46.0988C44.2079 45.9986 44.2131 45.8985 44.2131 45.798V4.2234C44.2131 4.12294 44.2079 4.02276 44.1981 3.92259C44.1883 3.82241 44.1737 3.7231 44.1541 3.62465C44.1342 3.52591 44.11 3.42862 44.0807 3.33247C44.0516 3.23604 44.0176 3.14162 43.9794 3.04864C43.9408 2.95595 43.8979 2.86499 43.8504 2.77632C43.8032 2.68766 43.7514 2.60159 43.6955 2.51811C43.6397 2.43435 43.5798 2.35374 43.5162 2.27602C43.4523 2.1983 43.3849 2.12403 43.3138 2.05293C43.2427 1.98183 43.1685 1.91418 43.0907 1.85056C43.013 1.78666 42.9321 1.72678 42.8486 1.67094C42.7652 1.61509 42.6788 1.56357 42.5901 1.51607C42.5015 1.46886 42.4108 1.42568 42.3178 1.3874C42.2251 1.34882 42.1304 1.31514 42.0343 1.28578C41.9381 1.25671 41.8406 1.23224 41.7421 1.21266C41.6434 1.19309 41.5441 1.17841 41.4442 1.16833C41.344 1.15855 41.2438 1.15365 41.1431 1.15365L14.0896 1.1548Z" fill="#FF5757"/>
</g>
<path d="M42.0804 43.2467H13.1564C13.119 43.2467 13.0821 43.2432 13.0456 43.2357C13.009 43.2285 12.9733 43.2179 12.9388 43.2035C12.9045 43.1891 12.8717 43.1718 12.8406 43.1511C12.8095 43.1301 12.7808 43.1068 12.7546 43.0803C12.7281 43.0538 12.7045 43.025 12.6837 42.9942C12.663 42.9631 12.6455 42.9303 12.6314 42.8958C12.617 42.8612 12.606 42.8258 12.5988 42.7892C12.5916 42.7527 12.5879 42.7156 12.5879 42.6781V7.34119C12.5879 7.30405 12.5916 7.26692 12.5988 7.23036C12.6063 7.1938 12.617 7.15811 12.6314 7.12385C12.6455 7.08931 12.663 7.05649 12.6837 7.0254C12.7045 6.99431 12.7281 6.96582 12.7546 6.93933C12.7808 6.91285 12.8095 6.88925 12.8406 6.86852C12.8717 6.84779 12.9045 6.83023 12.9388 6.81613C12.9733 6.80174 13.009 6.79108 13.0456 6.7836C13.0821 6.7764 13.119 6.77295 13.1564 6.77295H42.0804C42.1178 6.77295 42.1547 6.7764 42.1912 6.7836C42.2278 6.79108 42.2635 6.80174 42.298 6.81613C42.3323 6.83023 42.3651 6.84779 42.3962 6.86852C42.4273 6.88925 42.456 6.91285 42.4822 6.93933C42.5087 6.96582 42.5323 6.99431 42.5531 7.0254C42.5738 7.05649 42.5913 7.08931 42.6054 7.12385C42.6198 7.15811 42.6305 7.1938 42.638 7.23036C42.6452 7.26692 42.6489 7.30405 42.6489 7.34119V42.6781C42.6489 42.7156 42.6452 42.7527 42.638 42.7892C42.6305 42.8258 42.6198 42.8612 42.6054 42.8958C42.5913 42.9303 42.5738 42.9631 42.5531 42.9942C42.5323 43.025 42.5087 43.0538 42.4822 43.0803C42.456 43.1068 42.4273 43.1301 42.3962 43.1511C42.3651 43.1718 42.3323 43.1891 42.298 43.2035C42.2635 43.2179 42.2278 43.2285 42.1912 43.2357C42.1547 43.2432 42.1178 43.2467 42.0804 43.2467ZM13.7249 42.1099H41.5119V7.90971H13.7249V42.1099Z" fill="#FF5757"/>
<path d="M31.8614 4.6185H23.3732C23.3361 4.6185 23.2989 4.61475 23.2624 4.60756C23.2258 4.60036 23.1901 4.58942 23.1556 4.57503C23.1213 4.56092 23.0885 4.54336 23.0574 4.52264C23.0263 4.50191 22.9978 4.47831 22.9714 4.45182C22.9449 4.42563 22.9213 4.39684 22.9005 4.36575C22.8798 4.33466 22.8623 4.30214 22.8482 4.26759C22.8338 4.23305 22.8231 4.19736 22.8156 4.1608C22.8084 4.12424 22.8047 4.08739 22.8047 4.04997C22.8047 4.01255 22.8084 3.9757 22.8156 3.93914C22.8231 3.9023 22.8338 3.86689 22.8482 3.83235C22.8623 3.7978 22.8798 3.76528 22.9005 3.73419C22.9213 3.7031 22.9449 3.67431 22.9714 3.64812C22.9978 3.62163 23.0263 3.59803 23.0574 3.5773C23.0885 3.55658 23.1213 3.53902 23.1556 3.52462C23.1901 3.51052 23.2258 3.49958 23.2624 3.49238C23.2989 3.48519 23.3361 3.48145 23.3732 3.48145H31.8614C31.8985 3.48145 31.9356 3.48519 31.9722 3.49238C32.0088 3.49958 32.0444 3.51052 32.079 3.52462C32.1132 3.53902 32.1461 3.55658 32.1771 3.5773C32.2082 3.59803 32.237 3.62163 32.2632 3.64812C32.2897 3.67431 32.3133 3.7031 32.334 3.73419C32.3548 3.76528 32.3723 3.7978 32.3864 3.83235C32.4008 3.86689 32.4115 3.9023 32.419 3.93914C32.4261 3.9757 32.4299 4.01255 32.4299 4.04997C32.4299 4.08739 32.4261 4.12424 32.419 4.1608C32.4115 4.19736 32.4008 4.23305 32.3864 4.26759C32.3723 4.30214 32.3548 4.33466 32.334 4.36575C32.3133 4.39684 32.2897 4.42563 32.2632 4.45182C32.237 4.47831 32.2082 4.50191 32.1771 4.52264C32.1461 4.54336 32.1132 4.56092 32.079 4.57503C32.0444 4.58942 32.0088 4.60036 31.9722 4.60756C31.9356 4.61475 31.8985 4.6185 31.8614 4.6185Z" fill="#FF5757"/>
<path d="M21.2826 4.6185H20.3088C20.2713 4.6185 20.2345 4.61475 20.1976 4.60756C20.1611 4.60036 20.1257 4.58942 20.0911 4.57503C20.0566 4.56092 20.0238 4.54336 19.993 4.52264C19.9619 4.50191 19.9331 4.47831 19.9066 4.45182C19.8804 4.42563 19.8568 4.39684 19.8361 4.36575C19.8154 4.33466 19.7978 4.30214 19.7834 4.26759C19.7693 4.23305 19.7584 4.19736 19.7512 4.1608C19.744 4.12424 19.7402 4.08739 19.7402 4.04997C19.7402 4.01255 19.744 3.9757 19.7512 3.93914C19.7584 3.9023 19.7693 3.86689 19.7834 3.83235C19.7978 3.7978 19.8154 3.76528 19.8361 3.73419C19.8568 3.7031 19.8804 3.67431 19.9066 3.64812C19.9331 3.62163 19.9619 3.59803 19.993 3.5773C20.0238 3.55658 20.0566 3.53902 20.0911 3.52462C20.1257 3.51052 20.1611 3.49958 20.1976 3.49238C20.2345 3.48519 20.2713 3.48145 20.3088 3.48145H21.2826C21.3197 3.48145 21.3569 3.48519 21.3934 3.49238C21.43 3.49958 21.4657 3.51052 21.4999 3.52462C21.5345 3.53902 21.5673 3.55658 21.5984 3.5773C21.6295 3.59803 21.658 3.62163 21.6844 3.64812C21.7109 3.67431 21.7345 3.7031 21.7553 3.73419C21.776 3.76528 21.7935 3.7978 21.8077 3.83235C21.822 3.86689 21.8327 3.9023 21.8402 3.93914C21.8474 3.9757 21.8511 4.01255 21.8511 4.04997C21.8511 4.08739 21.8474 4.12424 21.8402 4.1608C21.8327 4.19736 21.822 4.23305 21.8077 4.26759C21.7935 4.30214 21.776 4.33466 21.7553 4.36575C21.7345 4.39684 21.7109 4.42563 21.6844 4.45182C21.658 4.47831 21.6295 4.50191 21.5984 4.52264C21.5673 4.54336 21.5345 4.56092 21.4999 4.57503C21.4657 4.58942 21.43 4.60036 21.3934 4.60756C21.3569 4.61475 21.3197 4.6185 21.2826 4.6185Z" fill="#FF5757"/>
<path d="M27.6168 48.2088C27.5448 48.2088 27.4732 48.2053 27.4015 48.1981C27.3301 48.1912 27.259 48.1806 27.1885 48.1668C27.118 48.1527 27.0483 48.1354 26.9795 48.1144C26.9107 48.0937 26.8433 48.0695 26.7768 48.0418C26.7103 48.0145 26.6456 47.9837 26.5822 47.95C26.5186 47.916 26.457 47.8792 26.3974 47.8392C26.3376 47.7992 26.28 47.7566 26.2244 47.7108C26.1689 47.6653 26.1156 47.6172 26.0647 47.5663C26.014 47.5156 25.9656 47.4624 25.9202 47.4068C25.8744 47.3513 25.8318 47.2937 25.7918 47.2338C25.7518 47.1739 25.7149 47.1126 25.6809 47.049C25.6473 46.9857 25.6165 46.9209 25.5888 46.8544C25.5615 46.7879 25.5373 46.7206 25.5163 46.6518C25.4956 46.583 25.478 46.5133 25.4639 46.4428C25.4501 46.3722 25.4394 46.3011 25.4322 46.2298C25.4253 46.1581 25.4219 46.0864 25.4219 46.0147C25.4219 45.9428 25.4253 45.8711 25.4322 45.7994C25.4394 45.728 25.4498 45.6569 25.4639 45.5864C25.478 45.5159 25.4953 45.4462 25.5163 45.3777C25.537 45.3089 25.5612 45.2412 25.5888 45.1747C25.6162 45.1082 25.647 45.0435 25.6809 44.9801C25.7146 44.9168 25.7518 44.8552 25.7915 44.7953C25.8315 44.7355 25.8744 44.6779 25.9199 44.6223C25.9654 44.5668 26.0137 44.5135 26.0644 44.4629C26.1153 44.4119 26.1686 44.3638 26.2241 44.3181C26.2797 44.2726 26.3373 44.2297 26.3971 44.19C26.4567 44.15 26.5183 44.1131 26.5817 44.0791C26.6453 44.0452 26.7101 44.0147 26.7765 43.987C26.8428 43.9597 26.9104 43.9355 26.9792 43.9145C27.048 43.8938 27.1177 43.8762 27.1882 43.8621C27.2587 43.8483 27.3295 43.8376 27.4012 43.8307C27.4726 43.8235 27.5446 43.8201 27.6162 43.8201C27.6882 43.8201 27.7599 43.8235 27.8313 43.8307C27.9029 43.8376 27.974 43.8483 28.0446 43.8624C28.1148 43.8762 28.1845 43.8938 28.2533 43.9148C28.3221 43.9355 28.3897 43.9597 28.4562 43.9873C28.5224 44.0147 28.5875 44.0455 28.6508 44.0794C28.7141 44.1131 28.7757 44.1502 28.8356 44.19C28.8952 44.23 28.9528 44.2729 29.0083 44.3184C29.0639 44.3641 29.1171 44.4122 29.1681 44.4631C29.2188 44.5138 29.2671 44.5671 29.3126 44.6226C29.3581 44.6782 29.401 44.7358 29.441 44.7956C29.4807 44.8555 29.5178 44.9171 29.5515 44.9804C29.5855 45.0438 29.616 45.1088 29.6436 45.175C29.671 45.2415 29.6952 45.3092 29.7162 45.378C29.7369 45.4468 29.7545 45.5164 29.7683 45.587C29.7824 45.6572 29.793 45.7283 29.8 45.8C29.8069 45.8714 29.8106 45.943 29.8106 46.015C29.8103 46.0867 29.8069 46.1584 29.7997 46.23C29.7925 46.3014 29.7821 46.3722 29.768 46.4428C29.7539 46.5133 29.7363 46.583 29.7156 46.6515C29.6946 46.7203 29.6704 46.7879 29.6428 46.8541C29.6154 46.9206 29.5846 46.9854 29.5507 47.0487C29.517 47.112 29.4798 47.1736 29.4401 47.2332C29.4001 47.2928 29.3575 47.3507 29.3117 47.4062C29.2663 47.4615 29.2182 47.5148 29.1672 47.5654C29.1166 47.6164 29.0633 47.6645 29.0078 47.7102C28.9522 47.7557 28.8946 47.7983 28.835 47.8383C28.7752 47.8783 28.7139 47.9152 28.6505 47.9491C28.5869 47.9828 28.5221 48.0136 28.4559 48.0413C28.3894 48.0686 28.3221 48.0928 28.2533 48.1138C28.1845 48.1348 28.1148 48.1521 28.0446 48.1662C27.974 48.1803 27.9032 48.1909 27.8316 48.1981C27.7602 48.2051 27.6885 48.2088 27.6168 48.2088ZM27.6168 44.9571C27.5472 44.9571 27.4784 44.9637 27.4104 44.9773C27.3422 44.9908 27.2763 45.0107 27.2121 45.0374C27.1479 45.0639 27.0869 45.0964 27.029 45.135C26.9714 45.1736 26.9179 45.2173 26.869 45.2663C26.8197 45.3155 26.776 45.3688 26.7371 45.4266C26.6985 45.4842 26.666 45.5452 26.6395 45.6091C26.6128 45.6733 26.5929 45.7395 26.5791 45.8075C26.5655 45.8757 26.5586 45.9445 26.5586 46.0139C26.5586 46.0832 26.5655 46.152 26.5791 46.2203C26.5923 46.2882 26.6125 46.3544 26.639 46.4186C26.6654 46.4828 26.698 46.5435 26.7365 46.6014C26.7751 46.6592 26.8189 46.7125 26.8681 46.7617C26.917 46.8109 26.9706 46.8547 27.0281 46.8933C27.086 46.9318 27.1467 46.9644 27.2109 46.9911C27.2751 47.0176 27.3413 47.0378 27.4093 47.0513C27.4775 47.0648 27.546 47.0717 27.6157 47.0717C27.685 47.0717 27.7538 47.0651 27.8218 47.0516C27.89 47.0381 27.9562 47.0179 28.0201 46.9914C28.0843 46.9649 28.1453 46.9324 28.2032 46.8938C28.2608 46.8553 28.3143 46.8115 28.3635 46.7626C28.4125 46.7134 28.4565 46.6601 28.4951 46.6022C28.5337 46.5447 28.5662 46.4836 28.5927 46.4195C28.6194 46.3555 28.6396 46.2893 28.6531 46.2211C28.6666 46.1532 28.6736 46.0844 28.6736 46.015C28.6736 45.9456 28.6666 45.8768 28.6531 45.8089C28.6396 45.7407 28.6194 45.6745 28.593 45.6106C28.5665 45.5464 28.5339 45.4853 28.4954 45.4278C28.4568 45.3699 28.413 45.3167 28.3638 45.2674C28.3149 45.2185 28.2613 45.1745 28.2038 45.1359C28.1462 45.0973 28.0852 45.0648 28.021 45.038C27.9571 45.0115 27.8909 44.9914 27.8229 44.9776C27.7547 44.964 27.6862 44.9571 27.6168 44.9571Z" fill="#FF5757"/>
<path d="M23.7007 15.6867C23.6052 15.6441 23.5133 15.5949 23.4252 15.5385C23.3372 15.4824 23.2537 15.4199 23.1748 15.3511C23.0959 15.2823 23.0228 15.208 22.9552 15.1286C22.8872 15.0488 22.8259 14.9645 22.7709 14.8755C22.7157 14.7869 22.6673 14.6945 22.6261 14.5983C22.5847 14.5022 22.5507 14.4037 22.5242 14.3027C22.4975 14.2014 22.4788 14.0989 22.4672 13.995C22.456 13.8911 22.4526 13.7869 22.4569 13.6824V10.4068C22.456 10.3564 22.4649 10.3081 22.4834 10.2614C22.5021 10.2148 22.5291 10.1736 22.5642 10.1379C22.5985 10.1008 22.6385 10.0726 22.6849 10.0527C22.7312 10.0329 22.7796 10.0234 22.8297 10.0242C22.8547 10.0242 22.8795 10.0265 22.9042 10.0314C22.9287 10.0363 22.9526 10.0435 22.9756 10.053C22.9986 10.0628 23.0208 10.0743 23.0415 10.0884C23.0622 10.1022 23.0815 10.1181 23.0994 10.1356C23.1169 10.1535 23.1328 10.1725 23.1466 10.1935C23.1607 10.2142 23.1725 10.2361 23.182 10.2591C23.1915 10.2824 23.199 10.306 23.2039 10.3308C23.2088 10.3553 23.2111 10.38 23.2111 10.4051V13.7063C23.2065 13.8551 23.2235 14.0016 23.2623 14.1455C23.3009 14.2895 23.3596 14.4245 23.4385 14.5511C23.5122 14.6648 23.6 14.7662 23.7019 14.8551C23.8041 14.9441 23.9166 15.0169 24.0395 15.0739C24.1642 15.1315 24.2937 15.1749 24.4279 15.2043C24.5623 15.2336 24.6979 15.2483 24.8355 15.2483C24.9728 15.2483 25.1087 15.2336 25.2428 15.2043C25.3769 15.1749 25.5065 15.1315 25.6311 15.0739C25.754 15.0169 25.8666 14.9438 25.9688 14.8548C26.0707 14.7662 26.1588 14.6648 26.2322 14.5511C26.3108 14.4245 26.3698 14.2892 26.4083 14.1455C26.4472 14.0016 26.4642 13.8551 26.4596 13.7063V10.4068C26.4587 10.3564 26.4676 10.3081 26.4861 10.2614C26.5048 10.2148 26.5318 10.1736 26.567 10.1379C26.6012 10.1008 26.6412 10.0726 26.6876 10.0527C26.7339 10.0329 26.7823 10.0234 26.8324 10.0242C26.8574 10.0242 26.8822 10.0265 26.9069 10.0314C26.9314 10.0363 26.9553 10.0435 26.9783 10.053C27.0013 10.0628 27.0235 10.0743 27.0442 10.0884C27.065 10.1022 27.0842 10.1181 27.1021 10.1356C27.1196 10.1535 27.1355 10.1725 27.1493 10.1935C27.1634 10.2142 27.1752 10.2361 27.1847 10.2591C27.1942 10.2824 27.2017 10.306 27.2066 10.3308C27.2115 10.3553 27.2138 10.38 27.2138 10.4051V13.6806C27.2213 13.902 27.1954 14.1193 27.1361 14.3326C27.0768 14.5462 26.9867 14.7457 26.866 14.9314C26.7549 15.0963 26.6237 15.2431 26.472 15.3712C26.32 15.4996 26.1536 15.605 25.9722 15.6867C25.794 15.7691 25.6092 15.8312 25.4175 15.8733C25.2255 15.9153 25.0318 15.9363 24.8355 15.9363C24.6392 15.9363 24.4451 15.9153 24.2534 15.8733C24.0617 15.8312 23.8766 15.7691 23.6984 15.6867H23.7007Z" fill="#FF5757"/>
<path d="M24.835 16.0512C24.4216 16.0509 24.0275 15.9648 23.6519 15.7927C23.5514 15.7478 23.4547 15.6954 23.362 15.6361C23.2693 15.5768 23.1815 15.5111 23.0986 15.4386C23.0157 15.3664 22.9386 15.2881 22.8675 15.2043C22.7961 15.1205 22.7316 15.0316 22.6734 14.9383C22.6153 14.8448 22.5646 14.7475 22.5209 14.6464C22.4774 14.5454 22.4414 14.4415 22.4135 14.3352C22.3853 14.2287 22.3651 14.1208 22.353 14.0114C22.3412 13.902 22.3372 13.7923 22.3415 13.6824V10.4068C22.341 10.3582 22.3476 10.3104 22.3614 10.2637C22.3752 10.2168 22.3954 10.1733 22.4221 10.1325C22.4489 10.0919 22.4811 10.0562 22.5186 10.0251C22.5563 9.99401 22.5974 9.96925 22.6423 9.95025C22.6872 9.93154 22.7342 9.92003 22.7825 9.91513C22.8309 9.91053 22.879 9.91283 22.9268 9.92233C22.9745 9.93212 23.02 9.94853 23.0626 9.97155C23.1055 9.99458 23.1441 10.0237 23.1783 10.0582C23.2255 10.104 23.2615 10.1569 23.2869 10.2177C23.3119 10.2781 23.324 10.3412 23.3231 10.4068V13.708C23.3191 13.8465 23.3349 13.9823 23.3712 14.1162C23.4072 14.25 23.4619 14.3755 23.5353 14.493C23.6737 14.7069 23.8586 14.8675 24.0897 14.9752C24.2069 15.0287 24.3286 15.0693 24.455 15.0966C24.5811 15.1243 24.7086 15.1378 24.8376 15.1378C24.9668 15.1378 25.0943 15.1243 25.2204 15.0966C25.3468 15.0693 25.4686 15.0287 25.5857 14.9752C25.8163 14.8675 26.0008 14.7069 26.1396 14.4936C26.2121 14.3761 26.2662 14.2509 26.3016 14.1176C26.3373 13.9843 26.3529 13.8488 26.3488 13.7109V10.4068C26.3483 10.3582 26.3549 10.3104 26.3687 10.2637C26.3822 10.2168 26.4027 10.1733 26.4294 10.1325C26.4562 10.0919 26.4885 10.0562 26.5259 10.0251C26.5636 9.99401 26.6047 9.96925 26.6497 9.95025C26.6946 9.93154 26.7412 9.92003 26.7898 9.91513C26.8382 9.91053 26.8863 9.91283 26.9341 9.92233C26.9818 9.93212 27.027 9.94853 27.0699 9.97155C27.1128 9.99458 27.1514 10.0237 27.1857 10.0582C27.2326 10.104 27.2688 10.1569 27.2939 10.2177C27.3192 10.2781 27.3313 10.3412 27.3304 10.4068V13.6824C27.3348 13.7923 27.331 13.902 27.3189 14.0111C27.3071 14.1205 27.287 14.2284 27.2591 14.3347C27.2311 14.4412 27.1954 14.5448 27.152 14.6458C27.1085 14.7469 27.0578 14.8442 26.9997 14.9377C26.9418 15.031 26.8774 15.1197 26.8063 15.2037C26.7351 15.2875 26.658 15.3658 26.5754 15.4383C26.4925 15.5106 26.405 15.5765 26.3123 15.6358C26.2199 15.6954 26.1234 15.7475 26.023 15.7927C25.6459 15.9654 25.2498 16.0518 24.835 16.0512ZM22.8274 10.1391C22.7929 10.1379 22.7595 10.144 22.7276 10.1575C22.6956 10.171 22.668 10.1906 22.6444 10.2162C22.5923 10.2689 22.5669 10.332 22.5684 10.4062V13.6818C22.5617 13.8911 22.5862 14.0966 22.6423 14.2987C22.6982 14.5005 22.7828 14.6893 22.8962 14.8655C23.0019 15.0224 23.1265 15.162 23.271 15.284C23.4153 15.4064 23.5736 15.5063 23.7457 15.5846C23.9164 15.6626 24.0937 15.7219 24.2771 15.7619C24.4608 15.8019 24.6464 15.8218 24.8344 15.8218C25.0221 15.8218 25.2078 15.8019 25.3914 15.7619C25.5751 15.7219 25.7521 15.6626 25.9228 15.5846C26.0949 15.5063 26.2533 15.4064 26.3975 15.284C26.5417 15.162 26.6664 15.0224 26.7717 14.8655C26.8854 14.6893 26.97 14.5005 27.0259 14.2987C27.082 14.0969 27.1065 13.8911 27.0996 13.6818V10.4068C27.0996 10.3806 27.0958 10.355 27.0884 10.3302C27.0809 10.3052 27.0696 10.2819 27.0553 10.26C27.0409 10.2384 27.0236 10.2191 27.0034 10.2024C26.9833 10.1857 26.9614 10.1725 26.9372 10.1624C26.9133 10.152 26.8883 10.1457 26.8624 10.1428C26.8362 10.1402 26.8106 10.1414 26.7849 10.146C26.7593 10.1509 26.7349 10.1595 26.7115 10.1713C26.6885 10.1834 26.6675 10.1987 26.6488 10.2168C26.5967 10.2695 26.5711 10.3325 26.5728 10.4068V13.708C26.5771 13.868 26.5584 14.0252 26.5164 14.1795C26.4743 14.3341 26.411 14.4789 26.3261 14.6148C26.2469 14.7374 26.1522 14.8465 26.042 14.9423C25.932 15.0382 25.8108 15.1171 25.6784 15.1787C25.546 15.2394 25.4087 15.2852 25.2662 15.3163C25.124 15.3474 24.9801 15.3629 24.8344 15.3629C24.6887 15.3629 24.5445 15.3474 24.4023 15.3163C24.2598 15.2852 24.1225 15.2394 23.9901 15.1787C23.8577 15.1171 23.7362 15.0382 23.6263 14.9423C23.516 14.8462 23.4213 14.7368 23.3421 14.6142C23.2569 14.4786 23.1933 14.3335 23.1513 14.1789C23.109 14.0246 23.0903 13.8675 23.0949 13.7074V10.4068C23.096 10.3325 23.0698 10.2698 23.0163 10.2185C22.9653 10.1638 22.9023 10.1377 22.8274 10.1397V10.1391Z" fill="#FF5757"/>
<path d="M28.4458 15.7932C28.4121 15.7613 28.3862 15.7238 28.3684 15.6812C28.3502 15.6383 28.3413 15.594 28.3419 15.5474C28.3402 15.4616 28.3652 15.3844 28.4167 15.3156L30.3319 12.9581L28.4331 10.6198C28.3819 10.551 28.3571 10.4738 28.3589 10.388C28.358 10.3639 28.3597 10.34 28.364 10.3161C28.3681 10.2922 28.3747 10.2692 28.3836 10.2467C28.3923 10.2242 28.4035 10.2029 28.4167 10.1828C28.43 10.1626 28.4452 10.1439 28.4622 10.127C28.4792 10.11 28.4979 10.0947 28.5181 10.0815C28.5382 10.0682 28.5595 10.057 28.582 10.0484C28.6044 10.0394 28.6274 10.0328 28.6513 10.0288C28.6752 10.0245 28.6991 10.0227 28.7233 10.0236C28.7846 10.0233 28.8428 10.0371 28.8977 10.0645C28.9504 10.0898 28.9947 10.1261 29.0302 10.1724L30.7801 12.3953L32.5297 10.156C32.5608 10.1117 32.6005 10.0774 32.6491 10.0538C32.6978 10.0302 32.7493 10.0202 32.8031 10.0236C32.8512 10.023 32.8976 10.0317 32.9422 10.0495C32.9865 10.0674 33.026 10.0933 33.0602 10.127C33.0953 10.1595 33.1224 10.1978 33.1411 10.2421C33.1601 10.2861 33.169 10.3322 33.1682 10.38C33.1693 10.4566 33.1471 10.5259 33.1017 10.5875L31.1859 12.9506L33.1017 15.3053C33.1546 15.3675 33.1797 15.4391 33.1762 15.5209C33.1774 15.5701 33.1693 15.6179 33.1512 15.664C33.1333 15.71 33.1071 15.7509 33.0726 15.7863C33.0533 15.8053 33.0323 15.822 33.0093 15.8364C32.9862 15.8511 32.962 15.8629 32.9364 15.8721C32.9108 15.8813 32.8846 15.8876 32.8578 15.8911C32.8308 15.8945 32.804 15.8951 32.777 15.8925C32.7499 15.8902 32.7234 15.885 32.6975 15.877C32.6716 15.8686 32.6468 15.858 32.6232 15.8444C32.5999 15.8309 32.578 15.8151 32.5579 15.7967C32.5377 15.7785 32.5199 15.7584 32.5041 15.7362L30.73 13.5056L28.9801 15.7454C28.9458 15.7912 28.9029 15.8269 28.852 15.8531C28.801 15.879 28.7469 15.8928 28.6896 15.8937C28.6438 15.8942 28.5998 15.8859 28.5575 15.8683C28.5149 15.8511 28.4778 15.8257 28.4458 15.7932Z" fill="#FF5757"/>
<path d="M32.8024 16.0096C32.7247 16.0102 32.651 15.9924 32.5822 15.9561C32.5131 15.9201 32.4564 15.8697 32.4124 15.8056L30.7315 13.6915L29.0703 15.8176C29.0507 15.8447 29.0283 15.8695 29.0032 15.8919C28.9782 15.9144 28.9511 15.9337 28.9217 15.9501C28.8924 15.9668 28.8619 15.9797 28.8296 15.9895C28.7977 15.9993 28.7649 16.0056 28.7312 16.0085C28.6978 16.0111 28.6644 16.0102 28.6313 16.0056C28.5979 16.001 28.5654 15.993 28.534 15.9814C28.5023 15.9699 28.4724 15.955 28.4442 15.9371C28.416 15.919 28.3898 15.898 28.3659 15.8744C28.3216 15.832 28.2873 15.7825 28.2634 15.7258C28.2395 15.6691 28.2277 15.6101 28.2286 15.5485C28.2269 15.4374 28.2597 15.3375 28.3262 15.2485L30.1875 12.958L28.346 10.6914C28.2781 10.6019 28.2447 10.5006 28.2467 10.388C28.245 10.3241 28.2562 10.2625 28.2801 10.2032C28.304 10.1439 28.3385 10.0918 28.3843 10.0469C28.4214 10.0109 28.4629 9.98184 28.5092 9.9591C28.5556 9.93636 28.6042 9.92139 28.6552 9.9139C28.7061 9.90642 28.7571 9.907 28.8078 9.91563C28.8587 9.92398 28.9071 9.9401 28.9528 9.9637C29.0205 9.99738 29.0775 10.0443 29.1233 10.1048L30.781 12.2116L32.4414 10.086C32.4624 10.0607 32.4855 10.0377 32.5111 10.017C32.5367 9.99652 32.5643 9.97867 32.5934 9.9637C32.6228 9.94873 32.6533 9.93722 32.685 9.92858C32.7169 9.91995 32.7491 9.91477 32.782 9.91275C32.8148 9.91074 32.8473 9.91218 32.8798 9.91707C32.9124 9.92196 32.944 9.93002 32.9748 9.94154C33.0056 9.95276 33.035 9.96716 33.0629 9.98472C33.0908 10.0023 33.1165 10.0224 33.1401 10.0452C33.1867 10.0883 33.2224 10.1393 33.2474 10.1977C33.2722 10.2562 33.2843 10.3169 33.2834 10.3805C33.2843 10.4816 33.2549 10.5728 33.1953 10.6546L31.334 12.9511L33.1913 15.2341C33.2615 15.3159 33.2952 15.4106 33.2921 15.5186C33.2932 15.5825 33.282 15.6444 33.2587 15.7042C33.2351 15.7638 33.2008 15.8165 33.1562 15.8625C33.1104 15.9112 33.0566 15.9483 32.995 15.974C32.9334 15.9996 32.8692 16.0114 32.8024 16.0096ZM30.7292 13.3242L32.5928 15.668C32.6075 15.6916 32.6259 15.7123 32.6475 15.7298C32.6694 15.7477 32.6933 15.7612 32.7195 15.771C32.7457 15.7805 32.7728 15.786 32.8007 15.7866C32.8289 15.7874 32.8559 15.7837 32.8827 15.7753C32.9095 15.7673 32.9342 15.7549 32.957 15.7385C32.9794 15.7221 32.999 15.7025 33.0151 15.6795C33.0313 15.6567 33.0433 15.632 33.0514 15.6052C33.0592 15.5784 33.0626 15.5511 33.0618 15.5232C33.0652 15.4705 33.0503 15.4241 33.0163 15.3838L31.0401 12.9529L33.0134 10.5181C33.0422 10.4772 33.056 10.4321 33.0549 10.3823C33.0566 10.3143 33.0324 10.2573 32.982 10.2116C32.9328 10.1623 32.8732 10.1384 32.8036 10.1402C32.7684 10.1364 32.7348 10.1422 32.7025 10.1569C32.6703 10.1718 32.6441 10.194 32.6239 10.2231L30.781 12.5824L28.9413 10.2458C28.9163 10.2124 28.8846 10.1868 28.8469 10.1689C28.8227 10.1563 28.7971 10.1476 28.77 10.1428C28.743 10.1381 28.7159 10.1376 28.6886 10.1413C28.6615 10.1448 28.6356 10.1525 28.6106 10.1643C28.5858 10.1761 28.5634 10.1914 28.5435 10.2101C28.4934 10.2599 28.4698 10.3201 28.473 10.3909C28.471 10.4513 28.4882 10.506 28.5245 10.5544L30.4791 12.958L28.5058 15.385C28.4712 15.4328 28.4548 15.4863 28.4563 15.5453C28.4554 15.6104 28.4787 15.6654 28.5262 15.71C28.5386 15.7229 28.5521 15.7342 28.5671 15.7437C28.5821 15.7534 28.5979 15.7612 28.6143 15.7676C28.631 15.7736 28.6483 15.7776 28.6658 15.7799C28.6834 15.7822 28.7012 15.7822 28.7188 15.7805C28.7364 15.7788 28.7536 15.775 28.7706 15.7693C28.7873 15.7635 28.8032 15.756 28.8184 15.7465C28.8334 15.7373 28.8472 15.7264 28.8599 15.7137C28.8725 15.7013 28.8835 15.6875 28.893 15.6726L30.7292 13.3242Z" fill="#FF5757"/>
<path d="M24.5468 26.4975C24.4513 26.4549 24.3594 26.4053 24.2713 26.3489C24.1833 26.2925 24.0995 26.23 24.0209 26.1612C23.942 26.0924 23.8686 26.0182 23.801 25.9382C23.733 25.8584 23.6717 25.7741 23.6165 25.6851C23.5615 25.5962 23.5131 25.5038 23.472 25.4076C23.4305 25.3115 23.3965 25.2127 23.3698 25.1117C23.3433 25.0104 23.3243 24.9076 23.3131 24.8037C23.3018 24.6998 23.2984 24.5953 23.3024 24.4908V21.2158C23.3015 21.1654 23.3105 21.1168 23.3295 21.0698C23.3482 21.0229 23.3752 20.9818 23.4106 20.9458C23.4446 20.9089 23.4849 20.8804 23.531 20.8609C23.577 20.841 23.6251 20.8312 23.6755 20.8321C23.7005 20.8321 23.7253 20.8344 23.75 20.8393C23.7745 20.8442 23.7984 20.8514 23.8214 20.8611C23.8447 20.8706 23.8666 20.8824 23.8876 20.8963C23.9084 20.9104 23.9276 20.9262 23.9455 20.9441C23.963 20.9616 23.9789 20.9809 23.9927 21.0019C24.0068 21.0226 24.0183 21.0448 24.0281 21.0678C24.0376 21.0911 24.0448 21.115 24.0497 21.1395C24.0546 21.164 24.0569 21.189 24.0569 21.2141V24.5112C24.052 24.6603 24.069 24.8071 24.1078 24.9514C24.1467 25.0956 24.2054 25.2309 24.2843 25.3578C24.3577 25.4715 24.4455 25.5726 24.5477 25.6612C24.6499 25.7502 24.7624 25.8227 24.8851 25.8794C25.01 25.9367 25.1395 25.9802 25.2737 26.0095C25.4078 26.0386 25.5437 26.0533 25.681 26.0533C25.8183 26.0533 25.9542 26.0386 26.0883 26.0095C26.2225 25.9802 26.352 25.9367 26.4769 25.8794C26.5998 25.8227 26.7124 25.7502 26.8146 25.6612C26.9168 25.5726 27.0043 25.4715 27.0777 25.3578C27.1566 25.2309 27.2153 25.0953 27.2542 24.9514C27.2927 24.8071 27.31 24.6603 27.3051 24.5112V21.2141C27.3042 21.1637 27.3132 21.115 27.3322 21.0681C27.3509 21.0212 27.3779 20.98 27.4133 20.9441C27.4473 20.9072 27.4873 20.8787 27.5337 20.8591C27.5797 20.8393 27.6278 20.8298 27.6782 20.8303C27.7032 20.8303 27.728 20.8326 27.7527 20.8375C27.7772 20.8424 27.8011 20.8496 27.8241 20.8594C27.8474 20.8689 27.8693 20.8807 27.8903 20.8948C27.9111 20.9086 27.9303 20.9245 27.9482 20.9423C27.9657 20.9599 27.9816 20.9792 27.9954 21.0002C28.0095 21.0209 28.021 21.0431 28.0308 21.0661C28.0403 21.0894 28.0475 21.1133 28.0524 21.1378C28.0573 21.1625 28.0596 21.1873 28.0596 21.2123V24.4873C28.0668 24.7087 28.0409 24.926 27.9816 25.1393C27.9223 25.3526 27.8322 25.5521 27.7116 25.7381C27.6007 25.9036 27.4692 26.0507 27.3169 26.1797C27.1649 26.3086 26.998 26.414 26.8163 26.4963C26.6381 26.5784 26.453 26.6402 26.2613 26.6823C26.0696 26.7243 25.8756 26.7453 25.6793 26.7453C25.4829 26.7453 25.2892 26.7243 25.0975 26.6823C24.9058 26.6402 24.7207 26.5784 24.5425 26.4963L24.5468 26.4975Z" fill="#FF5757"/>
<path d="M25.6821 26.8598C25.2699 26.8592 24.8764 26.7731 24.5013 26.6018C24.3105 26.5152 24.1349 26.4044 23.9748 26.2694C23.8148 26.1341 23.676 25.9795 23.5589 25.8059C23.4322 25.611 23.3375 25.4015 23.2745 25.1775C23.2117 24.9538 23.1838 24.7256 23.1904 24.4933V21.216C23.1898 21.167 23.1962 21.1192 23.2097 21.0723C23.2235 21.0254 23.2437 20.9816 23.2701 20.9408C23.2969 20.8999 23.3292 20.8639 23.3666 20.8328C23.404 20.8014 23.4454 20.7764 23.4904 20.7577C23.5353 20.7387 23.5822 20.7269 23.6305 20.722C23.6792 20.7171 23.7276 20.7197 23.7753 20.7292C23.8231 20.7387 23.8686 20.7551 23.9115 20.7784C23.9544 20.8014 23.993 20.8305 24.0272 20.8651C24.0747 20.9111 24.111 20.9644 24.1363 21.0254C24.1616 21.0864 24.1737 21.1498 24.1729 21.216V24.5131C24.1686 24.6513 24.1841 24.7869 24.2198 24.9204C24.2555 25.054 24.3096 25.1795 24.3821 25.297C24.5203 25.5108 24.7048 25.6709 24.9357 25.778C25.0532 25.8315 25.1749 25.8721 25.301 25.8997C25.4271 25.9271 25.5549 25.9409 25.6839 25.9409C25.8128 25.9409 25.9406 25.9271 26.0667 25.8997C26.1928 25.8721 26.3146 25.8315 26.432 25.778C26.6632 25.6709 26.848 25.5103 26.9861 25.2964C27.059 25.1789 27.1128 25.0534 27.1485 24.9199C27.1842 24.7863 27.1997 24.6507 27.1954 24.5125V21.2154C27.1948 21.1664 27.2012 21.1187 27.2147 21.0717C27.2282 21.0251 27.2484 20.9811 27.2752 20.9402C27.3019 20.8993 27.3342 20.8633 27.3716 20.8322C27.409 20.8009 27.4502 20.7758 27.4954 20.7571C27.5403 20.7381 27.5872 20.7263 27.6356 20.7214C27.6842 20.7165 27.7323 20.7191 27.7803 20.7286C27.8281 20.7381 27.8736 20.7545 27.9165 20.7778C27.9594 20.8009 27.998 20.8299 28.0322 20.8645C28.0797 20.9105 28.116 20.9641 28.141 21.0248C28.1664 21.0858 28.1782 21.1495 28.1773 21.2154V24.4904C28.1842 24.7227 28.1563 24.9507 28.0935 25.1743C28.0308 25.3983 27.9361 25.6076 27.8094 25.8024C27.6923 25.9763 27.5538 26.1306 27.3937 26.2659C27.2337 26.4012 27.0584 26.512 26.8675 26.5984C26.4913 26.7717 26.0964 26.8589 25.6821 26.8598ZM23.6749 20.9477C23.6018 20.9457 23.5407 20.9716 23.4912 21.0254C23.4391 21.0784 23.4138 21.1417 23.4155 21.216V24.491C23.4089 24.7005 23.4336 24.906 23.4898 25.1081C23.5459 25.3099 23.6305 25.499 23.7442 25.6752C23.8496 25.8321 23.9742 25.9714 24.1185 26.0935C24.2627 26.2155 24.4207 26.3157 24.5929 26.3937C24.7636 26.4723 24.9409 26.5316 25.1243 26.5716C25.3079 26.6119 25.4936 26.6321 25.6816 26.6321C25.8695 26.6321 26.0552 26.6119 26.2389 26.5716C26.4225 26.5316 26.5995 26.4723 26.7702 26.3937C26.9424 26.3157 27.1007 26.2158 27.2449 26.0935C27.3891 25.9711 27.5138 25.8315 27.6189 25.6746C27.7326 25.4985 27.8172 25.3096 27.8733 25.1078C27.9292 24.9058 27.9536 24.7002 27.947 24.491V21.216C27.949 21.1411 27.9228 21.0781 27.8684 21.0265C27.8566 21.0139 27.8434 21.0027 27.829 20.9926C27.8149 20.9825 27.7996 20.9742 27.7835 20.9672C27.7677 20.9603 27.751 20.9552 27.734 20.9517C27.7167 20.9482 27.6995 20.9465 27.6822 20.9465C27.6646 20.9465 27.6474 20.9482 27.6304 20.9517C27.6131 20.9552 27.5967 20.9603 27.5806 20.9672C27.5645 20.9742 27.5495 20.9825 27.5351 20.9926C27.5207 21.0027 27.5077 21.0139 27.4957 21.0265C27.4435 21.0792 27.4182 21.1428 27.4199 21.2171V24.5143C27.4246 24.6746 27.4058 24.8324 27.3641 24.9872C27.3221 25.1421 27.2585 25.2878 27.1732 25.4239C27.0941 25.5463 26.9994 25.6554 26.8891 25.7512C26.7789 25.8468 26.6577 25.9254 26.5253 25.9867C26.3929 26.0474 26.2555 26.0935 26.1131 26.1246C25.9709 26.1557 25.8266 26.1712 25.681 26.1712C25.5353 26.1712 25.3914 26.1557 25.2489 26.1246C25.1067 26.0935 24.9691 26.0474 24.8367 25.9867C24.7043 25.9257 24.5831 25.8474 24.4731 25.7515C24.3629 25.6559 24.2684 25.5468 24.1893 25.4245C24.1041 25.2883 24.0405 25.1427 23.9984 24.9878C23.9564 24.8329 23.9374 24.6752 23.942 24.5148V21.2177C23.944 21.1428 23.9178 21.0798 23.8637 21.0283C23.8125 20.9739 23.7494 20.9468 23.6749 20.9477Z" fill="#FF5757"/>
<path d="M29.737 26.5973C29.7013 26.5625 29.6742 26.5219 29.6555 26.4758C29.6368 26.4301 29.6279 26.382 29.629 26.3322V21.216C29.6279 21.1654 29.6368 21.1167 29.6555 21.0701C29.6742 21.0232 29.7013 20.9817 29.737 20.946C29.7709 20.9089 29.8112 20.8807 29.8573 20.8608C29.9033 20.841 29.9517 20.8315 30.0018 20.8323C30.0268 20.8323 30.0516 20.8349 30.0763 20.8398C30.1008 20.8447 30.1247 20.8519 30.1477 20.8617C30.1708 20.8712 30.1929 20.883 30.2137 20.8971C30.2344 20.9109 30.2537 20.9267 30.2715 20.9446C30.2891 20.9622 30.3049 20.9814 30.3187 21.0025C30.3328 21.0232 30.3446 21.0451 30.3541 21.0684C30.3636 21.0914 30.3708 21.1153 30.3757 21.1398C30.3806 21.1645 30.3832 21.1893 30.3832 21.2143V26.3308C30.3841 26.3808 30.3746 26.4292 30.3547 26.4753C30.3348 26.5213 30.3066 26.5616 30.2695 26.5956C30.2335 26.6307 30.1923 26.6578 30.1457 26.6765C30.0988 26.6952 30.0504 26.7041 30.0001 26.7035C29.9508 26.7044 29.9033 26.6955 29.8576 26.6771C29.8121 26.6586 29.7718 26.6322 29.737 26.5973Z" fill="#FF5757"/>
<path d="M30.0016 26.819C29.9368 26.8201 29.8747 26.8086 29.8145 26.7839C29.7546 26.7594 29.7019 26.7243 29.6565 26.6779C29.6104 26.6324 29.575 26.5798 29.5505 26.5196C29.5261 26.4597 29.5146 26.3973 29.5157 26.3322V21.216C29.5146 21.1507 29.5261 21.0877 29.5502 21.0272C29.5747 20.9665 29.6095 20.9129 29.6553 20.8663C29.6783 20.8436 29.7034 20.8231 29.7302 20.8053C29.7572 20.7874 29.7854 20.7725 29.8154 20.7601C29.8453 20.7477 29.8761 20.7385 29.9078 20.7322C29.9394 20.7258 29.9717 20.7227 30.0039 20.7227C30.0362 20.7227 30.0684 20.7258 30.1001 20.7322C30.1317 20.7385 30.1625 20.7477 30.1925 20.7601C30.2221 20.7725 30.2506 20.7874 30.2777 20.8053C30.3044 20.8231 30.3295 20.8436 30.3525 20.8663C30.3997 20.9124 30.436 20.9659 30.461 21.0266C30.4864 21.0877 30.4985 21.1513 30.4973 21.2172V26.3334C30.4985 26.399 30.4864 26.4623 30.4608 26.5228C30.4351 26.5832 30.3986 26.6359 30.3508 26.6808C30.3039 26.726 30.2503 26.7605 30.1899 26.7847C30.1294 26.8086 30.0667 26.8198 30.0016 26.819ZM29.8162 26.517C29.8416 26.5415 29.8703 26.5602 29.9032 26.5734C29.9357 26.5864 29.9694 26.593 30.0045 26.593C30.0396 26.593 30.0733 26.5864 30.1058 26.5734C30.1383 26.5602 30.1674 26.5415 30.1928 26.517C30.246 26.4678 30.2716 26.4068 30.2693 26.3339V21.2178C30.2713 21.1429 30.2451 21.0799 30.191 21.0284C30.1726 21.0097 30.1519 20.9938 30.1288 20.9814C30.1058 20.9688 30.0814 20.9599 30.0554 20.9547C30.0298 20.9495 30.0039 20.9483 29.9777 20.9509C29.9515 20.9535 29.9265 20.9599 29.902 20.9702C29.8778 20.9803 29.8557 20.9938 29.8355 21.0108C29.8157 21.0278 29.7984 21.0471 29.784 21.0692C29.7699 21.0914 29.7592 21.115 29.752 21.1403C29.7448 21.1657 29.7417 21.1913 29.7425 21.2178V26.3339C29.7408 26.4056 29.7656 26.4666 29.8162 26.517Z" fill="#FF5757"/>
<path d="M38.713 18.7096H16.5175C16.4803 18.7096 16.4432 18.7058 16.4066 18.6986C16.3701 18.6911 16.3344 18.6805 16.3001 18.6661C16.2656 18.652 16.2328 18.6344 16.2017 18.6137C16.1706 18.593 16.1421 18.5694 16.1156 18.5429C16.0891 18.5164 16.0655 18.4879 16.0448 18.4568C16.0241 18.4257 16.0068 18.3929 15.9924 18.3584C15.978 18.3241 15.9674 18.2884 15.9599 18.2519C15.9527 18.2153 15.9492 18.1782 15.9492 18.141C15.9492 18.1036 15.9527 18.0668 15.9602 18.0299C15.9674 17.9934 15.978 17.958 15.9924 17.9234C16.0068 17.8889 16.0241 17.8561 16.0448 17.8253C16.0655 17.7942 16.0891 17.7654 16.1156 17.7389C16.1421 17.7127 16.1706 17.6891 16.2017 17.6684C16.2328 17.6476 16.2656 17.6301 16.3001 17.6157C16.3344 17.6016 16.3701 17.5906 16.4066 17.5834C16.4432 17.5763 16.4803 17.5725 16.5175 17.5725H38.713C38.7501 17.5725 38.7872 17.5763 38.8238 17.5834C38.8604 17.5906 38.896 17.6016 38.9303 17.6157C38.9648 17.6301 38.9977 17.6476 39.0288 17.6684C39.0598 17.6891 39.0883 17.7127 39.1148 17.7389C39.1413 17.7654 39.1649 17.7942 39.1856 17.8253C39.2064 17.8561 39.2239 17.8889 39.238 17.9234C39.2524 17.958 39.2631 17.9934 39.2706 18.0299C39.2778 18.0668 39.2815 18.1036 39.2815 18.141C39.2815 18.1782 39.2778 18.2153 39.2706 18.2519C39.2631 18.2884 39.2524 18.3241 39.238 18.3584C39.2239 18.3929 39.2064 18.4257 39.1856 18.4568C39.1649 18.4879 39.1413 18.5164 39.1148 18.5429C39.0883 18.5694 39.0598 18.593 39.0288 18.6137C38.9977 18.6344 38.9648 18.652 38.9306 18.6661C38.896 18.6805 38.8604 18.6911 38.8238 18.6986C38.7872 18.7058 38.7501 18.7096 38.713 18.7096Z" fill="#FF5757"/>
<path d="M38.2378 39.8416H16.9963C16.9591 39.8416 16.922 39.8379 16.8854 39.8307C16.8489 39.8235 16.8132 39.8126 16.7786 39.7985C16.7444 39.7841 16.7116 39.7665 16.6805 39.7458C16.6494 39.7251 16.6206 39.7015 16.5944 39.6753C16.5679 39.6488 16.5443 39.62 16.5236 39.5889C16.5029 39.5578 16.4853 39.5253 16.4712 39.4907C16.4568 39.4562 16.4462 39.4208 16.4387 39.3839C16.4315 39.3474 16.4277 39.3105 16.4277 39.2731C16.4277 39.2357 16.4315 39.1988 16.4387 39.1623C16.4462 39.1257 16.4568 39.09 16.4712 39.0555C16.4853 39.0212 16.5029 38.9884 16.5236 38.9573C16.5443 38.9262 16.5679 38.8975 16.5944 38.8713C16.6206 38.8448 16.6494 38.8212 16.6805 38.8004C16.7116 38.7797 16.7444 38.7622 16.7786 38.7481C16.8132 38.7337 16.8489 38.7227 16.8854 38.7155C16.922 38.7083 16.9591 38.7046 16.9963 38.7046H38.2378C38.2749 38.7046 38.3121 38.7083 38.3486 38.7155C38.3852 38.7227 38.4209 38.7337 38.4551 38.7481C38.4897 38.7622 38.5225 38.7797 38.5536 38.8004C38.5847 38.8212 38.6132 38.8448 38.6397 38.8713C38.6661 38.8975 38.6897 38.9262 38.7105 38.9573C38.7312 38.9884 38.7488 39.0212 38.7629 39.0555C38.7773 39.09 38.7879 39.1257 38.7954 39.1623C38.8026 39.1988 38.8063 39.2357 38.8063 39.2731C38.8063 39.3105 38.8026 39.3474 38.7954 39.3839C38.7879 39.4208 38.7773 39.4562 38.7629 39.4907C38.7488 39.5253 38.7312 39.5578 38.7105 39.5889C38.6897 39.62 38.6661 39.6488 38.6397 39.6753C38.6132 39.7015 38.5847 39.7251 38.5536 39.7458C38.5225 39.7665 38.4897 39.7841 38.4551 39.7985C38.4209 39.8126 38.3852 39.8235 38.3486 39.8307C38.3121 39.8379 38.2749 39.8416 38.2378 39.8416Z" fill="#FF5757"/>
<path d="M34.7516 36.9947H20.4826C20.4452 36.9947 20.4083 36.991 20.3718 36.9838C20.3352 36.9766 20.2995 36.9656 20.265 36.9515C20.2307 36.9371 20.1979 36.9196 20.1668 36.8989C20.1357 36.8781 20.1069 36.8545 20.0807 36.828C20.0543 36.8018 20.0306 36.7731 20.0099 36.742C19.9892 36.7109 19.9716 36.6784 19.9575 36.6438C19.9431 36.6093 19.9322 36.5736 19.925 36.537C19.9178 36.5005 19.9141 36.4636 19.9141 36.4262C19.9141 36.3888 19.9178 36.3519 19.925 36.3154C19.9322 36.2788 19.9431 36.2431 19.9575 36.2086C19.9716 36.174 19.9892 36.1415 20.0099 36.1104C20.0306 36.0793 20.0543 36.0505 20.0807 36.0243C20.1069 35.9979 20.1357 35.9742 20.1668 35.9535C20.1979 35.9328 20.2307 35.9152 20.265 35.9008C20.2995 35.8867 20.3352 35.8758 20.3718 35.8686C20.4083 35.8614 20.4452 35.8577 20.4826 35.8577H34.7516C34.789 35.8577 34.8258 35.8614 34.8624 35.8686C34.8989 35.8758 34.9346 35.8867 34.9692 35.9008C35.0037 35.9152 35.0363 35.9328 35.0673 35.9535C35.0984 35.9742 35.1272 35.9979 35.1534 36.0243C35.1799 36.0505 35.2035 36.0793 35.2242 36.1104C35.245 36.1415 35.2625 36.174 35.2769 36.2086C35.291 36.2431 35.302 36.2788 35.3092 36.3154C35.3163 36.3519 35.3201 36.3888 35.3201 36.4262C35.3201 36.4636 35.3163 36.5005 35.3092 36.537C35.302 36.5736 35.291 36.6093 35.2769 36.6438C35.2625 36.6784 35.245 36.7109 35.2242 36.742C35.2035 36.7731 35.1799 36.8018 35.1534 36.828C35.1272 36.8545 35.0984 36.8781 35.0673 36.8989C35.0363 36.9196 35.0037 36.9371 34.9692 36.9515C34.9346 36.9656 34.8989 36.9766 34.8624 36.9838C34.8258 36.991 34.789 36.9947 34.7516 36.9947Z" fill="#FF5757"/>
<path d="M31.7319 34.4831H23.5057C23.4539 34.4831 23.4021 34.4805 23.3506 34.4753C23.2988 34.4701 23.2475 34.4623 23.1966 34.4523C23.1456 34.4419 23.0953 34.4292 23.0457 34.4143C22.9959 34.399 22.9473 34.3817 22.8992 34.3616C22.8514 34.3417 22.8045 34.3196 22.7587 34.2951C22.713 34.2706 22.6684 34.2439 22.6252 34.2151C22.582 34.1863 22.5405 34.1552 22.5002 34.1224C22.4602 34.0893 22.4217 34.0544 22.3851 34.0179C22.3483 33.981 22.3134 33.9428 22.2806 33.9025C22.2475 33.8624 22.2167 33.8207 22.1879 33.7775C22.1588 33.7343 22.1324 33.69 22.1079 33.6442C22.0831 33.5985 22.061 33.5516 22.0411 33.5035C22.0212 33.4557 22.0037 33.4068 21.9887 33.3572C21.9735 33.3074 21.9608 33.2571 21.9507 33.2061C21.9404 33.1555 21.9329 33.1039 21.9277 33.0524C21.9225 33.0006 21.9199 32.9488 21.9199 32.897V30.225C21.9199 30.1732 21.9225 30.1214 21.9277 30.0696C21.9329 30.0181 21.9404 29.9668 21.9507 29.9159C21.9608 29.8649 21.9735 29.8145 21.9887 29.765C22.0037 29.7152 22.0212 29.6666 22.0411 29.6185C22.061 29.5704 22.0831 29.5238 22.1079 29.478C22.1324 29.432 22.1588 29.3876 22.1879 29.3445C22.2167 29.3013 22.2475 29.2595 22.2806 29.2195C22.3134 29.1795 22.3483 29.1409 22.3851 29.1044C22.4217 29.0675 22.4602 29.0327 22.5002 28.9999C22.5405 28.9668 22.582 28.936 22.6252 28.9069C22.6684 28.8781 22.713 28.8514 22.7587 28.8269C22.8045 28.8024 22.8514 28.7803 22.8992 28.7604C22.9473 28.7405 22.9959 28.723 23.0457 28.7077C23.0953 28.6927 23.1456 28.6801 23.1966 28.67C23.2475 28.6596 23.2988 28.6522 23.3506 28.647C23.4021 28.6418 23.4539 28.6392 23.5057 28.6389H31.7319C31.7838 28.6392 31.8356 28.6418 31.8874 28.6467C31.9389 28.6519 31.9902 28.6596 32.0411 28.6697C32.0921 28.6801 32.1424 28.6927 32.192 28.7077C32.2418 28.723 32.2907 28.7402 32.3385 28.7601C32.3865 28.7803 32.4335 28.8024 32.4792 28.8269C32.525 28.8514 32.5693 28.8781 32.6125 28.9069C32.6557 28.9357 32.6974 28.9665 32.7374 28.9996C32.7777 29.0324 32.816 29.0673 32.8529 29.1041C32.8897 29.1409 32.9246 29.1792 32.9574 29.2192C32.9905 29.2595 33.0213 29.3013 33.0501 29.3445C33.0788 29.3876 33.1056 29.432 33.1301 29.4777C33.1546 29.5235 33.1767 29.5704 33.1969 29.6185C33.2167 29.6663 33.234 29.7152 33.2493 29.765C33.2642 29.8145 33.2769 29.8649 33.2873 29.9159C33.2973 29.9668 33.3051 30.0181 33.31 30.0696C33.3152 30.1214 33.3178 30.1732 33.3181 30.225V32.897C33.3178 32.9491 33.3152 33.0006 33.31 33.0524C33.3051 33.1039 33.2973 33.1555 33.2873 33.2064C33.2769 33.2574 33.2642 33.3074 33.2493 33.3572C33.234 33.4068 33.2167 33.4557 33.1969 33.5038C33.1767 33.5516 33.1546 33.5985 33.1301 33.6442C33.1056 33.69 33.0788 33.7346 33.0501 33.7778C33.0213 33.821 32.9905 33.8627 32.9574 33.9027C32.9246 33.9428 32.8897 33.9813 32.8529 34.0179C32.816 34.0547 32.7777 34.0896 32.7374 34.1227C32.6974 34.1555 32.6557 34.1863 32.6125 34.2154C32.5693 34.2441 32.525 34.2709 32.4792 34.2954C32.4335 34.3199 32.3865 34.342 32.3385 34.3619C32.2907 34.3817 32.2418 34.3993 32.192 34.4143C32.1424 34.4295 32.0921 34.4422 32.0411 34.4523C31.9902 34.4623 31.9389 34.4701 31.8874 34.4753C31.8356 34.4805 31.7838 34.4831 31.7319 34.4831ZM23.5057 29.776C23.4764 29.776 23.4473 29.7788 23.4182 29.7846C23.3895 29.7906 23.3612 29.799 23.3342 29.8102C23.3068 29.8217 23.2809 29.8356 23.2565 29.852C23.232 29.8684 23.2093 29.8868 23.1885 29.9078C23.1675 29.9285 23.1491 29.9513 23.1327 29.9757C23.1163 30.0002 23.1025 30.0261 23.0912 30.0535C23.0797 30.0805 23.0714 30.1087 23.0656 30.1375C23.0599 30.1663 23.0567 30.1957 23.0567 30.225V32.897C23.0567 32.9266 23.0599 32.9557 23.0656 32.9845C23.0714 33.0135 23.0797 33.0415 23.0912 33.0688C23.1025 33.0959 23.1163 33.1218 23.1327 33.1462C23.1491 33.171 23.1675 33.1935 23.1885 33.2145C23.2093 33.2352 23.232 33.2539 23.2565 33.2703C23.2809 33.2867 23.3068 33.3005 23.3342 33.3118C23.3612 33.323 23.3895 33.3316 23.4182 33.3374C23.4473 33.3431 23.4764 33.346 23.5057 33.346H31.7319C31.7613 33.346 31.7904 33.3431 31.8195 33.3374C31.8482 33.3316 31.8765 33.323 31.9035 33.3118C31.9309 33.3005 31.9568 33.2867 31.9812 33.2703C32.0057 33.2539 32.0284 33.2352 32.0492 33.2145C32.0702 33.1935 32.0886 33.171 32.105 33.1462C32.1214 33.1218 32.1352 33.0959 32.1468 33.0688C32.158 33.0415 32.1663 33.0135 32.1721 32.9845C32.1781 32.9557 32.181 32.9266 32.181 32.897V30.225C32.181 30.1957 32.1781 30.1663 32.1721 30.1375C32.1663 30.1087 32.158 30.0805 32.1468 30.0535C32.1352 30.0261 32.1214 30.0002 32.105 29.9757C32.0886 29.9513 32.0702 29.9285 32.0492 29.9078C32.0284 29.8868 32.0057 29.8684 31.9812 29.852C31.9568 29.8356 31.9309 29.8217 31.9035 29.8102C31.8765 29.799 31.8482 29.7906 31.8195 29.7846C31.7904 29.7788 31.7613 29.776 31.7319 29.776H23.5057Z" fill="#FF5757"/>
<path d="M48.2067 13.3348H38.7131C38.6756 13.3348 38.6388 13.3313 38.6019 13.3238C38.5654 13.3166 38.53 13.306 38.4954 13.2916C38.4609 13.2772 38.4281 13.2599 38.3973 13.2389C38.3662 13.2182 38.3374 13.1949 38.3109 13.1684C38.2847 13.1419 38.2611 13.1131 38.2404 13.0823C38.2197 13.0512 38.2021 13.0184 38.1877 12.9839C38.1736 12.9493 38.1627 12.9139 38.1555 12.8773C38.1483 12.8408 38.1445 12.8037 38.1445 12.7662C38.1445 12.7291 38.1483 12.692 38.1555 12.6554C38.1627 12.6189 38.1736 12.5834 38.1877 12.5489C38.2021 12.5144 38.2197 12.4815 38.2404 12.4505C38.2611 12.4194 38.2847 12.3909 38.3109 12.3644C38.3374 12.3379 38.3662 12.3143 38.3973 12.2936C38.4281 12.2728 38.4609 12.2556 38.4954 12.2412C38.53 12.2268 38.5654 12.2161 38.6019 12.2089C38.6388 12.2015 38.6756 12.198 38.7131 12.198H48.2067C48.2441 12.198 48.281 12.2015 48.3175 12.2089C48.3541 12.2161 48.3898 12.2268 48.4243 12.2412C48.4586 12.2556 48.4914 12.2728 48.5225 12.2936C48.5536 12.3143 48.5824 12.3379 48.6086 12.3644C48.635 12.3909 48.6586 12.4194 48.6794 12.4505C48.7001 12.4815 48.7177 12.5144 48.7318 12.5489C48.7462 12.5834 48.7568 12.6189 48.7643 12.6554C48.7715 12.692 48.7752 12.7291 48.7752 12.7662C48.7752 12.8037 48.7715 12.8408 48.7643 12.8773C48.7568 12.9139 48.7462 12.9493 48.7318 12.9839C48.7177 13.0184 48.7001 13.0512 48.6794 13.0823C48.6586 13.1131 48.635 13.1419 48.6086 13.1684C48.5824 13.1949 48.5536 13.2182 48.5225 13.2389C48.4914 13.2599 48.4586 13.2772 48.4243 13.2916C48.3898 13.306 48.3541 13.3166 48.3175 13.3238C48.281 13.3313 48.2441 13.3348 48.2067 13.3348Z" fill="#FF5757"/>
<path d="M55.1446 16.8037H48.2092C48.1717 16.8037 48.1349 16.7999 48.0983 16.7927C48.0615 16.7855 48.0261 16.7746 47.9915 16.7605C47.957 16.7461 47.9245 16.7286 47.8934 16.7078C47.8623 16.6871 47.8335 16.6635 47.807 16.637C47.7808 16.6108 47.7572 16.582 47.7365 16.5509C47.7158 16.5199 47.6982 16.4873 47.6838 16.4528C47.6697 16.4182 47.6588 16.3825 47.6516 16.346C47.6444 16.3094 47.6406 16.2726 47.6406 16.2352V9.29973C47.6406 9.2623 47.6444 9.22546 47.6516 9.18861C47.6588 9.15205 47.6697 9.11665 47.6838 9.0821C47.6982 9.04756 47.7158 9.01474 47.7365 8.98394C47.7572 8.95285 47.7808 8.92407 47.807 8.89758C47.8335 8.87139 47.8623 8.84778 47.8934 8.82706C47.9245 8.80633 47.957 8.78877 47.9915 8.77438C48.0261 8.76028 48.0615 8.74934 48.0983 8.74214C48.1349 8.73494 48.1717 8.7312 48.2092 8.7312H55.1446C55.182 8.7312 55.2189 8.73494 55.2554 8.74214C55.2923 8.74934 55.3277 8.76028 55.3622 8.77438C55.3967 8.78877 55.4293 8.80633 55.4604 8.82706C55.4915 8.84778 55.5202 8.87139 55.5467 8.89758C55.5729 8.92407 55.5965 8.95285 55.6173 8.98394C55.638 9.01474 55.6555 9.04756 55.6699 9.0821C55.684 9.11665 55.695 9.15205 55.7022 9.18861C55.7094 9.22546 55.7131 9.2623 55.7131 9.29973V16.2352C55.7131 16.2726 55.7094 16.3094 55.7022 16.346C55.695 16.3825 55.684 16.4182 55.6699 16.4528C55.6555 16.4873 55.638 16.5199 55.6173 16.5509C55.5965 16.582 55.5729 16.6108 55.5467 16.637C55.5202 16.6635 55.4915 16.6871 55.4604 16.7078C55.4293 16.7286 55.3967 16.7461 55.3622 16.7605C55.3277 16.7746 55.2923 16.7855 55.2554 16.7927C55.2189 16.7999 55.182 16.8037 55.1446 16.8037ZM48.7777 15.6666H54.5761V9.86825H48.7777V15.6666Z" fill="#FF5757"/>
<path d="M53.1219 12.3219H50.2228C50.1854 12.3219 50.1486 12.3181 50.1117 12.3109C50.0751 12.3037 50.0397 12.2928 50.0052 12.2787C49.9707 12.2643 49.9378 12.2467 49.9068 12.226C49.8759 12.2053 49.8472 12.1817 49.8207 12.1555C49.7945 12.129 49.7709 12.1002 49.7502 12.0691C49.7294 12.0383 49.7119 12.0055 49.6975 11.971C49.6831 11.9364 49.6724 11.901 49.6652 11.8645C49.6578 11.8276 49.6543 11.7908 49.6543 11.7533C49.6543 11.7162 49.6578 11.6791 49.6652 11.6425C49.6724 11.606 49.6834 11.5703 49.6975 11.5357C49.7119 11.5015 49.7294 11.4686 49.7502 11.4376C49.7709 11.4065 49.7945 11.3777 49.8207 11.3515C49.8472 11.325 49.8759 11.3014 49.9068 11.2807C49.9378 11.2599 49.9707 11.2424 50.0052 11.2283C50.0397 11.2139 50.0751 11.2032 50.1117 11.1958C50.1486 11.1886 50.1854 11.1848 50.2228 11.1848H53.1219C53.1593 11.1848 53.1961 11.1886 53.233 11.1958C53.2695 11.2032 53.3049 11.2139 53.3395 11.2283C53.374 11.2424 53.4069 11.2599 53.4379 11.2807C53.4687 11.3014 53.4975 11.325 53.524 11.3515C53.5505 11.3777 53.5738 11.4065 53.5945 11.4376C53.6153 11.4686 53.6328 11.5015 53.6472 11.5357C53.6616 11.5703 53.6723 11.606 53.6795 11.6425C53.6869 11.6791 53.6904 11.7162 53.6904 11.7533C53.6904 11.7908 53.6869 11.8276 53.6795 11.8645C53.6723 11.901 53.6616 11.9364 53.6472 11.971C53.6328 12.0055 53.6153 12.0383 53.5945 12.0691C53.5738 12.1002 53.5505 12.129 53.524 12.1555C53.4975 12.1817 53.4687 12.2053 53.4379 12.226C53.4069 12.2467 53.374 12.2643 53.3395 12.2787C53.3049 12.2928 53.2695 12.3037 53.233 12.3109C53.1964 12.3181 53.1593 12.3219 53.1219 12.3219Z" fill="#FF5757"/>
<path d="M53.1219 14.3484H50.2228C50.1854 14.3484 50.1486 14.345 50.1117 14.3378C50.0751 14.3303 50.0397 14.3196 50.0052 14.3053C49.9707 14.2911 49.9378 14.2736 49.9068 14.2529C49.8759 14.2321 49.8472 14.2085 49.8207 14.182C49.7945 14.1556 49.7709 14.1271 49.7502 14.096C49.7294 14.0649 49.7119 14.0321 49.6975 13.9975C49.6831 13.9633 49.6724 13.9276 49.6652 13.891C49.6578 13.8545 49.6543 13.8173 49.6543 13.7802C49.6543 13.7428 49.6578 13.7059 49.6652 13.6691C49.6724 13.6325 49.6834 13.5971 49.6975 13.5626C49.7119 13.528 49.7294 13.4952 49.7502 13.4641C49.7709 13.4333 49.7945 13.4045 49.8207 13.3781C49.8472 13.3516 49.8759 13.3283 49.9068 13.3075C49.9378 13.2868 49.9707 13.2692 50.0052 13.2548C50.0397 13.2405 50.0751 13.2298 50.1117 13.2226C50.1486 13.2151 50.1854 13.2117 50.2228 13.2117H53.1219C53.1593 13.2117 53.1961 13.2151 53.233 13.2226C53.2695 13.2298 53.3049 13.2405 53.3395 13.2548C53.374 13.2692 53.4069 13.2868 53.4379 13.3075C53.4687 13.3283 53.4975 13.3516 53.524 13.3781C53.5505 13.4045 53.5738 13.4333 53.5945 13.4641C53.6153 13.4952 53.6328 13.528 53.6472 13.5626C53.6616 13.5971 53.6723 13.6325 53.6795 13.6691C53.6869 13.7059 53.6904 13.7428 53.6904 13.7802C53.6904 13.8173 53.6869 13.8545 53.6795 13.891C53.6723 13.9276 53.6616 13.9633 53.6472 13.9975C53.6328 14.0321 53.6153 14.0649 53.5945 14.096C53.5738 14.1271 53.5505 14.1556 53.524 14.182C53.4975 14.2085 53.4687 14.2321 53.4379 14.2529C53.4069 14.2736 53.374 14.2911 53.3395 14.3053C53.3049 14.3196 53.2695 14.3303 53.233 14.3378C53.1964 14.345 53.1593 14.3484 53.1219 14.3484Z" fill="#FF5757"/>
<path d="M16.9977 24.2071H7.50407C7.46665 24.2071 7.4298 24.2036 7.39325 24.1961C7.35669 24.1889 7.32099 24.1783 7.28645 24.1639C7.25219 24.1495 7.21938 24.1322 7.18829 24.1115C7.1572 24.0908 7.12841 24.0672 7.10222 24.0407C7.07574 24.0142 7.05213 23.9857 7.0314 23.9546C7.01068 23.9235 6.99312 23.8907 6.97901 23.8562C6.96462 23.8219 6.95368 23.7862 6.94649 23.7497C6.93929 23.7131 6.93555 23.676 6.93555 23.6388C6.93555 23.6014 6.93929 23.5643 6.94649 23.5277C6.95368 23.4912 6.96462 23.4558 6.97901 23.4212C6.99312 23.3867 7.01068 23.3539 7.0314 23.3228C7.05213 23.292 7.07574 23.2632 7.10222 23.2367C7.12841 23.2102 7.1572 23.1869 7.18829 23.1662C7.21938 23.1454 7.25219 23.1279 7.28645 23.1135C7.32099 23.0991 7.35669 23.0884 7.39325 23.0813C7.4298 23.0738 7.46665 23.0703 7.50407 23.0703H16.9977C17.0351 23.0703 17.072 23.0738 17.1085 23.0813C17.1454 23.0884 17.1808 23.0991 17.2153 23.1135C17.2499 23.1279 17.2827 23.1454 17.3135 23.1662C17.3446 23.1869 17.3734 23.2102 17.3999 23.2367C17.4261 23.2632 17.4497 23.292 17.4704 23.3228C17.4911 23.3539 17.5087 23.3867 17.5231 23.4212C17.5372 23.4558 17.5481 23.4912 17.5553 23.5277C17.5625 23.5643 17.5662 23.6014 17.5662 23.6388C17.5662 23.676 17.5625 23.7131 17.5553 23.7497C17.5481 23.7862 17.5372 23.8219 17.5231 23.8562C17.5087 23.8907 17.4911 23.9235 17.4704 23.9546C17.4497 23.9857 17.4261 24.0142 17.3999 24.0407C17.3734 24.0672 17.3446 24.0908 17.3135 24.1115C17.2827 24.1322 17.2499 24.1495 17.2153 24.1639C17.1808 24.1783 17.1454 24.1889 17.1085 24.1961C17.072 24.2036 17.0351 24.2071 16.9977 24.2071Z" fill="#FF5757"/>
<path d="M7.50396 27.6762H0.568525C0.531103 27.6762 0.494257 27.6725 0.457699 27.6653C0.420853 27.6581 0.385446 27.6472 0.350902 27.6331C0.316359 27.6187 0.283831 27.6011 0.252742 27.5804C0.221653 27.5597 0.192867 27.5361 0.166384 27.5099C0.140188 27.4834 0.116584 27.4546 0.0958577 27.4235C0.0751317 27.3927 0.0575721 27.3599 0.0431791 27.3253C0.0290739 27.2908 0.0181352 27.2554 0.0109387 27.2185C0.00374214 27.182 0 27.1451 0 27.1077V20.1723C0 20.1349 0.00374214 20.098 0.0109387 20.0615C0.0181352 20.0246 0.0290739 19.9892 0.0431791 19.9547C0.0575721 19.9201 0.0751317 19.8876 0.0958577 19.8565C0.116584 19.8254 0.140188 19.7966 0.166384 19.7701C0.192867 19.7439 0.221653 19.7203 0.252742 19.6996C0.283831 19.6789 0.316359 19.6613 0.350902 19.6469C0.385446 19.6328 0.420853 19.6219 0.457699 19.6147C0.494257 19.6075 0.531103 19.6038 0.568525 19.6038H7.50396C7.54138 19.6038 7.57823 19.6075 7.61478 19.6147C7.65163 19.6219 7.68704 19.6328 7.72158 19.6469C7.75612 19.6613 7.78865 19.6789 7.81974 19.6996C7.85083 19.7203 7.87962 19.7439 7.9061 19.7701C7.93229 19.7966 7.9559 19.8254 7.97663 19.8565C7.99735 19.8876 8.01491 19.9201 8.0293 19.9547C8.04341 19.9892 8.05435 20.0246 8.06154 20.0615C8.06874 20.098 8.07248 20.1349 8.07248 20.1723V27.1077C8.07248 27.1451 8.06874 27.182 8.06154 27.2185C8.05435 27.2554 8.04341 27.2908 8.0293 27.3253C8.01491 27.3599 7.99735 27.3927 7.97663 27.4235C7.9559 27.4546 7.93229 27.4834 7.9061 27.5099C7.87962 27.5361 7.85083 27.5597 7.81974 27.5804C7.78865 27.6011 7.75612 27.6187 7.72158 27.6331C7.68704 27.6472 7.65163 27.6581 7.61478 27.6653C7.57823 27.6725 7.54138 27.6762 7.50396 27.6762ZM1.13705 26.5392H6.93543V20.7408H1.13705V26.5392Z" fill="#FF5757"/>
<path d="M5.70405 23.1934H2.37321C2.33579 23.1934 2.29894 23.1899 2.26239 23.1825C2.22583 23.1753 2.19013 23.1646 2.15559 23.1502C2.12133 23.1358 2.08852 23.1183 2.05743 23.0975C2.02634 23.0768 1.99755 23.0535 1.97136 23.027C1.94488 23.0005 1.92127 22.9718 1.90055 22.9409C1.87982 22.9099 1.86226 22.877 1.84815 22.8425C1.83376 22.808 1.82282 22.7726 1.81563 22.736C1.80843 22.6994 1.80469 22.6623 1.80469 22.6249C1.80469 22.5877 1.80843 22.5506 1.81563 22.5141C1.82282 22.4775 1.83376 22.4418 1.84815 22.4075C1.86226 22.373 1.87982 22.3402 1.90055 22.3091C1.92127 22.278 1.94488 22.2495 1.97136 22.223C1.99755 22.1965 2.02634 22.1729 2.05743 22.1522C2.08852 22.1315 2.12133 22.1142 2.15559 22.0998C2.19013 22.0854 2.22583 22.0748 2.26239 22.0676C2.29894 22.0601 2.33579 22.0566 2.37321 22.0566H5.70405C5.74119 22.0566 5.77832 22.0601 5.81488 22.0676C5.85144 22.0748 5.88713 22.0854 5.92167 22.0998C5.95593 22.1139 5.98875 22.1315 6.01983 22.1522C6.05092 22.1729 6.07971 22.1965 6.1059 22.223C6.13239 22.2495 6.15599 22.278 6.17672 22.3091C6.19744 22.3402 6.215 22.373 6.22911 22.4075C6.2435 22.4418 6.25415 22.4775 6.26164 22.5141C6.26883 22.5506 6.27258 22.5877 6.27258 22.6249C6.27258 22.6623 6.26883 22.6994 6.26164 22.736C6.25415 22.7726 6.2435 22.808 6.22911 22.8425C6.215 22.877 6.19744 22.9099 6.17672 22.9409C6.15599 22.9718 6.13239 23.0005 6.1059 23.027C6.07971 23.0535 6.05092 23.0768 6.01983 23.0975C5.98875 23.1183 5.95593 23.1358 5.92167 23.1502C5.88713 23.1646 5.85144 23.1753 5.81488 23.1825C5.77832 23.1899 5.74119 23.1934 5.70405 23.1934Z" fill="#FF5757"/>
<path d="M5.70405 25.2208H2.37321C2.33579 25.2208 2.29894 25.217 2.26239 25.2099C2.22583 25.2024 2.19013 25.1917 2.15559 25.1773C2.12133 25.1632 2.08852 25.1457 2.05743 25.1249C2.02634 25.1042 1.99755 25.0806 1.97136 25.0541C1.94488 25.0276 1.92127 24.9991 1.90055 24.968C1.87982 24.937 1.86226 24.9041 1.84815 24.8696C1.83376 24.8353 1.82282 24.7997 1.81563 24.7631C1.80843 24.7265 1.80469 24.6894 1.80469 24.6523C1.80469 24.6148 1.80843 24.578 1.81563 24.5412C1.82282 24.5046 1.83376 24.4692 1.84815 24.4346C1.86226 24.4001 1.87982 24.3673 1.90055 24.3365C1.92127 24.3054 1.94488 24.2766 1.97136 24.2501C1.99755 24.2239 2.02634 24.2003 2.05743 24.1796C2.08852 24.1589 2.12133 24.1413 2.15559 24.1269C2.19013 24.1128 2.22583 24.1019 2.26239 24.0947C2.29894 24.0875 2.33579 24.0837 2.37321 24.0837H5.70405C5.74119 24.0837 5.77832 24.0875 5.81488 24.0947C5.85144 24.1019 5.88713 24.1128 5.92167 24.1269C5.95593 24.1413 5.98875 24.1589 6.01983 24.1796C6.05092 24.2003 6.07971 24.2239 6.1059 24.2501C6.13239 24.2766 6.15599 24.3054 6.17672 24.3365C6.19744 24.3673 6.215 24.4001 6.22911 24.4346C6.2435 24.4692 6.25415 24.5046 6.26164 24.5412C6.26883 24.578 6.27258 24.6148 6.27258 24.6523C6.27258 24.6894 6.26883 24.7265 6.26164 24.7631C6.25415 24.7997 6.2435 24.8353 6.22911 24.8696C6.215 24.9041 6.19744 24.937 6.17672 24.968C6.15599 24.9991 6.13239 25.0276 6.1059 25.0541C6.07971 25.0806 6.05092 25.1042 6.01983 25.1249C5.98875 25.1457 5.95593 25.1632 5.92167 25.1773C5.88713 25.1917 5.85144 25.2024 5.81488 25.2099C5.77832 25.217 5.74119 25.2208 5.70405 25.2208Z" fill="#FF5757"/>
</svg>
