<svg xmlns="http://www.w3.org/2000/svg" xmlns:xlink="http://www.w3.org/1999/xlink" width="50" zoomAndPan="magnify" viewBox="0 0 37.5 37.499999" height="50" preserveAspectRatio="xMidYMid meet" version="1.0"><defs><clipPath id="9c24289e3c"><path d="M 1.101562 0.863281 L 35.875 0.863281 L 35.875 35.648438 L 1.101562 35.648438 Z M 1.101562 0.863281 " clip-rule="nonzero"/></clipPath></defs><g clip-path="url(#9c24289e3c)"><path fill="#ffffff" d="M 2.894531 20.789062 L 1.378906 20.789062 C 1.277344 20.789062 1.1875 20.734375 1.136719 20.648438 C 1.089844 20.558594 1.089844 20.453125 1.144531 20.371094 L 2.722656 17.8125 C 2.984375 10.351562 8.394531 4.191406 15.503906 2.773438 L 15.503906 1.148438 C 15.503906 1.046875 15.558594 0.957031 15.644531 0.90625 C 15.730469 0.859375 15.835938 0.863281 15.921875 0.914062 L 18.441406 2.46875 C 18.503906 2.46875 18.5625 2.46875 18.625 2.46875 C 26.085938 2.46875 32.351562 7.613281 34.070312 14.542969 L 35.921875 14.542969 C 36.019531 14.542969 36.113281 14.597656 36.160156 14.683594 C 36.210938 14.773438 36.207031 14.878906 36.15625 14.960938 L 34.519531 17.613281 C 34.53125 17.867188 34.539062 18.125 34.539062 18.382812 C 34.539062 26.09375 29.035156 32.535156 21.746094 33.988281 L 21.746094 35.554688 C 21.746094 35.652344 21.691406 35.742188 21.605469 35.792969 C 21.519531 35.839844 21.414062 35.839844 21.328125 35.785156 L 18.90625 34.292969 C 18.8125 34.292969 18.71875 34.292969 18.625 34.292969 C 10.660156 34.292969 4.054688 28.429688 2.894531 20.789062 Z M 3.226562 18.039062 L 1.867188 20.238281 L 3.128906 20.238281 C 3.265625 20.238281 3.382812 20.339844 3.402344 20.476562 C 4.398438 27.765625 10.511719 33.433594 18 33.734375 L 15.632812 32.273438 C 15.550781 32.226562 15.503906 32.136719 15.503906 32.042969 C 15.503906 31.945312 15.550781 31.859375 15.632812 31.808594 L 16.921875 31.015625 C 11.40625 30.277344 7.003906 26.007812 6.0625 20.558594 C 6.0625 20.542969 6.058594 20.527344 6.058594 20.511719 C 6.058594 20.378906 6.15625 20.265625 6.289062 20.242188 C 6.304688 20.242188 6.320312 20.238281 6.335938 20.238281 C 6.335938 20.238281 7.910156 20.238281 7.910156 20.238281 L 4.886719 15.339844 L 3.226562 18.035156 C 3.226562 18.035156 3.226562 18.035156 3.226562 18.039062 Z M 15.828125 3.269531 C 9.183594 4.496094 4.03125 9.996094 3.339844 16.808594 L 4.65625 14.675781 C 4.707031 14.59375 4.792969 14.542969 4.886719 14.542969 C 4.984375 14.542969 5.070312 14.59375 5.121094 14.675781 L 6.070312 16.214844 C 6.964844 11.1875 10.882812 6.949219 15.722656 5.945312 C 15.738281 5.941406 15.757812 5.9375 15.777344 5.9375 C 15.90625 5.9375 16.019531 6.03125 16.046875 6.15625 C 16.050781 6.175781 16.050781 6.195312 16.050781 6.210938 C 16.050781 6.210938 16.050781 7.679688 16.050781 7.679688 L 20.949219 4.660156 L 16.050781 1.640625 L 16.050781 3 C 16.050781 3.132812 15.957031 3.246094 15.828125 3.269531 Z M 19.359375 3.035156 L 21.617188 4.425781 C 21.695312 4.476562 21.746094 4.5625 21.746094 4.660156 C 21.746094 4.753906 21.695312 4.84375 21.617188 4.890625 L 20.246094 5.738281 C 25.292969 6.378906 29.421875 9.976562 30.84375 14.742188 C 30.851562 14.765625 30.855469 14.792969 30.855469 14.820312 C 30.855469 14.941406 30.773438 15.046875 30.65625 15.082031 C 30.632812 15.089844 30.605469 15.09375 30.578125 15.09375 L 29.390625 15.09375 L 32.410156 19.992188 L 35.429688 15.09375 L 33.855469 15.09375 C 33.726562 15.09375 33.617188 15.003906 33.589844 14.882812 C 32.054688 8.316406 26.308594 3.359375 19.359375 3.035156 Z M 19.476562 6.210938 L 15.921875 8.402344 C 15.835938 8.457031 15.730469 8.457031 15.644531 8.410156 C 15.558594 8.363281 15.503906 8.269531 15.503906 8.171875 L 15.503906 6.554688 C 10.832031 7.683594 7.128906 11.976562 6.515625 16.9375 L 8.632812 20.371094 C 8.6875 20.453125 8.6875 20.558594 8.640625 20.648438 C 8.589844 20.734375 8.5 20.789062 8.398438 20.789062 L 6.664062 20.789062 C 7.722656 26.070312 12.199219 30.125 17.683594 30.542969 L 21.328125 28.296875 C 21.414062 28.246094 21.519531 28.242188 21.605469 28.289062 C 21.691406 28.339844 21.746094 28.429688 21.746094 28.53125 L 21.746094 30.175781 C 26.941406 28.800781 30.785156 24.078125 30.820312 18.460938 L 28.664062 14.960938 C 28.613281 14.878906 28.609375 14.773438 28.660156 14.683594 C 28.707031 14.597656 28.796875 14.542969 28.898438 14.542969 L 30.207031 14.542969 C 28.683594 9.945312 24.496094 6.558594 19.476562 6.210938 Z M 33.988281 18.472656 L 32.644531 20.65625 C 32.59375 20.738281 32.503906 20.789062 32.410156 20.789062 C 32.316406 20.789062 32.226562 20.738281 32.175781 20.65625 L 31.339844 19.296875 C 30.945312 24.820312 27.027344 29.375 21.824219 30.722656 C 21.820312 30.722656 21.8125 30.722656 21.808594 30.726562 L 21.523438 30.78125 C 21.445312 30.796875 21.359375 30.777344 21.296875 30.722656 C 21.234375 30.671875 21.199219 30.59375 21.199219 30.511719 L 21.199219 29.019531 L 16.300781 32.042969 L 21.199219 35.0625 L 21.199219 33.761719 C 21.199219 33.628906 21.292969 33.515625 21.421875 33.492188 C 28.539062 32.179688 33.945312 25.957031 33.988281 18.472656 Z M 13.023438 14.746094 L 10.160156 13.542969 C 10.058594 13.5 9.992188 13.398438 9.992188 13.289062 C 9.992188 13.179688 10.058594 13.078125 10.160156 13.035156 L 18.15625 9.675781 C 18.222656 9.644531 18.300781 9.644531 18.367188 9.675781 L 26.363281 13.035156 C 26.464844 13.078125 26.53125 13.179688 26.53125 13.289062 C 26.53125 13.34375 26.515625 13.394531 26.484375 13.441406 L 26.484375 16.402344 C 26.957031 16.503906 27.308594 16.925781 27.308594 17.425781 L 27.308594 18.738281 C 27.308594 18.890625 27.183594 19.011719 27.03125 19.011719 L 25.480469 19.011719 C 25.328125 19.011719 25.207031 18.890625 25.207031 18.738281 L 25.207031 17.820312 C 24.699219 19.21875 25.332031 19.957031 25.332031 19.957031 C 25.382812 20.015625 25.40625 20.09375 25.398438 20.171875 C 25.394531 20.207031 25.382812 20.246094 25.363281 20.277344 C 25 20.910156 24.832031 21.546875 24.902344 21.996094 C 24.9375 22.199219 25.019531 22.355469 25.195312 22.402344 C 25.292969 22.425781 25.371094 22.503906 25.394531 22.601562 C 25.417969 22.703125 25.382812 22.808594 25.304688 22.875 L 21.324219 26.3125 C 21.273438 26.355469 21.210938 26.378906 21.144531 26.378906 L 12.425781 26.378906 C 12.351562 26.378906 12.28125 26.351562 12.230469 26.296875 C 11.71875 25.789062 11.449219 25.261719 11.433594 24.726562 C 11.421875 24.253906 11.609375 23.765625 12.046875 23.269531 C 11.652344 22.820312 11.445312 22.359375 11.433594 21.890625 C 11.421875 21.355469 11.664062 20.800781 12.230469 20.238281 C 12.253906 20.21875 12.277344 20.203125 12.300781 20.1875 L 15.335938 18.664062 C 14.75 18.460938 14.171875 18.195312 13.597656 17.863281 C 13.242188 17.660156 13.023438 17.28125 13.023438 16.871094 C 13.023438 16.328125 13.023438 15.441406 13.023438 14.746094 Z M 24.898438 13.015625 L 18.261719 10.226562 L 10.972656 13.289062 L 13.398438 14.308594 C 13.402344 14.308594 13.402344 14.3125 13.40625 14.3125 L 18.261719 16.351562 L 23.113281 14.3125 C 23.117188 14.3125 23.121094 14.308594 23.125 14.308594 L 24.898438 13.5625 L 18.261719 13.5625 C 18.109375 13.5625 17.988281 13.441406 17.988281 13.289062 C 17.988281 13.136719 18.109375 13.015625 18.261719 13.015625 Z M 25.9375 16.425781 C 25.9375 15.832031 25.9375 14.230469 25.9375 13.71875 L 23.5 14.746094 L 23.5 16.847656 C 23.5 16.910156 23.496094 16.972656 23.484375 17.03125 L 25.125 17.03125 C 25.167969 17.03125 25.207031 17.042969 25.246094 17.058594 C 25.253906 17.0625 25.261719 17.066406 25.269531 17.070312 C 25.378906 16.765625 25.625 16.523438 25.9375 16.425781 Z M 24.480469 20.945312 L 20.960938 23.46875 C 20.648438 23.867188 20.515625 24.226562 20.527344 24.558594 C 20.539062 25.003906 20.800781 25.390625 21.152344 25.734375 C 21.902344 25.089844 24.65625 22.710938 24.65625 22.710938 C 24.503906 22.558594 24.40625 22.34375 24.363281 22.082031 C 24.3125 21.765625 24.351562 21.371094 24.480469 20.945312 Z M 20.792969 22.914062 C 21.597656 22.335938 24.75 20.074219 24.75 20.074219 C 24.558594 19.734375 24.304688 19.050781 24.558594 18.050781 L 20.960938 20.636719 C 20.554688 21.148438 20.363281 21.601562 20.375 22.011719 C 20.386719 22.34375 20.539062 22.640625 20.792969 22.914062 Z M 12.539062 23.542969 C 12.15625 23.945312 11.972656 24.328125 11.980469 24.714844 C 11.992188 25.09375 12.195312 25.464844 12.539062 25.832031 C 13.527344 25.832031 20.5 25.832031 20.5 25.832031 C 20.191406 25.449219 19.992188 25.03125 19.976562 24.574219 C 19.96875 24.253906 20.046875 23.910156 20.253906 23.542969 C 18.96875 23.542969 13.824219 23.542969 12.539062 23.542969 Z M 13.582031 20.160156 L 20.679688 20.160156 L 24.273438 17.582031 L 23.234375 17.582031 C 23.140625 17.695312 23.027344 17.789062 22.890625 17.859375 C 20.550781 19.105469 18.289062 19.441406 16.101562 18.894531 Z M 20.15625 22.996094 C 19.953125 22.695312 19.839844 22.375 19.828125 22.027344 C 19.816406 21.628906 19.941406 21.1875 20.238281 20.707031 C 20.238281 20.707031 12.539062 20.707031 12.539062 20.707031 C 12.15625 21.109375 11.972656 21.496094 11.980469 21.878906 C 11.992188 22.261719 12.195312 22.628906 12.539062 22.996094 C 13.808594 22.996094 18.886719 22.996094 20.15625 22.996094 Z M 13.570312 14.976562 C 13.570312 15.628906 13.570312 16.386719 13.570312 16.871094 C 13.570312 17.085938 13.683594 17.28125 13.871094 17.386719 C 16.65625 18.992188 19.570312 19 22.632812 17.375 C 22.828125 17.273438 22.953125 17.070312 22.953125 16.847656 L 22.953125 14.976562 L 18.367188 16.902344 C 18.300781 16.929688 18.222656 16.929688 18.15625 16.902344 Z M 26.257812 16.925781 C 25.980469 16.925781 25.753906 17.148438 25.753906 17.425781 C 25.753906 17.425781 25.753906 18.464844 25.753906 18.464844 L 26.757812 18.464844 L 26.757812 17.425781 C 26.757812 17.148438 26.535156 16.925781 26.257812 16.925781 Z M 26.257812 16.925781 " fill-opacity="1" fill-rule="evenodd"/></g></svg>