<svg xmlns="http://www.w3.org/2000/svg" xmlns:xlink="http://www.w3.org/1999/xlink" width="50" zoomAndPan="magnify" viewBox="0 0 37.5 37.499999" height="50" preserveAspectRatio="xMidYMid meet" version="1.0"><defs><clipPath id="711d77016f"><path d="M 1.867188 6 L 12 6 L 12 12 L 1.867188 12 Z M 1.867188 6 " clip-rule="nonzero"/></clipPath><clipPath id="30b0daf5fc"><path d="M 1.867188 30 L 12 30 L 12 36.265625 L 1.867188 36.265625 Z M 1.867188 30 " clip-rule="nonzero"/></clipPath><clipPath id="280edc1e62"><path d="M 3 33 L 5 33 L 5 36.265625 L 3 36.265625 Z M 3 33 " clip-rule="nonzero"/></clipPath><clipPath id="563e5899fc"><path d="M 9 33 L 10 33 L 10 36.265625 L 9 36.265625 Z M 9 33 " clip-rule="nonzero"/></clipPath><clipPath id="8686f16c4b"><path d="M 26 6 L 35.914062 6 L 35.914062 12 L 26 12 Z M 26 6 " clip-rule="nonzero"/></clipPath><clipPath id="742d7bb906"><path d="M 26 30 L 35.914062 30 L 35.914062 36.265625 L 26 36.265625 Z M 26 30 " clip-rule="nonzero"/></clipPath><clipPath id="1c3b11fb9e"><path d="M 33 33 L 35 33 L 35 36.265625 L 33 36.265625 Z M 33 33 " clip-rule="nonzero"/></clipPath><clipPath id="18f1df8ded"><path d="M 27 33 L 29 33 L 29 36.265625 L 27 36.265625 Z M 27 33 " clip-rule="nonzero"/></clipPath></defs><path fill="#ffffff" d="M 18.902344 21.871094 C 15.175781 21.871094 12.257812 20.296875 12.257812 18.285156 C 12.257812 16.273438 15.175781 14.695312 18.902344 14.695312 C 22.628906 14.695312 25.546875 16.273438 25.546875 18.285156 C 25.546875 20.296875 22.628906 21.871094 18.902344 21.871094 Z M 18.902344 15.625 C 17.328125 15.625 15.851562 15.933594 14.746094 16.492188 C 13.753906 16.992188 13.1875 17.644531 13.1875 18.285156 C 13.1875 18.921875 13.753906 19.578125 14.746094 20.078125 C 15.851562 20.636719 17.328125 20.945312 18.902344 20.945312 C 20.476562 20.945312 21.953125 20.636719 23.0625 20.078125 C 24.050781 19.578125 24.621094 18.921875 24.621094 18.285156 C 24.621094 17.644531 24.050781 16.992188 23.0625 16.492188 C 21.953125 15.933594 20.476562 15.625 18.902344 15.625 Z M 18.902344 15.625 " fill-opacity="1" fill-rule="nonzero"/><path fill="#ffffff" d="M 18.902344 24.929688 C 16.808594 24.929688 15.171875 22.011719 15.171875 18.285156 C 15.171875 15.992188 15.804688 13.898438 16.867188 12.683594 C 16.957031 12.582031 17.089844 12.523438 17.230469 12.527344 C 17.371094 12.53125 17.5 12.601562 17.585938 12.710938 C 17.902344 13.128906 18.382812 13.367188 18.902344 13.367188 C 19.425781 13.367188 19.90625 13.128906 20.222656 12.710938 C 20.304688 12.601562 20.433594 12.53125 20.574219 12.527344 C 20.714844 12.523438 20.847656 12.582031 20.941406 12.683594 C 22.003906 13.898438 22.636719 15.992188 22.636719 18.285156 C 22.636719 22.011719 20.996094 24.929688 18.902344 24.929688 Z M 17.253906 13.703125 C 16.535156 14.789062 16.097656 16.484375 16.097656 18.285156 C 16.097656 21.382812 17.382812 24 18.902344 24 C 20.421875 24 21.707031 21.382812 21.707031 18.285156 C 21.707031 16.484375 21.273438 14.789062 20.550781 13.703125 C 20.09375 14.085938 19.515625 14.296875 18.902344 14.296875 C 18.289062 14.296875 17.714844 14.085938 17.253906 13.703125 Z M 17.253906 13.703125 " fill-opacity="1" fill-rule="nonzero"/><path fill="#ffffff" d="M 18.902344 24.929688 C 15.238281 24.929688 12.257812 21.949219 12.257812 18.285156 C 12.257812 15.4375 14.070312 12.910156 16.761719 11.992188 C 17.003906 11.910156 17.261719 12.035156 17.347656 12.273438 C 17.582031 12.929688 18.207031 13.367188 18.902344 13.367188 C 19.597656 13.367188 20.222656 12.929688 20.457031 12.273438 C 20.542969 12.035156 20.804688 11.910156 21.042969 11.992188 C 23.738281 12.910156 25.546875 15.4375 25.546875 18.285156 C 25.546875 21.949219 22.566406 24.929688 18.902344 24.929688 Z M 16.675781 13.019531 C 14.574219 13.90625 13.1875 15.972656 13.1875 18.285156 C 13.1875 21.4375 15.75 24 18.902344 24 C 22.054688 24 24.621094 21.4375 24.621094 18.285156 C 24.621094 15.972656 23.234375 13.90625 21.132812 13.019531 C 20.675781 13.796875 19.828125 14.296875 18.90625 14.296875 C 17.976562 14.296875 17.132812 13.796875 16.675781 13.019531 Z M 16.675781 13.019531 " fill-opacity="1" fill-rule="nonzero"/><path fill="#ffffff" d="M 18.902344 24.929688 C 18.648438 24.929688 18.4375 24.722656 18.4375 24.464844 L 18.4375 13.832031 C 18.4375 13.574219 18.648438 13.367188 18.902344 13.367188 C 19.160156 13.367188 19.367188 13.574219 19.367188 13.832031 L 19.367188 24.464844 C 19.367188 24.722656 19.160156 24.929688 18.902344 24.929688 Z M 18.902344 24.929688 " fill-opacity="1" fill-rule="nonzero"/><path fill="#ffffff" d="M 25.082031 18.75 L 12.722656 18.75 C 12.464844 18.75 12.257812 18.539062 12.257812 18.285156 C 12.257812 18.027344 12.464844 17.820312 12.722656 17.820312 L 25.082031 17.820312 C 25.339844 17.820312 25.546875 18.027344 25.546875 18.285156 C 25.546875 18.539062 25.339844 18.75 25.082031 18.75 Z M 25.082031 18.75 " fill-opacity="1" fill-rule="nonzero"/><path fill="#ffffff" d="M 8.214844 3.699219 C 7.652344 3.699219 7.167969 3.335938 6.800781 3.058594 C 6.675781 2.96875 6.496094 2.832031 6.410156 2.796875 C 6.226562 2.828125 5.722656 3.191406 5.34375 3.5625 C 5.234375 3.671875 5.074219 3.71875 4.921875 3.6875 C 4.769531 3.652344 4.644531 3.546875 4.585938 3.402344 C 4.261719 2.570312 4.347656 1.910156 4.84375 1.382812 C 4.988281 1.226562 5.550781 0.707031 5.621094 0.65625 C 5.667969 0.621094 5.722656 0.59375 5.777344 0.578125 C 7.925781 0 8.566406 1.160156 8.699219 1.472656 C 9.144531 2.316406 9.007812 2.953125 8.863281 3.359375 C 8.8125 3.507812 8.691406 3.617188 8.539062 3.65625 C 8.429688 3.6875 8.320312 3.699219 8.214844 3.699219 Z M 8.425781 3.207031 Z M 6.433594 1.867188 C 6.496094 1.867188 6.554688 1.875 6.613281 1.890625 C 6.871094 1.953125 7.105469 2.128906 7.355469 2.316406 C 7.585938 2.488281 7.839844 2.679688 8.066406 2.742188 C 8.09375 2.515625 8.058594 2.242188 7.871094 1.894531 C 7.851562 1.859375 7.84375 1.84375 7.832031 1.804688 C 7.734375 1.53125 7.265625 1.167969 6.125 1.449219 C 5.96875 1.585938 5.621094 1.90625 5.519531 2.015625 C 5.441406 2.097656 5.367188 2.195312 5.335938 2.34375 C 5.6875 2.082031 6.082031 1.867188 6.433594 1.867188 Z M 5.898438 1.027344 Z M 5.898438 1.027344 " fill-opacity="1" fill-rule="nonzero"/><path fill="#ffffff" d="M 6.722656 6.246094 C 6.144531 6.246094 5.601562 6.023438 5.195312 5.613281 C 4.78125 5.203125 4.554688 4.660156 4.554688 4.078125 L 4.554688 3.234375 C 4.554688 2.976562 4.761719 2.769531 5.019531 2.769531 C 5.273438 2.769531 5.480469 2.976562 5.480469 3.234375 L 5.480469 4.078125 C 5.480469 4.410156 5.613281 4.722656 5.847656 4.957031 C 6.085938 5.191406 6.398438 5.320312 6.730469 5.316406 C 7.410156 5.3125 7.960938 4.757812 7.960938 4.078125 L 7.960938 3.207031 C 7.960938 2.953125 8.171875 2.742188 8.425781 2.742188 C 8.683594 2.742188 8.890625 2.953125 8.890625 3.207031 L 8.890625 4.078125 C 8.890625 5.265625 7.921875 6.238281 6.734375 6.246094 C 6.730469 6.246094 6.726562 6.246094 6.722656 6.246094 Z M 6.722656 6.246094 " fill-opacity="1" fill-rule="nonzero"/><path fill="#ffffff" d="M 5.585938 7.121094 C 5.328125 7.121094 5.121094 6.914062 5.121094 6.65625 L 5.121094 5.355469 C 5.121094 5.097656 5.328125 4.890625 5.585938 4.890625 C 5.839844 4.890625 6.046875 5.097656 6.046875 5.355469 L 6.046875 6.65625 C 6.046875 6.914062 5.839844 7.121094 5.585938 7.121094 Z M 5.585938 7.121094 " fill-opacity="1" fill-rule="nonzero"/><path fill="#ffffff" d="M 7.859375 7.121094 C 7.605469 7.121094 7.398438 6.914062 7.398438 6.65625 L 7.398438 5.347656 C 7.398438 5.089844 7.605469 4.882812 7.859375 4.882812 C 8.117188 4.882812 8.324219 5.089844 8.324219 5.347656 L 8.324219 6.65625 C 8.324219 6.914062 8.117188 7.121094 7.859375 7.121094 Z M 7.859375 7.121094 " fill-opacity="1" fill-rule="nonzero"/><g clip-path="url(#711d77016f)"><path fill="#ffffff" d="M 3.894531 11.828125 L 2.332031 11.828125 C 2.074219 11.828125 1.867188 11.621094 1.867188 11.363281 L 1.867188 8.976562 C 1.867188 8.132812 2.398438 7.363281 3.191406 7.070312 L 5.421875 6.222656 C 5.605469 6.152344 5.8125 6.207031 5.941406 6.359375 L 6.722656 7.292969 L 7.503906 6.359375 C 7.632812 6.207031 7.839844 6.152344 8.023438 6.222656 L 10.253906 7.070312 C 11.046875 7.363281 11.578125 8.132812 11.578125 8.976562 L 11.578125 11.363281 C 11.578125 11.621094 11.371094 11.828125 11.113281 11.828125 Z M 2.792969 10.898438 L 10.652344 10.898438 L 10.652344 8.976562 C 10.652344 8.515625 10.359375 8.101562 9.929688 7.941406 L 8.003906 7.207031 L 7.078125 8.316406 C 6.992188 8.421875 6.859375 8.480469 6.722656 8.480469 C 6.585938 8.480469 6.457031 8.421875 6.367188 8.316406 L 5.441406 7.207031 L 3.519531 7.9375 C 3.085938 8.097656 2.792969 8.515625 2.792969 8.976562 Z M 2.792969 10.898438 " fill-opacity="1" fill-rule="nonzero"/></g><path fill="#ffffff" d="M 3.933594 11.828125 C 3.679688 11.828125 3.472656 11.621094 3.472656 11.363281 L 3.472656 9.441406 C 3.472656 9.183594 3.679688 8.976562 3.933594 8.976562 C 4.191406 8.976562 4.398438 9.183594 4.398438 9.441406 L 4.398438 11.363281 C 4.398438 11.621094 4.191406 11.828125 3.933594 11.828125 Z M 3.933594 11.828125 " fill-opacity="1" fill-rule="nonzero"/><path fill="#ffffff" d="M 9.511719 11.828125 C 9.253906 11.828125 9.046875 11.621094 9.046875 11.363281 L 9.046875 9.441406 C 9.046875 9.183594 9.253906 8.976562 9.511719 8.976562 C 9.765625 8.976562 9.976562 9.183594 9.976562 9.441406 L 9.976562 11.363281 C 9.976562 11.621094 9.765625 11.828125 9.511719 11.828125 Z M 9.511719 11.828125 " fill-opacity="1" fill-rule="nonzero"/><path fill="#ffffff" d="M 10.125 17.082031 L 6.652344 17.082031 C 6.398438 17.082031 6.1875 16.875 6.1875 16.617188 L 6.1875 14.128906 C 6.1875 13.871094 6.398438 13.664062 6.652344 13.664062 C 6.910156 13.664062 7.117188 13.871094 7.117188 14.128906 L 7.117188 16.152344 L 10.125 16.152344 C 10.382812 16.152344 10.589844 16.363281 10.589844 16.617188 C 10.589844 16.875 10.382812 17.082031 10.125 17.082031 Z M 10.125 17.082031 " fill-opacity="1" fill-rule="nonzero"/><path fill="#ffffff" d="M 8.503906 18.445312 C 8.371094 18.445312 8.238281 18.386719 8.148438 18.277344 C 7.980469 18.082031 8.007812 17.789062 8.203125 17.625 L 9.402344 16.617188 L 8.203125 15.609375 C 8.007812 15.445312 7.984375 15.152344 8.148438 14.957031 C 8.3125 14.761719 8.605469 14.734375 8.800781 14.902344 L 10.425781 16.261719 C 10.527344 16.351562 10.589844 16.480469 10.589844 16.617188 C 10.589844 16.753906 10.53125 16.886719 10.425781 16.972656 L 8.800781 18.335938 C 8.714844 18.40625 8.609375 18.445312 8.503906 18.445312 Z M 8.503906 18.445312 " fill-opacity="1" fill-rule="nonzero"/><path fill="#ffffff" d="M 8.214844 28.019531 C 7.652344 28.019531 7.167969 27.65625 6.800781 27.382812 C 6.675781 27.289062 6.496094 27.152344 6.410156 27.117188 C 6.226562 27.148438 5.722656 27.511719 5.34375 27.882812 C 5.234375 27.992188 5.074219 28.039062 4.921875 28.007812 C 4.769531 27.976562 4.644531 27.867188 4.585938 27.722656 C 4.261719 26.894531 4.347656 26.230469 4.84375 25.703125 C 4.988281 25.546875 5.554688 25.027344 5.625 24.976562 C 5.671875 24.941406 5.722656 24.917969 5.777344 24.902344 C 7.925781 24.320312 8.566406 25.484375 8.699219 25.796875 C 9.144531 26.636719 9.007812 27.273438 8.863281 27.683594 C 8.8125 27.828125 8.691406 27.941406 8.539062 27.980469 C 8.429688 28.007812 8.320312 28.019531 8.214844 28.019531 Z M 8.425781 27.527344 Z M 6.433594 26.191406 C 6.496094 26.191406 6.554688 26.195312 6.613281 26.210938 C 6.871094 26.273438 7.105469 26.453125 7.355469 26.640625 C 7.585938 26.8125 7.839844 27 8.066406 27.066406 C 8.09375 26.835938 8.058594 26.566406 7.871094 26.21875 C 7.851562 26.179688 7.84375 26.164062 7.832031 26.128906 C 7.734375 25.855469 7.265625 25.488281 6.125 25.769531 C 5.96875 25.910156 5.621094 26.230469 5.519531 26.339844 C 5.441406 26.421875 5.367188 26.515625 5.335938 26.664062 C 5.6875 26.40625 6.082031 26.191406 6.433594 26.191406 Z M 6.433594 26.191406 " fill-opacity="1" fill-rule="nonzero"/><path fill="#ffffff" d="M 6.722656 30.566406 C 6.144531 30.566406 5.601562 30.34375 5.195312 29.9375 C 4.78125 29.527344 4.554688 28.980469 4.554688 28.398438 L 4.554688 27.554688 C 4.554688 27.296875 4.761719 27.089844 5.019531 27.089844 C 5.273438 27.089844 5.480469 27.296875 5.480469 27.554688 L 5.480469 28.398438 C 5.480469 28.730469 5.613281 29.042969 5.847656 29.277344 C 6.082031 29.511719 6.394531 29.640625 6.722656 29.640625 C 6.726562 29.640625 6.726562 29.640625 6.730469 29.640625 C 7.410156 29.636719 7.960938 29.078125 7.960938 28.398438 L 7.960938 27.527344 C 7.960938 27.273438 8.171875 27.0625 8.425781 27.0625 C 8.683594 27.0625 8.890625 27.273438 8.890625 27.527344 L 8.890625 28.398438 C 8.890625 29.585938 7.921875 30.558594 6.734375 30.566406 C 6.730469 30.566406 6.726562 30.566406 6.722656 30.566406 Z M 6.722656 30.566406 " fill-opacity="1" fill-rule="nonzero"/><path fill="#ffffff" d="M 5.585938 31.441406 C 5.328125 31.441406 5.121094 31.234375 5.121094 30.980469 L 5.121094 29.675781 C 5.121094 29.421875 5.328125 29.214844 5.585938 29.214844 C 5.839844 29.214844 6.046875 29.421875 6.046875 29.675781 L 6.046875 30.980469 C 6.046875 31.234375 5.839844 31.441406 5.585938 31.441406 Z M 5.585938 31.441406 " fill-opacity="1" fill-rule="nonzero"/><path fill="#ffffff" d="M 7.859375 31.441406 C 7.605469 31.441406 7.398438 31.234375 7.398438 30.980469 L 7.398438 29.667969 C 7.398438 29.410156 7.605469 29.203125 7.859375 29.203125 C 8.117188 29.203125 8.324219 29.410156 8.324219 29.667969 L 8.324219 30.980469 C 8.324219 31.234375 8.117188 31.441406 7.859375 31.441406 Z M 7.859375 31.441406 " fill-opacity="1" fill-rule="nonzero"/><g clip-path="url(#30b0daf5fc)"><path fill="#ffffff" d="M 11.113281 36.148438 L 2.332031 36.148438 C 2.074219 36.148438 1.867188 35.941406 1.867188 35.683594 L 1.867188 33.300781 C 1.867188 32.453125 2.398438 31.6875 3.191406 31.390625 L 5.421875 30.542969 C 5.605469 30.472656 5.8125 30.53125 5.941406 30.679688 L 6.722656 31.617188 L 7.503906 30.679688 C 7.632812 30.527344 7.839844 30.472656 8.023438 30.542969 L 10.253906 31.390625 C 11.046875 31.683594 11.578125 32.453125 11.578125 33.296875 L 11.578125 35.683594 C 11.578125 35.941406 11.371094 36.148438 11.113281 36.148438 Z M 2.792969 35.222656 L 10.652344 35.222656 L 10.652344 33.300781 C 10.652344 32.839844 10.359375 32.421875 9.929688 32.261719 L 8.003906 31.53125 L 7.078125 32.636719 C 6.992188 32.742188 6.859375 32.800781 6.722656 32.800781 C 6.585938 32.800781 6.457031 32.742188 6.367188 32.636719 L 5.441406 31.53125 L 3.519531 32.257812 C 3.085938 32.421875 2.792969 32.839844 2.792969 33.296875 Z M 2.792969 35.222656 " fill-opacity="1" fill-rule="nonzero"/></g><g clip-path="url(#280edc1e62)"><path fill="#ffffff" d="M 3.933594 36.148438 C 3.679688 36.148438 3.472656 35.941406 3.472656 35.683594 L 3.472656 33.761719 C 3.472656 33.507812 3.679688 33.300781 3.933594 33.300781 C 4.191406 33.300781 4.398438 33.507812 4.398438 33.761719 L 4.398438 35.683594 C 4.398438 35.941406 4.191406 36.148438 3.933594 36.148438 Z M 3.933594 36.148438 " fill-opacity="1" fill-rule="nonzero"/></g><g clip-path="url(#563e5899fc)"><path fill="#ffffff" d="M 9.511719 36.148438 C 9.253906 36.148438 9.046875 35.941406 9.046875 35.683594 L 9.046875 33.761719 C 9.046875 33.507812 9.253906 33.300781 9.511719 33.300781 C 9.765625 33.300781 9.976562 33.507812 9.976562 33.761719 L 9.976562 35.683594 C 9.976562 35.941406 9.765625 36.148438 9.511719 36.148438 Z M 9.511719 36.148438 " fill-opacity="1" fill-rule="nonzero"/></g><path fill="#ffffff" d="M 6.652344 23.898438 C 6.398438 23.898438 6.1875 23.691406 6.1875 23.433594 L 6.1875 20.945312 C 6.1875 20.691406 6.398438 20.480469 6.652344 20.480469 L 10.125 20.480469 C 10.382812 20.480469 10.589844 20.691406 10.589844 20.945312 C 10.589844 21.203125 10.382812 21.410156 10.125 21.410156 L 7.117188 21.410156 L 7.117188 23.433594 C 7.117188 23.691406 6.910156 23.898438 6.652344 23.898438 Z M 6.652344 23.898438 " fill-opacity="1" fill-rule="nonzero"/><path fill="#ffffff" d="M 8.503906 22.773438 C 8.371094 22.773438 8.238281 22.714844 8.148438 22.605469 C 7.980469 22.410156 8.007812 22.117188 8.203125 21.953125 L 9.402344 20.945312 L 8.203125 19.9375 C 8.007812 19.773438 7.984375 19.480469 8.148438 19.285156 C 8.3125 19.085938 8.605469 19.0625 8.800781 19.226562 L 10.425781 20.589844 C 10.527344 20.675781 10.589844 20.808594 10.589844 20.945312 C 10.589844 21.082031 10.53125 21.210938 10.425781 21.300781 L 8.800781 22.660156 C 8.714844 22.738281 8.609375 22.773438 8.503906 22.773438 Z M 8.503906 22.773438 " fill-opacity="1" fill-rule="nonzero"/><path fill="#ffffff" d="M 29.589844 3.699219 C 29.484375 3.699219 29.375 3.683594 29.265625 3.65625 C 29.113281 3.621094 28.992188 3.507812 28.941406 3.359375 C 28.796875 2.953125 28.664062 2.316406 29.109375 1.476562 C 29.238281 1.160156 29.878906 0 32.027344 0.578125 C 32.082031 0.59375 32.136719 0.621094 32.183594 0.65625 C 32.253906 0.707031 32.816406 1.226562 32.960938 1.382812 C 33.457031 1.910156 33.542969 2.570312 33.21875 3.402344 C 33.164062 3.546875 33.035156 3.652344 32.882812 3.6875 C 32.730469 3.71875 32.570312 3.671875 32.460938 3.5625 C 32.078125 3.183594 31.582031 2.828125 31.394531 2.796875 C 31.3125 2.832031 31.128906 2.96875 31.003906 3.058594 C 30.636719 3.335938 30.15625 3.699219 29.589844 3.699219 Z M 30.933594 1.347656 C 30.128906 1.347656 29.976562 1.796875 29.972656 1.800781 C 29.964844 1.835938 29.949219 1.867188 29.933594 1.894531 C 29.746094 2.246094 29.710938 2.515625 29.742188 2.746094 C 29.96875 2.679688 30.21875 2.488281 30.449219 2.316406 C 30.699219 2.128906 30.9375 1.953125 31.191406 1.890625 C 31.582031 1.792969 32.058594 2.039062 32.46875 2.34375 C 32.4375 2.199219 32.363281 2.101562 32.285156 2.019531 C 32.183594 1.910156 31.835938 1.589844 31.683594 1.449219 C 31.386719 1.375 31.136719 1.347656 30.933594 1.347656 Z M 30.933594 1.347656 " fill-opacity="1" fill-rule="nonzero"/><path fill="#ffffff" d="M 31.082031 6.246094 C 31.078125 6.246094 31.074219 6.246094 31.070312 6.246094 C 29.882812 6.238281 28.914062 5.265625 28.914062 4.078125 L 28.914062 3.207031 C 28.914062 2.953125 29.121094 2.742188 29.378906 2.742188 C 29.636719 2.742188 29.84375 2.953125 29.84375 3.207031 L 29.84375 4.078125 C 29.84375 4.757812 30.398438 5.316406 31.078125 5.320312 C 31.40625 5.316406 31.722656 5.191406 31.957031 4.957031 C 32.191406 4.722656 32.324219 4.410156 32.324219 4.078125 L 32.324219 3.234375 C 32.324219 2.976562 32.53125 2.769531 32.789062 2.769531 C 33.042969 2.769531 33.25 2.976562 33.25 3.234375 L 33.25 4.078125 C 33.25 4.660156 33.023438 5.203125 32.613281 5.613281 C 32.203125 6.023438 31.660156 6.246094 31.082031 6.246094 Z M 31.082031 6.246094 " fill-opacity="1" fill-rule="nonzero"/><path fill="#ffffff" d="M 32.222656 7.121094 C 31.964844 7.121094 31.757812 6.914062 31.757812 6.65625 L 31.757812 5.355469 C 31.757812 5.097656 31.964844 4.890625 32.222656 4.890625 C 32.476562 4.890625 32.683594 5.097656 32.683594 5.355469 L 32.683594 6.65625 C 32.683594 6.914062 32.476562 7.121094 32.222656 7.121094 Z M 32.222656 7.121094 " fill-opacity="1" fill-rule="nonzero"/><path fill="#ffffff" d="M 29.945312 7.121094 C 29.6875 7.121094 29.480469 6.914062 29.480469 6.65625 L 29.480469 5.347656 C 29.480469 5.089844 29.6875 4.882812 29.945312 4.882812 C 30.203125 4.882812 30.410156 5.089844 30.410156 5.347656 L 30.410156 6.65625 C 30.410156 6.914062 30.203125 7.121094 29.945312 7.121094 Z M 29.945312 7.121094 " fill-opacity="1" fill-rule="nonzero"/><g clip-path="url(#8686f16c4b)"><path fill="#ffffff" d="M 33.914062 11.828125 L 26.691406 11.828125 C 26.433594 11.828125 26.226562 11.621094 26.226562 11.363281 L 26.226562 8.976562 C 26.226562 8.132812 26.757812 7.363281 27.554688 7.070312 L 29.78125 6.222656 C 29.964844 6.152344 30.175781 6.207031 30.300781 6.359375 L 31.082031 7.292969 L 31.863281 6.359375 C 31.992188 6.207031 32.199219 6.152344 32.386719 6.222656 L 34.617188 7.070312 C 35.40625 7.363281 35.9375 8.132812 35.9375 8.976562 L 35.9375 11.363281 C 35.9375 11.621094 35.730469 11.828125 35.472656 11.828125 Z M 27.15625 10.898438 L 35.011719 10.898438 L 35.011719 8.976562 C 35.011719 8.515625 34.722656 8.101562 34.289062 7.941406 L 32.363281 7.207031 L 31.4375 8.316406 C 31.351562 8.421875 31.222656 8.480469 31.082031 8.480469 C 30.945312 8.480469 30.816406 8.421875 30.726562 8.316406 L 29.800781 7.207031 L 27.878906 7.9375 C 27.445312 8.101562 27.15625 8.519531 27.15625 8.976562 Z M 27.15625 10.898438 " fill-opacity="1" fill-rule="nonzero"/></g><path fill="#ffffff" d="M 33.871094 11.828125 C 33.613281 11.828125 33.40625 11.621094 33.40625 11.363281 L 33.40625 9.441406 C 33.40625 9.183594 33.613281 8.976562 33.871094 8.976562 C 34.128906 8.976562 34.335938 9.183594 34.335938 9.441406 L 34.335938 11.363281 C 34.335938 11.621094 34.128906 11.828125 33.871094 11.828125 Z M 33.871094 11.828125 " fill-opacity="1" fill-rule="nonzero"/><path fill="#ffffff" d="M 28.292969 11.828125 C 28.039062 11.828125 27.832031 11.621094 27.832031 11.363281 L 27.832031 9.441406 C 27.832031 9.183594 28.039062 8.976562 28.292969 8.976562 C 28.550781 8.976562 28.757812 9.183594 28.757812 9.441406 L 28.757812 11.363281 C 28.757812 11.621094 28.550781 11.828125 28.292969 11.828125 Z M 28.292969 11.828125 " fill-opacity="1" fill-rule="nonzero"/><path fill="#ffffff" d="M 31.152344 17.082031 L 27.679688 17.082031 C 27.425781 17.082031 27.21875 16.875 27.21875 16.617188 C 27.21875 16.363281 27.425781 16.152344 27.679688 16.152344 L 30.6875 16.152344 L 30.6875 14.128906 C 30.6875 13.871094 30.898438 13.664062 31.152344 13.664062 C 31.410156 13.664062 31.617188 13.871094 31.617188 14.128906 L 31.617188 16.617188 C 31.617188 16.875 31.410156 17.082031 31.152344 17.082031 Z M 31.152344 17.082031 " fill-opacity="1" fill-rule="nonzero"/><path fill="#ffffff" d="M 29.304688 18.445312 C 29.199219 18.445312 29.09375 18.410156 29.003906 18.335938 L 27.382812 16.972656 C 27.277344 16.886719 27.214844 16.753906 27.214844 16.617188 C 27.214844 16.480469 27.277344 16.351562 27.382812 16.261719 L 29.003906 14.902344 C 29.203125 14.734375 29.496094 14.761719 29.660156 14.957031 C 29.824219 15.152344 29.800781 15.445312 29.601562 15.609375 L 28.402344 16.617188 L 29.601562 17.625 C 29.800781 17.789062 29.824219 18.082031 29.660156 18.277344 C 29.566406 18.386719 29.4375 18.445312 29.304688 18.445312 Z M 29.304688 18.445312 " fill-opacity="1" fill-rule="nonzero"/><path fill="#ffffff" d="M 29.589844 28.019531 C 29.484375 28.019531 29.375 28.007812 29.265625 27.980469 C 29.113281 27.941406 28.992188 27.828125 28.941406 27.679688 C 28.800781 27.273438 28.664062 26.636719 29.109375 25.796875 C 29.238281 25.480469 29.882812 24.320312 32.027344 24.902344 C 32.082031 24.914062 32.136719 24.941406 32.183594 24.976562 C 32.253906 25.027344 32.816406 25.546875 32.964844 25.703125 C 33.457031 26.230469 33.542969 26.890625 33.21875 27.722656 C 33.164062 27.867188 33.039062 27.972656 32.882812 28.007812 C 32.730469 28.039062 32.574219 27.992188 32.460938 27.882812 C 32.078125 27.503906 31.582031 27.148438 31.398438 27.117188 C 31.3125 27.152344 31.128906 27.289062 31.007812 27.378906 C 30.636719 27.65625 30.15625 28.019531 29.589844 28.019531 Z M 30.933594 25.667969 C 30.128906 25.667969 29.976562 26.117188 29.972656 26.121094 C 29.964844 26.15625 29.949219 26.1875 29.933594 26.21875 C 29.746094 26.566406 29.710938 26.835938 29.742188 27.066406 C 29.96875 27 30.21875 26.8125 30.449219 26.640625 C 30.699219 26.453125 30.9375 26.273438 31.191406 26.210938 C 31.582031 26.113281 32.058594 26.359375 32.46875 26.664062 C 32.4375 26.519531 32.363281 26.421875 32.285156 26.339844 C 32.183594 26.230469 31.835938 25.910156 31.683594 25.769531 C 31.386719 25.695312 31.136719 25.667969 30.933594 25.667969 Z M 30.933594 25.667969 " fill-opacity="1" fill-rule="nonzero"/><path fill="#ffffff" d="M 31.082031 30.566406 C 31.078125 30.566406 31.074219 30.566406 31.070312 30.566406 C 29.882812 30.5625 28.914062 29.585938 28.914062 28.398438 L 28.914062 27.527344 C 28.914062 27.273438 29.121094 27.0625 29.378906 27.0625 C 29.636719 27.0625 29.84375 27.273438 29.84375 27.527344 L 29.84375 28.398438 C 29.84375 29.078125 30.398438 29.636719 31.078125 29.640625 C 31.078125 29.640625 31.082031 29.640625 31.082031 29.640625 C 31.414062 29.640625 31.722656 29.511719 31.957031 29.277344 C 32.195312 29.042969 32.324219 28.730469 32.324219 28.398438 L 32.324219 27.554688 C 32.324219 27.296875 32.53125 27.089844 32.789062 27.089844 C 33.042969 27.089844 33.25 27.296875 33.25 27.554688 L 33.25 28.398438 C 33.25 28.980469 33.023438 29.527344 32.613281 29.9375 C 32.203125 30.34375 31.660156 30.566406 31.082031 30.566406 Z M 31.082031 30.566406 " fill-opacity="1" fill-rule="nonzero"/><path fill="#ffffff" d="M 32.222656 31.441406 C 31.964844 31.441406 31.757812 31.234375 31.757812 30.980469 L 31.757812 29.675781 C 31.757812 29.421875 31.964844 29.214844 32.222656 29.214844 C 32.476562 29.214844 32.683594 29.421875 32.683594 29.675781 L 32.683594 30.980469 C 32.683594 31.234375 32.476562 31.441406 32.222656 31.441406 Z M 32.222656 31.441406 " fill-opacity="1" fill-rule="nonzero"/><path fill="#ffffff" d="M 29.945312 31.441406 C 29.6875 31.441406 29.480469 31.234375 29.480469 30.980469 L 29.480469 29.667969 C 29.480469 29.410156 29.6875 29.203125 29.945312 29.203125 C 30.203125 29.203125 30.410156 29.410156 30.410156 29.667969 L 30.410156 30.980469 C 30.410156 31.234375 30.203125 31.441406 29.945312 31.441406 Z M 29.945312 31.441406 " fill-opacity="1" fill-rule="nonzero"/><g clip-path="url(#742d7bb906)"><path fill="#ffffff" d="M 35.476562 36.148438 L 26.691406 36.148438 C 26.433594 36.148438 26.226562 35.941406 26.226562 35.683594 L 26.226562 33.300781 C 26.226562 32.453125 26.757812 31.6875 27.554688 31.390625 L 29.78125 30.542969 C 29.964844 30.472656 30.175781 30.53125 30.300781 30.679688 L 31.082031 31.617188 L 31.863281 30.679688 C 31.992188 30.53125 32.199219 30.476562 32.386719 30.546875 L 34.617188 31.394531 C 35.40625 31.6875 35.9375 32.453125 35.9375 33.300781 L 35.9375 35.683594 C 35.9375 35.941406 35.730469 36.148438 35.476562 36.148438 Z M 27.15625 35.222656 L 35.011719 35.222656 L 35.011719 33.300781 C 35.011719 32.839844 34.722656 32.421875 34.289062 32.261719 L 32.363281 31.53125 L 31.4375 32.636719 C 31.351562 32.742188 31.222656 32.800781 31.082031 32.800781 C 30.945312 32.800781 30.816406 32.742188 30.726562 32.636719 L 29.800781 31.53125 L 27.878906 32.261719 C 27.445312 32.421875 27.15625 32.839844 27.15625 33.300781 Z M 27.15625 35.222656 " fill-opacity="1" fill-rule="nonzero"/></g><g clip-path="url(#1c3b11fb9e)"><path fill="#ffffff" d="M 33.871094 36.148438 C 33.613281 36.148438 33.40625 35.941406 33.40625 35.683594 L 33.40625 33.761719 C 33.40625 33.507812 33.613281 33.300781 33.871094 33.300781 C 34.128906 33.300781 34.335938 33.507812 34.335938 33.761719 L 34.335938 35.683594 C 34.335938 35.941406 34.128906 36.148438 33.871094 36.148438 Z M 33.871094 36.148438 " fill-opacity="1" fill-rule="nonzero"/></g><g clip-path="url(#18f1df8ded)"><path fill="#ffffff" d="M 28.292969 36.148438 C 28.039062 36.148438 27.832031 35.941406 27.832031 35.683594 L 27.832031 33.761719 C 27.832031 33.507812 28.039062 33.300781 28.292969 33.300781 C 28.550781 33.300781 28.757812 33.507812 28.757812 33.761719 L 28.757812 35.683594 C 28.757812 35.941406 28.550781 36.148438 28.292969 36.148438 Z M 28.292969 36.148438 " fill-opacity="1" fill-rule="nonzero"/></g><path fill="#ffffff" d="M 31.152344 23.898438 C 30.898438 23.898438 30.6875 23.691406 30.6875 23.433594 L 30.6875 21.410156 L 27.679688 21.410156 C 27.425781 21.410156 27.21875 21.203125 27.21875 20.945312 C 27.21875 20.691406 27.425781 20.480469 27.679688 20.480469 L 31.152344 20.480469 C 31.410156 20.480469 31.617188 20.691406 31.617188 20.945312 L 31.617188 23.433594 C 31.617188 23.691406 31.410156 23.898438 31.152344 23.898438 Z M 31.152344 23.898438 " fill-opacity="1" fill-rule="nonzero"/><path fill="#ffffff" d="M 29.304688 22.773438 C 29.199219 22.773438 29.09375 22.738281 29.003906 22.664062 L 27.382812 21.300781 C 27.277344 21.214844 27.214844 21.082031 27.214844 20.945312 C 27.214844 20.808594 27.277344 20.679688 27.382812 20.589844 L 29.003906 19.226562 C 29.203125 19.0625 29.496094 19.089844 29.660156 19.285156 C 29.824219 19.480469 29.800781 19.773438 29.601562 19.941406 L 28.402344 20.945312 L 29.601562 21.953125 C 29.800781 22.117188 29.824219 22.410156 29.660156 22.609375 C 29.566406 22.714844 29.4375 22.773438 29.304688 22.773438 Z M 29.304688 22.773438 " fill-opacity="1" fill-rule="nonzero"/><path fill="#ffffff" d="M 18.902344 14.296875 C 17.480469 14.296875 16.324219 13.136719 16.324219 11.714844 C 16.324219 10.292969 17.480469 9.136719 18.902344 9.136719 C 20.324219 9.136719 21.480469 10.292969 21.480469 11.714844 C 21.480469 13.136719 20.324219 14.296875 18.902344 14.296875 Z M 18.902344 10.066406 C 17.992188 10.066406 17.253906 10.804688 17.253906 11.714844 C 17.253906 12.628906 17.992188 13.367188 18.902344 13.367188 C 19.8125 13.367188 20.554688 12.628906 20.554688 11.714844 C 20.554688 10.804688 19.8125 10.066406 18.902344 10.066406 Z M 18.902344 10.066406 " fill-opacity="1" fill-rule="nonzero"/><path fill="#ffffff" d="M 18.679688 12.671875 C 18.558594 12.671875 18.441406 12.621094 18.351562 12.535156 L 17.820312 12 C 17.636719 11.820312 17.636719 11.523438 17.820312 11.34375 C 18 11.164062 18.292969 11.164062 18.476562 11.34375 L 18.679688 11.550781 L 19.332031 10.898438 C 19.515625 10.71875 19.808594 10.71875 19.988281 10.898438 C 20.171875 11.082031 20.171875 11.375 19.988281 11.554688 L 19.011719 12.535156 C 18.921875 12.621094 18.804688 12.671875 18.679688 12.671875 Z M 18.679688 12.671875 " fill-opacity="1" fill-rule="nonzero"/></svg>