<svg xmlns="http://www.w3.org/2000/svg" xmlns:xlink="http://www.w3.org/1999/xlink" width="50" zoomAndPan="magnify" viewBox="0 0 37.5 37.499999" height="50" preserveAspectRatio="xMidYMid meet" version="1.0"><defs><clipPath id="bc4fc6b70a"><path d="M 0.722656 1.003906 L 36.246094 1.003906 L 36.246094 36.53125 L 0.722656 36.53125 Z M 0.722656 1.003906 " clip-rule="nonzero"/></clipPath></defs><g clip-path="url(#bc4fc6b70a)"><path fill="#ffbd59" d="M 13.671875 3.96875 C 8.527344 5.636719 4.566406 9.941406 3.390625 15.285156 C 3.320312 15.59375 3.015625 15.789062 2.710938 15.71875 C 2.402344 15.652344 2.207031 15.347656 2.277344 15.039062 C 3.542969 9.289062 7.816406 4.65625 13.359375 2.871094 L 13.25 2.8125 C 12.980469 2.652344 12.886719 2.304688 13.042969 2.03125 C 13.199219 1.761719 13.546875 1.667969 13.820312 1.824219 L 15.132812 2.582031 C 15.402344 2.738281 15.496094 3.085938 15.339844 3.359375 L 14.582031 4.667969 C 14.425781 4.941406 14.078125 5.035156 13.804688 4.878906 C 13.53125 4.71875 13.4375 4.371094 13.597656 4.097656 Z M 33.109375 14.046875 C 31.527344 8.953125 27.371094 4.992188 22.164062 3.683594 C 21.859375 3.609375 21.671875 3.296875 21.75 2.992188 C 21.824219 2.6875 22.136719 2.503906 22.441406 2.578125 C 28.050781 3.988281 32.527344 8.265625 34.214844 13.761719 L 34.285156 13.640625 C 34.441406 13.367188 34.792969 13.273438 35.0625 13.429688 C 35.335938 13.585938 35.429688 13.9375 35.273438 14.207031 L 34.515625 15.519531 C 34.359375 15.792969 34.007812 15.882812 33.738281 15.726562 L 32.425781 14.972656 C 32.15625 14.8125 32.0625 14.464844 32.21875 14.191406 C 32.375 13.921875 32.726562 13.828125 32.996094 13.984375 Z M 21.578125 34.722656 C 21.304688 34.566406 21.210938 34.214844 21.367188 33.945312 L 22.125 32.632812 C 22.28125 32.359375 22.632812 32.269531 22.902344 32.425781 C 23.175781 32.582031 23.269531 32.929688 23.113281 33.203125 L 23.070312 33.273438 C 28.203125 31.640625 32.171875 27.390625 33.402344 22.09375 C 33.472656 21.785156 33.777344 21.59375 34.085938 21.667969 C 34.390625 21.738281 34.582031 22.042969 34.511719 22.351562 C 33.179688 28.082031 28.867188 32.675781 23.296875 34.398438 L 23.457031 34.492188 C 23.730469 34.648438 23.824219 34.996094 23.664062 35.269531 C 23.507812 35.542969 23.160156 35.636719 22.886719 35.480469 Z M 2.660156 23.609375 L 2.613281 23.691406 C 2.453125 23.964844 2.105469 24.058594 1.832031 23.902344 C 1.5625 23.742188 1.46875 23.394531 1.625 23.121094 L 2.382812 21.8125 C 2.539062 21.539062 2.886719 21.445312 3.160156 21.601562 L 4.46875 22.359375 C 4.742188 22.515625 4.835938 22.867188 4.679688 23.136719 C 4.519531 23.410156 4.171875 23.503906 3.898438 23.347656 L 3.746094 23.257812 C 5.367188 28.367188 9.585938 32.328125 14.851562 33.578125 C 15.15625 33.648438 15.34375 33.957031 15.273438 34.261719 C 15.199219 34.570312 14.890625 34.757812 14.585938 34.6875 C 8.933594 33.34375 4.402344 29.09375 2.660156 23.609375 Z M 11.058594 26.109375 C 10.894531 23.335938 10.097656 22.289062 9.492188 21.21875 C 9.027344 20.394531 8.65625 19.554688 8.65625 18.101562 C 8.65625 14.824219 11.066406 12.113281 14.210938 11.640625 C 14.519531 11.59375 14.8125 11.808594 14.859375 12.117188 C 14.90625 12.429688 14.691406 12.71875 14.378906 12.765625 C 11.785156 13.15625 9.796875 15.398438 9.796875 18.101562 C 9.796875 19.617188 10.296875 20.328125 10.8125 21.222656 C 11.367188 22.175781 11.953125 23.308594 12.15625 25.523438 L 13.589844 25.523438 L 13.589844 20.097656 L 12.773438 20.097656 C 11.699219 20.097656 10.820312 19.21875 10.820312 18.144531 C 10.820312 17.066406 11.699219 16.1875 12.773438 16.1875 C 13.851562 16.1875 14.730469 17.066406 14.730469 18.144531 L 14.730469 18.957031 L 15.648438 18.957031 L 15.648438 18.84375 C 15.648438 18.527344 15.902344 18.273438 16.21875 18.273438 C 16.535156 18.273438 16.789062 18.527344 16.789062 18.84375 L 16.789062 18.957031 L 16.957031 18.957031 C 17.269531 18.957031 17.527344 19.214844 17.527344 19.527344 C 17.527344 19.84375 17.269531 20.097656 16.957031 20.097656 L 16.789062 20.097656 L 16.789062 25.523438 L 18.222656 25.523438 C 18.46875 22.820312 19.285156 21.742188 19.917969 20.617188 C 20.070312 20.34375 20.417969 20.246094 20.691406 20.398438 C 20.964844 20.550781 21.066406 20.898438 20.910156 21.175781 C 20.300781 22.261719 19.484375 23.300781 19.320312 26.125 C 19.320312 26.128906 19.320312 26.128906 19.320312 26.128906 L 19.320312 27.0625 C 19.320312 27.707031 18.917969 28.265625 18.351562 28.492188 L 18.351562 29 C 18.351562 29.65625 17.933594 30.21875 17.355469 30.441406 L 17.355469 30.941406 C 17.355469 31.785156 16.664062 32.480469 15.820312 32.480469 L 14.558594 32.480469 C 13.714844 32.480469 13.019531 31.785156 13.019531 30.941406 L 13.019531 30.441406 C 12.441406 30.21875 12.027344 29.65625 12.027344 29 L 12.027344 28.492188 C 11.460938 28.265625 11.058594 27.710938 11.058594 27.0625 Z M 14.730469 25.523438 L 15.648438 25.523438 L 15.648438 20.097656 L 14.730469 20.097656 Z M 18.179688 26.664062 L 12.199219 26.664062 L 12.199219 27.0625 C 12.199219 27.28125 12.378906 27.460938 12.597656 27.460938 L 17.78125 27.460938 C 18 27.460938 18.179688 27.28125 18.179688 27.0625 Z M 17.210938 28.601562 L 13.167969 28.601562 L 13.167969 29 C 13.167969 29.222656 13.347656 29.402344 13.566406 29.402344 L 16.8125 29.402344 C 17.03125 29.402344 17.210938 29.222656 17.210938 29 Z M 16.214844 30.539062 L 14.160156 30.539062 L 14.160156 30.941406 C 14.160156 31.160156 14.339844 31.339844 14.558594 31.339844 L 15.820312 31.339844 C 16.039062 31.339844 16.214844 31.160156 16.214844 30.941406 Z M 13.589844 18.957031 L 13.589844 18.144531 C 13.589844 17.695312 13.222656 17.328125 12.773438 17.328125 C 12.324219 17.328125 11.957031 17.695312 11.957031 18.144531 C 11.957031 18.59375 12.324219 18.957031 12.773438 18.957031 Z M 15.757812 10.121094 C 15.757812 10.433594 15.503906 10.691406 15.191406 10.691406 C 14.875 10.691406 14.621094 10.433594 14.621094 10.121094 L 14.621094 8.714844 C 14.621094 8.402344 14.875 8.144531 15.191406 8.144531 C 15.503906 8.144531 15.757812 8.402344 15.757812 8.714844 Z M 11.183594 11.042969 C 11.34375 11.3125 11.25 11.664062 10.976562 11.820312 C 10.703125 11.976562 10.355469 11.882812 10.199219 11.609375 L 9.496094 10.394531 C 9.339844 10.121094 9.433594 9.773438 9.707031 9.613281 C 9.976562 9.457031 10.328125 9.550781 10.484375 9.824219 Z M 7.683594 14.125 C 7.957031 14.28125 8.050781 14.632812 7.894531 14.902344 C 7.734375 15.175781 7.386719 15.269531 7.113281 15.113281 L 5.898438 14.410156 C 5.625 14.25 5.53125 13.902344 5.6875 13.628906 C 5.847656 13.359375 6.195312 13.265625 6.46875 13.421875 Z M 24.316406 7.21875 C 24.777344 7.351562 25.21875 7.535156 25.640625 7.769531 L 26.492188 7.390625 C 26.707031 7.296875 26.960938 7.34375 27.125 7.507812 L 28.441406 8.824219 C 28.609375 8.992188 28.65625 9.242188 28.558594 9.457031 C 28.558594 9.457031 28.183594 10.308594 28.183594 10.308594 C 28.414062 10.730469 28.601562 11.175781 28.734375 11.636719 L 29.601562 11.972656 C 29.820312 12.058594 29.964844 12.269531 29.964844 12.503906 L 29.964844 14.363281 C 29.964844 14.601562 29.820312 14.8125 29.601562 14.898438 C 29.601562 14.898438 28.734375 15.230469 28.734375 15.230469 C 28.601562 15.691406 28.414062 16.136719 28.183594 16.558594 L 28.558594 17.410156 C 28.65625 17.625 28.609375 17.875 28.441406 18.042969 L 27.125 19.359375 C 26.960938 19.523438 26.707031 19.570312 26.492188 19.476562 C 26.492188 19.476562 25.640625 19.101562 25.640625 19.101562 C 25.222656 19.332031 24.777344 19.515625 24.316406 19.648438 L 23.980469 20.515625 C 23.894531 20.738281 23.683594 20.882812 23.449219 20.882812 L 21.585938 20.882812 C 21.351562 20.882812 21.140625 20.738281 21.054688 20.515625 C 21.054688 20.515625 20.722656 19.648438 20.722656 19.648438 C 20.257812 19.515625 19.8125 19.332031 19.394531 19.097656 L 18.542969 19.476562 C 18.328125 19.570312 18.074219 19.523438 17.910156 19.359375 L 16.59375 18.042969 C 16.425781 17.875 16.378906 17.625 16.476562 17.40625 C 16.476562 17.40625 16.851562 16.558594 16.851562 16.558594 C 16.621094 16.136719 16.4375 15.691406 16.300781 15.230469 L 15.433594 14.898438 C 15.214844 14.8125 15.070312 14.601562 15.070312 14.363281 L 15.070312 12.503906 C 15.070312 12.269531 15.214844 12.058594 15.433594 11.972656 C 15.433594 11.972656 16.300781 11.636719 16.300781 11.636719 C 16.4375 11.175781 16.621094 10.730469 16.851562 10.308594 L 16.476562 9.460938 C 16.378906 9.242188 16.425781 8.992188 16.59375 8.824219 L 17.910156 7.507812 C 18.074219 7.34375 18.328125 7.296875 18.542969 7.390625 C 18.542969 7.390625 19.394531 7.769531 19.394531 7.769531 C 19.8125 7.535156 20.257812 7.351562 20.71875 7.21875 L 21.054688 6.351562 C 21.140625 6.128906 21.351562 5.984375 21.585938 5.984375 L 23.449219 5.984375 C 23.683594 5.984375 23.894531 6.128906 23.980469 6.351562 Z M 23.355469 7.902344 L 23.058594 7.125 L 21.980469 7.125 L 21.679688 7.902344 C 21.609375 8.078125 21.460938 8.207031 21.277344 8.25 C 20.730469 8.382812 20.207031 8.597656 19.726562 8.894531 C 19.566406 8.992188 19.367188 9.007812 19.195312 8.929688 L 18.4375 8.59375 C 18.4375 8.59375 17.675781 9.355469 17.675781 9.355469 L 18.011719 10.113281 C 18.089844 10.285156 18.078125 10.484375 17.976562 10.644531 C 17.679688 11.125 17.464844 11.648438 17.332031 12.199219 C 17.289062 12.378906 17.15625 12.53125 16.984375 12.597656 L 16.207031 12.894531 L 16.207031 13.972656 L 16.984375 14.273438 C 17.15625 14.339844 17.289062 14.488281 17.332031 14.671875 C 17.464844 15.21875 17.679688 15.742188 17.976562 16.222656 C 18.078125 16.382812 18.089844 16.582031 18.011719 16.753906 C 18.011719 16.753906 17.675781 17.511719 17.675781 17.511719 L 18.4375 18.277344 L 19.199219 17.9375 C 19.367188 17.863281 19.566406 17.875 19.726562 17.972656 C 20.207031 18.269531 20.730469 18.488281 21.28125 18.617188 C 21.464844 18.660156 21.613281 18.792969 21.679688 18.96875 L 21.980469 19.742188 L 23.058594 19.742188 L 23.355469 18.96875 C 23.421875 18.792969 23.574219 18.660156 23.753906 18.617188 C 24.304688 18.488281 24.828125 18.273438 25.304688 17.976562 C 25.464844 17.875 25.664062 17.863281 25.835938 17.9375 L 26.597656 18.277344 L 27.359375 17.511719 L 27.023438 16.753906 C 26.945312 16.582031 26.960938 16.382812 27.058594 16.226562 C 27.351562 15.742188 27.570312 15.21875 27.703125 14.671875 C 27.746094 14.488281 27.875 14.339844 28.050781 14.273438 L 28.824219 13.972656 L 28.824219 12.894531 L 28.050781 12.597656 C 27.875 12.53125 27.746094 12.378906 27.703125 12.195312 C 27.570312 11.648438 27.355469 11.125 27.058594 10.644531 C 26.960938 10.484375 26.945312 10.285156 27.023438 10.113281 L 27.359375 9.355469 C 27.359375 9.355469 26.597656 8.59375 26.597656 8.59375 L 25.835938 8.929688 C 25.664062 9.007812 25.46875 8.992188 25.308594 8.894531 C 24.828125 8.597656 24.304688 8.382812 23.753906 8.25 C 23.574219 8.207031 23.421875 8.078125 23.355469 7.902344 Z M 22.515625 9.617188 C 24.625 9.617188 26.335938 11.324219 26.335938 13.433594 C 26.335938 15.542969 24.625 17.25 22.515625 17.25 C 20.410156 17.25 18.699219 15.542969 18.699219 13.433594 C 18.699219 11.324219 20.410156 9.617188 22.515625 9.617188 Z M 22.515625 10.757812 C 21.039062 10.757812 19.839844 11.953125 19.839844 13.433594 C 19.839844 14.914062 21.039062 16.113281 22.515625 16.113281 C 23.996094 16.113281 25.195312 14.914062 25.195312 13.433594 C 25.195312 11.953125 23.996094 10.757812 22.515625 10.757812 Z M 2.695312 16.652344 C 3.785156 16.652344 4.671875 17.539062 4.671875 18.628906 C 4.671875 19.71875 3.785156 20.601562 2.695312 20.601562 C 1.605469 20.601562 0.722656 19.71875 0.722656 18.628906 C 0.722656 17.539062 1.605469 16.652344 2.695312 16.652344 Z M 2.695312 17.792969 C 2.234375 17.792969 1.863281 18.167969 1.863281 18.628906 C 1.863281 19.085938 2.234375 19.460938 2.695312 19.460938 C 3.15625 19.460938 3.53125 19.085938 3.53125 18.628906 C 3.53125 18.167969 3.15625 17.792969 2.695312 17.792969 Z M 18.460938 1.007812 C 19.550781 1.007812 20.433594 1.890625 20.433594 2.980469 C 20.433594 4.070312 19.550781 4.957031 18.460938 4.957031 C 17.371094 4.957031 16.484375 4.070312 16.484375 2.980469 C 16.484375 1.890625 17.371094 1.007812 18.460938 1.007812 Z M 18.460938 2.148438 C 18 2.148438 17.625 2.519531 17.625 2.980469 C 17.625 3.441406 18 3.816406 18.460938 3.816406 C 18.921875 3.816406 19.292969 3.441406 19.292969 2.980469 C 19.292969 2.519531 18.921875 2.148438 18.460938 2.148438 Z M 34.089844 16.632812 C 35.179688 16.632812 36.0625 17.515625 36.0625 18.605469 C 36.0625 19.695312 35.179688 20.582031 34.089844 20.582031 C 33 20.582031 32.113281 19.695312 32.113281 18.605469 C 32.113281 17.515625 33 16.632812 34.089844 16.632812 Z M 34.089844 17.773438 C 33.628906 17.773438 33.253906 18.144531 33.253906 18.605469 C 33.253906 19.066406 33.628906 19.441406 34.089844 19.441406 C 34.550781 19.441406 34.921875 19.066406 34.921875 18.605469 C 34.921875 18.144531 34.550781 17.773438 34.089844 17.773438 Z M 18.460938 32.257812 C 19.550781 32.257812 20.433594 33.140625 20.433594 34.230469 C 20.433594 35.320312 19.550781 36.207031 18.460938 36.207031 C 17.371094 36.207031 16.484375 35.320312 16.484375 34.230469 C 16.484375 33.140625 17.371094 32.257812 18.460938 32.257812 Z M 18.460938 33.398438 C 18 33.398438 17.625 33.769531 17.625 34.230469 C 17.625 34.691406 18 35.066406 18.460938 35.066406 C 18.921875 35.066406 19.292969 34.691406 19.292969 34.230469 C 19.292969 33.769531 18.921875 33.398438 18.460938 33.398438 Z M 18.460938 33.398438 " fill-opacity="1" fill-rule="evenodd"/></g></svg>