<svg xmlns="http://www.w3.org/2000/svg" xmlns:xlink="http://www.w3.org/1999/xlink" width="50" zoomAndPan="magnify" viewBox="0 0 37.5 37.499999" height="50" preserveAspectRatio="xMidYMid meet" version="1.0"><defs><clipPath id="d9dd71b8f5"><path d="M 13 20 L 24 20 L 24 35.894531 L 13 35.894531 Z M 13 20 " clip-rule="nonzero"/></clipPath><clipPath id="9dd2501afb"><path d="M 25 21 L 35 21 L 35 35.894531 L 25 35.894531 Z M 25 21 " clip-rule="nonzero"/></clipPath><clipPath id="b8febe029d"><path d="M 11 1.109375 L 26 1.109375 L 26 18 L 11 18 Z M 11 1.109375 " clip-rule="nonzero"/></clipPath><clipPath id="96ac068c90"><path d="M 24 5 L 35.894531 5 L 35.894531 20 L 24 20 Z M 24 5 " clip-rule="nonzero"/></clipPath><clipPath id="98f8fdd0ad"><path d="M 2 21 L 12 21 L 12 35.894531 L 2 35.894531 Z M 2 21 " clip-rule="nonzero"/></clipPath><clipPath id="297caa69cb"><path d="M 1.109375 5 L 13 5 L 13 20 L 1.109375 20 Z M 1.109375 5 " clip-rule="nonzero"/></clipPath></defs><g clip-path="url(#d9dd71b8f5)"><path fill="#ff5757" d="M 13.453125 30.285156 L 13.453125 35.335938 C 13.453125 35.644531 13.707031 35.894531 14.015625 35.894531 L 22.992188 35.894531 C 23.300781 35.894531 23.554688 35.644531 23.554688 35.335938 L 23.554688 30.285156 C 23.554688 28.339844 22.128906 26.722656 20.265625 26.414062 C 21.222656 25.820312 21.871094 24.757812 21.871094 23.554688 C 21.871094 21.695312 20.359375 20.1875 18.503906 20.1875 C 16.644531 20.1875 15.136719 21.695312 15.136719 23.554688 C 15.136719 24.765625 15.78125 25.820312 16.742188 26.414062 C 14.878906 26.722656 13.453125 28.339844 13.453125 30.285156 Z M 16.257812 23.554688 C 16.257812 22.3125 17.261719 21.308594 18.503906 21.308594 C 19.742188 21.308594 20.746094 22.3125 20.746094 23.554688 C 20.746094 24.792969 19.742188 25.796875 18.503906 25.796875 C 17.261719 25.796875 16.257812 24.792969 16.257812 23.554688 Z M 17.382812 27.480469 L 19.625 27.480469 C 21.175781 27.480469 22.429688 28.738281 22.429688 30.285156 L 22.429688 34.773438 L 14.574219 34.773438 L 14.574219 30.285156 C 14.574219 28.738281 15.832031 27.480469 17.382812 27.480469 Z M 17.382812 27.480469 " fill-opacity="1" fill-rule="nonzero"/></g><g clip-path="url(#9dd2501afb)"><path fill="#ff5757" d="M 25.234375 30.285156 L 25.234375 34.773438 C 25.234375 35.082031 25.488281 35.335938 25.796875 35.335938 L 33.652344 35.335938 C 33.960938 35.335938 34.214844 35.082031 34.214844 34.773438 L 34.214844 30.285156 C 34.214844 28.613281 32.984375 27.222656 31.386719 26.964844 C 32.160156 26.429688 32.671875 25.542969 32.671875 24.535156 C 32.671875 22.90625 31.347656 21.589844 29.726562 21.589844 C 28.101562 21.589844 26.777344 22.90625 26.777344 24.535156 C 26.777344 25.542969 27.289062 26.4375 28.0625 26.964844 C 26.464844 27.222656 25.234375 28.609375 25.234375 30.285156 Z M 27.902344 24.535156 C 27.902344 23.53125 28.71875 22.710938 29.726562 22.710938 C 30.730469 22.710938 31.546875 23.53125 31.546875 24.535156 C 31.546875 25.539062 30.730469 26.359375 29.726562 26.359375 C 28.71875 26.359375 27.902344 25.539062 27.902344 24.535156 Z M 26.359375 30.285156 C 26.359375 29.046875 27.363281 28.042969 28.601562 28.042969 L 30.847656 28.042969 C 32.085938 28.042969 33.089844 29.046875 33.089844 30.285156 L 33.089844 34.214844 L 26.359375 34.214844 Z M 26.359375 30.285156 " fill-opacity="1" fill-rule="nonzero"/></g><g clip-path="url(#b8febe029d)"><path fill="#ff5757" d="M 25.796875 13.453125 L 25.796875 2.230469 C 25.796875 1.613281 25.292969 1.109375 24.675781 1.109375 L 12.332031 1.109375 C 11.714844 1.109375 11.210938 1.613281 11.210938 2.230469 L 11.210938 13.453125 C 11.210938 14.070312 11.714844 14.574219 12.332031 14.574219 L 16.976562 14.574219 L 17.96875 17.5625 C 18.046875 17.789062 18.261719 17.941406 18.503906 17.941406 C 18.746094 17.941406 18.957031 17.785156 19.035156 17.5625 L 20.03125 14.574219 L 24.675781 14.574219 C 25.292969 14.574219 25.796875 14.070312 25.796875 13.453125 Z M 19.625 13.453125 C 19.382812 13.453125 19.171875 13.609375 19.09375 13.835938 L 18.503906 15.601562 L 17.914062 13.835938 C 17.835938 13.605469 17.621094 13.453125 17.382812 13.453125 L 12.332031 13.453125 L 12.332031 2.230469 L 24.675781 2.230469 L 24.675781 13.453125 Z M 19.625 13.453125 " fill-opacity="1" fill-rule="nonzero"/></g><g clip-path="url(#96ac068c90)"><path fill="#ff5757" d="M 34.773438 5.039062 L 27.480469 5.039062 L 27.480469 6.160156 L 34.773438 6.160156 L 34.773438 16.257812 L 30.683594 16.257812 C 30.460938 16.257812 30.257812 16.394531 30.167969 16.601562 L 29.726562 17.640625 L 29.28125 16.601562 C 29.191406 16.394531 28.988281 16.257812 28.765625 16.257812 L 24.675781 16.257812 L 24.675781 17.382812 L 28.394531 17.382812 L 29.207031 19.28125 C 29.296875 19.492188 29.5 19.625 29.726562 19.625 C 29.949219 19.625 30.152344 19.492188 30.242188 19.28125 L 31.054688 17.382812 L 34.773438 17.382812 C 35.390625 17.382812 35.894531 16.875 35.894531 16.257812 L 35.894531 6.160156 C 35.894531 5.542969 35.390625 5.039062 34.773438 5.039062 Z M 34.773438 5.039062 " fill-opacity="1" fill-rule="nonzero"/></g><g clip-path="url(#98f8fdd0ad)"><path fill="#ff5757" d="M 2.792969 30.285156 L 2.792969 34.773438 C 2.792969 35.082031 3.046875 35.335938 3.355469 35.335938 L 11.210938 35.335938 C 11.519531 35.335938 11.769531 35.082031 11.769531 34.773438 L 11.769531 30.285156 C 11.769531 28.613281 10.542969 27.222656 8.941406 26.964844 C 9.71875 26.429688 10.226562 25.542969 10.226562 24.535156 C 10.226562 22.90625 8.902344 21.589844 7.28125 21.589844 C 5.660156 21.589844 4.335938 22.90625 4.335938 24.535156 C 4.335938 25.542969 4.847656 26.4375 5.621094 26.964844 C 4.023438 27.222656 2.792969 28.609375 2.792969 30.285156 Z M 5.457031 24.535156 C 5.457031 23.53125 6.277344 22.710938 7.28125 22.710938 C 8.285156 22.710938 9.105469 23.53125 9.105469 24.535156 C 9.105469 25.539062 8.285156 26.359375 7.28125 26.359375 C 6.277344 26.359375 5.457031 25.539062 5.457031 24.535156 Z M 3.914062 30.285156 C 3.914062 29.046875 4.917969 28.042969 6.160156 28.042969 L 8.402344 28.042969 C 9.644531 28.042969 10.648438 29.046875 10.648438 30.285156 L 10.648438 34.214844 L 3.914062 34.214844 Z M 3.914062 30.285156 " fill-opacity="1" fill-rule="nonzero"/></g><g clip-path="url(#297caa69cb)"><path fill="#ff5757" d="M 2.230469 17.382812 L 5.953125 17.382812 L 6.765625 19.28125 C 6.855469 19.492188 7.058594 19.625 7.28125 19.625 C 7.507812 19.625 7.707031 19.492188 7.796875 19.28125 L 8.613281 17.382812 L 12.332031 17.382812 L 12.332031 16.257812 L 8.242188 16.257812 C 8.015625 16.257812 7.816406 16.394531 7.726562 16.601562 L 7.28125 17.640625 L 6.839844 16.601562 C 6.75 16.394531 6.546875 16.257812 6.324219 16.257812 L 2.230469 16.257812 L 2.230469 6.160156 L 9.527344 6.160156 L 9.527344 5.039062 L 2.230469 5.039062 C 1.613281 5.039062 1.109375 5.542969 1.109375 6.160156 L 1.109375 16.257812 C 1.109375 16.875 1.613281 17.382812 2.230469 17.382812 Z M 2.230469 17.382812 " fill-opacity="1" fill-rule="nonzero"/></g><path fill="#ff5757" d="M 21.554688 6.722656 L 20.976562 6.722656 L 21.273438 5.535156 C 21.441406 4.863281 21.074219 4.183594 20.4375 3.984375 C 19.792969 3.78125 19.105469 4.117188 18.863281 4.746094 L 18.308594 6.234375 C 18.199219 6.523438 17.914062 6.722656 17.605469 6.722656 L 17.382812 6.722656 C 17.382812 6.414062 17.128906 6.164062 16.820312 6.164062 L 14.574219 6.164062 C 14.265625 6.164062 14.015625 6.417969 14.015625 6.726562 L 14.015625 11.214844 C 14.015625 11.523438 14.265625 11.777344 14.574219 11.777344 L 16.820312 11.777344 C 17.09375 11.777344 17.3125 11.574219 17.359375 11.316406 L 17.910156 11.679688 C 18 11.742188 18.109375 11.777344 18.21875 11.777344 L 21.308594 11.777344 C 22.039062 11.777344 22.65625 11.226562 22.734375 10.496094 L 22.976562 8.308594 C 23.019531 7.90625 22.890625 7.496094 22.617188 7.191406 C 22.339844 6.890625 21.953125 6.714844 21.542969 6.714844 Z M 16.257812 10.652344 L 15.136719 10.652344 L 15.136719 7.289062 L 16.257812 7.289062 Z M 21.621094 10.375 C 21.605469 10.53125 21.472656 10.652344 21.3125 10.652344 L 18.390625 10.652344 L 17.691406 10.1875 C 17.601562 10.125 17.488281 10.09375 17.382812 10.09375 L 17.382812 7.84375 L 17.601562 7.84375 C 18.375 7.84375 19.082031 7.355469 19.355469 6.625 L 19.910156 5.136719 C 19.933594 5.070312 20.011719 5.019531 20.101562 5.050781 C 20.167969 5.070312 20.207031 5.171875 20.1875 5.257812 L 19.714844 7.140625 C 19.671875 7.308594 19.714844 7.488281 19.816406 7.625 C 19.917969 7.757812 20.085938 7.835938 20.257812 7.835938 L 21.554688 7.835938 C 21.679688 7.835938 21.75 7.90625 21.792969 7.945312 C 21.832031 7.984375 21.882812 8.066406 21.871094 8.183594 L 21.628906 10.375 Z M 21.621094 10.375 " fill-opacity="1" fill-rule="nonzero"/><path fill="#ff5757" d="M 29.230469 13.171875 L 30.191406 13.902344 C 30.292969 13.980469 30.410156 14.015625 30.527344 14.015625 C 30.644531 14.015625 30.769531 13.976562 30.863281 13.902344 L 31.824219 13.171875 C 32.429688 12.714844 32.941406 12.140625 33.34375 11.46875 C 33.816406 10.6875 33.726562 9.671875 33.117188 9.003906 C 32.769531 8.617188 32.300781 8.402344 31.796875 8.402344 C 31.3125 8.402344 30.863281 8.601562 30.519531 8.953125 C 30.179688 8.601562 29.726562 8.402344 29.246094 8.402344 C 28.742188 8.402344 28.269531 8.617188 27.921875 9.003906 C 27.324219 9.671875 27.226562 10.6875 27.699219 11.46875 C 28.101562 12.140625 28.613281 12.714844 29.21875 13.171875 Z M 28.765625 9.757812 C 28.898438 9.605469 29.074219 9.527344 29.253906 9.527344 C 29.433594 9.527344 29.613281 9.609375 29.746094 9.757812 L 30.117188 10.164062 C 30.332031 10.402344 30.738281 10.402344 30.949219 10.164062 L 31.316406 9.757812 C 31.585938 9.457031 32.03125 9.457031 32.300781 9.757812 C 32.5625 10.054688 32.609375 10.535156 32.394531 10.890625 C 32.0625 11.4375 31.648438 11.90625 31.15625 12.28125 L 30.53125 12.753906 L 29.910156 12.28125 C 29.417969 11.910156 29 11.4375 28.667969 10.890625 C 28.457031 10.542969 28.5 10.054688 28.765625 9.757812 Z M 28.765625 9.757812 " fill-opacity="1" fill-rule="nonzero"/><path fill="#ff5757" d="M 4.195312 8.683594 L 5.316406 8.683594 L 5.316406 9.808594 L 4.195312 9.808594 Z M 4.195312 8.683594 " fill-opacity="1" fill-rule="nonzero"/><path fill="#ff5757" d="M 7 8.683594 L 8.125 8.683594 L 8.125 9.808594 L 7 9.808594 Z M 7 8.683594 " fill-opacity="1" fill-rule="nonzero"/><path fill="#ff5757" d="M 6.160156 13.734375 C 7.707031 13.734375 8.964844 12.476562 8.964844 10.929688 L 7.84375 10.929688 C 7.84375 11.855469 7.085938 12.613281 6.160156 12.613281 C 5.234375 12.613281 4.476562 11.855469 4.476562 10.929688 L 3.355469 10.929688 C 3.355469 12.476562 4.609375 13.734375 6.160156 13.734375 Z M 6.160156 13.734375 " fill-opacity="1" fill-rule="nonzero"/></svg>