<svg xmlns="http://www.w3.org/2000/svg" xmlns:xlink="http://www.w3.org/1999/xlink" width="50" zoomAndPan="magnify" viewBox="0 0 37.5 37.499999" height="50" preserveAspectRatio="xMidYMid meet" version="1.0"><defs><clipPath id="84bddbffb3"><path d="M 0 0.960938 L 36.265625 0.960938 L 36.265625 37.007812 L 0 37.007812 Z M 0 0.960938 " clip-rule="nonzero"/></clipPath></defs><g clip-path="url(#84bddbffb3)"><path fill="#000000" d="M 10.519531 19.609375 C 10.140625 19.65625 9.753906 19.679688 9.359375 19.679688 C 4.191406 19.679688 0 15.492188 0 10.320312 C 0 5.152344 4.191406 0.960938 9.359375 0.960938 C 14.527344 0.960938 18.71875 5.152344 18.71875 10.320312 C 18.71875 10.714844 18.695312 11.101562 18.648438 11.484375 C 22.449219 11.738281 25.492188 14.78125 25.746094 18.582031 C 26.125 18.535156 26.515625 18.511719 26.90625 18.511719 C 32.078125 18.511719 36.265625 22.699219 36.265625 27.871094 C 36.265625 33.039062 32.078125 37.230469 26.90625 37.230469 C 21.738281 37.230469 17.546875 33.039062 17.546875 27.871094 C 17.546875 27.476562 17.574219 27.089844 17.621094 26.707031 C 13.816406 26.453125 10.773438 23.410156 10.519531 19.609375 Z M 17.464844 11.496094 C 17.519531 11.113281 17.546875 10.71875 17.546875 10.320312 C 17.546875 5.796875 13.882812 2.132812 9.359375 2.132812 C 4.835938 2.132812 1.167969 5.796875 1.167969 10.320312 C 1.167969 12.234375 1.824219 13.992188 2.925781 15.386719 C 3.53125 13.335938 5.097656 11.691406 7.097656 10.972656 C 6.234375 10.296875 5.675781 9.246094 5.675781 8.070312 C 5.675781 6.042969 7.332031 4.386719 9.359375 4.386719 C 11.386719 4.386719 13.042969 6.042969 13.042969 8.070312 C 13.042969 9.246094 12.484375 10.296875 11.617188 10.972656 C 12.582031 11.316406 13.441406 11.875 14.144531 12.59375 C 15.128906 11.988281 16.253906 11.601562 17.464844 11.496094 Z M 3.886719 16.414062 C 5.339844 17.71875 7.257812 18.511719 9.359375 18.511719 C 9.757812 18.511719 10.148438 18.480469 10.535156 18.425781 C 10.710938 16.375 11.703125 14.554688 13.1875 13.289062 C 12.191406 12.335938 10.84375 11.753906 9.359375 11.753906 C 6.597656 11.753906 4.308594 13.773438 3.886719 16.414062 Z M 25.734375 19.765625 C 25.648438 20.738281 25.382812 21.65625 24.964844 22.492188 C 25.53125 22.136719 26.195312 21.933594 26.90625 21.933594 C 28.933594 21.933594 30.589844 23.589844 30.589844 25.617188 C 30.589844 26.792969 30.03125 27.847656 29.167969 28.523438 C 31.171875 29.238281 32.734375 30.882812 33.34375 32.9375 C 34.441406 31.542969 35.097656 29.78125 35.097656 27.871094 C 35.097656 23.347656 31.429688 19.679688 26.90625 19.679688 C 26.507812 19.679688 26.117188 19.707031 25.734375 19.765625 Z M 23.351562 24.660156 C 22.136719 25.796875 20.554688 26.542969 18.800781 26.695312 C 18.746094 27.078125 18.71875 27.472656 18.71875 27.871094 C 18.71875 29.78125 19.375 31.542969 20.472656 32.9375 C 21.082031 30.882812 22.644531 29.238281 24.648438 28.523438 C 23.78125 27.847656 23.222656 26.792969 23.222656 25.617188 C 23.222656 25.285156 23.269531 24.964844 23.351562 24.660156 Z M 21.4375 33.964844 C 22.886719 35.265625 24.804688 36.058594 26.90625 36.058594 C 29.011719 36.058594 30.929688 35.265625 32.378906 33.964844 C 31.957031 31.320312 29.667969 29.300781 26.90625 29.300781 C 24.148438 29.300781 21.859375 31.320312 21.4375 33.964844 Z M 9.359375 10.582031 C 10.742188 10.582031 11.871094 9.453125 11.871094 8.070312 C 11.871094 6.6875 10.742188 5.554688 9.359375 5.554688 C 7.976562 5.554688 6.84375 6.6875 6.84375 8.070312 C 6.84375 9.453125 7.976562 10.582031 9.359375 10.582031 Z M 26.90625 28.132812 C 28.289062 28.132812 29.421875 27 29.421875 25.617188 C 29.421875 24.234375 28.289062 23.105469 26.90625 23.105469 C 25.523438 23.105469 24.394531 24.234375 24.394531 25.617188 C 24.394531 27 25.523438 28.132812 26.90625 28.132812 Z M 18.132812 12.636719 C 14.570312 12.636719 11.675781 15.53125 11.675781 19.09375 C 11.675781 22.660156 14.570312 25.554688 18.132812 25.554688 C 21.699219 25.554688 24.59375 22.660156 24.59375 19.09375 C 24.59375 15.53125 21.699219 12.636719 18.132812 12.636719 Z M 18.742188 14.375 L 21.671875 17.824219 C 21.671875 17.828125 21.671875 17.828125 21.675781 17.828125 C 21.875 18.074219 21.917969 18.386719 21.789062 18.675781 C 21.789062 18.675781 21.785156 18.675781 21.785156 18.679688 C 21.652344 18.964844 21.378906 19.140625 21.0625 19.140625 L 20.28125 19.140625 L 20.28125 23.085938 C 20.28125 23.644531 19.828125 24.097656 19.273438 24.097656 L 16.992188 24.097656 C 16.4375 24.097656 15.984375 23.644531 15.984375 23.085938 L 15.984375 19.140625 L 15.203125 19.140625 C 14.886719 19.140625 14.613281 18.964844 14.480469 18.679688 C 14.480469 18.675781 14.480469 18.675781 14.476562 18.675781 C 14.347656 18.386719 14.390625 18.074219 14.59375 17.828125 C 14.59375 17.828125 14.59375 17.828125 14.597656 17.824219 L 17.523438 14.375 C 17.527344 14.375 17.527344 14.375 17.527344 14.371094 C 17.683594 14.191406 17.890625 14.09375 18.132812 14.09375 C 18.371094 14.09375 18.582031 14.191406 18.738281 14.371094 C 18.738281 14.375 18.742188 14.375 18.742188 14.375 Z M 16.007812 17.96875 L 16.570312 17.96875 C 16.890625 17.96875 17.152344 18.230469 17.152344 18.554688 L 17.152344 22.925781 L 19.113281 22.925781 L 19.113281 18.554688 C 19.113281 18.230469 19.375 17.96875 19.699219 17.96875 L 20.257812 17.96875 L 18.132812 15.46875 C 17.640625 16.046875 16.625 17.242188 16.007812 17.96875 Z M 10.128906 26.679688 C 10.800781 28.980469 12.109375 31.933594 16.222656 31.890625 C 16.464844 31.890625 16.679688 32.03125 16.769531 32.253906 C 16.863281 32.476562 16.808594 32.730469 16.636719 32.898438 C 14.515625 34.949219 11.316406 35.398438 8.636719 33.710938 C 7.015625 32.691406 5.578125 30.878906 4.726562 28.128906 L 3.390625 28.484375 C 3.171875 28.546875 2.9375 28.472656 2.792969 28.296875 C 2.644531 28.125 2.613281 27.878906 2.707031 27.675781 L 5.65625 21.335938 C 5.730469 21.171875 5.878906 21.054688 6.050781 21.011719 C 6.226562 20.972656 6.410156 21.011719 6.550781 21.125 L 11.738281 25.285156 C 11.910156 25.421875 11.988281 25.644531 11.945312 25.863281 C 11.898438 26.078125 11.738281 26.25 11.523438 26.308594 Z M 9.253906 25.703125 L 10.105469 25.476562 C 10.105469 25.476562 6.402344 22.503906 6.402344 22.503906 L 4.296875 27.03125 L 4.976562 26.851562 C 5.289062 26.765625 5.609375 26.953125 5.695312 27.261719 C 6.421875 29.976562 7.730469 31.761719 9.257812 32.71875 C 10.996094 33.8125 13.003906 33.816406 14.625 32.9375 C 10.710938 32.246094 9.492188 28.855469 8.84375 26.421875 C 8.757812 26.109375 8.945312 25.789062 9.253906 25.703125 Z M 26.136719 11.511719 C 25.464844 9.210938 24.15625 6.257812 20.042969 6.300781 C 19.804688 6.300781 19.585938 6.15625 19.496094 5.9375 C 19.402344 5.714844 19.457031 5.460938 19.628906 5.292969 C 21.75 3.242188 24.949219 2.792969 27.632812 4.480469 C 29.25 5.5 30.691406 7.3125 31.539062 10.0625 L 32.875 9.703125 C 33.09375 9.644531 33.328125 9.71875 33.476562 9.894531 C 33.621094 10.066406 33.652344 10.308594 33.558594 10.515625 L 30.609375 16.855469 C 30.535156 17.019531 30.390625 17.136719 30.214844 17.179688 C 30.039062 17.21875 29.855469 17.179688 29.714844 17.066406 L 24.527344 12.90625 C 24.355469 12.765625 24.277344 12.542969 24.320312 12.328125 C 24.367188 12.113281 24.53125 11.941406 24.742188 11.882812 Z M 27.011719 12.488281 L 26.160156 12.714844 C 26.160156 12.714844 29.863281 15.6875 29.863281 15.6875 L 31.96875 11.160156 L 31.289062 11.339844 C 30.976562 11.425781 30.65625 11.238281 30.574219 10.925781 C 29.847656 8.214844 28.535156 6.429688 27.007812 5.46875 C 25.269531 4.378906 23.265625 4.375 21.640625 5.253906 C 25.554688 5.945312 26.773438 9.335938 27.425781 11.769531 C 27.507812 12.082031 27.324219 12.402344 27.011719 12.488281 Z M 27.011719 12.488281 " fill-opacity="1" fill-rule="evenodd"/></g></svg>