<svg xmlns="http://www.w3.org/2000/svg" xmlns:xlink="http://www.w3.org/1999/xlink" width="50" zoomAndPan="magnify" viewBox="0 0 37.5 37.499999" height="50" preserveAspectRatio="xMidYMid meet" version="1.0"><defs><clipPath id="d97553deec"><path d="M 0.640625 9 L 36.167969 9 L 36.167969 33.304688 L 0.640625 33.304688 Z M 0.640625 9 " clip-rule="nonzero"/></clipPath><clipPath id="d7e2e011c7"><path d="M 10 3.699219 L 27 3.699219 L 27 20 L 10 20 Z M 10 3.699219 " clip-rule="nonzero"/></clipPath></defs><g clip-path="url(#d97553deec)"><path fill="#000000" d="M 35.613281 29.941406 L 34.78125 29.941406 L 34.78125 11.527344 C 34.78125 10.609375 34.03125 9.855469 33.113281 9.855469 L 27.257812 9.855469 C 27.425781 10.1875 27.535156 10.578125 27.5625 10.96875 L 33.113281 10.96875 C 33.421875 10.96875 33.671875 11.222656 33.671875 11.527344 L 33.671875 29.941406 L 3.140625 29.941406 L 3.140625 11.527344 C 3.140625 11.222656 3.390625 10.96875 3.695312 10.96875 L 9.246094 10.96875 C 9.273438 10.578125 9.382812 10.1875 9.550781 9.855469 L 3.695312 9.855469 C 2.777344 9.855469 2.03125 10.609375 2.03125 11.527344 L 2.03125 29.941406 L 1.195312 29.941406 C 0.890625 29.941406 0.640625 30.191406 0.640625 30.5 C 0.640625 32.035156 1.890625 33.289062 3.417969 33.289062 L 33.394531 33.289062 C 34.917969 33.289062 36.167969 32.035156 36.167969 30.5 C 36.167969 30.191406 35.917969 29.941406 35.613281 29.941406 Z M 33.394531 32.175781 L 3.417969 32.175781 C 2.695312 32.175781 2.085938 31.699219 1.835938 31.058594 L 34.945312 31.058594 C 34.726562 31.699219 34.113281 32.175781 33.394531 32.175781 Z M 33.394531 32.175781 " fill-opacity="1" fill-rule="nonzero"/></g><path fill="#000000" d="M 21.734375 21.015625 L 15.074219 21.015625 C 14.90625 21.015625 14.742188 21.097656 14.628906 21.238281 C 14.519531 21.375 14.492188 21.542969 14.519531 21.710938 C 14.574219 21.933594 14.65625 22.632812 14.769531 25.003906 C 14.796875 25.617188 15.128906 26.148438 15.628906 26.398438 C 15.796875 27.765625 16.960938 28.824219 18.378906 28.824219 C 19.792969 28.824219 20.957031 27.765625 21.125 26.398438 C 21.625 26.121094 21.984375 25.617188 21.984375 25.003906 C 22.097656 22.632812 22.179688 21.933594 22.234375 21.710938 C 22.261719 21.542969 22.234375 21.375 22.125 21.238281 C 22.070312 21.097656 21.902344 21.015625 21.734375 21.015625 Z M 20.929688 24.949219 C 20.929688 25.253906 20.679688 25.476562 20.375 25.476562 L 16.433594 25.476562 C 16.128906 25.476562 15.90625 25.253906 15.878906 24.949219 C 15.878906 24.753906 15.851562 24.558594 15.851562 24.363281 L 20.929688 24.363281 C 20.929688 24.558594 20.929688 24.753906 20.929688 24.949219 Z M 21.097656 22.128906 C 21.070312 22.4375 21.042969 22.800781 21.015625 23.246094 L 15.796875 23.246094 C 15.769531 22.800781 15.742188 22.4375 15.710938 22.128906 Z M 18.40625 27.710938 C 17.683594 27.710938 17.074219 27.234375 16.851562 26.59375 L 19.988281 26.59375 C 19.738281 27.234375 19.125 27.710938 18.40625 27.710938 Z M 18.40625 27.710938 " fill-opacity="1" fill-rule="nonzero"/><path fill="#000000" d="M 32.003906 12.085938 L 29.785156 12.085938 C 29.480469 12.085938 29.230469 12.335938 29.230469 12.644531 C 29.230469 12.953125 29.480469 13.203125 29.785156 13.203125 L 32.003906 13.203125 C 32.308594 13.203125 32.558594 12.953125 32.558594 12.644531 C 32.558594 12.335938 32.308594 12.085938 32.003906 12.085938 Z M 32.003906 12.085938 " fill-opacity="1" fill-rule="nonzero"/><path fill="#000000" d="M 32.003906 14.320312 L 30.894531 14.320312 C 30.589844 14.320312 30.339844 14.570312 30.339844 14.875 C 30.339844 15.183594 30.589844 15.433594 30.894531 15.433594 L 32.003906 15.433594 C 32.308594 15.433594 32.558594 15.183594 32.558594 14.875 C 32.558594 14.570312 32.308594 14.320312 32.003906 14.320312 Z M 32.003906 14.320312 " fill-opacity="1" fill-rule="nonzero"/><path fill="#000000" d="M 7.582031 12.644531 C 7.582031 12.335938 7.332031 12.085938 7.027344 12.085938 L 4.804688 12.085938 C 4.5 12.085938 4.25 12.335938 4.25 12.644531 C 4.25 12.953125 4.5 13.203125 4.804688 13.203125 L 7.027344 13.203125 C 7.332031 13.203125 7.582031 12.953125 7.582031 12.644531 Z M 7.582031 12.644531 " fill-opacity="1" fill-rule="nonzero"/><path fill="#000000" d="M 4.804688 14.320312 C 4.5 14.320312 4.25 14.570312 4.25 14.875 C 4.25 15.183594 4.5 15.433594 4.804688 15.433594 L 5.914062 15.433594 C 6.21875 15.433594 6.46875 15.183594 6.46875 14.875 C 6.46875 14.570312 6.21875 14.320312 5.914062 14.320312 Z M 4.804688 14.320312 " fill-opacity="1" fill-rule="nonzero"/><g clip-path="url(#d7e2e011c7)"><path fill="#000000" d="M 11.773438 14.207031 C 11.855469 14.402344 11.9375 14.625 12.019531 14.820312 C 11.578125 15.519531 11.632812 16.4375 12.242188 17.050781 L 13.1875 18 C 13.519531 18.335938 13.964844 18.53125 14.4375 18.53125 C 14.796875 18.53125 15.128906 18.417969 15.40625 18.222656 C 15.601562 18.308594 15.796875 18.390625 16.019531 18.476562 C 16.183594 19.285156 16.90625 19.898438 17.765625 19.898438 L 19.097656 19.898438 C 19.960938 19.898438 20.679688 19.285156 20.847656 18.476562 C 21.042969 18.390625 21.265625 18.308594 21.457031 18.222656 C 21.734375 18.417969 22.070312 18.53125 22.429688 18.53125 C 22.902344 18.53125 23.34375 18.335938 23.679688 18 L 24.621094 17.050781 C 25.234375 16.4375 25.289062 15.519531 24.84375 14.820312 C 24.925781 14.625 25.011719 14.429688 25.09375 14.207031 C 25.898438 14.039062 26.507812 13.3125 26.507812 12.449219 L 26.507812 11.109375 C 26.507812 10.246094 25.898438 9.519531 25.09375 9.351562 C 25.011719 9.15625 24.925781 8.933594 24.84375 8.738281 C 25.289062 8.039062 25.234375 7.121094 24.621094 6.507812 L 23.679688 5.558594 C 23.34375 5.222656 22.902344 5.027344 22.429688 5.027344 C 22.070312 5.027344 21.734375 5.140625 21.457031 5.335938 C 21.265625 5.25 21.070312 5.167969 20.847656 5.082031 C 20.625 4.332031 19.929688 3.714844 19.070312 3.714844 L 17.738281 3.714844 C 16.878906 3.714844 16.15625 4.332031 15.992188 5.140625 C 15.796875 5.222656 15.574219 5.308594 15.378906 5.390625 C 15.101562 5.195312 14.769531 5.082031 14.410156 5.082031 C 13.9375 5.082031 13.492188 5.277344 13.160156 5.613281 L 12.214844 6.5625 C 11.605469 7.175781 11.550781 8.097656 11.992188 8.792969 C 11.910156 8.988281 11.828125 9.183594 11.742188 9.40625 C 10.964844 9.574219 10.355469 10.273438 10.355469 11.136719 L 10.355469 12.476562 C 10.355469 13.34375 10.964844 14.039062 11.773438 14.207031 Z M 11.464844 11.136719 C 11.464844 10.773438 11.773438 10.46875 12.132812 10.46875 C 12.410156 10.46875 12.660156 10.300781 12.742188 10.023438 C 12.855469 9.660156 12.992188 9.324219 13.160156 9.015625 C 13.296875 8.765625 13.242188 8.460938 13.046875 8.265625 C 12.796875 8.011719 12.796875 7.59375 13.046875 7.316406 L 13.992188 6.367188 C 14.128906 6.226562 14.296875 6.171875 14.464844 6.171875 C 14.628906 6.171875 14.796875 6.226562 14.9375 6.367188 C 15.046875 6.480469 15.214844 6.5625 15.378906 6.5625 C 15.492188 6.5625 15.574219 6.535156 15.683594 6.480469 C 15.992188 6.3125 16.351562 6.171875 16.683594 6.058594 C 16.933594 5.976562 17.128906 5.726562 17.128906 5.445312 C 17.128906 5.082031 17.433594 4.777344 17.792969 4.777344 L 19.125 4.777344 C 19.488281 4.777344 19.792969 5.082031 19.792969 5.445312 C 19.792969 5.726562 19.960938 5.976562 20.238281 6.058594 C 20.597656 6.171875 20.929688 6.3125 21.234375 6.480469 C 21.320312 6.535156 21.429688 6.5625 21.542969 6.5625 C 21.707031 6.5625 21.875 6.507812 21.984375 6.367188 C 22.125 6.226562 22.289062 6.171875 22.457031 6.171875 C 22.625 6.171875 22.789062 6.226562 22.929688 6.367188 L 23.871094 7.316406 C 24.121094 7.566406 24.121094 7.984375 23.871094 8.265625 C 23.679688 8.460938 23.621094 8.765625 23.761719 9.015625 C 23.929688 9.324219 24.066406 9.6875 24.179688 10.023438 C 24.261719 10.273438 24.511719 10.46875 24.789062 10.46875 C 25.148438 10.46875 25.453125 10.773438 25.453125 11.136719 L 25.453125 12.476562 C 25.453125 12.839844 25.148438 13.148438 24.789062 13.148438 C 24.511719 13.148438 24.261719 13.3125 24.179688 13.59375 C 24.066406 13.957031 23.929688 14.289062 23.761719 14.597656 C 23.621094 14.847656 23.679688 15.15625 23.871094 15.351562 C 24.121094 15.601562 24.121094 16.019531 23.871094 16.300781 L 22.847656 17.21875 C 22.707031 17.359375 22.539062 17.414062 22.375 17.414062 C 22.207031 17.414062 22.039062 17.359375 21.902344 17.21875 C 21.792969 17.109375 21.625 17.023438 21.457031 17.023438 C 21.347656 17.023438 21.265625 17.050781 21.152344 17.109375 C 20.847656 17.277344 20.488281 17.414062 20.152344 17.527344 C 19.902344 17.609375 19.710938 17.863281 19.710938 18.140625 C 19.710938 18.503906 19.402344 18.808594 19.042969 18.808594 L 17.710938 18.808594 C 17.351562 18.808594 17.046875 18.503906 17.046875 18.140625 C 17.046875 17.863281 16.878906 17.609375 16.601562 17.527344 C 16.238281 17.414062 15.90625 17.277344 15.601562 17.109375 C 15.519531 17.050781 15.40625 17.023438 15.296875 17.023438 C 15.128906 17.023438 14.964844 17.082031 14.851562 17.21875 C 14.714844 17.359375 14.546875 17.414062 14.378906 17.414062 C 14.214844 17.414062 14.046875 17.359375 13.910156 17.21875 L 13.019531 16.269531 C 12.769531 16.019531 12.769531 15.601562 13.019531 15.324219 C 13.214844 15.128906 13.269531 14.820312 13.132812 14.570312 C 12.964844 14.261719 12.828125 13.898438 12.714844 13.566406 C 12.632812 13.3125 12.382812 13.117188 12.105469 13.117188 C 11.742188 13.117188 11.4375 12.8125 11.4375 12.449219 L 11.4375 11.136719 Z M 11.464844 11.136719 " fill-opacity="1" fill-rule="nonzero"/></g><path fill="#000000" d="M 18.40625 16.828125 C 21.152344 16.828125 23.402344 14.570312 23.402344 11.808594 C 23.402344 9.046875 21.152344 6.785156 18.40625 6.785156 C 15.65625 6.785156 13.410156 9.046875 13.410156 11.808594 C 13.410156 14.570312 15.65625 16.828125 18.40625 16.828125 Z M 18.40625 7.902344 C 20.542969 7.902344 22.289062 9.660156 22.289062 11.808594 C 22.289062 13.957031 20.542969 15.714844 18.40625 15.714844 C 16.269531 15.714844 14.519531 13.957031 14.519531 11.808594 C 14.519531 9.660156 16.269531 7.902344 18.40625 7.902344 Z M 18.40625 7.902344 " fill-opacity="1" fill-rule="nonzero"/><path fill="#000000" d="M 17.460938 13.035156 C 17.574219 13.148438 17.710938 13.203125 17.851562 13.203125 C 17.988281 13.203125 18.128906 13.148438 18.238281 13.035156 L 19.902344 11.359375 C 20.125 11.136719 20.125 10.773438 19.902344 10.578125 C 19.683594 10.382812 19.320312 10.355469 19.125 10.578125 L 17.851562 11.863281 L 17.683594 11.695312 C 17.460938 11.472656 17.128906 11.472656 16.90625 11.695312 C 16.683594 11.917969 16.683594 12.253906 16.90625 12.476562 Z M 17.460938 13.035156 " fill-opacity="1" fill-rule="nonzero"/></svg>