<svg xmlns="http://www.w3.org/2000/svg" xmlns:xlink="http://www.w3.org/1999/xlink" width="50" zoomAndPan="magnify" viewBox="0 0 37.5 37.499999" height="50" preserveAspectRatio="xMidYMid meet" version="1.0"><defs><clipPath id="e816c918f5"><path d="M 11 11 L 36.84375 11 L 36.84375 37 L 11 37 Z M 11 11 " clip-rule="nonzero"/></clipPath></defs><path fill="#00bf63" d="M 17.722656 9.960938 C 17.597656 9.75 17.328125 9.679688 17.113281 9.796875 L 16.035156 10.410156 C 15.683594 10.136719 15.296875 9.914062 14.882812 9.75 L 14.882812 8.539062 C 14.882812 8.292969 14.683594 8.09375 14.4375 8.09375 L 11.820312 8.09375 C 11.574219 8.09375 11.375 8.292969 11.375 8.539062 L 11.375 9.75 C 10.960938 9.914062 10.574219 10.136719 10.222656 10.410156 L 9.144531 9.796875 C 8.929688 9.679688 8.660156 9.75 8.535156 9.960938 L 7.230469 12.1875 C 7.167969 12.292969 7.152344 12.414062 7.183594 12.53125 C 7.214844 12.644531 7.289062 12.742188 7.394531 12.804688 L 8.460938 13.410156 C 8.398438 13.847656 8.398438 14.277344 8.460938 14.714844 C 8.460938 14.714844 7.394531 15.320312 7.394531 15.320312 C 7.179688 15.433594 7.101562 15.726562 7.230469 15.933594 C 7.230469 15.933594 8.535156 18.160156 8.535156 18.160156 C 8.660156 18.371094 8.929688 18.445312 9.144531 18.324219 C 9.144531 18.324219 10.222656 17.710938 10.222656 17.710938 C 10.574219 17.988281 10.960938 18.207031 11.375 18.371094 L 11.375 19.582031 C 11.375 19.828125 11.574219 20.03125 11.820312 20.03125 L 14.4375 20.03125 C 14.683594 20.03125 14.882812 19.828125 14.882812 19.582031 L 14.882812 18.371094 C 15.296875 18.207031 15.683594 17.988281 16.035156 17.710938 L 17.113281 18.324219 C 17.328125 18.445312 17.597656 18.371094 17.722656 18.160156 L 19.027344 15.933594 C 19.089844 15.832031 19.105469 15.707031 19.074219 15.59375 C 19.042969 15.476562 18.96875 15.378906 18.863281 15.320312 C 18.863281 15.320312 17.796875 14.714844 17.796875 14.714844 C 17.859375 14.277344 17.859375 13.84375 17.796875 13.410156 C 17.796875 13.410156 18.863281 12.804688 18.863281 12.804688 C 19.074219 12.6875 19.15625 12.394531 19.027344 12.1875 C 19.027344 12.1875 17.722656 9.960938 17.722656 9.960938 Z M 17.078125 12.789062 C 16.632812 13.066406 17.015625 13.648438 16.949219 14.0625 C 17.015625 14.472656 16.628906 15.054688 17.078125 15.335938 C 17.078125 15.335938 18.027344 15.875 18.027344 15.875 C 18.027344 15.875 17.171875 17.328125 17.171875 17.328125 L 16.210938 16.78125 C 16.042969 16.6875 15.832031 16.710938 15.691406 16.835938 C 15.28125 17.203125 14.8125 17.46875 14.300781 17.628906 C 14.113281 17.6875 13.988281 17.863281 13.988281 18.054688 L 13.988281 19.136719 L 12.269531 19.136719 L 12.269531 18.054688 C 12.269531 17.863281 12.140625 17.6875 11.957031 17.628906 C 11.441406 17.46875 10.976562 17.199219 10.566406 16.835938 C 10.421875 16.710938 10.214844 16.6875 10.046875 16.78125 L 9.085938 17.328125 L 8.230469 15.875 L 9.179688 15.335938 C 9.347656 15.238281 9.4375 15.042969 9.394531 14.851562 C 9.28125 14.320312 9.28125 13.804688 9.394531 13.273438 C 9.4375 13.082031 9.347656 12.886719 9.179688 12.789062 L 8.230469 12.25 C 8.230469 12.25 9.085938 10.792969 9.085938 10.792969 L 10.046875 11.339844 C 10.214844 11.433594 10.421875 11.414062 10.566406 11.285156 C 10.976562 10.921875 11.441406 10.65625 11.957031 10.492188 C 12.140625 10.433594 12.269531 10.261719 12.269531 10.066406 L 12.269531 8.988281 L 13.988281 8.988281 L 13.988281 10.066406 C 13.988281 10.261719 14.113281 10.433594 14.300781 10.492188 C 14.8125 10.65625 15.28125 10.921875 15.691406 11.285156 C 15.832031 11.414062 16.042969 11.433594 16.210938 11.339844 C 16.210938 11.339844 17.171875 10.792969 17.171875 10.792969 C 17.171875 10.792969 18.027344 12.25 18.027344 12.25 Z M 17.078125 12.789062 " fill-opacity="1" fill-rule="nonzero"/><path fill="#00bf63" d="M 13.128906 11.625 C 9.878906 11.726562 9.878906 16.394531 13.128906 16.496094 C 16.378906 16.394531 16.378906 11.726562 13.128906 11.625 Z M 13.128906 15.601562 C 11.066406 15.550781 11.066406 12.574219 13.128906 12.519531 C 15.191406 12.574219 15.191406 15.550781 13.128906 15.601562 Z M 13.128906 15.601562 " fill-opacity="1" fill-rule="nonzero"/><path fill="#00bf63" d="M 17.449219 30.847656 C 17.308594 30.953125 17.136719 31.011719 16.964844 31.011719 L 8.203125 31.011719 C 7.75 31.011719 7.382812 30.644531 7.382812 30.195312 C 7.3125 29.648438 7.609375 29.117188 8.210938 29.109375 C 8.210938 29.109375 13.554688 29.109375 13.554688 29.109375 C 13.800781 29.109375 14.003906 28.910156 14.003906 28.664062 C 14.003906 28.417969 13.800781 28.21875 13.554688 28.21875 L 8.210938 28.21875 C 7.621094 28.210938 7.3125 27.6875 7.382812 27.144531 C 7.382812 26.691406 7.75 26.324219 8.203125 26.324219 L 11.546875 26.324219 C 12.132812 26.320312 12.132812 25.429688 11.546875 25.429688 C 11.546875 25.429688 8.652344 25.429688 8.652344 25.429688 C 8.652344 25.429688 8.652344 24.171875 8.652344 24.171875 C 8.652344 22.191406 7.871094 20.355469 6.511719 19.132812 C 0.578125 13.816406 4.386719 4.128906 12.304688 3.878906 C 16.695312 3.742188 20.503906 6.691406 21.375 10.875 C 21.507812 11.453125 22.363281 11.261719 22.25 10.691406 C 19.609375 -0.59375 3.125 1.035156 2.710938 12.605469 C 2.691406 15.328125 3.863281 17.949219 5.914062 19.796875 C 7.085938 20.851562 7.757812 22.445312 7.757812 24.171875 L 7.757812 25.496094 C 6.929688 25.707031 6.402344 26.53125 6.488281 27.394531 C 6.488281 27.898438 6.710938 28.347656 7.0625 28.664062 C 6.632812 29.027344 6.441406 29.617188 6.488281 30.195312 C 6.488281 31.136719 7.257812 31.90625 8.203125 31.90625 L 9.273438 31.90625 L 9.585938 33.457031 C 9.867188 34.863281 11.128906 35.882812 12.585938 35.882812 C 14.042969 35.882812 15.304688 34.863281 15.585938 33.457031 L 15.898438 31.90625 C 16.515625 31.878906 17.472656 32.027344 17.980469 31.566406 C 18.445312 31.210938 17.921875 30.503906 17.449219 30.847656 Z M 14.710938 33.28125 C 14.246094 35.535156 10.925781 35.535156 10.460938 33.28125 C 10.460938 33.28125 10.1875 31.90625 10.1875 31.90625 L 14.984375 31.90625 Z M 14.710938 33.28125 " fill-opacity="1" fill-rule="nonzero"/><path fill="#00bf63" d="M 13.8125 20.625 C 13.542969 20.609375 13.359375 20.816406 13.351562 21.0625 C 13.300781 23.171875 14.09375 25.152344 15.585938 26.632812 C 20.347656 31.402344 28.679688 28 28.660156 21.246094 C 28.769531 16.351562 23.769531 12.554688 19.066406 13.867188 C 18.503906 14.019531 18.726562 14.871094 19.292969 14.730469 C 21.609375 14.132812 24.097656 14.800781 25.789062 16.480469 C 28.40625 18.988281 28.410156 23.496094 25.789062 26 C 23.148438 28.625 18.855469 28.628906 16.21875 26 C 14.898438 24.691406 14.199219 22.945312 14.246094 21.085938 C 14.253906 20.835938 14.058594 20.632812 13.8125 20.625 Z M 13.8125 20.625 " fill-opacity="1" fill-rule="nonzero"/><g clip-path="url(#e816c918f5)"><path fill="#00bf63" d="M 35.828125 33.84375 L 28.703125 26.742188 C 31.40625 23.011719 31.011719 17.84375 27.710938 14.558594 C 25.738281 12.597656 23.023438 11.601562 20.246094 11.820312 C 20 11.839844 19.816406 12.054688 19.835938 12.300781 C 19.855469 12.546875 20.074219 12.726562 20.316406 12.710938 C 22.828125 12.511719 25.292969 13.417969 27.082031 15.195312 C 30.875 18.851562 30.257812 25.390625 25.863281 28.296875 C 20.21875 32.222656 12.21875 27.996094 12.410156 21.082031 C 12.417969 20.503906 11.550781 20.472656 11.515625 21.0625 C 11.308594 28.527344 19.792969 33.246094 26.054688 29.230469 C 26.054688 29.230469 33.257812 36.40625 33.257812 36.40625 C 33.613281 36.761719 34.082031 36.9375 34.546875 36.9375 C 36.113281 36.980469 36.992188 34.933594 35.828125 33.84375 Z M 35.199219 35.777344 C 34.839844 36.136719 34.253906 36.132812 33.890625 35.773438 L 26.796875 28.710938 C 27.117188 28.46875 27.425781 28.210938 27.710938 27.925781 C 27.878906 27.757812 28.019531 27.605469 28.152344 27.457031 L 35.199219 34.476562 C 35.558594 34.820312 35.558594 35.433594 35.199219 35.777344 Z M 35.199219 35.777344 " fill-opacity="1" fill-rule="nonzero"/></g><path fill="#00bf63" d="M 18.644531 21.117188 L 17.046875 21.117188 C 16.800781 21.117188 16.597656 21.316406 16.597656 21.5625 L 16.597656 23.527344 L 16.199219 23.527344 C 15.617188 23.527344 15.613281 24.417969 16.199219 24.417969 C 18.480469 24.417969 21.074219 24.417969 23.359375 24.417969 C 23.902344 24.414062 25.277344 24.421875 25.804688 24.417969 C 26.386719 24.417969 26.390625 23.527344 25.804688 23.527344 C 25.804688 23.527344 25.40625 23.527344 25.40625 23.527344 L 25.40625 18.511719 C 25.40625 18.265625 25.203125 18.0625 24.957031 18.0625 L 23.359375 18.0625 C 23.113281 18.0625 22.914062 18.265625 22.914062 18.511719 L 22.914062 23.527344 L 22.246094 23.527344 L 22.246094 20.011719 C 22.246094 19.761719 22.046875 19.5625 21.800781 19.5625 L 20.203125 19.5625 C 19.957031 19.5625 19.757812 19.761719 19.757812 20.011719 L 19.757812 23.527344 L 19.089844 23.527344 L 19.089844 21.5625 C 19.089844 21.316406 18.890625 21.117188 18.640625 21.117188 Z M 17.492188 23.527344 L 17.492188 22.007812 L 18.195312 22.007812 L 18.195312 23.527344 Z M 23.808594 18.957031 L 24.511719 18.957031 L 24.511719 23.527344 L 23.808594 23.527344 Z M 20.652344 20.457031 L 21.351562 20.457031 L 21.351562 23.527344 L 20.652344 23.527344 Z M 20.652344 20.457031 " fill-opacity="1" fill-rule="nonzero"/></svg>