<svg xmlns="http://www.w3.org/2000/svg" xmlns:xlink="http://www.w3.org/1999/xlink" width="50" zoomAndPan="magnify" viewBox="0 0 37.5 37.499999" height="50" preserveAspectRatio="xMidYMid meet" version="1.0"><defs><clipPath id="9d7599976e"><path d="M 11 11 L 35 11 L 35 36.265625 L 11 36.265625 Z M 11 11 " clip-rule="nonzero"/></clipPath></defs><path fill="#000000" d="M 16.949219 10.183594 C 16.828125 9.980469 16.570312 9.910156 16.371094 10.027344 L 15.339844 10.617188 C 15 10.351562 14.632812 10.140625 14.238281 9.980469 L 14.238281 8.8125 C 14.238281 8.574219 14.046875 8.382812 13.8125 8.382812 L 11.3125 8.382812 C 11.078125 8.382812 10.886719 8.574219 10.886719 8.8125 L 10.886719 9.980469 C 10.492188 10.140625 10.125 10.351562 9.785156 10.617188 L 8.753906 10.027344 C 8.550781 9.910156 8.296875 9.980469 8.175781 10.183594 L 6.929688 12.332031 C 6.871094 12.433594 6.855469 12.550781 6.882812 12.664062 C 6.914062 12.773438 6.988281 12.867188 7.085938 12.925781 L 8.105469 13.511719 C 8.046875 13.933594 8.046875 14.347656 8.105469 14.769531 C 8.105469 14.769531 7.085938 15.355469 7.085938 15.355469 C 6.882812 15.464844 6.808594 15.746094 6.929688 15.945312 C 6.929688 15.945312 8.175781 18.09375 8.175781 18.09375 C 8.296875 18.296875 8.550781 18.367188 8.753906 18.25 C 8.753906 18.25 9.785156 17.660156 9.785156 17.660156 C 10.125 17.925781 10.492188 18.140625 10.886719 18.296875 L 10.886719 19.464844 C 10.886719 19.703125 11.078125 19.898438 11.3125 19.898438 L 13.8125 19.898438 C 14.046875 19.898438 14.238281 19.703125 14.238281 19.464844 L 14.238281 18.296875 C 14.632812 18.140625 15 17.925781 15.339844 17.660156 L 16.371094 18.25 C 16.570312 18.367188 16.828125 18.296875 16.949219 18.09375 L 18.195312 15.945312 C 18.253906 15.847656 18.269531 15.730469 18.242188 15.617188 C 18.210938 15.503906 18.136719 15.410156 18.039062 15.355469 C 18.039062 15.355469 17.019531 14.769531 17.019531 14.769531 C 17.078125 14.347656 17.078125 13.929688 17.019531 13.511719 C 17.019531 13.511719 18.039062 12.925781 18.039062 12.925781 C 18.242188 12.816406 18.316406 12.53125 18.195312 12.332031 C 18.195312 12.332031 16.949219 10.183594 16.949219 10.183594 Z M 16.335938 12.914062 C 15.90625 13.179688 16.273438 13.742188 16.210938 14.140625 C 16.273438 14.539062 15.90625 15.097656 16.335938 15.367188 C 16.335938 15.367188 17.242188 15.886719 17.242188 15.886719 C 17.242188 15.886719 16.425781 17.292969 16.425781 17.292969 L 15.503906 16.765625 C 15.34375 16.671875 15.144531 16.695312 15.011719 16.816406 C 14.617188 17.167969 14.171875 17.425781 13.683594 17.582031 C 13.503906 17.640625 13.382812 17.804688 13.382812 17.992188 L 13.382812 19.035156 L 11.742188 19.035156 L 11.742188 17.992188 C 11.742188 17.804688 11.621094 17.640625 11.441406 17.582031 C 10.953125 17.425781 10.507812 17.167969 10.113281 16.816406 C 9.980469 16.695312 9.78125 16.671875 9.621094 16.765625 L 8.699219 17.292969 L 7.882812 15.886719 L 8.789062 15.367188 C 8.953125 15.273438 9.035156 15.085938 8.996094 14.902344 C 8.886719 14.390625 8.886719 13.890625 8.996094 13.378906 C 9.035156 13.195312 8.953125 13.003906 8.789062 12.914062 L 7.882812 12.390625 C 7.882812 12.390625 8.699219 10.988281 8.699219 10.988281 L 9.621094 11.515625 C 9.78125 11.605469 9.980469 11.585938 10.113281 11.460938 C 10.507812 11.109375 10.953125 10.855469 11.441406 10.695312 C 11.621094 10.640625 11.742188 10.472656 11.742188 10.285156 L 11.742188 9.246094 L 13.382812 9.246094 L 13.382812 10.285156 C 13.382812 10.472656 13.503906 10.640625 13.683594 10.695312 C 14.171875 10.851562 14.617188 11.109375 15.011719 11.460938 C 15.144531 11.585938 15.34375 11.605469 15.503906 11.515625 C 15.503906 11.515625 16.425781 10.988281 16.425781 10.988281 C 16.425781 10.988281 17.242188 12.390625 17.242188 12.390625 Z M 16.335938 12.914062 " fill-opacity="1" fill-rule="nonzero"/><path fill="#000000" d="M 12.5625 11.789062 C 9.460938 11.890625 9.460938 16.390625 12.5625 16.488281 C 15.664062 16.390625 15.664062 11.890625 12.5625 11.789062 Z M 12.5625 15.628906 C 10.59375 15.574219 10.59375 12.703125 12.5625 12.652344 C 14.535156 12.703125 14.53125 15.574219 12.5625 15.628906 Z M 12.5625 15.628906 " fill-opacity="1" fill-rule="nonzero"/><path fill="#000000" d="M 16.6875 30.332031 C 16.550781 30.433594 16.386719 30.488281 16.222656 30.488281 L 7.859375 30.488281 C 7.425781 30.488281 7.074219 30.136719 7.074219 29.703125 C 7.011719 29.171875 7.292969 28.660156 7.867188 28.65625 C 7.867188 28.65625 12.96875 28.65625 12.96875 28.65625 C 13.207031 28.65625 13.398438 28.464844 13.398438 28.226562 C 13.398438 27.988281 13.207031 27.792969 12.96875 27.792969 L 7.867188 27.792969 C 7.300781 27.789062 7.007812 27.285156 7.074219 26.761719 C 7.074219 26.324219 7.425781 25.96875 7.859375 25.96875 L 11.050781 25.96875 C 11.609375 25.964844 11.609375 25.109375 11.050781 25.105469 C 11.050781 25.105469 8.285156 25.105469 8.285156 25.105469 C 8.285156 25.105469 8.285156 23.890625 8.285156 23.890625 C 8.285156 21.984375 7.542969 20.210938 6.246094 19.03125 C 0.578125 13.90625 4.214844 4.558594 11.777344 4.316406 C 15.96875 4.1875 19.605469 7.03125 20.4375 11.066406 C 20.5625 11.625 21.378906 11.441406 21.273438 10.890625 C 18.75 0.00390625 3.011719 1.574219 2.613281 12.734375 C 2.597656 15.359375 3.710938 17.890625 5.675781 19.671875 C 6.792969 20.6875 7.433594 22.226562 7.433594 23.890625 L 7.433594 25.167969 C 6.640625 25.375 6.140625 26.167969 6.222656 27 C 6.222656 27.488281 6.433594 27.921875 6.769531 28.226562 C 6.359375 28.578125 6.175781 29.144531 6.222656 29.703125 C 6.222656 30.613281 6.957031 31.351562 7.859375 31.351562 L 8.882812 31.351562 L 9.179688 32.847656 C 9.445312 34.207031 10.652344 35.191406 12.042969 35.191406 C 13.4375 35.191406 14.640625 34.207031 14.910156 32.847656 L 15.207031 31.351562 C 15.796875 31.328125 16.710938 31.46875 17.195312 31.027344 C 17.640625 30.683594 17.136719 30 16.6875 30.332031 Z M 14.074219 32.679688 C 13.628906 34.855469 10.457031 34.855469 10.015625 32.679688 C 10.015625 32.679688 9.753906 31.355469 9.753906 31.355469 L 14.335938 31.355469 Z M 14.074219 32.679688 " fill-opacity="1" fill-rule="nonzero"/><path fill="#000000" d="M 13.214844 20.472656 C 12.957031 20.457031 12.78125 20.65625 12.777344 20.894531 C 12.726562 22.929688 13.484375 24.835938 14.910156 26.265625 C 19.457031 30.867188 27.414062 27.585938 27.394531 21.070312 C 27.5 16.351562 22.726562 12.683594 18.234375 13.953125 C 17.695312 14.097656 17.90625 14.921875 18.449219 14.785156 C 20.660156 14.207031 23.039062 14.855469 24.652344 16.472656 C 27.152344 18.890625 27.15625 23.238281 24.652344 25.65625 C 22.132812 28.191406 18.03125 28.191406 15.511719 25.65625 C 14.253906 24.394531 13.585938 22.710938 13.628906 20.914062 C 13.636719 20.675781 13.449219 20.480469 13.214844 20.472656 Z M 13.214844 20.472656 " fill-opacity="1" fill-rule="nonzero"/><g clip-path="url(#9d7599976e)"><path fill="#000000" d="M 34.242188 33.222656 L 27.433594 26.375 C 30.015625 22.773438 29.640625 17.789062 26.488281 14.621094 C 24.605469 12.730469 22.011719 11.765625 19.359375 11.980469 C 19.125 11.996094 18.949219 12.207031 18.96875 12.441406 C 18.988281 12.679688 19.195312 12.851562 19.425781 12.839844 C 21.824219 12.644531 24.179688 13.519531 25.886719 15.230469 C 29.511719 18.761719 28.921875 25.070312 24.722656 27.871094 C 19.335938 31.660156 11.695312 27.582031 11.878906 20.914062 C 11.886719 20.355469 11.058594 20.324219 11.023438 20.894531 C 10.824219 28.09375 18.929688 32.644531 24.90625 28.773438 C 24.90625 28.773438 31.789062 35.695312 31.789062 35.695312 C 32.128906 36.035156 32.574219 36.207031 33.019531 36.207031 C 34.511719 36.25 35.351562 34.273438 34.242188 33.222656 Z M 33.640625 35.089844 C 33.296875 35.433594 32.734375 35.433594 32.390625 35.085938 L 25.617188 28.273438 C 25.921875 28.039062 26.214844 27.789062 26.488281 27.511719 C 26.648438 27.351562 26.785156 27.203125 26.910156 27.0625 L 33.640625 33.832031 C 33.984375 34.164062 33.984375 34.753906 33.640625 35.089844 Z M 33.640625 35.089844 " fill-opacity="1" fill-rule="nonzero"/></g><path fill="#000000" d="M 17.828125 20.945312 L 16.304688 20.945312 C 16.066406 20.945312 15.878906 21.136719 15.878906 21.375 L 15.878906 23.269531 L 15.496094 23.269531 C 14.9375 23.269531 14.933594 24.128906 15.496094 24.132812 C 17.675781 24.132812 20.152344 24.132812 22.335938 24.132812 C 22.851562 24.125 24.164062 24.136719 24.667969 24.132812 C 25.222656 24.128906 25.230469 23.273438 24.667969 23.269531 C 24.667969 23.269531 24.285156 23.269531 24.285156 23.269531 L 24.285156 18.433594 C 24.285156 18.195312 24.09375 18 23.859375 18 L 22.335938 18 C 22.097656 18 21.90625 18.195312 21.90625 18.433594 L 21.90625 23.269531 L 21.269531 23.269531 L 21.269531 19.878906 C 21.269531 19.640625 21.078125 19.445312 20.84375 19.445312 L 19.320312 19.445312 C 19.082031 19.445312 18.894531 19.640625 18.894531 19.878906 L 18.894531 23.269531 L 18.253906 23.269531 L 18.253906 21.375 C 18.253906 21.136719 18.0625 20.945312 17.828125 20.945312 Z M 16.730469 23.269531 L 16.730469 21.808594 L 17.402344 21.808594 L 17.402344 23.269531 Z M 22.761719 18.863281 L 23.433594 18.863281 L 23.433594 23.269531 L 22.761719 23.269531 Z M 19.746094 20.308594 L 20.417969 20.308594 L 20.417969 23.269531 L 19.746094 23.269531 Z M 19.746094 20.308594 " fill-opacity="1" fill-rule="nonzero"/></svg>