<svg xmlns="http://www.w3.org/2000/svg" xmlns:xlink="http://www.w3.org/1999/xlink" width="50" zoomAndPan="magnify" viewBox="0 0 37.5 37.499999" height="50" preserveAspectRatio="xMidYMid meet" version="1.0"><defs><clipPath id="f74b322b77"><path d="M 1.09375 1 L 37.007812 1 L 37.007812 34.996094 L 1.09375 34.996094 Z M 1.09375 1 " clip-rule="nonzero"/></clipPath></defs><g clip-path="url(#f74b322b77)"><path fill="#000000" d="M 26.4375 21.433594 C 27.042969 21.636719 27.59375 21.949219 28.066406 22.367188 L 29.242188 21.988281 C 29.390625 21.941406 29.554688 22.011719 29.625 22.148438 L 30.5625 23.753906 C 30.640625 23.878906 30.609375 24.042969 30.5 24.144531 L 29.578125 24.953125 C 29.640625 25.257812 29.671875 25.570312 29.671875 25.890625 C 29.671875 26.199219 29.640625 26.511719 29.578125 26.824219 L 30.5 27.632812 C 30.617188 27.742188 30.640625 27.914062 30.546875 28.046875 L 29.609375 29.652344 C 29.53125 29.785156 29.382812 29.839844 29.242188 29.792969 L 28.066406 29.410156 C 27.59375 29.824219 27.042969 30.140625 26.4375 30.34375 L 26.1875 31.535156 C 26.15625 31.683594 26.027344 31.785156 25.878906 31.785156 L 23.980469 31.785156 C 23.824219 31.785156 23.691406 31.667969 23.667969 31.511719 L 23.421875 30.34375 C 22.816406 30.140625 22.265625 29.832031 21.792969 29.410156 L 20.628906 29.792969 C 20.472656 29.839844 20.304688 29.769531 20.242188 29.628906 L 19.304688 28.023438 C 19.234375 27.890625 19.257812 27.734375 19.367188 27.632812 L 20.28125 26.824219 C 20.21875 26.511719 20.1875 26.199219 20.1875 25.890625 C 20.1875 25.578125 20.21875 25.265625 20.28125 24.953125 L 19.367188 24.144531 C 19.25 24.042969 19.226562 23.871094 19.3125 23.738281 L 20.257812 22.125 C 20.335938 21.996094 20.488281 21.941406 20.628906 21.988281 L 21.792969 22.367188 C 22.265625 21.957031 22.816406 21.636719 23.421875 21.433594 L 23.675781 20.242188 C 23.707031 20.09375 23.839844 19.992188 23.980469 19.992188 L 25.886719 19.992188 C 26.042969 19.992188 26.179688 20.109375 26.203125 20.265625 Z M 26.988281 22.359375 C 26.714844 22.203125 26.414062 22.070312 26.101562 21.988281 C 25.988281 21.957031 25.894531 21.871094 25.863281 21.746094 L 25.628906 20.625 L 24.234375 20.625 L 23.996094 21.746094 C 23.972656 21.855469 23.894531 21.949219 23.777344 21.980469 C 23.195312 22.148438 22.519531 22.507812 22.101562 22.929688 C 22.023438 23.015625 21.886719 23.054688 21.769531 23.015625 L 20.667969 22.65625 L 19.976562 23.847656 L 20.832031 24.613281 C 20.921875 24.679688 20.960938 24.796875 20.929688 24.914062 C 20.847656 25.234375 20.808594 25.5625 20.808594 25.882812 C 20.808594 26.199219 20.847656 26.519531 20.921875 26.832031 C 20.960938 26.941406 20.929688 27.074219 20.824219 27.160156 L 19.960938 27.921875 L 20.652344 29.113281 L 21.753906 28.753906 C 21.863281 28.722656 21.984375 28.746094 22.070312 28.824219 C 22.511719 29.246094 23.148438 29.628906 23.746094 29.792969 C 23.855469 29.824219 23.957031 29.90625 23.980469 30.03125 L 24.21875 31.15625 L 25.613281 31.15625 L 25.847656 30.03125 C 25.871094 29.921875 25.949219 29.832031 26.070312 29.800781 C 26.652344 29.628906 27.328125 29.269531 27.746094 28.847656 C 27.824219 28.761719 27.957031 28.722656 28.074219 28.761719 L 29.179688 29.121094 L 29.871094 27.929688 L 29.003906 27.167969 C 28.917969 27.097656 28.878906 26.980469 28.910156 26.863281 C 28.988281 26.542969 29.027344 26.222656 29.027344 25.898438 C 29.027344 25.578125 28.988281 25.257812 28.917969 24.945312 C 28.878906 24.835938 28.910156 24.703125 29.011719 24.621094 L 29.878906 23.855469 L 29.1875 22.664062 L 28.082031 23.023438 C 27.972656 23.0625 27.855469 23.03125 27.769531 22.953125 C 27.539062 22.71875 27.273438 22.523438 26.988281 22.359375 Z M 24.925781 23.164062 C 26.445312 23.164062 27.675781 24.378906 27.675781 25.882812 C 27.675781 27.382812 26.445312 28.597656 24.925781 28.597656 C 23.40625 28.597656 22.179688 27.382812 22.179688 25.882812 C 22.179688 24.386719 23.414062 23.164062 24.925781 23.164062 Z M 26.429688 24.402344 C 25.101562 23.085938 22.808594 24.019531 22.808594 25.882812 C 22.808594 27.742188 25.101562 28.683594 26.429688 27.359375 C 27.257812 26.550781 27.257812 25.21875 26.429688 24.402344 Z M 24.925781 17.585938 C 25.15625 17.585938 25.382812 17.59375 25.605469 17.609375 L 25.605469 15.367188 L 24.003906 16.945312 C 23.878906 17.070312 23.683594 17.070312 23.566406 16.945312 L 22.992188 16.378906 L 22.992188 17.804688 C 23.613281 17.664062 24.265625 17.585938 24.925781 17.585938 Z M 26.242188 17.6875 C 27.515625 17.890625 28.691406 18.363281 29.707031 19.058594 L 29.707031 11.316406 L 26.242188 14.742188 Z M 30.335938 19.53125 C 34.097656 22.671875 34.34375 28.3125 30.863281 31.753906 C 27.585938 34.996094 22.273438 34.996094 19 31.753906 C 18.28125 31.046875 17.699219 30.210938 17.273438 29.292969 C 15.929688 32.246094 12.960938 34.183594 9.625 34.183594 C 4.988281 34.191406 1.230469 30.46875 1.230469 25.890625 C 1.230469 24.308594 1.679688 22.828125 2.453125 21.574219 L 1.46875 20.59375 C 1.34375 20.46875 1.34375 20.273438 1.46875 20.15625 L 3.261719 18.378906 C 3.386719 18.253906 3.585938 18.253906 3.703125 18.378906 L 4.578125 19.246094 C 5.640625 18.457031 6.890625 17.914062 8.261719 17.6875 L 8.261719 16.769531 C 7.664062 16.769531 7.199219 16.824219 6.71875 16.355469 C 5.820312 15.46875 6.472656 13.964844 7.71875 13.964844 L 11.503906 13.964844 C 11.8125 13.964844 12.101562 14.066406 12.339844 14.238281 L 19.203125 7.445312 C 19.328125 7.320312 19.527344 7.320312 19.652344 7.445312 L 23.785156 11.535156 L 30.40625 4.984375 L 29.066406 3.652344 C 28.902344 3.488281 28.957031 3.191406 29.234375 3.128906 L 36.894531 1.011719 C 37.128906 0.949219 37.347656 1.160156 37.277344 1.398438 L 35.128906 8.996094 C 35.066406 9.226562 34.773438 9.296875 34.601562 9.132812 L 33.253906 7.800781 L 30.335938 10.691406 Z M 16.945312 28.445312 C 16.675781 27.640625 16.535156 26.777344 16.535156 25.882812 C 16.535156 24.984375 16.675781 24.128906 16.945312 23.320312 C 16.738281 22.75 16.472656 22.203125 16.140625 21.707031 C 16.132812 21.699219 16.125 21.683594 16.117188 21.667969 C 15.675781 20.996094 15.125 20.398438 14.496094 19.898438 C 13.992188 19.507812 13.574219 19.230469 12.976562 18.949219 C 9.984375 17.53125 6.449219 18.164062 4.136719 20.445312 C 1.105469 23.441406 1.105469 28.304688 4.136719 31.300781 C 6.820312 33.957031 11.054688 34.308594 14.140625 32.121094 C 15.425781 31.222656 16.410156 29.9375 16.945312 28.445312 Z M 17.273438 22.476562 C 17.542969 21.894531 17.875 21.339844 18.265625 20.839844 L 18.265625 14.027344 L 15.644531 16.621094 L 15.644531 18.316406 C 15.753906 18.277344 15.890625 18.300781 15.976562 18.386719 L 17.769531 20.164062 C 17.898438 20.289062 17.898438 20.484375 17.769531 20.601562 L 16.785156 21.574219 C 16.976562 21.863281 17.132812 22.164062 17.273438 22.476562 Z M 18.898438 20.117188 C 19.847656 19.144531 21.03125 18.402344 22.359375 17.984375 L 22.359375 15.761719 L 19.433594 12.867188 L 18.890625 13.402344 L 18.890625 20.117188 Z M 30.421875 20.460938 L 29.816406 19.914062 C 28.722656 19.035156 27.375 18.449219 25.902344 18.269531 C 24.714844 18.148438 23.917969 18.207031 22.753906 18.519531 C 21.488281 18.886719 20.351562 19.5625 19.449219 20.460938 C 16.425781 23.449219 16.410156 28.3125 19.449219 31.316406 C 22.480469 34.316406 27.390625 34.316406 30.421875 31.316406 C 33.453125 28.320312 33.453125 23.449219 30.421875 20.460938 Z M 9.9375 24.386719 C 10.867188 24.574219 11.417969 25.554688 11.070312 26.441406 L 12.046875 27.066406 C 12.394531 27.28125 12.054688 27.8125 11.710938 27.585938 L 10.734375 26.964844 C 9.75 27.945312 8.074219 27.253906 8.074219 25.890625 C 8.074219 25.15625 8.601562 24.535156 9.308594 24.386719 L 9.308594 22.382812 C 9.308594 21.980469 9.9375 21.980469 9.9375 22.382812 Z M 10.277344 25.242188 C 9.703125 24.671875 8.703125 25.078125 8.703125 25.890625 C 8.703125 26.699219 9.695312 27.105469 10.277344 26.535156 C 10.632812 26.175781 10.632812 25.59375 10.277344 25.242188 Z M 9.308594 20.917969 C 9.308594 20.507812 9.9375 20.507812 9.9375 20.917969 L 9.9375 21.300781 C 9.9375 21.707031 9.308594 21.707031 9.308594 21.300781 Z M 14.125 28.101562 C 14.480469 28.304688 14.164062 28.847656 13.8125 28.636719 L 13.472656 28.445312 C 13.117188 28.242188 13.425781 27.703125 13.789062 27.90625 Z M 14.636719 25.578125 C 15.046875 25.578125 15.046875 26.199219 14.636719 26.199219 L 14.253906 26.199219 C 13.835938 26.199219 13.835938 25.578125 14.253906 25.578125 Z M 13.8125 23.132812 C 14.164062 22.929688 14.480469 23.464844 14.125 23.667969 L 13.789062 23.855469 C 13.425781 24.058594 13.117188 23.519531 13.472656 23.320312 Z M 6.84375 21.746094 C 6.640625 21.394531 7.183594 21.082031 7.386719 21.433594 L 7.578125 21.769531 C 7.78125 22.117188 7.238281 22.429688 7.035156 22.078125 Z M 5.121094 23.675781 C 4.757812 23.472656 5.074219 22.9375 5.433594 23.140625 L 5.773438 23.335938 C 6.128906 23.535156 5.820312 24.074219 5.457031 23.871094 Z M 4.609375 26.199219 C 4.191406 26.199219 4.191406 25.578125 4.609375 25.578125 L 4.996094 25.578125 C 5.410156 25.578125 5.410156 26.199219 4.996094 26.199219 Z M 5.433594 28.636719 C 5.082031 28.839844 4.765625 28.304688 5.121094 28.101562 L 5.457031 27.914062 C 5.8125 27.710938 6.128906 28.25 5.773438 28.453125 Z M 7.386719 30.335938 C 7.183594 30.695312 6.632812 30.382812 6.84375 30.023438 L 7.035156 29.691406 C 7.238281 29.339844 7.789062 29.652344 7.578125 30 Z M 9.9375 30.851562 C 9.9375 31.261719 9.308594 31.261719 9.308594 30.851562 L 9.308594 30.46875 C 9.308594 30.054688 9.9375 30.054688 9.9375 30.46875 Z M 12.402344 30.023438 C 12.605469 30.382812 12.0625 30.695312 11.859375 30.335938 L 11.664062 30 C 11.457031 29.652344 12 29.339844 12.207031 29.691406 Z M 11.859375 21.433594 C 12.0625 21.074219 12.605469 21.386719 12.402344 21.746094 L 12.214844 22.078125 C 12.007812 22.429688 11.457031 22.117188 11.671875 21.769531 Z M 9.625 19.59375 C 13.132812 19.59375 15.976562 22.40625 15.976562 25.882812 C 15.976562 29.355469 13.132812 32.167969 9.625 32.167969 C 6.113281 32.167969 3.269531 29.355469 3.269531 25.882812 C 3.269531 22.414062 6.113281 19.59375 9.625 19.59375 Z M 13.667969 21.878906 C 11.433594 19.664062 7.804688 19.664062 5.570312 21.878906 C 3.332031 24.089844 3.332031 27.671875 5.570312 29.882812 C 7.804688 32.097656 11.433594 32.097656 13.667969 29.882812 C 15.90625 27.679688 15.90625 24.089844 13.667969 21.878906 Z M 2.804688 21.042969 C 3.183594 20.53125 3.617188 20.0625 4.097656 19.640625 L 3.492188 19.042969 L 2.136719 20.382812 Z M 8.898438 17.609375 C 9.378906 17.570312 9.859375 17.570312 10.347656 17.609375 L 10.347656 16.769531 L 8.898438 16.769531 Z M 10.976562 17.6875 C 11.703125 17.804688 12.394531 18.015625 13.046875 18.300781 L 19.210938 12.203125 C 19.335938 12.078125 19.535156 12.078125 19.660156 12.203125 L 23.792969 16.292969 L 33.035156 7.140625 C 33.160156 7.015625 33.359375 7.015625 33.484375 7.140625 L 34.671875 8.316406 L 36.523438 1.757812 L 29.894531 3.597656 L 31.082031 4.773438 C 31.207031 4.898438 31.207031 5.09375 31.082031 5.214844 L 24.023438 12.203125 C 23.894531 12.328125 23.699219 12.328125 23.582031 12.203125 L 19.449219 8.113281 L 12.765625 14.710938 C 13.277344 15.636719 12.582031 16.777344 11.519531 16.777344 L 10.976562 16.777344 Z M 13.644531 18.597656 C 14 18.792969 14.339844 19.003906 14.660156 19.246094 L 15.023438 18.886719 L 15.023438 17.234375 Z M 15.148438 19.640625 C 15.628906 20.0625 16.0625 20.53125 16.441406 21.042969 L 17.109375 20.382812 L 15.753906 19.042969 Z M 11.519531 14.59375 L 7.734375 14.59375 C 7.042969 14.59375 6.679688 15.429688 7.175781 15.917969 C 7.316406 16.058594 7.511719 16.144531 7.734375 16.144531 L 11.519531 16.144531 C 12.214844 16.144531 12.574219 15.3125 12.078125 14.820312 C 11.929688 14.679688 11.734375 14.59375 11.519531 14.59375 Z M 11.519531 14.59375 " fill-opacity="1" fill-rule="nonzero"/></g></svg>