<svg xmlns="http://www.w3.org/2000/svg" xmlns:xlink="http://www.w3.org/1999/xlink" width="50" zoomAndPan="magnify" viewBox="0 0 37.5 37.499999" height="50" preserveAspectRatio="xMidYMid meet" version="1.0"><defs><clipPath id="a361b5b541"><path d="M 1.183594 6.050781 L 35.96875 6.050781 L 35.96875 35.65625 L 1.183594 35.65625 Z M 1.183594 6.050781 " clip-rule="nonzero"/></clipPath></defs><g clip-path="url(#a361b5b541)"><path fill="#ffffff" d="M 25.488281 28.066406 C 25.488281 28.378906 25.234375 28.628906 24.925781 28.628906 L 22.382812 28.628906 C 22.113281 28.628906 21.894531 28.847656 21.894531 29.117188 L 21.894531 34.367188 C 21.894531 34.402344 21.863281 34.433594 21.832031 34.433594 L 17.132812 34.433594 C 17.097656 34.433594 17.066406 34.402344 17.066406 34.367188 L 17.066406 29.117188 C 17.066406 28.847656 16.847656 28.628906 16.578125 28.628906 L 12.570312 28.628906 C 12.308594 28.628906 12.09375 28.414062 12.09375 28.152344 C 12.09375 27.886719 12.308594 27.671875 12.570312 27.671875 L 18.238281 27.671875 L 17.890625 30.851562 C 17.871094 31.019531 17.9375 31.183594 18.070312 31.289062 L 19.175781 32.171875 C 19.355469 32.3125 19.605469 32.3125 19.785156 32.171875 L 20.890625 31.289062 C 21.019531 31.183594 21.089844 31.019531 21.070312 30.851562 L 20.726562 27.671875 L 24.042969 27.671875 C 24.3125 27.671875 24.53125 27.453125 24.53125 27.183594 L 24.53125 24.800781 C 24.53125 24.535156 24.746094 24.320312 25.007812 24.320312 C 25.273438 24.320312 25.488281 24.535156 25.488281 24.800781 Z M 20.070312 30.691406 L 19.742188 27.671875 L 19.21875 27.671875 L 18.890625 30.691406 L 19.480469 31.164062 Z M 18.203125 24.527344 C 18.203125 25.230469 18.777344 25.800781 19.480469 25.800781 C 20.183594 25.800781 20.757812 25.230469 20.757812 24.527344 C 20.757812 23.820312 20.183594 23.25 19.480469 23.25 C 18.777344 23.25 18.203125 23.820312 18.203125 24.527344 Z M 25.007812 23.34375 C 24.207031 23.34375 23.554688 23.996094 23.554688 24.800781 L 23.554688 26.695312 L 20.09375 26.695312 C 21.039062 26.425781 21.734375 25.554688 21.734375 24.527344 C 21.734375 23.28125 20.722656 22.273438 19.480469 22.273438 C 18.238281 22.273438 17.226562 23.28125 17.226562 24.527344 C 17.226562 25.554688 17.921875 26.425781 18.867188 26.695312 L 12.570312 26.695312 C 11.769531 26.695312 11.117188 27.347656 11.117188 28.152344 C 11.117188 28.953125 11.769531 29.605469 12.570312 29.605469 L 16.089844 29.605469 L 16.089844 34.371094 C 16.089844 34.945312 16.558594 35.410156 17.132812 35.410156 L 21.832031 35.410156 C 22.402344 35.410156 22.871094 34.945312 22.871094 34.371094 L 22.871094 29.605469 L 24.925781 29.605469 C 25.773438 29.605469 26.464844 28.914062 26.464844 28.066406 L 26.464844 24.800781 C 26.464844 23.996094 25.8125 23.34375 25.007812 23.34375 Z M 31.925781 16.003906 L 28.816406 16.003906 L 31 13.574219 L 34.105469 13.574219 Z M 31.652344 17.589844 L 25.742188 17.589844 L 25.742188 16.984375 L 31.652344 16.984375 Z M 25.253906 16.003906 L 27.503906 16.003906 L 28.890625 14.464844 L 28.890625 13.722656 C 28.890625 12.371094 27.789062 11.269531 26.4375 11.269531 C 25.082031 11.269531 23.980469 12.371094 23.980469 13.722656 L 23.980469 17.589844 L 24.761719 17.589844 L 24.761719 16.496094 C 24.761719 16.222656 24.980469 16.003906 25.253906 16.003906 Z M 25.160156 8.308594 C 25.160156 7.605469 25.730469 7.03125 26.4375 7.03125 C 27.140625 7.03125 27.714844 7.605469 27.714844 8.308594 C 27.714844 9.011719 27.140625 9.585938 26.4375 9.585938 C 25.730469 9.585938 25.160156 9.011719 25.160156 8.308594 Z M 35.648438 12.886719 C 35.570312 12.710938 35.394531 12.597656 35.203125 12.597656 L 30.78125 12.597656 C 30.644531 12.597656 30.511719 12.65625 30.417969 12.757812 L 29.851562 13.394531 C 29.710938 11.941406 28.664062 10.75 27.28125 10.398438 C 28.105469 10.0625 28.691406 9.253906 28.691406 8.308594 C 28.691406 7.066406 27.679688 6.054688 26.4375 6.054688 C 25.195312 6.054688 24.183594 7.066406 24.183594 8.308594 C 24.183594 9.253906 24.765625 10.0625 25.589844 10.398438 C 24.105469 10.773438 23.003906 12.121094 23.003906 13.722656 L 23.003906 17.605469 C 23.003906 18.136719 23.4375 18.566406 23.964844 18.566406 L 32.140625 18.566406 C 32.410156 18.566406 32.628906 18.347656 32.628906 18.078125 L 32.628906 16.679688 L 35.566406 13.414062 C 35.695312 13.269531 35.726562 13.0625 35.648438 12.886719 Z M 30.71875 19.960938 C 30.582031 22.417969 29.683594 24.722656 28.113281 26.621094 C 27.9375 26.828125 27.632812 26.855469 27.421875 26.683594 C 27.214844 26.511719 27.1875 26.207031 27.359375 25.996094 C 28.796875 24.261719 29.621094 22.15625 29.742188 19.910156 C 29.757812 19.640625 29.988281 19.433594 30.257812 19.449219 C 30.527344 19.460938 30.734375 19.691406 30.71875 19.960938 Z M 11.148438 26.683594 C 10.9375 26.855469 10.632812 26.828125 10.460938 26.621094 C 8.890625 24.722656 7.988281 22.417969 7.851562 19.960938 C 7.839844 19.691406 8.042969 19.460938 8.3125 19.445312 C 8.582031 19.433594 8.8125 19.640625 8.828125 19.910156 C 8.953125 22.15625 9.777344 24.261719 11.214844 25.996094 C 11.386719 26.207031 11.355469 26.511719 11.148438 26.683594 Z M 15.003906 9.214844 C 14.910156 8.964844 15.039062 8.683594 15.292969 8.589844 C 17.859375 7.632812 20.714844 7.632812 23.28125 8.589844 C 23.789062 8.777344 23.648438 9.535156 23.109375 9.535156 C 23.054688 9.535156 22.996094 9.523438 22.941406 9.503906 C 20.59375 8.628906 17.980469 8.628906 15.632812 9.503906 C 15.378906 9.597656 15.097656 9.46875 15.003906 9.214844 Z M 6.417969 14.441406 L 11.78125 18.578125 C 11.992188 18.742188 12.03125 19.050781 11.867188 19.261719 L 11.382812 19.890625 L 12.359375 21.464844 L 14.339844 22.15625 L 14.667969 21.726562 L 12.867188 20.335938 C 12.65625 20.171875 12.613281 19.863281 12.78125 19.648438 L 13.792969 18.335938 C 13.957031 18.125 14.265625 18.085938 14.476562 18.25 L 16.277344 19.640625 L 16.609375 19.210938 L 15.441406 17.46875 L 13.671875 16.925781 L 13.1875 17.554688 C 13.023438 17.769531 12.714844 17.808594 12.5 17.640625 L 7.140625 13.503906 C 6.929688 13.34375 6.886719 13.035156 7.050781 12.820312 L 7.535156 12.191406 L 6.5625 10.621094 L 4.582031 9.929688 L 4.25 10.359375 L 6.054688 11.746094 C 6.265625 11.914062 6.304688 12.21875 6.140625 12.433594 L 5.128906 13.746094 C 4.964844 13.960938 4.65625 14 4.441406 13.835938 L 2.640625 12.445312 L 2.308594 12.871094 L 3.480469 14.613281 L 5.25 15.15625 L 5.734375 14.527344 C 5.898438 14.316406 6.207031 14.277344 6.417969 14.441406 Z M 11.914062 12.285156 C 13.269531 12.285156 14.367188 13.386719 14.367188 14.738281 L 14.367188 16.117188 L 13.636719 15.894531 C 13.441406 15.832031 13.230469 15.902344 13.105469 16.0625 L 12.710938 16.570312 L 9.539062 14.121094 C 9.816406 13.058594 10.792969 12.285156 11.914062 12.285156 Z M 10.636719 9.324219 C 10.636719 8.621094 11.210938 8.046875 11.914062 8.046875 C 12.617188 8.046875 13.191406 8.621094 13.191406 9.324219 C 13.191406 10.027344 12.617188 10.601562 11.914062 10.601562 C 11.210938 10.601562 10.636719 10.027344 10.636719 9.324219 Z M 10.402344 19.5625 L 10.796875 19.054688 L 6.207031 15.511719 L 5.816406 16.023438 C 5.691406 16.183594 5.480469 16.25 5.285156 16.191406 L 3.027344 15.496094 C 2.921875 15.464844 2.828125 15.394531 2.765625 15.300781 L 1.304688 13.125 C 1.1875 12.949219 1.195312 12.722656 1.324219 12.554688 L 2.167969 11.460938 C 2.332031 11.246094 2.640625 11.207031 2.851562 11.371094 L 4.652344 12.761719 L 5.070312 12.222656 L 3.269531 10.832031 C 3.054688 10.667969 3.015625 10.359375 3.179688 10.148438 L 4.023438 9.054688 C 4.152344 8.886719 4.375 8.820312 4.570312 8.890625 L 7.046875 9.753906 C 7.152344 9.789062 7.242188 9.863281 7.300781 9.957031 L 8.546875 11.964844 C 8.652344 12.136719 8.640625 12.359375 8.515625 12.519531 L 8.125 13.03125 L 8.71875 13.492188 C 9.125 12.464844 10.007812 11.6875 11.074219 11.414062 C 10.246094 11.082031 9.660156 10.269531 9.660156 9.324219 C 9.660156 8.082031 10.671875 7.070312 11.914062 7.070312 C 13.15625 7.070312 14.167969 8.082031 14.167969 9.324219 C 14.167969 10.269531 13.585938 11.078125 12.761719 11.414062 C 14.242188 11.789062 15.34375 13.136719 15.34375 14.738281 L 15.34375 16.417969 L 15.894531 16.585938 C 16 16.621094 16.089844 16.6875 16.15625 16.78125 L 17.617188 18.957031 C 17.734375 19.132812 17.726562 19.363281 17.597656 19.527344 L 16.753906 20.621094 C 16.589844 20.835938 16.28125 20.875 16.070312 20.710938 L 14.265625 19.320312 L 13.851562 19.859375 L 15.652344 21.25 C 15.867188 21.414062 15.90625 21.722656 15.742188 21.933594 L 14.894531 23.03125 C 14.765625 23.199219 14.546875 23.261719 14.347656 23.191406 L 11.871094 22.328125 C 11.765625 22.292969 11.675781 22.21875 11.617188 22.125 L 10.375 20.117188 C 10.265625 19.945312 10.277344 19.722656 10.402344 19.5625 Z M 10.402344 19.5625 " fill-opacity="1" fill-rule="evenodd"/></g></svg>