<svg xmlns="http://www.w3.org/2000/svg" xmlns:xlink="http://www.w3.org/1999/xlink" width="50" zoomAndPan="magnify" viewBox="0 0 37.5 37.499999" height="50" preserveAspectRatio="xMidYMid meet" version="1.0"><defs><clipPath id="16d74f8904"><path d="M 3.449219 0.519531 L 33 0.519531 L 33 36.785156 L 3.449219 36.785156 Z M 3.449219 0.519531 " clip-rule="nonzero"/></clipPath></defs><g clip-path="url(#16d74f8904)"><path fill="#000000" d="M 14.554688 16.464844 L 14.554688 17.300781 C 14.554688 17.894531 14.914062 18.40625 15.425781 18.617188 L 15.425781 19.015625 C 15.425781 19.605469 15.78125 20.113281 16.289062 20.328125 L 16.289062 20.726562 C 16.289062 21.511719 16.917969 22.148438 17.6875 22.148438 L 18.78125 22.148438 C 19.554688 22.148438 20.183594 21.511719 20.183594 20.726562 L 20.183594 20.328125 C 20.6875 20.113281 21.046875 19.605469 21.046875 19.015625 L 21.046875 18.59375 C 21.527344 18.367188 21.859375 17.871094 21.859375 17.300781 L 21.859375 16.464844 C 21.988281 14.300781 22.515625 13.382812 23.023438 12.496094 C 23.5 11.671875 23.949219 10.890625 23.949219 9.378906 C 23.949219 6.160156 21.375 3.542969 18.207031 3.542969 C 15.042969 3.542969 12.464844 6.160156 12.464844 9.378906 C 12.464844 10.890625 12.914062 11.671875 13.390625 12.496094 C 13.902344 13.382812 14.429688 14.300781 14.554688 16.464844 Z M 16.753906 10.074219 L 16.109375 10.074219 C 15.75 10.074219 15.460938 9.78125 15.460938 9.417969 C 15.460938 9.054688 15.75 8.757812 16.109375 8.757812 C 16.464844 8.757812 16.753906 9.054688 16.753906 9.417969 Z M 18.546875 15.878906 L 17.871094 15.878906 L 17.871094 11.207031 L 18.546875 11.207031 Z M 20.746094 17.011719 L 20.746094 17.300781 C 20.746094 17.457031 20.617188 17.589844 20.460938 17.589844 L 15.953125 17.589844 C 15.800781 17.589844 15.667969 17.457031 15.667969 17.300781 L 15.667969 17.011719 Z M 19.929688 19.015625 C 19.929688 19.171875 19.800781 19.304688 19.648438 19.304688 L 16.824219 19.304688 C 16.671875 19.304688 16.539062 19.171875 16.539062 19.015625 L 16.539062 18.722656 L 19.929688 18.722656 Z M 18.78125 21.015625 L 17.6875 21.015625 C 17.535156 21.015625 17.40625 20.882812 17.40625 20.726562 L 17.40625 20.4375 L 19.066406 20.4375 L 19.066406 20.726562 C 19.066406 20.882812 18.9375 21.015625 18.78125 21.015625 Z M 18.207031 4.675781 C 20.757812 4.675781 22.835938 6.785156 22.835938 9.378906 C 22.835938 10.585938 22.492188 11.175781 22.0625 11.925781 C 21.578125 12.765625 20.984375 13.796875 20.789062 15.878906 L 19.660156 15.878906 L 19.660156 11.207031 L 20.308594 11.207031 C 21.28125 11.207031 22.070312 10.40625 22.070312 9.417969 C 22.070312 8.429688 21.28125 7.625 20.308594 7.625 C 19.335938 7.625 18.546875 8.429688 18.546875 9.417969 L 18.546875 10.074219 L 17.871094 10.074219 L 17.871094 9.417969 C 17.871094 8.429688 17.078125 7.625 16.109375 7.625 C 15.136719 7.625 14.347656 8.429688 14.347656 9.417969 C 14.347656 10.40625 15.136719 11.207031 16.109375 11.207031 L 16.753906 11.207031 L 16.753906 15.878906 L 15.628906 15.878906 C 15.429688 13.796875 14.835938 12.765625 14.351562 11.925781 C 13.921875 11.175781 13.582031 10.585938 13.582031 9.378906 C 13.582031 6.785156 15.65625 4.675781 18.207031 4.675781 Z M 19.660156 10.074219 L 19.660156 9.417969 C 19.660156 9.054688 19.949219 8.757812 20.308594 8.757812 C 20.664062 8.757812 20.953125 9.054688 20.953125 9.417969 C 20.953125 9.78125 20.664062 10.074219 20.308594 10.074219 Z M 17.652344 2.328125 L 17.652344 1.085938 C 17.652344 0.773438 17.898438 0.519531 18.207031 0.519531 C 18.515625 0.519531 18.765625 0.773438 18.765625 1.085938 L 18.765625 2.328125 C 18.765625 2.640625 18.515625 2.894531 18.207031 2.894531 C 17.898438 2.894531 17.652344 2.640625 17.652344 2.328125 Z M 13.203125 2.597656 C 13.050781 2.328125 13.140625 1.980469 13.410156 1.824219 C 13.675781 1.667969 14.015625 1.761719 14.171875 2.03125 L 14.78125 3.109375 C 14.933594 3.378906 14.84375 3.726562 14.578125 3.882812 C 14.488281 3.933594 14.394531 3.957031 14.296875 3.957031 C 14.105469 3.957031 13.917969 3.855469 13.816406 3.675781 Z M 9.894531 5.398438 C 10.050781 5.125 10.390625 5.03125 10.65625 5.191406 L 11.714844 5.808594 C 11.980469 5.96875 12.070312 6.3125 11.917969 6.585938 C 11.816406 6.765625 11.628906 6.867188 11.433594 6.867188 C 11.339844 6.867188 11.246094 6.84375 11.15625 6.792969 L 10.097656 6.171875 C 9.832031 6.015625 9.742188 5.667969 9.894531 5.398438 Z M 21.636719 3.109375 L 22.246094 2.03125 C 22.398438 1.761719 22.742188 1.667969 23.007812 1.824219 C 23.273438 1.980469 23.363281 2.328125 23.210938 2.597656 L 22.601562 3.675781 C 22.496094 3.855469 22.308594 3.957031 22.117188 3.957031 C 22.023438 3.957031 21.925781 3.933594 21.839844 3.882812 C 21.574219 3.726562 21.480469 3.378906 21.636719 3.109375 Z M 24.496094 6.585938 C 24.34375 6.3125 24.433594 5.96875 24.703125 5.808594 L 25.757812 5.191406 C 26.027344 5.035156 26.367188 5.125 26.519531 5.398438 C 26.675781 5.667969 26.582031 6.015625 26.316406 6.171875 L 25.257812 6.792969 C 25.171875 6.84375 25.074219 6.867188 24.980469 6.867188 C 24.789062 6.867188 24.601562 6.765625 24.496094 6.585938 Z M 32.449219 24.921875 C 32.164062 24.433594 30.988281 22.988281 27.929688 24.800781 L 22.65625 27.921875 C 22.460938 28.039062 22.265625 28.125 22.066406 28.191406 C 22.125 28.066406 22.175781 27.929688 22.214844 27.785156 C 22.496094 26.714844 21.871094 25.597656 20.792969 25.242188 C 20.769531 25.234375 20.746094 25.230469 20.71875 25.226562 C 19.210938 24.949219 17.71875 24.398438 16.523438 23.960938 C 16.105469 23.804688 15.707031 23.660156 15.371094 23.550781 C 13.988281 23.09375 12.746094 23.652344 11.710938 24.261719 L 7.867188 26.527344 L 7.628906 26.097656 C 7.453125 25.78125 7.167969 25.554688 6.824219 25.457031 C 6.480469 25.359375 6.121094 25.40625 5.8125 25.585938 L 4.332031 26.433594 C 3.691406 26.804688 3.464844 27.632812 3.828125 28.285156 L 8.179688 36.097656 C 8.421875 36.539062 8.875 36.785156 9.339844 36.785156 C 9.5625 36.785156 9.789062 36.726562 9.996094 36.609375 L 11.476562 35.757812 C 12.117188 35.390625 12.339844 34.5625 11.980469 33.910156 L 11.488281 33.027344 L 12.273438 32.566406 L 18.992188 34.394531 C 19.371094 34.5 19.75 34.550781 20.121094 34.550781 C 20.875 34.550781 21.605469 34.339844 22.269531 33.921875 L 31.839844 27.933594 C 32.75 27.363281 33.042969 25.925781 32.449219 24.921875 Z M 10.925781 34.773438 L 9.445312 35.621094 C 9.34375 35.683594 9.207031 35.644531 9.148438 35.539062 L 4.796875 27.726562 C 4.761719 27.65625 4.769531 27.589844 4.777344 27.554688 C 4.789062 27.523438 4.8125 27.460938 4.882812 27.421875 L 6.359375 26.570312 C 6.398438 26.546875 6.433594 26.542969 6.464844 26.542969 C 6.492188 26.542969 6.511719 26.546875 6.527344 26.550781 C 6.558594 26.558594 6.621094 26.585938 6.660156 26.65625 L 11.007812 34.46875 C 11.066406 34.574219 11.03125 34.710938 10.925781 34.773438 Z M 31.253906 26.96875 L 21.683594 32.957031 C 20.949219 33.417969 20.136719 33.535156 19.28125 33.300781 L 12.339844 31.410156 C 12.195312 31.371094 12.042969 31.390625 11.914062 31.46875 L 10.9375 32.039062 L 8.417969 27.511719 L 12.273438 25.242188 C 13.132812 24.734375 14.0625 24.308594 15.027344 24.628906 C 15.347656 24.734375 15.714844 24.867188 16.144531 25.027344 C 17.371094 25.476562 18.894531 26.039062 20.480469 26.332031 C 20.984375 26.515625 21.265625 27.007812 21.136719 27.492188 C 20.980469 28.078125 20.523438 28.191406 20.121094 28.171875 C 19.261719 28 18.492188 27.777344 17.679688 27.542969 C 17.328125 27.441406 16.96875 27.335938 16.585938 27.234375 C 16.289062 27.152344 15.984375 27.332031 15.902344 27.632812 C 15.824219 27.9375 16 28.246094 16.296875 28.328125 C 16.671875 28.429688 17.03125 28.535156 17.375 28.632812 C 18.148438 28.855469 18.890625 29.070312 19.710938 29.242188 C 20.03125 29.3125 20.316406 29.359375 20.496094 29.390625 C 21.5 29.550781 22.386719 29.394531 23.214844 28.902344 L 28.488281 25.78125 C 29.960938 24.910156 31.082031 24.804688 31.492188 25.503906 C 31.773438 25.980469 31.652344 26.71875 31.253906 26.96875 Z M 6.660156 27.84375 C 6.703125 28.136719 6.5 28.410156 6.210938 28.453125 C 5.925781 28.496094 5.65625 28.292969 5.613281 28 C 5.570312 27.707031 5.769531 27.433594 6.058594 27.390625 C 6.347656 27.347656 6.617188 27.550781 6.660156 27.84375 Z M 6.660156 27.84375 " fill-opacity="1" fill-rule="evenodd"/></g></svg>