<svg xmlns="http://www.w3.org/2000/svg" xmlns:xlink="http://www.w3.org/1999/xlink" width="50" zoomAndPan="magnify" viewBox="0 0 37.5 37.499999" height="50" preserveAspectRatio="xMidYMid meet" version="1.0"><defs><clipPath id="a0ec814570"><path d="M 13 22 L 24 22 L 24 36.414062 L 13 36.414062 Z M 13 22 " clip-rule="nonzero"/></clipPath><clipPath id="d00e7c6aba"><path d="M 9 0.886719 L 28 0.886719 L 28 15 L 9 15 Z M 9 0.886719 " clip-rule="nonzero"/></clipPath><clipPath id="4256117dd1"><path d="M 0.8125 15 L 18 15 L 18 33 L 0.8125 33 Z M 0.8125 15 " clip-rule="nonzero"/></clipPath><clipPath id="9da061d140"><path d="M 19 15 L 36.339844 15 L 36.339844 33 L 19 33 Z M 19 15 " clip-rule="nonzero"/></clipPath></defs><g clip-path="url(#a0ec814570)"><path fill="#ffffff" d="M 21.945312 30.332031 L 19.953125 29.5 C 20.84375 28.976562 21.402344 28.019531 21.402344 26.96875 L 21.402344 23.242188 C 21.402344 22.917969 21.136719 22.652344 20.816406 22.652344 L 18.460938 22.652344 C 16.835938 22.652344 15.519531 23.96875 15.519531 25.59375 L 15.519531 26.96875 C 15.519531 28.019531 16.078125 28.976562 16.96875 29.507812 L 14.976562 30.335938 C 13.875 30.792969 13.167969 31.859375 13.167969 33.050781 L 13.167969 35.59375 C 13.167969 35.917969 13.433594 36.183594 13.753906 36.183594 L 23.167969 36.183594 C 23.492188 36.183594 23.757812 35.917969 23.757812 35.59375 L 23.757812 33.042969 C 23.757812 31.851562 23.042969 30.785156 21.945312 30.332031 Z M 16.695312 26.96875 L 16.695312 25.59375 C 16.695312 24.625 17.492188 23.828125 18.460938 23.828125 L 20.226562 23.828125 L 20.226562 26.96875 C 20.226562 27.683594 19.800781 28.324219 19.136719 28.601562 L 18.460938 28.882812 L 17.785156 28.601562 C 17.125 28.324219 16.695312 27.683594 16.695312 26.96875 Z M 22.578125 35.007812 L 14.34375 35.007812 L 14.34375 33.042969 C 14.34375 32.332031 14.769531 31.691406 15.433594 31.410156 L 18.460938 30.152344 L 21.492188 31.417969 C 22.152344 31.691406 22.578125 32.332031 22.578125 33.050781 Z M 22.578125 35.007812 " fill-opacity="1" fill-rule="nonzero"/></g><path fill="#ffffff" d="M 13.167969 27.015625 L 13.828125 26.351562 C 14.160156 26.019531 14.34375 25.574219 14.34375 25.101562 L 14.34375 23.609375 C 14.34375 22.769531 13.75 22.042969 12.925781 21.882812 L 11.402344 21.578125 L 11.402344 19.125 C 11.402344 18.152344 10.609375 17.359375 9.636719 17.359375 C 8.667969 17.359375 7.875 18.152344 7.875 19.125 L 7.875 22.410156 L 7.585938 22.125 C 7.269531 21.808594 6.851562 21.632812 6.402344 21.632812 C 5.953125 21.632812 5.535156 21.808594 5.21875 22.125 C 4.601562 22.742188 4.558594 23.710938 5.117188 24.382812 L 7.285156 26.984375 L 7.285156 29.125 C 7.285156 29.449219 7.550781 29.710938 7.875 29.710938 L 12.578125 29.710938 C 12.902344 29.710938 13.167969 29.449219 13.167969 29.125 Z M 8.460938 28.535156 L 8.460938 27.359375 L 11.992188 27.359375 L 11.992188 28.535156 Z M 13 25.519531 L 12.335938 26.183594 L 8.152344 26.183594 L 6.019531 23.625 C 5.851562 23.425781 5.867188 23.140625 6.050781 22.953125 C 6.242188 22.765625 6.558594 22.765625 6.753906 22.953125 L 8.042969 24.242188 C 8.210938 24.410156 8.460938 24.460938 8.683594 24.367188 C 8.902344 24.277344 9.042969 24.058594 9.042969 23.824219 L 9.042969 19.117188 C 9.042969 18.792969 9.308594 18.527344 9.628906 18.527344 C 9.953125 18.527344 10.21875 18.792969 10.21875 19.117188 L 10.21875 22.058594 C 10.21875 22.335938 10.417969 22.578125 10.6875 22.632812 L 12.683594 23.027344 C 12.953125 23.078125 13.152344 23.324219 13.152344 23.601562 L 13.152344 25.09375 C 13.167969 25.265625 13.109375 25.410156 13 25.519531 Z M 13 25.519531 " fill-opacity="1" fill-rule="nonzero"/><g clip-path="url(#d00e7c6aba)"><path fill="#ffffff" d="M 11.910156 13.652344 C 11.195312 12.46875 10.8125 11.101562 10.8125 9.710938 C 10.8125 5.5 14.25 2.066406 18.460938 2.066406 C 22.675781 2.066406 26.109375 5.5 26.109375 9.710938 C 26.109375 11.058594 25.757812 12.382812 25.085938 13.535156 L 26.101562 14.125 C 26.875 12.785156 27.285156 11.261719 27.285156 9.710938 C 27.285156 4.84375 23.328125 0.886719 18.460938 0.886719 C 13.59375 0.886719 9.636719 4.84375 9.636719 9.710938 C 9.636719 11.316406 10.070312 12.886719 10.894531 14.257812 Z M 11.910156 13.652344 " fill-opacity="1" fill-rule="nonzero"/></g><path fill="#ffffff" d="M 18.460938 3.828125 C 15.21875 3.828125 12.578125 6.46875 12.578125 9.710938 C 12.578125 12.953125 15.21875 15.59375 18.460938 15.59375 C 21.703125 15.59375 24.34375 12.953125 24.34375 9.710938 C 24.34375 6.46875 21.703125 3.828125 18.460938 3.828125 Z M 18.460938 14.417969 C 15.867188 14.417969 13.753906 12.308594 13.753906 9.710938 C 13.753906 7.117188 15.867188 5.007812 18.460938 5.007812 C 21.058594 5.007812 23.167969 7.117188 23.167969 9.710938 C 23.167969 12.308594 21.058594 14.417969 18.460938 14.417969 Z M 18.460938 14.417969 " fill-opacity="1" fill-rule="nonzero"/><path fill="#ffffff" d="M 16.109375 7.359375 L 17.285156 7.359375 L 17.285156 8.535156 L 16.109375 8.535156 Z M 16.109375 7.359375 " fill-opacity="1" fill-rule="nonzero"/><path fill="#ffffff" d="M 19.636719 7.359375 L 20.816406 7.359375 L 20.816406 8.535156 L 19.636719 8.535156 Z M 19.636719 7.359375 " fill-opacity="1" fill-rule="nonzero"/><path fill="#ffffff" d="M 18.460938 11.476562 C 17.816406 11.476562 17.285156 10.945312 17.285156 10.300781 L 16.109375 10.300781 C 16.109375 11.59375 17.167969 12.652344 18.460938 12.652344 C 19.753906 12.652344 20.816406 11.59375 20.816406 10.300781 L 19.636719 10.300781 C 19.636719 10.945312 19.109375 11.476562 18.460938 11.476562 Z M 18.460938 11.476562 " fill-opacity="1" fill-rule="nonzero"/><path fill="#ffffff" d="M 26.695312 30.300781 L 27.875 30.300781 L 27.875 29.125 L 30.816406 29.125 C 31.136719 29.125 31.402344 28.859375 31.402344 28.535156 L 31.402344 25.007812 C 31.402344 24.683594 31.136719 24.417969 30.816406 24.417969 L 27.875 24.417969 L 27.875 23.242188 L 30.816406 23.242188 C 31.136719 23.242188 31.402344 22.976562 31.402344 22.652344 L 31.402344 19.125 C 31.402344 18.800781 31.136719 18.535156 30.816406 18.535156 L 27.875 18.535156 L 27.875 17.359375 L 26.695312 17.359375 L 26.695312 18.535156 L 23.757812 18.535156 C 23.433594 18.535156 23.167969 18.800781 23.167969 19.125 L 23.167969 22.652344 C 23.167969 22.976562 23.433594 23.242188 23.757812 23.242188 L 26.695312 23.242188 L 26.695312 24.417969 L 23.757812 24.417969 C 23.433594 24.417969 23.167969 24.683594 23.167969 25.007812 L 23.167969 28.535156 C 23.167969 28.859375 23.433594 29.125 23.757812 29.125 L 26.695312 29.125 Z M 24.34375 19.710938 L 30.226562 19.710938 L 30.226562 22.066406 L 24.34375 22.066406 Z M 24.34375 25.59375 L 30.226562 25.59375 L 30.226562 27.949219 L 24.34375 27.949219 Z M 24.34375 25.59375 " fill-opacity="1" fill-rule="nonzero"/><g clip-path="url(#4256117dd1)"><path fill="#ffffff" d="M 9.636719 31.476562 C 5.425781 31.476562 1.992188 28.042969 1.992188 23.828125 C 1.992188 19.617188 5.425781 16.183594 9.636719 16.183594 C 11.21875 16.183594 12.734375 16.660156 14.019531 17.566406 C 15.277344 18.449219 16.234375 19.667969 16.785156 21.101562 L 17.878906 20.683594 C 17.25 19.027344 16.144531 17.625 14.695312 16.601562 C 13.210938 15.558594 11.460938 15.007812 9.636719 15.007812 C 4.769531 15.007812 0.8125 18.960938 0.8125 23.828125 C 0.8125 28.699219 4.769531 32.652344 9.636719 32.652344 C 10.5 32.652344 11.34375 32.527344 12.160156 32.285156 L 11.820312 31.160156 C 11.117188 31.375 10.378906 31.476562 9.636719 31.476562 Z M 9.636719 31.476562 " fill-opacity="1" fill-rule="nonzero"/></g><g clip-path="url(#9da061d140)"><path fill="#ffffff" d="M 27.285156 15.007812 C 25.460938 15.007812 23.710938 15.558594 22.226562 16.601562 C 20.769531 17.617188 19.675781 19.027344 19.042969 20.683594 L 20.136719 21.101562 C 20.683594 19.667969 21.636719 18.449219 22.902344 17.566406 C 24.191406 16.660156 25.703125 16.183594 27.285156 16.183594 C 31.5 16.183594 34.933594 19.617188 34.933594 23.828125 C 34.933594 28.042969 31.5 31.476562 27.285156 31.476562 C 26.542969 31.476562 25.808594 31.375 25.101562 31.160156 L 24.761719 32.285156 C 25.578125 32.527344 26.425781 32.652344 27.285156 32.652344 C 32.152344 32.652344 36.109375 28.699219 36.109375 23.828125 C 36.109375 18.960938 32.152344 15.007812 27.285156 15.007812 Z M 27.285156 15.007812 " fill-opacity="1" fill-rule="nonzero"/></g></svg>