<svg xmlns="http://www.w3.org/2000/svg" xmlns:xlink="http://www.w3.org/1999/xlink" width="50" zoomAndPan="magnify" viewBox="0 0 37.5 37.499999" height="50" preserveAspectRatio="xMidYMid meet" version="1.0"><defs><clipPath id="9a108eb80d"><path d="M 1.113281 1.257812 L 35.160156 1.257812 L 35.160156 36.042969 L 1.113281 36.042969 Z M 1.113281 1.257812 " clip-rule="nonzero"/></clipPath><clipPath id="21f4434860"><path d="M 16 34 L 18 34 L 18 36.042969 L 16 36.042969 Z M 16 34 " clip-rule="nonzero"/></clipPath><clipPath id="a63e3fe8c7"><path d="M 1.113281 4 L 3 4 L 3 6 L 1.113281 6 Z M 1.113281 4 " clip-rule="nonzero"/></clipPath></defs><path fill="#ffffff" d="M 14.859375 13.886719 C 10.132812 13.886719 6.289062 17.730469 6.289062 22.457031 C 6.289062 27.183594 10.132812 31.027344 14.859375 31.027344 C 19.585938 31.027344 23.429688 27.183594 23.429688 22.457031 C 23.429688 17.730469 19.585938 13.886719 14.859375 13.886719 Z M 19.054688 28.578125 L 18.496094 27.613281 L 17.507812 28.183594 L 18.0625 29.148438 C 17.253906 29.535156 16.367188 29.785156 15.433594 29.855469 L 15.433594 28.171875 L 14.289062 28.171875 L 14.289062 29.855469 C 13.351562 29.785156 12.464844 29.535156 11.65625 29.148438 L 12.214844 28.183594 L 11.222656 27.613281 L 10.664062 28.578125 C 9.910156 28.0625 9.257812 27.40625 8.738281 26.652344 L 9.703125 26.09375 L 9.132812 25.105469 L 8.167969 25.660156 C 7.78125 24.851562 7.535156 23.964844 7.460938 23.027344 L 9.144531 23.027344 L 9.144531 21.886719 L 7.460938 21.886719 C 7.53125 20.949219 7.777344 20.0625 8.167969 19.253906 L 9.128906 19.808594 L 9.703125 18.820312 L 8.734375 18.261719 C 9.253906 17.507812 9.910156 16.851562 10.664062 16.332031 L 11.222656 17.300781 L 12.210938 16.726562 L 11.65625 15.765625 C 12.464844 15.378906 13.351562 15.128906 14.289062 15.058594 L 14.289062 16.742188 L 15.429688 16.742188 L 15.429688 15.058594 C 16.367188 15.128906 17.253906 15.375 18.0625 15.765625 L 17.507812 16.726562 L 18.496094 17.296875 L 19.054688 16.332031 C 19.808594 16.851562 20.460938 17.503906 20.980469 18.261719 L 20.015625 18.820312 L 20.585938 19.808594 L 21.550781 19.253906 C 21.9375 20.0625 22.183594 20.945312 22.257812 21.882812 L 20.574219 21.882812 L 20.574219 23.027344 L 22.257812 23.027344 C 22.1875 23.964844 21.941406 24.851562 21.550781 25.660156 L 20.589844 25.101562 L 20.015625 26.09375 L 20.984375 26.648438 C 20.464844 27.40625 19.808594 28.0625 19.054688 28.578125 Z M 19.054688 28.578125 " fill-opacity="1" fill-rule="nonzero"/><path fill="#ffffff" d="M 15.429688 17.882812 L 14.289062 17.882812 L 14.289062 22.457031 C 14.289062 22.65625 14.394531 22.84375 14.566406 22.945312 L 17.421875 24.660156 L 18.011719 23.679688 L 15.429688 22.132812 Z M 15.429688 17.882812 " fill-opacity="1" fill-rule="nonzero"/><g clip-path="url(#9a108eb80d)"><path fill="#ffffff" d="M 28.34375 1.429688 C 28.171875 1.296875 27.941406 1.277344 27.746094 1.375 C 27.550781 1.472656 27.429688 1.667969 27.429688 1.886719 L 27.429688 4.171875 L 5.714844 4.171875 L 5.714844 5.3125 L 28 5.3125 C 28.316406 5.3125 28.574219 5.058594 28.574219 4.742188 L 28.574219 3.027344 L 33.9375 7.050781 L 28.574219 11.523438 L 28.574219 9.3125 C 28.574219 8.996094 28.316406 8.742188 28 8.742188 L 14.859375 8.742188 C 7.296875 8.742188 1.144531 14.894531 1.144531 22.457031 C 1.144531 30.015625 7.296875 36.171875 14.859375 36.171875 L 14.859375 35.597656 L 14.871094 36.171875 L 14.941406 36.167969 L 14.941406 35.027344 L 14.855469 35.027344 C 7.925781 35.027344 2.289062 29.386719 2.289062 22.457031 C 2.289062 15.523438 7.925781 9.886719 14.859375 9.886719 L 27.429688 9.886719 L 27.429688 12.742188 C 27.429688 12.964844 27.558594 13.164062 27.757812 13.257812 C 27.960938 13.351562 28.195312 13.324219 28.367188 13.179688 L 35.222656 7.464844 C 35.359375 7.355469 35.433594 7.1875 35.429688 7.011719 C 35.425781 6.839844 35.339844 6.675781 35.199219 6.570312 Z M 28.34375 1.429688 " fill-opacity="1" fill-rule="nonzero"/></g><path fill="#ffffff" d="M 20.710938 34.863281 C 21.074219 34.691406 21.425781 34.503906 21.765625 34.304688 L 21.1875 33.320312 C 20.878906 33.5 20.554688 33.671875 20.222656 33.828125 Z M 20.710938 34.863281 " fill-opacity="1" fill-rule="nonzero"/><path fill="#ffffff" d="M 22.105469 32.730469 L 22.769531 33.660156 C 23.089844 33.433594 23.40625 33.1875 23.710938 32.933594 L 22.972656 32.058594 C 22.695312 32.292969 22.402344 32.519531 22.105469 32.730469 Z M 22.105469 32.730469 " fill-opacity="1" fill-rule="nonzero"/><path fill="#ffffff" d="M 27.007812 25.699219 L 28.113281 25.992188 C 28.214844 25.613281 28.300781 25.21875 28.371094 24.828125 L 27.242188 24.632812 C 27.179688 24.988281 27.101562 25.347656 27.007812 25.699219 Z M 27.007812 25.699219 " fill-opacity="1" fill-rule="nonzero"/><path fill="#ffffff" d="M 27.382812 23.546875 L 28.523438 23.644531 C 28.554688 23.25 28.574219 22.851562 28.574219 22.457031 L 27.429688 22.457031 C 27.429688 22.820312 27.414062 23.1875 27.382812 23.546875 Z M 27.382812 23.546875 " fill-opacity="1" fill-rule="nonzero"/><path fill="#ffffff" d="M 25.175781 29.640625 L 26.113281 30.296875 C 26.335938 29.976562 26.554688 29.636719 26.753906 29.289062 L 25.761719 28.71875 C 25.578125 29.039062 25.382812 29.347656 25.175781 29.640625 Z M 25.175781 29.640625 " fill-opacity="1" fill-rule="nonzero"/><path fill="#ffffff" d="M 26.265625 27.75 L 27.300781 28.230469 C 27.46875 27.871094 27.621094 27.5 27.753906 27.128906 L 26.683594 26.738281 C 26.558594 27.078125 26.417969 27.421875 26.265625 27.75 Z M 26.265625 27.75 " fill-opacity="1" fill-rule="nonzero"/><g clip-path="url(#21f4434860)"><path fill="#ffffff" d="M 17.316406 35.949219 L 17.113281 34.824219 C 16.761719 34.890625 16.394531 34.9375 16.027344 34.972656 L 16.136719 36.113281 C 16.535156 36.074219 16.929688 36.019531 17.316406 35.949219 Z M 17.316406 35.949219 " fill-opacity="1" fill-rule="nonzero"/></g><path fill="#ffffff" d="M 19.21875 34.25 C 18.875 34.378906 18.527344 34.488281 18.175781 34.585938 L 18.476562 35.6875 C 18.859375 35.582031 19.242188 35.460938 19.613281 35.324219 Z M 19.21875 34.25 " fill-opacity="1" fill-rule="nonzero"/><path fill="#ffffff" d="M 23.773438 31.316406 L 24.585938 32.125 C 24.863281 31.847656 25.132812 31.550781 25.390625 31.242188 L 24.511719 30.511719 C 24.277344 30.792969 24.03125 31.0625 23.773438 31.316406 Z M 23.773438 31.316406 " fill-opacity="1" fill-rule="nonzero"/><g clip-path="url(#a63e3fe8c7)"><path fill="#ffffff" d="M 1.144531 4.171875 L 2.289062 4.171875 L 2.289062 5.3125 L 1.144531 5.3125 Z M 1.144531 4.171875 " fill-opacity="1" fill-rule="nonzero"/></g><path fill="#ffffff" d="M 3.429688 4.171875 L 4.574219 4.171875 L 4.574219 5.3125 L 3.429688 5.3125 Z M 3.429688 4.171875 " fill-opacity="1" fill-rule="nonzero"/></svg>