<svg xmlns="http://www.w3.org/2000/svg" xmlns:xlink="http://www.w3.org/1999/xlink" width="50" zoomAndPan="magnify" viewBox="0 0 37.5 37.499999" height="50" preserveAspectRatio="xMidYMid meet" version="1.0"><defs><clipPath id="591c310ca1"><path d="M 6 0.886719 L 36.488281 0.886719 L 36.488281 30 L 6 30 Z M 6 0.886719 " clip-rule="nonzero"/></clipPath><clipPath id="8a2c05ab36"><path d="M 0.960938 6 L 32 6 L 32 36.414062 L 0.960938 36.414062 Z M 0.960938 6 " clip-rule="nonzero"/></clipPath></defs><path fill="#0097b2" d="M 14.210938 17.785156 L 12.917969 16.960938 C 12.75 16.851562 12.53125 16.863281 12.375 16.984375 L 11.609375 17.578125 L 10.835938 17.441406 L 10.324219 16.617188 C 10.21875 16.449219 10.015625 16.363281 9.820312 16.40625 L 8.324219 16.734375 C 8.128906 16.777344 7.984375 16.9375 7.957031 17.136719 L 7.835938 18.097656 L 7.191406 18.546875 L 6.25 18.328125 C 6.054688 18.285156 5.851562 18.367188 5.742188 18.535156 L 4.917969 19.824219 C 4.808594 19.992188 4.820312 20.210938 4.941406 20.371094 L 5.535156 21.132812 L 5.398438 21.910156 L 4.574219 22.421875 C 4.40625 22.527344 4.320312 22.726562 4.363281 22.921875 L 4.691406 24.417969 C 4.734375 24.613281 4.898438 24.761719 5.09375 24.785156 L 6.054688 24.90625 L 6.503906 25.554688 L 6.285156 26.496094 C 6.242188 26.691406 6.324219 26.894531 6.492188 27 L 7.78125 27.828125 C 7.949219 27.933594 8.167969 27.925781 8.328125 27.800781 L 9.089844 27.207031 L 9.867188 27.347656 L 10.378906 28.167969 C 10.464844 28.308594 10.617188 28.390625 10.777344 28.390625 C 10.8125 28.390625 10.847656 28.386719 10.878906 28.378906 L 12.375 28.050781 C 12.570312 28.007812 12.71875 27.847656 12.746094 27.648438 L 12.867188 26.6875 L 13.511719 26.238281 L 14.453125 26.457031 C 14.648438 26.503906 14.851562 26.421875 14.957031 26.253906 L 15.785156 24.960938 C 15.890625 24.792969 15.882812 24.574219 15.757812 24.417969 L 15.167969 23.652344 L 15.304688 22.878906 L 16.125 22.367188 C 16.296875 22.261719 16.378906 22.058594 16.335938 21.863281 L 16.007812 20.367188 C 15.964844 20.171875 15.804688 20.023438 15.605469 20 L 14.648438 19.878906 L 14.195312 19.234375 L 14.414062 18.289062 C 14.460938 18.097656 14.378906 17.894531 14.210938 17.785156 Z M 14.320312 20.789062 L 15.15625 20.894531 L 15.34375 21.742188 L 14.625 22.1875 C 14.511719 22.257812 14.433594 22.375 14.410156 22.503906 L 14.199219 23.691406 C 14.175781 23.824219 14.207031 23.960938 14.289062 24.066406 L 14.808594 24.734375 L 14.34375 25.460938 L 13.519531 25.269531 C 13.390625 25.242188 13.253906 25.265625 13.144531 25.34375 L 12.152344 26.035156 C 12.042969 26.109375 11.972656 26.230469 11.953125 26.363281 L 11.847656 27.199219 L 11.003906 27.386719 L 10.558594 26.667969 C 10.484375 26.554688 10.371094 26.476562 10.238281 26.453125 L 9.050781 26.242188 C 9.023438 26.238281 8.996094 26.234375 8.96875 26.234375 C 8.863281 26.234375 8.761719 26.269531 8.679688 26.332031 L 8.011719 26.851562 L 7.28125 26.382812 L 7.472656 25.5625 C 7.503906 25.433594 7.476562 25.292969 7.402344 25.183594 L 6.710938 24.195312 C 6.632812 24.085938 6.515625 24.011719 6.382812 23.996094 L 5.546875 23.890625 L 5.359375 23.046875 L 6.074219 22.597656 C 6.191406 22.527344 6.269531 22.414062 6.292969 22.28125 L 6.503906 21.09375 C 6.527344 20.960938 6.492188 20.828125 6.410156 20.722656 L 5.894531 20.054688 L 6.359375 19.324219 L 7.183594 19.515625 C 7.3125 19.546875 7.449219 19.519531 7.558594 19.445312 L 8.550781 18.753906 C 8.660156 18.675781 8.730469 18.558594 8.75 18.425781 L 8.855469 17.585938 L 9.699219 17.402344 L 10.144531 18.117188 C 10.214844 18.230469 10.332031 18.308594 10.464844 18.332031 L 11.652344 18.546875 C 11.78125 18.570312 11.917969 18.535156 12.023438 18.453125 L 12.691406 17.9375 L 13.417969 18.402344 L 13.230469 19.226562 C 13.199219 19.355469 13.226562 19.492188 13.300781 19.601562 L 13.992188 20.589844 C 14.066406 20.703125 14.1875 20.773438 14.320312 20.789062 Z M 14.320312 20.789062 " fill-opacity="1" fill-rule="nonzero"/><path fill="#0097b2" d="M 10.867188 19.496094 C 10.09375 19.355469 9.3125 19.527344 8.667969 19.976562 C 8.023438 20.429688 7.589844 21.101562 7.453125 21.875 C 7.316406 22.648438 7.488281 23.429688 7.9375 24.078125 C 8.386719 24.722656 9.058594 25.152344 9.832031 25.292969 C 10.007812 25.324219 10.183594 25.335938 10.355469 25.335938 C 10.953125 25.335938 11.535156 25.15625 12.035156 24.808594 C 12.679688 24.359375 13.109375 23.683594 13.25 22.910156 C 13.386719 22.136719 13.214844 21.355469 12.765625 20.710938 C 12.316406 20.066406 11.640625 19.632812 10.867188 19.496094 Z M 12.320312 22.746094 C 12.222656 23.269531 11.933594 23.726562 11.492188 24.03125 C 11.054688 24.339844 10.523438 24.453125 10 24.359375 C 9.472656 24.265625 9.015625 23.972656 8.710938 23.535156 C 8.40625 23.097656 8.289062 22.566406 8.382812 22.042969 C 8.554688 21.074219 9.402344 20.394531 10.351562 20.394531 C 10.464844 20.394531 10.582031 20.40625 10.703125 20.425781 C 11.226562 20.519531 11.683594 20.8125 11.992188 21.25 C 12.296875 21.6875 12.414062 22.21875 12.320312 22.746094 Z M 12.320312 22.746094 " fill-opacity="1" fill-rule="nonzero"/><path fill="#0097b2" d="M 22.746094 27.871094 C 22.914062 27.765625 23 27.566406 22.957031 27.371094 L 22.75 26.425781 C 22.707031 26.230469 22.546875 26.085938 22.347656 26.058594 L 21.820312 25.992188 L 21.625 25.714844 L 21.746094 25.195312 C 21.789062 25 21.707031 24.800781 21.539062 24.691406 L 20.726562 24.171875 C 20.558594 24.0625 20.339844 24.074219 20.183594 24.195312 L 19.761719 24.523438 L 19.425781 24.460938 L 19.144531 24.011719 C 19.039062 23.839844 18.839844 23.757812 18.644531 23.800781 L 17.699219 24.003906 C 17.503906 24.046875 17.359375 24.210938 17.332031 24.410156 L 17.265625 24.9375 L 16.988281 25.128906 L 16.46875 25.011719 C 16.273438 24.964844 16.074219 25.046875 15.964844 25.214844 L 15.445312 26.027344 C 15.335938 26.195312 15.347656 26.414062 15.46875 26.574219 L 15.792969 26.992188 L 15.734375 27.328125 L 15.285156 27.609375 C 15.113281 27.714844 15.03125 27.917969 15.070312 28.113281 L 15.277344 29.054688 C 15.320312 29.25 15.484375 29.398438 15.679688 29.421875 L 16.210938 29.488281 L 16.402344 29.769531 L 16.285156 30.285156 C 16.238281 30.480469 16.320312 30.683594 16.488281 30.789062 L 17.300781 31.3125 C 17.46875 31.417969 17.6875 31.410156 17.847656 31.285156 L 18.265625 30.960938 L 18.601562 31.019531 L 18.882812 31.472656 C 18.96875 31.613281 19.125 31.695312 19.285156 31.695312 C 19.316406 31.695312 19.351562 31.691406 19.386719 31.683594 L 20.328125 31.476562 C 20.523438 31.433594 20.671875 31.273438 20.695312 31.074219 L 20.761719 30.546875 L 21.042969 30.351562 L 21.558594 30.472656 C 21.753906 30.515625 21.957031 30.433594 22.0625 30.265625 L 22.585938 29.453125 C 22.691406 29.285156 22.683594 29.066406 22.558594 28.910156 L 22.234375 28.488281 L 22.292969 28.152344 Z M 21.613281 27.464844 C 21.5 27.535156 21.421875 27.648438 21.398438 27.78125 L 21.265625 28.53125 C 21.242188 28.660156 21.277344 28.796875 21.359375 28.902344 L 21.609375 29.226562 L 21.449219 29.476562 L 21.050781 29.382812 C 20.917969 29.351562 20.78125 29.378906 20.671875 29.457031 L 20.050781 29.890625 C 19.941406 29.96875 19.867188 30.085938 19.851562 30.21875 L 19.800781 30.625 L 19.507812 30.6875 L 19.292969 30.34375 C 19.222656 30.226562 19.105469 30.148438 18.976562 30.125 L 18.226562 29.992188 C 18.199219 29.988281 18.171875 29.984375 18.144531 29.984375 C 18.039062 29.984375 17.9375 30.019531 17.855469 30.085938 L 17.53125 30.335938 L 17.28125 30.175781 L 17.371094 29.777344 C 17.402344 29.648438 17.375 29.507812 17.300781 29.398438 L 16.863281 28.777344 C 16.789062 28.667969 16.667969 28.59375 16.535156 28.578125 L 16.132812 28.527344 L 16.066406 28.234375 L 16.414062 28.019531 C 16.527344 27.949219 16.605469 27.832031 16.628906 27.703125 L 16.761719 26.953125 C 16.785156 26.820312 16.753906 26.6875 16.671875 26.582031 L 16.421875 26.257812 L 16.582031 26.007812 L 16.980469 26.097656 C 17.109375 26.128906 17.246094 26.101562 17.355469 26.027344 L 17.980469 25.589844 C 18.089844 25.515625 18.160156 25.394531 18.179688 25.261719 L 18.230469 24.859375 L 18.519531 24.792969 L 18.734375 25.140625 C 18.808594 25.253906 18.921875 25.332031 19.054688 25.355469 L 19.800781 25.488281 C 19.933594 25.511719 20.070312 25.480469 20.175781 25.398438 L 20.496094 25.148438 L 20.75 25.308594 L 20.65625 25.707031 C 20.625 25.835938 20.652344 25.972656 20.730469 26.082031 L 21.164062 26.707031 C 21.242188 26.816406 21.359375 26.886719 21.492188 26.90625 L 21.898438 26.957031 L 21.960938 27.246094 Z M 21.613281 27.464844 " fill-opacity="1" fill-rule="nonzero"/><path fill="#0097b2" d="M 19.339844 25.921875 C 18.851562 25.835938 18.363281 25.945312 17.957031 26.226562 C 17.554688 26.507812 17.285156 26.929688 17.195312 27.417969 C 17.019531 28.417969 17.6875 29.378906 18.691406 29.558594 C 18.800781 29.578125 18.90625 29.589844 19.015625 29.589844 C 19.890625 29.589844 20.671875 28.957031 20.832031 28.066406 C 20.917969 27.582031 20.8125 27.089844 20.53125 26.683594 C 20.246094 26.28125 19.824219 26.011719 19.339844 25.921875 Z M 19.902344 27.898438 C 19.8125 28.390625 19.34375 28.714844 18.855469 28.628906 C 18.367188 28.542969 18.039062 28.070312 18.128906 27.582031 C 18.167969 27.347656 18.300781 27.140625 18.5 27 C 18.652344 26.894531 18.828125 26.839844 19.011719 26.839844 C 19.066406 26.839844 19.121094 26.84375 19.171875 26.855469 C 19.410156 26.894531 19.617188 27.027344 19.753906 27.226562 C 19.890625 27.421875 19.945312 27.664062 19.902344 27.898438 Z M 19.902344 27.898438 " fill-opacity="1" fill-rule="nonzero"/><path fill="#0097b2" d="M 19.714844 18.261719 C 20.058594 18.753906 20.484375 19.164062 20.980469 19.488281 C 21.496094 19.824219 22.070312 20.050781 22.679688 20.160156 C 22.953125 20.207031 23.222656 20.230469 23.492188 20.230469 C 23.832031 20.230469 24.171875 20.195312 24.503906 20.117188 C 25.085938 19.988281 25.628906 19.746094 26.117188 19.40625 C 26.605469 19.0625 27.019531 18.636719 27.34375 18.140625 C 27.679688 17.625 27.90625 17.050781 28.015625 16.441406 C 28.125 15.832031 28.109375 15.214844 27.972656 14.617188 C 27.839844 14.035156 27.601562 13.492188 27.261719 13.003906 C 26.917969 12.515625 26.492188 12.101562 25.996094 11.777344 C 25.480469 11.441406 24.90625 11.214844 24.296875 11.105469 C 23.6875 10.996094 23.070312 11.011719 22.472656 11.148438 C 21.890625 11.28125 21.347656 11.519531 20.859375 11.859375 C 20.371094 12.203125 19.957031 12.628906 19.632812 13.125 C 19.296875 13.640625 19.070312 14.214844 18.960938 14.824219 C 18.851562 15.4375 18.867188 16.050781 19.003906 16.652344 C 19.132812 17.230469 19.375 17.773438 19.714844 18.261719 Z M 19.890625 14.992188 C 20.0625 14.03125 20.597656 13.195312 21.398438 12.636719 C 22.019531 12.203125 22.742188 11.980469 23.480469 11.980469 C 23.695312 11.980469 23.914062 12 24.128906 12.039062 C 25.089844 12.207031 25.925781 12.742188 26.484375 13.542969 C 27.042969 14.34375 27.253906 15.316406 27.085938 16.273438 C 26.914062 17.234375 26.378906 18.070312 25.578125 18.628906 C 24.777344 19.1875 23.804688 19.402344 22.847656 19.230469 C 21.886719 19.058594 21.050781 18.523438 20.492188 17.722656 C 19.933594 16.921875 19.722656 15.953125 19.890625 14.992188 Z M 19.890625 14.992188 " fill-opacity="1" fill-rule="nonzero"/><path fill="#0097b2" d="M 15.007812 16.4375 C 14.820312 16.542969 14.730469 16.761719 14.785156 16.96875 L 15.195312 18.574219 C 15.25 18.777344 15.433594 18.925781 15.648438 18.925781 L 16.941406 18.945312 L 17.421875 19.746094 L 16.820312 20.894531 C 16.71875 21.082031 16.757812 21.3125 16.914062 21.460938 L 18.128906 22.585938 C 18.285156 22.730469 18.519531 22.753906 18.703125 22.640625 L 19.800781 21.953125 L 20.636719 22.371094 L 20.75 23.660156 C 20.769531 23.875 20.925781 24.046875 21.136719 24.085938 L 22.769531 24.375 C 22.796875 24.378906 22.824219 24.382812 22.851562 24.382812 C 23.03125 24.382812 23.199219 24.28125 23.28125 24.113281 L 23.832031 22.941406 L 24.761719 22.839844 L 25.554688 23.863281 C 25.683594 24.03125 25.910156 24.09375 26.109375 24.011719 L 27.632812 23.375 L 27.636719 23.375 C 27.835938 23.292969 27.953125 23.085938 27.925781 22.875 L 27.757812 21.589844 L 28.484375 21.003906 L 29.703125 21.4375 C 29.90625 21.507812 30.128906 21.4375 30.25 21.261719 L 31.195312 19.898438 C 31.316406 19.722656 31.304688 19.488281 31.164062 19.324219 L 30.332031 18.335938 L 30.625 17.449219 L 31.882812 17.152344 C 32.09375 17.101562 32.242188 16.921875 32.25 16.707031 L 32.304688 15.050781 C 32.3125 14.839844 32.175781 14.648438 31.972656 14.585938 L 30.734375 14.203125 L 30.5 13.300781 L 31.402344 12.367188 C 31.550781 12.214844 31.578125 11.980469 31.46875 11.796875 L 30.621094 10.375 C 30.511719 10.191406 30.292969 10.105469 30.085938 10.160156 L 28.839844 10.511719 L 28.15625 9.875 L 28.410156 8.605469 C 28.453125 8.394531 28.347656 8.183594 28.15625 8.089844 L 26.675781 7.351562 C 26.484375 7.253906 26.25 7.300781 26.109375 7.460938 L 25.25 8.425781 L 24.328125 8.261719 L 23.859375 7.058594 C 23.78125 6.859375 23.578125 6.738281 23.367188 6.757812 L 21.71875 6.941406 C 21.507812 6.964844 21.335938 7.125 21.304688 7.335938 L 21.101562 8.617188 L 20.242188 8.976562 L 19.191406 8.214844 C 19.019531 8.089844 18.78125 8.097656 18.617188 8.230469 L 17.328125 9.273438 C 17.164062 9.40625 17.109375 9.636719 17.195312 9.832031 L 17.71875 11.015625 L 17.1875 11.785156 L 15.890625 11.714844 C 15.679688 11.703125 15.484375 11.835938 15.417969 12.035156 L 14.898438 13.609375 C 14.832031 13.8125 14.90625 14.035156 15.085938 14.152344 L 16.167969 14.867188 L 16.132812 15.800781 Z M 16.90625 14.222656 L 15.910156 13.5625 L 16.203125 12.675781 L 17.398438 12.742188 C 17.5625 12.753906 17.71875 12.675781 17.8125 12.539062 L 18.644531 11.335938 C 18.738281 11.203125 18.753906 11.027344 18.6875 10.875 L 18.203125 9.78125 L 18.929688 9.195312 L 19.902344 9.894531 C 20.035156 9.992188 20.207031 10.011719 20.359375 9.949219 L 21.710938 9.386719 C 21.863281 9.324219 21.96875 9.1875 21.996094 9.023438 L 22.179688 7.839844 L 23.109375 7.738281 L 23.546875 8.855469 C 23.605469 9.007812 23.742188 9.117188 23.902344 9.148438 L 25.34375 9.40625 C 25.503906 9.433594 25.671875 9.375 25.78125 9.253906 L 26.574219 8.359375 L 27.410156 8.773438 L 27.175781 9.949219 C 27.144531 10.109375 27.199219 10.277344 27.316406 10.386719 L 28.390625 11.382812 C 28.511719 11.496094 28.679688 11.535156 28.839844 11.492188 L 29.992188 11.167969 L 30.472656 11.972656 L 29.636719 12.832031 C 29.523438 12.949219 29.480469 13.121094 29.519531 13.277344 L 29.882812 14.695312 C 29.925781 14.855469 30.046875 14.980469 30.203125 15.03125 L 31.347656 15.382812 L 31.316406 16.316406 L 30.148438 16.589844 C 29.988281 16.625 29.859375 16.742188 29.808594 16.898438 L 29.347656 18.289062 C 29.296875 18.445312 29.332031 18.617188 29.4375 18.742188 L 30.210938 19.65625 L 29.679688 20.425781 L 28.550781 20.023438 C 28.394531 19.96875 28.222656 20 28.09375 20.101562 L 26.957031 21.023438 C 26.828125 21.128906 26.765625 21.289062 26.785156 21.453125 L 26.941406 22.640625 L 26.078125 23 L 25.347656 22.050781 C 25.246094 21.921875 25.085938 21.851562 24.921875 21.871094 L 23.464844 22.03125 C 23.304688 22.046875 23.160156 22.148438 23.089844 22.296875 L 22.578125 23.382812 L 21.660156 23.21875 L 21.554688 22.023438 C 21.539062 21.859375 21.441406 21.714844 21.296875 21.644531 L 19.984375 20.988281 C 19.839844 20.917969 19.664062 20.925781 19.523438 21.011719 L 18.507812 21.648438 L 17.824219 21.011719 L 18.378906 19.953125 C 18.457031 19.804688 18.453125 19.632812 18.367188 19.488281 L 17.621094 18.234375 C 17.535156 18.089844 17.382812 18.003906 17.21875 18.003906 L 16.019531 17.988281 L 15.789062 17.082031 L 16.832031 16.492188 C 16.972656 16.410156 17.0625 16.261719 17.070312 16.097656 L 17.121094 14.632812 C 17.125 14.46875 17.042969 14.3125 16.90625 14.222656 Z M 16.90625 14.222656 " fill-opacity="1" fill-rule="nonzero"/><g clip-path="url(#591c310ca1)"><path fill="#0097b2" d="M 36.117188 18.464844 C 36.117188 16.09375 35.652344 13.792969 34.738281 11.625 C 34.296875 10.582031 33.75 9.578125 33.117188 8.636719 C 32.488281 7.707031 31.765625 6.832031 30.96875 6.035156 C 30.175781 5.242188 29.300781 4.519531 28.367188 3.890625 C 27.429688 3.253906 26.425781 2.710938 25.382812 2.269531 C 23.214844 1.351562 20.914062 0.886719 18.539062 0.886719 C 16.359375 0.886719 14.230469 1.28125 12.214844 2.0625 C 10.265625 2.8125 8.480469 3.898438 6.90625 5.289062 C 6.710938 5.460938 6.691406 5.757812 6.867188 5.953125 C 7.039062 6.152344 7.335938 6.167969 7.53125 5.996094 C 9.019531 4.683594 10.710938 3.65625 12.554688 2.941406 C 14.460938 2.207031 16.476562 1.832031 18.539062 1.832031 C 20.785156 1.832031 22.964844 2.273438 25.015625 3.140625 C 26 3.558594 26.949219 4.074219 27.839844 4.671875 C 28.71875 5.269531 29.546875 5.953125 30.300781 6.703125 C 31.054688 7.457031 31.738281 8.285156 32.332031 9.167969 C 32.933594 10.054688 33.449219 11.007812 33.867188 11.992188 C 34.734375 14.042969 35.171875 16.21875 35.171875 18.464844 C 35.171875 20.335938 34.863281 22.175781 34.257812 23.925781 C 33.769531 25.328125 33.097656 26.65625 32.253906 27.878906 L 32.097656 26.929688 C 32.054688 26.671875 31.8125 26.496094 31.554688 26.539062 C 31.296875 26.582031 31.125 26.824219 31.164062 27.082031 L 31.492188 29.070312 C 31.527344 29.300781 31.730469 29.464844 31.957031 29.464844 C 31.980469 29.464844 32.007812 29.464844 32.035156 29.460938 L 34.019531 29.136719 C 34.277344 29.09375 34.453125 28.851562 34.410156 28.59375 C 34.367188 28.335938 34.125 28.160156 33.867188 28.203125 L 33.09375 28.328125 C 33.957031 27.058594 34.644531 25.6875 35.148438 24.234375 C 35.792969 22.382812 36.117188 20.441406 36.117188 18.464844 Z M 36.117188 18.464844 " fill-opacity="1" fill-rule="nonzero"/></g><g clip-path="url(#8a2c05ab36)"><path fill="#0097b2" d="M 30.496094 30.03125 C 29.738281 30.8125 28.902344 31.523438 28.011719 32.140625 C 27.109375 32.765625 26.144531 33.304688 25.140625 33.738281 C 24.121094 34.179688 23.050781 34.519531 21.960938 34.746094 C 20.84375 34.980469 19.691406 35.097656 18.539062 35.097656 C 16.292969 35.097656 14.117188 34.660156 12.066406 33.792969 C 11.082031 33.375 10.128906 32.859375 9.242188 32.257812 C 8.359375 31.664062 7.53125 30.980469 6.777344 30.226562 C 6.027344 29.476562 5.34375 28.648438 4.746094 27.765625 C 4.148438 26.875 3.632812 25.925781 3.214844 24.941406 C 2.347656 22.890625 1.90625 20.710938 1.90625 18.464844 C 1.90625 16.40625 2.277344 14.398438 3.011719 12.492188 C 3.589844 10.988281 4.378906 9.589844 5.359375 8.316406 L 5.359375 9.054688 C 5.359375 9.316406 5.570312 9.527344 5.832031 9.527344 C 6.09375 9.527344 6.304688 9.316406 6.304688 9.054688 L 6.304688 7.042969 C 6.304688 6.78125 6.09375 6.570312 5.832031 6.570312 L 3.820312 6.570312 C 3.558594 6.570312 3.347656 6.78125 3.347656 7.042969 C 3.347656 7.304688 3.558594 7.515625 3.820312 7.515625 L 4.789062 7.515625 C 3.667969 8.917969 2.777344 10.476562 2.128906 12.152344 C 1.355469 14.164062 0.960938 16.289062 0.960938 18.464844 C 0.960938 20.839844 1.425781 23.140625 2.34375 25.308594 C 2.785156 26.351562 3.328125 27.355469 3.964844 28.292969 C 4.59375 29.226562 5.316406 30.101562 6.109375 30.894531 C 6.90625 31.691406 7.78125 32.414062 8.710938 33.042969 C 9.652344 33.675781 10.65625 34.222656 11.699219 34.664062 C 13.867188 35.578125 16.167969 36.042969 18.539062 36.042969 C 19.757812 36.042969 20.976562 35.917969 22.15625 35.671875 C 23.308594 35.429688 24.4375 35.074219 25.519531 34.605469 C 26.578125 34.144531 27.597656 33.578125 28.550781 32.917969 C 29.492188 32.265625 30.375 31.515625 31.171875 30.6875 C 31.355469 30.5 31.351562 30.203125 31.164062 30.019531 C 30.976562 29.839844 30.675781 29.84375 30.496094 30.03125 Z M 30.496094 30.03125 " fill-opacity="1" fill-rule="nonzero"/></g><path fill="#0097b2" d="M 22.308594 17.714844 C 22.398438 17.804688 22.519531 17.851562 22.640625 17.851562 C 22.761719 17.851562 22.882812 17.804688 22.976562 17.714844 L 25.753906 14.933594 C 25.9375 14.75 25.9375 14.449219 25.753906 14.265625 C 25.570312 14.082031 25.269531 14.082031 25.085938 14.265625 L 22.640625 16.710938 L 21.570312 15.640625 C 21.386719 15.457031 21.089844 15.457031 20.902344 15.640625 C 20.71875 15.824219 20.71875 16.125 20.902344 16.308594 Z M 22.308594 17.714844 " fill-opacity="1" fill-rule="nonzero"/></svg>