<svg xmlns="http://www.w3.org/2000/svg" xmlns:xlink="http://www.w3.org/1999/xlink" width="50" zoomAndPan="magnify" viewBox="0 0 37.5 37.499999" height="50" preserveAspectRatio="xMidYMid meet" version="1.0"><defs><clipPath id="1e8a1fab00"><path d="M 1.703125 0.535156 L 35 0.535156 L 35 36.800781 L 1.703125 36.800781 Z M 1.703125 0.535156 " clip-rule="nonzero"/></clipPath></defs><g clip-path="url(#1e8a1fab00)"><path fill="#00bf63" d="M 32.078125 26.90625 C 31.359375 27.328125 30.34375 27.988281 29.171875 28.753906 C 26.207031 30.683594 21.242188 33.917969 19.730469 33.832031 C 16.070312 33.628906 12.261719 32.984375 8.617188 33.53125 L 8.617188 27.042969 C 9.484375 27 10.527344 26.910156 11.578125 26.695312 C 12.210938 26.5625 13.402344 26.019531 14.613281 25.46875 C 17.027344 24.375 17.210938 24.414062 19.453125 24.875 C 20.21875 25.03125 20.976562 25.171875 21.816406 25.410156 C 23.234375 25.816406 24.015625 26.304688 24.015625 26.792969 C 24.015625 27.078125 23.925781 27.402344 23.742188 27.601562 C 23.441406 27.921875 22.9375 28.226562 22.417969 28.128906 L 18.320312 27.351562 C 18.257812 27.335938 18.1875 27.335938 18.125 27.351562 L 16.3125 27.679688 C 16.019531 27.734375 15.820312 28.015625 15.875 28.3125 C 15.925781 28.609375 16.210938 28.804688 16.507812 28.75 L 18.21875 28.4375 L 22.210938 29.195312 C 22.347656 29.222656 22.480469 29.234375 22.621094 29.234375 C 23.214844 29.234375 23.816406 28.996094 24.320312 28.554688 C 24.371094 28.542969 24.417969 28.527344 24.46875 28.5 L 31.820312 24.464844 C 32.734375 24.042969 33.539062 24.234375 33.761719 24.660156 C 34.003906 25.125 33.582031 26.027344 32.078125 26.90625 Z M 7.527344 34.769531 C 7.527344 35.101562 7.261719 35.371094 6.925781 35.371094 L 3.394531 35.371094 C 3.0625 35.371094 2.792969 35.101562 2.792969 34.769531 L 2.792969 26.402344 C 2.792969 26.070312 3.0625 25.800781 3.394531 25.800781 L 6.925781 25.800781 C 7.261719 25.800781 7.527344 26.070312 7.527344 26.402344 Z M 34.789062 24.117188 C 34.226562 23.050781 32.730469 22.75 31.3125 23.421875 C 31.304688 23.429688 31.289062 23.433594 31.28125 23.4375 L 25.175781 26.789062 C 25.171875 25.332031 23.4375 24.667969 22.132812 24.296875 C 21.257812 24.046875 20.472656 23.898438 19.6875 23.738281 C 17.210938 23.226562 16.789062 23.207031 14.136719 24.410156 C 13.078125 24.890625 11.855469 25.449219 11.339844 25.558594 C 10.355469 25.761719 9.367188 25.84375 8.535156 25.882812 C 8.316406 25.203125 7.675781 24.714844 6.925781 24.714844 L 3.394531 24.714844 C 2.460938 24.714844 1.703125 25.472656 1.703125 26.402344 L 1.703125 34.769531 C 1.703125 35.703125 2.460938 36.460938 3.394531 36.460938 L 6.925781 36.460938 C 7.855469 36.460938 8.617188 35.703125 8.617188 34.769531 L 8.617188 34.707031 C 11.132812 34.292969 13.628906 34.503906 16.441406 34.746094 C 17.480469 34.839844 18.558594 34.929688 19.664062 34.992188 C 21.425781 35.09375 25.414062 32.585938 29.804688 29.726562 C 30.964844 28.972656 31.96875 28.316406 32.664062 27.910156 C 34.988281 26.550781 35.285156 25.058594 34.789062 24.117188 Z M 11.601562 18.050781 C 10.898438 18.050781 10.324219 17.480469 10.324219 16.777344 C 10.324219 16.078125 10.898438 15.503906 11.601562 15.503906 C 12.300781 15.503906 12.871094 16.078125 12.871094 16.777344 C 12.871094 17.480469 12.300781 18.050781 11.601562 18.050781 Z M 11.601562 14.417969 C 10.296875 14.417969 9.238281 15.476562 9.238281 16.777344 C 9.238281 18.082031 10.296875 19.140625 11.601562 19.140625 C 12.902344 19.140625 13.957031 18.082031 13.957031 16.777344 C 13.957031 15.476562 12.902344 14.417969 11.601562 14.417969 Z M 10.367188 6.085938 C 10.753906 5.773438 11.167969 5.734375 11.695312 5.734375 C 12.160156 5.734375 12.539062 5.851562 12.835938 6.085938 C 13.167969 6.355469 13.132812 6.574219 13.117188 6.660156 L 12.144531 12.285156 C 12.132812 12.359375 11.933594 12.503906 11.585938 12.503906 C 11.257812 12.503906 11.058594 12.351562 11.050781 12.285156 L 10.082031 6.660156 C 10.066406 6.574219 10.027344 6.355469 10.367188 6.085938 Z M 9.976562 12.46875 C 10.09375 13.132812 10.769531 13.59375 11.613281 13.59375 C 12.429688 13.59375 13.109375 13.121094 13.21875 12.46875 L 14.191406 6.84375 C 14.292969 6.238281 14.054688 5.667969 13.511719 5.234375 C 13.03125 4.847656 12.402344 4.644531 11.695312 4.644531 L 11.5 4.644531 C 10.796875 4.644531 10.167969 4.847656 9.6875 5.234375 C 9.144531 5.667969 8.902344 6.238281 9.007812 6.84375 Z M 3.246094 4.824219 C 3.175781 11.566406 3.867188 18.285156 11.601562 20.890625 C 19.335938 18.285156 20.019531 11.566406 19.949219 4.824219 C 14.726562 2.667969 8.464844 2.667969 3.246094 4.824219 Z M 11.429688 21.980469 C 11.539062 22.015625 11.652344 22.015625 11.765625 21.980469 C 15.691406 20.707031 18.285156 18.375 19.6875 14.859375 C 20.953125 11.683594 21.082031 7.980469 21.035156 4.453125 C 21.03125 4.238281 20.902344 4.046875 20.707031 3.960938 C 15.015625 1.503906 8.175781 1.503906 2.488281 3.960938 C 2.292969 4.046875 2.164062 4.238281 2.164062 4.453125 C 2.113281 7.980469 2.246094 11.683594 3.507812 14.859375 C 4.910156 18.375 7.503906 20.707031 11.429688 21.980469 Z M 31.664062 1.621094 C 32.527344 1.621094 33.230469 2.324219 33.230469 3.1875 C 33.230469 4.050781 32.527344 4.75 31.664062 4.75 C 30.804688 4.75 30.097656 4.050781 30.097656 3.1875 C 30.097656 2.324219 30.804688 1.621094 31.664062 1.621094 Z M 31.664062 9.625 C 32.527344 9.625 33.230469 10.328125 33.230469 11.191406 C 33.230469 12.054688 32.527344 12.753906 31.664062 12.753906 C 30.804688 12.753906 30.097656 12.054688 30.097656 11.191406 C 30.097656 10.328125 30.804688 9.625 31.664062 9.625 Z M 31.664062 17.628906 C 32.527344 17.628906 33.230469 18.332031 33.230469 19.195312 C 33.230469 20.058594 32.527344 20.757812 31.664062 20.757812 C 30.804688 20.757812 30.097656 20.058594 30.097656 19.195312 C 30.097656 18.332031 30.804688 17.628906 31.664062 17.628906 Z M 23.0625 11.734375 L 26.296875 11.734375 L 26.296875 19.195312 C 26.296875 19.496094 26.542969 19.738281 26.839844 19.738281 L 29.066406 19.738281 C 29.316406 20.941406 30.386719 21.847656 31.664062 21.847656 C 33.128906 21.847656 34.316406 20.65625 34.316406 19.195312 C 34.316406 17.730469 33.128906 16.539062 31.664062 16.539062 C 30.386719 16.539062 29.316406 17.445312 29.066406 18.648438 L 27.386719 18.648438 L 27.386719 11.734375 L 29.066406 11.734375 C 29.316406 12.9375 30.386719 13.84375 31.664062 13.84375 C 33.128906 13.84375 34.316406 12.652344 34.316406 11.191406 C 34.316406 9.726562 33.128906 8.535156 31.664062 8.535156 C 30.386719 8.535156 29.316406 9.441406 29.066406 10.644531 L 27.386719 10.644531 L 27.386719 3.730469 L 29.066406 3.730469 C 29.316406 4.933594 30.386719 5.839844 31.664062 5.839844 C 33.128906 5.839844 34.316406 4.648438 34.316406 3.1875 C 34.316406 1.722656 33.128906 0.53125 31.664062 0.53125 C 30.386719 0.53125 29.316406 1.4375 29.066406 2.640625 L 26.839844 2.640625 C 26.542969 2.640625 26.296875 2.886719 26.296875 3.1875 L 26.296875 10.644531 L 23.0625 10.644531 C 22.761719 10.644531 22.519531 10.890625 22.519531 11.191406 C 22.519531 11.492188 22.761719 11.734375 23.0625 11.734375 Z M 23.0625 11.734375 " fill-opacity="1" fill-rule="evenodd"/></g></svg>