<svg xmlns="http://www.w3.org/2000/svg" xmlns:xlink="http://www.w3.org/1999/xlink" width="50" zoomAndPan="magnify" viewBox="0 0 37.5 37.499999" height="50" preserveAspectRatio="xMidYMid meet" version="1.0"><defs><clipPath id="ca726cd0a6"><path d="M 1.332031 0.769531 L 36 0.769531 L 36 35.554688 L 1.332031 35.554688 Z M 1.332031 0.769531 " clip-rule="nonzero"/></clipPath></defs><g clip-path="url(#ca726cd0a6)"><path fill="#ffffff" d="M 27.324219 12.289062 L 30.203125 12.289062 C 30.476562 12.289062 30.699219 12.511719 30.699219 12.789062 C 30.699219 13.0625 30.476562 13.285156 30.203125 13.285156 L 27.324219 13.285156 C 27.050781 13.285156 26.824219 13.0625 26.824219 12.789062 C 26.824219 12.511719 27.050781 12.289062 27.324219 12.289062 Z M 24.441406 7.027344 C 24.246094 6.835938 24.246094 6.519531 24.441406 6.324219 L 26.476562 4.289062 C 26.671875 4.09375 26.988281 4.09375 27.179688 4.289062 C 27.375 4.484375 27.375 4.796875 27.179688 4.992188 L 25.144531 7.027344 C 24.949219 7.222656 24.632812 7.222656 24.441406 7.027344 Z M 6.664062 12.789062 C 6.664062 12.511719 6.886719 12.289062 7.164062 12.289062 L 10.042969 12.289062 C 10.316406 12.289062 10.539062 12.511719 10.539062 12.789062 C 10.539062 13.0625 10.316406 13.285156 10.042969 13.285156 L 7.164062 13.285156 C 6.886719 13.285156 6.664062 13.0625 6.664062 12.789062 Z M 10.183594 4.992188 C 9.992188 4.796875 9.992188 4.484375 10.183594 4.289062 C 10.378906 4.09375 10.695312 4.09375 10.886719 4.289062 L 12.925781 6.324219 C 13.238281 6.640625 13.011719 7.175781 12.574219 7.175781 C 12.445312 7.175781 12.320312 7.125 12.222656 7.027344 Z M 18.1875 4.144531 L 18.1875 1.265625 C 18.1875 0.992188 18.40625 0.769531 18.683594 0.769531 C 18.957031 0.769531 19.179688 0.992188 19.179688 1.265625 L 19.179688 4.144531 C 19.179688 4.421875 18.957031 4.644531 18.683594 4.644531 C 18.40625 4.644531 18.1875 4.421875 18.1875 4.144531 Z M 18.683594 6.957031 C 21.019531 6.957031 22.917969 8.671875 22.917969 10.78125 C 22.917969 11.664062 22.574219 12.523438 21.957031 13.203125 C 21.070312 14.179688 20.824219 14.859375 20.375 16.007812 C 20.308594 16 20.242188 15.992188 20.175781 15.992188 L 17.191406 15.992188 C 17.121094 15.992188 17.054688 16 16.992188 16.007812 C 16.542969 14.863281 16.296875 14.179688 15.410156 13.203125 C 14.789062 12.523438 14.449219 11.664062 14.449219 10.78125 C 14.449219 8.671875 16.347656 6.957031 18.683594 6.957031 Z M 19.195312 19.652344 L 18.171875 19.652344 C 17.730469 19.652344 17.378906 19.300781 17.378906 18.84375 L 19.988281 18.84375 C 19.988281 19.300781 19.632812 19.652344 19.195312 19.652344 Z M 20.609375 17.417969 C 20.609375 17.65625 20.414062 17.851562 20.175781 17.851562 L 17.191406 17.851562 C 16.953125 17.851562 16.757812 17.65625 16.757812 17.417969 C 16.757812 17.179688 16.953125 16.988281 17.191406 16.988281 L 20.175781 16.988281 C 20.414062 16.988281 20.609375 17.179688 20.609375 17.417969 Z M 15.789062 15.671875 L 16.109375 16.488281 C 15.554688 17.132812 15.683594 18.113281 16.382812 18.59375 L 16.382812 18.859375 C 16.382812 19.84375 17.183594 20.648438 18.171875 20.648438 L 19.195312 20.648438 C 20.179688 20.648438 20.980469 19.84375 20.980469 18.859375 L 20.980469 18.59375 C 21.683594 18.113281 21.8125 17.132812 21.253906 16.488281 C 21.671875 15.425781 21.875 14.769531 22.691406 13.875 C 23.480469 13.007812 23.910156 11.910156 23.910156 10.78125 C 23.910156 8.125 21.566406 5.964844 18.683594 5.964844 C 15.800781 5.964844 13.453125 8.125 13.453125 10.78125 C 13.453125 11.910156 13.886719 13.007812 14.671875 13.875 C 15.175781 14.425781 15.519531 14.976562 15.789062 15.671875 Z M 34.597656 34.007812 C 34.429688 34.132812 34.308594 34.210938 34.070312 34.171875 C 33.902344 34.140625 33.777344 34.0625 33.683594 33.917969 C 32.773438 32.558594 31.5625 31.5 29.984375 30.675781 C 29.65625 30.503906 29.261719 30.742188 29.257812 31.113281 L 29.238281 34.695312 C 29.238281 34.792969 29.15625 34.875 29.058594 34.875 L 24.722656 34.875 C 24.625 34.875 24.542969 34.792969 24.542969 34.695312 L 24.542969 28.988281 C 24.542969 28.777344 24.414062 28.589844 24.214844 28.519531 C 22.0625 27.75 20.445312 26.433594 19.265625 24.492188 C 19.101562 24.222656 19.179688 23.875 19.441406 23.699219 C 19.621094 23.578125 19.742188 23.507812 19.972656 23.558594 C 20.140625 23.597656 20.261719 23.683594 20.351562 23.828125 C 22.496094 27.34375 26.28125 28.433594 29.625 29.398438 C 31.804688 30.074219 33.476562 31.320312 34.738281 33.207031 C 34.910156 33.46875 34.851562 33.820312 34.597656 34.007812 Z M 18.101562 24.492188 C 16.921875 26.433594 15.304688 27.75 13.152344 28.519531 C 12.953125 28.589844 12.820312 28.777344 12.820312 28.988281 L 12.820312 34.695312 C 12.820312 34.792969 12.738281 34.875 12.644531 34.875 L 8.304688 34.875 C 8.210938 34.875 8.128906 34.792969 8.128906 34.691406 L 8.109375 31.113281 C 8.105469 30.738281 7.707031 30.507812 7.378906 30.675781 C 5.804688 31.5 4.59375 32.558594 3.683594 33.917969 C 3.496094 34.199219 3.117188 34.265625 2.84375 34.0625 L 2.769531 34.007812 C 2.515625 33.820312 2.453125 33.46875 2.628906 33.207031 C 3.886719 31.320312 5.5625 30.074219 7.742188 29.398438 C 11.085938 28.433594 14.871094 27.34375 17.015625 23.828125 C 17.191406 23.539062 17.566406 23.457031 17.847656 23.648438 L 17.925781 23.699219 C 18.1875 23.875 18.261719 24.222656 18.101562 24.492188 Z M 35.566406 32.65625 C 34.191406 30.597656 32.289062 29.179688 29.914062 28.445312 C 29.910156 28.445312 29.90625 28.445312 29.90625 28.445312 C 26.582031 27.488281 23.144531 26.496094 21.199219 23.308594 C 20.726562 22.535156 19.714844 22.316406 18.960938 22.820312 L 18.683594 23.035156 C 18.277344 22.65625 17.742188 22.464844 17.179688 22.585938 C 16.75 22.683594 16.398438 22.933594 16.167969 23.308594 C 14.222656 26.496094 10.785156 27.488281 7.460938 28.445312 C 7.457031 28.445312 7.457031 28.445312 7.453125 28.445312 C 5.074219 29.179688 3.175781 30.597656 1.800781 32.65625 C 1.332031 33.359375 1.496094 34.308594 2.179688 34.808594 C 2.578125 35.105469 2.957031 35.238281 3.464844 35.152344 C 3.902344 35.074219 4.261719 34.839844 4.507812 34.472656 C 5.179688 33.46875 6.039062 32.648438 7.117188 31.972656 L 7.132812 34.695312 C 7.132812 35.34375 7.660156 35.871094 8.304688 35.871094 L 12.644531 35.871094 C 13.289062 35.871094 13.816406 35.34375 13.816406 34.695312 L 13.816406 29.332031 C 15.847656 28.539062 17.480469 27.226562 18.683594 25.425781 C 19.886719 27.226562 21.519531 28.539062 23.550781 29.332031 L 23.550781 34.695312 C 23.550781 35.34375 24.074219 35.871094 24.722656 35.871094 L 29.058594 35.871094 C 29.707031 35.871094 30.234375 35.34375 30.234375 34.699219 L 30.25 31.972656 C 31.328125 32.648438 32.183594 33.46875 32.855469 34.472656 C 33.359375 35.222656 34.382812 35.402344 35.113281 34.863281 L 35.1875 34.808594 C 35.867188 34.308594 36.035156 33.359375 35.566406 32.65625 Z M 28.386719 25.675781 C 29.449219 25.675781 30.316406 24.8125 30.316406 23.75 C 30.316406 22.6875 29.449219 21.820312 28.386719 21.820312 C 27.324219 21.820312 26.460938 22.6875 26.460938 23.75 C 26.460938 24.8125 27.324219 25.675781 28.386719 25.675781 Z M 28.386719 20.828125 C 26.777344 20.828125 25.464844 22.136719 25.464844 23.75 C 25.464844 25.359375 26.777344 26.671875 28.386719 26.671875 C 30 26.671875 31.308594 25.359375 31.308594 23.75 C 31.308594 22.136719 30 20.828125 28.386719 20.828125 Z M 8.980469 21.820312 C 7.914062 21.820312 7.050781 22.6875 7.050781 23.75 C 7.050781 24.8125 7.914062 25.675781 8.980469 25.675781 C 10.042969 25.675781 10.90625 24.8125 10.90625 23.75 C 10.90625 22.6875 10.042969 21.820312 8.980469 21.820312 Z M 8.980469 26.671875 C 10.589844 26.671875 11.902344 25.359375 11.902344 23.75 C 11.902344 22.136719 10.589844 20.828125 8.980469 20.828125 C 7.367188 20.828125 6.054688 22.136719 6.054688 23.75 C 6.054688 25.359375 7.367188 26.671875 8.980469 26.671875 Z M 8.980469 26.671875 " fill-opacity="1" fill-rule="evenodd"/></g></svg>