<svg xmlns="http://www.w3.org/2000/svg" xmlns:xlink="http://www.w3.org/1999/xlink" width="50" zoomAndPan="magnify" viewBox="0 0 37.5 37.499999" height="50" preserveAspectRatio="xMidYMid meet" version="1.0"><defs><clipPath id="b0e25c4675"><path d="M 0.886719 19 L 18 19 L 18 35.894531 L 0.886719 35.894531 Z M 0.886719 19 " clip-rule="nonzero"/></clipPath><clipPath id="3809d251e4"><path d="M 10 1.109375 L 35.675781 1.109375 L 35.675781 27 L 10 27 Z M 10 1.109375 " clip-rule="nonzero"/></clipPath></defs><path fill="#0097b2" d="M 5.339844 32.226562 C 5.191406 32.226562 5.046875 32.167969 4.9375 32.058594 C 4.800781 31.921875 4.742188 31.722656 4.785156 31.535156 L 6.601562 23.152344 C 6.644531 22.949219 6.796875 22.785156 7 22.726562 C 7.199219 22.667969 7.414062 22.722656 7.5625 22.871094 L 8.800781 24.109375 L 18.191406 14.71875 L 16.953125 13.480469 C 16.808594 13.332031 16.753906 13.117188 16.8125 12.914062 C 16.871094 12.714844 17.03125 12.5625 17.238281 12.519531 L 25.617188 10.699219 C 25.808594 10.660156 26.003906 10.71875 26.140625 10.855469 C 26.28125 10.992188 26.335938 11.1875 26.296875 11.378906 L 24.480469 19.757812 C 24.433594 19.964844 24.28125 20.128906 24.082031 20.1875 C 23.882812 20.246094 23.664062 20.191406 23.519531 20.042969 L 22.28125 18.804688 L 12.886719 28.199219 L 14.125 29.4375 C 14.273438 29.582031 14.328125 29.800781 14.269531 30 C 14.210938 30.199219 14.046875 30.351562 13.84375 30.398438 L 5.460938 32.214844 C 5.421875 32.222656 5.378906 32.226562 5.339844 32.226562 Z M 7.496094 24.417969 L 6.085938 30.910156 L 12.578125 29.503906 L 11.679688 28.601562 C 11.570312 28.492188 11.511719 28.347656 11.511719 28.199219 C 11.511719 28.046875 11.570312 27.902344 11.679688 27.792969 L 21.875 17.597656 C 22.097656 17.371094 22.460938 17.371094 22.683594 17.597656 L 23.585938 18.496094 L 24.992188 12.003906 L 18.5 13.410156 L 19.398438 14.3125 C 19.507812 14.421875 19.566406 14.566406 19.566406 14.714844 C 19.566406 14.867188 19.507812 15.011719 19.398438 15.121094 L 9.203125 25.320312 C 8.980469 25.542969 8.617188 25.542969 8.394531 25.320312 Z M 7.496094 24.417969 " fill-opacity="1" fill-rule="nonzero"/><g clip-path="url(#b0e25c4675)"><path fill="#0097b2" d="M 16.84375 36.109375 L 1.457031 36.109375 C 1.140625 36.109375 0.886719 35.855469 0.886719 35.539062 L 0.886719 20.152344 C 0.886719 19.839844 1.140625 19.582031 1.457031 19.582031 L 13.5625 19.582031 C 13.875 19.582031 14.132812 19.839844 14.132812 20.152344 C 14.132812 20.46875 13.875 20.722656 13.5625 20.722656 L 2.027344 20.722656 L 2.027344 34.96875 L 16.273438 34.96875 L 16.273438 23.4375 C 16.273438 23.121094 16.527344 22.867188 16.84375 22.867188 C 17.15625 22.867188 17.414062 23.121094 17.414062 23.4375 L 17.414062 35.539062 C 17.414062 35.855469 17.160156 36.109375 16.84375 36.109375 Z M 16.84375 36.109375 " fill-opacity="1" fill-rule="nonzero"/></g><g clip-path="url(#3809d251e4)"><path fill="#0097b2" d="M 35.320312 26.105469 L 16.84375 26.105469 C 16.527344 26.105469 16.273438 25.847656 16.273438 25.535156 C 16.273438 25.21875 16.527344 24.964844 16.84375 24.964844 L 34.75 24.964844 L 34.75 2.246094 L 12.035156 2.246094 L 12.035156 20.152344 C 12.035156 20.46875 11.777344 20.722656 11.464844 20.722656 C 11.148438 20.722656 10.894531 20.46875 10.894531 20.152344 L 10.894531 1.675781 C 10.894531 1.363281 11.148438 1.105469 11.464844 1.105469 L 35.320312 1.105469 C 35.632812 1.105469 35.890625 1.363281 35.890625 1.675781 L 35.890625 25.535156 C 35.890625 25.847656 35.632812 26.105469 35.320312 26.105469 Z M 35.320312 26.105469 " fill-opacity="1" fill-rule="nonzero"/></g></svg>