<svg xmlns="http://www.w3.org/2000/svg" xmlns:xlink="http://www.w3.org/1999/xlink" width="50" zoomAndPan="magnify" viewBox="0 0 37.5 37.499999" height="50" preserveAspectRatio="xMidYMid meet" version="1.0"><defs><clipPath id="3aa3d39c3b"><path d="M 0.625 1.570312 L 36.152344 1.570312 L 36.152344 35.613281 L 0.625 35.613281 Z M 0.625 1.570312 " clip-rule="nonzero"/></clipPath></defs><g clip-path="url(#3aa3d39c3b)"><path fill="#ff5757" d="M 33.609375 27.285156 C 31.902344 25.582031 29.546875 24.523438 26.960938 24.523438 L 23.707031 24.523438 C 23.707031 24.480469 23.710938 24.4375 23.710938 24.394531 L 23.710938 22.832031 C 23.851562 22.707031 23.988281 22.582031 24.121094 22.449219 C 24.523438 22.046875 24.882812 21.601562 25.191406 21.121094 C 26.820312 20.933594 28.09375 20.367188 28.417969 18.851562 C 28.9375 18.75 29.398438 18.496094 29.757812 18.136719 C 30.230469 17.664062 30.527344 17.011719 30.527344 16.292969 L 30.527344 13.398438 C 30.527344 12.679688 30.230469 12.027344 29.757812 11.554688 L 29.722656 11.523438 C 29.410156 11.222656 29.023438 11 28.597656 10.882812 C 28.597656 10.871094 28.601562 10.859375 28.601562 10.851562 C 28.601562 8.292969 27.488281 5.972656 25.695312 4.289062 C 23.910156 2.617188 21.453125 1.578125 18.753906 1.578125 L 18.246094 1.578125 C 15.546875 1.578125 13.089844 2.617188 11.304688 4.289062 C 9.511719 5.972656 8.398438 8.292969 8.398438 10.851562 C 8.398438 10.859375 8.402344 10.871094 8.402344 10.882812 C 7.960938 11.003906 7.5625 11.238281 7.242188 11.554688 L 7.242188 11.558594 C 6.769531 12.03125 6.472656 12.683594 6.472656 13.398438 L 6.472656 16.292969 C 6.472656 16.992188 6.753906 17.628906 7.207031 18.097656 L 7.242188 18.136719 C 7.714844 18.609375 8.367188 18.902344 9.085938 18.902344 C 9.6875 18.902344 10.246094 18.695312 10.6875 18.347656 C 10.996094 19.929688 11.777344 21.351562 12.878906 22.449219 C 13.085938 22.65625 13.300781 22.851562 13.53125 23.035156 L 13.53125 24.394531 C 13.53125 24.4375 13.53125 24.480469 13.535156 24.523438 L 10.039062 24.523438 C 7.449219 24.523438 5.097656 25.582031 3.390625 27.289062 C 1.683594 28.992188 0.625 31.34375 0.625 33.933594 L 0.625 34.84375 C 0.625 35.160156 0.882812 35.417969 1.203125 35.417969 L 35.796875 35.417969 C 36.113281 35.417969 36.371094 35.160156 36.371094 34.84375 L 36.371094 33.933594 C 36.371094 31.34375 35.3125 28.992188 33.609375 27.285156 Z M 25.875 19.804688 C 26.0625 19.339844 26.210938 18.851562 26.308594 18.347656 C 26.574219 18.554688 26.882812 18.710938 27.214844 18.804688 C 26.996094 19.3125 26.515625 19.625 25.875 19.804688 Z M 28.941406 12.371094 C 29.207031 12.632812 29.371094 13 29.371094 13.398438 L 29.371094 16.292969 C 29.371094 16.691406 29.207031 17.054688 28.941406 17.320312 C 28.675781 17.585938 28.3125 17.75 27.914062 17.75 C 27.511719 17.75 27.148438 17.585938 26.882812 17.320312 C 26.617188 17.058594 26.453125 16.691406 26.453125 16.292969 L 26.453125 13.398438 C 26.453125 12.996094 26.617188 12.632812 26.882812 12.371094 L 26.882812 12.367188 C 27.148438 12.105469 27.511719 11.941406 27.914062 11.941406 C 28.300781 11.941406 28.65625 12.09375 28.917969 12.34375 Z M 12.09375 5.128906 C 13.667969 3.648438 15.84375 2.730469 18.242188 2.730469 L 18.753906 2.730469 C 21.148438 2.730469 23.328125 3.648438 24.90625 5.128906 C 26.46875 6.59375 27.441406 8.613281 27.445312 10.832031 C 27.070312 10.902344 26.722656 11.050781 26.417969 11.265625 C 26.242188 9.371094 25.394531 7.667969 24.117188 6.394531 C 22.675781 4.953125 20.6875 4.054688 18.496094 4.054688 C 16.308594 4.054688 14.320312 4.953125 12.878906 6.394531 C 11.601562 7.667969 10.753906 9.371094 10.578125 11.265625 C 10.273438 11.050781 9.925781 10.902344 9.550781 10.832031 C 9.558594 8.613281 10.527344 6.59375 12.09375 5.128906 Z M 25.25 11.183594 C 23.890625 11.179688 22.585938 11.003906 21.339844 10.664062 C 19.910156 10.273438 18.542969 9.65625 17.246094 8.820312 C 17.023438 8.675781 16.722656 8.703125 16.527344 8.898438 C 15.953125 9.476562 15.21875 9.953125 14.316406 10.339844 C 13.574219 10.652344 12.722656 10.902344 11.761719 11.085938 C 11.96875 9.582031 12.667969 8.234375 13.695312 7.207031 C 14.929688 5.972656 16.628906 5.207031 18.5 5.207031 C 20.371094 5.207031 22.070312 5.972656 23.304688 7.207031 C 24.351562 8.257812 25.0625 9.644531 25.25 11.183594 Z M 9.085938 17.75 C 8.683594 17.75 8.320312 17.585938 8.054688 17.320312 L 8.027344 17.296875 C 7.78125 17.035156 7.628906 16.679688 7.628906 16.292969 L 7.628906 13.398438 C 7.628906 12.996094 7.792969 12.632812 8.054688 12.371094 L 8.054688 12.367188 C 8.320312 12.105469 8.683594 11.941406 9.085938 11.941406 C 9.488281 11.941406 9.851562 12.105469 10.113281 12.367188 L 10.113281 12.371094 C 10.378906 12.632812 10.542969 13 10.542969 13.398438 L 10.542969 16.292969 C 10.542969 16.691406 10.378906 17.054688 10.113281 17.320312 C 9.847656 17.585938 9.484375 17.75 9.085938 17.75 Z M 11.695312 16.828125 L 11.695312 12.269531 C 12.851562 12.066406 13.875 11.777344 14.765625 11.394531 C 15.636719 11.023438 16.382812 10.566406 17.003906 10.027344 C 18.285156 10.804688 19.628906 11.386719 21.035156 11.773438 C 22.402344 12.144531 23.824219 12.332031 25.304688 12.332031 L 25.304688 16.828125 C 25.304688 17.980469 25.011719 19.066406 24.5 20.019531 C 23.617188 20.078125 22.609375 20.042969 21.621094 20.003906 L 21.417969 19.996094 C 21.328125 19.703125 21.167969 19.4375 20.960938 19.222656 C 20.621094 18.875 20.152344 18.660156 19.640625 18.660156 C 19.125 18.660156 18.65625 18.875 18.316406 19.222656 C 17.984375 19.5625 17.777344 20.035156 17.777344 20.554688 C 17.777344 21.074219 17.984375 21.546875 18.316406 21.886719 C 18.65625 22.234375 19.125 22.449219 19.640625 22.449219 C 20.152344 22.449219 20.621094 22.234375 20.960938 21.886719 C 21.160156 21.683594 21.316406 21.429688 21.40625 21.148438 L 21.582031 21.152344 C 22.292969 21.179688 23.011719 21.207031 23.699219 21.203125 C 23.574219 21.351562 23.441406 21.496094 23.304688 21.632812 C 22.070312 22.867188 20.371094 23.632812 18.5 23.632812 C 17.363281 23.632812 16.292969 23.351562 15.347656 22.851562 C 15.035156 22.683594 14.738281 22.488281 14.457031 22.273438 C 14.421875 22.242188 14.378906 22.21875 14.339844 22.203125 C 14.113281 22.023438 13.898438 21.835938 13.695312 21.632812 C 12.460938 20.402344 11.695312 18.699219 11.695312 16.828125 Z M 20.347656 20.554688 C 20.347656 20.765625 20.265625 20.953125 20.136719 21.085938 C 20.007812 21.21875 19.832031 21.296875 19.636719 21.296875 C 19.441406 21.296875 19.265625 21.21875 19.136719 21.085938 C 19.007812 20.953125 18.925781 20.765625 18.925781 20.554688 C 18.925781 20.347656 19.007812 20.15625 19.136719 20.023438 C 19.265625 19.894531 19.441406 19.8125 19.636719 19.8125 C 19.832031 19.8125 20.007812 19.894531 20.136719 20.023438 C 20.265625 20.15625 20.347656 20.347656 20.347656 20.554688 Z M 15.238281 24.082031 C 15.472656 24.191406 15.714844 24.289062 15.960938 24.375 C 16.691406 24.625 17.476562 24.765625 18.285156 24.78125 C 18.292969 24.78125 18.300781 24.78125 18.308594 24.78125 C 18.347656 24.785156 18.386719 24.785156 18.425781 24.785156 L 18.8125 24.785156 C 19.671875 24.785156 20.503906 24.640625 21.277344 24.375 C 21.722656 24.222656 22.148438 24.027344 22.554688 23.796875 L 22.554688 24.394531 C 22.554688 25.441406 22.125 26.394531 21.433594 27.085938 C 20.742188 27.78125 19.789062 28.210938 18.738281 28.210938 L 18.5 28.210938 C 17.449219 28.210938 16.496094 27.78125 15.804688 27.085938 C 15.113281 26.394531 14.683594 25.441406 14.683594 24.394531 L 14.683594 23.804688 C 14.863281 23.902344 15.050781 23.996094 15.238281 24.082031 Z M 1.777344 33.933594 C 1.777344 31.664062 2.707031 29.597656 4.203125 28.101562 C 5.703125 26.601562 7.765625 25.675781 10.039062 25.675781 L 13.699219 25.675781 C 13.929688 26.527344 14.378906 27.292969 14.988281 27.902344 C 15.761719 28.671875 16.785156 29.191406 17.921875 29.328125 L 17.921875 34.265625 L 1.777344 34.265625 Z M 35.21875 34.265625 L 19.074219 34.265625 L 19.074219 29.351562 C 20.308594 29.265625 21.421875 28.730469 22.25 27.902344 C 22.859375 27.292969 23.308594 26.527344 23.539062 25.675781 L 26.960938 25.675781 C 29.230469 25.675781 31.296875 26.605469 32.792969 28.101562 C 34.289062 29.597656 35.21875 31.664062 35.21875 33.933594 Z M 35.21875 34.265625 " fill-opacity="1" fill-rule="nonzero"/></g></svg>