<svg xmlns="http://www.w3.org/2000/svg" xmlns:xlink="http://www.w3.org/1999/xlink" width="50" zoomAndPan="magnify" viewBox="0 0 37.5 37.499999" height="50" preserveAspectRatio="xMidYMid meet" version="1.0"><defs><clipPath id="4b29035189"><path d="M 1.101562 0 L 35.886719 0 L 35.886719 36 L 1.101562 36 Z M 1.101562 0 " clip-rule="nonzero"/></clipPath></defs><g clip-path="url(#4b29035189)"><path fill="#ffffff" d="M 13.671875 7.910156 L 11.488281 7.546875 L 11.488281 12.910156 L 10.394531 12.910156 L 10.394531 7.546875 L 8.210938 7.910156 L 8.210938 12.644531 C 8.210938 13.007812 8.457031 13.34375 8.851562 13.527344 L 10.941406 14.492188 L 13.03125 13.527344 C 13.425781 13.34375 13.671875 13.007812 13.671875 12.644531 Z M 7.121094 12.644531 L 7.121094 6.988281 L 7.621094 6.90625 L 10.898438 6.359375 L 10.941406 6.351562 L 10.984375 6.359375 L 14.261719 6.90625 L 14.765625 6.988281 L 14.765625 12.644531 C 14.765625 13.4375 14.277344 14.152344 13.492188 14.519531 L 10.941406 15.695312 L 8.394531 14.519531 C 7.609375 14.152344 7.121094 13.4375 7.121094 12.644531 Z M 13.671875 24.921875 L 19.132812 24.921875 L 19.132812 23.832031 L 13.671875 23.832031 Z M 24.59375 24.921875 L 30.050781 24.921875 L 30.050781 23.832031 L 24.59375 23.832031 Z M 22.410156 21.644531 L 25.683594 21.644531 L 25.683594 20.554688 L 22.410156 20.554688 C 22.109375 20.554688 21.863281 20.800781 21.863281 21.101562 C 21.863281 21.402344 22.109375 21.644531 22.410156 21.644531 Z M 26.777344 21.644531 L 32.238281 21.644531 C 32.539062 21.644531 32.78125 21.402344 32.78125 21.101562 C 32.78125 20.800781 32.539062 20.554688 32.238281 20.554688 L 26.777344 20.554688 Z M 32.238281 22.738281 L 22.410156 22.738281 C 21.507812 22.738281 20.769531 22.003906 20.769531 21.101562 C 20.769531 20.195312 21.507812 19.460938 22.410156 19.460938 L 32.238281 19.460938 C 33.140625 19.460938 33.875 20.195312 33.875 21.101562 C 33.875 22.003906 33.140625 22.738281 32.238281 22.738281 Z M 27.867188 16.207031 L 27.867188 15.117188 L 26.777344 15.117188 L 26.777344 16.207031 C 27.3125 16.207031 27.320312 16.207031 27.320312 16.207031 C 27.320312 16.207031 27.3125 16.207031 27.867188 16.207031 Z M 27.867188 10.726562 L 26.777344 10.726562 L 26.777344 14.011719 L 27.867188 14.011719 Z M 23.519531 14.648438 L 22.476562 16.460938 C 22.335938 16.707031 22.429688 16.925781 22.476562 17.007812 C 22.527344 17.085938 22.667969 17.277344 22.953125 17.277344 L 31.695312 17.277344 C 31.976562 17.277344 32.117188 17.085938 32.164062 17.007812 C 32.214844 16.921875 32.308594 16.707031 32.167969 16.460938 L 31.132812 14.660156 L 30.851562 14.167969 L 30.566406 13.667969 L 27.796875 8.847656 C 27.652344 8.597656 27.417969 8.570312 27.320312 8.570312 C 27.226562 8.570312 26.992188 8.597656 26.847656 8.847656 L 24.089844 13.65625 L 23.800781 14.15625 Z M 24.488281 5.953125 C 24.414062 6.074219 24.339844 6.210938 24.257812 6.359375 C 23.695312 7.394531 22.960938 9.058594 22.960938 10.628906 C 22.960938 11.347656 23.128906 12.027344 23.417969 12.632812 L 25.902344 8.300781 C 26.199219 7.785156 26.726562 7.476562 27.320312 7.476562 C 27.320312 7.476562 27.320312 7.476562 27.324219 7.476562 C 27.917969 7.476562 28.449219 7.785156 28.742188 8.300781 L 31.242188 12.65625 C 31.542969 12.035156 31.695312 11.351562 31.683594 10.640625 C 31.652344 8.882812 30.902344 7.359375 30.445312 6.59375 L 29.738281 7.289062 L 29.136719 6.359375 L 27.359375 3.597656 L 25.828125 6.359375 L 25.40625 7.117188 L 24.808594 6.359375 Z M 22.78125 13.738281 C 22.207031 12.84375 21.871094 11.777344 21.871094 10.628906 C 21.871094 9.070312 22.46875 7.496094 23.027344 6.359375 C 23.503906 5.398438 23.949219 4.75 23.988281 4.691406 L 24.410156 4.089844 L 25.25 5.152344 L 27.285156 1.472656 L 29.925781 5.570312 L 30.59375 4.90625 L 30.972656 5.402344 C 31 5.4375 31.257812 5.785156 31.570312 6.359375 C 32.085938 7.292969 32.746094 8.832031 32.777344 10.621094 C 32.796875 11.753906 32.480469 12.835938 31.875 13.757812 L 33.113281 15.917969 C 33.410156 16.429688 33.40625 17.039062 33.113281 17.554688 C 32.816406 18.0625 32.285156 18.371094 31.695312 18.371094 L 22.953125 18.371094 C 22.359375 18.371094 21.832031 18.0625 21.535156 17.554688 C 21.238281 17.042969 21.238281 16.429688 21.53125 15.917969 Z M 5.4375 7.179688 C 4.953125 7.929688 4.617188 8.785156 4.46875 9.71875 C 3.914062 13.289062 6.367188 16.644531 9.933594 17.199219 C 13.507812 17.761719 16.859375 15.304688 17.417969 11.738281 C 17.695312 9.96875 17.230469 8.253906 16.257812 6.90625 C 16.125 6.714844 15.976562 6.53125 15.820312 6.359375 C 15.648438 6.164062 15.464844 5.984375 15.269531 5.8125 C 14.367188 5.011719 13.230469 4.453125 11.953125 4.25 C 9.945312 3.9375 8.003906 4.574219 6.59375 5.828125 C 6.371094 6.027344 6.164062 6.238281 5.96875 6.464844 C 5.777344 6.6875 5.597656 6.929688 5.4375 7.179688 Z M 3.390625 9.550781 C 3.460938 9.089844 3.574219 8.648438 3.722656 8.226562 C 3.847656 7.867188 3.996094 7.519531 4.171875 7.1875 C 4.335938 6.867188 4.527344 6.5625 4.734375 6.273438 C 6.367188 4.007812 9.183594 2.71875 12.121094 3.171875 C 14.019531 3.46875 15.640625 4.445312 16.789062 5.8125 C 16.9375 5.988281 17.078125 6.167969 17.210938 6.359375 C 17.332031 6.535156 17.449219 6.71875 17.558594 6.90625 C 18.402344 8.363281 18.777344 10.113281 18.496094 11.90625 C 17.910156 15.671875 14.648438 18.371094 10.949219 18.371094 C 10.558594 18.371094 10.164062 18.34375 9.765625 18.28125 C 5.601562 17.628906 2.742188 13.714844 3.390625 9.550781 Z M 2.207031 28.746094 C 2.207031 29.648438 2.941406 30.382812 3.84375 30.382812 L 5.113281 30.382812 L 5.625 27.105469 L 2.207031 27.105469 Z M 2.207031 26.015625 L 5.796875 26.015625 L 6.144531 23.769531 C 6.238281 23.1875 6.796875 22.789062 7.390625 22.882812 L 7.832031 20.046875 C 5.351562 19.222656 3.355469 17.449219 2.207031 15.214844 Z M 9.972656 20.507812 C 9.789062 20.488281 9.609375 20.464844 9.429688 20.4375 C 9.246094 20.410156 9.070312 20.375 8.890625 20.339844 L 8.46875 23.050781 L 8.871094 23.113281 L 9.546875 23.21875 Z M 2.367188 9.070312 C 2.347656 9.171875 2.328125 9.273438 2.3125 9.382812 C 2.210938 10.03125 2.1875 10.671875 2.226562 11.300781 C 2.453125 14.753906 4.730469 17.785156 8.003906 18.953125 C 8.511719 19.136719 9.042969 19.273438 9.59375 19.359375 C 9.59375 19.359375 9.597656 19.359375 9.597656 19.359375 C 9.597656 19.359375 9.597656 19.359375 9.601562 19.359375 C 10.152344 19.445312 10.699219 19.476562 11.238281 19.457031 C 15.351562 19.324219 18.917969 16.28125 19.574219 12.074219 C 19.863281 10.242188 19.550781 8.453125 18.792969 6.90625 C 18.703125 6.71875 18.605469 6.535156 18.503906 6.359375 C 18.394531 6.171875 18.28125 5.988281 18.160156 5.8125 C 16.84375 3.886719 14.769531 2.484375 12.289062 2.09375 C 11.835938 2.023438 11.386719 1.992188 10.9375 1.992188 C 7.3125 1.992188 4.0625 4.257812 2.78125 7.617188 C 2.605469 8.082031 2.464844 8.566406 2.367188 9.070312 Z M 9.453125 30.929688 L 9.535156 30.382812 L 10.046875 27.105469 L 10.132812 26.5625 L 10.21875 26.015625 L 10.460938 24.441406 L 7.292969 23.972656 L 7.222656 23.964844 L 7.050781 25.042969 L 9.210938 25.378906 L 9.113281 26.015625 L 9.042969 26.457031 L 6.882812 26.121094 L 6.816406 26.5625 L 6.730469 27.105469 L 6.21875 30.382812 L 6.136719 30.929688 L 6.050781 31.476562 L 6.042969 31.515625 L 8.199219 31.851562 L 8.035156 32.929688 L 5.875 32.59375 L 5.703125 33.699219 L 5.707031 33.671875 L 8.945312 34.179688 L 9.367188 31.476562 Z M 22.371094 34.75 C 21.78125 33.824219 21.417969 32.691406 21.335938 31.476562 L 15.835938 31.476562 C 15.753906 32.691406 15.394531 33.824219 14.804688 34.75 Z M 34.96875 27.105469 L 11.152344 27.105469 L 10.640625 30.382812 L 33.328125 30.382812 C 34.230469 30.382812 34.96875 29.648438 34.96875 28.746094 Z M 36.058594 8.542969 L 36.058594 28.746094 C 36.058594 30.25 34.832031 31.476562 33.328125 31.476562 L 22.429688 31.476562 C 22.535156 32.765625 23 33.925781 23.746094 34.75 L 25.140625 34.75 L 25.140625 35.84375 L 12.035156 35.84375 L 12.035156 34.75 L 13.429688 34.75 C 14.171875 33.925781 14.640625 32.765625 14.742188 31.476562 L 10.472656 31.476562 L 10.019531 34.371094 C 9.9375 34.894531 9.476562 35.269531 8.949219 35.269531 C 8.890625 35.269531 8.832031 35.265625 8.777344 35.257812 L 5.539062 34.75 C 5.253906 34.707031 5.003906 34.5625 4.832031 34.335938 C 4.652344 34.101562 4.578125 33.816406 4.625 33.53125 L 4.796875 32.425781 L 4.84375 32.132812 L 4.945312 31.476562 L 3.84375 31.476562 C 2.339844 31.476562 1.113281 30.25 1.113281 28.746094 L 1.113281 11.726562 C 1.113281 11.578125 1.121094 11.433594 1.132812 11.289062 C 1.09375 10.605469 1.121094 9.914062 1.234375 9.210938 C 2.070312 3.859375 7.101562 0.183594 12.457031 1.015625 C 15.507812 1.492188 18.007812 3.332031 19.449219 5.8125 L 21.863281 5.8125 L 21.863281 6.90625 L 19.992188 6.90625 C 20.683594 8.535156 20.949219 10.367188 20.65625 12.242188 C 19.90625 17.042969 15.777344 20.496094 11.070312 20.554688 L 10.625 23.386719 C 10.910156 23.429688 11.164062 23.582031 11.335938 23.804688 C 11.511719 24.035156 11.585938 24.324219 11.542969 24.609375 L 11.324219 26.015625 L 34.96875 26.015625 L 34.96875 8.542969 C 34.96875 7.636719 34.230469 6.90625 33.328125 6.90625 L 32.78125 6.90625 L 32.78125 5.8125 L 33.328125 5.8125 C 34.832031 5.8125 36.058594 7.035156 36.058594 8.542969 Z M 19.132812 29.292969 C 18.039062 29.292969 19.132812 29.292969 18.039062 29.292969 L 18.039062 28.199219 L 19.132812 28.199219 L 19.132812 29.292969 " fill-opacity="1" fill-rule="nonzero"/></g></svg>