<svg xmlns="http://www.w3.org/2000/svg" xmlns:xlink="http://www.w3.org/1999/xlink" width="50" zoomAndPan="magnify" viewBox="0 0 37.5 37.499999" height="50" preserveAspectRatio="xMidYMid meet" version="1.0"><defs><clipPath id="8848e058a0"><path d="M 1.035156 1 L 36.5625 1 L 36.5625 36 L 1.035156 36 Z M 1.035156 1 " clip-rule="nonzero"/></clipPath></defs><path fill="#ffffff" d="M 18.613281 11.523438 C 18.15625 11.523438 17.703125 11.570312 17.25 11.65625 C 16.800781 11.746094 16.363281 11.878906 15.941406 12.054688 C 15.519531 12.230469 15.113281 12.445312 14.734375 12.699219 C 14.351562 12.957031 14 13.246094 13.675781 13.570312 C 13.351562 13.894531 13.0625 14.246094 12.808594 14.628906 C 12.550781 15.007812 12.335938 15.410156 12.160156 15.835938 C 11.984375 16.257812 11.851562 16.695312 11.765625 17.144531 C 11.675781 17.597656 11.628906 18.050781 11.628906 18.507812 C 11.628906 18.96875 11.675781 19.421875 11.765625 19.871094 C 11.851562 20.320312 11.984375 20.757812 12.160156 21.179688 C 12.335938 21.605469 12.550781 22.007812 12.808594 22.390625 C 13.0625 22.769531 13.351562 23.125 13.675781 23.449219 C 14 23.773438 14.351562 24.0625 14.734375 24.316406 C 15.113281 24.570312 15.519531 24.785156 15.941406 24.960938 C 16.363281 25.136719 16.800781 25.269531 17.25 25.359375 C 17.703125 25.449219 18.15625 25.492188 18.613281 25.492188 C 19.074219 25.492188 19.527344 25.449219 19.976562 25.359375 C 20.425781 25.269531 20.863281 25.136719 21.289062 24.960938 C 21.710938 24.785156 22.113281 24.570312 22.496094 24.316406 C 22.875 24.0625 23.230469 23.773438 23.554688 23.449219 C 23.878906 23.125 24.167969 22.769531 24.421875 22.390625 C 24.675781 22.007812 24.890625 21.605469 25.066406 21.179688 C 25.242188 20.757812 25.375 20.320312 25.464844 19.871094 C 25.554688 19.421875 25.597656 18.96875 25.597656 18.507812 C 25.597656 18.050781 25.554688 17.597656 25.464844 17.148438 C 25.375 16.695312 25.242188 16.261719 25.066406 15.835938 C 24.890625 15.414062 24.675781 15.011719 24.417969 14.628906 C 24.164062 14.25 23.875 13.894531 23.550781 13.570312 C 23.226562 13.246094 22.875 12.957031 22.492188 12.703125 C 22.113281 12.449219 21.710938 12.234375 21.285156 12.058594 C 20.863281 11.882812 20.425781 11.75 19.976562 11.660156 C 19.527344 11.570312 19.074219 11.523438 18.613281 11.523438 Z M 21.472656 17.925781 C 21.453125 17.261719 21.394531 16.597656 21.296875 15.9375 C 22.015625 15.738281 22.597656 15.339844 23.054688 14.75 C 23.835938 15.667969 24.285156 16.726562 24.40625 17.925781 Z M 18.613281 24.328125 C 18.25 24.328125 17.664062 23.503906 17.28125 21.941406 C 18.171875 21.796875 19.058594 21.796875 19.945312 21.941406 C 19.566406 23.503906 18.980469 24.328125 18.613281 24.328125 Z M 21.074219 22.238281 C 21.75 22.492188 22.148438 22.820312 22.148438 23.082031 L 22.203125 23.082031 C 21.667969 23.503906 21.078125 23.820312 20.433594 24.035156 C 20.71875 23.460938 20.929688 22.863281 21.074219 22.238281 Z M 16.796875 24.035156 C 16.152344 23.820312 15.558594 23.503906 15.023438 23.082031 L 15.082031 23.082031 C 15.082031 22.820312 15.476562 22.492188 16.15625 22.238281 C 16.296875 22.863281 16.511719 23.460938 16.796875 24.035156 Z M 18.613281 20.671875 C 18.09375 20.667969 17.578125 20.710938 17.066406 20.796875 C 16.984375 20.230469 16.9375 19.664062 16.921875 19.089844 L 20.308594 19.089844 C 20.292969 19.664062 20.242188 20.230469 20.164062 20.796875 C 19.648438 20.710938 19.132812 20.667969 18.613281 20.671875 Z M 16.921875 17.925781 C 16.9375 17.355469 16.984375 16.785156 17.066406 16.21875 C 18.097656 16.390625 19.128906 16.390625 20.164062 16.21875 C 20.242188 16.785156 20.292969 17.355469 20.308594 17.925781 Z M 18.613281 12.6875 C 18.980469 12.6875 19.566406 13.511719 19.945312 15.074219 C 19.058594 15.222656 18.171875 15.222656 17.28125 15.074219 C 17.664062 13.511719 18.25 12.6875 18.613281 12.6875 Z M 16.15625 14.785156 C 15.476562 14.527344 15.082031 14.203125 15.082031 13.9375 L 15.023438 13.9375 C 15.558594 13.515625 16.152344 13.199219 16.796875 12.984375 C 16.511719 13.558594 16.296875 14.160156 16.15625 14.785156 Z M 20.433594 12.984375 C 21.078125 13.199219 21.667969 13.515625 22.203125 13.9375 L 22.148438 13.9375 C 22.148438 14.199219 21.75 14.527344 21.074219 14.785156 C 20.929688 14.15625 20.71875 13.558594 20.433594 12.984375 Z M 14.175781 14.75 C 14.628906 15.339844 15.214844 15.738281 15.929688 15.9375 C 15.835938 16.597656 15.777344 17.261719 15.757812 17.925781 L 12.824219 17.925781 C 12.945312 16.726562 13.394531 15.667969 14.175781 14.75 Z M 12.824219 19.089844 L 15.753906 19.089844 C 15.773438 19.757812 15.832031 20.417969 15.929688 21.078125 C 15.214844 21.28125 14.628906 21.675781 14.175781 22.265625 C 13.394531 21.347656 12.945312 20.289062 12.824219 19.089844 Z M 23.050781 22.265625 C 22.597656 21.675781 22.011719 21.28125 21.296875 21.078125 C 21.394531 20.417969 21.453125 19.757812 21.472656 19.089844 L 24.402344 19.089844 C 24.285156 20.289062 23.832031 21.347656 23.050781 22.265625 Z M 23.050781 22.265625 " fill-opacity="1" fill-rule="nonzero"/><g clip-path="url(#8848e058a0)"><path fill="#ffffff" d="M 33.875 9.65625 C 34.035156 9.523438 34.175781 9.375 34.300781 9.214844 C 34.425781 9.050781 34.535156 8.878906 34.625 8.691406 C 34.710938 8.507812 34.78125 8.3125 34.828125 8.113281 C 34.875 7.914062 34.902344 7.710938 34.90625 7.503906 C 34.914062 7.296875 34.894531 7.09375 34.855469 6.890625 C 34.816406 6.691406 34.757812 6.496094 34.679688 6.304688 C 34.597656 6.117188 34.5 5.9375 34.378906 5.769531 C 34.261719 5.601562 34.125 5.445312 33.976562 5.308594 C 33.824219 5.167969 33.660156 5.046875 33.484375 4.941406 C 33.304688 4.835938 33.117188 4.75 32.925781 4.6875 C 32.730469 4.621094 32.527344 4.578125 32.324219 4.554688 C 32.121094 4.53125 31.914062 4.53125 31.710938 4.554688 C 31.503906 4.574219 31.304688 4.617188 31.109375 4.679688 C 30.914062 4.746094 30.726562 4.828125 30.550781 4.929688 C 30.371094 5.035156 30.207031 5.15625 30.054688 5.292969 C 29.902344 5.433594 29.765625 5.585938 29.648438 5.753906 C 28.359375 4.628906 26.933594 3.726562 25.371094 3.039062 C 23.804688 2.355469 22.171875 1.921875 20.472656 1.738281 C 20.214844 1.515625 19.925781 1.34375 19.605469 1.226562 C 19.285156 1.105469 18.957031 1.046875 18.613281 1.046875 C 18.273438 1.046875 17.941406 1.105469 17.621094 1.226562 C 17.300781 1.34375 17.011719 1.515625 16.753906 1.738281 C 15.054688 1.921875 13.425781 2.355469 11.859375 3.039062 C 10.292969 3.726562 8.867188 4.628906 7.582031 5.753906 C 7.460938 5.585938 7.328125 5.433594 7.175781 5.292969 C 7.023438 5.15625 6.855469 5.03125 6.679688 4.929688 C 6.5 4.824219 6.3125 4.742188 6.117188 4.675781 C 5.921875 4.613281 5.722656 4.570312 5.515625 4.550781 C 5.3125 4.527344 5.109375 4.527344 4.902344 4.550781 C 4.699219 4.574219 4.496094 4.617188 4.300781 4.683594 C 4.105469 4.746094 3.921875 4.832031 3.742188 4.9375 C 3.566406 5.042969 3.402344 5.164062 3.25 5.304688 C 3.097656 5.441406 2.964844 5.597656 2.84375 5.765625 C 2.726562 5.933594 2.628906 6.113281 2.546875 6.300781 C 2.464844 6.492188 2.40625 6.6875 2.367188 6.890625 C 2.328125 7.09375 2.3125 7.296875 2.316406 7.503906 C 2.320312 7.710938 2.347656 7.914062 2.398438 8.113281 C 2.445312 8.3125 2.511719 8.503906 2.601562 8.691406 C 2.691406 8.878906 2.800781 9.050781 2.925781 9.214844 C 3.050781 9.375 3.195312 9.523438 3.351562 9.65625 C 2.675781 10.007812 2.140625 10.507812 1.746094 11.15625 C 1.351562 11.804688 1.152344 12.511719 1.152344 13.269531 L 1.152344 15.597656 C 1.152344 15.757812 1.210938 15.894531 1.324219 16.011719 C 1.4375 16.125 1.574219 16.179688 1.734375 16.179688 L 1.894531 16.179688 C 1.535156 18.75 1.761719 21.265625 2.574219 23.726562 C 2.445312 24.015625 2.363281 24.3125 2.332031 24.625 C 2.300781 24.9375 2.320312 25.25 2.390625 25.554688 C 2.460938 25.859375 2.578125 26.148438 2.742188 26.414062 C 2.90625 26.683594 3.109375 26.917969 3.351562 27.117188 C 2.675781 27.46875 2.140625 27.96875 1.746094 28.617188 C 1.351562 29.265625 1.152344 29.972656 1.152344 30.730469 L 1.152344 33.058594 C 1.152344 33.222656 1.210938 33.359375 1.324219 33.472656 C 1.4375 33.585938 1.574219 33.640625 1.734375 33.640625 L 8.71875 33.640625 C 8.878906 33.640625 9.015625 33.585938 9.132812 33.472656 C 9.246094 33.359375 9.300781 33.222656 9.300781 33.058594 L 9.300781 32.578125 C 10.925781 33.65625 12.683594 34.425781 14.574219 34.894531 C 14.550781 35.058594 14.539062 35.222656 14.539062 35.386719 C 14.539062 35.550781 14.597656 35.6875 14.710938 35.800781 C 14.824219 35.914062 14.960938 35.96875 15.121094 35.96875 L 22.105469 35.96875 C 22.265625 35.96875 22.40625 35.914062 22.519531 35.800781 C 22.632812 35.6875 22.6875 35.550781 22.6875 35.386719 C 22.6875 35.222656 22.675781 35.058594 22.65625 34.894531 C 24.546875 34.425781 26.304688 33.65625 27.925781 32.578125 L 27.925781 33.058594 C 27.925781 33.222656 27.984375 33.359375 28.097656 33.472656 C 28.210938 33.585938 28.347656 33.640625 28.507812 33.640625 L 35.492188 33.640625 C 35.65625 33.640625 35.792969 33.585938 35.90625 33.472656 C 36.019531 33.359375 36.074219 33.222656 36.074219 33.058594 L 36.074219 30.730469 C 36.074219 29.972656 35.878906 29.265625 35.480469 28.617188 C 35.085938 27.96875 34.550781 27.46875 33.875 27.117188 C 34.117188 26.917969 34.320312 26.683594 34.488281 26.414062 C 34.652344 26.148438 34.769531 25.859375 34.839844 25.554688 C 34.910156 25.25 34.929688 24.9375 34.898438 24.625 C 34.867188 24.3125 34.785156 24.015625 34.65625 23.726562 C 35.464844 21.265625 35.691406 18.75 35.332031 16.179688 L 35.492188 16.179688 C 35.65625 16.179688 35.792969 16.125 35.90625 16.011719 C 36.019531 15.894531 36.074219 15.757812 36.074219 15.597656 L 36.074219 13.269531 C 36.074219 12.511719 35.878906 11.804688 35.480469 11.15625 C 35.085938 10.507812 34.550781 10.007812 33.875 9.65625 Z M 32 5.703125 C 32.234375 5.703125 32.457031 5.746094 32.667969 5.835938 C 32.882812 5.925781 33.074219 6.050781 33.238281 6.214844 C 33.398438 6.378906 33.527344 6.566406 33.613281 6.78125 C 33.703125 6.996094 33.746094 7.21875 33.746094 7.449219 C 33.746094 7.679688 33.703125 7.902344 33.613281 8.117188 C 33.527344 8.332031 33.398438 8.519531 33.238281 8.683594 C 33.074219 8.847656 32.882812 8.972656 32.667969 9.0625 C 32.457031 9.152344 32.234375 9.195312 32 9.195312 C 31.769531 9.195312 31.546875 9.152344 31.332031 9.0625 C 31.121094 8.972656 30.929688 8.847656 30.765625 8.683594 C 30.601562 8.519531 30.476562 8.332031 30.386719 8.117188 C 30.300781 7.902344 30.253906 7.679688 30.253906 7.449219 C 30.253906 7.21875 30.300781 6.996094 30.386719 6.78125 C 30.476562 6.566406 30.601562 6.378906 30.765625 6.214844 C 30.929688 6.050781 31.121094 5.925781 31.332031 5.835938 C 31.546875 5.746094 31.769531 5.703125 32 5.703125 Z M 18.613281 2.210938 C 18.847656 2.210938 19.070312 2.253906 19.28125 2.34375 C 19.496094 2.433594 19.683594 2.558594 19.847656 2.722656 C 20.011719 2.886719 20.140625 3.074219 20.226562 3.289062 C 20.316406 3.503906 20.359375 3.726562 20.359375 3.957031 C 20.359375 4.1875 20.316406 4.410156 20.226562 4.625 C 20.140625 4.839844 20.011719 5.027344 19.847656 5.191406 C 19.683594 5.355469 19.496094 5.480469 19.28125 5.570312 C 19.070312 5.660156 18.847656 5.703125 18.613281 5.703125 C 18.382812 5.703125 18.160156 5.660156 17.945312 5.570312 C 17.730469 5.480469 17.542969 5.355469 17.378906 5.191406 C 17.214844 5.027344 17.089844 4.839844 17 4.625 C 16.914062 4.410156 16.867188 4.1875 16.867188 3.957031 C 16.867188 3.726562 16.914062 3.503906 17 3.289062 C 17.089844 3.074219 17.214844 2.886719 17.378906 2.722656 C 17.542969 2.558594 17.730469 2.433594 17.945312 2.34375 C 18.160156 2.253906 18.382812 2.210938 18.613281 2.210938 Z M 3.480469 7.449219 C 3.480469 7.21875 3.523438 6.996094 3.613281 6.78125 C 3.703125 6.566406 3.828125 6.378906 3.992188 6.214844 C 4.15625 6.050781 4.34375 5.925781 4.558594 5.835938 C 4.773438 5.746094 4.996094 5.703125 5.226562 5.703125 C 5.457031 5.703125 5.679688 5.746094 5.894531 5.835938 C 6.109375 5.925781 6.296875 6.050781 6.460938 6.214844 C 6.625 6.378906 6.75 6.566406 6.839844 6.78125 C 6.929688 6.996094 6.972656 7.21875 6.972656 7.449219 C 6.972656 7.679688 6.929688 7.902344 6.839844 8.117188 C 6.75 8.332031 6.625 8.519531 6.460938 8.683594 C 6.296875 8.847656 6.109375 8.972656 5.894531 9.0625 C 5.679688 9.152344 5.457031 9.195312 5.226562 9.195312 C 4.996094 9.195312 4.773438 9.152344 4.558594 9.0625 C 4.34375 8.972656 4.15625 8.847656 3.992188 8.683594 C 3.828125 8.519531 3.703125 8.332031 3.613281 8.117188 C 3.523438 7.902344 3.480469 7.679688 3.480469 7.449219 Z M 2.316406 13.269531 C 2.316406 12.882812 2.390625 12.511719 2.539062 12.15625 C 2.6875 11.800781 2.894531 11.484375 3.167969 11.210938 C 3.441406 10.9375 3.757812 10.730469 4.113281 10.582031 C 4.46875 10.433594 4.839844 10.359375 5.226562 10.359375 C 5.613281 10.359375 5.984375 10.433594 6.339844 10.582031 C 6.695312 10.730469 7.011719 10.9375 7.285156 11.210938 C 7.558594 11.484375 7.769531 11.800781 7.914062 12.15625 C 8.0625 12.511719 8.136719 12.882812 8.136719 13.269531 L 8.136719 15.015625 L 2.316406 15.015625 Z M 3.480469 24.910156 C 3.480469 24.679688 3.523438 24.457031 3.613281 24.242188 C 3.703125 24.027344 3.828125 23.839844 3.992188 23.675781 C 4.15625 23.511719 4.34375 23.386719 4.558594 23.296875 C 4.773438 23.210938 4.996094 23.164062 5.226562 23.164062 C 5.457031 23.164062 5.679688 23.210938 5.894531 23.296875 C 6.109375 23.386719 6.296875 23.511719 6.460938 23.675781 C 6.625 23.839844 6.75 24.027344 6.839844 24.242188 C 6.929688 24.457031 6.972656 24.679688 6.972656 24.910156 C 6.972656 25.144531 6.929688 25.367188 6.839844 25.578125 C 6.75 25.792969 6.625 25.980469 6.460938 26.144531 C 6.296875 26.308594 6.109375 26.4375 5.894531 26.523438 C 5.679688 26.613281 5.457031 26.65625 5.226562 26.65625 C 4.996094 26.65625 4.773438 26.613281 4.558594 26.523438 C 4.34375 26.4375 4.15625 26.308594 3.992188 26.144531 C 3.828125 25.980469 3.703125 25.792969 3.613281 25.578125 C 3.523438 25.367188 3.480469 25.144531 3.480469 24.910156 Z M 8.136719 32.476562 L 2.316406 32.476562 L 2.316406 30.730469 C 2.316406 30.347656 2.390625 29.976562 2.539062 29.617188 C 2.6875 29.261719 2.894531 28.945312 3.167969 28.675781 C 3.441406 28.402344 3.757812 28.191406 4.113281 28.042969 C 4.46875 27.894531 4.839844 27.820312 5.226562 27.820312 C 5.613281 27.820312 5.984375 27.894531 6.339844 28.042969 C 6.695312 28.191406 7.011719 28.402344 7.285156 28.675781 C 7.558594 28.945312 7.769531 29.261719 7.914062 29.617188 C 8.0625 29.976562 8.136719 30.347656 8.136719 30.730469 Z M 15.761719 34.804688 C 15.828125 34.476562 15.949219 34.167969 16.121094 33.882812 C 16.296875 33.59375 16.511719 33.34375 16.773438 33.132812 C 17.03125 32.917969 17.320312 32.757812 17.636719 32.644531 C 17.953125 32.53125 18.277344 32.476562 18.613281 32.476562 C 18.949219 32.476562 19.277344 32.53125 19.59375 32.644531 C 19.90625 32.757812 20.195312 32.917969 20.457031 33.132812 C 20.714844 33.34375 20.933594 33.59375 21.105469 33.882812 C 21.28125 34.167969 21.398438 34.476562 21.464844 34.804688 Z M 16.867188 29.566406 C 16.867188 29.335938 16.914062 29.113281 17 28.898438 C 17.089844 28.6875 17.214844 28.496094 17.378906 28.332031 C 17.542969 28.167969 17.730469 28.042969 17.945312 27.953125 C 18.160156 27.867188 18.382812 27.820312 18.613281 27.820312 C 18.847656 27.820312 19.070312 27.867188 19.28125 27.953125 C 19.496094 28.042969 19.683594 28.167969 19.847656 28.332031 C 20.011719 28.496094 20.140625 28.6875 20.226562 28.898438 C 20.316406 29.113281 20.359375 29.335938 20.359375 29.566406 C 20.359375 29.800781 20.316406 30.023438 20.226562 30.234375 C 20.140625 30.449219 20.011719 30.640625 19.847656 30.800781 C 19.683594 30.964844 19.496094 31.09375 19.28125 31.179688 C 19.070312 31.269531 18.847656 31.3125 18.613281 31.3125 C 18.382812 31.3125 18.160156 31.269531 17.945312 31.179688 C 17.730469 31.09375 17.542969 30.964844 17.378906 30.800781 C 17.214844 30.640625 17.089844 30.449219 17 30.234375 C 16.914062 30.023438 16.867188 29.800781 16.867188 29.566406 Z M 34.910156 30.730469 L 34.910156 32.476562 L 29.089844 32.476562 L 29.089844 30.730469 C 29.089844 30.347656 29.164062 29.976562 29.3125 29.617188 C 29.460938 29.261719 29.671875 28.945312 29.945312 28.675781 C 30.214844 28.402344 30.53125 28.191406 30.886719 28.042969 C 31.246094 27.894531 31.617188 27.820312 32 27.820312 C 32.386719 27.820312 32.757812 27.894531 33.117188 28.042969 C 33.472656 28.191406 33.785156 28.402344 34.058594 28.675781 C 34.332031 28.945312 34.542969 29.261719 34.691406 29.617188 C 34.839844 29.976562 34.910156 30.347656 34.910156 30.730469 Z M 30.253906 24.910156 C 30.253906 24.679688 30.300781 24.457031 30.386719 24.242188 C 30.476562 24.027344 30.601562 23.839844 30.765625 23.675781 C 30.929688 23.511719 31.121094 23.386719 31.332031 23.296875 C 31.546875 23.210938 31.769531 23.164062 32 23.164062 C 32.234375 23.164062 32.457031 23.210938 32.667969 23.296875 C 32.882812 23.386719 33.074219 23.511719 33.238281 23.675781 C 33.398438 23.839844 33.527344 24.027344 33.613281 24.242188 C 33.703125 24.457031 33.746094 24.679688 33.746094 24.910156 C 33.746094 25.144531 33.703125 25.367188 33.613281 25.578125 C 33.527344 25.792969 33.398438 25.980469 33.238281 26.144531 C 33.074219 26.308594 32.882812 26.4375 32.667969 26.523438 C 32.457031 26.613281 32.234375 26.65625 32 26.65625 C 31.769531 26.65625 31.546875 26.613281 31.332031 26.523438 C 31.121094 26.4375 30.929688 26.308594 30.765625 26.144531 C 30.601562 25.980469 30.476562 25.792969 30.386719 25.578125 C 30.300781 25.367188 30.253906 25.144531 30.253906 24.910156 Z M 34.328125 18.507812 C 34.328125 19.902344 34.140625 21.273438 33.773438 22.617188 C 33.253906 22.210938 32.664062 22.003906 32 22 C 31.390625 22 30.835938 22.171875 30.335938 22.519531 C 29.832031 22.867188 29.476562 23.328125 29.269531 23.902344 C 29.058594 24.476562 29.03125 25.054688 29.1875 25.644531 C 29.347656 26.234375 29.660156 26.726562 30.125 27.117188 C 29.453125 27.46875 28.917969 27.96875 28.519531 28.617188 C 28.125 29.265625 27.929688 29.972656 27.925781 30.730469 L 27.925781 31.15625 C 26.242188 32.402344 24.382812 33.273438 22.351562 33.769531 C 21.964844 32.886719 21.34375 32.21875 20.488281 31.773438 C 20.792969 31.515625 21.039062 31.210938 21.214844 30.851562 C 21.394531 30.492188 21.496094 30.113281 21.519531 29.714844 C 21.542969 29.316406 21.484375 28.925781 21.347656 28.550781 C 21.210938 28.175781 21.003906 27.839844 20.730469 27.550781 C 20.453125 27.257812 20.132812 27.035156 19.765625 26.875 C 19.398438 26.71875 19.015625 26.640625 18.613281 26.640625 C 18.214844 26.640625 17.828125 26.71875 17.460938 26.875 C 17.09375 27.035156 16.773438 27.257812 16.5 27.550781 C 16.222656 27.839844 16.015625 28.175781 15.878906 28.550781 C 15.742188 28.925781 15.683594 29.316406 15.707031 29.714844 C 15.730469 30.113281 15.832031 30.492188 16.011719 30.851562 C 16.191406 31.210938 16.433594 31.515625 16.738281 31.773438 C 15.882812 32.21875 15.261719 32.886719 14.875 33.769531 C 12.84375 33.273438 10.984375 32.402344 9.300781 31.15625 L 9.300781 30.730469 C 9.300781 29.972656 9.101562 29.265625 8.707031 28.617188 C 8.3125 27.96875 7.777344 27.46875 7.101562 27.117188 C 7.390625 26.875 7.625 26.585938 7.800781 26.25 C 7.976562 25.914062 8.085938 25.554688 8.121094 25.175781 C 8.15625 24.800781 8.121094 24.429688 8.011719 24.066406 C 7.902344 23.703125 7.726562 23.375 7.488281 23.078125 C 7.25 22.785156 6.964844 22.546875 6.632812 22.363281 C 6.296875 22.179688 5.945312 22.066406 5.566406 22.023438 C 5.191406 21.980469 4.820312 22.011719 4.453125 22.113281 C 4.085938 22.214844 3.753906 22.382812 3.457031 22.617188 C 2.863281 20.5 2.742188 18.351562 3.085938 16.179688 L 8.71875 16.179688 C 8.878906 16.179688 9.015625 16.125 9.132812 16.011719 C 9.246094 15.894531 9.300781 15.757812 9.300781 15.597656 L 9.300781 13.269531 C 9.300781 12.511719 9.101562 11.804688 8.707031 11.15625 C 8.3125 10.507812 7.777344 10.007812 7.101562 9.65625 C 7.507812 9.316406 7.800781 8.894531 7.976562 8.394531 C 8.152344 7.894531 8.183594 7.382812 8.078125 6.863281 C 10.304688 4.832031 12.898438 3.554688 15.867188 3.03125 C 15.761719 3.332031 15.707031 3.640625 15.703125 3.957031 C 15.707031 4.851562 16.050781 5.589844 16.738281 6.164062 C 16.066406 6.515625 15.53125 7.015625 15.132812 7.664062 C 14.738281 8.3125 14.539062 9.015625 14.539062 9.777344 C 14.539062 9.9375 14.597656 10.074219 14.710938 10.1875 C 14.824219 10.304688 14.960938 10.359375 15.121094 10.359375 L 22.105469 10.359375 C 22.265625 10.359375 22.40625 10.304688 22.519531 10.1875 C 22.632812 10.074219 22.6875 9.9375 22.6875 9.777344 C 22.6875 9.015625 22.488281 8.3125 22.09375 7.664062 C 21.699219 7.015625 21.164062 6.515625 20.488281 6.164062 C 21.175781 5.589844 21.519531 4.851562 21.523438 3.957031 C 21.519531 3.640625 21.464844 3.335938 21.359375 3.035156 C 24.328125 3.558594 26.925781 4.832031 29.148438 6.863281 C 29.042969 7.382812 29.074219 7.894531 29.25 8.394531 C 29.425781 8.898438 29.71875 9.316406 30.125 9.65625 C 29.449219 10.007812 28.917969 10.507812 28.519531 11.15625 C 28.125 11.804688 27.929688 12.511719 27.925781 13.269531 L 27.925781 15.597656 C 27.925781 15.757812 27.984375 15.894531 28.097656 16.011719 C 28.210938 16.125 28.347656 16.179688 28.507812 16.179688 L 34.140625 16.179688 C 34.261719 16.953125 34.324219 17.726562 34.328125 18.507812 Z M 18.613281 6.867188 C 18.949219 6.867188 19.273438 6.925781 19.589844 7.039062 C 19.90625 7.148438 20.195312 7.3125 20.453125 7.523438 C 20.714844 7.738281 20.929688 7.984375 21.105469 8.273438 C 21.277344 8.558594 21.398438 8.867188 21.464844 9.195312 L 15.761719 9.195312 C 15.828125 8.867188 15.949219 8.558594 16.125 8.273438 C 16.296875 7.984375 16.515625 7.738281 16.773438 7.523438 C 17.035156 7.3125 17.320312 7.148438 17.636719 7.039062 C 17.953125 6.925781 18.277344 6.867188 18.613281 6.867188 Z M 34.910156 15.015625 L 29.089844 15.015625 L 29.089844 13.269531 C 29.089844 12.882812 29.164062 12.511719 29.3125 12.15625 C 29.460938 11.800781 29.671875 11.484375 29.945312 11.210938 C 30.214844 10.9375 30.53125 10.730469 30.886719 10.582031 C 31.246094 10.433594 31.617188 10.359375 32 10.359375 C 32.386719 10.359375 32.757812 10.433594 33.117188 10.582031 C 33.472656 10.730469 33.785156 10.9375 34.058594 11.210938 C 34.332031 11.484375 34.542969 11.800781 34.691406 12.15625 C 34.839844 12.511719 34.910156 12.882812 34.910156 13.269531 Z M 34.910156 15.015625 " fill-opacity="1" fill-rule="nonzero"/></g></svg>