<svg width="30" height="30" viewBox="0 0 30 30" fill="none" xmlns="http://www.w3.org/2000/svg">
<g clip-path="url(#clip0_977_411)">
<path d="M14.6583 1.21277C11.822 1.27659 8.99007 2.21445 6.59403 4.05231C3.94613 6.08568 2.12717 9.01183 1.47568 12.2862C0.824191 15.5606 1.38454 18.9601 3.05245 21.8522C3.12417 21.9766 3.24236 22.0673 3.38102 22.1046C3.51968 22.1418 3.66744 22.1224 3.79181 22.0507C3.91618 21.979 4.00696 21.8608 4.04419 21.7221C4.08141 21.5835 4.06203 21.4357 3.99031 21.3113C2.45079 18.6476 1.93288 15.5148 2.53318 12.4974C3.13349 9.47994 4.81101 6.78392 7.25281 4.91229C9.50863 3.18019 12.2816 2.25736 15.1255 2.29229C17.9694 2.32721 20.7188 3.31786 22.9314 5.10484H22.3776C22.2341 5.10484 22.0965 5.16182 21.9951 5.26325C21.8937 5.36469 21.8367 5.50226 21.8367 5.6457C21.8367 5.78915 21.8937 5.92672 21.9951 6.02815C22.0965 6.12958 22.2341 6.18657 22.3776 6.18657H24.3452C24.4887 6.18657 24.6263 6.12958 24.7277 6.02815C24.8291 5.92672 24.8861 5.78915 24.8861 5.6457V3.67803C24.887 3.60573 24.8733 3.53398 24.846 3.46703C24.8187 3.40009 24.7782 3.3393 24.727 3.28827C24.6757 3.23724 24.6148 3.197 24.5477 3.16993C24.4807 3.14286 24.4089 3.12952 24.3366 3.13068C24.1935 3.13296 24.0572 3.19184 23.9574 3.29443C23.8577 3.39702 23.8026 3.53495 23.8044 3.67803V4.41794C21.2464 2.27381 17.9952 1.13445 14.6583 1.21277ZM14.972 4.0415C11.0951 4.0415 7.8456 6.18332 5.90497 9.2338H5.88117V9.26626C4.81891 10.9516 4.04331 12.8316 4.04331 14.9691C4.04331 17.1056 4.81891 18.9856 5.88225 20.6709V20.7045H5.90389C7.8456 23.755 11.0951 25.8979 14.9731 25.8979C18.8511 25.8979 22.1006 23.756 24.0402 20.7056H24.0618V20.6731C25.1262 18.9878 25.9018 17.1066 25.9018 14.9691C25.9018 12.8306 25.1262 10.9505 24.0618 9.26409V9.23489H24.0402C22.1006 6.1844 18.8511 4.04258 14.9731 4.04258L14.972 4.0415ZM14.4312 5.23356V9.23489H10.6538C10.9713 8.06035 11.3548 6.90467 11.8026 5.77335C12.6493 5.46887 13.5352 5.28675 14.4333 5.23248L14.4312 5.23356ZM15.5129 5.23356C16.3788 5.28588 17.2335 5.45695 18.0528 5.74198C18.5063 6.88329 18.8946 8.04947 19.2157 9.23489H15.514V5.23248L15.5129 5.23356ZM19.418 6.32936C20.738 7.03456 21.8826 8.02757 22.767 9.23489H20.3461C20.0973 8.27214 19.7728 7.30183 19.4169 6.32936H19.418ZM10.4298 6.37803C10.0811 7.31507 9.7768 8.26806 9.51795 9.2338H7.17925C8.04135 8.05603 9.15086 7.08128 10.4298 6.37803ZM26.4557 7.88056C26.3631 7.88513 26.2732 7.91345 26.1946 7.96279C26.1161 8.01213 26.0516 8.08083 26.0073 8.1623C25.9629 8.24377 25.9403 8.33527 25.9415 8.42801C25.9428 8.52074 25.9679 8.6116 26.0143 8.69186C27.5539 11.3556 28.0718 14.4883 27.4715 17.5058C26.8712 20.5232 25.1936 23.2193 22.7518 25.0909C20.5008 26.8189 17.7348 27.7411 14.8972 27.7097C12.0596 27.6783 9.3147 26.6952 7.10245 24.9178H7.62168C7.76512 24.9178 7.90269 24.8608 8.00413 24.7594C8.10556 24.658 8.16254 24.5204 8.16254 24.377C8.16254 24.2335 8.10556 24.0959 8.00413 23.9945C7.90269 23.8931 7.76512 23.8361 7.62168 23.8361H5.74487C5.67985 23.8279 5.61387 23.8315 5.55016 23.8469C5.5498 23.8469 5.55052 23.8469 5.55016 23.8469C5.428 23.8718 5.31712 23.9382 5.23827 24.0348C5.15942 24.1314 5.11636 24.2523 5.11639 24.377V26.3435C5.11639 26.487 5.17337 26.6246 5.2748 26.726C5.37624 26.8274 5.51381 26.8844 5.65725 26.8844C5.8007 26.8844 5.93827 26.8274 6.0397 26.726C6.14114 26.6246 6.19812 26.487 6.19812 26.3435V25.5788C8.4369 27.4572 11.2164 28.5728 14.1326 28.7634C17.4647 28.9851 20.7634 27.9853 23.4117 25.9509C26.0596 23.9175 27.8786 20.9914 28.5301 17.717C29.1815 14.4426 28.6212 11.0431 26.9533 8.15099C26.9034 8.06433 26.8306 7.99318 26.7427 7.94544C26.6549 7.8977 26.5555 7.87524 26.4557 7.88056ZM6.45016 10.3166H9.25942C8.96306 11.6701 8.78283 13.0463 8.72072 14.4304H5.23538C5.32084 12.9268 5.76543 11.5639 6.45016 10.3166ZM10.3563 10.3166H14.4323V14.4304H9.79055C9.85533 13.045 10.0447 11.6681 10.3563 10.3166ZM15.514 10.3166H19.511C19.8226 11.6681 20.0119 13.045 20.0767 14.4304H15.514V10.3166ZM20.6057 10.3166H23.4961C24.1797 11.5639 24.6243 12.9268 24.7109 14.4304H21.1444C21.0823 13.0463 20.902 11.6701 20.6057 10.3166ZM5.2343 15.5122H8.70233C8.70882 16.873 8.83754 18.2425 9.10257 19.6249H6.45124C5.76651 18.3777 5.32192 17.0147 5.23646 15.5122H5.2343ZM9.76891 15.5122H14.4312V19.6249H10.1962C9.9188 18.2714 9.77568 16.8938 9.76891 15.5122ZM15.5129 15.5122H20.0984C20.0916 16.8938 19.9485 18.2714 19.6711 19.6249H15.514L15.5129 15.5122ZM21.1628 15.5122H24.7109C24.6243 17.0158 24.1797 18.3788 23.4961 19.6249H20.7636C21.0242 18.2694 21.1571 16.8925 21.1628 15.5122ZM7.17925 20.7066H9.34271C9.55906 21.5991 9.82624 22.4991 10.1573 23.4066C8.99268 22.7167 7.9797 21.7982 7.17925 20.7066ZM10.4461 20.7066H14.4323V24.709C13.4576 24.6507 12.4979 24.4416 11.5873 24.0892C11.1271 22.9901 10.7453 21.8597 10.445 20.7066H10.4461ZM15.514 20.7066H19.4223C19.1185 21.8719 18.7317 23.0138 18.2648 24.1238C17.3821 24.4546 16.4549 24.6515 15.514 24.708V20.7066ZM20.5246 20.7066H22.767C21.9442 21.832 20.8956 22.7733 19.6884 23.4705C20.0313 22.5402 20.3039 21.6207 20.5246 20.7066Z" fill="#248EC8"/>
<path d="M5.55016 23.8469C5.61387 23.8315 5.67985 23.8279 5.74487 23.8361H7.62168C7.76512 23.8361 7.90269 23.8931 8.00413 23.9945C8.10556 24.0959 8.16254 24.2335 8.16254 24.377C8.16254 24.5204 8.10556 24.658 8.00413 24.7594C7.90269 24.8608 7.76512 24.9178 7.62168 24.9178H7.10245C9.3147 26.6952 12.0596 27.6783 14.8972 27.7097C17.7348 27.7411 20.5008 26.8189 22.7518 25.0909C25.1936 23.2193 26.8712 20.5232 27.4715 17.5058C28.0718 14.4883 27.5539 11.3556 26.0143 8.69186C25.9679 8.6116 25.9428 8.52074 25.9415 8.42801C25.9403 8.33527 25.9629 8.24377 26.0073 8.1623C26.0516 8.08083 26.1161 8.01213 26.1946 7.96279C26.2732 7.91345 26.3631 7.88513 26.4557 7.88056C26.5555 7.87524 26.6549 7.8977 26.7427 7.94544C26.8306 7.99318 26.9034 8.06433 26.9533 8.15099C28.6212 11.0431 29.1815 14.4426 28.5301 17.717C27.8786 20.9914 26.0596 23.9175 23.4117 25.9509C20.7634 27.9853 17.4647 28.9851 14.1326 28.7634C11.2164 28.5728 8.4369 27.4572 6.19812 25.5788V26.3435C6.19812 26.487 6.14114 26.6246 6.0397 26.726C5.93827 26.8274 5.8007 26.8844 5.65725 26.8844C5.51381 26.8844 5.37624 26.8274 5.2748 26.726C5.17337 26.6246 5.11639 26.487 5.11639 26.3435V24.377C5.11636 24.2523 5.15942 24.1314 5.23827 24.0348C5.31712 23.9382 5.428 23.8718 5.55016 23.8469ZM5.55016 23.8469C5.5498 23.8469 5.55052 23.8469 5.55016 23.8469ZM14.6583 1.21277C11.822 1.27659 8.99007 2.21445 6.59403 4.05231C3.94613 6.08568 2.12717 9.01183 1.47568 12.2862C0.824191 15.5606 1.38454 18.9601 3.05245 21.8522C3.12417 21.9766 3.24236 22.0673 3.38102 22.1046C3.51968 22.1418 3.66744 22.1224 3.79181 22.0507C3.91618 21.979 4.00696 21.8608 4.04419 21.7221C4.08141 21.5835 4.06203 21.4357 3.99031 21.3113C2.45079 18.6476 1.93288 15.5148 2.53318 12.4974C3.13349 9.47994 4.81101 6.78392 7.25281 4.91229C9.50863 3.18019 12.2816 2.25736 15.1255 2.29229C17.9694 2.32721 20.7188 3.31786 22.9314 5.10484H22.3776C22.2341 5.10484 22.0965 5.16182 21.9951 5.26325C21.8937 5.36468 21.8367 5.50226 21.8367 5.6457C21.8367 5.78915 21.8937 5.92672 21.9951 6.02815C22.0965 6.12958 22.2341 6.18657 22.3776 6.18657H24.3452C24.4887 6.18657 24.6263 6.12958 24.7277 6.02815C24.8291 5.92672 24.8861 5.78915 24.8861 5.6457V3.67803C24.887 3.60573 24.8733 3.53398 24.846 3.46703C24.8187 3.40009 24.7782 3.3393 24.727 3.28827C24.6757 3.23724 24.6148 3.197 24.5477 3.16993C24.4807 3.14286 24.4089 3.12952 24.3366 3.13068C24.1935 3.13296 24.0572 3.19184 23.9574 3.29443C23.8577 3.39702 23.8026 3.53495 23.8044 3.67803V4.41794C21.2464 2.27381 17.9952 1.13445 14.6583 1.21277ZM14.972 4.0415C11.0951 4.0415 7.8456 6.18332 5.90497 9.2338H5.88117V9.26626C4.81891 10.9516 4.04331 12.8316 4.04331 14.9691C4.04331 17.1056 4.81891 18.9856 5.88225 20.6709V20.7045H5.90389C7.8456 23.755 11.0951 25.8979 14.9731 25.8979C18.8511 25.8979 22.1006 23.756 24.0402 20.7056H24.0618V20.6731C25.1262 18.9878 25.9018 17.1066 25.9018 14.9691C25.9018 12.8306 25.1262 10.9505 24.0618 9.26409V9.23489H24.0402C22.1006 6.1844 18.8511 4.04258 14.9731 4.04258L14.972 4.0415ZM14.4312 5.23356V9.23489H10.6538C10.9713 8.06035 11.3548 6.90467 11.8026 5.77335C12.6493 5.46887 13.5352 5.28675 14.4333 5.23248L14.4312 5.23356ZM15.5129 5.23356C16.3788 5.28588 17.2335 5.45695 18.0528 5.74198C18.5063 6.88329 18.8946 8.04947 19.2157 9.23489H15.514V5.23248L15.5129 5.23356ZM19.418 6.32936C20.738 7.03456 21.8826 8.02757 22.767 9.23489H20.3461C20.0973 8.27215 19.7728 7.30183 19.4169 6.32936H19.418ZM10.4298 6.37803C10.0811 7.31507 9.7768 8.26806 9.51795 9.2338H7.17925C8.04135 8.05603 9.15086 7.08128 10.4298 6.37803ZM6.45016 10.3166H9.25942C8.96306 11.6701 8.78283 13.0463 8.72071 14.4304H5.23538C5.32084 12.9268 5.76543 11.5639 6.45016 10.3166ZM10.3563 10.3166H14.4323V14.4304H9.79055C9.85533 13.045 10.0447 11.6681 10.3563 10.3166ZM15.514 10.3166H19.511C19.8226 11.6681 20.0119 13.045 20.0767 14.4304H15.514V10.3166ZM20.6057 10.3166H23.4961C24.1797 11.5639 24.6243 12.9268 24.7109 14.4304H21.1444C21.0823 13.0463 20.902 11.6701 20.6057 10.3166ZM5.2343 15.5122H8.70233C8.70882 16.873 8.83754 18.2425 9.10257 19.6249H6.45124C5.76651 18.3777 5.32192 17.0147 5.23646 15.5122H5.2343ZM9.76891 15.5122H14.4312V19.6249H10.1962C9.9188 18.2714 9.77568 16.8938 9.76891 15.5122ZM15.5129 15.5122H20.0984C20.0916 16.8938 19.9485 18.2714 19.6711 19.6249H15.514L15.5129 15.5122ZM21.1628 15.5122H24.7109C24.6243 17.0158 24.1797 18.3788 23.4961 19.6249H20.7636C21.0242 18.2694 21.1571 16.8925 21.1628 15.5122ZM7.17925 20.7066H9.34271C9.55906 21.5991 9.82624 22.4991 10.1573 23.4066C8.99268 22.7167 7.9797 21.7982 7.17925 20.7066ZM10.4461 20.7066H14.4323V24.709C13.4576 24.6507 12.4979 24.4416 11.5873 24.0892C11.1271 22.9901 10.7453 21.8597 10.445 20.7066H10.4461ZM15.514 20.7066H19.4223C19.1185 21.8719 18.7317 23.0138 18.2648 24.1238C17.3821 24.4546 16.4549 24.6515 15.514 24.708V20.7066ZM20.5246 20.7066H22.767C21.9442 21.832 20.8956 22.7733 19.6884 23.4705C20.0313 22.5402 20.3039 21.6207 20.5246 20.7066Z" stroke="#248EC8" stroke-width="0.5"/>
</g>
<defs>
<clipPath id="clip0_977_411">
<rect width="30" height="30" fill="white"/>
</clipPath>
</defs>
</svg>
