<svg xmlns="http://www.w3.org/2000/svg" xmlns:xlink="http://www.w3.org/1999/xlink" width="50" zoomAndPan="magnify" viewBox="0 0 37.5 37.499999" height="50" preserveAspectRatio="xMidYMid meet" version="1.0"><defs><clipPath id="0a48b1be63"><path d="M 1.183594 1 L 35.96875 1 L 35.96875 35.773438 L 1.183594 35.773438 Z M 1.183594 1 " clip-rule="nonzero"/></clipPath></defs><g clip-path="url(#0a48b1be63)"><path fill="#000000" d="M 11.71875 8.925781 C 11.765625 8.601562 12.0625 8.378906 12.390625 8.417969 C 12.71875 8.460938 12.945312 8.757812 12.898438 9.082031 L 12.578125 11.414062 C 12.539062 11.738281 12.234375 11.960938 11.90625 11.921875 C 11.578125 11.875 11.351562 11.582031 11.390625 11.257812 Z M 5.9375 10.070312 C 5.8125 9.769531 5.960938 9.421875 6.265625 9.296875 C 6.570312 9.171875 6.921875 9.320312 7.046875 9.621094 L 7.945312 11.800781 C 8.070312 12.101562 7.921875 12.449219 7.617188 12.570312 C 7.3125 12.695312 6.960938 12.546875 6.835938 12.246094 Z M 1.515625 13.914062 C 1.257812 13.714844 1.203125 13.34375 1.40625 13.089844 C 1.609375 12.835938 1.984375 12.78125 2.242188 12.980469 L 4.125 14.425781 C 4.382812 14.625 4.4375 14.996094 4.234375 15.25 C 4.03125 15.507812 3.65625 15.550781 3.398438 15.359375 Z M 13.195312 28.789062 L 15.453125 31.023438 C 16.492188 32.050781 16.492188 33.71875 15.453125 34.746094 C 14.414062 35.773438 12.726562 35.773438 11.6875 34.746094 L 9.421875 32.511719 L 8.804688 33.125 C 7.765625 34.152344 6.078125 34.152344 5.039062 33.125 C 4 32.097656 4 30.429688 5.039062 29.402344 L 5.664062 28.78125 L 5.117188 28.242188 C 2.84375 25.996094 2.1875 23.058594 3.34375 20.273438 C 4.695312 17.027344 8.265625 14.964844 11.789062 15.738281 C 13.101562 16.023438 14.40625 16.710938 15.59375 17.886719 L 16.140625 18.425781 L 19.085938 15.515625 C 18.75 15.183594 18.5 14.941406 18.164062 14.570312 C 16.195312 12.363281 15.664062 9.511719 16.828125 6.878906 C 17.078125 6.308594 17.398438 5.773438 17.78125 5.28125 L 16.695312 4.207031 C 16.375 3.890625 16.5 3.328125 16.992188 3.210938 L 24.941406 1.101562 C 25.386719 0.984375 25.792969 1.386719 25.667969 1.835938 L 23.535156 9.714844 C 23.417969 10.152344 22.855469 10.292969 22.535156 9.976562 L 21.644531 9.097656 C 21.386719 9.828125 21.628906 10.554688 22.183594 11.136719 L 22.847656 11.792969 L 27.339844 7.351562 L 25.980469 6.007812 C 25.660156 5.691406 25.785156 5.125 26.277344 5.011719 L 35.097656 2.671875 C 35.542969 2.554688 35.949219 2.957031 35.824219 3.402344 L 33.457031 12.148438 C 33.339844 12.585938 32.777344 12.726562 32.457031 12.410156 L 31.097656 11.074219 L 26.613281 15.523438 L 27.160156 16.0625 C 29.433594 18.308594 30.089844 21.246094 28.933594 24.03125 C 27.582031 27.277344 24.011719 29.339844 20.488281 28.566406 C 19.179688 28.28125 17.875 27.59375 16.6875 26.417969 L 16.140625 25.878906 Z M 10.273438 31.679688 L 12.53125 33.910156 C 13.453125 34.824219 15.039062 34.171875 15.039062 32.882812 C 15.039062 32.511719 14.898438 32.140625 14.609375 31.855469 L 12.351562 29.625 Z M 16.984375 19.269531 L 19.0625 21.320312 L 30.691406 9.828125 C 30.925781 9.597656 31.300781 9.597656 31.535156 9.828125 L 32.582031 10.863281 L 34.417969 4.089844 L 27.566406 5.90625 L 28.613281 6.941406 C 28.847656 7.171875 28.847656 7.542969 28.613281 7.773438 Z M 19.90625 22.15625 C 20.441406 22.6875 20.886719 23.207031 21.589844 23.390625 C 22.480469 23.617188 23.324219 23.121094 23.800781 22.425781 C 24.425781 21.523438 24.175781 20.566406 23.394531 19.792969 L 22.847656 19.253906 Z M 23.691406 18.410156 C 24.441406 19.152344 24.941406 19.578125 25.238281 20.597656 C 25.425781 21.238281 25.347656 21.925781 25.121094 22.472656 C 24.761719 23.324219 24.027344 24.046875 23.167969 24.402344 C 21.925781 24.914062 20.605469 24.519531 19.609375 23.53125 L 14.742188 18.726562 C 12.820312 16.820312 10.367188 16.253906 7.984375 17.230469 C 5.257812 18.339844 3.453125 21.304688 4.109375 24.234375 C 4.351562 25.316406 4.9375 26.402344 5.960938 27.414062 L 6.507812 27.957031 L 8.585938 25.902344 L 8.039062 25.363281 C 6.601562 23.941406 6.570312 22.039062 7.945312 20.679688 C 9.3125 19.328125 11.234375 19.351562 12.671875 20.773438 L 17.53125 25.578125 C 19.453125 27.484375 21.902344 28.050781 24.285156 27.074219 C 27.011719 25.964844 28.816406 22.996094 28.160156 20.070312 C 27.917969 18.988281 27.332031 17.902344 26.308594 16.890625 L 25.761719 16.347656 Z M 15.289062 25.042969 L 13.210938 22.992188 L 5.875 30.234375 C 4.953125 31.144531 5.609375 32.714844 6.914062 32.714844 C 7.289062 32.714844 7.664062 32.574219 7.953125 32.289062 Z M 12.367188 22.15625 C 11.828125 21.632812 11.382812 21.105469 10.679688 20.929688 C 9.789062 20.703125 8.945312 21.199219 8.46875 21.894531 C 7.859375 22.78125 8.078125 23.738281 8.875 24.527344 L 9.421875 25.066406 Z M 21.996094 12.632812 C 21.386719 12.03125 20.847656 11.574219 20.527344 10.742188 C 20.246094 10.015625 20.277344 9.289062 20.558594 8.59375 C 20.652344 8.355469 20.902344 7.890625 21.082031 7.722656 C 21.316406 7.488281 21.691406 7.488281 21.925781 7.722656 L 22.644531 8.425781 L 24.246094 2.515625 L 18.273438 4.097656 L 19.015625 4.832031 C 19.234375 5.046875 19.25 5.402344 19.039062 5.644531 C 17.570312 7.273438 17 9.527344 17.75 11.636719 C 18.070312 12.539062 18.640625 13.414062 19.390625 14.148438 L 19.9375 14.6875 Z M 21.996094 12.632812 " fill-opacity="1" fill-rule="nonzero"/></g></svg>