<svg xmlns="http://www.w3.org/2000/svg" xmlns:xlink="http://www.w3.org/1999/xlink" width="50" zoomAndPan="magnify" viewBox="0 0 37.5 37.499999" height="50" preserveAspectRatio="xMidYMid meet" version="1.0"><defs><clipPath id="39182cee40"><path d="M 1.210938 1.035156 L 36 1.035156 L 36 35.824219 L 1.210938 35.824219 Z M 1.210938 1.035156 " clip-rule="nonzero"/></clipPath></defs><g clip-path="url(#39182cee40)"><path fill="#000000" d="M 12.046875 23.207031 C 11.910156 23.042969 11.703125 22.949219 11.488281 22.949219 C 11.273438 22.949219 11.070312 23.042969 10.929688 23.207031 L 8.546875 26 C 8.363281 26.21875 8.320312 26.523438 8.441406 26.78125 C 8.5625 27.039062 8.824219 27.207031 9.109375 27.207031 L 9.695312 27.207031 L 9.695312 35.257812 C 9.695312 35.566406 9.945312 35.816406 10.257812 35.816406 L 12.722656 35.816406 C 13.03125 35.816406 13.28125 35.566406 13.28125 35.257812 L 13.28125 27.207031 L 13.871094 27.207031 C 14.15625 27.207031 14.417969 27.039062 14.535156 26.78125 C 14.65625 26.523438 14.613281 26.21875 14.429688 26 Z M 12.722656 26.089844 C 12.414062 26.089844 12.160156 26.339844 12.160156 26.648438 L 12.160156 34.699219 L 10.816406 34.699219 L 10.816406 26.648438 C 10.816406 26.339844 10.566406 26.089844 10.257812 26.089844 L 9.945312 26.089844 L 11.488281 24.277344 L 13.03125 26.089844 Z M 4.9375 27.023438 C 4.796875 26.859375 4.59375 26.765625 4.375 26.765625 C 4.160156 26.765625 3.957031 26.859375 3.816406 27.023438 L 1.4375 29.816406 C 1.25 30.035156 1.210938 30.339844 1.328125 30.597656 C 1.449219 30.855469 1.710938 31.019531 1.996094 31.019531 L 2.582031 31.019531 L 2.582031 35.257812 C 2.582031 35.566406 2.832031 35.816406 3.144531 35.816406 L 5.609375 35.816406 C 5.917969 35.816406 6.171875 35.566406 6.171875 35.257812 L 6.171875 31.019531 L 6.757812 31.019531 C 7.042969 31.019531 7.304688 30.855469 7.421875 30.597656 C 7.542969 30.339844 7.5 30.035156 7.316406 29.816406 Z M 5.609375 29.902344 C 5.300781 29.902344 5.046875 30.152344 5.046875 30.460938 L 5.046875 34.699219 L 3.703125 34.699219 L 3.703125 30.460938 C 3.703125 30.152344 3.453125 29.902344 3.144531 29.902344 L 2.832031 29.902344 L 4.375 28.09375 L 5.917969 29.902344 Z M 19.160156 19.390625 C 19.019531 19.226562 18.816406 19.132812 18.601562 19.132812 C 18.386719 19.132812 18.179688 19.226562 18.042969 19.390625 L 15.660156 22.183594 C 15.476562 22.402344 15.433594 22.707031 15.554688 22.964844 C 15.675781 23.222656 15.933594 23.390625 16.21875 23.390625 L 16.808594 23.390625 L 16.808594 35.257812 C 16.808594 35.566406 17.058594 35.816406 17.367188 35.816406 L 19.835938 35.816406 C 20.144531 35.816406 20.394531 35.566406 20.394531 35.257812 L 20.394531 23.390625 L 20.984375 23.390625 C 21.269531 23.390625 21.527344 23.222656 21.648438 22.964844 C 21.769531 22.707031 21.726562 22.402344 21.542969 22.183594 Z M 19.835938 22.273438 C 19.523438 22.273438 19.273438 22.523438 19.273438 22.832031 L 19.273438 34.699219 L 17.929688 34.699219 L 17.929688 22.832031 C 17.929688 22.523438 17.679688 22.273438 17.367188 22.273438 L 17.058594 22.273438 L 18.601562 20.460938 L 20.144531 22.273438 Z M 35.765625 29.816406 L 33.386719 27.023438 C 33.246094 26.859375 33.042969 26.765625 32.828125 26.765625 C 32.609375 26.765625 32.40625 26.859375 32.265625 27.023438 L 29.886719 29.816406 C 29.703125 30.035156 29.660156 30.339844 29.78125 30.597656 C 29.898438 30.855469 30.160156 31.019531 30.445312 31.019531 L 31.03125 31.019531 L 31.03125 35.257812 C 31.03125 35.566406 31.285156 35.816406 31.59375 35.816406 L 34.058594 35.816406 C 34.371094 35.816406 34.621094 35.566406 34.621094 35.257812 L 34.621094 31.019531 L 35.207031 31.019531 C 35.492188 31.019531 35.753906 30.855469 35.875 30.597656 C 35.992188 30.339844 35.953125 30.035156 35.765625 29.816406 Z M 34.058594 29.902344 C 33.75 29.902344 33.5 30.152344 33.5 30.460938 L 33.5 34.699219 L 32.15625 34.699219 L 32.15625 30.460938 C 32.15625 30.152344 31.902344 29.902344 31.59375 29.902344 L 31.285156 29.902344 L 32.828125 28.09375 L 34.371094 29.902344 Z M 26.273438 23.207031 C 26.132812 23.042969 25.929688 22.949219 25.714844 22.949219 C 25.5 22.949219 25.292969 23.042969 25.15625 23.207031 L 22.773438 26 C 22.589844 26.21875 22.546875 26.523438 22.667969 26.78125 C 22.785156 27.039062 23.046875 27.207031 23.332031 27.207031 L 23.921875 27.207031 L 23.921875 35.257812 C 23.921875 35.566406 24.171875 35.816406 24.480469 35.816406 L 26.949219 35.816406 C 27.257812 35.816406 27.507812 35.566406 27.507812 35.257812 L 27.507812 27.207031 L 28.09375 27.207031 C 28.378906 27.207031 28.640625 27.039062 28.761719 26.78125 C 28.882812 26.523438 28.839844 26.21875 28.65625 26 Z M 26.945312 26.089844 C 26.636719 26.089844 26.386719 26.339844 26.386719 26.648438 L 26.386719 34.699219 L 25.042969 34.699219 L 25.042969 26.648438 C 25.042969 26.339844 24.789062 26.089844 24.480469 26.089844 L 24.171875 26.089844 L 25.714844 24.277344 L 27.257812 26.089844 Z M 22.75 20.304688 L 23.601562 18.84375 L 25.273438 19.132812 C 25.53125 19.179688 25.789062 19.078125 25.945312 18.871094 C 26.105469 18.667969 26.132812 18.394531 26.023438 18.15625 L 24.066406 13.96875 L 24.433594 13.816406 C 25.289062 13.449219 25.792969 12.582031 25.679688 11.660156 L 25.542969 10.527344 C 25.519531 10.324219 25.550781 10.160156 25.640625 9.980469 L 26.160156 8.960938 C 26.578125 8.128906 26.40625 7.144531 25.726562 6.507812 L 24.890625 5.726562 C 24.738281 5.589844 24.65625 5.445312 24.609375 5.246094 L 24.347656 4.136719 C 24.136719 3.230469 23.367188 2.585938 22.4375 2.535156 L 21.292969 2.472656 C 21.085938 2.460938 20.929688 2.402344 20.769531 2.28125 L 19.851562 1.597656 C 19.101562 1.039062 18.101562 1.039062 17.351562 1.597656 L 16.433594 2.28125 C 16.273438 2.402344 16.117188 2.460938 15.910156 2.472656 L 14.765625 2.535156 C 13.835938 2.585938 13.066406 3.230469 12.855469 4.136719 L 12.59375 5.246094 C 12.546875 5.445312 12.464844 5.589844 12.316406 5.726562 L 11.480469 6.507812 C 10.796875 7.144531 10.625 8.128906 11.046875 8.960938 L 11.5625 9.980469 C 11.652344 10.160156 11.683594 10.324219 11.660156 10.527344 L 11.523438 11.660156 C 11.410156 12.582031 11.914062 13.449219 12.769531 13.816406 L 13.136719 13.96875 L 11.179688 18.15625 C 11.070312 18.394531 11.097656 18.667969 11.257812 18.871094 C 11.414062 19.078125 11.671875 19.179688 11.929688 19.132812 L 13.601562 18.84375 L 14.453125 20.304688 C 14.578125 20.519531 14.804688 20.648438 15.054688 20.648438 C 15.066406 20.648438 15.074219 20.648438 15.085938 20.648438 C 15.347656 20.636719 15.578125 20.484375 15.6875 20.25 L 17.511719 16.339844 L 18.324219 16.097656 C 18.519531 16.039062 18.683594 16.039062 18.878906 16.097656 L 19.691406 16.339844 L 21.515625 20.25 C 21.628906 20.484375 21.855469 20.636719 22.117188 20.648438 C 22.128906 20.648438 22.136719 20.648438 22.148438 20.648438 C 22.398438 20.648438 22.625 20.519531 22.75 20.304688 Z M 15.011719 19.042969 L 14.375 17.945312 C 14.253906 17.742188 14.023438 17.636719 13.792969 17.675781 L 12.539062 17.894531 L 14.136719 14.476562 C 14.175781 14.519531 14.214844 14.566406 14.25 14.621094 L 14.878906 15.578125 C 15.195312 16.058594 15.675781 16.371094 16.210938 16.476562 Z M 18.601562 14.9375 C 18.402344 14.9375 18.203125 14.964844 18 15.027344 L 16.902344 15.359375 C 16.484375 15.484375 16.058594 15.328125 15.816406 14.964844 L 15.191406 14.007812 C 14.957031 13.65625 14.65625 13.402344 14.265625 13.238281 L 13.210938 12.789062 C 12.808594 12.617188 12.585938 12.226562 12.636719 11.792969 L 12.773438 10.65625 C 12.824219 10.238281 12.753906 9.851562 12.5625 9.476562 L 12.046875 8.457031 C 11.847656 8.066406 11.925781 7.621094 12.246094 7.324219 L 13.082031 6.542969 C 13.390625 6.253906 13.585938 5.914062 13.683594 5.5 L 13.945312 4.390625 C 14.046875 3.964844 14.394531 3.675781 14.828125 3.652344 L 15.972656 3.585938 C 16.398438 3.5625 16.769531 3.429688 17.105469 3.175781 L 18.023438 2.492188 C 18.375 2.230469 18.828125 2.230469 19.179688 2.492188 L 20.097656 3.175781 C 20.433594 3.429688 20.804688 3.5625 21.230469 3.585938 L 22.375 3.652344 C 22.808594 3.675781 23.15625 3.964844 23.257812 4.390625 L 23.519531 5.5 C 23.613281 5.914062 23.8125 6.253906 24.121094 6.542969 L 24.957031 7.324219 C 25.277344 7.621094 25.355469 8.066406 25.15625 8.457031 L 24.640625 9.476562 C 24.449219 9.851562 24.378906 10.238281 24.429688 10.65625 L 24.566406 11.792969 C 24.617188 12.226562 24.390625 12.617188 23.988281 12.789062 L 22.9375 13.238281 C 22.546875 13.402344 22.246094 13.65625 22.011719 14.007812 L 21.386719 14.964844 C 21.144531 15.328125 20.71875 15.484375 20.300781 15.359375 L 19.203125 15.027344 C 19 14.964844 18.800781 14.9375 18.601562 14.9375 Z M 20.992188 16.476562 C 21.527344 16.371094 22.007812 16.058594 22.324219 15.578125 L 22.953125 14.621094 C 22.988281 14.566406 23.027344 14.519531 23.066406 14.476562 L 24.664062 17.894531 L 23.410156 17.675781 C 23.179688 17.636719 22.949219 17.742188 22.828125 17.945312 L 22.191406 19.042969 Z M 23.125 8.847656 C 23.125 6.363281 21.097656 4.339844 18.601562 4.339844 C 16.105469 4.339844 14.078125 6.363281 14.078125 8.847656 C 14.078125 11.335938 16.105469 13.355469 18.601562 13.355469 C 21.097656 13.355469 23.125 11.335938 23.125 8.847656 Z M 18.601562 12.238281 C 16.726562 12.238281 15.199219 10.71875 15.199219 8.847656 C 15.199219 6.980469 16.726562 5.457031 18.601562 5.457031 C 20.476562 5.457031 22.003906 6.980469 22.003906 8.847656 C 22.003906 10.71875 20.476562 12.238281 18.601562 12.238281 Z M 18.601562 12.238281 " fill-opacity="1" fill-rule="nonzero"/></g></svg>