<svg xmlns="http://www.w3.org/2000/svg" xmlns:xlink="http://www.w3.org/1999/xlink" width="50" zoomAndPan="magnify" viewBox="0 0 37.5 37.499999" height="50" preserveAspectRatio="xMidYMid meet" version="1.0"><defs><clipPath id="e5db0f56fb"><path d="M 1.035156 1.035156 L 35.824219 1.035156 L 35.824219 35.824219 L 1.035156 35.824219 Z M 1.035156 1.035156 " clip-rule="nonzero"/></clipPath></defs><g clip-path="url(#e5db0f56fb)"><path fill="#ff5757" d="M 34.480469 27.636719 C 34.035156 27.191406 33.519531 26.84375 32.945312 26.597656 C 32.355469 26.347656 31.71875 26.214844 31.070312 26.214844 C 30.421875 26.214844 29.789062 26.339844 29.195312 26.597656 C 28.625 26.84375 28.109375 27.191406 27.664062 27.636719 C 27.214844 28.085938 26.875 28.601562 26.628906 29.171875 C 26.433594 29.632812 26.316406 30.121094 26.269531 30.613281 L 19.722656 30.613281 C 19.6875 30.355469 19.617188 30.097656 19.511719 29.855469 C 19.359375 29.492188 19.136719 29.15625 18.859375 28.878906 C 18.578125 28.601562 18.25 28.375 17.882812 28.222656 C 17.503906 28.0625 17.101562 27.980469 16.691406 27.980469 C 16.277344 27.980469 15.875 28.0625 15.496094 28.222656 C 15.136719 28.375 14.808594 28.601562 14.523438 28.878906 C 14.242188 29.15625 14.019531 29.492188 13.867188 29.855469 C 13.761719 30.097656 13.691406 30.351562 13.65625 30.613281 L 7.761719 30.613281 C 4.539062 30.613281 1.917969 27.988281 1.917969 24.757812 C 1.917969 21.53125 4.539062 18.902344 7.761719 18.902344 L 9.105469 18.902344 C 9.140625 19.160156 9.210938 19.417969 9.3125 19.664062 C 9.46875 20.027344 9.691406 20.359375 9.96875 20.640625 C 10.25 20.917969 10.574219 21.140625 10.945312 21.292969 C 11.320312 21.453125 11.726562 21.539062 12.136719 21.539062 C 12.550781 21.539062 12.953125 21.453125 13.328125 21.292969 C 13.691406 21.140625 14.019531 20.917969 14.304688 20.640625 C 14.589844 20.359375 14.808594 20.027344 14.960938 19.664062 C 15.066406 19.417969 15.136719 19.167969 15.171875 18.902344 L 21.519531 18.902344 C 21.554688 19.160156 21.625 19.417969 21.730469 19.664062 C 21.882812 20.027344 22.105469 20.359375 22.386719 20.640625 C 22.664062 20.917969 22.992188 21.140625 23.359375 21.292969 C 23.738281 21.453125 24.140625 21.539062 24.554688 21.539062 C 24.964844 21.539062 25.367188 21.453125 25.746094 21.292969 C 26.109375 21.140625 26.433594 20.917969 26.722656 20.640625 C 27 20.359375 27.222656 20.027344 27.375 19.664062 C 27.480469 19.417969 27.550781 19.167969 27.585938 18.902344 L 29.175781 18.902344 C 30.082031 18.902344 30.960938 18.722656 31.789062 18.375 C 32.589844 18.03125 33.308594 17.550781 33.921875 16.929688 C 34.535156 16.308594 35.023438 15.59375 35.359375 14.789062 C 35.707031 13.960938 35.886719 13.074219 35.886719 12.167969 C 35.886719 11.261719 35.714844 10.378906 35.359375 9.546875 C 35.015625 8.746094 34.535156 8.027344 33.921875 7.40625 C 33.308594 6.789062 32.582031 6.304688 31.789062 5.964844 C 30.960938 5.617188 30.082031 5.433594 29.175781 5.433594 L 23.035156 5.433594 C 23 5.175781 22.929688 4.917969 22.824219 4.675781 C 22.671875 4.3125 22.449219 3.976562 22.167969 3.699219 C 21.890625 3.421875 21.5625 3.195312 21.191406 3.042969 C 20.816406 2.882812 20.414062 2.800781 20 2.800781 C 19.589844 2.800781 19.183594 2.882812 18.808594 3.042969 C 18.445312 3.195312 18.117188 3.421875 17.832031 3.699219 C 17.554688 3.976562 17.332031 4.3125 17.179688 4.675781 C 17.074219 4.917969 17.003906 5.171875 16.96875 5.433594 L 10.671875 5.433594 C 10.632812 4.941406 10.507812 4.453125 10.3125 3.992188 C 10.066406 3.414062 9.71875 2.898438 9.28125 2.457031 C 8.832031 2.011719 8.316406 1.664062 7.746094 1.417969 C 7.144531 1.160156 6.511719 1.035156 5.863281 1.035156 C 5.214844 1.035156 4.582031 1.160156 3.988281 1.417969 C 3.417969 1.664062 2.902344 2.011719 2.453125 2.457031 C 2.007812 2.90625 1.667969 3.421875 1.421875 3.992188 C 1.164062 4.585938 1.039062 5.21875 1.039062 5.875 C 1.039062 6.53125 1.164062 7.15625 1.417969 7.757812 C 1.660156 8.335938 2.007812 8.851562 2.449219 9.289062 C 2.894531 9.734375 3.410156 10.085938 3.980469 10.328125 C 4.574219 10.578125 5.207031 10.710938 5.855469 10.710938 C 6.503906 10.710938 7.140625 10.585938 7.730469 10.328125 C 8.304688 10.085938 8.820312 9.734375 9.265625 9.289062 C 9.710938 8.84375 10.054688 8.328125 10.296875 7.757812 C 10.492188 7.296875 10.609375 6.808594 10.660156 6.3125 L 16.953125 6.3125 C 16.988281 6.570312 17.058594 6.828125 17.164062 7.074219 C 17.316406 7.4375 17.539062 7.769531 17.820312 8.050781 C 18.097656 8.328125 18.425781 8.550781 18.796875 8.703125 C 19.171875 8.863281 19.574219 8.949219 19.988281 8.949219 C 20.398438 8.949219 20.804688 8.863281 21.179688 8.703125 C 21.542969 8.550781 21.871094 8.328125 22.15625 8.050781 C 22.433594 7.769531 22.65625 7.4375 22.808594 7.074219 C 22.914062 6.828125 22.984375 6.578125 23.019531 6.3125 L 29.160156 6.3125 C 32.382812 6.3125 35.003906 8.941406 35.003906 12.167969 C 35.003906 15.398438 32.382812 18.023438 29.160156 18.023438 L 27.570312 18.023438 C 27.535156 17.765625 27.46875 17.507812 27.363281 17.265625 C 27.210938 16.902344 26.984375 16.566406 26.707031 16.289062 C 26.429688 16.011719 26.101562 15.785156 25.730469 15.632812 C 25.355469 15.472656 24.949219 15.390625 24.539062 15.390625 C 24.128906 15.390625 23.722656 15.472656 23.347656 15.632812 C 22.984375 15.785156 22.65625 16.011719 22.371094 16.289062 C 22.09375 16.566406 21.871094 16.902344 21.714844 17.265625 C 21.613281 17.507812 21.542969 17.761719 21.507812 18.023438 L 15.15625 18.023438 C 15.121094 17.765625 15.050781 17.507812 14.945312 17.265625 C 14.792969 16.902344 14.570312 16.566406 14.292969 16.289062 C 14.011719 16.011719 13.683594 15.785156 13.316406 15.632812 C 12.9375 15.472656 12.535156 15.390625 12.125 15.390625 C 11.710938 15.390625 11.308594 15.472656 10.933594 15.632812 C 10.570312 15.785156 10.242188 16.011719 9.957031 16.289062 C 9.675781 16.566406 9.453125 16.902344 9.300781 17.265625 C 9.195312 17.507812 9.125 17.761719 9.089844 18.023438 L 7.761719 18.023438 C 6.855469 18.023438 5.976562 18.207031 5.144531 18.554688 C 4.34375 18.894531 3.625 19.378906 3.011719 19.996094 C 2.398438 20.617188 1.910156 21.335938 1.578125 22.136719 C 1.226562 22.96875 1.046875 23.851562 1.046875 24.757812 C 1.046875 25.664062 1.222656 26.550781 1.578125 27.378906 C 1.917969 28.183594 2.398438 28.898438 3.011719 29.519531 C 3.625 30.140625 4.351562 30.621094 5.144531 30.964844 C 5.976562 31.3125 6.855469 31.492188 7.761719 31.492188 L 13.65625 31.492188 C 13.691406 31.75 13.761719 32.007812 13.867188 32.253906 C 14.019531 32.617188 14.242188 32.949219 14.523438 33.230469 C 14.800781 33.507812 15.128906 33.730469 15.496094 33.882812 C 15.875 34.042969 16.277344 34.128906 16.691406 34.128906 C 17.101562 34.128906 17.503906 34.042969 17.882812 33.882812 C 18.246094 33.730469 18.570312 33.507812 18.859375 33.230469 C 19.136719 32.949219 19.359375 32.617188 19.511719 32.253906 C 19.617188 32.007812 19.6875 31.757812 19.722656 31.492188 L 26.269531 31.492188 C 26.308594 31.988281 26.433594 32.476562 26.628906 32.9375 C 26.875 33.515625 27.222656 34.03125 27.664062 34.46875 C 28.101562 34.910156 28.625 35.265625 29.195312 35.507812 C 29.789062 35.757812 30.421875 35.890625 31.070312 35.890625 C 31.71875 35.890625 32.355469 35.765625 32.945312 35.507812 C 33.519531 35.265625 34.035156 34.914062 34.480469 34.46875 C 34.925781 34.023438 35.269531 33.507812 35.511719 32.9375 C 35.761719 32.335938 35.886719 31.710938 35.886719 31.054688 C 35.886719 30.398438 35.761719 29.769531 35.511719 29.171875 C 35.273438 28.601562 34.925781 28.078125 34.480469 27.636719 Z M 5.863281 9.832031 C 3.6875 9.832031 1.910156 8.054688 1.910156 5.875 C 1.910156 3.683594 3.6875 1.914062 5.863281 1.914062 C 8.039062 1.914062 9.816406 3.691406 9.816406 5.875 C 9.816406 8.054688 8.046875 9.832031 5.863281 9.832031 Z M 20 8.070312 C 18.796875 8.070312 17.8125 7.085938 17.8125 5.875 C 17.8125 4.660156 18.796875 3.679688 20 3.679688 C 21.207031 3.679688 22.191406 4.660156 22.191406 5.875 C 22.191406 7.085938 21.207031 8.070312 20 8.070312 Z M 24.554688 16.269531 C 25.757812 16.269531 26.742188 17.25 26.742188 18.464844 C 26.742188 19.675781 25.757812 20.660156 24.554688 20.660156 C 23.347656 20.660156 22.363281 19.675781 22.363281 18.464844 C 22.363281 17.25 23.347656 16.269531 24.554688 16.269531 Z M 12.136719 16.269531 C 13.34375 16.269531 14.328125 17.25 14.328125 18.464844 C 14.328125 19.675781 13.34375 20.660156 12.136719 20.660156 C 10.933594 20.660156 9.949219 19.675781 9.949219 18.464844 C 9.949219 17.25 10.925781 16.269531 12.136719 16.269531 Z M 16.691406 33.25 C 15.484375 33.25 14.5 32.265625 14.5 31.054688 C 14.5 29.839844 15.484375 28.859375 16.691406 28.859375 C 17.894531 28.859375 18.878906 29.839844 18.878906 31.054688 C 18.878906 32.265625 17.894531 33.25 16.691406 33.25 Z M 31.070312 35.011719 C 28.894531 35.011719 27.117188 33.234375 27.117188 31.054688 C 27.117188 28.871094 28.890625 27.09375 31.070312 27.09375 C 33.246094 27.09375 35.023438 28.871094 35.023438 31.054688 C 35.023438 33.242188 33.246094 35.011719 31.070312 35.011719 Z M 31.070312 35.011719 " fill-opacity="1" fill-rule="nonzero"/></g><path fill="#ff5757" d="M 31.070312 28.042969 C 30.269531 28.042969 29.515625 28.355469 28.945312 28.925781 C 28.375 29.5 28.066406 30.253906 28.066406 31.054688 C 28.066406 31.855469 28.378906 32.617188 28.945312 33.179688 C 29.507812 33.75 30.269531 34.066406 31.070312 34.066406 C 31.871094 34.066406 32.625 33.75 33.199219 33.179688 C 33.761719 32.609375 34.074219 31.855469 34.074219 31.054688 C 34.074219 30.253906 33.761719 29.492188 33.199219 28.925781 C 32.625 28.355469 31.871094 28.042969 31.070312 28.042969 Z M 31.070312 33.195312 C 29.898438 33.195312 28.9375 32.238281 28.9375 31.0625 C 28.9375 29.882812 29.894531 28.925781 31.070312 28.925781 C 32.242188 28.925781 33.203125 29.882812 33.203125 31.0625 C 33.203125 32.230469 32.242188 33.195312 31.070312 33.195312 Z M 31.070312 33.195312 " fill-opacity="1" fill-rule="nonzero"/><path fill="#ff5757" d="M 32.164062 31.054688 C 32.164062 31.199219 32.136719 31.339844 32.082031 31.476562 C 32.027344 31.609375 31.949219 31.730469 31.84375 31.832031 C 31.742188 31.9375 31.625 32.015625 31.488281 32.070312 C 31.355469 32.128906 31.214844 32.15625 31.070312 32.15625 C 30.925781 32.15625 30.785156 32.128906 30.652344 32.070312 C 30.519531 32.015625 30.398438 31.9375 30.296875 31.832031 C 30.195312 31.730469 30.117188 31.609375 30.058594 31.476562 C 30.003906 31.339844 29.976562 31.199219 29.976562 31.054688 C 29.976562 30.90625 30.003906 30.765625 30.058594 30.632812 C 30.117188 30.496094 30.195312 30.378906 30.296875 30.273438 C 30.398438 30.171875 30.519531 30.09375 30.652344 30.035156 C 30.785156 29.980469 30.925781 29.953125 31.070312 29.953125 C 31.214844 29.953125 31.355469 29.980469 31.488281 30.035156 C 31.625 30.09375 31.742188 30.171875 31.84375 30.273438 C 31.949219 30.378906 32.027344 30.496094 32.082031 30.632812 C 32.136719 30.765625 32.164062 30.90625 32.164062 31.054688 Z M 32.164062 31.054688 " fill-opacity="1" fill-rule="nonzero"/><path fill="#ff5757" d="M 5.960938 4.988281 L 4.03125 4.988281 L 4.03125 6.753906 L 5.960938 6.753906 L 5.960938 7.597656 L 8.527344 5.875 L 5.960938 4.144531 Z M 5.960938 4.988281 " fill-opacity="1" fill-rule="nonzero"/></svg>