<svg xmlns="http://www.w3.org/2000/svg" xmlns:xlink="http://www.w3.org/1999/xlink" width="50" zoomAndPan="magnify" viewBox="0 0 37.5 37.499999" height="50" preserveAspectRatio="xMidYMid meet" version="1.0"><defs><clipPath id="9d7dcde8a4"><path d="M 1.046875 1.035156 L 35.089844 1.035156 L 35.089844 35.082031 L 1.046875 35.082031 Z M 1.046875 1.035156 " clip-rule="nonzero"/></clipPath></defs><g clip-path="url(#9d7dcde8a4)"><path fill="#000000" d="M 28.578125 12.851562 C 28.789062 12.769531 28.929688 12.566406 28.929688 12.339844 L 28.929688 11.164062 C 28.929688 10.9375 28.789062 10.730469 28.578125 10.652344 L 28.117188 10.472656 C 28.042969 10.230469 27.945312 9.996094 27.824219 9.769531 L 28.027344 9.316406 C 28.117188 9.109375 28.074219 8.867188 27.914062 8.703125 L 27.082031 7.871094 C 26.921875 7.710938 26.679688 7.667969 26.472656 7.757812 L 26.019531 7.960938 C 25.792969 7.84375 25.558594 7.746094 25.316406 7.667969 L 25.136719 7.207031 C 25.054688 6.996094 24.851562 6.855469 24.625 6.855469 L 23.449219 6.855469 C 23.222656 6.855469 23.019531 6.996094 22.9375 7.207031 L 22.761719 7.667969 C 22.519531 7.746094 22.28125 7.84375 22.058594 7.960938 L 21.605469 7.757812 C 21.398438 7.667969 21.15625 7.710938 20.996094 7.871094 L 20.164062 8.707031 C 20.003906 8.867188 19.957031 9.109375 20.050781 9.316406 L 20.25 9.769531 C 20.132812 9.996094 20.035156 10.230469 19.960938 10.472656 L 19.496094 10.652344 C 19.285156 10.734375 19.144531 10.9375 19.144531 11.164062 L 19.144531 12.339844 C 19.144531 12.566406 19.285156 12.769531 19.496094 12.851562 L 19.957031 13.03125 C 20.035156 13.273438 20.132812 13.507812 20.25 13.734375 L 20.050781 14.1875 C 19.957031 14.394531 20.003906 14.636719 20.164062 14.796875 L 20.996094 15.628906 C 21.15625 15.792969 21.398438 15.835938 21.605469 15.746094 L 22.058594 15.542969 C 22.28125 15.660156 22.519531 15.757812 22.761719 15.835938 L 22.9375 16.296875 C 23.019531 16.507812 23.222656 16.648438 23.449219 16.648438 L 24.625 16.648438 C 24.851562 16.648438 25.054688 16.507812 25.136719 16.296875 L 25.316406 15.835938 C 25.558594 15.757812 25.792969 15.660156 26.019531 15.542969 L 26.472656 15.746094 C 26.679688 15.835938 26.921875 15.792969 27.082031 15.628906 L 27.914062 14.796875 C 28.074219 14.636719 28.117188 14.394531 28.027344 14.1875 L 27.824219 13.734375 C 27.945312 13.507812 28.039062 13.273438 28.117188 13.03125 Z M 27.832031 11.964844 L 27.464844 12.105469 C 27.296875 12.171875 27.167969 12.3125 27.128906 12.492188 C 27.050781 12.816406 26.921875 13.128906 26.746094 13.417969 C 26.648438 13.570312 26.636719 13.761719 26.710938 13.925781 L 26.871094 14.289062 L 26.570312 14.585938 L 26.210938 14.425781 C 26.046875 14.351562 25.855469 14.367188 25.699219 14.460938 C 25.414062 14.636719 25.101562 14.765625 24.777344 14.84375 C 24.601562 14.886719 24.457031 15.011719 24.390625 15.183594 L 24.25 15.550781 L 23.828125 15.550781 L 23.683594 15.183594 C 23.621094 15.011719 23.476562 14.886719 23.300781 14.84375 C 22.972656 14.765625 22.664062 14.636719 22.375 14.460938 C 22.222656 14.367188 22.03125 14.351562 21.863281 14.425781 L 21.503906 14.585938 L 21.207031 14.289062 L 21.367188 13.925781 C 21.4375 13.761719 21.425781 13.570312 21.332031 13.417969 C 21.15625 13.128906 21.027344 12.816406 20.949219 12.488281 C 20.90625 12.3125 20.78125 12.167969 20.609375 12.105469 L 20.242188 11.964844 L 20.242188 11.539062 L 20.609375 11.398438 C 20.78125 11.332031 20.90625 11.1875 20.949219 11.011719 C 21.027344 10.6875 21.15625 10.375 21.332031 10.085938 C 21.425781 9.933594 21.4375 9.742188 21.367188 9.578125 L 21.207031 9.214844 L 21.503906 8.917969 L 21.863281 9.078125 C 22.03125 9.148438 22.222656 9.136719 22.375 9.042969 C 22.664062 8.867188 22.972656 8.734375 23.300781 8.660156 C 23.476562 8.617188 23.621094 8.492188 23.683594 8.320312 L 23.828125 7.953125 L 24.25 7.953125 L 24.390625 8.320312 C 24.457031 8.492188 24.601562 8.617188 24.777344 8.660156 C 25.101562 8.734375 25.414062 8.867188 25.699219 9.042969 C 25.855469 9.136719 26.046875 9.148438 26.210938 9.078125 L 26.570312 8.914062 L 26.871094 9.214844 L 26.710938 9.578125 C 26.636719 9.742188 26.648438 9.933594 26.746094 10.085938 C 26.921875 10.375 27.050781 10.6875 27.128906 11.011719 C 27.171875 11.1875 27.296875 11.332031 27.464844 11.398438 L 27.832031 11.539062 Z M 24.039062 8.835938 C 22.433594 8.835938 21.125 10.144531 21.125 11.75 C 21.125 13.359375 22.433594 14.667969 24.039062 14.667969 C 25.644531 14.667969 26.949219 13.359375 26.949219 11.75 C 26.949219 10.144531 25.644531 8.835938 24.039062 8.835938 Z M 24.039062 13.570312 C 23.035156 13.570312 22.222656 12.753906 22.222656 11.75 C 22.222656 10.75 23.035156 9.933594 24.039062 9.933594 C 25.039062 9.933594 25.851562 10.75 25.851562 11.75 C 25.851562 12.753906 25.039062 13.570312 24.039062 13.570312 Z M 19.160156 17.875 L 17.914062 16.628906 C 17.753906 16.464844 17.511719 16.421875 17.304688 16.515625 L 16.503906 16.871094 C 16.109375 16.652344 15.691406 16.476562 15.253906 16.351562 L 14.941406 15.535156 C 14.859375 15.324219 14.65625 15.183594 14.429688 15.183594 L 12.667969 15.183594 C 12.441406 15.183594 12.238281 15.324219 12.15625 15.535156 L 11.84375 16.351562 C 11.410156 16.476562 10.992188 16.652344 10.59375 16.871094 L 9.792969 16.515625 C 9.585938 16.421875 9.34375 16.464844 9.183594 16.628906 L 7.9375 17.875 C 7.777344 18.035156 7.734375 18.277344 7.824219 18.484375 L 8.179688 19.285156 C 7.960938 19.683594 7.789062 20.101562 7.664062 20.535156 L 6.847656 20.847656 C 6.636719 20.929688 6.496094 21.132812 6.496094 21.363281 L 6.496094 23.125 C 6.496094 23.351562 6.636719 23.554688 6.847656 23.636719 L 7.664062 23.949219 C 7.789062 24.386719 7.960938 24.804688 8.179688 25.199219 L 7.824219 26 C 7.734375 26.207031 7.777344 26.453125 7.9375 26.613281 L 9.183594 27.859375 C 9.34375 28.019531 9.585938 28.0625 9.792969 27.972656 L 10.59375 27.617188 C 10.992188 27.835938 11.410156 28.007812 11.84375 28.132812 L 12.15625 28.953125 C 12.238281 29.164062 12.441406 29.304688 12.667969 29.304688 L 14.429688 29.304688 C 14.65625 29.304688 14.859375 29.164062 14.941406 28.953125 L 15.253906 28.132812 C 15.691406 28.007812 16.109375 27.835938 16.503906 27.617188 L 17.304688 27.972656 C 17.511719 28.0625 17.753906 28.019531 17.914062 27.859375 L 19.160156 26.613281 C 19.320312 26.453125 19.363281 26.207031 19.273438 26 L 18.917969 25.199219 C 19.136719 24.804688 19.308594 24.386719 19.433594 23.949219 L 20.25 23.636719 C 20.460938 23.554688 20.601562 23.351562 20.601562 23.125 L 20.601562 21.363281 C 20.601562 21.132812 20.460938 20.929688 20.25 20.847656 L 19.433594 20.535156 C 19.308594 20.101562 19.136719 19.679688 18.917969 19.285156 L 19.273438 18.484375 C 19.363281 18.277344 19.320312 18.035156 19.160156 17.875 Z M 19.503906 21.738281 L 19.503906 22.746094 L 18.777344 23.027344 C 18.609375 23.09375 18.484375 23.234375 18.441406 23.414062 C 18.320312 23.929688 18.113281 24.421875 17.835938 24.878906 C 17.738281 25.03125 17.726562 25.222656 17.800781 25.390625 L 18.117188 26.101562 L 17.40625 26.816406 L 16.691406 26.5 C 16.527344 26.425781 16.335938 26.4375 16.183594 26.53125 C 15.726562 26.8125 15.234375 27.019531 14.71875 27.140625 C 14.542969 27.183594 14.398438 27.308594 14.332031 27.476562 L 14.054688 28.203125 L 13.046875 28.203125 L 12.765625 27.476562 C 12.699219 27.308594 12.558594 27.183594 12.382812 27.140625 C 11.863281 27.015625 11.371094 26.8125 10.917969 26.53125 C 10.761719 26.4375 10.570312 26.425781 10.40625 26.5 L 9.695312 26.816406 L 8.980469 26.101562 L 9.296875 25.390625 C 9.371094 25.222656 9.359375 25.03125 9.261719 24.878906 C 8.984375 24.425781 8.777344 23.929688 8.65625 23.410156 C 8.613281 23.234375 8.488281 23.089844 8.320312 23.027344 L 7.59375 22.746094 L 7.59375 21.738281 L 8.320312 21.457031 C 8.488281 21.394531 8.613281 21.25 8.65625 21.074219 C 8.777344 20.554688 8.984375 20.0625 9.261719 19.605469 C 9.359375 19.453125 9.371094 19.261719 9.296875 19.097656 L 8.980469 18.382812 L 9.695312 17.671875 L 10.40625 17.988281 C 10.570312 18.0625 10.761719 18.046875 10.917969 17.953125 C 11.371094 17.671875 11.863281 17.46875 12.382812 17.34375 C 12.558594 17.304688 12.699219 17.175781 12.765625 17.007812 L 13.046875 16.28125 L 14.054688 16.28125 L 14.332031 17.007812 C 14.398438 17.175781 14.542969 17.304688 14.71875 17.34375 C 15.234375 17.46875 15.726562 17.671875 16.183594 17.953125 C 16.335938 18.046875 16.527344 18.0625 16.691406 17.988281 L 17.40625 17.671875 L 18.117188 18.382812 L 17.800781 19.097656 C 17.726562 19.261719 17.738281 19.453125 17.835938 19.605469 C 18.113281 20.0625 18.320312 20.554688 18.441406 21.074219 C 18.484375 21.25 18.609375 21.394531 18.777344 21.457031 Z M 13.550781 18.148438 C 11.292969 18.148438 9.460938 19.984375 9.460938 22.242188 C 9.460938 24.5 11.292969 26.335938 13.550781 26.335938 C 15.804688 26.335938 17.636719 24.5 17.636719 22.242188 C 17.636719 19.984375 15.804688 18.148438 13.550781 18.148438 Z M 13.550781 25.238281 C 11.898438 25.238281 10.558594 23.894531 10.558594 22.242188 C 10.558594 20.589844 11.898438 19.25 13.550781 19.25 C 15.199219 19.25 16.539062 20.589844 16.539062 22.242188 C 16.539062 23.894531 15.199219 25.238281 13.550781 25.238281 Z M 4.515625 22.242188 C 4.515625 20.289062 5.152344 18.394531 6.304688 16.84375 C 6.160156 16.78125 6.046875 16.660156 5.996094 16.5 C 5.910156 16.210938 6.070312 15.902344 6.359375 15.816406 L 7.722656 15.394531 C 7.910156 15.335938 8.113281 15.382812 8.257812 15.515625 C 8.398438 15.648438 8.460938 15.851562 8.417969 16.042969 L 8.101562 17.429688 C 8.035156 17.726562 7.738281 17.914062 7.445312 17.84375 C 7.296875 17.8125 7.179688 17.722656 7.105469 17.605469 C 6.144531 18.949219 5.613281 20.570312 5.613281 22.242188 C 5.613281 26.625 9.171875 30.1875 13.550781 30.1875 C 17.925781 30.1875 21.488281 26.625 21.488281 22.242188 C 21.488281 21.941406 21.734375 21.695312 22.035156 21.695312 C 22.339844 21.695312 22.585938 21.941406 22.585938 22.242188 C 22.585938 27.230469 18.53125 31.285156 13.550781 31.285156 C 8.566406 31.285156 4.515625 27.230469 4.515625 22.242188 Z M 24.039062 18.671875 C 22.355469 18.671875 20.734375 18.058594 19.472656 16.949219 C 19.46875 16.945312 19.46875 16.945312 19.464844 16.941406 C 17.496094 15.148438 16.109375 14.296875 13.550781 14.296875 C 12.703125 14.296875 11.867188 14.429688 11.066406 14.695312 C 10.78125 14.789062 10.46875 14.632812 10.375 14.34375 C 10.28125 14.054688 10.4375 13.746094 10.726562 13.648438 C 11.632812 13.351562 12.585938 13.199219 13.550781 13.199219 C 16.449219 13.199219 18.066406 14.183594 20.199219 16.125 C 21.261719 17.058594 22.625 17.574219 24.039062 17.574219 C 26.996094 17.574219 29.441406 15.351562 29.808594 12.492188 C 29.675781 12.53125 29.527344 12.519531 29.394531 12.449219 C 29.125 12.308594 29.023438 11.976562 29.164062 11.707031 L 29.832031 10.449219 C 29.921875 10.273438 30.101562 10.164062 30.296875 10.15625 C 30.492188 10.148438 30.675781 10.246094 30.78125 10.414062 L 31.539062 11.621094 C 31.699219 11.875 31.621094 12.214844 31.367188 12.375 C 31.226562 12.464844 31.0625 12.480469 30.917969 12.4375 C 30.570312 15.933594 27.617188 18.671875 24.039062 18.671875 Z M 29.0625 7.804688 C 28.84375 8.011719 28.496094 8 28.289062 7.777344 C 27.175781 6.585938 25.667969 5.929688 24.039062 5.929688 C 21.40625 5.929688 19.191406 7.652344 18.46875 10.054688 C 18.597656 10.042969 18.730469 10.078125 18.84375 10.160156 C 19.085938 10.339844 19.140625 10.683594 18.960938 10.929688 L 18.117188 12.078125 C 18.011719 12.21875 17.847656 12.300781 17.671875 12.300781 C 17.652344 12.300781 17.632812 12.300781 17.613281 12.296875 C 17.417969 12.277344 17.25 12.152344 17.171875 11.972656 L 16.597656 10.667969 C 16.476562 10.386719 16.605469 10.066406 16.882812 9.941406 C 17.039062 9.871094 17.214844 9.886719 17.359375 9.960938 C 17.675781 8.761719 18.316406 7.664062 19.230469 6.78125 C 20.523438 5.523438 22.234375 4.832031 24.039062 4.832031 C 25.945312 4.832031 27.789062 5.632812 29.089844 7.027344 C 29.296875 7.25 29.285156 7.597656 29.0625 7.804688 Z M 35.070312 34.476562 C 34.839844 32.296875 33.398438 30.523438 31.457031 29.789062 C 32.144531 29.214844 32.578125 28.351562 32.578125 27.386719 C 32.578125 25.660156 31.175781 24.253906 29.449219 24.253906 C 27.722656 24.253906 26.320312 25.660156 26.320312 27.386719 C 26.320312 28.351562 26.757812 29.214844 27.441406 29.789062 C 25.5 30.523438 24.0625 32.296875 23.828125 34.476562 C 23.8125 34.628906 23.859375 34.785156 23.964844 34.898438 C 24.070312 35.015625 24.21875 35.082031 24.375 35.082031 L 34.527344 35.082031 C 34.679688 35.082031 34.828125 35.015625 34.933594 34.898438 C 35.039062 34.785156 35.085938 34.628906 35.070312 34.476562 Z M 27.417969 27.386719 C 27.417969 26.265625 28.328125 25.351562 29.449219 25.351562 C 30.570312 25.351562 31.484375 26.265625 31.484375 27.386719 C 31.484375 28.511719 30.570312 29.421875 29.449219 29.421875 C 28.328125 29.421875 27.417969 28.511719 27.417969 27.386719 Z M 25.023438 33.984375 C 25.519531 31.972656 27.324219 30.523438 29.449219 30.519531 C 31.574219 30.523438 33.382812 31.972656 33.875 33.984375 Z M 12.171875 11.679688 C 12.277344 11.566406 12.324219 11.410156 12.308594 11.253906 C 12.074219 9.078125 10.636719 7.304688 8.695312 6.570312 C 9.378906 5.996094 9.816406 5.132812 9.816406 4.167969 C 9.816406 2.441406 8.414062 1.035156 6.6875 1.035156 C 4.960938 1.035156 3.558594 2.441406 3.558594 4.167969 C 3.558594 5.132812 3.996094 5.996094 4.679688 6.570312 C 2.738281 7.304688 1.296875 9.078125 1.066406 11.253906 C 1.050781 11.410156 1.097656 11.566406 1.203125 11.679688 C 1.308594 11.796875 1.457031 11.863281 1.609375 11.863281 L 11.761719 11.863281 C 11.917969 11.863281 12.066406 11.796875 12.171875 11.679688 Z M 4.65625 4.167969 C 4.65625 3.046875 5.566406 2.132812 6.6875 2.132812 C 7.808594 2.132812 8.71875 3.046875 8.71875 4.167969 C 8.71875 5.292969 7.808594 6.203125 6.6875 6.203125 C 5.566406 6.203125 4.65625 5.292969 4.65625 4.167969 Z M 2.261719 10.765625 C 2.753906 8.753906 4.5625 7.304688 6.6875 7.300781 C 8.8125 7.304688 10.617188 8.753906 11.113281 10.765625 Z M 23.160156 32.601562 C 23.160156 32.902344 22.917969 33.148438 22.613281 33.148438 L 5.597656 33.148438 C 4.160156 33.148438 2.992188 31.980469 2.992188 30.542969 L 2.992188 16.089844 L 2.96875 16.132812 C 2.816406 16.394531 2.480469 16.484375 2.21875 16.335938 C 1.957031 16.183594 1.867188 15.847656 2.019531 15.585938 L 3.066406 13.765625 C 3.164062 13.597656 3.347656 13.492188 3.542969 13.492188 C 3.738281 13.492188 3.917969 13.597656 4.015625 13.765625 L 5.066406 15.585938 C 5.214844 15.847656 5.125 16.183594 4.863281 16.335938 C 4.601562 16.484375 4.265625 16.394531 4.113281 16.132812 L 4.089844 16.089844 L 4.089844 30.542969 C 4.089844 31.375 4.765625 32.050781 5.597656 32.050781 L 22.613281 32.050781 C 22.917969 32.050781 23.160156 32.296875 23.160156 32.601562 Z M 12.832031 3.519531 C 12.832031 3.214844 13.074219 2.96875 13.378906 2.96875 L 30.539062 2.96875 C 31.976562 2.96875 33.144531 4.140625 33.144531 5.578125 L 33.144531 21.394531 L 33.167969 21.347656 C 33.320312 21.085938 33.65625 20.996094 33.917969 21.148438 C 34.179688 21.300781 34.269531 21.636719 34.117188 21.898438 L 33.070312 23.714844 C 32.972656 23.886719 32.792969 23.992188 32.59375 23.992188 C 32.398438 23.992188 32.21875 23.886719 32.121094 23.714844 L 31.070312 21.898438 C 30.921875 21.636719 31.011719 21.300781 31.273438 21.148438 C 31.535156 20.996094 31.871094 21.085938 32.023438 21.347656 L 32.046875 21.394531 L 32.046875 5.578125 C 32.046875 4.746094 31.371094 4.066406 30.539062 4.066406 L 13.378906 4.066406 C 13.074219 4.066406 12.832031 3.820312 12.832031 3.519531 Z M 12.832031 3.519531 " fill-opacity="1" fill-rule="nonzero"/></g></svg>