<svg xmlns="http://www.w3.org/2000/svg" xmlns:xlink="http://www.w3.org/1999/xlink" width="50" zoomAndPan="magnify" viewBox="0 0 37.5 37.499999" height="50" preserveAspectRatio="xMidYMid meet" version="1.0"><defs><clipPath id="d410b61895"><path d="M 1.035156 0.738281 L 36.5625 0.738281 L 36.5625 32 L 1.035156 32 Z M 1.035156 0.738281 " clip-rule="nonzero"/></clipPath></defs><g clip-path="url(#d410b61895)"><path fill="#ffffff" d="M 33.695312 1.003906 C 33.503906 0.859375 33.300781 0.839844 33.085938 0.949219 C 32.871094 1.054688 32.761719 1.230469 32.761719 1.46875 L 32.761719 2.636719 L 22.847656 2.636719 C 21.671875 2.636719 20.566406 2.917969 19.53125 3.472656 C 18.496094 4.03125 17.65625 4.804688 17.011719 5.785156 C 15.390625 4.851562 13.644531 4.386719 11.773438 4.386719 L 11.765625 4.386719 C 11.367188 4.386719 10.96875 4.40625 10.574219 4.449219 C 9.988281 4.515625 9.410156 4.628906 8.84375 4.789062 C 8.277344 4.953125 7.726562 5.160156 7.195312 5.414062 C 6.664062 5.671875 6.160156 5.96875 5.679688 6.308594 C 5.195312 6.648438 4.746094 7.027344 4.332031 7.441406 C 3.914062 7.859375 3.535156 8.308594 3.195312 8.789062 C 2.851562 9.269531 2.554688 9.773438 2.296875 10.304688 C 2.042969 10.835938 1.832031 11.386719 1.671875 11.953125 C 1.507812 12.519531 1.394531 13.09375 1.328125 13.679688 C 1.175781 15.085938 1.304688 16.460938 1.722656 17.8125 C 2.140625 19.160156 2.808594 20.375 3.726562 21.449219 C 4.574219 22.507812 5.234375 23.671875 5.710938 24.941406 C 6.191406 26.210938 6.457031 27.523438 6.519531 28.878906 L 6.519531 30.628906 C 6.519531 30.789062 6.574219 30.929688 6.6875 31.042969 C 6.804688 31.15625 6.941406 31.210938 7.101562 31.210938 L 16.433594 31.210938 C 16.59375 31.210938 16.730469 31.15625 16.84375 31.042969 C 16.960938 30.929688 17.015625 30.789062 17.015625 30.628906 L 17.015625 28.878906 C 17.015625 26.597656 18.269531 23.304688 19.875 21.378906 C 21.039062 19.980469 21.78125 18.382812 22.101562 16.589844 C 22.589844 16.644531 23.078125 16.644531 23.566406 16.597656 C 24.054688 16.546875 24.53125 16.445312 25 16.296875 C 25.46875 16.144531 25.914062 15.949219 26.339844 15.703125 C 26.765625 15.457031 27.164062 15.171875 27.527344 14.84375 C 27.894531 14.515625 28.222656 14.152344 28.511719 13.753906 C 28.796875 13.359375 29.042969 12.933594 29.242188 12.484375 C 29.441406 12.039062 29.59375 11.574219 29.695312 11.09375 C 29.796875 10.609375 29.847656 10.125 29.847656 9.632812 C 29.847656 8.25 29.472656 6.976562 28.714844 5.816406 L 27.738281 6.453125 C 28.25 7.246094 28.550781 8.113281 28.636719 9.050781 L 26.929688 9.050781 L 26.929688 10.21875 L 28.652344 10.21875 C 28.582031 10.886719 28.402344 11.523438 28.117188 12.132812 C 27.828125 12.738281 27.445312 13.28125 26.96875 13.753906 C 26.496094 14.230469 25.953125 14.613281 25.34375 14.902344 C 24.738281 15.191406 24.101562 15.367188 23.429688 15.4375 L 23.429688 13.714844 L 22.265625 13.714844 L 22.265625 15.4375 C 21.597656 15.367188 20.957031 15.191406 20.351562 14.902344 C 19.742188 14.613281 19.203125 14.230469 18.726562 13.753906 C 18.25 13.28125 17.867188 12.738281 17.582031 12.132812 C 17.292969 11.523438 17.113281 10.886719 17.046875 10.21875 L 18.765625 10.21875 L 18.765625 9.050781 L 17.046875 9.050781 C 17.113281 8.382812 17.292969 7.742188 17.582031 7.136719 C 17.867188 6.527344 18.25 5.988281 18.726562 5.511719 C 19.203125 5.035156 19.742188 4.65625 20.351562 4.367188 C 20.957031 4.078125 21.597656 3.898438 22.265625 3.832031 L 22.265625 5.550781 L 23.429688 5.550781 L 23.429688 3.800781 L 32.761719 3.800781 L 32.761719 4.96875 C 32.761719 5.207031 32.871094 5.382812 33.085938 5.488281 C 33.300781 5.597656 33.503906 5.578125 33.695312 5.433594 L 36.027344 3.683594 C 36.101562 3.628906 36.160156 3.5625 36.199219 3.480469 C 36.242188 3.398438 36.261719 3.308594 36.261719 3.21875 C 36.261719 3.128906 36.242188 3.039062 36.199219 2.957031 C 36.160156 2.875 36.101562 2.808594 36.027344 2.753906 Z M 15.851562 30.046875 L 7.683594 30.046875 L 7.683594 28.878906 L 15.851562 28.878906 Z M 20.953125 16.367188 C 20.675781 17.964844 20.015625 19.386719 18.976562 20.632812 C 17.339844 22.726562 16.328125 25.085938 15.9375 27.714844 L 14.101562 27.714844 L 14.101562 18.382812 L 14.683594 18.382812 L 14.683594 18.964844 C 14.683594 19.125 14.738281 19.265625 14.855469 19.378906 C 14.96875 19.492188 15.105469 19.546875 15.265625 19.546875 L 17.597656 19.546875 C 17.761719 19.546875 17.898438 19.492188 18.011719 19.378906 C 18.125 19.265625 18.183594 19.125 18.183594 18.964844 L 18.183594 16.632812 C 18.183594 16.472656 18.125 16.332031 18.011719 16.21875 C 17.898438 16.105469 17.761719 16.050781 17.597656 16.050781 L 15.265625 16.050781 C 15.105469 16.050781 14.96875 16.105469 14.855469 16.21875 C 14.738281 16.332031 14.683594 16.472656 14.683594 16.632812 L 14.683594 17.214844 L 13.515625 17.214844 C 13.355469 17.214844 13.21875 17.273438 13.105469 17.386719 C 12.992188 17.5 12.933594 17.636719 12.933594 17.800781 L 12.933594 27.714844 L 12.351562 27.714844 L 12.351562 13.734375 C 12.351562 13.574219 12.292969 13.433594 12.179688 13.320312 C 12.066406 13.207031 11.929688 13.152344 11.765625 13.152344 L 10.601562 13.152344 L 10.601562 12.566406 C 10.601562 12.40625 10.542969 12.269531 10.429688 12.15625 C 10.316406 12.042969 10.179688 11.984375 10.015625 11.984375 L 7.683594 11.984375 C 7.523438 11.984375 7.386719 12.042969 7.273438 12.15625 C 7.160156 12.269531 7.101562 12.40625 7.101562 12.566406 L 7.101562 14.898438 C 7.101562 15.0625 7.160156 15.199219 7.273438 15.3125 C 7.386719 15.425781 7.523438 15.484375 7.683594 15.484375 L 10.015625 15.484375 C 10.179688 15.484375 10.316406 15.425781 10.429688 15.3125 C 10.542969 15.199219 10.601562 15.0625 10.601562 14.898438 L 10.601562 14.316406 L 11.183594 14.316406 L 11.183594 27.714844 L 10.601562 27.714844 L 10.601562 18.984375 C 10.601562 18.820312 10.542969 18.683594 10.429688 18.570312 C 10.316406 18.457031 10.179688 18.398438 10.015625 18.398438 L 8.851562 18.398438 L 8.851562 17.816406 C 8.851562 17.65625 8.792969 17.519531 8.679688 17.402344 C 8.566406 17.289062 8.429688 17.234375 8.269531 17.234375 L 5.933594 17.234375 C 5.773438 17.234375 5.636719 17.289062 5.523438 17.402344 C 5.410156 17.519531 5.351562 17.65625 5.351562 17.816406 L 5.351562 20.148438 C 5.351562 20.308594 5.410156 20.449219 5.523438 20.5625 C 5.636719 20.675781 5.773438 20.734375 5.933594 20.734375 L 8.269531 20.734375 C 8.429688 20.734375 8.566406 20.675781 8.679688 20.5625 C 8.792969 20.449219 8.851562 20.308594 8.851562 20.148438 L 8.851562 19.566406 L 9.433594 19.566406 L 9.433594 27.714844 L 7.601562 27.714844 C 7.25 25.097656 6.25 22.757812 4.613281 20.691406 C 3.796875 19.738281 3.207031 18.664062 2.835938 17.464844 C 2.464844 16.269531 2.347656 15.046875 2.484375 13.800781 C 2.542969 13.28125 2.644531 12.769531 2.789062 12.265625 C 2.933594 11.761719 3.121094 11.277344 3.347656 10.804688 C 3.574219 10.332031 3.839844 9.882812 4.144531 9.457031 C 4.449219 9.03125 4.785156 8.632812 5.15625 8.265625 C 5.527344 7.894531 5.925781 7.558594 6.351562 7.257812 C 6.777344 6.953125 7.230469 6.691406 7.699219 6.464844 C 8.171875 6.238281 8.660156 6.054688 9.164062 5.910156 C 9.667969 5.765625 10.179688 5.667969 10.699219 5.609375 C 11.054688 5.570312 11.4375 5.558594 11.773438 5.550781 C 13.445312 5.550781 15.003906 5.96875 16.453125 6.804688 C 16.25 7.261719 16.09375 7.738281 15.996094 8.226562 C 15.894531 8.71875 15.84375 9.214844 15.851562 9.714844 C 15.855469 10.21875 15.914062 10.710938 16.027344 11.203125 C 16.136719 11.691406 16.300781 12.160156 16.515625 12.613281 C 16.730469 13.066406 16.988281 13.492188 17.292969 13.890625 C 17.597656 14.289062 17.941406 14.648438 18.324219 14.972656 C 18.710938 15.296875 19.121094 15.574219 19.566406 15.808594 C 20.007812 16.042969 20.472656 16.230469 20.953125 16.363281 Z M 15.851562 18.382812 L 15.851562 17.214844 L 17.015625 17.214844 L 17.015625 18.382812 Z M 9.433594 13.152344 L 9.433594 14.316406 L 8.269531 14.316406 L 8.269531 13.152344 Z M 7.683594 18.398438 L 7.683594 19.566406 L 6.519531 19.566406 L 6.519531 18.398438 Z M 33.929688 3.800781 L 33.929688 2.636719 L 34.707031 3.21875 Z M 33.929688 3.800781 " fill-opacity="1" fill-rule="nonzero"/></g><path fill="#ffffff" d="M 7.683594 32.378906 L 15.851562 32.378906 L 15.851562 33.546875 L 7.683594 33.546875 Z M 7.683594 32.378906 " fill-opacity="1" fill-rule="nonzero"/><path fill="#ffffff" d="M 8.851562 34.710938 L 14.683594 34.710938 L 14.683594 35.878906 L 8.851562 35.878906 Z M 8.851562 34.710938 " fill-opacity="1" fill-rule="nonzero"/><path fill="#ffffff" d="M 21.511719 8.054688 L 20.6875 8.878906 L 22.4375 10.628906 C 22.550781 10.742188 22.6875 10.800781 22.847656 10.800781 C 23.007812 10.800781 23.148438 10.742188 23.261719 10.628906 L 26.175781 7.714844 L 25.351562 6.890625 L 22.847656 9.390625 Z M 21.511719 8.054688 " fill-opacity="1" fill-rule="nonzero"/></svg>