<svg xmlns="http://www.w3.org/2000/svg" xmlns:xlink="http://www.w3.org/1999/xlink" width="50" zoomAndPan="magnify" viewBox="0 0 37.5 37.499999" height="50" preserveAspectRatio="xMidYMid meet" version="1.0"><defs><clipPath id="07d877f4e1"><path d="M 0.371094 0 L 36.636719 0 L 36.636719 36.265625 L 0.371094 36.265625 Z M 0.371094 0 " clip-rule="nonzero"/></clipPath></defs><g clip-path="url(#07d877f4e1)"><path fill="#ffffff" d="M 29.382812 26.59375 C 26.050781 26.59375 23.339844 23.886719 23.339844 20.550781 L 35.425781 20.550781 C 35.425781 23.886719 32.71875 26.59375 29.382812 26.59375 Z M 31.882812 10.234375 L 34.617188 19.34375 L 24.152344 19.34375 L 27.191406 9.199219 C 28.71875 9.773438 30.300781 10.121094 31.882812 10.234375 Z M 21.527344 6.042969 L 15.480469 6.042969 C 14.210938 6.042969 12.71875 6.46875 11.171875 7.273438 C 8.914062 8.445312 6.441406 9.066406 4.027344 9.066406 L 2.183594 9.066406 C 1.851562 9.066406 1.578125 8.796875 1.578125 8.460938 C 1.578125 8.128906 1.851562 7.859375 2.183594 7.859375 L 4.027344 7.859375 C 6.25 7.859375 8.527344 7.285156 10.613281 6.199219 C 12.355469 5.292969 13.996094 4.835938 15.480469 4.835938 L 21.527344 4.835938 C 23.011719 4.835938 24.648438 5.296875 26.390625 6.199219 C 28.480469 7.285156 30.757812 7.859375 32.980469 7.859375 L 34.824219 7.859375 C 35.15625 7.859375 35.425781 8.128906 35.425781 8.460938 C 35.425781 8.796875 35.15625 9.066406 34.824219 9.066406 L 32.980469 9.066406 C 30.566406 9.066406 28.09375 8.445312 25.835938 7.273438 C 24.289062 6.46875 22.796875 6.042969 21.527344 6.042969 Z M 19.109375 20.550781 L 17.898438 20.550781 L 17.898438 7.253906 L 19.109375 7.253906 Z M 17.292969 30.222656 L 17.292969 21.761719 L 19.710938 21.761719 L 19.710938 30.222656 Z M 25.152344 32.035156 L 25.152344 32.640625 L 11.855469 32.640625 L 11.855469 32.035156 C 11.855469 31.703125 12.125 31.429688 12.457031 31.429688 L 24.546875 31.429688 C 24.878906 31.429688 25.152344 31.703125 25.152344 32.035156 Z M 10.644531 35.058594 L 10.644531 34.453125 C 10.644531 34.121094 10.917969 33.847656 11.25 33.847656 L 25.757812 33.847656 C 26.089844 33.847656 26.359375 34.121094 26.359375 34.453125 L 26.363281 35.058594 Z M 12.855469 19.34375 L 2.390625 19.34375 L 5.125 10.234375 C 6.703125 10.121094 8.289062 9.769531 9.8125 9.199219 Z M 7.625 26.59375 C 4.292969 26.59375 1.578125 23.886719 1.578125 20.550781 L 13.667969 20.550781 C 13.667969 23.886719 10.957031 26.59375 7.625 26.59375 Z M 17.292969 2.417969 C 17.292969 1.75 17.835938 1.207031 18.503906 1.207031 C 19.167969 1.207031 19.710938 1.75 19.710938 2.417969 C 19.710938 3.082031 19.167969 3.625 18.503906 3.625 C 17.835938 3.625 17.292969 3.082031 17.292969 2.417969 Z M 36.636719 8.460938 C 36.636719 7.460938 35.824219 6.648438 34.824219 6.648438 L 32.980469 6.648438 C 30.949219 6.648438 28.867188 6.121094 26.949219 5.125 C 25.03125 4.132812 23.207031 3.625 21.527344 3.625 L 20.585938 3.625 C 20.792969 3.269531 20.921875 2.859375 20.921875 2.417969 C 20.921875 1.082031 19.835938 0 18.503906 0 C 17.167969 0 16.085938 1.082031 16.085938 2.417969 C 16.085938 2.859375 16.214844 3.269531 16.421875 3.625 L 15.480469 3.625 C 13.800781 3.625 11.976562 4.132812 10.058594 5.125 C 8.140625 6.121094 6.054688 6.648438 4.027344 6.648438 L 2.183594 6.648438 C 1.183594 6.648438 0.371094 7.460938 0.371094 8.460938 C 0.371094 9.464844 1.183594 10.277344 2.183594 10.277344 L 3.851562 10.277344 L 1.101562 19.441406 C 0.671875 19.628906 0.371094 20.054688 0.371094 20.550781 C 0.371094 24.550781 3.625 27.804688 7.625 27.804688 C 11.625 27.804688 14.875 24.550781 14.875 20.550781 C 14.875 20.054688 14.578125 19.628906 14.148438 19.441406 L 10.9375 8.730469 C 11.203125 8.605469 11.46875 8.480469 11.730469 8.34375 C 13.105469 7.632812 14.402344 7.253906 15.480469 7.253906 L 16.691406 7.253906 L 16.691406 20.71875 C 16.332031 20.929688 16.085938 21.316406 16.085938 21.761719 L 16.085938 30.222656 L 12.457031 30.222656 C 11.457031 30.222656 10.644531 31.035156 10.644531 32.035156 L 10.644531 32.75 C 9.945312 33 9.4375 33.667969 9.4375 34.453125 L 9.4375 35.058594 C 9.4375 35.722656 9.980469 36.265625 10.644531 36.265625 L 26.359375 36.265625 C 27.027344 36.265625 27.570312 35.722656 27.570312 35.058594 L 27.570312 34.453125 C 27.570312 33.667969 27.0625 33 26.359375 32.75 L 26.359375 32.035156 C 26.359375 31.035156 25.546875 30.222656 24.546875 30.222656 L 20.921875 30.222656 L 20.921875 21.761719 C 20.921875 21.316406 20.675781 20.929688 20.316406 20.71875 L 20.316406 7.253906 L 21.527344 7.253906 C 22.605469 7.253906 23.902344 7.632812 25.277344 8.347656 C 25.539062 8.480469 25.804688 8.605469 26.070312 8.730469 L 22.859375 19.441406 C 22.429688 19.628906 22.128906 20.054688 22.128906 20.550781 C 22.128906 24.550781 25.382812 27.804688 29.382812 27.804688 C 33.382812 27.804688 36.636719 24.550781 36.636719 20.550781 C 36.636719 20.054688 36.335938 19.628906 35.90625 19.441406 L 33.152344 10.277344 L 34.824219 10.277344 C 35.824219 10.277344 36.636719 9.464844 36.636719 8.460938 " fill-opacity="1" fill-rule="nonzero"/></g><path fill="#ffffff" d="M 6.769531 15.714844 L 5.382812 17.101562 C 5.148438 17.335938 5.148438 17.71875 5.382812 17.957031 C 5.5 18.074219 5.652344 18.132812 5.808594 18.132812 C 5.964844 18.132812 6.121094 18.074219 6.238281 17.957031 L 7.625 16.570312 L 9.007812 17.957031 C 9.128906 18.074219 9.28125 18.132812 9.4375 18.132812 C 9.59375 18.132812 9.746094 18.074219 9.863281 17.957031 C 10.101562 17.71875 10.101562 17.335938 9.863281 17.101562 L 8.476562 15.714844 L 9.863281 14.328125 C 10.101562 14.09375 10.101562 13.710938 9.863281 13.476562 C 9.628906 13.238281 9.246094 13.238281 9.007812 13.476562 L 7.625 14.859375 L 6.238281 13.476562 C 6 13.238281 5.617188 13.238281 5.382812 13.476562 C 5.148438 13.710938 5.148438 14.09375 5.382812 14.328125 L 6.769531 15.714844 " fill-opacity="1" fill-rule="nonzero"/><path fill="#ffffff" d="M 27.140625 16.746094 L 28.351562 17.957031 C 28.464844 18.070312 28.617188 18.132812 28.777344 18.132812 C 28.796875 18.132812 28.820312 18.132812 28.835938 18.132812 C 29.019531 18.113281 29.179688 18.015625 29.28125 17.863281 L 31.699219 14.238281 C 31.886719 13.957031 31.808594 13.582031 31.53125 13.398438 C 31.253906 13.214844 30.878906 13.289062 30.695312 13.566406 L 28.683594 16.578125 L 27.996094 15.890625 C 27.761719 15.65625 27.378906 15.65625 27.140625 15.890625 C 26.90625 16.128906 26.90625 16.511719 27.140625 16.746094 " fill-opacity="1" fill-rule="nonzero"/></svg>