<svg xmlns="http://www.w3.org/2000/svg" xmlns:xlink="http://www.w3.org/1999/xlink" width="50" zoomAndPan="magnify" viewBox="0 0 37.5 37.499999" height="50" preserveAspectRatio="xMidYMid meet" version="1.0"><defs><clipPath id="dc37a83b7c"><path d="M 0.40625 0.40625 L 19 0.40625 L 19 19 L 0.40625 19 Z M 0.40625 0.40625 " clip-rule="nonzero"/></clipPath><clipPath id="dec16954c4"><path d="M 0.40625 0.40625 L 36.671875 0.40625 L 36.671875 28 L 0.40625 28 Z M 0.40625 0.40625 " clip-rule="nonzero"/></clipPath><clipPath id="979b414195"><path d="M 4 30 L 10 30 L 10 36.671875 L 4 36.671875 Z M 4 30 " clip-rule="nonzero"/></clipPath><clipPath id="b2f3a86e3a"><path d="M 11 28 L 17 28 L 17 36.671875 L 11 36.671875 Z M 11 28 " clip-rule="nonzero"/></clipPath><clipPath id="787447dce4"><path d="M 17 25 L 23 25 L 23 36.671875 L 17 36.671875 Z M 17 25 " clip-rule="nonzero"/></clipPath><clipPath id="5a9e8ee393"><path d="M 24 21 L 30 21 L 30 36.671875 L 24 36.671875 Z M 24 21 " clip-rule="nonzero"/></clipPath><clipPath id="bd91d6af8c"><path d="M 31 16 L 36.671875 16 L 36.671875 36.671875 L 31 36.671875 Z M 31 16 " clip-rule="nonzero"/></clipPath></defs><g clip-path="url(#dc37a83b7c)"><path fill="#000000" d="M 1.027344 11.371094 L 2.53125 11.476562 C 2.691406 12.054688 2.921875 12.613281 3.222656 13.140625 L 2.234375 14.28125 C 2.027344 14.519531 2.039062 14.878906 2.261719 15.101562 L 3.964844 16.804688 C 4.191406 17.03125 4.546875 17.042969 4.785156 16.835938 L 5.929688 15.84375 C 6.457031 16.144531 7.011719 16.378906 7.589844 16.535156 L 7.699219 18.039062 C 7.71875 18.355469 7.984375 18.601562 8.300781 18.601562 L 10.707031 18.601562 C 11.023438 18.601562 11.285156 18.355469 11.308594 18.039062 L 11.417969 16.535156 C 11.996094 16.378906 12.550781 16.144531 13.078125 15.84375 L 14.222656 16.835938 C 14.460938 17.042969 14.816406 17.03125 15.042969 16.804688 L 16.746094 15.101562 C 16.96875 14.878906 16.980469 14.519531 16.773438 14.28125 L 15.785156 13.140625 C 16.085938 12.613281 16.316406 12.054688 16.476562 11.476562 L 17.980469 11.371094 C 18.296875 11.347656 18.539062 11.085938 18.539062 10.769531 L 18.539062 8.359375 C 18.539062 8.042969 18.296875 7.78125 17.980469 7.757812 L 16.476562 7.652344 C 16.316406 7.070312 16.085938 6.515625 15.785156 5.988281 L 16.773438 4.847656 C 16.980469 4.609375 16.96875 4.25 16.746094 4.027344 L 15.042969 2.324219 C 14.816406 2.097656 14.460938 2.085938 14.222656 2.292969 L 13.078125 3.28125 C 12.550781 2.980469 11.996094 2.75 11.417969 2.589844 L 11.308594 1.085938 C 11.285156 0.773438 11.023438 0.527344 10.707031 0.527344 L 8.300781 0.527344 C 7.984375 0.527344 7.71875 0.773438 7.699219 1.085938 L 7.589844 2.589844 C 7.011719 2.75 6.453125 2.980469 5.929688 3.28125 L 4.785156 2.292969 C 4.535156 2.074219 4.152344 2.101562 3.9375 2.355469 C 3.71875 2.605469 3.746094 2.984375 3.996094 3.203125 L 5.472656 4.484375 C 5.675781 4.660156 5.972656 4.679688 6.199219 4.53125 C 6.839844 4.109375 7.542969 3.816406 8.28125 3.664062 C 8.546875 3.609375 8.742188 3.386719 8.761719 3.117188 L 8.859375 1.734375 L 10.148438 1.734375 L 10.246094 3.117188 C 10.265625 3.386719 10.460938 3.609375 10.726562 3.664062 C 11.464844 3.816406 12.167969 4.109375 12.808594 4.53125 C 13.035156 4.679688 13.328125 4.660156 13.535156 4.480469 L 14.585938 3.570312 L 15.496094 4.480469 L 14.585938 5.53125 C 14.410156 5.738281 14.390625 6.035156 14.539062 6.257812 C 14.960938 6.902344 15.25 7.601562 15.402344 8.339844 C 15.457031 8.605469 15.683594 8.800781 15.949219 8.820312 L 17.335938 8.921875 L 17.335938 10.207031 L 15.949219 10.308594 C 15.683594 10.324219 15.457031 10.523438 15.402344 10.785156 C 15.25 11.527344 14.960938 12.226562 14.539062 12.867188 C 14.390625 13.09375 14.410156 13.390625 14.585938 13.59375 L 15.496094 14.648438 L 14.585938 15.558594 L 13.535156 14.644531 C 13.332031 14.46875 13.035156 14.449219 12.808594 14.597656 C 12.167969 15.019531 11.464844 15.3125 10.726562 15.464844 C 10.460938 15.519531 10.265625 15.742188 10.246094 16.011719 L 10.148438 17.394531 L 8.859375 17.394531 L 8.761719 16.011719 C 8.742188 15.742188 8.546875 15.519531 8.28125 15.464844 C 7.542969 15.3125 6.839844 15.019531 6.199219 14.597656 C 5.972656 14.449219 5.675781 14.46875 5.472656 14.644531 L 4.421875 15.558594 L 3.511719 14.648438 L 4.421875 13.59375 C 4.597656 13.390625 4.617188 13.09375 4.46875 12.867188 C 4.046875 12.226562 3.757812 11.527344 3.605469 10.785156 C 3.550781 10.523438 3.324219 10.324219 3.054688 10.308594 L 1.671875 10.207031 L 1.671875 8.921875 L 3.054688 8.820312 C 3.324219 8.800781 3.550781 8.605469 3.605469 8.339844 C 3.757812 7.601562 4.046875 6.902344 4.46875 6.257812 C 4.617188 6.035156 4.597656 5.738281 4.421875 5.53125 L 3.144531 4.058594 C 2.925781 3.804688 2.546875 3.777344 2.292969 3.996094 C 2.042969 4.214844 2.015625 4.59375 2.234375 4.847656 L 3.222656 5.988281 C 2.921875 6.515625 2.691406 7.070312 2.53125 7.648438 L 1.027344 7.757812 C 0.710938 7.78125 0.46875 8.042969 0.46875 8.359375 L 0.46875 10.769531 C 0.46875 11.085938 0.710938 11.347656 1.027344 11.371094 Z M 1.027344 11.371094 " fill-opacity="1" fill-rule="nonzero"/></g><path fill="#000000" d="M 9.503906 14.382812 C 12.160156 14.382812 14.324219 12.222656 14.324219 9.5625 C 14.324219 6.90625 12.160156 4.746094 9.503906 4.746094 C 6.847656 4.746094 4.683594 6.90625 4.683594 9.5625 C 4.683594 12.222656 6.847656 14.382812 9.503906 14.382812 Z M 8.902344 6.003906 L 8.902344 6.550781 C 8.902344 6.882812 9.171875 7.15625 9.503906 7.15625 C 9.835938 7.15625 10.105469 6.882812 10.105469 6.550781 L 10.105469 6.003906 C 11.617188 6.257812 12.808594 7.453125 13.0625 8.960938 L 12.515625 8.960938 C 12.183594 8.960938 11.914062 9.230469 11.914062 9.5625 C 11.914062 9.898438 12.183594 10.167969 12.515625 10.167969 L 13.0625 10.167969 C 12.808594 11.675781 11.617188 12.867188 10.105469 13.125 L 10.105469 12.578125 C 10.105469 12.242188 9.835938 11.972656 9.503906 11.972656 C 9.171875 11.972656 8.902344 12.242188 8.902344 12.578125 L 8.902344 13.125 C 7.390625 12.871094 6.199219 11.675781 5.945312 10.167969 L 6.492188 10.167969 C 6.824219 10.167969 7.09375 9.898438 7.09375 9.5625 C 7.09375 9.230469 6.824219 8.960938 6.492188 8.960938 L 5.945312 8.960938 C 6.199219 7.453125 7.390625 6.257812 8.902344 6.003906 Z M 8.902344 6.003906 " fill-opacity="1" fill-rule="nonzero"/><path fill="#000000" d="M 10.28125 11.195312 C 10.398438 11.3125 10.554688 11.371094 10.707031 11.371094 C 10.863281 11.371094 11.015625 11.3125 11.132812 11.195312 C 11.371094 10.960938 11.371094 10.578125 11.132812 10.34375 L 10.105469 9.316406 L 10.105469 8.359375 C 10.105469 8.027344 9.835938 7.757812 9.503906 7.757812 C 9.171875 7.757812 8.902344 8.027344 8.902344 8.359375 L 8.902344 9.5625 C 8.902344 9.722656 8.964844 9.878906 9.078125 9.988281 Z M 10.28125 11.195312 " fill-opacity="1" fill-rule="nonzero"/><g clip-path="url(#dec16954c4)"><path fill="#000000" d="M 35.773438 0.953125 C 35.246094 0.554688 34.554688 0.429688 33.925781 0.609375 L 25.492188 3.019531 C 24.375 3.335938 23.722656 4.507812 24.042969 5.625 C 24.363281 6.742188 25.535156 7.390625 26.648438 7.074219 L 29.734375 6.191406 L 27.25 9.8125 C 25.863281 11.835938 24.226562 13.699219 22.394531 15.351562 C 22.144531 15.574219 22.125 15.957031 22.347656 16.203125 C 22.570312 16.449219 22.949219 16.46875 23.199219 16.246094 C 25.105469 14.53125 26.800781 12.597656 28.246094 10.496094 L 31.671875 5.496094 C 31.816406 5.285156 31.8125 5.007812 31.664062 4.800781 C 31.515625 4.597656 31.253906 4.503906 31.011719 4.574219 L 26.320312 5.914062 C 25.839844 6.050781 25.339844 5.773438 25.203125 5.296875 C 25.066406 4.816406 25.34375 4.316406 25.824219 4.175781 L 34.257812 1.769531 C 34.527344 1.691406 34.824219 1.746094 35.046875 1.914062 C 35.273438 2.082031 35.410156 2.355469 35.410156 2.636719 L 35.410156 11.671875 C 35.410156 12.171875 35.003906 12.578125 34.503906 12.578125 C 34.007812 12.578125 33.601562 12.171875 33.601562 11.671875 L 33.601562 7.820312 C 33.601562 7.558594 33.429688 7.324219 33.175781 7.246094 C 32.925781 7.167969 32.652344 7.261719 32.5 7.480469 L 29.734375 11.515625 C 23.597656 20.46875 13.457031 26.042969 2.574219 26.433594 C 2.085938 26.433594 1.691406 26.050781 1.671875 25.5625 C 1.65625 25.0625 2.046875 24.644531 2.542969 24.625 C 9.261719 24.386719 15.925781 21.964844 21.304688 17.8125 C 21.570312 17.609375 21.617188 17.230469 21.414062 16.964844 C 21.210938 16.703125 20.835938 16.652344 20.570312 16.859375 C 15.386719 20.859375 8.96875 23.191406 2.5 23.421875 C 1.9375 23.441406 1.417969 23.679688 1.03125 24.089844 C 0.648438 24.503906 0.449219 25.039062 0.46875 25.601562 C 0.507812 26.742188 1.433594 27.636719 2.574219 27.636719 C 2.582031 27.636719 2.644531 27.636719 2.652344 27.636719 C 13.878906 27.234375 24.375 21.464844 30.726562 12.199219 L 32.394531 9.765625 L 32.394531 11.671875 C 32.394531 12.835938 33.34375 13.78125 34.503906 13.78125 C 35.667969 13.78125 36.613281 12.835938 36.613281 11.671875 L 36.613281 2.636719 C 36.613281 1.976562 36.300781 1.347656 35.773438 0.953125 Z M 35.773438 0.953125 " fill-opacity="1" fill-rule="nonzero"/></g><g clip-path="url(#979b414195)"><path fill="#000000" d="M 8.902344 30.648438 L 5.285156 30.648438 C 4.953125 30.648438 4.683594 30.917969 4.683594 31.25 L 4.683594 36.070312 C 4.683594 36.402344 4.953125 36.671875 5.285156 36.671875 L 8.902344 36.671875 C 9.234375 36.671875 9.503906 36.402344 9.503906 36.070312 L 9.503906 31.25 C 9.503906 30.917969 9.234375 30.648438 8.902344 30.648438 Z M 8.300781 35.46875 L 5.890625 35.46875 L 5.890625 31.855469 L 8.300781 31.855469 Z M 8.300781 35.46875 " fill-opacity="1" fill-rule="nonzero"/></g><g clip-path="url(#b2f3a86e3a)"><path fill="#000000" d="M 15.527344 28.238281 L 11.914062 28.238281 C 11.582031 28.238281 11.3125 28.507812 11.3125 28.84375 L 11.3125 36.070312 C 11.3125 36.402344 11.582031 36.671875 11.914062 36.671875 L 15.527344 36.671875 C 15.859375 36.671875 16.128906 36.402344 16.128906 36.070312 L 16.128906 28.84375 C 16.128906 28.507812 15.859375 28.238281 15.527344 28.238281 Z M 14.925781 35.46875 L 12.515625 35.46875 L 12.515625 29.445312 L 14.925781 29.445312 Z M 14.925781 35.46875 " fill-opacity="1" fill-rule="nonzero"/></g><g clip-path="url(#787447dce4)"><path fill="#000000" d="M 22.15625 25.828125 L 18.539062 25.828125 C 18.207031 25.828125 17.9375 26.101562 17.9375 26.433594 L 17.9375 36.070312 C 17.9375 36.402344 18.207031 36.671875 18.539062 36.671875 L 22.15625 36.671875 C 22.488281 36.671875 22.757812 36.402344 22.757812 36.070312 L 22.757812 33.660156 C 22.757812 33.328125 22.488281 33.058594 22.15625 33.058594 C 21.820312 33.058594 21.550781 33.328125 21.550781 33.660156 L 21.550781 35.46875 L 19.144531 35.46875 L 19.144531 27.035156 L 21.550781 27.035156 L 21.550781 31.25 C 21.550781 31.585938 21.820312 31.855469 22.15625 31.855469 C 22.488281 31.855469 22.757812 31.585938 22.757812 31.25 L 22.757812 26.433594 C 22.757812 26.101562 22.488281 25.828125 22.15625 25.828125 Z M 22.15625 25.828125 " fill-opacity="1" fill-rule="nonzero"/></g><g clip-path="url(#5a9e8ee393)"><path fill="#000000" d="M 28.78125 21.613281 L 25.167969 21.613281 C 24.832031 21.613281 24.566406 21.882812 24.566406 22.214844 L 24.566406 36.070312 C 24.566406 36.402344 24.832031 36.671875 25.167969 36.671875 L 28.78125 36.671875 C 29.113281 36.671875 29.382812 36.402344 29.382812 36.070312 L 29.382812 22.214844 C 29.382812 21.882812 29.113281 21.613281 28.78125 21.613281 Z M 28.179688 35.46875 L 25.769531 35.46875 L 25.769531 22.816406 L 28.179688 22.816406 Z M 28.179688 35.46875 " fill-opacity="1" fill-rule="nonzero"/></g><g clip-path="url(#bd91d6af8c)"><path fill="#000000" d="M 35.410156 16.792969 L 31.792969 16.792969 C 31.460938 16.792969 31.191406 17.0625 31.191406 17.394531 L 31.191406 36.070312 C 31.191406 36.402344 31.460938 36.671875 31.792969 36.671875 L 35.410156 36.671875 C 35.742188 36.671875 36.011719 36.402344 36.011719 36.070312 L 36.011719 25.828125 C 36.011719 25.496094 35.742188 25.226562 35.410156 25.226562 C 35.074219 25.226562 34.804688 25.496094 34.804688 25.828125 L 34.804688 35.46875 L 32.394531 35.46875 L 32.394531 18 L 34.804688 18 L 34.804688 23.421875 C 34.804688 23.753906 35.074219 24.023438 35.410156 24.023438 C 35.742188 24.023438 36.011719 23.753906 36.011719 23.421875 L 36.011719 17.394531 C 36.011719 17.0625 35.742188 16.792969 35.410156 16.792969 Z M 35.410156 16.792969 " fill-opacity="1" fill-rule="nonzero"/></g></svg>