<svg xmlns="http://www.w3.org/2000/svg" xmlns:xlink="http://www.w3.org/1999/xlink" width="50" zoomAndPan="magnify" viewBox="0 0 37.5 37.499999" height="50" preserveAspectRatio="xMidYMid meet" version="1.0"><defs><clipPath id="b69111792f"><path d="M 11 2.339844 L 25 2.339844 L 25 8 L 11 8 Z M 11 2.339844 " clip-rule="nonzero"/></clipPath><clipPath id="03e382dd59"><path d="M 0.53125 16 L 36.800781 16 L 36.800781 34.90625 L 0.53125 34.90625 Z M 0.53125 16 " clip-rule="nonzero"/></clipPath></defs><path fill="#ffbd59" d="M 16.019531 17.640625 L 19.457031 17.640625 C 20.027344 17.636719 20.59375 17.582031 21.15625 17.46875 C 21.714844 17.359375 22.261719 17.191406 22.789062 16.972656 C 23.316406 16.753906 23.820312 16.484375 24.296875 16.167969 C 24.773438 15.847656 25.210938 15.488281 25.617188 15.082031 C 26.019531 14.679688 26.382812 14.238281 26.699219 13.761719 C 27.019531 13.285156 27.285156 12.785156 27.507812 12.257812 C 27.726562 11.726562 27.890625 11.183594 28.003906 10.621094 C 28.113281 10.0625 28.171875 9.496094 28.171875 8.921875 L 28.171875 6.671875 L 25.921875 6.671875 C 25.027344 6.671875 24.15625 6.804688 23.308594 7.074219 C 22.457031 7.34375 21.664062 7.730469 20.933594 8.242188 C 20.203125 8.753906 19.5625 9.359375 19.019531 10.066406 C 18.472656 10.773438 18.046875 11.546875 17.738281 12.382812 C 17.429688 11.546875 17.003906 10.773438 16.457031 10.066406 C 15.914062 9.359375 15.273438 8.753906 14.542969 8.242188 C 13.8125 7.730469 13.019531 7.34375 12.171875 7.074219 C 11.320312 6.804688 10.449219 6.671875 9.554688 6.671875 L 7.304688 6.671875 L 7.304688 8.921875 C 7.304688 9.496094 7.363281 10.0625 7.472656 10.621094 C 7.585938 11.183594 7.75 11.726562 7.96875 12.257812 C 8.191406 12.785156 8.457031 13.285156 8.777344 13.761719 C 9.09375 14.238281 9.457031 14.679688 9.859375 15.082031 C 10.265625 15.488281 10.703125 15.847656 11.179688 16.167969 C 11.65625 16.484375 12.160156 16.753906 12.6875 16.972656 C 13.214844 17.191406 13.761719 17.359375 14.320312 17.46875 C 14.882812 17.582031 15.449219 17.636719 16.019531 17.640625 Z M 25.921875 7.738281 L 27.105469 7.738281 L 27.105469 8.921875 C 27.101562 9.425781 27.054688 9.921875 26.957031 10.414062 C 26.855469 10.90625 26.710938 11.382812 26.519531 11.847656 C 26.328125 12.3125 26.089844 12.753906 25.8125 13.171875 C 25.535156 13.585938 25.214844 13.972656 24.863281 14.328125 C 24.507812 14.683594 24.121094 15 23.703125 15.28125 C 23.285156 15.558594 22.84375 15.792969 22.382812 15.988281 C 21.917969 16.179688 21.441406 16.324219 20.945312 16.421875 C 20.453125 16.523438 19.957031 16.570312 19.457031 16.570312 L 18.273438 16.570312 L 18.273438 15.386719 C 18.273438 14.886719 18.324219 14.390625 18.421875 13.894531 C 18.519531 13.402344 18.664062 12.925781 18.855469 12.460938 C 19.050781 12 19.285156 11.558594 19.5625 11.140625 C 19.84375 10.722656 20.160156 10.335938 20.515625 9.980469 C 20.871094 9.628906 21.257812 9.308594 21.671875 9.03125 C 22.089844 8.75 22.53125 8.515625 22.996094 8.324219 C 23.457031 8.132812 23.9375 7.984375 24.429688 7.886719 C 24.921875 7.789062 25.417969 7.738281 25.921875 7.738281 Z M 8.371094 7.738281 L 9.554688 7.738281 C 10.058594 7.742188 10.554688 7.789062 11.046875 7.886719 C 11.539062 7.988281 12.019531 8.132812 12.480469 8.324219 C 12.945312 8.515625 13.386719 8.753906 13.804688 9.03125 C 14.21875 9.3125 14.605469 9.628906 14.960938 9.984375 C 15.316406 10.335938 15.632812 10.722656 15.914062 11.140625 C 16.191406 11.558594 16.425781 12 16.621094 12.464844 C 16.8125 12.925781 16.957031 13.40625 17.054688 13.898438 C 17.152344 14.390625 17.203125 14.886719 17.203125 15.386719 L 17.203125 16.570312 L 16.019531 16.570312 C 15.519531 16.570312 15.023438 16.523438 14.53125 16.421875 C 14.035156 16.324219 13.558594 16.179688 13.09375 15.988281 C 12.632812 15.792969 12.191406 15.558594 11.773438 15.28125 C 11.355469 15 10.96875 14.683594 10.613281 14.328125 C 10.261719 13.972656 9.941406 13.585938 9.664062 13.171875 C 9.386719 12.753906 9.148438 12.3125 8.957031 11.847656 C 8.765625 11.382812 8.621094 10.90625 8.519531 10.414062 C 8.421875 9.921875 8.375 9.425781 8.371094 8.921875 Z M 8.371094 7.738281 " fill-opacity="1" fill-rule="nonzero"/><g clip-path="url(#b69111792f)"><path fill="#ffbd59" d="M 12.667969 4.867188 C 13.820312 5.34375 14.152344 5.464844 14.726562 5.800781 C 14.5 6.203125 14.304688 6.621094 14.140625 7.054688 L 15.144531 7.429688 C 15.53125 6.390625 16.117188 5.476562 16.902344 4.695312 L 17.738281 3.859375 L 18.574219 4.695312 C 19.359375 5.476562 19.945312 6.390625 20.332031 7.429688 L 21.332031 7.054688 C 21.171875 6.621094 20.976562 6.203125 20.75 5.800781 C 21.316406 5.464844 21.648438 5.347656 22.804688 4.867188 C 23.292969 6.046875 23.289062 6.035156 23.351562 6.195312 L 24.347656 5.816406 C 24.277344 5.636719 24.324219 5.75 23.382812 3.472656 C 21.160156 4.394531 20.855469 4.492188 20.164062 4.90625 C 19.679688 4.253906 19.410156 4.019531 17.738281 2.347656 C 16.070312 4.015625 15.796875 4.253906 15.3125 4.90625 C 14.621094 4.492188 14.3125 4.394531 12.089844 3.472656 C 11.152344 5.742188 11.191406 5.636719 11.125 5.816406 L 12.121094 6.195312 C 12.179688 6.039062 12.167969 6.070312 12.667969 4.867188 Z M 12.667969 4.867188 " fill-opacity="1" fill-rule="nonzero"/></g><g clip-path="url(#03e382dd59)"><path fill="#ffbd59" d="M 34.507812 16.535156 L 31.085938 16.535156 L 24.132812 23.488281 L 22.183594 23.488281 L 22.183594 20.996094 L 20.804688 19.621094 L 8.695312 19.621094 L 0.53125 27.785156 L 7.40625 34.65625 L 9.875 32.1875 L 23.832031 32.1875 L 36.996094 19.019531 Z M 23.386719 31.117188 L 9.875 31.117188 L 7.675781 28.917969 L 6.921875 29.675781 L 8.898438 31.652344 L 7.402344 33.148438 L 2.042969 27.785156 L 9.136719 20.6875 L 20.359375 20.6875 L 21.113281 21.4375 L 21.113281 23.695312 L 20.363281 24.445312 L 13.921875 24.445312 L 13.921875 25.511719 L 20.804688 25.511719 L 21.761719 24.554688 L 24.574219 24.554688 L 31.527344 17.601562 L 34.066406 17.601562 L 35.484375 19.019531 Z M 23.386719 31.117188 " fill-opacity="1" fill-rule="nonzero"/></g><path fill="#ffbd59" d="M 22.691406 20.882812 L 23.445312 21.636719 L 28.015625 17.066406 L 29.824219 17.066406 L 29.824219 16 L 27.574219 16 Z M 22.691406 20.882812 " fill-opacity="1" fill-rule="nonzero"/><path fill="#ffbd59" d="M 23.25 30.25 L 22.496094 29.492188 L 27.613281 24.375 L 28.367188 25.132812 Z M 28.867188 24.625 L 28.113281 23.871094 L 28.867188 23.117188 L 29.625 23.871094 Z M 30.128906 23.367188 L 29.375 22.613281 L 30.132812 21.859375 L 30.886719 22.613281 Z M 30.128906 23.367188 " fill-opacity="1" fill-rule="nonzero"/><path fill="#ffbd59" d="M 22.148438 15.316406 L 21.734375 14.332031 C 22.859375 13.855469 23.75 13.101562 24.40625 12.070312 L 25.308594 12.644531 C 24.53125 13.863281 23.480469 14.753906 22.148438 15.316406 Z M 25.6875 11.96875 L 24.726562 11.496094 C 24.871094 11.203125 24.988281 10.898438 25.082031 10.585938 L 26.105469 10.890625 C 25.996094 11.261719 25.855469 11.621094 25.6875 11.96875 Z M 26.285156 10.136719 L 25.234375 9.957031 C 25.289062 9.632812 25.320312 9.308594 25.324219 8.980469 L 26.390625 8.992188 C 26.386719 9.378906 26.351562 9.761719 26.285156 10.144531 Z M 26.285156 10.136719 " fill-opacity="1" fill-rule="nonzero"/><path fill="#ffbd59" d="M 18.714844 8.1875 C 18.429688 7.355469 17.976562 6.625 17.355469 5.996094 L 18.125 5.25 C 18.855469 5.992188 19.390625 6.855469 19.730469 7.839844 Z M 18.714844 8.1875 " fill-opacity="1" fill-rule="nonzero"/></svg>