<svg xmlns="http://www.w3.org/2000/svg" xmlns:xlink="http://www.w3.org/1999/xlink" width="50" zoomAndPan="magnify" viewBox="0 0 37.5 37.499999" height="50" preserveAspectRatio="xMidYMid meet" version="1.0"><defs><clipPath id="6d58e90cfe"><path d="M 0.667969 1.109375 L 29 1.109375 L 29 36.636719 L 0.667969 36.636719 Z M 0.667969 1.109375 " clip-rule="nonzero"/></clipPath><clipPath id="37b868a850"><path d="M 0.667969 19 L 18 19 L 18 36.636719 L 0.667969 36.636719 Z M 0.667969 19 " clip-rule="nonzero"/></clipPath></defs><g clip-path="url(#6d58e90cfe)"><path fill="#00bf63" d="M 22.640625 1.382812 C 22.46875 1.207031 22.234375 1.109375 21.988281 1.109375 L 3.445312 1.109375 C 1.914062 1.109375 0.667969 2.359375 0.667969 3.890625 L 0.667969 16.867188 C 0.667969 17.382812 1.082031 17.796875 1.59375 17.796875 C 2.105469 17.796875 2.519531 17.382812 2.519531 16.867188 L 2.519531 3.890625 C 2.519531 3.378906 2.9375 2.964844 3.445312 2.964844 L 21.058594 2.964844 L 21.058594 7.597656 C 21.058594 8.113281 21.476562 8.527344 21.988281 8.527344 L 26.621094 8.527344 L 26.621094 33.554688 C 26.621094 34.066406 26.207031 34.480469 25.695312 34.480469 L 20.132812 34.480469 C 19.621094 34.480469 19.207031 34.894531 19.207031 35.410156 C 19.207031 35.921875 19.621094 36.335938 20.132812 36.335938 L 25.695312 36.335938 C 27.226562 36.335938 28.476562 35.089844 28.476562 33.554688 L 28.476562 7.597656 C 28.476562 7.351562 28.378906 7.117188 28.203125 6.945312 Z M 22.914062 4.273438 L 25.3125 6.671875 L 22.914062 6.671875 Z M 22.914062 4.273438 " fill-opacity="1" fill-rule="nonzero"/></g><g clip-path="url(#37b868a850)"><path fill="#00bf63" d="M 16.425781 34.480469 L 3.445312 34.480469 C 2.9375 34.480469 2.519531 34.066406 2.519531 33.554688 L 2.519531 20.578125 C 2.519531 20.066406 2.105469 19.648438 1.59375 19.648438 C 1.082031 19.648438 0.667969 20.066406 0.667969 20.578125 L 0.667969 33.554688 C 0.667969 35.089844 1.914062 36.335938 3.445312 36.335938 L 16.425781 36.335938 C 16.9375 36.335938 17.351562 35.921875 17.351562 35.410156 C 17.351562 34.894531 16.9375 34.480469 16.425781 34.480469 Z M 16.425781 34.480469 " fill-opacity="1" fill-rule="nonzero"/></g><path fill="#00bf63" d="M 20.917969 30.066406 C 20.917969 30.066406 22.789062 26.855469 22.789062 26.851562 C 23.042969 26.414062 22.886719 25.835938 22.445312 25.582031 C 21.972656 25.3125 21.6875 24.824219 21.6875 24.285156 C 21.6875 23.746094 21.972656 23.257812 22.445312 22.988281 C 22.886719 22.738281 23.042969 22.152344 22.789062 21.714844 L 20.917969 18.503906 C 20.660156 18.0625 20.097656 17.914062 19.65625 18.167969 C 19.171875 18.441406 18.601562 18.441406 18.121094 18.164062 C 17.648438 17.890625 17.367188 17.40625 17.367188 16.867188 C 17.367188 16.355469 16.953125 15.941406 16.441406 15.941406 L 12.699219 15.941406 C 12.1875 15.941406 11.773438 16.355469 11.773438 16.867188 C 11.773438 17.40625 11.492188 17.890625 11.023438 18.164062 C 10.542969 18.441406 9.96875 18.441406 9.488281 18.167969 C 9.042969 17.917969 8.480469 18.066406 8.226562 18.503906 C 8.226562 18.503906 6.355469 21.714844 6.355469 21.714844 C 6.097656 22.15625 6.253906 22.734375 6.695312 22.988281 C 7.167969 23.257812 7.453125 23.746094 7.453125 24.285156 C 7.453125 24.824219 7.167969 25.3125 6.695312 25.582031 C 6.253906 25.832031 6.097656 26.417969 6.355469 26.851562 L 8.226562 30.066406 C 8.480469 30.507812 9.042969 30.652344 9.488281 30.402344 C 9.96875 30.128906 10.542969 30.128906 11.023438 30.40625 C 11.492188 30.679688 11.773438 31.164062 11.773438 31.699219 C 11.773438 32.214844 12.1875 32.628906 12.699219 32.628906 L 16.441406 32.628906 C 16.953125 32.628906 17.367188 32.214844 17.367188 31.699219 C 17.367188 31.164062 17.648438 30.679688 18.121094 30.40625 C 18.601562 30.128906 19.171875 30.128906 19.65625 30.402344 C 20.097656 30.65625 20.660156 30.507812 20.917969 30.066406 Z M 17.1875 28.804688 C 16.417969 29.25 15.875 29.953125 15.644531 30.773438 L 13.5 30.773438 C 13.265625 29.953125 12.722656 29.25 11.953125 28.804688 C 11.167969 28.347656 10.269531 28.226562 9.425781 28.445312 L 8.363281 26.617188 C 8.964844 26.003906 9.308594 25.179688 9.308594 24.285156 C 9.308594 23.390625 8.964844 22.566406 8.363281 21.953125 L 9.425781 20.125 C 10.269531 20.34375 11.167969 20.222656 11.953125 19.765625 C 12.722656 19.320312 13.265625 18.617188 13.5 17.796875 L 15.644531 17.796875 C 15.875 18.617188 16.417969 19.320312 17.1875 19.765625 C 17.972656 20.21875 18.871094 20.34375 19.714844 20.125 L 20.78125 21.953125 C 20.175781 22.566406 19.835938 23.390625 19.835938 24.285156 C 19.835938 25.179688 20.175781 26.003906 20.78125 26.617188 L 19.714844 28.445312 C 18.871094 28.230469 17.976562 28.347656 17.1875 28.804688 Z M 17.1875 28.804688 " fill-opacity="1" fill-rule="nonzero"/><path fill="#00bf63" d="M 14.570312 20.578125 C 12.527344 20.578125 10.863281 22.238281 10.863281 24.285156 C 10.863281 26.328125 12.527344 27.992188 14.570312 27.992188 C 16.617188 27.992188 18.277344 26.328125 18.277344 24.285156 C 18.277344 22.238281 16.617188 20.578125 14.570312 20.578125 Z M 14.570312 26.140625 C 13.546875 26.140625 12.71875 25.308594 12.71875 24.285156 C 12.71875 23.261719 13.546875 22.429688 14.570312 22.429688 C 15.59375 22.429688 16.425781 23.261719 16.425781 24.285156 C 16.425781 25.308594 15.59375 26.140625 14.570312 26.140625 Z M 14.570312 26.140625 " fill-opacity="1" fill-rule="nonzero"/><path fill="#00bf63" d="M 33.109375 8.527344 C 31.578125 8.527344 30.328125 9.773438 30.328125 11.308594 L 30.328125 27.992188 C 30.328125 28.136719 30.363281 28.277344 30.425781 28.40625 L 32.28125 32.117188 C 32.4375 32.429688 32.757812 32.628906 33.109375 32.628906 C 33.460938 32.628906 33.78125 32.429688 33.941406 32.117188 L 35.792969 28.40625 C 35.859375 28.277344 35.890625 28.136719 35.890625 27.992188 L 35.890625 11.308594 C 35.890625 9.773438 34.644531 8.527344 33.109375 8.527344 Z M 33.109375 10.378906 C 33.621094 10.378906 34.039062 10.796875 34.039062 11.308594 L 34.039062 12.234375 L 32.183594 12.234375 L 32.183594 11.308594 C 32.183594 10.796875 32.601562 10.378906 33.109375 10.378906 Z M 33.109375 29.628906 L 32.183594 27.773438 L 32.183594 14.089844 L 34.039062 14.089844 L 34.039062 27.773438 Z M 33.109375 29.628906 " fill-opacity="1" fill-rule="nonzero"/><path fill="#00bf63" d="M 6.226562 5.746094 C 6.226562 6 6.136719 6.21875 5.957031 6.402344 C 5.777344 6.582031 5.558594 6.671875 5.300781 6.671875 C 5.046875 6.671875 4.828125 6.582031 4.644531 6.402344 C 4.464844 6.21875 4.375 6 4.375 5.746094 C 4.375 5.488281 4.464844 5.269531 4.644531 5.089844 C 4.828125 4.910156 5.046875 4.816406 5.300781 4.816406 C 5.558594 4.816406 5.777344 4.910156 5.957031 5.089844 C 6.136719 5.269531 6.226562 5.488281 6.226562 5.746094 Z M 6.226562 5.746094 " fill-opacity="1" fill-rule="nonzero"/><path fill="#00bf63" d="M 9.007812 6.671875 L 18.277344 6.671875 C 18.789062 6.671875 19.207031 6.257812 19.207031 5.746094 C 19.207031 5.234375 18.789062 4.816406 18.277344 4.816406 L 9.007812 4.816406 C 8.496094 4.816406 8.082031 5.234375 8.082031 5.746094 C 8.082031 6.257812 8.496094 6.671875 9.007812 6.671875 Z M 9.007812 6.671875 " fill-opacity="1" fill-rule="nonzero"/><path fill="#00bf63" d="M 6.226562 9.453125 C 6.226562 9.710938 6.136719 9.925781 5.957031 10.109375 C 5.777344 10.289062 5.558594 10.378906 5.300781 10.378906 C 5.046875 10.378906 4.828125 10.289062 4.644531 10.109375 C 4.464844 9.925781 4.375 9.710938 4.375 9.453125 C 4.375 9.195312 4.464844 8.980469 4.644531 8.796875 C 4.828125 8.617188 5.046875 8.527344 5.300781 8.527344 C 5.558594 8.527344 5.777344 8.617188 5.957031 8.796875 C 6.136719 8.980469 6.226562 9.195312 6.226562 9.453125 Z M 6.226562 9.453125 " fill-opacity="1" fill-rule="nonzero"/><path fill="#00bf63" d="M 9.007812 10.378906 L 18.277344 10.378906 C 18.789062 10.378906 19.207031 9.964844 19.207031 9.453125 C 19.207031 8.941406 18.789062 8.527344 18.277344 8.527344 L 9.007812 8.527344 C 8.496094 8.527344 8.082031 8.941406 8.082031 9.453125 C 8.082031 9.964844 8.496094 10.378906 9.007812 10.378906 Z M 9.007812 10.378906 " fill-opacity="1" fill-rule="nonzero"/><path fill="#00bf63" d="M 6.226562 13.160156 C 6.226562 13.417969 6.136719 13.636719 5.957031 13.816406 C 5.777344 13.996094 5.558594 14.089844 5.300781 14.089844 C 5.046875 14.089844 4.828125 13.996094 4.644531 13.816406 C 4.464844 13.636719 4.375 13.417969 4.375 13.160156 C 4.375 12.90625 4.464844 12.6875 4.644531 12.503906 C 4.828125 12.324219 5.046875 12.234375 5.300781 12.234375 C 5.558594 12.234375 5.777344 12.324219 5.957031 12.503906 C 6.136719 12.6875 6.226562 12.90625 6.226562 13.160156 Z M 6.226562 13.160156 " fill-opacity="1" fill-rule="nonzero"/><path fill="#00bf63" d="M 9.007812 14.089844 L 18.277344 14.089844 C 18.789062 14.089844 19.207031 13.671875 19.207031 13.160156 C 19.207031 12.648438 18.789062 12.234375 18.277344 12.234375 L 9.007812 12.234375 C 8.496094 12.234375 8.082031 12.648438 8.082031 13.160156 C 8.082031 13.671875 8.496094 14.089844 9.007812 14.089844 Z M 9.007812 14.089844 " fill-opacity="1" fill-rule="nonzero"/></svg>