<svg xmlns="http://www.w3.org/2000/svg" xmlns:xlink="http://www.w3.org/1999/xlink" width="50" zoomAndPan="magnify" viewBox="0 0 37.5 37.499999" height="50" preserveAspectRatio="xMidYMid meet" version="1.0"><defs><clipPath id="a92709575a"><path d="M 14 35 L 22 35 L 22 36.746094 L 14 36.746094 Z M 14 35 " clip-rule="nonzero"/></clipPath><clipPath id="66cf9f8fe5"><path d="M 18 0.480469 L 20 0.480469 L 20 4 L 18 4 Z M 18 0.480469 " clip-rule="nonzero"/></clipPath><clipPath id="e258c07634"><path d="M 0.480469 18 L 4 18 L 4 20 L 0.480469 20 Z M 0.480469 18 " clip-rule="nonzero"/></clipPath><clipPath id="a09802644f"><path d="M 33 18 L 36.746094 18 L 36.746094 20 L 33 20 Z M 33 18 " clip-rule="nonzero"/></clipPath></defs><path fill="#000000" d="M 22.015625 33.347656 L 14.082031 33.347656 C 13.769531 33.347656 13.515625 33.601562 13.515625 33.914062 C 13.515625 34.226562 13.769531 34.480469 14.082031 34.480469 L 22.015625 34.480469 C 22.324219 34.480469 22.582031 34.226562 22.582031 33.914062 C 22.582031 33.601562 22.324219 33.347656 22.015625 33.347656 Z M 22.015625 33.347656 " fill-opacity="1" fill-rule="nonzero"/><g clip-path="url(#a92709575a)"><path fill="#000000" d="M 20.882812 35.613281 L 15.214844 35.613281 C 14.902344 35.613281 14.648438 35.871094 14.648438 36.179688 C 14.648438 36.492188 14.902344 36.746094 15.214844 36.746094 L 20.882812 36.746094 C 21.191406 36.746094 21.449219 36.492188 21.449219 36.179688 C 21.449219 35.871094 21.191406 35.613281 20.882812 35.613281 Z M 20.882812 35.613281 " fill-opacity="1" fill-rule="nonzero"/></g><path fill="#000000" d="M 17.652344 23.714844 L 18.445312 23.714844 C 19.179688 23.714844 19.804688 23.148438 19.804688 22.4375 L 19.804688 21.871094 C 20.199219 21.757812 20.570312 21.589844 20.9375 21.390625 L 21.335938 21.789062 C 21.816406 22.269531 22.664062 22.242188 23.175781 21.730469 L 23.742188 21.164062 C 24.28125 20.625 24.308594 19.804688 23.800781 19.324219 L 23.402344 18.925781 C 23.601562 18.558594 23.742188 18.1875 23.882812 17.792969 L 24.449219 17.792969 C 25.160156 17.792969 25.726562 17.199219 25.726562 16.433594 L 25.726562 15.640625 C 25.726562 14.902344 25.160156 14.28125 24.449219 14.28125 L 23.882812 14.28125 C 23.769531 13.882812 23.601562 13.515625 23.402344 13.144531 L 23.800781 12.75 C 24.28125 12.269531 24.253906 11.417969 23.742188 10.90625 L 23.175781 10.339844 C 22.636719 9.800781 21.816406 9.773438 21.335938 10.285156 L 20.9375 10.679688 C 20.570312 10.484375 20.199219 10.339844 19.804688 10.199219 L 19.804688 9.632812 C 19.804688 8.925781 19.210938 8.359375 18.445312 8.359375 L 17.652344 8.359375 C 16.914062 8.359375 16.289062 8.925781 16.289062 9.632812 L 16.289062 10.199219 C 15.894531 10.3125 15.527344 10.484375 15.15625 10.679688 L 14.761719 10.285156 C 14.28125 9.800781 13.429688 9.832031 12.917969 10.339844 L 12.351562 10.90625 C 12.097656 11.164062 11.925781 11.53125 11.925781 11.898438 C 11.925781 12.238281 12.039062 12.550781 12.269531 12.777344 L 12.664062 13.175781 C 12.464844 13.542969 12.324219 13.910156 12.183594 14.308594 L 11.617188 14.308594 C 10.964844 14.308594 10.398438 14.929688 10.398438 15.667969 L 10.398438 16.460938 C 10.398438 17.199219 10.964844 17.820312 11.671875 17.820312 L 12.238281 17.820312 C 12.351562 18.21875 12.523438 18.585938 12.722656 18.953125 L 12.324219 19.351562 C 11.84375 19.832031 11.871094 20.683594 12.382812 21.191406 L 12.949219 21.757812 C 13.484375 22.296875 14.308594 22.324219 14.789062 21.816406 L 15.1875 21.417969 C 15.554688 21.617188 15.921875 21.757812 16.320312 21.902344 L 16.320312 22.46875 C 16.289062 23.148438 16.914062 23.714844 17.652344 23.714844 Z M 15.382812 20.230469 L 14.988281 19.972656 L 13.96875 20.996094 C 13.9375 21.023438 13.796875 21.023438 13.710938 20.9375 L 13.144531 20.371094 C 13.0625 20.285156 13.03125 20.171875 13.089844 20.117188 L 14.109375 19.097656 L 13.855469 18.699219 C 13.542969 18.1875 13.316406 17.652344 13.203125 17.085938 L 13.117188 16.632812 L 11.644531 16.632812 C 11.585938 16.632812 11.503906 16.546875 11.503906 16.40625 L 11.503906 15.609375 C 11.503906 15.46875 11.585938 15.382812 11.644531 15.382812 L 13.117188 15.382812 L 13.203125 14.929688 C 13.316406 14.363281 13.542969 13.824219 13.855469 13.316406 L 14.109375 12.917969 L 13.089844 11.898438 C 13.0625 11.871094 13.0625 11.84375 13.0625 11.84375 C 13.0625 11.785156 13.089844 11.699219 13.144531 11.671875 L 13.710938 11.105469 C 13.796875 11.019531 13.9375 10.992188 13.96875 11.050781 L 14.988281 12.070312 L 15.382812 11.8125 C 15.867188 11.503906 16.40625 11.277344 17 11.164062 L 17.453125 11.078125 L 17.453125 9.605469 C 17.453125 9.546875 17.539062 9.460938 17.679688 9.460938 L 18.472656 9.460938 C 18.613281 9.460938 18.699219 9.546875 18.699219 9.605469 L 18.699219 11.078125 L 19.152344 11.164062 C 19.71875 11.277344 20.257812 11.503906 20.769531 11.8125 L 21.164062 12.070312 L 22.183594 11.050781 C 22.210938 11.019531 22.324219 11.019531 22.4375 11.105469 L 23.007812 11.671875 C 23.089844 11.757812 23.121094 11.871094 23.0625 11.925781 L 22.042969 12.949219 L 22.296875 13.34375 C 22.609375 13.824219 22.835938 14.394531 22.949219 14.960938 L 23.035156 15.414062 L 24.480469 15.414062 C 24.535156 15.414062 24.621094 15.496094 24.621094 15.640625 L 24.621094 16.433594 C 24.621094 16.574219 24.535156 16.660156 24.480469 16.660156 L 23.035156 16.660156 L 22.863281 17.113281 C 22.75 17.679688 22.523438 18.21875 22.210938 18.726562 L 21.957031 19.125 L 22.976562 20.144531 C 23.007812 20.171875 23.007812 20.285156 22.921875 20.398438 L 22.355469 20.964844 C 22.269531 21.050781 22.15625 21.078125 22.097656 21.023438 L 21.078125 20.003906 L 20.683594 20.257812 C 20.199219 20.570312 19.664062 20.796875 19.066406 20.910156 L 18.613281 20.996094 L 18.613281 22.46875 C 18.613281 22.523438 18.53125 22.609375 18.386719 22.609375 L 17.59375 22.609375 C 17.453125 22.609375 17.367188 22.523438 17.367188 22.46875 L 17.367188 20.996094 L 17 20.882812 C 16.40625 20.769531 15.867188 20.539062 15.382812 20.230469 Z M 15.382812 20.230469 " fill-opacity="1" fill-rule="nonzero"/><path fill="#000000" d="M 21.023438 16.0625 C 21.023438 14.421875 19.691406 13.089844 18.046875 13.089844 C 16.40625 13.089844 15.074219 14.421875 15.074219 16.0625 C 15.074219 17.707031 16.40625 19.039062 18.046875 19.039062 C 19.691406 19.039062 21.023438 17.707031 21.023438 16.0625 Z M 16.207031 16.0625 C 16.207031 15.042969 17.027344 14.222656 18.046875 14.222656 C 19.066406 14.222656 19.890625 15.042969 19.890625 16.0625 C 19.890625 17.085938 19.066406 17.90625 18.046875 17.90625 C 17.027344 17.90625 16.207031 17.085938 16.207031 16.0625 Z M 16.207031 16.0625 " fill-opacity="1" fill-rule="nonzero"/><g clip-path="url(#66cf9f8fe5)"><path fill="#000000" d="M 18.613281 3.3125 C 18.925781 3.3125 19.179688 3.058594 19.179688 2.746094 L 19.179688 1.046875 C 19.179688 0.734375 18.925781 0.480469 18.613281 0.480469 C 18.300781 0.480469 18.046875 0.734375 18.046875 1.046875 L 18.046875 2.746094 C 18.046875 3.058594 18.300781 3.3125 18.613281 3.3125 Z M 18.613281 3.3125 " fill-opacity="1" fill-rule="nonzero"/></g><path fill="#000000" d="M 12.011719 4.164062 C 12.097656 4.390625 12.324219 4.503906 12.523438 4.503906 C 12.609375 4.503906 12.664062 4.503906 12.75 4.449219 C 13.03125 4.335938 13.175781 3.996094 13.0625 3.710938 L 12.410156 2.179688 C 12.296875 1.898438 11.957031 1.757812 11.671875 1.871094 C 11.390625 1.984375 11.246094 2.324219 11.359375 2.605469 Z M 12.011719 4.164062 " fill-opacity="1" fill-rule="nonzero"/><path fill="#000000" d="M 6.996094 7.792969 C 7.109375 7.90625 7.253906 7.960938 7.394531 7.960938 C 7.535156 7.960938 7.675781 7.90625 7.792969 7.792969 C 8.019531 7.5625 8.019531 7.222656 7.792969 6.996094 L 6.601562 5.808594 C 6.375 5.582031 6.035156 5.582031 5.808594 5.808594 C 5.582031 6.035156 5.582031 6.375 5.808594 6.601562 Z M 6.996094 7.792969 " fill-opacity="1" fill-rule="nonzero"/><path fill="#000000" d="M 4.164062 12.011719 L 2.605469 11.359375 C 2.324219 11.246094 1.984375 11.390625 1.871094 11.671875 C 1.757812 11.957031 1.898438 12.296875 2.179688 12.410156 L 3.738281 13.0625 C 3.824219 13.089844 3.882812 13.117188 3.964844 13.117188 C 4.191406 13.117188 4.390625 12.976562 4.476562 12.777344 C 4.589844 12.464844 4.449219 12.125 4.164062 12.011719 Z M 4.164062 12.011719 " fill-opacity="1" fill-rule="nonzero"/><g clip-path="url(#e258c07634)"><path fill="#000000" d="M 3.3125 18.613281 C 3.3125 18.300781 3.058594 18.046875 2.746094 18.046875 L 1.046875 18.046875 C 0.734375 18.046875 0.480469 18.300781 0.480469 18.613281 C 0.480469 18.925781 0.734375 19.179688 1.046875 19.179688 L 2.746094 19.179688 C 3.058594 19.179688 3.3125 18.925781 3.3125 18.613281 Z M 3.3125 18.613281 " fill-opacity="1" fill-rule="nonzero"/></g><path fill="#000000" d="M 3.738281 24.167969 L 2.179688 24.820312 C 1.898438 24.933594 1.757812 25.273438 1.871094 25.554688 C 1.953125 25.78125 2.179688 25.894531 2.378906 25.894531 C 2.464844 25.894531 2.519531 25.894531 2.605469 25.839844 L 4.164062 25.1875 C 4.449219 25.074219 4.589844 24.734375 4.476562 24.449219 C 4.363281 24.167969 4.023438 24.054688 3.738281 24.167969 Z M 3.738281 24.167969 " fill-opacity="1" fill-rule="nonzero"/><path fill="#000000" d="M 6.996094 29.4375 L 5.808594 30.628906 C 5.582031 30.855469 5.582031 31.195312 5.808594 31.421875 C 5.921875 31.535156 6.0625 31.589844 6.203125 31.589844 C 6.347656 31.589844 6.488281 31.535156 6.601562 31.421875 L 7.792969 30.230469 C 8.019531 30.003906 8.019531 29.664062 7.792969 29.4375 C 7.5625 29.210938 7.222656 29.210938 6.996094 29.4375 Z M 6.996094 29.4375 " fill-opacity="1" fill-rule="nonzero"/><path fill="#000000" d="M 30.230469 29.4375 C 30.003906 29.210938 29.664062 29.210938 29.4375 29.4375 C 29.210938 29.664062 29.210938 30.003906 29.4375 30.230469 L 30.628906 31.421875 C 30.742188 31.535156 30.882812 31.589844 31.023438 31.589844 C 31.164062 31.589844 31.308594 31.535156 31.421875 31.421875 C 31.648438 31.195312 31.648438 30.855469 31.421875 30.628906 Z M 30.230469 29.4375 " fill-opacity="1" fill-rule="nonzero"/><path fill="#000000" d="M 35.046875 24.820312 L 33.488281 24.167969 C 33.207031 24.054688 32.867188 24.195312 32.753906 24.480469 C 32.640625 24.761719 32.78125 25.101562 33.0625 25.214844 L 34.621094 25.867188 C 34.707031 25.894531 34.765625 25.925781 34.847656 25.925781 C 35.074219 25.925781 35.273438 25.78125 35.359375 25.585938 C 35.5 25.273438 35.359375 24.933594 35.046875 24.820312 Z M 35.046875 24.820312 " fill-opacity="1" fill-rule="nonzero"/><g clip-path="url(#a09802644f)"><path fill="#000000" d="M 36.179688 18.046875 L 34.480469 18.046875 C 34.167969 18.046875 33.914062 18.300781 33.914062 18.613281 C 33.914062 18.925781 34.167969 19.179688 34.480469 19.179688 L 36.179688 19.179688 C 36.492188 19.179688 36.746094 18.925781 36.746094 18.613281 C 36.746094 18.300781 36.492188 18.046875 36.179688 18.046875 Z M 36.179688 18.046875 " fill-opacity="1" fill-rule="nonzero"/></g><path fill="#000000" d="M 33.261719 13.117188 C 33.347656 13.117188 33.402344 13.117188 33.488281 13.0625 L 35.046875 12.410156 C 35.332031 12.296875 35.472656 11.957031 35.359375 11.671875 C 35.246094 11.390625 34.90625 11.246094 34.621094 11.359375 L 33.0625 12.011719 C 32.78125 12.125 32.640625 12.464844 32.753906 12.75 C 32.835938 12.976562 33.0625 13.117188 33.261719 13.117188 Z M 33.261719 13.117188 " fill-opacity="1" fill-rule="nonzero"/><path fill="#000000" d="M 30.628906 5.78125 L 29.4375 6.96875 C 29.210938 7.195312 29.210938 7.535156 29.4375 7.761719 C 29.550781 7.875 29.691406 7.933594 29.835938 7.933594 C 29.976562 7.933594 30.117188 7.875 30.230469 7.761719 L 31.421875 6.574219 C 31.648438 6.347656 31.648438 6.007812 31.421875 5.78125 C 31.195312 5.550781 30.855469 5.582031 30.628906 5.78125 Z M 30.628906 5.78125 " fill-opacity="1" fill-rule="nonzero"/><path fill="#000000" d="M 24.480469 4.476562 C 24.5625 4.503906 24.621094 4.53125 24.707031 4.53125 C 24.933594 4.53125 25.132812 4.390625 25.214844 4.191406 L 25.867188 2.632812 C 25.980469 2.351562 25.839844 2.011719 25.554688 1.898438 C 25.273438 1.785156 24.933594 1.925781 24.820312 2.210938 L 24.167969 3.769531 C 24.054688 4.023438 24.167969 4.363281 24.480469 4.476562 Z M 24.480469 4.476562 " fill-opacity="1" fill-rule="nonzero"/><path fill="#000000" d="M 29.183594 22.695312 C 28.925781 22.296875 28.984375 22.042969 29.011719 21.957031 L 29.550781 21.304688 C 29.75 21.078125 29.722656 20.738281 29.496094 20.511719 C 29.410156 20.457031 29.351562 20.371094 29.324219 20.34375 C 29.550781 20.117188 29.691406 19.890625 29.722656 19.632812 C 29.75 19.378906 29.664062 19.179688 29.578125 19.066406 L 29.238281 18.414062 C 29.210938 18.332031 29.238281 18.273438 29.238281 18.246094 C 29.269531 18.21875 29.351562 18.1875 29.410156 18.1875 C 29.464844 18.1875 29.496094 18.1875 29.550781 18.160156 C 30.429688 17.933594 30.910156 17.566406 31.082031 17.054688 C 31.195312 16.632812 31.023438 16.261719 30.855469 16.035156 L 28.304688 12.382812 C 28.105469 12.097656 28.019531 11.730469 27.9375 11.359375 L 27.9375 11.304688 C 27.90625 11.164062 27.851562 10.992188 27.824219 10.851562 C 26.378906 5.808594 20.964844 3.882812 16.375 4.5625 C 10.511719 5.46875 6.148438 10.511719 6.148438 16.347656 C 6.148438 19.238281 7.253906 22.210938 9.207031 24.480469 C 11.8125 27.511719 11.984375 28.390625 12.410156 30.742188 L 12.496094 31.164062 C 12.609375 31.816406 13.0625 32.242188 13.597656 32.242188 L 18.613281 32.242188 C 18.925781 32.242188 19.179688 31.988281 19.179688 31.675781 L 19.179688 25.414062 C 19.179688 25.101562 18.925781 24.847656 18.613281 24.847656 C 18.300781 24.847656 18.046875 25.101562 18.046875 25.414062 L 18.046875 31.082031 L 13.65625 31.082031 C 13.628906 31.050781 13.628906 30.996094 13.597656 30.9375 L 13.515625 30.515625 C 13.089844 28.105469 12.890625 27 10.058594 23.714844 C 8.300781 21.675781 7.28125 18.984375 7.28125 16.347656 C 7.28125 11.078125 11.246094 6.515625 16.488281 5.722656 C 20.570312 5.097656 25.386719 6.800781 26.660156 11.191406 C 26.6875 11.332031 26.746094 11.472656 26.773438 11.585938 L 26.773438 11.644531 C 26.886719 12.097656 27 12.609375 27.3125 13.0625 L 29.890625 16.714844 C 29.890625 16.746094 29.917969 16.746094 29.917969 16.773438 C 29.863281 16.828125 29.691406 16.941406 29.265625 17.054688 C 29.070312 17.085938 28.585938 17.140625 28.304688 17.539062 C 28.132812 17.765625 27.964844 18.132812 28.132812 18.726562 C 28.132812 18.785156 28.164062 18.8125 28.191406 18.871094 L 28.53125 19.519531 C 28.503906 19.550781 28.417969 19.632812 28.304688 19.691406 C 28.246094 19.71875 28.191406 19.777344 28.132812 19.859375 C 27.9375 20.171875 27.992188 20.539062 28.332031 20.964844 L 28.050781 21.304688 C 28.019531 21.335938 27.992188 21.363281 27.992188 21.390625 C 27.964844 21.449219 27.597656 22.183594 28.132812 23.148438 C 28.105469 23.515625 28.019531 24.222656 27.625 24.621094 C 27.425781 24.820312 27.144531 24.902344 26.800781 24.875 C 26.800781 24.875 26.773438 24.875 26.773438 24.875 L 24.449219 24.875 C 23.375 24.875 22.949219 26.207031 22.75 26.859375 L 22.722656 26.945312 C 22.324219 28.191406 22.183594 29.578125 22.296875 31.109375 L 21.164062 31.109375 C 20.851562 31.109375 20.597656 31.363281 20.597656 31.675781 C 20.597656 31.988281 20.851562 32.242188 21.164062 32.242188 L 22.582031 32.242188 C 22.808594 32.242188 23.035156 32.15625 23.175781 31.960938 C 23.347656 31.761719 23.429688 31.507812 23.429688 31.25 C 23.289062 29.777344 23.402344 28.445312 23.769531 27.285156 L 23.800781 27.199219 C 24.167969 26.066406 24.394531 26.007812 24.421875 26.007812 L 26.71875 26.007812 C 27.371094 26.039062 27.964844 25.839844 28.390625 25.414062 C 29.265625 24.5625 29.238281 23.148438 29.238281 22.976562 C 29.265625 22.863281 29.238281 22.777344 29.183594 22.695312 Z M 29.183594 22.695312 " fill-opacity="1" fill-rule="nonzero"/></svg>