<svg xmlns="http://www.w3.org/2000/svg" xmlns:xlink="http://www.w3.org/1999/xlink" width="50" zoomAndPan="magnify" viewBox="0 0 37.5 37.499999" height="50" preserveAspectRatio="xMidYMid meet" version="1.0"><defs><clipPath id="2df5c0f7bd"><path d="M 3.699219 1.09375 L 32.566406 1.09375 L 32.566406 35.878906 L 3.699219 35.878906 Z M 3.699219 1.09375 " clip-rule="nonzero"/></clipPath></defs><g clip-path="url(#2df5c0f7bd)"><path fill="#0097b2" d="M 14.542969 16.398438 L 14.542969 17.203125 C 14.542969 17.773438 14.894531 18.261719 15.390625 18.464844 L 15.390625 18.84375 C 15.390625 19.414062 15.738281 19.902344 16.234375 20.105469 L 16.234375 20.488281 C 16.234375 21.242188 16.847656 21.855469 17.601562 21.855469 L 18.667969 21.855469 C 19.421875 21.855469 20.03125 21.242188 20.03125 20.488281 L 20.03125 20.105469 C 20.527344 19.902344 20.875 19.414062 20.875 18.84375 L 20.875 18.441406 C 21.34375 18.222656 21.671875 17.75 21.671875 17.203125 L 21.671875 16.398438 C 21.792969 14.320312 22.308594 13.441406 22.808594 12.589844 C 23.269531 11.796875 23.707031 11.050781 23.707031 9.597656 C 23.707031 6.507812 21.195312 3.996094 18.105469 3.996094 C 15.015625 3.996094 12.503906 6.507812 12.503906 9.597656 C 12.503906 11.050781 12.941406 11.796875 13.40625 12.589844 C 13.902344 13.441406 14.417969 14.320312 14.542969 16.398438 Z M 16.6875 10.265625 L 16.058594 10.265625 C 15.710938 10.265625 15.425781 9.980469 15.425781 9.632812 C 15.425781 9.285156 15.710938 9.003906 16.058594 9.003906 C 16.40625 9.003906 16.6875 9.285156 16.6875 9.632812 Z M 18.4375 15.835938 L 17.777344 15.835938 L 17.777344 11.351562 L 18.4375 11.351562 Z M 20.582031 16.921875 L 20.582031 17.203125 C 20.582031 17.351562 20.457031 17.480469 20.304688 17.480469 L 15.90625 17.480469 C 15.757812 17.480469 15.628906 17.351562 15.628906 17.203125 L 15.628906 16.921875 Z M 19.789062 18.84375 C 19.789062 18.996094 19.660156 19.125 19.511719 19.125 L 16.757812 19.125 C 16.605469 19.125 16.480469 18.996094 16.480469 18.84375 L 16.480469 18.566406 L 19.789062 18.566406 Z M 18.667969 20.765625 L 17.601562 20.765625 C 17.449219 20.765625 17.324219 20.640625 17.324219 20.488281 L 17.324219 20.210938 L 18.945312 20.210938 L 18.945312 20.488281 C 18.945312 20.640625 18.816406 20.765625 18.667969 20.765625 Z M 18.105469 5.082031 C 20.597656 5.082031 22.621094 7.105469 22.621094 9.597656 C 22.621094 10.753906 22.289062 11.324219 21.867188 12.042969 C 21.394531 12.847656 20.816406 13.835938 20.625 15.835938 L 19.523438 15.835938 L 19.523438 11.351562 L 20.15625 11.351562 C 21.101562 11.351562 21.875 10.582031 21.875 9.632812 C 21.875 8.6875 21.101562 7.914062 20.15625 7.914062 C 19.207031 7.914062 18.4375 8.6875 18.4375 9.632812 L 18.4375 10.265625 L 17.777344 10.265625 L 17.777344 9.632812 C 17.777344 8.6875 17.003906 7.914062 16.058594 7.914062 C 15.109375 7.914062 14.339844 8.6875 14.339844 9.632812 C 14.339844 10.582031 15.109375 11.351562 16.058594 11.351562 L 16.6875 11.351562 L 16.6875 15.835938 L 15.589844 15.835938 C 15.394531 13.835938 14.816406 12.847656 14.34375 12.042969 C 13.925781 11.324219 13.59375 10.753906 13.59375 9.597656 C 13.59375 7.105469 15.617188 5.082031 18.105469 5.082031 Z M 19.523438 10.265625 L 19.523438 9.632812 C 19.523438 9.285156 19.808594 9.003906 20.15625 9.003906 C 20.503906 9.003906 20.785156 9.285156 20.785156 9.632812 C 20.785156 9.980469 20.503906 10.265625 20.15625 10.265625 Z M 17.5625 2.828125 L 17.5625 1.636719 C 17.5625 1.335938 17.804688 1.09375 18.105469 1.09375 C 18.40625 1.09375 18.648438 1.335938 18.648438 1.636719 L 18.648438 2.828125 C 18.648438 3.128906 18.40625 3.371094 18.105469 3.371094 C 17.804688 3.371094 17.5625 3.128906 17.5625 2.828125 Z M 13.222656 3.089844 C 13.074219 2.832031 13.164062 2.496094 13.421875 2.347656 C 13.683594 2.199219 14.015625 2.285156 14.167969 2.546875 L 14.761719 3.578125 C 14.914062 3.839844 14.824219 4.171875 14.5625 4.320312 C 14.476562 4.371094 14.382812 4.394531 14.292969 4.394531 C 14.105469 4.394531 13.921875 4.296875 13.820312 4.121094 Z M 9.996094 5.777344 C 10.144531 5.515625 10.476562 5.425781 10.738281 5.578125 L 11.769531 6.171875 C 12.03125 6.324219 12.121094 6.65625 11.96875 6.914062 C 11.867188 7.089844 11.6875 7.1875 11.496094 7.1875 C 11.40625 7.1875 11.3125 7.164062 11.226562 7.113281 L 10.195312 6.519531 C 9.933594 6.367188 9.84375 6.035156 9.996094 5.777344 Z M 21.449219 3.578125 L 22.046875 2.546875 C 22.195312 2.285156 22.527344 2.199219 22.789062 2.347656 C 23.050781 2.496094 23.136719 2.832031 22.988281 3.089844 L 22.394531 4.121094 C 22.292969 4.296875 22.109375 4.394531 21.921875 4.394531 C 21.828125 4.394531 21.734375 4.371094 21.648438 4.320312 C 21.390625 4.171875 21.300781 3.839844 21.449219 3.578125 Z M 24.242188 6.914062 C 24.09375 6.65625 24.183594 6.324219 24.441406 6.171875 L 25.472656 5.578125 C 25.734375 5.425781 26.066406 5.515625 26.21875 5.777344 C 26.367188 6.035156 26.277344 6.367188 26.019531 6.519531 L 24.988281 7.113281 C 24.902344 7.164062 24.808594 7.1875 24.714844 7.1875 C 24.527344 7.1875 24.34375 7.089844 24.242188 6.914062 Z M 32.003906 24.515625 C 31.722656 24.046875 30.578125 22.660156 27.589844 24.398438 L 22.445312 27.398438 C 22.257812 27.507812 22.066406 27.589844 21.871094 27.652344 C 21.929688 27.53125 21.976562 27.402344 22.015625 27.265625 C 22.289062 26.238281 21.683594 25.167969 20.628906 24.824219 C 20.605469 24.816406 20.582031 24.8125 20.558594 24.808594 C 19.085938 24.542969 17.632812 24.015625 16.460938 23.59375 C 16.054688 23.445312 15.667969 23.304688 15.339844 23.199219 C 13.988281 22.761719 12.777344 23.296875 11.769531 23.882812 L 8.015625 26.054688 L 7.785156 25.644531 C 7.613281 25.339844 7.335938 25.125 7 25.03125 C 6.664062 24.9375 6.3125 24.980469 6.011719 25.152344 L 4.566406 25.96875 C 3.941406 26.320312 3.722656 27.117188 4.074219 27.742188 L 8.320312 35.242188 C 8.558594 35.664062 9 35.902344 9.453125 35.902344 C 9.671875 35.902344 9.890625 35.847656 10.09375 35.734375 L 11.535156 34.917969 C 12.160156 34.5625 12.382812 33.769531 12.027344 33.144531 L 11.550781 32.296875 L 12.316406 31.851562 L 18.871094 33.609375 C 19.242188 33.710938 19.613281 33.757812 19.976562 33.757812 C 20.710938 33.757812 21.421875 33.554688 22.070312 33.15625 L 31.40625 27.40625 C 32.296875 26.859375 32.582031 25.480469 32.003906 24.515625 Z M 11 33.96875 L 9.558594 34.789062 C 9.457031 34.84375 9.324219 34.808594 9.265625 34.707031 L 5.023438 27.207031 C 4.984375 27.140625 4.992188 27.078125 5.003906 27.042969 C 5.011719 27.011719 5.035156 26.953125 5.101562 26.914062 L 6.546875 26.097656 C 6.582031 26.078125 6.617188 26.070312 6.648438 26.070312 C 6.671875 26.070312 6.695312 26.074219 6.707031 26.078125 C 6.742188 26.089844 6.800781 26.113281 6.835938 26.179688 L 11.082031 33.679688 C 11.140625 33.78125 11.101562 33.914062 11 33.96875 Z M 30.835938 26.480469 L 21.5 32.230469 C 20.78125 32.671875 19.992188 32.785156 19.152344 32.558594 L 12.378906 30.742188 C 12.238281 30.707031 12.089844 30.726562 11.964844 30.796875 L 11.011719 31.347656 L 8.554688 27.003906 L 12.3125 24.824219 C 13.152344 24.335938 14.0625 23.929688 15.003906 24.234375 C 15.316406 24.335938 15.675781 24.464844 16.089844 24.617188 C 17.289062 25.046875 18.777344 25.585938 20.324219 25.871094 C 20.816406 26.042969 21.089844 26.515625 20.964844 26.984375 C 20.8125 27.546875 20.363281 27.65625 19.972656 27.632812 C 19.136719 27.46875 18.382812 27.257812 17.59375 27.03125 C 17.25 26.933594 16.894531 26.835938 16.523438 26.734375 C 16.234375 26.65625 15.933594 26.828125 15.855469 27.121094 C 15.78125 27.410156 15.953125 27.707031 16.242188 27.785156 C 16.605469 27.882812 16.957031 27.984375 17.296875 28.078125 C 18.050781 28.292969 18.773438 28.5 19.574219 28.664062 C 19.886719 28.730469 20.164062 28.777344 20.339844 28.804688 C 21.316406 28.960938 22.183594 28.808594 22.992188 28.335938 L 28.140625 25.339844 C 29.574219 24.503906 30.667969 24.40625 31.070312 25.074219 C 31.34375 25.53125 31.226562 26.242188 30.835938 26.480469 Z M 6.835938 27.320312 C 6.878906 27.601562 6.683594 27.863281 6.402344 27.90625 C 6.121094 27.945312 5.859375 27.75 5.816406 27.46875 C 5.777344 27.1875 5.972656 26.925781 6.253906 26.886719 C 6.535156 26.84375 6.796875 27.039062 6.835938 27.320312 Z M 6.835938 27.320312 " fill-opacity="1" fill-rule="evenodd"/></g></svg>