<svg xmlns="http://www.w3.org/2000/svg" xmlns:xlink="http://www.w3.org/1999/xlink" width="50" zoomAndPan="magnify" viewBox="0 0 37.5 37.499999" height="50" preserveAspectRatio="xMidYMid meet" version="1.0"><defs><clipPath id="9540574683"><path d="M 6 0.667969 L 36.191406 0.667969 L 36.191406 30 L 6 30 Z M 6 0.667969 " clip-rule="nonzero"/></clipPath><clipPath id="7ce53f59c1"><path d="M 0.667969 6 L 32 6 L 32 36.191406 L 0.667969 36.191406 Z M 0.667969 6 " clip-rule="nonzero"/></clipPath></defs><path fill="#0097b2" d="M 14.105469 17.808594 L 12.796875 16.972656 C 12.625 16.859375 12.40625 16.871094 12.246094 16.996094 L 11.46875 17.597656 L 10.683594 17.457031 L 10.164062 16.625 C 10.054688 16.453125 9.851562 16.367188 9.652344 16.410156 L 8.136719 16.742188 C 7.9375 16.785156 7.789062 16.949219 7.761719 17.152344 L 7.640625 18.125 L 6.984375 18.582031 L 6.027344 18.359375 C 5.832031 18.3125 5.625 18.398438 5.515625 18.566406 L 4.679688 19.875 C 4.570312 20.046875 4.578125 20.269531 4.703125 20.429688 L 5.304688 21.203125 L 5.164062 21.992188 L 4.332031 22.511719 C 4.160156 22.617188 4.074219 22.820312 4.117188 23.019531 L 4.449219 24.539062 C 4.496094 24.734375 4.65625 24.886719 4.859375 24.910156 L 5.832031 25.035156 L 6.289062 25.6875 L 6.066406 26.644531 C 6.023438 26.84375 6.105469 27.046875 6.277344 27.15625 L 7.585938 27.996094 C 7.757812 28.105469 7.976562 28.09375 8.136719 27.96875 L 8.914062 27.367188 L 9.699219 27.507812 L 10.21875 28.339844 C 10.308594 28.484375 10.460938 28.566406 10.625 28.566406 C 10.660156 28.566406 10.695312 28.5625 10.726562 28.554688 L 12.246094 28.222656 C 12.445312 28.179688 12.59375 28.015625 12.617188 27.816406 L 12.742188 26.839844 L 13.394531 26.382812 L 14.351562 26.605469 C 14.550781 26.652344 14.753906 26.566406 14.863281 26.398438 L 15.703125 25.089844 C 15.8125 24.917969 15.800781 24.695312 15.675781 24.535156 L 15.074219 23.761719 L 15.214844 22.976562 L 16.050781 22.457031 C 16.222656 22.347656 16.308594 22.144531 16.265625 21.945312 L 15.929688 20.425781 C 15.886719 20.230469 15.722656 20.078125 15.523438 20.054688 L 14.546875 19.933594 L 14.09375 19.277344 L 14.3125 18.320312 C 14.359375 18.121094 14.277344 17.917969 14.105469 17.808594 Z M 14.21875 20.855469 L 15.066406 20.964844 L 15.253906 21.820312 L 14.527344 22.273438 C 14.414062 22.34375 14.332031 22.460938 14.308594 22.597656 L 14.09375 23.800781 C 14.070312 23.933594 14.105469 24.074219 14.1875 24.179688 L 14.710938 24.855469 L 14.238281 25.59375 L 13.40625 25.402344 C 13.273438 25.371094 13.132812 25.398438 13.023438 25.476562 L 12.019531 26.175781 C 11.90625 26.253906 11.835938 26.375 11.816406 26.507812 L 11.710938 27.359375 L 10.851562 27.546875 L 10.398438 26.820312 C 10.328125 26.703125 10.210938 26.625 10.078125 26.601562 L 8.871094 26.386719 C 8.84375 26.382812 8.816406 26.378906 8.789062 26.378906 C 8.683594 26.378906 8.578125 26.414062 8.492188 26.480469 L 7.816406 27.003906 L 7.078125 26.53125 L 7.273438 25.695312 C 7.300781 25.566406 7.277344 25.425781 7.199219 25.316406 L 6.5 24.308594 C 6.421875 24.199219 6.300781 24.125 6.164062 24.109375 L 5.316406 24 L 5.128906 23.144531 L 5.855469 22.691406 C 5.96875 22.621094 6.046875 22.503906 6.074219 22.367188 L 6.289062 21.164062 C 6.3125 21.03125 6.277344 20.894531 6.195312 20.785156 L 5.667969 20.109375 L 6.140625 19.371094 L 6.976562 19.5625 C 7.109375 19.59375 7.246094 19.566406 7.359375 19.488281 L 8.363281 18.789062 C 8.476562 18.710938 8.546875 18.589844 8.566406 18.457031 L 8.671875 17.605469 L 9.527344 17.417969 L 9.980469 18.144531 C 10.054688 18.261719 10.171875 18.339844 10.304688 18.363281 L 11.511719 18.578125 C 11.644531 18.601562 11.78125 18.570312 11.886719 18.484375 L 12.566406 17.960938 L 13.304688 18.433594 L 13.109375 19.269531 C 13.078125 19.402344 13.105469 19.539062 13.183594 19.652344 L 13.882812 20.65625 C 13.960938 20.765625 14.082031 20.839844 14.21875 20.855469 Z M 14.21875 20.855469 " fill-opacity="1" fill-rule="nonzero"/><path fill="#0097b2" d="M 10.714844 19.542969 C 9.929688 19.402344 9.136719 19.578125 8.484375 20.03125 C 7.828125 20.488281 7.390625 21.171875 7.25 21.957031 C 7.109375 22.742188 7.285156 23.535156 7.742188 24.191406 C 8.195312 24.84375 8.878906 25.28125 9.667969 25.421875 C 9.84375 25.453125 10.019531 25.46875 10.199219 25.46875 C 10.800781 25.46875 11.390625 25.285156 11.898438 24.933594 C 12.554688 24.476562 12.992188 23.792969 13.128906 23.007812 C 13.269531 22.222656 13.097656 21.429688 12.640625 20.773438 C 12.183594 20.121094 11.5 19.683594 10.714844 19.542969 Z M 12.1875 22.839844 C 12.089844 23.371094 11.792969 23.835938 11.351562 24.144531 C 10.90625 24.457031 10.367188 24.574219 9.835938 24.476562 C 9.300781 24.382812 8.835938 24.085938 8.527344 23.640625 C 8.21875 23.199219 8.101562 22.660156 8.195312 22.125 C 8.371094 21.144531 9.226562 20.457031 10.191406 20.457031 C 10.308594 20.457031 10.425781 20.464844 10.546875 20.488281 C 11.082031 20.582031 11.542969 20.878906 11.855469 21.324219 C 12.164062 21.769531 12.28125 22.304688 12.1875 22.839844 Z M 12.1875 22.839844 " fill-opacity="1" fill-rule="nonzero"/><path fill="#0097b2" d="M 22.765625 28.039062 C 22.9375 27.933594 23.023438 27.730469 22.980469 27.53125 L 22.769531 26.574219 C 22.726562 26.378906 22.5625 26.226562 22.359375 26.203125 L 21.824219 26.132812 L 21.628906 25.851562 L 21.75 25.324219 C 21.796875 25.128906 21.710938 24.921875 21.542969 24.8125 L 20.71875 24.285156 C 20.546875 24.175781 20.324219 24.1875 20.164062 24.3125 L 19.738281 24.640625 L 19.398438 24.582031 L 19.113281 24.125 C 19.003906 23.949219 18.800781 23.863281 18.601562 23.910156 L 17.648438 24.117188 C 17.449219 24.160156 17.300781 24.324219 17.273438 24.527344 L 17.207031 25.0625 L 16.921875 25.257812 L 16.398438 25.136719 C 16.199219 25.089844 15.996094 25.175781 15.886719 25.347656 L 15.359375 26.171875 C 15.25 26.339844 15.257812 26.5625 15.382812 26.722656 L 15.714844 27.148438 L 15.652344 27.488281 L 15.195312 27.773438 C 15.023438 27.882812 14.9375 28.085938 14.980469 28.285156 L 15.191406 29.242188 C 15.234375 29.4375 15.398438 29.585938 15.597656 29.613281 L 16.132812 29.679688 L 16.332031 29.964844 L 16.210938 30.488281 C 16.164062 30.6875 16.246094 30.890625 16.417969 31 L 17.242188 31.53125 C 17.414062 31.640625 17.632812 31.628906 17.792969 31.503906 L 18.222656 31.171875 L 18.5625 31.234375 L 18.847656 31.691406 C 18.933594 31.835938 19.089844 31.917969 19.253906 31.917969 C 19.289062 31.917969 19.320312 31.914062 19.355469 31.90625 L 20.3125 31.695312 C 20.511719 31.652344 20.660156 31.488281 20.683594 31.289062 L 20.753906 30.753906 L 21.035156 30.554688 L 21.5625 30.679688 C 21.757812 30.722656 21.964844 30.640625 22.074219 30.46875 L 22.601562 29.644531 C 22.710938 29.472656 22.699219 29.253906 22.578125 29.09375 L 22.246094 28.667969 L 22.304688 28.328125 Z M 21.617188 27.625 C 21.503906 27.699219 21.421875 27.816406 21.398438 27.949219 L 21.265625 28.707031 C 21.242188 28.839844 21.273438 28.976562 21.355469 29.085938 L 21.609375 29.414062 L 21.449219 29.667969 L 21.042969 29.574219 C 20.914062 29.542969 20.773438 29.570312 20.664062 29.648438 L 20.03125 30.089844 C 19.917969 30.167969 19.84375 30.289062 19.828125 30.421875 L 19.777344 30.832031 L 19.480469 30.898438 L 19.261719 30.546875 C 19.191406 30.429688 19.074219 30.351562 18.9375 30.328125 L 18.179688 30.191406 C 18.152344 30.1875 18.125 30.183594 18.097656 30.183594 C 17.992188 30.183594 17.886719 30.21875 17.800781 30.285156 L 17.476562 30.539062 L 17.21875 30.375 L 17.3125 29.972656 C 17.34375 29.839844 17.316406 29.703125 17.238281 29.589844 L 16.800781 28.957031 C 16.722656 28.847656 16.601562 28.773438 16.464844 28.757812 L 16.054688 28.703125 L 15.988281 28.410156 L 16.339844 28.191406 C 16.457031 28.117188 16.535156 28 16.558594 27.867188 L 16.695312 27.109375 C 16.71875 26.976562 16.683594 26.835938 16.601562 26.730469 L 16.347656 26.402344 L 16.511719 26.148438 L 16.914062 26.242188 C 17.046875 26.273438 17.1875 26.246094 17.296875 26.167969 L 17.929688 25.726562 C 18.042969 25.648438 18.113281 25.527344 18.132812 25.394531 L 18.183594 24.984375 L 18.476562 24.917969 L 18.699219 25.269531 C 18.769531 25.386719 18.886719 25.464844 19.019531 25.488281 L 19.777344 25.625 C 19.914062 25.648438 20.050781 25.613281 20.15625 25.53125 L 20.484375 25.277344 L 20.738281 25.4375 L 20.644531 25.84375 C 20.613281 25.976562 20.640625 26.113281 20.71875 26.226562 L 21.160156 26.859375 C 21.238281 26.96875 21.359375 27.042969 21.492188 27.058594 L 21.90625 27.109375 L 21.96875 27.40625 Z M 21.617188 27.625 " fill-opacity="1" fill-rule="nonzero"/><path fill="#0097b2" d="M 19.308594 26.0625 C 18.816406 25.976562 18.320312 26.085938 17.910156 26.371094 C 17.5 26.65625 17.222656 27.085938 17.136719 27.578125 C 16.953125 28.59375 17.632812 29.570312 18.652344 29.753906 C 18.761719 29.773438 18.871094 29.78125 18.980469 29.78125 C 19.871094 29.78125 20.664062 29.144531 20.824219 28.238281 C 20.910156 27.746094 20.800781 27.246094 20.515625 26.835938 C 20.230469 26.425781 19.800781 26.152344 19.308594 26.0625 Z M 19.878906 28.070312 C 19.792969 28.566406 19.316406 28.898438 18.820312 28.808594 C 18.324219 28.71875 17.992188 28.242188 18.078125 27.746094 C 18.121094 27.507812 18.257812 27.296875 18.457031 27.15625 C 18.613281 27.050781 18.792969 26.992188 18.976562 26.992188 C 19.03125 26.992188 19.085938 27 19.140625 27.007812 C 19.378906 27.050781 19.589844 27.183594 19.730469 27.386719 C 19.871094 27.585938 19.921875 27.828125 19.878906 28.070312 Z M 19.878906 28.070312 " fill-opacity="1" fill-rule="nonzero"/><path fill="#0097b2" d="M 19.691406 18.292969 C 20.039062 18.789062 20.46875 19.207031 20.976562 19.535156 C 21.5 19.878906 22.078125 20.105469 22.699219 20.214844 C 22.972656 20.265625 23.25 20.289062 23.523438 20.289062 C 23.867188 20.289062 24.210938 20.25 24.550781 20.175781 C 25.136719 20.039062 25.6875 19.796875 26.183594 19.453125 C 26.683594 19.105469 27.101562 18.671875 27.429688 18.167969 C 27.769531 17.644531 28 17.0625 28.109375 16.445312 C 28.222656 15.824219 28.207031 15.203125 28.070312 14.59375 C 27.933594 14.003906 27.691406 13.453125 27.34375 12.957031 C 27 12.460938 26.566406 12.042969 26.0625 11.710938 C 25.539062 11.371094 24.957031 11.144531 24.339844 11.03125 C 23.71875 10.921875 23.09375 10.9375 22.484375 11.074219 C 21.898438 11.207031 21.347656 11.453125 20.851562 11.796875 C 20.355469 12.144531 19.933594 12.574219 19.605469 13.082031 C 19.265625 13.605469 19.035156 14.183594 18.925781 14.804688 C 18.816406 15.425781 18.828125 16.046875 18.96875 16.65625 C 19.101562 17.246094 19.34375 17.796875 19.691406 18.292969 Z M 19.871094 14.972656 C 20.042969 14 20.585938 13.148438 21.398438 12.585938 C 22.027344 12.144531 22.757812 11.917969 23.511719 11.917969 C 23.730469 11.917969 23.949219 11.9375 24.167969 11.976562 C 25.144531 12.152344 25.992188 12.695312 26.558594 13.503906 C 27.125 14.316406 27.339844 15.300781 27.167969 16.277344 C 26.992188 17.25 26.449219 18.097656 25.636719 18.664062 C 24.824219 19.230469 23.839844 19.445312 22.867188 19.273438 C 21.890625 19.097656 21.042969 18.554688 20.476562 17.742188 C 19.914062 16.929688 19.695312 15.949219 19.871094 14.972656 Z M 19.871094 14.972656 " fill-opacity="1" fill-rule="nonzero"/><path fill="#0097b2" d="M 14.914062 16.441406 C 14.726562 16.550781 14.632812 16.769531 14.6875 16.980469 L 15.105469 18.605469 C 15.160156 18.816406 15.347656 18.964844 15.5625 18.964844 L 16.878906 18.984375 L 17.363281 19.796875 L 16.753906 20.960938 C 16.652344 21.152344 16.691406 21.386719 16.851562 21.535156 L 18.082031 22.679688 C 18.242188 22.824219 18.480469 22.847656 18.664062 22.734375 L 19.777344 22.035156 L 20.625 22.460938 L 20.742188 23.769531 C 20.757812 23.984375 20.921875 24.160156 21.132812 24.199219 L 22.789062 24.492188 C 22.816406 24.5 22.84375 24.5 22.871094 24.5 C 23.054688 24.5 23.226562 24.394531 23.304688 24.226562 L 23.867188 23.039062 L 24.808594 22.933594 L 25.613281 23.972656 C 25.746094 24.144531 25.976562 24.207031 26.175781 24.125 L 27.722656 23.480469 L 27.730469 23.476562 C 27.929688 23.394531 28.046875 23.1875 28.019531 22.972656 L 27.847656 21.667969 L 28.585938 21.074219 L 29.824219 21.511719 C 30.027344 21.585938 30.257812 21.511719 30.378906 21.332031 L 31.335938 19.949219 C 31.457031 19.773438 31.445312 19.535156 31.308594 19.367188 L 30.460938 18.363281 L 30.757812 17.464844 L 32.035156 17.164062 C 32.246094 17.117188 32.398438 16.929688 32.40625 16.714844 L 32.460938 15.035156 C 32.46875 14.820312 32.332031 14.625 32.125 14.558594 L 30.867188 14.175781 L 30.632812 13.257812 L 31.546875 12.3125 C 31.695312 12.15625 31.722656 11.917969 31.613281 11.734375 L 30.753906 10.289062 C 30.640625 10.105469 30.421875 10.015625 30.210938 10.074219 L 28.945312 10.425781 L 28.253906 9.78125 L 28.511719 8.496094 C 28.554688 8.28125 28.449219 8.066406 28.253906 7.972656 L 26.75 7.222656 C 26.554688 7.125 26.320312 7.171875 26.179688 7.332031 L 25.304688 8.3125 L 24.371094 8.148438 L 23.894531 6.925781 C 23.8125 6.722656 23.609375 6.597656 23.394531 6.621094 L 21.722656 6.804688 C 21.507812 6.828125 21.335938 6.992188 21.300781 7.207031 L 21.097656 8.503906 L 20.222656 8.871094 L 19.160156 8.101562 C 18.984375 7.972656 18.746094 7.980469 18.578125 8.117188 L 17.269531 9.171875 C 17.101562 9.308594 17.046875 9.539062 17.132812 9.738281 L 17.664062 10.941406 L 17.125 11.71875 L 15.8125 11.648438 C 15.597656 11.636719 15.398438 11.769531 15.332031 11.976562 L 14.804688 13.570312 C 14.734375 13.777344 14.8125 14.003906 14.992188 14.121094 L 16.089844 14.847656 L 16.058594 15.792969 Z M 16.84375 14.195312 L 15.828125 13.523438 L 16.125 12.625 L 17.339844 12.691406 C 17.507812 12.703125 17.664062 12.625 17.761719 12.488281 L 18.605469 11.265625 C 18.699219 11.128906 18.714844 10.953125 18.648438 10.800781 L 18.15625 9.6875 L 18.894531 9.09375 L 19.878906 9.804688 C 20.015625 9.902344 20.191406 9.921875 20.34375 9.859375 L 21.714844 9.289062 C 21.867188 9.222656 21.976562 9.085938 22.003906 8.917969 L 22.191406 7.71875 L 23.132812 7.617188 L 23.578125 8.746094 C 23.636719 8.902344 23.773438 9.015625 23.9375 9.042969 L 25.402344 9.304688 C 25.566406 9.335938 25.730469 9.277344 25.84375 9.152344 L 26.652344 8.242188 L 27.5 8.667969 L 27.257812 9.859375 C 27.226562 10.023438 27.28125 10.191406 27.402344 10.304688 L 28.492188 11.3125 C 28.613281 11.425781 28.785156 11.46875 28.945312 11.421875 L 30.117188 11.097656 L 30.601562 11.910156 L 29.757812 12.78125 C 29.640625 12.902344 29.59375 13.074219 29.636719 13.234375 L 30.007812 14.671875 C 30.046875 14.835938 30.171875 14.964844 30.328125 15.011719 L 31.492188 15.371094 L 31.460938 16.316406 L 30.277344 16.59375 C 30.113281 16.632812 29.984375 16.75 29.929688 16.910156 L 29.464844 18.320312 C 29.410156 18.476562 29.445312 18.652344 29.554688 18.777344 L 30.335938 19.707031 L 29.800781 20.484375 L 28.652344 20.082031 C 28.496094 20.023438 28.320312 20.054688 28.191406 20.160156 L 27.039062 21.09375 C 26.90625 21.199219 26.839844 21.363281 26.863281 21.527344 L 27.019531 22.734375 L 26.148438 23.097656 L 25.402344 22.136719 C 25.300781 22.003906 25.136719 21.933594 24.972656 21.953125 L 23.496094 22.113281 C 23.328125 22.132812 23.1875 22.234375 23.113281 22.386719 L 22.59375 23.484375 L 21.664062 23.320312 L 21.558594 22.109375 C 21.542969 21.941406 21.441406 21.796875 21.292969 21.722656 L 19.964844 21.058594 C 19.816406 20.984375 19.636719 20.992188 19.496094 21.082031 L 18.464844 21.726562 L 17.773438 21.082031 L 18.335938 20.003906 C 18.414062 19.859375 18.410156 19.679688 18.324219 19.539062 L 17.5625 18.261719 C 17.480469 18.117188 17.324219 18.03125 17.160156 18.027344 L 15.941406 18.011719 L 15.707031 17.09375 L 16.765625 16.496094 C 16.910156 16.414062 17 16.261719 17.007812 16.09375 L 17.058594 14.609375 C 17.0625 14.445312 16.980469 14.285156 16.84375 14.195312 Z M 16.84375 14.195312 " fill-opacity="1" fill-rule="nonzero"/><g clip-path="url(#9540574683)"><path fill="#0097b2" d="M 36.332031 18.5 C 36.332031 16.089844 35.859375 13.757812 34.929688 11.558594 C 34.484375 10.5 33.929688 9.480469 33.285156 8.527344 C 32.648438 7.582031 31.914062 6.695312 31.109375 5.890625 C 30.300781 5.082031 29.414062 4.351562 28.46875 3.710938 C 27.515625 3.066406 26.496094 2.515625 25.441406 2.066406 C 23.242188 1.136719 20.90625 0.664062 18.5 0.664062 C 16.285156 0.664062 14.125 1.066406 12.078125 1.855469 C 10.101562 2.617188 8.292969 3.71875 6.695312 5.128906 C 6.5 5.304688 6.480469 5.609375 6.65625 5.804688 C 6.832031 6.003906 7.132812 6.023438 7.332031 5.847656 C 8.839844 4.515625 10.554688 3.472656 12.425781 2.75 C 14.359375 2.003906 16.40625 1.625 18.5 1.625 C 20.777344 1.625 22.988281 2.070312 25.066406 2.949219 C 26.066406 3.375 27.03125 3.898438 27.933594 4.507812 C 28.824219 5.109375 29.667969 5.804688 30.429688 6.566406 C 31.195312 7.332031 31.886719 8.171875 32.492188 9.066406 C 33.101562 9.964844 33.625 10.929688 34.046875 11.929688 C 34.925781 14.011719 35.371094 16.21875 35.371094 18.5 C 35.371094 20.398438 35.058594 22.261719 34.441406 24.035156 C 33.949219 25.460938 33.265625 26.804688 32.410156 28.050781 L 32.253906 27.085938 C 32.210938 26.824219 31.964844 26.648438 31.703125 26.6875 C 31.441406 26.730469 31.265625 26.976562 31.308594 27.238281 L 31.636719 29.253906 C 31.675781 29.492188 31.878906 29.65625 32.109375 29.65625 C 32.136719 29.65625 32.160156 29.65625 32.1875 29.652344 L 34.203125 29.320312 C 34.464844 29.277344 34.640625 29.03125 34.597656 28.769531 C 34.554688 28.511719 34.308594 28.332031 34.046875 28.375 L 33.261719 28.503906 C 34.136719 27.214844 34.835938 25.824219 35.347656 24.351562 C 36 22.472656 36.332031 20.503906 36.332031 18.5 Z M 36.332031 18.5 " fill-opacity="1" fill-rule="nonzero"/></g><g clip-path="url(#7ce53f59c1)"><path fill="#0097b2" d="M 30.625 30.230469 C 29.859375 31.023438 29.011719 31.746094 28.105469 32.371094 C 27.191406 33.007812 26.214844 33.550781 25.195312 33.992188 C 24.160156 34.4375 23.074219 34.785156 21.96875 35.015625 C 20.835938 35.253906 19.667969 35.371094 18.5 35.371094 C 16.21875 35.371094 14.011719 34.925781 11.929688 34.046875 C 10.929688 33.625 9.96875 33.101562 9.066406 32.492188 C 8.171875 31.886719 7.332031 31.195312 6.566406 30.429688 C 5.804688 29.667969 5.109375 28.828125 4.507812 27.933594 C 3.898438 27.03125 3.375 26.066406 2.949219 25.066406 C 2.070312 22.988281 1.625 20.777344 1.625 18.5 C 1.625 16.410156 2.003906 14.371094 2.746094 12.4375 C 3.332031 10.914062 4.132812 9.496094 5.128906 8.203125 L 5.128906 8.953125 C 5.128906 9.21875 5.34375 9.429688 5.609375 9.429688 C 5.871094 9.429688 6.085938 9.21875 6.085938 8.953125 L 6.085938 6.910156 C 6.085938 6.644531 5.871094 6.429688 5.609375 6.429688 L 3.566406 6.429688 C 3.300781 6.429688 3.085938 6.644531 3.085938 6.910156 C 3.085938 7.175781 3.300781 7.390625 3.566406 7.390625 L 4.546875 7.390625 C 3.410156 8.8125 2.507812 10.390625 1.851562 12.09375 C 1.066406 14.136719 0.664062 16.289062 0.664062 18.5 C 0.664062 20.90625 1.136719 23.242188 2.066406 25.441406 C 2.515625 26.496094 3.066406 27.515625 3.710938 28.46875 C 4.351562 29.414062 5.082031 30.300781 5.890625 31.109375 C 6.695312 31.914062 7.582031 32.648438 8.527344 33.285156 C 9.480469 33.929688 10.5 34.484375 11.558594 34.929688 C 13.757812 35.859375 16.089844 36.332031 18.5 36.332031 C 19.734375 36.332031 20.96875 36.203125 22.167969 35.953125 C 23.335938 35.710938 24.484375 35.34375 25.578125 34.871094 C 26.652344 34.40625 27.6875 33.828125 28.652344 33.160156 C 29.609375 32.496094 30.503906 31.734375 31.316406 30.898438 C 31.5 30.707031 31.492188 30.40625 31.304688 30.21875 C 31.113281 30.035156 30.808594 30.042969 30.625 30.230469 Z M 30.625 30.230469 " fill-opacity="1" fill-rule="nonzero"/></g><path fill="#0097b2" d="M 22.320312 17.734375 C 22.414062 17.828125 22.535156 17.875 22.660156 17.875 C 22.78125 17.875 22.90625 17.828125 22.996094 17.734375 L 25.816406 14.917969 C 26.003906 14.730469 26.003906 14.425781 25.816406 14.238281 C 25.628906 14.050781 25.324219 14.050781 25.136719 14.238281 L 22.660156 16.71875 L 21.574219 15.632812 C 21.386719 15.445312 21.082031 15.445312 20.894531 15.632812 C 20.707031 15.820312 20.707031 16.125 20.894531 16.3125 Z M 22.320312 17.734375 " fill-opacity="1" fill-rule="nonzero"/></svg>