<svg xmlns="http://www.w3.org/2000/svg" xmlns:xlink="http://www.w3.org/1999/xlink" width="50" zoomAndPan="magnify" viewBox="0 0 37.5 37.499999" height="50" preserveAspectRatio="xMidYMid meet" version="1.0"><defs><clipPath id="8035400b53"><path d="M 1.042969 6.238281 L 35.828125 6.238281 L 35.828125 31.402344 L 1.042969 31.402344 Z M 1.042969 6.238281 " clip-rule="nonzero"/></clipPath><clipPath id="eb23e0d2b4"><path d="M 28 10 L 35.828125 10 L 35.828125 25 L 28 25 Z M 28 10 " clip-rule="nonzero"/></clipPath></defs><g clip-path="url(#8035400b53)"><path fill="#ffffff" d="M 33.941406 6.238281 L 2.664062 6.238281 C 2.449219 6.238281 2.242188 6.28125 2.046875 6.363281 C 1.847656 6.445312 1.671875 6.5625 1.519531 6.710938 C 1.367188 6.863281 1.253906 7.039062 1.171875 7.238281 C 1.085938 7.433594 1.046875 7.640625 1.046875 7.855469 L 1.046875 27.269531 C 1.046875 27.484375 1.085938 27.691406 1.171875 27.886719 C 1.253906 28.085938 1.367188 28.261719 1.519531 28.414062 C 1.671875 28.566406 1.847656 28.679688 2.046875 28.765625 C 2.242188 28.847656 2.449219 28.886719 2.664062 28.886719 L 16.144531 28.886719 L 16.144531 29.964844 L 13.179688 29.964844 C 13.03125 29.964844 12.902344 30.019531 12.796875 30.125 C 12.691406 30.230469 12.640625 30.355469 12.640625 30.503906 C 12.640625 30.652344 12.691406 30.78125 12.796875 30.886719 C 12.902344 30.992188 13.03125 31.042969 13.179688 31.042969 L 23.425781 31.042969 C 23.574219 31.042969 23.703125 30.992188 23.808594 30.886719 C 23.914062 30.78125 23.964844 30.652344 23.964844 30.503906 C 23.964844 30.355469 23.914062 30.230469 23.808594 30.125 C 23.703125 30.019531 23.574219 29.964844 23.425781 29.964844 L 20.460938 29.964844 L 20.460938 28.886719 L 33.941406 28.886719 C 34.15625 28.886719 34.363281 28.847656 34.558594 28.765625 C 34.757812 28.679688 34.933594 28.566406 35.085938 28.414062 C 35.238281 28.261719 35.351562 28.085938 35.433594 27.886719 C 35.519531 27.691406 35.558594 27.484375 35.558594 27.269531 L 35.558594 25.519531 C 35.355469 25.609375 35.140625 25.652344 34.921875 25.652344 L 26.929688 25.652344 L 26.929688 8.933594 C 26.929688 8.785156 26.878906 8.660156 26.773438 8.554688 C 26.667969 8.449219 26.539062 8.394531 26.390625 8.394531 C 26.242188 8.394531 26.117188 8.449219 26.011719 8.554688 C 25.90625 8.660156 25.851562 8.785156 25.851562 8.933594 L 25.851562 25.652344 L 22.617188 25.652344 L 22.617188 14.328125 C 22.617188 14.179688 22.5625 14.050781 22.457031 13.945312 C 22.355469 13.839844 22.226562 13.789062 22.078125 13.789062 C 21.929688 13.789062 21.800781 13.839844 21.695312 13.945312 C 21.589844 14.050781 21.539062 14.179688 21.539062 14.328125 L 21.539062 25.652344 L 18.304688 25.652344 L 18.304688 18.101562 C 18.304688 17.953125 18.25 17.824219 18.144531 17.722656 C 18.039062 17.617188 17.914062 17.5625 17.761719 17.5625 C 17.613281 17.5625 17.488281 17.617188 17.382812 17.722656 C 17.277344 17.824219 17.222656 17.953125 17.222656 18.101562 L 17.222656 25.652344 L 13.988281 25.652344 L 13.988281 20.796875 C 13.988281 20.648438 13.9375 20.523438 13.832031 20.417969 C 13.726562 20.3125 13.597656 20.257812 13.449219 20.257812 C 13.300781 20.257812 13.171875 20.3125 13.066406 20.417969 C 12.960938 20.523438 12.910156 20.648438 12.910156 20.796875 L 12.910156 25.652344 L 9.675781 25.652344 L 9.675781 23.496094 C 9.675781 23.347656 9.621094 23.21875 9.515625 23.113281 C 9.410156 23.007812 9.285156 22.957031 9.136719 22.957031 C 8.988281 22.957031 8.859375 23.007812 8.753906 23.113281 C 8.648438 23.21875 8.597656 23.347656 8.597656 23.496094 L 8.597656 25.652344 L 5.359375 25.652344 L 5.359375 24.574219 C 5.359375 24.425781 5.308594 24.296875 5.203125 24.191406 C 5.097656 24.085938 4.96875 24.035156 4.820312 24.035156 C 4.671875 24.035156 4.546875 24.085938 4.441406 24.191406 C 4.335938 24.296875 4.28125 24.425781 4.28125 24.574219 L 4.28125 25.652344 L 2.125 25.652344 L 2.125 7.855469 C 2.125 7.707031 2.179688 7.582031 2.28125 7.476562 C 2.386719 7.371094 2.515625 7.316406 2.664062 7.316406 L 33.941406 7.316406 C 34.089844 7.316406 34.21875 7.371094 34.324219 7.476562 C 34.425781 7.582031 34.480469 7.707031 34.480469 7.855469 L 34.480469 10.132812 C 34.726562 10.535156 34.851562 10.972656 34.847656 11.445312 L 34.84375 12.175781 C 35.101562 12.25 35.339844 12.367188 35.558594 12.523438 L 35.558594 7.855469 C 35.558594 7.640625 35.519531 7.433594 35.433594 7.238281 C 35.351562 7.039062 35.238281 6.863281 35.085938 6.710938 C 34.933594 6.5625 34.757812 6.445312 34.558594 6.363281 C 34.363281 6.28125 34.15625 6.238281 33.941406 6.238281 Z M 19.382812 28.886719 L 19.382812 29.964844 L 17.222656 29.964844 L 17.222656 28.886719 Z M 33.941406 27.808594 L 2.664062 27.808594 C 2.515625 27.808594 2.386719 27.757812 2.28125 27.652344 C 2.179688 27.546875 2.125 27.417969 2.125 27.269531 L 2.125 26.730469 L 34.480469 26.730469 L 34.480469 27.269531 C 34.480469 27.417969 34.425781 27.546875 34.324219 27.652344 C 34.21875 27.757812 34.089844 27.808594 33.941406 27.808594 Z M 33.941406 27.808594 " fill-opacity="1" fill-rule="nonzero"/></g><g clip-path="url(#eb23e0d2b4)"><path fill="#ffffff" d="M 34.136719 13.152344 C 34.007812 13.152344 33.878906 13.171875 33.757812 13.207031 L 33.769531 11.4375 C 33.773438 11.046875 33.636719 10.710938 33.359375 10.433594 C 33.15625 10.230469 32.914062 10.101562 32.628906 10.042969 C 32.347656 9.984375 32.074219 10.011719 31.804688 10.117188 C 31.539062 10.226562 31.324219 10.398438 31.160156 10.636719 C 30.996094 10.875 30.914062 11.140625 30.910156 11.425781 L 30.875 16.636719 C 30.394531 16.066406 29.765625 15.644531 29.015625 15.894531 C 28.644531 16.011719 28.367188 16.238281 28.179688 16.578125 C 27.820312 17.269531 28.023438 18.207031 28.785156 19.359375 L 30.847656 23.058594 C 31.105469 23.523438 31.464844 23.890625 31.921875 24.160156 C 32.378906 24.429688 32.875 24.566406 33.40625 24.570312 C 33.40625 24.570312 35.019531 24.574219 35.019531 24.574219 C 35.167969 24.574219 35.296875 24.519531 35.402344 24.414062 C 35.507812 24.3125 35.558594 24.183594 35.558594 24.035156 C 35.558594 23.886719 35.507812 23.757812 35.402344 23.652344 C 35.296875 23.546875 35.171875 23.496094 35.019531 23.496094 L 33.410156 23.488281 C 33.070312 23.488281 32.757812 23.402344 32.46875 23.230469 C 32.179688 23.058594 31.953125 22.824219 31.789062 22.53125 L 29.714844 18.816406 C 29.710938 18.804688 29.703125 18.792969 29.695312 18.78125 C 29.097656 17.882812 29.015625 17.3125 29.136719 17.078125 C 29.1875 16.996094 29.261719 16.945312 29.355469 16.917969 C 29.503906 16.890625 29.636719 16.925781 29.75 17.027344 C 29.914062 17.160156 30.058594 17.3125 30.175781 17.488281 C 30.46875 17.910156 30.707031 18.363281 30.890625 18.84375 C 30.9375 18.964844 31.015625 19.058594 31.128906 19.125 C 31.242188 19.191406 31.359375 19.214844 31.488281 19.199219 C 31.617188 19.175781 31.71875 19.113281 31.804688 19.019531 C 31.886719 18.921875 31.933594 18.8125 31.941406 18.683594 C 31.941406 18.679688 31.941406 18.675781 31.941406 18.671875 L 31.988281 11.433594 C 31.992188 11.28125 32.070312 11.175781 32.210938 11.117188 C 32.355469 11.058594 32.484375 11.085938 32.59375 11.195312 C 32.660156 11.257812 32.691406 11.335938 32.691406 11.429688 L 32.644531 18.128906 C 32.640625 18.277344 32.691406 18.402344 32.796875 18.511719 C 32.902344 18.617188 33.027344 18.667969 33.179688 18.671875 C 33.328125 18.671875 33.453125 18.621094 33.558594 18.515625 C 33.667969 18.410156 33.71875 18.285156 33.722656 18.136719 L 33.746094 14.613281 C 33.753906 14.511719 33.796875 14.421875 33.871094 14.351562 C 33.945312 14.277344 34.03125 14.238281 34.136719 14.230469 C 34.234375 14.230469 34.316406 14.265625 34.382812 14.332031 C 34.449219 14.398438 34.480469 14.480469 34.480469 14.574219 L 34.480469 18.101562 C 34.480469 18.25 34.53125 18.378906 34.636719 18.484375 C 34.742188 18.589844 34.871094 18.640625 35.019531 18.640625 C 35.167969 18.640625 35.296875 18.589844 35.402344 18.484375 C 35.507812 18.378906 35.558594 18.25 35.558594 18.101562 L 35.558594 14.574219 C 35.5625 14.183594 35.425781 13.851562 35.148438 13.574219 C 34.871094 13.292969 34.53125 13.152344 34.136719 13.152344 Z M 34.136719 13.152344 " fill-opacity="1" fill-rule="nonzero"/></g><path fill="#ffffff" d="M 9.027344 12.332031 C 9.097656 12.347656 9.171875 12.347656 9.246094 12.332031 C 9.382812 12.335938 9.519531 12.351562 9.65625 12.375 C 9.980469 12.445312 10.269531 12.59375 10.515625 12.816406 C 10.761719 13.039062 10.9375 13.308594 11.042969 13.625 C 11.082031 13.769531 11.164062 13.878906 11.296875 13.953125 C 11.425781 14.027344 11.5625 14.042969 11.707031 14.003906 C 11.851562 13.964844 11.957031 13.878906 12.03125 13.75 C 12.105469 13.617188 12.121094 13.480469 12.082031 13.335938 C 11.921875 12.824219 11.640625 12.390625 11.242188 12.027344 C 10.847656 11.664062 10.386719 11.429688 9.859375 11.316406 C 9.800781 11.304688 9.738281 11.292969 9.675781 11.285156 L 9.675781 10.28125 C 9.675781 10.132812 9.621094 10.007812 9.515625 9.902344 C 9.410156 9.796875 9.285156 9.742188 9.136719 9.742188 C 8.988281 9.742188 8.859375 9.796875 8.753906 9.902344 C 8.648438 10.007812 8.597656 10.132812 8.597656 10.28125 L 8.597656 11.289062 C 7.824219 11.371094 7.21875 11.734375 6.785156 12.375 C 6.558594 12.742188 6.445312 13.140625 6.445312 13.574219 C 6.445312 14.003906 6.554688 14.402344 6.78125 14.769531 C 7.300781 15.648438 8.242188 15.921875 9.074219 16.164062 C 10 16.429688 10.574219 16.628906 10.773438 17.253906 C 10.953125 17.835938 10.53125 18.320312 10.0625 18.523438 C 9.484375 18.757812 8.910156 18.742188 8.34375 18.480469 C 7.796875 18.253906 7.421875 17.859375 7.21875 17.304688 C 7.171875 17.164062 7.082031 17.058594 6.949219 16.996094 C 6.816406 16.929688 6.675781 16.917969 6.535156 16.96875 C 6.394531 17.015625 6.292969 17.105469 6.226562 17.238281 C 6.160156 17.371094 6.152344 17.507812 6.199219 17.648438 C 6.503906 18.503906 7.070312 19.109375 7.90625 19.464844 C 8.128906 19.566406 8.359375 19.640625 8.597656 19.6875 L 8.597656 20.527344 C 8.597656 20.679688 8.648438 20.804688 8.753906 20.910156 C 8.859375 21.015625 8.988281 21.066406 9.136719 21.066406 C 9.285156 21.066406 9.410156 21.015625 9.515625 20.910156 C 9.621094 20.804688 9.675781 20.679688 9.675781 20.527344 L 9.675781 19.734375 C 9.957031 19.699219 10.230469 19.625 10.492188 19.511719 C 11.417969 19.109375 12.164062 18.09375 11.800781 16.933594 C 11.421875 15.71875 10.285156 15.390625 9.375 15.125 C 8.675781 14.921875 8.011719 14.730469 7.707031 14.21875 C 7.585938 14.027344 7.527344 13.816406 7.523438 13.589844 C 7.519531 13.363281 7.578125 13.152344 7.691406 12.957031 C 8.03125 12.519531 8.472656 12.3125 9.027344 12.332031 Z M 9.027344 12.332031 " fill-opacity="1" fill-rule="nonzero"/></svg>