<svg xmlns="http://www.w3.org/2000/svg" xmlns:xlink="http://www.w3.org/1999/xlink" width="50" zoomAndPan="magnify" viewBox="0 0 37.5 37.499999" height="50" preserveAspectRatio="xMidYMid meet" version="1.0"><defs><clipPath id="b8f0689b05"><path d="M 1.40625 0.667969 L 19 0.667969 L 19 19 L 1.40625 19 Z M 1.40625 0.667969 " clip-rule="nonzero"/></clipPath><clipPath id="463790df13"><path d="M 1.40625 0.667969 L 36.191406 0.667969 L 36.191406 27 L 1.40625 27 Z M 1.40625 0.667969 " clip-rule="nonzero"/></clipPath><clipPath id="726ac0a435"><path d="M 5 29 L 11 29 L 11 35.453125 L 5 35.453125 Z M 5 29 " clip-rule="nonzero"/></clipPath><clipPath id="aa018184fa"><path d="M 11 27 L 17 27 L 17 35.453125 L 11 35.453125 Z M 11 27 " clip-rule="nonzero"/></clipPath><clipPath id="539cec63a7"><path d="M 18 25 L 23 25 L 23 35.453125 L 18 35.453125 Z M 18 25 " clip-rule="nonzero"/></clipPath><clipPath id="b07152243f"><path d="M 24 21 L 30 21 L 30 35.453125 L 24 35.453125 Z M 24 21 " clip-rule="nonzero"/></clipPath><clipPath id="d5fa981678"><path d="M 31 16 L 36 16 L 36 35.453125 L 31 35.453125 Z M 31 16 " clip-rule="nonzero"/></clipPath></defs><g clip-path="url(#b8f0689b05)"><path fill="#ffffff" d="M 2.003906 11.222656 L 3.453125 11.328125 C 3.605469 11.882812 3.828125 12.421875 4.117188 12.925781 L 3.164062 14.027344 C 2.964844 14.257812 2.976562 14.601562 3.191406 14.816406 L 4.832031 16.457031 C 5.050781 16.675781 5.394531 16.683594 5.625 16.484375 L 6.722656 15.53125 C 7.230469 15.824219 7.765625 16.046875 8.324219 16.199219 L 8.425781 17.648438 C 8.449219 17.953125 8.703125 18.1875 9.007812 18.1875 L 11.328125 18.1875 C 11.628906 18.1875 11.882812 17.953125 11.90625 17.648438 L 12.007812 16.199219 C 12.566406 16.046875 13.101562 15.824219 13.609375 15.53125 L 14.710938 16.484375 C 14.9375 16.683594 15.285156 16.675781 15.5 16.457031 L 17.140625 14.816406 C 17.355469 14.601562 17.367188 14.257812 17.167969 14.027344 L 16.214844 12.925781 C 16.503906 12.421875 16.726562 11.882812 16.882812 11.328125 L 18.328125 11.222656 C 18.632812 11.203125 18.867188 10.949219 18.867188 10.644531 L 18.867188 8.324219 C 18.867188 8.019531 18.632812 7.765625 18.328125 7.746094 L 16.882812 7.640625 C 16.726562 7.085938 16.503906 6.546875 16.214844 6.042969 L 17.167969 4.941406 C 17.367188 4.710938 17.355469 4.367188 17.140625 4.152344 L 15.5 2.511719 C 15.285156 2.296875 14.9375 2.285156 14.710938 2.484375 L 13.609375 3.4375 C 13.101562 3.144531 12.566406 2.921875 12.007812 2.769531 L 11.90625 1.320312 C 11.882812 1.015625 11.628906 0.78125 11.328125 0.78125 L 9.007812 0.78125 C 8.703125 0.78125 8.449219 1.015625 8.425781 1.320312 L 8.324219 2.769531 C 7.765625 2.921875 7.230469 3.144531 6.722656 3.4375 L 5.625 2.484375 C 5.382812 2.273438 5.015625 2.300781 4.804688 2.542969 C 4.59375 2.78125 4.621094 3.148438 4.863281 3.359375 L 6.285156 4.589844 C 6.480469 4.761719 6.765625 4.78125 6.984375 4.636719 C 7.601562 4.230469 8.277344 3.949219 8.988281 3.804688 C 9.246094 3.75 9.433594 3.535156 9.453125 3.277344 L 9.546875 1.941406 L 10.785156 1.941406 L 10.882812 3.277344 C 10.898438 3.535156 11.089844 3.75 11.34375 3.800781 C 12.054688 3.949219 12.730469 4.230469 13.347656 4.636719 C 13.566406 4.78125 13.851562 4.761719 14.046875 4.589844 L 15.0625 3.710938 L 15.9375 4.589844 L 15.0625 5.601562 C 14.890625 5.796875 14.871094 6.085938 15.015625 6.300781 C 15.421875 6.917969 15.703125 7.59375 15.847656 8.308594 C 15.902344 8.5625 16.117188 8.75 16.375 8.769531 L 17.707031 8.863281 L 17.707031 10.105469 L 16.375 10.199219 C 16.117188 10.21875 15.902344 10.40625 15.847656 10.660156 C 15.703125 11.375 15.421875 12.050781 15.015625 12.667969 C 14.871094 12.882812 14.890625 13.167969 15.0625 13.367188 L 15.9375 14.378906 L 15.0625 15.257812 L 14.046875 14.378906 C 13.851562 14.207031 13.566406 14.1875 13.347656 14.332031 C 12.730469 14.738281 12.054688 15.019531 11.34375 15.167969 C 11.089844 15.21875 10.898438 15.433594 10.882812 15.691406 L 10.785156 17.027344 L 9.546875 17.027344 L 9.453125 15.691406 C 9.433594 15.433594 9.242188 15.21875 8.988281 15.167969 C 8.277344 15.019531 7.601562 14.738281 6.984375 14.332031 C 6.765625 14.1875 6.480469 14.207031 6.285156 14.378906 L 5.273438 15.257812 L 4.394531 14.378906 L 5.273438 13.367188 C 5.441406 13.171875 5.460938 12.882812 5.320312 12.667969 C 4.910156 12.050781 4.632812 11.375 4.484375 10.660156 C 4.433594 10.40625 4.21875 10.21875 3.957031 10.199219 L 2.625 10.105469 L 2.625 8.863281 L 3.957031 8.769531 C 4.21875 8.75 4.433594 8.5625 4.484375 8.308594 C 4.632812 7.59375 4.910156 6.917969 5.320312 6.300781 C 5.460938 6.085938 5.441406 5.800781 5.273438 5.601562 L 4.042969 4.183594 C 3.832031 3.9375 3.464844 3.914062 3.222656 4.125 C 2.980469 4.332031 2.953125 4.699219 3.164062 4.941406 L 4.117188 6.042969 C 3.828125 6.546875 3.605469 7.082031 3.453125 7.640625 L 2.003906 7.746094 C 1.699219 7.765625 1.464844 8.019531 1.464844 8.324219 L 1.464844 10.644531 C 1.464844 10.949219 1.699219 11.203125 2.003906 11.222656 Z M 2.003906 11.222656 " fill-opacity="1" fill-rule="nonzero"/></g><path fill="#ffffff" d="M 10.167969 14.125 C 12.726562 14.125 14.808594 12.042969 14.808594 9.484375 C 14.808594 6.925781 12.726562 4.84375 10.167969 4.84375 C 7.609375 4.84375 5.523438 6.925781 5.523438 9.484375 C 5.523438 12.042969 7.609375 14.125 10.167969 14.125 Z M 9.585938 6.054688 L 9.585938 6.582031 C 9.585938 6.902344 9.847656 7.164062 10.167969 7.164062 C 10.488281 7.164062 10.746094 6.902344 10.746094 6.582031 L 10.746094 6.054688 C 12.199219 6.300781 13.347656 7.449219 13.59375 8.902344 L 13.066406 8.902344 C 12.746094 8.902344 12.488281 9.164062 12.488281 9.484375 C 12.488281 9.804688 12.746094 10.066406 13.066406 10.066406 L 13.59375 10.066406 C 13.351562 11.519531 12.199219 12.667969 10.746094 12.914062 L 10.746094 12.386719 C 10.746094 12.066406 10.488281 11.804688 10.167969 11.804688 C 9.847656 11.804688 9.585938 12.066406 9.585938 12.386719 L 9.585938 12.914062 C 8.132812 12.667969 6.984375 11.519531 6.738281 10.066406 L 7.265625 10.066406 C 7.585938 10.066406 7.847656 9.804688 7.847656 9.484375 C 7.847656 9.164062 7.585938 8.902344 7.265625 8.902344 L 6.738281 8.902344 C 6.984375 7.449219 8.132812 6.300781 9.585938 6.054688 Z M 9.585938 6.054688 " fill-opacity="1" fill-rule="nonzero"/><path fill="#ffffff" d="M 10.917969 11.054688 C 11.03125 11.167969 11.179688 11.226562 11.328125 11.226562 C 11.476562 11.226562 11.625 11.167969 11.738281 11.054688 C 11.964844 10.828125 11.964844 10.460938 11.738281 10.234375 L 10.746094 9.246094 L 10.746094 8.324219 C 10.746094 8.003906 10.488281 7.742188 10.167969 7.742188 C 9.847656 7.742188 9.585938 8.003906 9.585938 8.324219 L 9.585938 9.484375 C 9.585938 9.636719 9.648438 9.785156 9.757812 9.894531 Z M 10.917969 11.054688 " fill-opacity="1" fill-rule="nonzero"/><g clip-path="url(#463790df13)"><path fill="#ffffff" d="M 35.464844 1.191406 C 34.957031 0.808594 34.292969 0.6875 33.683594 0.859375 L 25.5625 3.179688 C 24.488281 3.488281 23.859375 4.613281 24.167969 5.691406 C 24.476562 6.765625 25.601562 7.390625 26.679688 7.085938 L 29.648438 6.238281 L 27.257812 9.722656 C 25.917969 11.671875 24.34375 13.46875 22.578125 15.058594 C 22.339844 15.273438 22.320312 15.640625 22.535156 15.878906 C 22.75 16.117188 23.117188 16.132812 23.355469 15.921875 C 25.191406 14.269531 26.824219 12.40625 28.214844 10.378906 L 31.515625 5.566406 C 31.652344 5.363281 31.652344 5.097656 31.507812 4.898438 C 31.363281 4.699219 31.113281 4.613281 30.878906 4.679688 L 26.359375 5.96875 C 25.898438 6.101562 25.414062 5.832031 25.285156 5.375 C 25.152344 4.914062 25.421875 4.429688 25.882812 4.296875 L 34.003906 1.976562 C 34.261719 1.902344 34.550781 1.957031 34.765625 2.117188 C 34.984375 2.28125 35.113281 2.539062 35.113281 2.8125 L 35.113281 11.515625 C 35.113281 11.996094 34.722656 12.386719 34.242188 12.386719 C 33.761719 12.386719 33.371094 11.996094 33.371094 11.515625 L 33.371094 7.804688 C 33.371094 7.550781 33.207031 7.328125 32.964844 7.253906 C 32.722656 7.175781 32.457031 7.269531 32.3125 7.480469 L 29.648438 11.363281 C 23.738281 19.984375 13.972656 25.355469 3.496094 25.730469 C 3.023438 25.730469 2.640625 25.359375 2.625 24.890625 C 2.609375 24.410156 2.984375 24.003906 3.464844 23.988281 C 9.933594 23.757812 16.351562 21.425781 21.53125 17.425781 C 21.785156 17.230469 21.832031 16.867188 21.636719 16.613281 C 21.441406 16.359375 21.078125 16.3125 20.824219 16.507812 C 15.832031 20.363281 9.652344 22.605469 3.421875 22.828125 C 2.878906 22.847656 2.378906 23.078125 2.007812 23.472656 C 1.640625 23.871094 1.445312 24.386719 1.464844 24.929688 C 1.503906 26.027344 2.394531 26.890625 3.496094 26.890625 C 3.5 26.890625 3.5625 26.886719 3.566406 26.886719 C 14.378906 26.5 24.488281 20.945312 30.605469 12.019531 L 32.210938 9.679688 L 32.210938 11.515625 C 32.210938 12.632812 33.121094 13.546875 34.242188 13.546875 C 35.363281 13.546875 36.273438 12.632812 36.273438 11.515625 L 36.273438 2.8125 C 36.273438 2.179688 35.972656 1.574219 35.464844 1.191406 Z M 35.464844 1.191406 " fill-opacity="1" fill-rule="nonzero"/></g><g clip-path="url(#726ac0a435)"><path fill="#ffffff" d="M 9.585938 29.789062 L 6.105469 29.789062 C 5.785156 29.789062 5.523438 30.050781 5.523438 30.371094 L 5.523438 35.011719 C 5.523438 35.332031 5.785156 35.589844 6.105469 35.589844 L 9.585938 35.589844 C 9.90625 35.589844 10.167969 35.332031 10.167969 35.011719 L 10.167969 30.371094 C 10.167969 30.050781 9.90625 29.789062 9.585938 29.789062 Z M 9.007812 34.429688 L 6.6875 34.429688 L 6.6875 30.949219 L 9.007812 30.949219 Z M 9.007812 34.429688 " fill-opacity="1" fill-rule="nonzero"/></g><g clip-path="url(#aa018184fa)"><path fill="#ffffff" d="M 15.96875 27.46875 L 12.488281 27.46875 C 12.167969 27.46875 11.90625 27.730469 11.90625 28.050781 L 11.90625 35.011719 C 11.90625 35.332031 12.167969 35.589844 12.488281 35.589844 L 15.96875 35.589844 C 16.289062 35.589844 16.546875 35.332031 16.546875 35.011719 L 16.546875 28.050781 C 16.546875 27.730469 16.289062 27.46875 15.96875 27.46875 Z M 15.386719 34.429688 L 13.066406 34.429688 L 13.066406 28.628906 L 15.386719 28.628906 Z M 15.386719 34.429688 " fill-opacity="1" fill-rule="nonzero"/></g><g clip-path="url(#539cec63a7)"><path fill="#ffffff" d="M 22.351562 25.148438 L 18.867188 25.148438 C 18.546875 25.148438 18.289062 25.410156 18.289062 25.730469 L 18.289062 35.011719 C 18.289062 35.332031 18.546875 35.589844 18.867188 35.589844 L 22.351562 35.589844 C 22.671875 35.589844 22.929688 35.332031 22.929688 35.011719 L 22.929688 32.691406 C 22.929688 32.371094 22.671875 32.109375 22.351562 32.109375 C 22.027344 32.109375 21.769531 32.371094 21.769531 32.691406 L 21.769531 34.429688 L 19.449219 34.429688 L 19.449219 26.308594 L 21.769531 26.308594 L 21.769531 30.371094 C 21.769531 30.691406 22.027344 30.949219 22.351562 30.949219 C 22.671875 30.949219 22.929688 30.691406 22.929688 30.371094 L 22.929688 25.730469 C 22.929688 25.410156 22.671875 25.148438 22.351562 25.148438 Z M 22.351562 25.148438 " fill-opacity="1" fill-rule="nonzero"/></g><g clip-path="url(#b07152243f)"><path fill="#ffffff" d="M 28.730469 21.085938 L 25.25 21.085938 C 24.929688 21.085938 24.671875 21.347656 24.671875 21.667969 L 24.671875 35.011719 C 24.671875 35.332031 24.929688 35.589844 25.25 35.589844 L 28.730469 35.589844 C 29.050781 35.589844 29.3125 35.332031 29.3125 35.011719 L 29.3125 21.667969 C 29.3125 21.347656 29.050781 21.085938 28.730469 21.085938 Z M 28.152344 34.429688 L 25.832031 34.429688 L 25.832031 22.246094 L 28.152344 22.246094 Z M 28.152344 34.429688 " fill-opacity="1" fill-rule="nonzero"/></g><g clip-path="url(#d5fa981678)"><path fill="#ffffff" d="M 35.113281 16.445312 L 31.632812 16.445312 C 31.3125 16.445312 31.050781 16.707031 31.050781 17.027344 L 31.050781 35.011719 C 31.050781 35.332031 31.3125 35.589844 31.632812 35.589844 L 35.113281 35.589844 C 35.433594 35.589844 35.691406 35.332031 35.691406 35.011719 L 35.691406 25.148438 C 35.691406 24.828125 35.433594 24.566406 35.113281 24.566406 C 34.792969 24.566406 34.53125 24.828125 34.53125 25.148438 L 34.53125 34.429688 L 32.210938 34.429688 L 32.210938 17.605469 L 34.53125 17.605469 L 34.53125 22.828125 C 34.53125 23.148438 34.792969 23.40625 35.113281 23.40625 C 35.433594 23.40625 35.691406 23.148438 35.691406 22.828125 L 35.691406 17.027344 C 35.691406 16.707031 35.433594 16.445312 35.113281 16.445312 Z M 35.113281 16.445312 " fill-opacity="1" fill-rule="nonzero"/></g></svg>