<svg xmlns="http://www.w3.org/2000/svg" xmlns:xlink="http://www.w3.org/1999/xlink" width="50" zoomAndPan="magnify" viewBox="0 0 37.5 37.499999" height="50" preserveAspectRatio="xMidYMid meet" version="1.0"><defs><clipPath id="c0012049b2"><path d="M 3.699219 1.011719 L 26 1.011719 L 26 31 L 3.699219 31 Z M 3.699219 1.011719 " clip-rule="nonzero"/></clipPath><clipPath id="8227435945"><path d="M 18 18 L 33.304688 18 L 33.304688 35.800781 L 18 35.800781 Z M 18 18 " clip-rule="nonzero"/></clipPath></defs><g clip-path="url(#c0012049b2)"><path fill="#ff5757" d="M 7.007812 17.371094 C 5.402344 19.398438 4.351562 22.101562 3.886719 25.402344 C 3.792969 26.070312 3.84375 26.726562 4.039062 27.375 C 4.234375 28.019531 4.554688 28.59375 5 29.097656 C 5.449219 29.605469 5.980469 29.996094 6.597656 30.273438 C 7.214844 30.550781 7.863281 30.6875 8.539062 30.6875 L 16.300781 30.6875 C 16.445312 30.6875 16.585938 30.664062 16.71875 30.609375 C 16.851562 30.554688 16.96875 30.480469 17.070312 30.378906 C 17.171875 30.277344 17.25 30.160156 17.308594 30.027344 C 17.363281 29.894531 17.390625 29.757812 17.390625 29.613281 C 17.390625 29.472656 17.363281 29.332031 17.308594 29.199219 C 17.25 29.066406 17.171875 28.953125 17.070312 28.851562 C 16.96875 28.75 16.851562 28.671875 16.71875 28.621094 C 16.585938 28.566406 16.445312 28.539062 16.300781 28.542969 L 8.539062 28.542969 C 8.175781 28.542969 7.828125 28.472656 7.496094 28.320312 C 7.164062 28.171875 6.878906 27.960938 6.640625 27.691406 C 6.402344 27.417969 6.230469 27.105469 6.125 26.757812 C 6.019531 26.410156 5.992188 26.058594 6.042969 25.699219 C 6.820312 20.15625 9.371094 16.679688 13.417969 15.648438 C 13.636719 15.59375 13.820312 15.480469 13.96875 15.3125 C 14.117188 15.144531 14.203125 14.945312 14.226562 14.722656 C 14.25 14.5 14.207031 14.289062 14.097656 14.089844 C 13.988281 13.894531 13.835938 13.746094 13.632812 13.648438 C 11.730469 12.714844 10.550781 10.839844 10.550781 8.746094 C 10.550781 7.996094 10.699219 7.277344 10.996094 6.589844 C 11.292969 5.902344 11.71875 5.300781 12.265625 4.792969 C 12.816406 4.269531 13.449219 3.878906 14.160156 3.617188 C 14.871094 3.355469 15.605469 3.246094 16.359375 3.285156 C 19.230469 3.414062 21.550781 5.738281 21.640625 8.574219 C 21.652344 9.097656 21.59375 9.617188 21.457031 10.125 C 21.324219 10.632812 21.121094 11.113281 20.847656 11.5625 C 20.574219 12.011719 20.242188 12.414062 19.855469 12.769531 C 19.464844 13.125 19.035156 13.417969 18.5625 13.648438 C 18.359375 13.746094 18.203125 13.894531 18.09375 14.089844 C 17.984375 14.289062 17.941406 14.5 17.964844 14.722656 C 17.988281 14.945312 18.074219 15.144531 18.222656 15.3125 C 18.371094 15.484375 18.554688 15.59375 18.773438 15.648438 C 20.632812 16.105469 22.167969 17.082031 23.371094 18.570312 C 23.464844 18.679688 23.574219 18.769531 23.699219 18.839844 C 23.828125 18.90625 23.960938 18.949219 24.105469 18.960938 C 24.25 18.976562 24.386719 18.964844 24.527344 18.925781 C 24.664062 18.882812 24.789062 18.820312 24.902344 18.730469 C 25.015625 18.640625 25.105469 18.535156 25.171875 18.410156 C 25.242188 18.285156 25.285156 18.152344 25.300781 18.007812 C 25.316406 17.867188 25.300781 17.726562 25.261719 17.589844 C 25.21875 17.453125 25.15625 17.332031 25.0625 17.222656 C 24.050781 15.972656 22.820312 15 21.371094 14.308594 C 22.175781 13.5625 22.792969 12.683594 23.21875 11.671875 C 23.648438 10.660156 23.84375 9.605469 23.8125 8.503906 C 23.6875 4.558594 20.460938 1.324219 16.460938 1.140625 C 15.40625 1.085938 14.386719 1.242188 13.398438 1.605469 C 12.410156 1.972656 11.53125 2.515625 10.765625 3.238281 C 10.386719 3.59375 10.046875 3.984375 9.75 4.410156 C 9.449219 4.835938 9.199219 5.285156 8.992188 5.765625 C 8.789062 6.242188 8.632812 6.734375 8.527344 7.242188 C 8.425781 7.753906 8.375 8.265625 8.378906 8.785156 C 8.378906 9.304688 8.433594 9.820312 8.542969 10.328125 C 8.652344 10.835938 8.8125 11.328125 9.019531 11.804688 C 9.230469 12.277344 9.488281 12.726562 9.789062 13.148438 C 10.09375 13.570312 10.433594 13.960938 10.816406 14.3125 C 9.308594 15.03125 8.039062 16.054688 7.007812 17.371094 Z M 7.007812 17.371094 " fill-opacity="1" fill-rule="nonzero"/></g><g clip-path="url(#8227435945)"><path fill="#ff5757" d="M 30.527344 30.5 C 31.882812 28.496094 32.578125 27.152344 33.121094 24.484375 C 33.433594 22.96875 33.09375 21.527344 32.171875 20.421875 C 31.136719 19.183594 29.464844 18.503906 27.46875 18.519531 C 26.679688 18.523438 25.796875 19.105469 25.691406 20.078125 C 25.628906 20.636719 25.492188 21.3125 25.355469 21.964844 C 25.277344 22.34375 25.195312 22.734375 25.132812 23.097656 C 24.960938 24.070312 25.460938 24.625 25.851562 24.957031 C 26.035156 25.109375 26.226562 25.25 26.429688 25.382812 C 26.226562 26.042969 25.835938 26.679688 25.492188 27.191406 C 25.140625 27.714844 24.722656 28.277344 24.210938 28.683594 C 24.015625 28.546875 23.8125 28.421875 23.601562 28.308594 C 23.144531 28.070312 22.441406 27.8125 21.589844 28.316406 C 21.164062 28.570312 20.714844 28.867188 20.28125 29.160156 C 19.832031 29.457031 19.367188 29.769531 18.964844 30 C 18.125 30.484375 17.917969 31.5 18.203125 32.199219 C 18.945312 34.019531 20.199219 35.28125 21.734375 35.757812 C 22.179688 35.898438 22.636719 35.96875 23.105469 35.96875 C 24.050781 35.96875 25.007812 35.679688 25.886719 35.113281 C 28.191406 33.632812 29.179688 32.492188 30.527344 30.5 Z M 22.386719 33.714844 C 21.558594 33.457031 20.839844 32.738281 20.34375 31.683594 C 20.726562 31.453125 21.117188 31.191406 21.5 30.933594 C 21.871094 30.6875 22.257812 30.429688 22.605469 30.21875 C 22.75 30.292969 22.917969 30.410156 23.09375 30.527344 C 23.273438 30.648438 23.457031 30.773438 23.652344 30.886719 C 23.996094 31.089844 24.347656 31.097656 24.703125 30.917969 C 25.898438 30.3125 26.6875 29.292969 27.304688 28.378906 C 27.886719 27.511719 28.574219 26.347656 28.714844 25.019531 C 28.757812 24.625 28.621094 24.304688 28.304688 24.0625 C 28.125 23.925781 27.941406 23.800781 27.761719 23.683594 C 27.585938 23.566406 27.417969 23.453125 27.296875 23.351562 C 27.351562 23.054688 27.417969 22.730469 27.488281 22.394531 C 27.605469 21.820312 27.726562 21.230469 27.808594 20.667969 C 28.988281 20.722656 29.933594 21.113281 30.496094 21.785156 C 30.992188 22.382812 31.167969 23.191406 30.992188 24.058594 C 30.492188 26.496094 29.890625 27.578125 28.71875 29.308594 C 27.5625 31.019531 26.789062 31.972656 24.703125 33.316406 C 23.933594 33.808594 23.132812 33.945312 22.386719 33.714844 Z M 22.386719 33.714844 " fill-opacity="1" fill-rule="nonzero"/></g></svg>