<svg xmlns="http://www.w3.org/2000/svg" xmlns:xlink="http://www.w3.org/1999/xlink" width="50" zoomAndPan="magnify" viewBox="0 0 37.5 37.499999" height="50" preserveAspectRatio="xMidYMid meet" version="1.0"><defs><clipPath id="d893e99e54"><path d="M 0.625 0.90625 L 20 0.90625 L 20 37 L 0.625 37 Z M 0.625 0.90625 " clip-rule="nonzero"/></clipPath><clipPath id="50566f765d"><path d="M 10 8 L 35.410156 8 L 35.410156 30 L 10 30 Z M 10 8 " clip-rule="nonzero"/></clipPath></defs><path fill="#00bf63" d="M 18.027344 16.339844 C 17.9375 16.105469 17.714844 15.949219 17.460938 15.949219 C 17.210938 15.949219 16.988281 16.105469 16.898438 16.339844 L 15.09375 21.148438 C 14.980469 21.460938 15.136719 21.804688 15.449219 21.925781 C 15.761719 22.039062 16.101562 21.882812 16.222656 21.570312 L 16.53125 20.757812 L 18.402344 20.757812 L 18.707031 21.570312 C 18.796875 21.8125 19.027344 21.960938 19.273438 21.960938 C 19.34375 21.960938 19.417969 21.949219 19.484375 21.925781 C 19.796875 21.8125 19.953125 21.460938 19.832031 21.148438 Z M 16.980469 19.554688 L 17.46875 18.261719 L 17.957031 19.554688 Z M 16.980469 19.554688 " fill-opacity="1" fill-rule="nonzero"/><path fill="#00bf63" d="M 21.070312 15.949219 C 20.738281 15.949219 20.46875 16.21875 20.46875 16.546875 L 20.46875 21.359375 C 20.46875 21.691406 20.738281 21.960938 21.070312 21.960938 C 21.402344 21.960938 21.671875 21.691406 21.671875 21.359375 L 21.671875 16.546875 C 21.671875 16.21875 21.402344 15.949219 21.070312 15.949219 Z M 21.070312 15.949219 " fill-opacity="1" fill-rule="nonzero"/><g clip-path="url(#d893e99e54)"><path fill="#00bf63" d="M 18.664062 29.175781 C 13.03125 29.175781 8.441406 24.589844 8.441406 18.953125 C 8.441406 13.320312 13.03125 8.730469 18.664062 8.730469 C 18.996094 8.730469 19.265625 8.460938 19.265625 8.128906 L 19.265625 1.515625 C 19.265625 1.183594 18.996094 0.914062 18.664062 0.914062 L 15.496094 0.914062 C 15.21875 0.914062 14.980469 1.101562 14.914062 1.371094 L 14.054688 4.824219 C 13.320312 5.0625 12.609375 5.351562 11.9375 5.695312 L 8.886719 3.867188 C 8.652344 3.722656 8.347656 3.765625 8.152344 3.957031 L 3.671875 8.4375 C 3.480469 8.628906 3.4375 8.9375 3.582031 9.171875 L 5.410156 12.21875 C 5.070312 12.890625 4.773438 13.601562 4.539062 14.335938 L 1.085938 15.195312 C 0.816406 15.261719 0.628906 15.503906 0.628906 15.777344 L 0.628906 22.117188 C 0.628906 22.394531 0.816406 22.632812 1.085938 22.699219 L 4.539062 23.5625 C 4.78125 24.292969 5.070312 25.003906 5.410156 25.675781 L 3.582031 28.726562 C 3.4375 28.960938 3.480469 29.265625 3.671875 29.460938 L 8.152344 33.941406 C 8.347656 34.132812 8.652344 34.175781 8.886719 34.03125 L 11.9375 32.203125 C 12.609375 32.542969 13.320312 32.839844 14.054688 33.074219 L 14.914062 36.527344 C 14.980469 36.796875 15.21875 36.984375 15.496094 36.984375 L 18.664062 36.984375 C 18.996094 36.984375 19.265625 36.710938 19.265625 36.382812 L 19.265625 29.765625 C 19.265625 29.4375 18.996094 29.164062 18.664062 29.164062 Z M 18.0625 35.792969 L 15.964844 35.792969 L 15.136719 32.464844 C 15.082031 32.261719 14.925781 32.101562 14.726562 32.035156 C 13.84375 31.769531 12.988281 31.421875 12.199219 30.992188 C 12.015625 30.890625 11.785156 30.898438 11.605469 31.003906 L 8.671875 32.765625 L 4.851562 28.949219 L 6.613281 26.015625 C 6.722656 25.832031 6.726562 25.605469 6.625 25.417969 C 6.199219 24.632812 5.851562 23.777344 5.585938 22.894531 C 5.527344 22.6875 5.363281 22.53125 5.152344 22.484375 L 1.828125 21.65625 L 1.828125 16.253906 L 5.152344 15.425781 C 5.355469 15.371094 5.519531 15.214844 5.585938 15.015625 C 5.851562 14.132812 6.199219 13.277344 6.625 12.488281 C 6.726562 12.304688 6.722656 12.074219 6.613281 11.894531 L 4.851562 8.960938 L 8.671875 5.140625 L 11.605469 6.902344 C 11.785156 7.011719 12.015625 7.015625 12.199219 6.914062 C 12.988281 6.488281 13.84375 6.140625 14.726562 5.875 C 14.929688 5.816406 15.085938 5.652344 15.136719 5.441406 L 15.964844 2.117188 L 18.0625 2.117188 L 18.0625 7.546875 C 12.042969 7.859375 7.238281 12.855469 7.238281 18.953125 C 7.238281 25.050781 12.042969 30.050781 18.0625 30.363281 Z M 18.0625 35.792969 " fill-opacity="1" fill-rule="nonzero"/></g><g clip-path="url(#50566f765d)"><path fill="#00bf63" d="M 33.097656 16.546875 C 31.980469 16.546875 31.046875 17.320312 30.777344 18.351562 L 24.679688 18.351562 L 24.679688 15.949219 L 27.085938 15.949219 C 27.253906 15.949219 27.414062 15.875 27.527344 15.75 L 29.730469 13.335938 C 30.023438 13.464844 30.347656 13.542969 30.691406 13.542969 C 32.019531 13.542969 33.097656 12.464844 33.097656 11.136719 C 33.097656 9.808594 32.019531 8.730469 30.691406 8.730469 C 29.363281 8.730469 28.285156 9.808594 28.285156 11.136719 C 28.285156 11.683594 28.480469 12.183594 28.785156 12.585938 L 26.820312 14.746094 L 24.679688 14.746094 L 24.679688 13.542969 C 24.679688 13.210938 24.40625 12.941406 24.078125 12.941406 L 22.875 12.941406 L 22.875 11.738281 C 22.875 11.40625 22.605469 11.136719 22.273438 11.136719 C 21.941406 11.136719 21.671875 11.40625 21.671875 11.738281 L 21.671875 12.941406 L 19.265625 12.941406 L 19.265625 11.738281 C 19.265625 11.40625 18.996094 11.136719 18.664062 11.136719 C 18.335938 11.136719 18.0625 11.40625 18.0625 11.738281 L 18.0625 12.941406 L 15.660156 12.941406 L 15.660156 11.738281 C 15.660156 11.40625 15.386719 11.136719 15.058594 11.136719 C 14.726562 11.136719 14.457031 11.40625 14.457031 11.738281 L 14.457031 12.941406 L 13.253906 12.941406 C 12.921875 12.941406 12.652344 13.210938 12.652344 13.542969 L 12.652344 14.746094 L 11.449219 14.746094 C 11.117188 14.746094 10.847656 15.015625 10.847656 15.347656 C 10.847656 15.675781 11.117188 15.949219 11.449219 15.949219 L 12.652344 15.949219 L 12.652344 18.351562 L 11.449219 18.351562 C 11.117188 18.351562 10.847656 18.625 10.847656 18.953125 C 10.847656 19.285156 11.117188 19.554688 11.449219 19.554688 L 12.652344 19.554688 L 12.652344 21.960938 L 11.449219 21.960938 C 11.117188 21.960938 10.847656 22.230469 10.847656 22.5625 C 10.847656 22.894531 11.117188 23.164062 11.449219 23.164062 L 12.652344 23.164062 L 12.652344 24.367188 C 12.652344 24.695312 12.921875 24.96875 13.253906 24.96875 L 14.457031 24.96875 L 14.457031 26.171875 C 14.457031 26.5 14.726562 26.773438 15.058594 26.773438 C 15.386719 26.773438 15.660156 26.5 15.660156 26.171875 L 15.660156 24.96875 L 18.0625 24.96875 L 18.0625 26.171875 C 18.0625 26.5 18.335938 26.773438 18.664062 26.773438 C 18.996094 26.773438 19.265625 26.5 19.265625 26.171875 L 19.265625 24.96875 L 21.671875 24.96875 L 21.671875 26.171875 C 21.671875 26.5 21.941406 26.773438 22.273438 26.773438 C 22.605469 26.773438 22.875 26.5 22.875 26.171875 L 22.875 24.96875 L 24.078125 24.96875 C 24.40625 24.96875 24.679688 24.695312 24.679688 24.367188 L 24.679688 23.164062 L 26.820312 23.164062 L 28.785156 25.324219 C 28.480469 25.726562 28.285156 26.226562 28.285156 26.773438 C 28.285156 28.101562 29.363281 29.175781 30.691406 29.175781 C 32.019531 29.175781 33.097656 28.101562 33.097656 26.773438 C 33.097656 25.441406 32.019531 24.367188 30.691406 24.367188 C 30.347656 24.367188 30.023438 24.4375 29.730469 24.570312 L 27.527344 22.160156 C 27.414062 22.03125 27.253906 21.960938 27.085938 21.960938 L 24.679688 21.960938 L 24.679688 19.554688 L 30.777344 19.554688 C 31.046875 20.589844 31.980469 21.359375 33.097656 21.359375 C 34.425781 21.359375 35.503906 20.285156 35.503906 18.953125 C 35.503906 17.625 34.425781 16.546875 33.097656 16.546875 Z M 30.691406 9.933594 C 31.355469 9.933594 31.894531 10.476562 31.894531 11.136719 C 31.894531 11.796875 31.355469 12.339844 30.691406 12.339844 C 30.03125 12.339844 29.488281 11.796875 29.488281 11.136719 C 29.488281 10.476562 30.03125 9.933594 30.691406 9.933594 Z M 31.894531 26.773438 C 31.894531 27.433594 31.355469 27.972656 30.691406 27.972656 C 30.03125 27.972656 29.488281 27.433594 29.488281 26.773438 C 29.488281 26.109375 30.03125 25.570312 30.691406 25.570312 C 31.355469 25.570312 31.894531 26.109375 31.894531 26.773438 Z M 23.476562 23.765625 L 13.855469 23.765625 L 13.855469 14.144531 L 23.476562 14.144531 Z M 33.097656 20.15625 C 32.4375 20.15625 31.894531 19.617188 31.894531 18.953125 C 31.894531 18.292969 32.4375 17.75 33.097656 17.75 C 33.757812 17.75 34.300781 18.292969 34.300781 18.953125 C 34.300781 19.617188 33.757812 20.15625 33.097656 20.15625 Z M 33.097656 20.15625 " fill-opacity="1" fill-rule="nonzero"/></g></svg>