<svg xmlns="http://www.w3.org/2000/svg" xmlns:xlink="http://www.w3.org/1999/xlink" width="50" zoomAndPan="magnify" viewBox="0 0 37.5 37.499999" height="50" preserveAspectRatio="xMidYMid meet" version="1.0"><defs><clipPath id="8079e66f84"><path d="M 3 1.027344 L 33.863281 1.027344 L 33.863281 35.816406 L 3 35.816406 Z M 3 1.027344 " clip-rule="nonzero"/></clipPath></defs><g clip-path="url(#8079e66f84)"><path fill="#000000" d="M 31.6875 30.324219 L 31.6875 28.023438 C 31.6875 27.929688 31.667969 27.84375 31.625 27.761719 L 29.410156 23.492188 C 29.589844 23.230469 29.683594 22.941406 29.6875 22.625 L 29.6875 14.355469 C 29.683594 14.035156 29.589844 13.746094 29.410156 13.484375 L 31.625 9.210938 C 31.667969 9.125 31.6875 9.035156 31.6875 8.941406 L 31.6875 6.636719 C 31.914062 6.589844 32.132812 6.515625 32.34375 6.414062 C 32.554688 6.3125 32.75 6.1875 32.929688 6.039062 C 33.109375 5.890625 33.269531 5.722656 33.40625 5.535156 C 33.546875 5.347656 33.660156 5.144531 33.746094 4.929688 C 33.835938 4.714844 33.894531 4.488281 33.929688 4.257812 C 33.964844 4.027344 33.96875 3.796875 33.945312 3.5625 C 33.921875 3.332031 33.871094 3.105469 33.792969 2.886719 C 33.710938 2.667969 33.609375 2.460938 33.476562 2.265625 C 33.347656 2.074219 33.195312 1.898438 33.023438 1.742188 C 32.851562 1.585938 32.660156 1.453125 32.453125 1.34375 C 32.25 1.234375 32.03125 1.148438 31.804688 1.09375 C 31.578125 1.035156 31.351562 1.007812 31.117188 1.007812 C 30.882812 1.007812 30.652344 1.035156 30.425781 1.09375 C 30.199219 1.148438 29.984375 1.234375 29.777344 1.34375 C 29.574219 1.453125 29.382812 1.585938 29.210938 1.742188 C 29.039062 1.898438 28.886719 2.074219 28.753906 2.265625 C 28.625 2.460938 28.519531 2.667969 28.441406 2.886719 C 28.363281 3.105469 28.3125 3.332031 28.289062 3.5625 C 28.265625 3.796875 28.269531 4.027344 28.304688 4.257812 C 28.335938 4.488281 28.398438 4.714844 28.488281 4.929688 C 28.574219 5.144531 28.6875 5.347656 28.828125 5.535156 C 28.964844 5.722656 29.125 5.890625 29.304688 6.039062 C 29.484375 6.1875 29.679688 6.3125 29.886719 6.414062 C 30.097656 6.515625 30.320312 6.589844 30.546875 6.636719 L 30.546875 8.800781 L 28.453125 12.835938 C 28.34375 12.824219 28.238281 12.824219 28.128906 12.835938 L 25.339844 12.835938 L 25.339844 11.269531 C 25.566406 11.222656 25.785156 11.148438 25.996094 11.046875 C 26.203125 10.945312 26.398438 10.820312 26.578125 10.671875 C 26.757812 10.523438 26.914062 10.355469 27.050781 10.167969 C 27.1875 9.980469 27.300781 9.78125 27.390625 9.566406 C 27.476562 9.351562 27.539062 9.128906 27.570312 8.898438 C 27.605469 8.667969 27.609375 8.4375 27.585938 8.207031 C 27.5625 7.972656 27.511719 7.75 27.429688 7.53125 C 27.351562 7.3125 27.25 7.105469 27.117188 6.914062 C 26.988281 6.71875 26.835938 6.546875 26.664062 6.390625 C 26.492188 6.234375 26.304688 6.101562 26.097656 5.992188 C 25.894531 5.882812 25.679688 5.800781 25.453125 5.746094 C 25.226562 5.6875 25 5.660156 24.765625 5.660156 C 24.535156 5.660156 24.304688 5.6875 24.078125 5.746094 C 23.855469 5.800781 23.636719 5.882812 23.433594 5.992188 C 23.226562 6.101562 23.039062 6.234375 22.867188 6.390625 C 22.695312 6.546875 22.542969 6.71875 22.414062 6.914062 C 22.285156 7.105469 22.179688 7.3125 22.101562 7.53125 C 22.023438 7.75 21.96875 7.972656 21.945312 8.207031 C 21.921875 8.4375 21.925781 8.667969 21.960938 8.898438 C 21.992188 9.128906 22.054688 9.351562 22.140625 9.566406 C 22.230469 9.78125 22.34375 9.980469 22.480469 10.167969 C 22.617188 10.355469 22.777344 10.523438 22.953125 10.671875 C 23.132812 10.820312 23.328125 10.945312 23.535156 11.046875 C 23.746094 11.148438 23.964844 11.222656 24.191406 11.269531 L 24.191406 12.800781 L 19.097656 12.800781 L 19.097656 8.054688 C 19.324219 8.007812 19.542969 7.933594 19.753906 7.832031 C 19.964844 7.730469 20.15625 7.605469 20.335938 7.457031 C 20.515625 7.308594 20.675781 7.140625 20.8125 6.953125 C 20.949219 6.765625 21.0625 6.566406 21.152344 6.351562 C 21.238281 6.136719 21.300781 5.914062 21.332031 5.683594 C 21.367188 5.453125 21.371094 5.222656 21.347656 4.992188 C 21.324219 4.757812 21.273438 4.535156 21.195312 4.316406 C 21.117188 4.097656 21.011719 3.890625 20.882812 3.699219 C 20.753906 3.503906 20.601562 3.328125 20.429688 3.171875 C 20.257812 3.019531 20.066406 2.886719 19.863281 2.777344 C 19.65625 2.667969 19.441406 2.582031 19.214844 2.527344 C 18.988281 2.46875 18.761719 2.441406 18.527344 2.441406 C 18.296875 2.441406 18.066406 2.46875 17.839844 2.527344 C 17.617188 2.582031 17.398438 2.667969 17.195312 2.777344 C 16.988281 2.886719 16.800781 3.019531 16.628906 3.171875 C 16.457031 3.328125 16.304688 3.503906 16.175781 3.699219 C 16.046875 3.890625 15.941406 4.097656 15.863281 4.316406 C 15.785156 4.535156 15.730469 4.757812 15.707031 4.992188 C 15.683594 5.222656 15.691406 5.453125 15.722656 5.683594 C 15.757812 5.914062 15.816406 6.136719 15.90625 6.351562 C 15.992188 6.566406 16.105469 6.765625 16.246094 6.953125 C 16.382812 7.140625 16.539062 7.308594 16.71875 7.457031 C 16.898438 7.605469 17.09375 7.730469 17.300781 7.832031 C 17.511719 7.933594 17.730469 8.007812 17.957031 8.054688 L 17.957031 12.800781 L 12.863281 12.800781 L 12.863281 11.269531 C 13.09375 11.222656 13.3125 11.148438 13.519531 11.046875 C 13.730469 10.945312 13.921875 10.820312 14.101562 10.671875 C 14.28125 10.523438 14.4375 10.355469 14.578125 10.167969 C 14.714844 9.980469 14.828125 9.78125 14.914062 9.566406 C 15.003906 9.351562 15.0625 9.128906 15.097656 8.898438 C 15.128906 8.667969 15.132812 8.4375 15.109375 8.207031 C 15.085938 7.972656 15.035156 7.75 14.957031 7.53125 C 14.878906 7.3125 14.773438 7.105469 14.644531 6.914062 C 14.511719 6.71875 14.363281 6.546875 14.191406 6.390625 C 14.015625 6.234375 13.828125 6.101562 13.625 5.992188 C 13.417969 5.882812 13.203125 5.800781 12.976562 5.746094 C 12.753906 5.6875 12.523438 5.660156 12.289062 5.660156 C 12.058594 5.660156 11.828125 5.6875 11.605469 5.746094 C 11.378906 5.800781 11.164062 5.882812 10.957031 5.992188 C 10.753906 6.101562 10.5625 6.234375 10.390625 6.390625 C 10.21875 6.546875 10.066406 6.71875 9.9375 6.914062 C 9.808594 7.105469 9.703125 7.3125 9.625 7.53125 C 9.546875 7.75 9.496094 7.972656 9.472656 8.207031 C 9.449219 8.4375 9.453125 8.667969 9.484375 8.898438 C 9.519531 9.128906 9.578125 9.351562 9.667969 9.566406 C 9.753906 9.78125 9.867188 9.980469 10.003906 10.167969 C 10.140625 10.355469 10.300781 10.523438 10.480469 10.671875 C 10.65625 10.820312 10.851562 10.945312 11.0625 11.046875 C 11.269531 11.148438 11.488281 11.222656 11.71875 11.269531 L 11.71875 12.800781 L 8.925781 12.800781 C 8.820312 12.789062 8.710938 12.789062 8.605469 12.800781 L 6.519531 8.800781 L 6.519531 6.636719 C 6.746094 6.589844 6.964844 6.515625 7.171875 6.414062 C 7.382812 6.3125 7.578125 6.1875 7.757812 6.039062 C 7.933594 5.890625 8.09375 5.722656 8.230469 5.535156 C 8.367188 5.347656 8.480469 5.148438 8.566406 4.933594 C 8.65625 4.714844 8.714844 4.492188 8.75 4.265625 C 8.78125 4.035156 8.789062 3.804688 8.765625 3.570312 C 8.738281 3.339844 8.6875 3.117188 8.609375 2.898438 C 8.53125 2.679688 8.425781 2.472656 8.296875 2.28125 C 8.167969 2.085938 8.015625 1.914062 7.84375 1.757812 C 7.671875 1.601562 7.480469 1.46875 7.277344 1.359375 C 7.070312 1.25 6.855469 1.167969 6.632812 1.109375 C 6.40625 1.054688 6.175781 1.027344 5.945312 1.027344 C 5.710938 1.027344 5.484375 1.054688 5.257812 1.109375 C 5.03125 1.167969 4.816406 1.25 4.613281 1.359375 C 4.40625 1.46875 4.21875 1.601562 4.046875 1.757812 C 3.871094 1.914062 3.722656 2.085938 3.59375 2.28125 C 3.460938 2.472656 3.359375 2.679688 3.277344 2.898438 C 3.199219 3.117188 3.148438 3.339844 3.125 3.570312 C 3.101562 3.804688 3.105469 4.035156 3.140625 4.265625 C 3.171875 4.492188 3.234375 4.714844 3.320312 4.933594 C 3.410156 5.148438 3.519531 5.347656 3.660156 5.535156 C 3.796875 5.722656 3.953125 5.890625 4.132812 6.039062 C 4.3125 6.1875 4.503906 6.3125 4.714844 6.414062 C 4.925781 6.515625 5.144531 6.589844 5.371094 6.636719 L 5.371094 8.941406 C 5.371094 9.035156 5.394531 9.125 5.441406 9.210938 L 7.648438 13.476562 C 7.464844 13.738281 7.371094 14.027344 7.371094 14.347656 L 7.371094 22.597656 C 7.375 22.914062 7.464844 23.207031 7.648438 23.464844 L 5.441406 27.761719 C 5.394531 27.84375 5.371094 27.929688 5.371094 28.023438 L 5.371094 30.324219 C 5.144531 30.371094 4.925781 30.445312 4.714844 30.546875 C 4.503906 30.648438 4.3125 30.773438 4.132812 30.921875 C 3.953125 31.070312 3.796875 31.238281 3.660156 31.425781 C 3.519531 31.613281 3.410156 31.816406 3.320312 32.03125 C 3.234375 32.246094 3.171875 32.46875 3.140625 32.699219 C 3.105469 32.925781 3.101562 33.160156 3.125 33.390625 C 3.148438 33.621094 3.199219 33.84375 3.277344 34.0625 C 3.359375 34.28125 3.460938 34.488281 3.59375 34.679688 C 3.722656 34.875 3.871094 35.046875 4.046875 35.203125 C 4.21875 35.359375 4.40625 35.492188 4.613281 35.601562 C 4.816406 35.710938 5.03125 35.792969 5.257812 35.851562 C 5.484375 35.90625 5.710938 35.933594 5.945312 35.933594 C 6.175781 35.933594 6.40625 35.90625 6.632812 35.851562 C 6.855469 35.792969 7.070312 35.710938 7.277344 35.601562 C 7.480469 35.492188 7.671875 35.359375 7.84375 35.203125 C 8.015625 35.046875 8.167969 34.875 8.296875 34.679688 C 8.425781 34.488281 8.53125 34.28125 8.609375 34.0625 C 8.6875 33.84375 8.738281 33.621094 8.765625 33.390625 C 8.789062 33.160156 8.78125 32.925781 8.75 32.699219 C 8.714844 32.46875 8.65625 32.246094 8.566406 32.03125 C 8.480469 31.816406 8.367188 31.613281 8.230469 31.425781 C 8.09375 31.238281 7.933594 31.070312 7.757812 30.921875 C 7.578125 30.773438 7.382812 30.648438 7.171875 30.546875 C 6.964844 30.445312 6.746094 30.371094 6.519531 30.324219 L 6.519531 28.160156 L 8.605469 24.128906 C 8.710938 24.140625 8.820312 24.140625 8.925781 24.128906 L 11.71875 24.128906 L 11.71875 25.65625 C 11.488281 25.703125 11.269531 25.777344 11.0625 25.878906 C 10.851562 25.980469 10.65625 26.105469 10.480469 26.253906 C 10.300781 26.402344 10.140625 26.570312 10.003906 26.757812 C 9.867188 26.945312 9.753906 27.144531 9.667969 27.359375 C 9.578125 27.578125 9.519531 27.800781 9.484375 28.027344 C 9.453125 28.257812 9.449219 28.488281 9.472656 28.722656 C 9.496094 28.953125 9.546875 29.175781 9.625 29.394531 C 9.703125 29.613281 9.808594 29.820312 9.9375 30.011719 C 10.066406 30.207031 10.21875 30.378906 10.390625 30.535156 C 10.5625 30.691406 10.753906 30.824219 10.957031 30.933594 C 11.164062 31.042969 11.378906 31.125 11.605469 31.183594 C 11.828125 31.238281 12.058594 31.265625 12.289062 31.265625 C 12.523438 31.265625 12.753906 31.238281 12.976562 31.183594 C 13.203125 31.125 13.417969 31.042969 13.625 30.933594 C 13.828125 30.824219 14.015625 30.691406 14.191406 30.535156 C 14.363281 30.378906 14.511719 30.207031 14.644531 30.011719 C 14.773438 29.820312 14.878906 29.613281 14.957031 29.394531 C 15.035156 29.175781 15.085938 28.953125 15.109375 28.722656 C 15.132812 28.488281 15.128906 28.257812 15.097656 28.027344 C 15.0625 27.800781 15.003906 27.578125 14.914062 27.359375 C 14.828125 27.144531 14.714844 26.945312 14.578125 26.757812 C 14.4375 26.570312 14.28125 26.402344 14.101562 26.253906 C 13.921875 26.105469 13.730469 25.980469 13.519531 25.878906 C 13.3125 25.777344 13.09375 25.703125 12.863281 25.65625 L 12.863281 24.160156 L 17.957031 24.160156 L 17.957031 28.917969 C 17.730469 28.964844 17.511719 29.039062 17.300781 29.136719 C 17.089844 29.238281 16.894531 29.363281 16.714844 29.511719 C 16.535156 29.660156 16.375 29.832031 16.238281 30.019531 C 16.101562 30.207031 15.988281 30.40625 15.898438 30.625 C 15.808594 30.839844 15.75 31.0625 15.714844 31.292969 C 15.679688 31.523438 15.675781 31.757812 15.699219 31.988281 C 15.722656 32.222656 15.773438 32.445312 15.855469 32.667969 C 15.933594 32.886719 16.039062 33.09375 16.167969 33.285156 C 16.296875 33.480469 16.449219 33.65625 16.621094 33.8125 C 16.796875 33.96875 16.984375 34.101562 17.191406 34.210938 C 17.394531 34.320312 17.613281 34.402344 17.839844 34.460938 C 18.066406 34.515625 18.296875 34.546875 18.527344 34.546875 C 18.761719 34.546875 18.992188 34.515625 19.21875 34.460938 C 19.445312 34.402344 19.660156 34.320312 19.867188 34.210938 C 20.070312 34.101562 20.261719 33.96875 20.433594 33.8125 C 20.609375 33.65625 20.757812 33.480469 20.890625 33.285156 C 21.019531 33.09375 21.125 32.886719 21.203125 32.667969 C 21.28125 32.445312 21.332031 32.222656 21.355469 31.988281 C 21.378906 31.757812 21.375 31.523438 21.339844 31.292969 C 21.308594 31.0625 21.246094 30.839844 21.160156 30.625 C 21.070312 30.40625 20.957031 30.207031 20.820312 30.019531 C 20.679688 29.832031 20.519531 29.660156 20.339844 29.511719 C 20.160156 29.363281 19.964844 29.238281 19.757812 29.136719 C 19.546875 29.039062 19.328125 28.964844 19.097656 28.917969 L 19.097656 24.160156 L 24.191406 24.160156 L 24.191406 25.691406 C 23.964844 25.738281 23.746094 25.8125 23.535156 25.914062 C 23.328125 26.015625 23.132812 26.140625 22.953125 26.289062 C 22.777344 26.4375 22.617188 26.605469 22.480469 26.792969 C 22.34375 26.980469 22.230469 27.179688 22.140625 27.394531 C 22.054688 27.609375 21.992188 27.832031 21.960938 28.0625 C 21.925781 28.292969 21.921875 28.523438 21.945312 28.753906 C 21.96875 28.988281 22.023438 29.210938 22.101562 29.429688 C 22.179688 29.648438 22.285156 29.855469 22.414062 30.046875 C 22.542969 30.242188 22.695312 30.414062 22.867188 30.570312 C 23.039062 30.726562 23.226562 30.859375 23.433594 30.96875 C 23.636719 31.078125 23.855469 31.160156 24.078125 31.21875 C 24.304688 31.273438 24.535156 31.300781 24.765625 31.300781 C 25 31.300781 25.226562 31.273438 25.453125 31.21875 C 25.679688 31.160156 25.894531 31.078125 26.097656 30.96875 C 26.304688 30.859375 26.492188 30.726562 26.664062 30.570312 C 26.835938 30.414062 26.988281 30.242188 27.117188 30.046875 C 27.25 29.855469 27.351562 29.648438 27.429688 29.429688 C 27.511719 29.210938 27.5625 28.988281 27.585938 28.753906 C 27.609375 28.523438 27.605469 28.292969 27.570312 28.0625 C 27.539062 27.832031 27.476562 27.609375 27.390625 27.394531 C 27.300781 27.179688 27.1875 26.980469 27.050781 26.792969 C 26.914062 26.605469 26.757812 26.4375 26.578125 26.289062 C 26.398438 26.140625 26.203125 26.015625 25.996094 25.914062 C 25.785156 25.8125 25.566406 25.738281 25.339844 25.691406 L 25.339844 24.160156 L 28.128906 24.160156 C 28.238281 24.175781 28.34375 24.175781 28.453125 24.160156 L 30.546875 28.195312 L 30.546875 30.324219 C 30.320312 30.371094 30.101562 30.445312 29.890625 30.546875 C 29.679688 30.648438 29.488281 30.773438 29.308594 30.921875 C 29.128906 31.070312 28.96875 31.238281 28.832031 31.425781 C 28.695312 31.609375 28.582031 31.8125 28.492188 32.027344 C 28.40625 32.242188 28.34375 32.464844 28.3125 32.695312 C 28.277344 32.925781 28.273438 33.15625 28.296875 33.386719 C 28.320312 33.621094 28.371094 33.84375 28.449219 34.0625 C 28.53125 34.28125 28.632812 34.488281 28.761719 34.679688 C 28.894531 34.875 29.042969 35.046875 29.214844 35.203125 C 29.390625 35.359375 29.578125 35.492188 29.78125 35.601562 C 29.988281 35.710938 30.203125 35.796875 30.429688 35.851562 C 30.65625 35.90625 30.882812 35.9375 31.117188 35.9375 C 31.347656 35.9375 31.578125 35.90625 31.804688 35.851562 C 32.03125 35.796875 32.246094 35.710938 32.449219 35.601562 C 32.65625 35.492188 32.84375 35.359375 33.015625 35.203125 C 33.1875 35.046875 33.339844 34.875 33.46875 34.679688 C 33.597656 34.488281 33.703125 34.28125 33.78125 34.0625 C 33.863281 33.84375 33.914062 33.621094 33.9375 33.386719 C 33.960938 33.15625 33.953125 32.925781 33.921875 32.695312 C 33.886719 32.464844 33.828125 32.242188 33.738281 32.027344 C 33.652344 31.8125 33.539062 31.609375 33.402344 31.425781 C 33.261719 31.238281 33.105469 31.070312 32.925781 30.921875 C 32.746094 30.773438 32.550781 30.648438 32.34375 30.546875 C 32.132812 30.445312 31.914062 30.371094 31.6875 30.324219 Z M 24.730469 26.777344 C 24.957031 26.769531 25.179688 26.804688 25.390625 26.882812 C 25.605469 26.960938 25.792969 27.078125 25.957031 27.234375 C 26.125 27.390625 26.253906 27.570312 26.347656 27.777344 C 26.441406 27.984375 26.488281 28.203125 26.496094 28.429688 C 26.5 28.65625 26.464844 28.875 26.382812 29.085938 C 26.296875 29.296875 26.179688 29.484375 26.019531 29.648438 C 25.863281 29.8125 25.679688 29.9375 25.472656 30.027344 C 25.265625 30.117188 25.046875 30.164062 24.820312 30.167969 C 24.59375 30.171875 24.375 30.128906 24.164062 30.042969 C 23.953125 29.957031 23.765625 29.835938 23.605469 29.675781 C 23.445312 29.515625 23.320312 29.332031 23.234375 29.121094 C 23.148438 28.910156 23.105469 28.691406 23.105469 28.464844 C 23.105469 28.242188 23.148438 28.03125 23.230469 27.824219 C 23.316406 27.621094 23.433594 27.441406 23.589844 27.28125 C 23.746094 27.125 23.925781 27 24.128906 26.914062 C 24.332031 26.828125 24.542969 26.78125 24.765625 26.777344 Z M 18.496094 30.003906 C 18.722656 30.003906 18.9375 30.050781 19.140625 30.136719 C 19.347656 30.222656 19.53125 30.34375 19.6875 30.503906 C 19.84375 30.660156 19.964844 30.84375 20.050781 31.050781 C 20.132812 31.257812 20.175781 31.472656 20.175781 31.695312 C 20.175781 31.917969 20.132812 32.132812 20.046875 32.339844 C 19.960938 32.546875 19.835938 32.730469 19.679688 32.886719 C 19.519531 33.042969 19.335938 33.164062 19.132812 33.25 C 18.925781 33.335938 18.710938 33.378906 18.488281 33.378906 C 18.261719 33.375 18.046875 33.332031 17.84375 33.246094 C 17.636719 33.164062 17.453125 33.039062 17.296875 32.882812 C 17.136719 32.722656 17.015625 32.542969 16.929688 32.335938 C 16.84375 32.128906 16.800781 31.914062 16.800781 31.691406 C 16.800781 31.464844 16.847656 31.246094 16.933594 31.035156 C 17.023438 30.824219 17.148438 30.640625 17.3125 30.480469 C 17.476562 30.324219 17.664062 30.203125 17.875 30.121094 C 18.085938 30.035156 18.304688 30 18.53125 30.003906 Z M 12.257812 26.777344 C 12.480469 26.777344 12.699219 26.820312 12.90625 26.90625 C 13.113281 26.992188 13.300781 27.113281 13.460938 27.269531 C 13.617188 27.429688 13.742188 27.613281 13.828125 27.820312 C 13.914062 28.027344 13.960938 28.246094 13.960938 28.472656 C 13.960938 28.695312 13.917969 28.914062 13.832031 29.121094 C 13.746094 29.328125 13.621094 29.511719 13.464844 29.671875 C 13.304688 29.832031 13.121094 29.953125 12.910156 30.039062 C 12.703125 30.125 12.488281 30.167969 12.261719 30.167969 C 12.035156 30.167969 11.820312 30.125 11.613281 30.039062 C 11.402344 29.953125 11.21875 29.828125 11.0625 29.667969 C 10.902344 29.507812 10.78125 29.324219 10.695312 29.117188 C 10.609375 28.90625 10.566406 28.691406 10.570312 28.464844 C 10.570312 28.238281 10.613281 28.019531 10.699219 27.8125 C 10.789062 27.601562 10.914062 27.417969 11.074219 27.261719 C 11.238281 27.101562 11.425781 26.980469 11.632812 26.898438 C 11.84375 26.8125 12.0625 26.773438 12.289062 26.777344 Z M 31.078125 34.792969 C 30.855469 34.792969 30.640625 34.75 30.433594 34.667969 C 30.226562 34.582031 30.042969 34.460938 29.882812 34.300781 C 29.726562 34.144531 29.601562 33.964844 29.515625 33.757812 C 29.429688 33.550781 29.382812 33.335938 29.382812 33.113281 C 29.382812 32.890625 29.421875 32.675781 29.503906 32.464844 C 29.589844 32.257812 29.707031 32.074219 29.863281 31.914062 C 30.019531 31.753906 30.199219 31.632812 30.40625 31.542969 C 30.613281 31.453125 30.824219 31.40625 31.050781 31.402344 C 31.273438 31.398438 31.488281 31.4375 31.695312 31.519531 C 31.90625 31.601562 32.089844 31.71875 32.25 31.875 C 32.414062 32.03125 32.539062 32.210938 32.628906 32.414062 C 32.71875 32.617188 32.765625 32.832031 32.773438 33.054688 C 32.78125 33.28125 32.742188 33.5 32.660156 33.710938 C 32.582031 33.921875 32.460938 34.109375 32.308594 34.273438 C 32.152344 34.4375 31.96875 34.5625 31.761719 34.652344 C 31.554688 34.742188 31.339844 34.789062 31.113281 34.792969 Z M 18.53125 3.585938 C 18.757812 3.585938 18.972656 3.628906 19.183594 3.714844 C 19.390625 3.800781 19.574219 3.921875 19.730469 4.082031 C 19.890625 4.242188 20.015625 4.425781 20.101562 4.632812 C 20.1875 4.839844 20.226562 5.058594 20.226562 5.28125 C 20.226562 5.507812 20.183594 5.722656 20.097656 5.933594 C 20.011719 6.140625 19.886719 6.324219 19.726562 6.480469 C 19.570312 6.640625 19.386719 6.761719 19.175781 6.847656 C 18.96875 6.933594 18.75 6.976562 18.527344 6.976562 C 18.300781 6.972656 18.085938 6.929688 17.878906 6.84375 C 17.671875 6.757812 17.488281 6.632812 17.328125 6.472656 C 17.171875 6.3125 17.046875 6.128906 16.964844 5.921875 C 16.878906 5.710938 16.835938 5.496094 16.835938 5.269531 C 16.835938 5.046875 16.878906 4.832031 16.964844 4.625 C 17.054688 4.417969 17.175781 4.234375 17.335938 4.074219 C 17.492188 3.917969 17.675781 3.796875 17.882812 3.710938 C 18.09375 3.625 18.308594 3.582031 18.53125 3.585938 Z M 26.453125 8.496094 C 26.453125 8.71875 26.410156 8.933594 26.324219 9.140625 C 26.238281 9.347656 26.117188 9.53125 25.957031 9.6875 C 25.800781 9.847656 25.617188 9.96875 25.410156 10.054688 C 25.203125 10.140625 24.988281 10.183594 24.765625 10.183594 C 24.542969 10.183594 24.328125 10.140625 24.121094 10.054688 C 23.914062 9.96875 23.730469 9.847656 23.574219 9.6875 C 23.414062 9.53125 23.292969 9.347656 23.207031 9.140625 C 23.121094 8.933594 23.078125 8.71875 23.078125 8.496094 C 23.078125 8.273438 23.121094 8.058594 23.207031 7.851562 C 23.292969 7.644531 23.414062 7.460938 23.574219 7.304688 C 23.730469 7.144531 23.914062 7.023438 24.121094 6.9375 C 24.328125 6.851562 24.542969 6.808594 24.765625 6.808594 C 24.988281 6.808594 25.203125 6.851562 25.410156 6.9375 C 25.617188 7.023438 25.800781 7.144531 25.957031 7.304688 C 26.117188 7.460938 26.238281 7.644531 26.324219 7.851562 C 26.410156 8.058594 26.453125 8.273438 26.453125 8.496094 Z M 8.519531 22.605469 L 8.519531 14.355469 C 8.519531 14.242188 8.558594 14.148438 8.636719 14.066406 C 8.71875 13.988281 8.8125 13.945312 8.925781 13.945312 L 28.128906 13.945312 C 28.242188 13.945312 28.339844 13.988281 28.417969 14.066406 C 28.5 14.148438 28.539062 14.242188 28.539062 14.355469 L 28.539062 22.605469 C 28.539062 22.71875 28.5 22.816406 28.417969 22.894531 C 28.339844 22.972656 28.242188 23.015625 28.128906 23.015625 L 8.925781 23.015625 C 8.8125 23.015625 8.71875 22.972656 8.636719 22.894531 C 8.558594 22.816406 8.519531 22.71875 8.519531 22.605469 Z M 31.121094 5.550781 C 30.898438 5.546875 30.683594 5.503906 30.476562 5.417969 C 30.269531 5.332031 30.089844 5.207031 29.933594 5.050781 C 29.773438 4.890625 29.652344 4.707031 29.570312 4.5 C 29.484375 4.296875 29.441406 4.082031 29.441406 3.855469 C 29.445312 3.632812 29.488281 3.417969 29.574219 3.210938 C 29.660156 3.007812 29.78125 2.824219 29.941406 2.667969 C 30.097656 2.507812 30.28125 2.386719 30.488281 2.304688 C 30.695312 2.21875 30.910156 2.175781 31.132812 2.175781 C 31.355469 2.175781 31.570312 2.21875 31.777344 2.304688 C 31.984375 2.390625 32.164062 2.511719 32.324219 2.671875 C 32.480469 2.828125 32.601562 3.011719 32.6875 3.21875 C 32.773438 3.425781 32.816406 3.640625 32.816406 3.863281 C 32.816406 4.085938 32.773438 4.304688 32.6875 4.511719 C 32.597656 4.71875 32.476562 4.902344 32.316406 5.0625 C 32.15625 5.21875 31.972656 5.339844 31.761719 5.425781 C 31.554688 5.511719 31.335938 5.550781 31.113281 5.550781 Z M 12.289062 6.808594 C 12.515625 6.808594 12.730469 6.851562 12.9375 6.9375 C 13.144531 7.023438 13.324219 7.144531 13.484375 7.304688 C 13.640625 7.460938 13.761719 7.644531 13.847656 7.851562 C 13.933594 8.058594 13.976562 8.273438 13.976562 8.496094 C 13.976562 8.71875 13.933594 8.933594 13.847656 9.140625 C 13.761719 9.347656 13.640625 9.53125 13.484375 9.6875 C 13.324219 9.847656 13.144531 9.96875 12.9375 10.054688 C 12.730469 10.140625 12.515625 10.183594 12.289062 10.183594 C 12.066406 10.183594 11.851562 10.140625 11.644531 10.054688 C 11.4375 9.96875 11.257812 9.847656 11.097656 9.6875 C 10.941406 9.53125 10.816406 9.347656 10.734375 9.140625 C 10.648438 8.933594 10.605469 8.71875 10.605469 8.496094 C 10.605469 8.273438 10.648438 8.058594 10.734375 7.851562 C 10.816406 7.644531 10.941406 7.460938 11.097656 7.304688 C 11.257812 7.144531 11.4375 7.023438 11.644531 6.9375 C 11.851562 6.851562 12.066406 6.808594 12.289062 6.808594 Z M 5.945312 5.550781 C 5.722656 5.550781 5.503906 5.507812 5.300781 5.421875 C 5.09375 5.335938 4.910156 5.214844 4.75 5.054688 C 4.59375 4.898438 4.472656 4.714844 4.386719 4.507812 C 4.300781 4.300781 4.257812 4.085938 4.257812 3.863281 C 4.257812 3.640625 4.300781 3.421875 4.386719 3.21875 C 4.472656 3.011719 4.59375 2.828125 4.75 2.671875 C 4.910156 2.511719 5.09375 2.390625 5.300781 2.304688 C 5.503906 2.21875 5.722656 2.175781 5.945312 2.175781 C 6.167969 2.175781 6.382812 2.21875 6.589844 2.304688 C 6.796875 2.390625 6.980469 2.511719 7.136719 2.671875 C 7.296875 2.828125 7.417969 3.011719 7.503906 3.21875 C 7.589844 3.421875 7.632812 3.640625 7.632812 3.863281 C 7.632812 4.085938 7.589844 4.300781 7.503906 4.507812 C 7.417969 4.714844 7.296875 4.898438 7.136719 5.054688 C 6.980469 5.214844 6.796875 5.335938 6.589844 5.421875 C 6.382812 5.507812 6.167969 5.550781 5.945312 5.550781 Z M 5.945312 34.792969 C 5.71875 34.796875 5.503906 34.753906 5.296875 34.667969 C 5.089844 34.585938 4.90625 34.464844 4.746094 34.308594 C 4.589844 34.152344 4.464844 33.96875 4.375 33.761719 C 4.289062 33.558594 4.242188 33.34375 4.242188 33.117188 C 4.238281 32.894531 4.277344 32.679688 4.363281 32.472656 C 4.445312 32.261719 4.5625 32.078125 4.71875 31.917969 C 4.875 31.757812 5.054688 31.632812 5.261719 31.542969 C 5.464844 31.453125 5.679688 31.40625 5.90625 31.402344 C 6.128906 31.398438 6.34375 31.4375 6.554688 31.519531 C 6.761719 31.601562 6.945312 31.71875 7.109375 31.875 C 7.269531 32.027344 7.394531 32.207031 7.488281 32.414062 C 7.578125 32.617188 7.625 32.832031 7.632812 33.054688 C 7.636719 33.285156 7.601562 33.503906 7.519531 33.71875 C 7.433594 33.929688 7.316406 34.117188 7.15625 34.28125 C 6.996094 34.445312 6.8125 34.570312 6.601562 34.660156 C 6.390625 34.75 6.171875 34.792969 5.945312 34.792969 Z M 5.945312 34.792969 " fill-opacity="1" fill-rule="nonzero"/></g><path fill="#000000" d="M 18.53125 21.988281 C 18.6875 21.988281 18.820312 21.933594 18.933594 21.824219 C 19.042969 21.710938 19.097656 21.578125 19.097656 21.421875 L 19.097656 19.050781 L 22.730469 19.050781 C 22.890625 19.050781 23.023438 19 23.136719 18.886719 C 23.25 18.777344 23.304688 18.644531 23.304688 18.484375 L 23.304688 15.546875 C 23.308594 15.386719 23.253906 15.25 23.140625 15.136719 C 23.027344 15.027344 22.890625 14.96875 22.730469 14.972656 L 18.53125 14.972656 C 18.375 14.96875 18.238281 15.027344 18.125 15.136719 C 18.011719 15.25 17.957031 15.386719 17.957031 15.546875 L 17.957031 21.421875 C 17.957031 21.582031 18.015625 21.714844 18.128906 21.824219 C 18.238281 21.9375 18.375 21.992188 18.53125 21.988281 Z M 19.097656 17.910156 L 19.097656 16.121094 L 22.15625 16.121094 L 22.15625 17.910156 Z M 19.097656 17.910156 " fill-opacity="1" fill-rule="nonzero"/><path fill="#000000" d="M 11.003906 21.960938 L 11.195312 21.960938 C 11.464844 21.964844 11.644531 21.839844 11.734375 21.589844 L 12.273438 20.152344 L 14.332031 20.152344 L 14.863281 21.640625 C 14.957031 21.890625 15.136719 22.015625 15.402344 22.015625 C 15.464844 22.023438 15.53125 22.023438 15.59375 22.015625 C 15.742188 21.960938 15.851562 21.859375 15.917969 21.714844 C 15.988281 21.574219 15.996094 21.425781 15.941406 21.277344 L 13.839844 15.40625 C 13.75 15.152344 13.570312 15.023438 13.300781 15.023438 C 13.027344 15.023438 12.847656 15.152344 12.761719 15.40625 L 10.65625 21.222656 C 10.605469 21.375 10.613281 21.519531 10.679688 21.664062 C 10.746094 21.808594 10.855469 21.90625 11.003906 21.960938 Z M 13.925781 18.980469 L 12.671875 18.980469 L 13.289062 17.242188 Z M 13.925781 18.980469 " fill-opacity="1" fill-rule="nonzero"/><path fill="#000000" d="M 25.863281 21.988281 C 26.019531 21.988281 26.152344 21.933594 26.265625 21.824219 C 26.375 21.714844 26.433594 21.582031 26.433594 21.421875 L 26.433594 15.546875 C 26.433594 15.386719 26.378906 15.253906 26.265625 15.140625 C 26.15625 15.027344 26.019531 14.972656 25.863281 14.972656 C 25.703125 14.972656 25.566406 15.027344 25.457031 15.140625 C 25.34375 15.253906 25.289062 15.386719 25.289062 15.546875 L 25.289062 21.421875 C 25.289062 21.582031 25.34375 21.714844 25.457031 21.824219 C 25.570312 21.9375 25.703125 21.992188 25.863281 21.988281 Z M 25.863281 21.988281 " fill-opacity="1" fill-rule="nonzero"/></svg>