<svg xmlns="http://www.w3.org/2000/svg" xmlns:xlink="http://www.w3.org/1999/xlink" width="50" zoomAndPan="magnify" viewBox="0 0 37.5 37.499999" height="50" preserveAspectRatio="xMidYMid meet" version="1.0"><defs><clipPath id="b53a387118"><path d="M 1.183594 6.546875 L 35.96875 6.546875 L 35.96875 34.671875 L 1.183594 34.671875 Z M 1.183594 6.546875 " clip-rule="nonzero"/></clipPath></defs><g clip-path="url(#b53a387118)"><path fill="#000000" d="M 19.433594 21.4375 C 19.210938 21.414062 18.992188 21.402344 18.773438 21.410156 C 17.46875 21.4375 16.367188 20.722656 15.828125 19.613281 C 15.632812 19.210938 15.535156 18.644531 15.535156 17.917969 C 15.53125 15.328125 15.53125 12.738281 15.535156 10.152344 C 15.535156 9.402344 15.632812 8.820312 15.832031 8.402344 C 16.613281 6.761719 17.96875 6.558594 19.796875 6.558594 C 24.011719 6.558594 28.230469 6.554688 32.445312 6.554688 C 34.042969 6.554688 35.117188 7.183594 35.664062 8.445312 C 35.871094 8.914062 35.96875 9.621094 35.96875 10.550781 C 35.960938 12.824219 35.957031 15.097656 35.964844 17.367188 C 35.96875 19.128906 35.683594 20.457031 34.042969 21.144531 C 33.59375 21.335938 32.894531 21.429688 31.941406 21.425781 C 29.832031 21.417969 27.726562 21.414062 25.628906 21.421875 C 25.46875 21.421875 25.296875 21.464844 25.148438 21.550781 L 18.621094 25.429688 C 18.523438 25.492188 18.484375 25.464844 18.515625 25.351562 L 19.527344 21.566406 C 19.546875 21.488281 19.515625 21.445312 19.433594 21.4375 Z M 9.808594 27.492188 C 10.75 26.621094 11.65625 25.71875 12.535156 24.785156 C 13.171875 24.109375 15.40625 24.828125 16.242188 25.164062 C 17.785156 25.789062 18.15625 26.636719 18.152344 28.300781 C 18.148438 30.375 18.144531 32.449219 18.140625 34.515625 C 18.140625 34.617188 18.09375 34.664062 17.996094 34.664062 L 1.316406 34.664062 C 1.242188 34.664062 1.207031 34.628906 1.203125 34.550781 C 1.183594 32.304688 1.183594 30.066406 1.199219 27.828125 C 1.203125 27.234375 1.300781 26.769531 1.496094 26.429688 C 2.296875 25.015625 4.121094 24.574219 5.746094 24.417969 C 6.277344 24.363281 6.6875 24.492188 6.976562 24.804688 C 7.824219 25.726562 8.699219 26.621094 9.601562 27.488281 C 9.667969 27.554688 9.738281 27.554688 9.808594 27.492188 Z M 14.539062 29.601562 L 14.53125 33.425781 C 14.527344 33.574219 14.605469 33.648438 14.753906 33.648438 L 16.964844 33.652344 C 17.046875 33.652344 17.085938 33.613281 17.085938 33.539062 C 17.097656 31.574219 17.097656 29.609375 17.082031 27.648438 C 17.070312 26.09375 14.574219 25.597656 13.425781 25.589844 C 13.304688 25.589844 13.207031 25.632812 13.121094 25.714844 L 9.851562 28.964844 C 9.761719 29.054688 9.671875 29.054688 9.582031 28.964844 L 6.117188 25.539062 C 6.066406 25.480469 5.984375 25.449219 5.902344 25.449219 C 4.824219 25.476562 3.855469 25.769531 2.984375 26.335938 C 2.371094 26.734375 2.234375 27.121094 2.230469 27.824219 C 2.21875 29.722656 2.21875 31.628906 2.226562 33.539062 C 2.226562 33.613281 2.265625 33.652344 2.34375 33.652344 L 4.78125 33.648438 C 4.855469 33.648438 4.890625 33.613281 4.890625 33.539062 L 4.890625 29.601562 C 4.890625 29.511719 4.929688 29.46875 5.019531 29.464844 L 5.78125 29.453125 C 5.886719 29.453125 5.9375 29.5 5.933594 29.601562 L 5.925781 33.507812 C 5.925781 33.585938 5.992188 33.652344 6.070312 33.652344 L 13.394531 33.648438 C 13.464844 33.648438 13.5 33.613281 13.5 33.542969 L 13.5 29.5625 C 13.5 29.484375 13.539062 29.449219 13.617188 29.453125 L 14.402344 29.46875 C 14.492188 29.46875 14.539062 29.511719 14.539062 29.601562 Z M 30.292969 16.976562 L 33.195312 16.976562 C 33.261719 16.976562 33.308594 17.023438 33.308594 17.085938 L 33.308594 17.894531 C 33.308594 17.957031 33.261719 18.003906 33.195312 18.003906 L 30.292969 18.003906 C 30.230469 18.003906 30.183594 17.957031 30.183594 17.894531 L 30.183594 17.085938 C 30.183594 17.023438 30.230469 16.976562 30.292969 16.976562 Z M 14.546875 19.039062 C 14.546875 21.671875 12.390625 23.8125 9.722656 23.8125 C 7.058594 23.8125 4.898438 21.671875 4.898438 19.039062 C 4.898438 16.402344 7.058594 14.269531 9.722656 14.269531 C 12.390625 14.269531 14.546875 16.402344 14.546875 19.039062 Z M 13.484375 19.039062 C 13.484375 16.984375 11.800781 15.316406 9.71875 15.316406 C 7.644531 15.316406 5.960938 16.984375 5.960938 19.039062 C 5.960938 21.09375 7.644531 22.761719 9.71875 22.761719 C 11.800781 22.761719 13.484375 21.09375 13.484375 19.039062 Z M 30.328125 13.359375 L 33.175781 13.363281 C 33.261719 13.363281 33.328125 13.429688 33.328125 13.511719 L 33.324219 14.25 C 33.324219 14.332031 33.257812 14.398438 33.175781 14.394531 L 30.328125 14.390625 C 30.246094 14.390625 30.179688 14.328125 30.179688 14.246094 L 30.179688 13.503906 C 30.179688 13.425781 30.246094 13.359375 30.328125 13.359375 Z M 30.324219 9.761719 L 33.179688 9.753906 C 33.257812 9.753906 33.316406 9.816406 33.316406 9.886719 L 33.320312 10.648438 C 33.320312 10.71875 33.257812 10.78125 33.183594 10.78125 L 30.324219 10.785156 C 30.25 10.785156 30.1875 10.726562 30.1875 10.652344 L 30.1875 9.894531 C 30.1875 9.820312 30.246094 9.761719 30.324219 9.761719 Z M 28.984375 13.835938 C 28.984375 16.875 26.492188 19.339844 23.417969 19.339844 C 20.347656 19.339844 17.855469 16.875 17.855469 13.835938 C 17.855469 10.796875 20.347656 8.332031 23.417969 8.332031 C 26.492188 8.332031 28.984375 10.796875 28.984375 13.835938 Z M 22.765625 9.433594 C 19.882812 9.910156 18.128906 12.78125 19.277344 15.511719 C 20.449219 18.289062 23.695312 19.101562 26.101562 17.417969 C 26.128906 17.398438 26.148438 17.367188 26.148438 17.335938 C 26.148438 17.308594 26.136719 17.28125 26.117188 17.261719 L 23.097656 14.28125 C 22.953125 14.136719 22.867188 13.941406 22.867188 13.734375 L 22.886719 9.53125 C 22.886719 9.449219 22.847656 9.417969 22.765625 9.433594 Z M 27.894531 13.191406 C 27.554688 11.207031 26.046875 9.757812 24.066406 9.429688 C 23.976562 9.414062 23.933594 9.449219 23.933594 9.535156 L 23.933594 13.1875 C 23.933594 13.273438 23.976562 13.316406 24.0625 13.316406 L 27.796875 13.300781 C 27.875 13.300781 27.90625 13.261719 27.894531 13.191406 Z M 26.984375 16.621094 C 27 16.636719 27.015625 16.640625 27.035156 16.640625 C 27.066406 16.640625 27.085938 16.621094 27.101562 16.597656 C 27.5625 15.957031 27.863281 15.246094 28.007812 14.441406 C 28.011719 14.429688 28.011719 14.417969 28.011719 14.410156 C 28.011719 14.371094 27.980469 14.339844 27.941406 14.339844 L 24.875 14.347656 C 24.832031 14.347656 24.800781 14.382812 24.800781 14.417969 C 24.800781 14.441406 24.808594 14.457031 24.820312 14.472656 C 25.542969 15.1875 26.265625 15.902344 26.984375 16.621094 Z M 20.875 20.535156 L 20.191406 23.117188 C 20.1875 23.121094 20.1875 23.128906 20.1875 23.136719 C 20.1875 23.179688 20.222656 23.214844 20.269531 23.214844 C 20.285156 23.214844 20.300781 23.210938 20.3125 23.207031 L 24.945312 20.449219 C 25.011719 20.40625 25.085938 20.386719 25.167969 20.386719 C 27.601562 20.371094 30.035156 20.367188 32.476562 20.378906 C 34.429688 20.386719 34.945312 19.242188 34.9375 17.4375 C 34.933594 15.15625 34.933594 12.867188 34.945312 10.574219 C 34.949219 8.699219 34.347656 7.589844 32.273438 7.585938 C 27.804688 7.574219 23.335938 7.574219 18.863281 7.589844 C 17.941406 7.59375 17.285156 7.945312 16.890625 8.648438 C 16.683594 9.03125 16.574219 9.636719 16.574219 10.46875 C 16.574219 12.875 16.574219 15.28125 16.574219 17.691406 C 16.574219 18.429688 16.679688 18.976562 16.886719 19.335938 C 17.707031 20.757812 19.421875 20.308594 20.773438 20.386719 C 20.867188 20.394531 20.902344 20.441406 20.875 20.535156 Z M 20.875 20.535156 " fill-opacity="1" fill-rule="evenodd"/></g></svg>