<svg xmlns="http://www.w3.org/2000/svg" xmlns:xlink="http://www.w3.org/1999/xlink" width="50" zoomAndPan="magnify" viewBox="0 0 37.5 37.499999" height="50" preserveAspectRatio="xMidYMid meet" version="1.0"><defs><clipPath id="f4478291fe"><path d="M 2.078125 5 L 16 5 L 16 30 L 2.078125 30 Z M 2.078125 5 " clip-rule="nonzero"/></clipPath><clipPath id="029f73b501"><path d="M 14 0.898438 L 16 0.898438 L 16 34.945312 L 14 34.945312 Z M 14 0.898438 " clip-rule="nonzero"/></clipPath></defs><path fill="#000000" d="M 23.113281 4.929688 L 15.09375 4.929688 C 14.8125 4.929688 14.585938 4.707031 14.585938 4.425781 C 14.585938 4.148438 14.8125 3.925781 15.09375 3.925781 L 23.113281 3.925781 C 23.394531 3.925781 23.621094 4.148438 23.621094 4.425781 C 23.621094 4.707031 23.386719 4.929688 23.113281 4.929688 Z M 23.113281 4.929688 " fill-opacity="1" fill-rule="evenodd"/><path fill="#000000" d="M 27.496094 11.671875 L 15.085938 11.671875 C 14.804688 11.671875 14.578125 11.449219 14.578125 11.171875 C 14.578125 10.894531 14.804688 10.671875 15.085938 10.671875 L 27.496094 10.671875 C 27.78125 10.671875 28.003906 10.894531 28.003906 11.171875 C 28.003906 11.449219 27.78125 11.671875 27.496094 11.671875 Z M 27.496094 11.671875 " fill-opacity="1" fill-rule="evenodd"/><path fill="#000000" d="M 31.328125 18.425781 L 15.09375 18.425781 C 14.8125 18.425781 14.585938 18.203125 14.585938 17.925781 C 14.585938 17.648438 14.8125 17.425781 15.09375 17.425781 L 31.328125 17.425781 C 31.609375 17.425781 31.835938 17.648438 31.835938 17.925781 C 31.835938 18.203125 31.601562 18.425781 31.328125 18.425781 Z M 31.328125 18.425781 " fill-opacity="1" fill-rule="evenodd"/><path fill="#000000" d="M 27.496094 25.171875 L 15.085938 25.171875 C 14.804688 25.171875 14.578125 24.949219 14.578125 24.667969 C 14.578125 24.390625 14.804688 24.167969 15.085938 24.167969 L 27.496094 24.167969 C 27.78125 24.167969 28.003906 24.390625 28.003906 24.667969 C 28.003906 24.949219 27.78125 25.171875 27.496094 25.171875 Z M 27.496094 25.171875 " fill-opacity="1" fill-rule="evenodd"/><path fill="#000000" d="M 23.113281 31.914062 L 15.09375 31.914062 C 14.8125 31.914062 14.585938 31.691406 14.585938 31.414062 C 14.585938 31.136719 14.8125 30.914062 15.09375 30.914062 L 23.113281 30.914062 C 23.394531 30.914062 23.621094 31.136719 23.621094 31.414062 C 23.621094 31.691406 23.386719 31.914062 23.113281 31.914062 Z M 23.113281 31.914062 " fill-opacity="1" fill-rule="evenodd"/><path fill="#000000" d="M 25.078125 6.867188 C 23.71875 6.867188 22.605469 5.777344 22.605469 4.425781 C 22.605469 3.078125 23.710938 1.988281 25.078125 1.988281 C 26.445312 1.988281 27.554688 3.078125 27.554688 4.425781 C 27.554688 5.777344 26.441406 6.867188 25.078125 6.867188 Z M 25.078125 2.988281 C 24.273438 2.988281 23.621094 3.632812 23.621094 4.425781 C 23.621094 5.21875 24.273438 5.867188 25.078125 5.867188 C 25.882812 5.867188 26.539062 5.21875 26.539062 4.425781 C 26.539062 3.632812 25.882812 2.988281 25.078125 2.988281 Z M 25.078125 2.988281 " fill-opacity="1" fill-rule="evenodd"/><path fill="#000000" d="M 29.457031 13.613281 C 28.097656 13.613281 26.984375 12.523438 26.984375 11.171875 C 26.984375 9.824219 28.089844 8.730469 29.457031 8.730469 C 30.824219 8.730469 31.933594 9.824219 31.933594 11.171875 C 31.933594 12.523438 30.824219 13.613281 29.457031 13.613281 Z M 29.457031 9.738281 C 28.652344 9.738281 28 10.386719 28 11.179688 C 28 11.972656 28.652344 12.617188 29.457031 12.617188 C 30.261719 12.617188 30.917969 11.972656 30.917969 11.179688 C 30.917969 10.386719 30.269531 9.738281 29.457031 9.738281 Z M 29.457031 9.738281 " fill-opacity="1" fill-rule="evenodd"/><path fill="#000000" d="M 33.285156 20.367188 C 31.925781 20.367188 30.8125 19.273438 30.8125 17.925781 C 30.8125 16.574219 31.917969 15.484375 33.285156 15.484375 C 34.65625 15.484375 35.761719 16.574219 35.761719 17.925781 C 35.761719 19.273438 34.65625 20.367188 33.285156 20.367188 Z M 33.285156 16.484375 C 32.484375 16.484375 31.828125 17.132812 31.828125 17.925781 C 31.828125 18.71875 32.484375 19.363281 33.285156 19.363281 C 34.089844 19.363281 34.746094 18.71875 34.746094 17.925781 C 34.746094 17.132812 34.089844 16.484375 33.285156 16.484375 Z M 33.285156 16.484375 " fill-opacity="1" fill-rule="evenodd"/><path fill="#000000" d="M 29.457031 27.109375 C 28.097656 27.109375 26.984375 26.019531 26.984375 24.667969 C 26.984375 23.320312 28.089844 22.230469 29.457031 22.230469 C 30.824219 22.230469 31.933594 23.320312 31.933594 24.667969 C 31.933594 26.019531 30.824219 27.109375 29.457031 27.109375 Z M 29.457031 23.230469 C 28.652344 23.230469 28 23.878906 28 24.667969 C 28 25.460938 28.652344 26.109375 29.457031 26.109375 C 30.261719 26.109375 30.917969 25.460938 30.917969 24.667969 C 30.917969 23.878906 30.269531 23.230469 29.457031 23.230469 Z M 29.457031 23.230469 " fill-opacity="1" fill-rule="evenodd"/><path fill="#000000" d="M 25.078125 33.855469 C 23.71875 33.855469 22.605469 32.765625 22.605469 31.414062 C 22.605469 30.066406 23.710938 28.972656 25.078125 28.972656 C 26.445312 28.972656 27.554688 30.066406 27.554688 31.414062 C 27.554688 32.765625 26.441406 33.855469 25.078125 33.855469 Z M 25.078125 29.976562 C 24.273438 29.976562 23.621094 30.621094 23.621094 31.414062 C 23.621094 32.207031 24.273438 32.855469 25.078125 32.855469 C 25.882812 32.855469 26.539062 32.207031 26.539062 31.414062 C 26.539062 30.621094 25.882812 29.976562 25.078125 29.976562 Z M 25.078125 29.976562 " fill-opacity="1" fill-rule="evenodd"/><path fill="#000000" d="M 20.945312 28.542969 L 15.085938 28.542969 C 14.804688 28.542969 14.578125 28.320312 14.578125 28.042969 C 14.578125 27.765625 14.804688 27.542969 15.085938 27.542969 L 20.945312 27.542969 C 21.230469 27.542969 21.453125 27.765625 21.453125 28.042969 C 21.453125 28.320312 21.230469 28.542969 20.945312 28.542969 Z M 20.945312 28.542969 " fill-opacity="1" fill-rule="evenodd"/><path fill="#000000" d="M 20.945312 21.796875 L 15.085938 21.796875 C 14.804688 21.796875 14.578125 21.574219 14.578125 21.296875 C 14.578125 21.019531 14.804688 20.796875 15.085938 20.796875 L 20.945312 20.796875 C 21.230469 20.796875 21.453125 21.019531 21.453125 21.296875 C 21.453125 21.574219 21.230469 21.796875 20.945312 21.796875 Z M 20.945312 21.796875 " fill-opacity="1" fill-rule="evenodd"/><path fill="#000000" d="M 20.945312 15.054688 L 15.085938 15.054688 C 14.804688 15.054688 14.578125 14.832031 14.578125 14.550781 C 14.578125 14.273438 14.804688 14.050781 15.085938 14.050781 L 20.945312 14.050781 C 21.230469 14.050781 21.453125 14.273438 21.453125 14.550781 C 21.453125 14.832031 21.230469 15.054688 20.945312 15.054688 Z M 20.945312 15.054688 " fill-opacity="1" fill-rule="evenodd"/><path fill="#000000" d="M 20.945312 8.300781 L 15.085938 8.300781 C 14.804688 8.300781 14.578125 8.078125 14.578125 7.800781 C 14.578125 7.523438 14.804688 7.300781 15.085938 7.300781 L 20.945312 7.300781 C 21.230469 7.300781 21.453125 7.523438 21.453125 7.800781 C 21.453125 8.078125 21.230469 8.300781 20.945312 8.300781 Z M 20.945312 8.300781 " fill-opacity="1" fill-rule="evenodd"/><g clip-path="url(#f4478291fe)"><path fill="#000000" d="M 15.085938 29.925781 L 12.476562 29.925781 C 11.828125 29.925781 11.300781 29.40625 11.300781 28.765625 L 11.300781 27.597656 C 10.558594 27.390625 9.855469 27.097656 9.179688 26.726562 L 8.339844 27.554688 C 7.878906 28.007812 7.132812 28.007812 6.675781 27.554688 L 4.339844 25.253906 C 3.882812 24.800781 3.882812 24.066406 4.339844 23.621094 L 5.179688 22.792969 C 4.804688 22.132812 4.511719 21.429688 4.296875 20.699219 L 3.113281 20.699219 C 2.464844 20.699219 1.9375 20.175781 1.9375 19.539062 L 1.9375 16.289062 C 1.9375 15.652344 2.464844 15.128906 3.113281 15.128906 L 4.296875 15.128906 C 4.511719 14.398438 4.804688 13.703125 5.179688 13.035156 L 4.339844 12.207031 C 3.882812 11.757812 3.882812 11.019531 4.339844 10.566406 L 6.675781 8.265625 C 7.132812 7.8125 7.878906 7.8125 8.339844 8.265625 L 9.179688 9.09375 C 9.847656 8.726562 10.558594 8.433594 11.300781 8.222656 L 11.300781 7.054688 C 11.300781 6.417969 11.828125 5.894531 12.476562 5.894531 L 15.085938 5.894531 C 15.371094 5.894531 15.59375 6.117188 15.59375 6.394531 L 15.59375 29.40625 C 15.59375 29.703125 15.371094 29.925781 15.085938 29.925781 Z M 9.101562 25.609375 C 9.191406 25.609375 9.285156 25.628906 9.363281 25.679688 C 10.160156 26.15625 11.027344 26.511719 11.929688 26.726562 C 12.152344 26.785156 12.316406 26.984375 12.316406 27.214844 L 12.316406 28.765625 C 12.316406 28.847656 12.386719 28.925781 12.476562 28.925781 L 14.578125 28.925781 L 14.578125 6.917969 L 12.476562 6.917969 C 12.394531 6.917969 12.316406 6.988281 12.316406 7.078125 L 12.316406 8.628906 C 12.316406 8.855469 12.152344 9.058594 11.929688 9.113281 C 11.027344 9.328125 10.160156 9.683594 9.363281 10.164062 C 9.164062 10.28125 8.902344 10.253906 8.742188 10.085938 L 7.625 8.988281 C 7.5625 8.925781 7.464844 8.925781 7.402344 8.988281 L 5.066406 11.289062 C 5.003906 11.351562 5.003906 11.449219 5.066406 11.511719 L 6.179688 12.613281 C 6.34375 12.773438 6.378906 13.027344 6.257812 13.222656 C 5.773438 14.007812 5.414062 14.863281 5.195312 15.753906 C 5.136719 15.976562 4.933594 16.136719 4.699219 16.136719 L 3.128906 16.136719 C 3.042969 16.136719 2.964844 16.207031 2.964844 16.296875 L 2.964844 19.542969 C 2.964844 19.628906 3.035156 19.703125 3.128906 19.703125 L 4.699219 19.703125 C 4.933594 19.703125 5.136719 19.863281 5.195312 20.085938 C 5.414062 20.976562 5.773438 21.832031 6.257812 22.617188 C 6.378906 22.8125 6.351562 23.070312 6.179688 23.230469 L 5.066406 24.328125 C 5.003906 24.390625 5.003906 24.488281 5.066406 24.550781 L 7.402344 26.851562 C 7.445312 26.894531 7.484375 26.894531 7.515625 26.894531 C 7.542969 26.894531 7.585938 26.886719 7.625 26.851562 L 8.742188 25.753906 C 8.839844 25.65625 8.964844 25.609375 9.101562 25.609375 Z M 9.101562 25.609375 " fill-opacity="1" fill-rule="evenodd"/></g><path fill="#000000" d="M 14.128906 23.972656 C 10.742188 23.972656 7.992188 21.261719 7.992188 17.925781 C 7.992188 14.585938 10.742188 11.875 14.128906 11.875 C 14.480469 11.875 14.832031 11.902344 15.179688 11.964844 C 15.425781 12.007812 15.601562 12.214844 15.601562 12.460938 L 15.601562 23.398438 C 15.601562 23.640625 15.425781 23.847656 15.179688 23.890625 C 14.832031 23.945312 14.472656 23.972656 14.128906 23.972656 Z M 15.085938 23.390625 Z M 14.128906 12.871094 C 11.308594 12.871094 9.007812 15.136719 9.007812 17.917969 C 9.007812 20.699219 11.308594 22.964844 14.128906 22.964844 C 14.285156 22.964844 14.429688 22.960938 14.585938 22.945312 L 14.585938 12.882812 C 14.429688 12.875 14.277344 12.871094 14.128906 12.871094 Z M 14.128906 12.871094 " fill-opacity="1" fill-rule="evenodd"/><g clip-path="url(#029f73b501)"><path fill="#000000" d="M 15.085938 35.011719 C 14.804688 35.011719 14.578125 34.789062 14.578125 34.507812 L 14.578125 1.332031 C 14.578125 1.054688 14.804688 0.832031 15.085938 0.832031 C 15.371094 0.832031 15.59375 1.054688 15.59375 1.332031 L 15.59375 34.507812 C 15.59375 34.789062 15.371094 35.011719 15.085938 35.011719 Z M 15.085938 35.011719 " fill-opacity="1" fill-rule="evenodd"/></g></svg>