<svg xmlns="http://www.w3.org/2000/svg" xmlns:xlink="http://www.w3.org/1999/xlink" width="50" zoomAndPan="magnify" viewBox="0 0 37.5 37.499999" height="50" preserveAspectRatio="xMidYMid meet" version="1.0"><defs><clipPath id="5b0991d2ff"><path d="M 10 2.128906 L 27 2.128906 L 27 14 L 10 14 Z M 10 2.128906 " clip-rule="nonzero"/></clipPath><clipPath id="ec6cecb570"><path d="M 5 31 L 11 31 L 11 34.695312 L 5 34.695312 Z M 5 31 " clip-rule="nonzero"/></clipPath><clipPath id="b35ac33013"><path d="M 3 33 L 13 33 L 13 34.695312 L 3 34.695312 Z M 3 33 " clip-rule="nonzero"/></clipPath><clipPath id="f45b12a532"><path d="M 26 31 L 32 31 L 32 34.695312 L 26 34.695312 Z M 26 31 " clip-rule="nonzero"/></clipPath><clipPath id="4d01fdd79c"><path d="M 24 33 L 34 33 L 34 34.695312 L 24 34.695312 Z M 24 33 " clip-rule="nonzero"/></clipPath></defs><g clip-path="url(#5b0991d2ff)"><path fill="#000000" d="M 11.472656 2.132812 L 25.53125 2.132812 C 26.027344 2.132812 26.4375 2.539062 26.4375 3.03125 L 26.4375 12.726562 C 26.4375 13.21875 26.027344 13.625 25.53125 13.625 L 11.472656 13.625 C 11.066406 13.625 10.851562 13.347656 10.828125 13.347656 C 10.679688 13.199219 10.570312 12.960938 10.570312 12.726562 L 10.570312 3.03125 C 10.570312 2.539062 10.980469 2.132812 11.472656 2.132812 Z M 25.53125 2.988281 L 11.453125 2.988281 L 11.453125 12.75 L 25.554688 12.75 L 25.554688 2.988281 C 25.554688 2.988281 25.53125 2.988281 25.53125 2.988281 Z M 25.53125 2.988281 " fill-opacity="1" fill-rule="nonzero"/></g><path fill="#000000" d="M 12.960938 11.207031 C 12.960938 11.765625 12.097656 11.765625 12.097656 11.207031 L 12.097656 4.078125 C 12.097656 3.84375 12.292969 3.652344 12.527344 3.652344 L 24.457031 3.652344 C 24.691406 3.652344 24.886719 3.84375 24.886719 4.078125 L 24.886719 11.207031 C 24.886719 11.765625 24.023438 11.765625 24.023438 11.207031 L 24.023438 4.507812 L 12.960938 4.507812 Z M 12.960938 11.207031 " fill-opacity="1" fill-rule="nonzero"/><path fill="#000000" d="M 16.296875 12.769531 L 20.710938 12.769531 C 20.945312 12.769531 21.140625 12.960938 21.140625 13.199219 L 21.140625 15.402344 C 21.140625 15.636719 20.945312 15.832031 20.710938 15.832031 L 16.296875 15.832031 C 16.058594 15.832031 15.867188 15.636719 15.867188 15.402344 L 15.867188 13.199219 C 15.867188 12.960938 16.058594 12.769531 16.296875 12.769531 Z M 20.28125 13.625 L 16.726562 13.625 L 16.726562 14.976562 L 20.28125 14.976562 Z M 20.28125 13.625 " fill-opacity="1" fill-rule="nonzero"/><path fill="#000000" d="M 14.703125 15.832031 C 14.121094 15.832031 14.121094 14.976562 14.703125 14.976562 L 22.304688 14.976562 C 22.882812 14.976562 22.882812 15.832031 22.304688 15.832031 Z M 14.703125 15.832031 " fill-opacity="1" fill-rule="nonzero"/><path fill="#000000" d="M 11 11.636719 C 10.441406 11.636719 10.441406 10.78125 11 10.78125 L 26.003906 10.78125 C 26.566406 10.78125 26.566406 11.636719 26.003906 11.636719 Z M 11 11.636719 " fill-opacity="1" fill-rule="nonzero"/><path fill="#000000" d="M 1.035156 20.992188 L 15.089844 20.992188 C 15.585938 20.992188 15.996094 21.398438 15.996094 21.890625 L 15.996094 31.585938 C 15.996094 31.992188 15.714844 32.230469 15.714844 32.230469 C 15.566406 32.398438 15.328125 32.484375 15.089844 32.484375 L 1.035156 32.484375 C 0.539062 32.484375 0.128906 32.078125 0.128906 31.585938 L 0.128906 21.890625 C 0.128906 21.398438 0.539062 20.992188 1.035156 20.992188 Z M 15.089844 21.847656 L 1.011719 21.867188 L 1.011719 31.628906 C 1.035156 31.652344 15.089844 31.652344 15.113281 31.628906 L 15.113281 21.867188 C 15.113281 21.847656 15.089844 21.847656 15.089844 21.847656 Z M 15.089844 21.847656 " fill-opacity="1" fill-rule="nonzero"/><g clip-path="url(#ec6cecb570)"><path fill="#000000" d="M 5.855469 31.628906 L 10.269531 31.628906 C 10.503906 31.628906 10.699219 31.820312 10.699219 32.058594 L 10.699219 34.261719 C 10.699219 34.496094 10.503906 34.691406 10.269531 34.691406 L 5.855469 34.691406 C 5.617188 34.691406 5.425781 34.496094 5.425781 34.261719 L 5.425781 32.058594 C 5.425781 31.820312 5.617188 31.628906 5.855469 31.628906 Z M 9.839844 32.484375 L 6.285156 32.484375 L 6.285156 33.835938 L 9.839844 33.835938 Z M 9.839844 32.484375 " fill-opacity="1" fill-rule="nonzero"/></g><g clip-path="url(#b35ac33013)"><path fill="#000000" d="M 4.261719 34.691406 C 3.679688 34.691406 3.679688 33.835938 4.261719 33.835938 L 11.863281 33.835938 C 12.441406 33.835938 12.441406 34.691406 11.863281 34.691406 Z M 4.261719 34.691406 " fill-opacity="1" fill-rule="nonzero"/></g><path fill="#000000" d="M 0.558594 30.515625 C 0 30.515625 0 29.660156 0.558594 29.660156 L 15.566406 29.660156 C 16.125 29.660156 16.125 30.515625 15.566406 30.515625 Z M 0.558594 30.515625 " fill-opacity="1" fill-rule="nonzero"/><path fill="#000000" d="M 21.914062 20.992188 L 35.953125 20.992188 C 36.359375 20.992188 36.597656 21.246094 36.597656 21.246094 C 36.769531 21.417969 36.878906 21.652344 36.878906 21.890625 L 36.878906 31.585938 C 36.878906 32.101562 36.46875 32.484375 35.953125 32.484375 L 21.914062 32.484375 C 21.421875 32.484375 21.011719 32.078125 21.011719 31.585938 L 21.011719 21.890625 C 21.011719 21.398438 21.421875 20.992188 21.914062 20.992188 Z M 35.953125 21.847656 L 21.871094 21.867188 L 21.894531 31.628906 L 35.996094 31.628906 L 35.996094 21.867188 C 35.996094 21.847656 35.972656 21.847656 35.953125 21.847656 Z M 35.953125 21.847656 " fill-opacity="1" fill-rule="nonzero"/><g clip-path="url(#f45b12a532)"><path fill="#000000" d="M 26.738281 31.628906 L 31.152344 31.628906 C 31.386719 31.628906 31.582031 31.820312 31.582031 32.058594 L 31.582031 34.261719 C 31.582031 34.496094 31.386719 34.691406 31.152344 34.691406 L 26.738281 34.691406 C 26.480469 34.691406 26.308594 34.496094 26.308594 34.261719 L 26.308594 32.058594 C 26.308594 31.820312 26.480469 31.628906 26.738281 31.628906 Z M 30.71875 32.484375 L 27.167969 32.484375 L 27.167969 33.835938 L 30.71875 33.835938 Z M 30.71875 32.484375 " fill-opacity="1" fill-rule="nonzero"/></g><g clip-path="url(#4d01fdd79c)"><path fill="#000000" d="M 25.125 34.691406 C 24.5625 34.691406 24.5625 33.835938 25.125 33.835938 L 32.742188 33.835938 C 33.304688 33.835938 33.304688 34.691406 32.742188 34.691406 Z M 25.125 34.691406 " fill-opacity="1" fill-rule="nonzero"/></g><path fill="#000000" d="M 21.441406 30.515625 C 20.882812 30.515625 20.882812 29.660156 21.441406 29.660156 L 36.445312 29.660156 C 37.007812 29.660156 37.007812 30.515625 36.445312 30.515625 Z M 21.441406 30.515625 " fill-opacity="1" fill-rule="nonzero"/><path fill="#000000" d="M 18.039062 15.402344 C 18.039062 14.824219 18.902344 14.824219 18.902344 15.402344 L 18.902344 18.3125 C 18.902344 18.871094 18.039062 18.871094 18.039062 18.3125 Z M 18.039062 15.402344 " fill-opacity="1" fill-rule="nonzero"/><path fill="#000000" d="M 8.480469 21.417969 C 8.480469 21.976562 7.621094 21.976562 7.621094 21.417969 L 7.621094 18.3125 C 7.621094 18.078125 7.816406 17.886719 8.050781 17.886719 L 28.933594 17.886719 C 29.171875 17.886719 29.363281 18.078125 29.363281 18.3125 L 29.363281 21.417969 C 29.363281 21.976562 28.503906 21.976562 28.503906 21.417969 L 28.503906 18.742188 L 8.480469 18.742188 Z M 8.480469 21.417969 " fill-opacity="1" fill-rule="nonzero"/><path fill="#000000" d="M 16.273438 6.070312 C 16.664062 5.664062 17.285156 6.261719 16.878906 6.667969 L 15.886719 7.652344 L 16.878906 8.617188 C 17.285156 9.023438 16.664062 9.625 16.273438 9.214844 C 14.402344 7.375 14.402344 7.910156 16.273438 6.070312 Z M 16.273438 6.070312 " fill-opacity="1" fill-rule="nonzero"/><path fill="#000000" d="M 20.128906 6.667969 C 19.71875 6.261719 20.324219 5.664062 20.730469 6.070312 C 22.582031 7.910156 22.582031 7.375 20.730469 9.214844 C 20.324219 9.625 19.71875 9.023438 20.128906 8.617188 L 21.097656 7.652344 Z M 20.128906 6.667969 " fill-opacity="1" fill-rule="nonzero"/><path fill="#000000" d="M 18.664062 5.386719 C 18.816406 4.851562 19.632812 5.0625 19.484375 5.621094 L 18.34375 9.902344 C 18.191406 10.4375 17.351562 10.222656 17.503906 9.667969 Z M 18.664062 5.386719 " fill-opacity="1" fill-rule="nonzero"/><path fill="#000000" d="M 2.519531 30.089844 C 2.519531 30.644531 1.65625 30.644531 1.65625 30.089844 L 1.65625 22.960938 C 1.65625 22.703125 1.851562 22.53125 2.089844 22.53125 L 14.015625 22.53125 C 14.25 22.53125 14.445312 22.703125 14.445312 22.960938 L 14.445312 30.089844 C 14.445312 30.644531 13.585938 30.644531 13.585938 30.089844 L 13.585938 23.386719 L 2.519531 23.386719 Z M 2.519531 30.089844 " fill-opacity="1" fill-rule="nonzero"/><path fill="#000000" d="M 23.402344 30.089844 C 23.402344 30.644531 22.539062 30.644531 22.539062 30.089844 L 22.539062 22.960938 C 22.539062 22.703125 22.734375 22.53125 22.96875 22.53125 L 34.898438 22.53125 C 35.132812 22.53125 35.328125 22.703125 35.328125 22.960938 L 35.328125 30.089844 C 35.328125 30.644531 34.464844 30.644531 34.464844 30.089844 L 34.464844 23.386719 L 23.402344 23.386719 Z M 23.402344 30.089844 " fill-opacity="1" fill-rule="nonzero"/><path fill="#000000" d="M 4.542969 28.71875 C 3.984375 28.71875 3.984375 27.863281 4.542969 27.863281 L 8.480469 27.863281 C 9.0625 27.863281 9.0625 28.71875 8.480469 28.71875 Z M 10.332031 28.71875 C 9.773438 28.71875 9.773438 27.863281 10.332031 27.863281 L 11.582031 27.863281 C 12.140625 27.863281 12.140625 28.71875 11.582031 28.71875 Z M 10.332031 28.71875 " fill-opacity="1" fill-rule="nonzero"/><path fill="#000000" d="M 4.542969 25.164062 C 3.984375 25.164062 3.984375 24.308594 4.542969 24.308594 L 8.480469 24.308594 C 9.0625 24.308594 9.0625 25.164062 8.480469 25.164062 Z M 10.332031 25.164062 C 9.773438 25.164062 9.773438 24.308594 10.332031 24.308594 L 11.582031 24.308594 C 12.140625 24.308594 12.140625 25.164062 11.582031 25.164062 Z M 10.332031 25.164062 " fill-opacity="1" fill-rule="nonzero"/><path fill="#000000" d="M 4.542969 26.941406 C 3.984375 26.941406 3.984375 26.085938 4.542969 26.085938 L 6.351562 26.085938 C 6.910156 26.085938 6.910156 26.941406 6.351562 26.941406 Z M 8.203125 26.941406 C 7.621094 26.941406 7.621094 26.085938 8.203125 26.085938 L 11.582031 26.085938 C 12.140625 26.085938 12.140625 26.941406 11.582031 26.941406 Z M 8.203125 26.941406 " fill-opacity="1" fill-rule="nonzero"/><path fill="#000000" d="M 25.425781 28.71875 C 24.84375 28.71875 24.84375 27.863281 25.425781 27.863281 L 29.363281 27.863281 C 29.925781 27.863281 29.925781 28.71875 29.363281 28.71875 Z M 31.214844 28.71875 C 30.65625 28.71875 30.65625 27.863281 31.214844 27.863281 L 32.464844 27.863281 C 33.023438 27.863281 33.023438 28.71875 32.464844 28.71875 Z M 31.214844 28.71875 " fill-opacity="1" fill-rule="nonzero"/><path fill="#000000" d="M 25.425781 25.164062 C 24.84375 25.164062 24.84375 24.308594 25.425781 24.308594 L 29.363281 24.308594 C 29.925781 24.308594 29.925781 25.164062 29.363281 25.164062 Z M 31.214844 25.164062 C 30.65625 25.164062 30.65625 24.308594 31.214844 24.308594 L 32.464844 24.308594 C 33.023438 24.308594 33.023438 25.164062 32.464844 25.164062 Z M 31.214844 25.164062 " fill-opacity="1" fill-rule="nonzero"/><path fill="#000000" d="M 25.425781 26.941406 C 24.84375 26.941406 24.84375 26.085938 25.425781 26.085938 L 27.234375 26.085938 C 27.792969 26.085938 27.792969 26.941406 27.234375 26.941406 Z M 29.0625 26.941406 C 28.503906 26.941406 28.503906 26.085938 29.0625 26.085938 L 32.464844 26.085938 C 33.023438 26.085938 33.023438 26.941406 32.464844 26.941406 Z M 29.0625 26.941406 " fill-opacity="1" fill-rule="nonzero"/></svg>