<svg xmlns="http://www.w3.org/2000/svg" xmlns:xlink="http://www.w3.org/1999/xlink" width="50" zoomAndPan="magnify" viewBox="0 0 37.5 37.499999" height="50" preserveAspectRatio="xMidYMid meet" version="1.0"><defs><clipPath id="2eb6dbd35b"><path d="M 0.445312 1.644531 L 36.714844 1.644531 L 36.714844 35.6875 L 0.445312 35.6875 Z M 0.445312 1.644531 " clip-rule="nonzero"/></clipPath></defs><g clip-path="url(#2eb6dbd35b)"><path fill="#000000" d="M 30.722656 16.042969 L 27.757812 16.042969 L 27.757812 20.261719 L 28.714844 20.261719 C 28.992188 20.261719 29.21875 20.488281 29.21875 20.769531 L 29.21875 21.976562 C 29.21875 22.921875 28.453125 23.695312 27.511719 23.695312 L 27.40625 23.695312 L 28.875 25.171875 C 30.761719 23.84375 33.390625 25.199219 33.390625 27.539062 C 33.390625 29.132812 32.105469 30.425781 30.519531 30.425781 C 28.191406 30.425781 26.84375 27.785156 28.160156 25.890625 L 25.976562 23.695312 L 19.082031 23.695312 L 19.082031 29.671875 C 21.347656 30.074219 22.253906 32.898438 20.605469 34.554688 C 19.484375 35.683594 17.667969 35.683594 16.546875 34.554688 C 14.898438 32.898438 15.804688 30.074219 18.070312 29.671875 L 18.070312 23.695312 L 11.171875 23.695312 L 8.992188 25.890625 C 10.308594 27.785156 8.960938 30.425781 6.632812 30.425781 C 5.046875 30.425781 3.761719 29.132812 3.761719 27.539062 C 3.761719 25.199219 6.386719 23.84375 8.277344 25.171875 L 9.742188 23.695312 L 9.640625 23.695312 C 8.699219 23.695312 7.933594 22.921875 7.933594 21.976562 L 7.933594 20.769531 C 7.933594 20.488281 8.160156 20.261719 8.4375 20.261719 L 9.394531 20.261719 L 9.394531 16.042969 L 6.429688 16.042969 C 6.027344 18.320312 3.21875 19.230469 1.570312 17.574219 C 0.449219 16.445312 0.449219 14.617188 1.570312 13.492188 C 3.21875 11.835938 6.027344 12.746094 6.429688 15.023438 L 9.394531 15.023438 L 9.394531 12.882812 L 7.023438 10.28125 C 6.503906 9.707031 6.429688 8.863281 6.8125 8.214844 L 3.78125 4.882812 C 3.59375 4.675781 3.609375 4.355469 3.8125 4.167969 C 4.019531 3.976562 4.335938 3.992188 4.523438 4.199219 L 7.554688 7.53125 C 8.234375 7.207031 9.0625 7.355469 9.582031 7.925781 L 10.695312 9.148438 C 10.824219 9.117188 10.953125 9.101562 11.082031 9.101562 L 15.898438 9.101562 C 16.058594 9.023438 16.222656 8.957031 16.390625 8.894531 C 17.039062 8.664062 17.675781 8.566406 18.40625 8.566406 C 16.078125 7.742188 15.378906 4.738281 17.140625 2.964844 C 18.460938 1.640625 20.597656 1.640625 21.917969 2.964844 C 23.679688 4.738281 22.980469 7.742188 20.652344 8.566406 L 20.757812 8.566406 C 21.546875 8.566406 22.292969 8.757812 22.949219 9.101562 L 26.070312 9.101562 C 27 9.101562 27.757812 9.863281 27.757812 10.796875 L 27.757812 15.023438 L 30.722656 15.023438 C 31.125 12.746094 33.933594 11.835938 35.578125 13.492188 C 36.699219 14.617188 36.703125 16.445312 35.578125 17.574219 C 33.933594 19.230469 31.125 18.320312 30.722656 16.042969 Z M 18.070312 18.699219 C 18.015625 18.527344 17.984375 18.347656 17.984375 18.160156 C 17.984375 17.152344 18.75 16.84375 19.484375 16.484375 L 22.128906 15.171875 L 22.128906 13.621094 C 22.128906 13.339844 22.355469 13.109375 22.632812 13.109375 C 22.914062 13.109375 23.140625 13.339844 23.140625 13.621094 L 23.140625 15.484375 L 23.136719 15.484375 C 23.136719 15.671875 23.035156 15.851562 22.855469 15.941406 L 19.804688 17.453125 C 19.507812 17.601562 19.21875 17.742188 19.082031 17.921875 L 19.082031 18.496094 C 19.113281 18.558594 19.15625 18.613281 19.203125 18.664062 C 19.332031 18.792969 19.511719 18.875 19.707031 18.875 L 20.128906 18.875 L 24.558594 16.601562 L 24.558594 13.402344 C 24.558594 11.304688 22.847656 9.582031 20.757812 9.582031 L 18.355469 9.582031 C 17.191406 9.582031 16.203125 9.9375 15.300781 10.679688 L 13.410156 12.234375 C 13 12.570312 12.402344 12.527344 12.046875 12.132812 L 8.839844 8.609375 C 8.414062 8.144531 7.609375 8.410156 7.582031 9.070312 C 7.570312 9.257812 7.632812 9.449219 7.765625 9.597656 L 11.25 13.425781 C 12.007812 14.261719 13.15625 14.492188 14.179688 14.015625 L 16.242188 13.058594 C 16.578125 12.902344 16.960938 13.15625 16.957031 13.519531 L 16.960938 13.519531 L 16.960938 18.875 L 18.070312 18.875 Z M 10.40625 13.996094 L 10.40625 20.261719 L 15.738281 20.261719 C 15.902344 20.261719 16.050781 20.339844 16.144531 20.464844 L 16.625 20.996094 L 20.515625 20.996094 L 20.996094 20.4375 C 21.09375 20.324219 21.234375 20.261719 21.378906 20.261719 L 26.746094 20.261719 L 26.746094 10.796875 C 26.746094 10.425781 26.441406 10.117188 26.070312 10.117188 L 24.28125 10.117188 C 25.082031 10.980469 25.570312 12.136719 25.570312 13.402344 L 25.570312 16.914062 C 25.570312 17.097656 25.46875 17.277344 25.292969 17.367188 L 20.496094 19.824219 C 20.425781 19.867188 20.339844 19.890625 20.25 19.890625 L 16.945312 19.890625 C 16.398438 19.890625 15.949219 19.441406 15.949219 18.886719 L 15.949219 14.3125 L 14.601562 14.9375 C 13.1875 15.597656 11.5625 15.269531 10.507812 14.109375 Z M 11.574219 10.117188 L 12.78125 11.441406 L 14.390625 10.117188 Z M 21.203125 3.683594 C 20.277344 2.753906 18.78125 2.753906 17.855469 3.683594 C 16.933594 4.613281 16.933594 6.117188 17.855469 7.046875 C 18.78125 7.972656 20.277344 7.972656 21.203125 7.046875 C 22.125 6.117188 22.125 4.613281 21.203125 3.683594 Z M 15.519531 21.277344 L 8.945312 21.277344 L 8.945312 21.976562 C 8.945312 22.363281 9.257812 22.675781 9.640625 22.675781 L 27.511719 22.675781 C 27.894531 22.675781 28.207031 22.363281 28.207031 21.976562 L 28.207031 21.277344 L 21.605469 21.277344 L 21.152344 21.808594 C 21.058594 21.933594 20.910156 22.015625 20.746094 22.015625 L 16.40625 22.015625 L 16.40625 22.011719 C 16.269531 22.011719 16.132812 21.957031 16.035156 21.847656 Z M 2.289062 16.855469 C 3.457031 18.03125 5.464844 17.195312 5.464844 15.53125 C 5.464844 13.871094 3.457031 13.035156 2.289062 14.210938 C 1.5625 14.941406 1.5625 16.125 2.289062 16.855469 Z M 34.863281 14.210938 C 33.695312 13.035156 31.6875 13.871094 31.6875 15.53125 C 31.6875 17.195312 33.695312 18.03125 34.863281 16.855469 C 35.589844 16.125 35.589844 14.941406 34.863281 14.210938 Z M 7.949219 28.863281 C 9.117188 27.6875 8.289062 25.667969 6.632812 25.667969 C 4.980469 25.667969 4.148438 27.6875 5.316406 28.863281 C 6.042969 29.59375 7.222656 29.59375 7.949219 28.863281 Z M 19.890625 33.835938 C 21.058594 32.660156 20.230469 30.640625 18.574219 30.640625 C 16.921875 30.640625 16.089844 32.660156 17.261719 33.835938 C 17.988281 34.566406 19.164062 34.566406 19.890625 33.835938 Z M 32.378906 27.539062 C 32.378906 25.875 30.371094 25.042969 29.203125 26.21875 C 28.035156 27.390625 28.863281 29.410156 30.519531 29.410156 C 31.546875 29.410156 32.378906 28.574219 32.378906 27.539062 Z M 32.378906 27.539062 " fill-opacity="1" fill-rule="evenodd"/></g></svg>