<svg xmlns="http://www.w3.org/2000/svg" xmlns:xlink="http://www.w3.org/1999/xlink" width="50" zoomAndPan="magnify" viewBox="0 0 37.5 37.499999" height="50" preserveAspectRatio="xMidYMid meet" version="1.0"><defs><clipPath id="373b654488"><path d="M 0.960938 0.960938 L 35.75 0.960938 L 35.75 35.75 L 0.960938 35.75 Z M 0.960938 0.960938 " clip-rule="nonzero"/></clipPath><clipPath id="e5a4733422"><path d="M 3 24 L 14 24 L 14 35.75 L 3 35.75 Z M 3 24 " clip-rule="nonzero"/></clipPath></defs><path fill="#ffbd59" d="M 12.609375 8.285156 C 10.222656 8.285156 8.257812 10.195312 8.257812 12.582031 C 8.257812 14.972656 10.222656 16.882812 12.609375 16.882812 C 14.996094 16.882812 16.960938 14.972656 16.960938 12.582031 C 16.960938 10.195312 15.050781 8.285156 12.609375 8.285156 Z M 12.609375 15.875 C 10.804688 15.875 9.320312 14.441406 9.320312 12.636719 C 9.320312 10.832031 10.804688 9.398438 12.609375 9.398438 C 14.414062 9.398438 15.898438 10.832031 15.898438 12.636719 C 15.898438 14.441406 14.46875 15.875 12.609375 15.875 Z M 12.609375 15.875 " fill-opacity="1" fill-rule="nonzero"/><path fill="#ffbd59" d="M 33.039062 23.832031 L 31.710938 23.671875 C 31.554688 23.035156 31.289062 22.453125 30.96875 21.921875 L 32.191406 20.382812 L 30.703125 18.898438 C 30.4375 18.632812 30.015625 18.632812 29.75 18.84375 L 28.6875 19.640625 C 28.15625 19.324219 27.519531 19.058594 26.9375 18.898438 L 26.777344 17.570312 C 26.726562 17.199219 26.40625 16.933594 26.089844 16.933594 L 24.65625 16.933594 C 24.285156 16.933594 23.964844 17.199219 23.964844 17.570312 L 23.804688 18.898438 C 23.167969 19.058594 22.585938 19.324219 22.054688 19.640625 L 20.992188 18.84375 C 20.726562 18.632812 20.304688 18.683594 20.039062 18.898438 L 19.03125 19.90625 C 18.765625 20.171875 18.765625 20.542969 18.976562 20.859375 L 19.773438 21.921875 C 19.453125 22.453125 19.191406 23.035156 19.03125 23.671875 L 17.703125 23.832031 C 17.332031 23.886719 17.066406 24.203125 17.066406 24.523438 L 17.066406 25.957031 C 17.066406 26.328125 17.332031 26.644531 17.703125 26.644531 L 19.03125 26.804688 C 19.191406 27.441406 19.453125 28.023438 19.773438 28.554688 L 18.976562 29.617188 C 18.765625 29.882812 18.765625 30.304688 19.03125 30.570312 L 20.039062 31.582031 C 20.304688 31.84375 20.675781 31.84375 20.992188 31.632812 L 22.054688 30.835938 C 22.585938 31.15625 23.222656 31.421875 23.804688 31.582031 L 23.964844 32.90625 C 24.019531 33.277344 24.335938 33.542969 24.65625 33.542969 L 26.089844 33.542969 C 26.460938 33.542969 26.777344 33.277344 26.777344 32.90625 L 26.9375 31.582031 C 27.574219 31.421875 28.15625 31.15625 28.6875 30.835938 L 29.75 31.632812 C 29.855469 31.738281 30.015625 31.792969 30.226562 31.792969 C 30.4375 31.792969 30.597656 31.738281 30.757812 31.582031 L 31.765625 30.570312 C 32.03125 30.304688 32.03125 29.933594 31.820312 29.617188 L 31.023438 28.554688 C 31.339844 28.023438 31.605469 27.441406 31.765625 26.804688 L 33.09375 26.644531 C 33.464844 26.59375 33.730469 26.273438 33.730469 25.957031 L 33.730469 24.523438 C 33.675781 24.203125 33.410156 23.886719 33.039062 23.832031 Z M 32.613281 25.691406 L 31.339844 25.847656 C 31.023438 25.902344 30.8125 26.113281 30.757812 26.433594 C 30.597656 27.070312 30.332031 27.707031 30.015625 28.289062 C 29.855469 28.554688 29.855469 28.875 30.066406 29.140625 L 30.863281 30.148438 L 30.175781 30.679688 L 29.113281 29.882812 C 28.898438 29.722656 28.527344 29.667969 28.261719 29.828125 C 27.679688 30.199219 27.097656 30.464844 26.40625 30.570312 C 26.089844 30.625 25.875 30.890625 25.824219 31.15625 L 25.664062 32.429688 L 24.867188 32.429688 L 24.707031 31.207031 C 24.65625 30.890625 24.441406 30.679688 24.125 30.625 C 23.433594 30.464844 22.851562 30.253906 22.265625 29.882812 C 22.003906 29.722656 21.683594 29.722656 21.417969 29.933594 L 20.410156 30.679688 L 19.828125 30.09375 L 20.675781 28.980469 L 20.941406 28.660156 L 20.726562 28.34375 C 20.355469 27.757812 20.039062 27.121094 19.933594 26.433594 C 19.878906 26.113281 19.613281 25.902344 19.347656 25.847656 L 17.96875 25.691406 L 17.96875 24.839844 L 19.242188 24.683594 C 19.5625 24.628906 19.773438 24.417969 19.828125 24.097656 C 19.984375 23.460938 20.25 22.824219 20.570312 22.242188 C 20.726562 21.976562 20.726562 21.65625 20.515625 21.390625 L 19.71875 20.382812 L 20.304688 19.800781 L 21.257812 20.542969 L 21.578125 20.753906 L 21.949219 20.753906 L 22.109375 20.648438 C 22.691406 20.277344 23.328125 19.960938 24.070312 19.851562 C 24.390625 19.800781 24.601562 19.535156 24.65625 19.269531 L 24.8125 17.996094 L 25.664062 17.996094 L 25.824219 19.269531 C 25.875 19.585938 26.089844 19.800781 26.40625 19.851562 C 27.097656 20.011719 27.679688 20.222656 28.261719 20.597656 C 28.527344 20.753906 28.847656 20.753906 29.113281 20.542969 L 30.121094 19.746094 L 30.703125 20.332031 L 29.910156 21.339844 C 29.695312 21.605469 29.695312 21.921875 29.855469 22.1875 C 30.226562 22.769531 30.492188 23.355469 30.597656 24.046875 C 30.652344 24.363281 30.917969 24.574219 31.183594 24.628906 L 32.457031 24.789062 L 32.457031 25.691406 Z M 32.613281 25.691406 " fill-opacity="1" fill-rule="nonzero"/><path fill="#ffbd59" d="M 25.292969 21.285156 C 23.0625 21.285156 21.257812 23.089844 21.257812 25.265625 C 21.257812 27.496094 23.0625 29.246094 25.292969 29.246094 C 27.519531 29.246094 29.324219 27.441406 29.324219 25.265625 C 29.324219 23.035156 27.519531 21.285156 25.292969 21.285156 Z M 25.292969 28.183594 C 23.648438 28.183594 22.320312 26.855469 22.320312 25.265625 C 22.320312 23.621094 23.648438 22.347656 25.292969 22.347656 C 26.9375 22.347656 28.261719 23.671875 28.261719 25.265625 C 28.261719 26.855469 26.9375 28.183594 25.292969 28.183594 Z M 25.292969 28.183594 " fill-opacity="1" fill-rule="nonzero"/><g clip-path="url(#373b654488)"><path fill="#ffbd59" d="M 25.292969 14.546875 C 24.867188 14.546875 24.496094 14.601562 24.125 14.601562 C 24.230469 13.960938 24.285156 13.273438 24.285156 12.636719 C 24.285156 6.214844 19.082031 0.960938 12.664062 0.960938 C 6.1875 0.960938 0.988281 6.214844 0.988281 12.636719 C 0.988281 19.058594 6.1875 24.308594 12.609375 24.308594 C 13.300781 24.308594 13.988281 24.257812 14.625 24.152344 C 14.574219 24.523438 14.574219 24.945312 14.574219 25.320312 C 14.574219 31.207031 19.402344 36.039062 25.292969 36.039062 C 31.183594 35.984375 36.011719 31.15625 36.011719 25.265625 C 36.011719 19.324219 31.183594 14.546875 25.292969 14.546875 Z M 12.609375 23.195312 C 6.773438 23.195312 2.050781 18.472656 2.050781 12.636719 C 2.050781 6.800781 6.773438 2.023438 12.609375 2.023438 C 18.445312 2.023438 23.167969 6.800781 23.167969 12.636719 C 23.167969 13.378906 23.0625 14.121094 22.957031 14.8125 C 21.472656 15.128906 20.144531 15.765625 18.976562 16.617188 L 18.710938 16.296875 C 19.082031 15.660156 19.347656 15.023438 19.507812 14.335938 C 19.933594 14.28125 20.675781 14.175781 20.992188 14.121094 C 21.367188 14.070312 21.628906 13.75 21.628906 13.378906 L 21.628906 11.839844 C 21.628906 11.46875 21.367188 11.152344 20.992188 11.097656 L 19.5625 10.886719 C 19.402344 10.195312 19.136719 9.558594 18.765625 8.921875 L 20.089844 7.222656 L 18.5 5.632812 C 18.234375 5.367188 17.808594 5.367188 17.542969 5.578125 L 16.324219 6.480469 C 15.6875 6.109375 15.050781 5.84375 14.359375 5.683594 L 14.148438 4.199219 C 14.09375 3.878906 13.777344 3.617188 13.40625 3.617188 L 11.8125 3.617188 C 11.441406 3.617188 11.125 3.878906 11.070312 4.253906 L 10.910156 5.738281 C 10.222656 5.898438 9.53125 6.164062 8.949219 6.535156 C 8.578125 6.269531 7.992188 5.84375 7.726562 5.632812 C 7.460938 5.417969 7.039062 5.417969 6.773438 5.683594 L 5.660156 6.800781 C 5.394531 7.066406 5.394531 7.4375 5.605469 7.753906 L 6.507812 8.921875 C 6.136719 9.558594 5.871094 10.195312 5.710938 10.886719 L 5.605469 10.886719 C 5.128906 10.992188 4.492188 11.042969 4.171875 11.097656 C 3.800781 11.152344 3.535156 11.46875 3.535156 11.839844 L 3.535156 13.378906 C 3.535156 13.75 3.800781 14.070312 4.171875 14.121094 L 5.660156 14.335938 C 5.816406 15.023438 6.082031 15.660156 6.453125 16.296875 C 6.1875 16.667969 5.765625 17.199219 5.550781 17.464844 C 5.339844 17.730469 5.339844 18.15625 5.605469 18.421875 L 6.71875 19.535156 C 6.984375 19.800781 7.355469 19.800781 7.675781 19.585938 L 8.894531 18.683594 C 9.53125 19.058594 10.167969 19.324219 10.859375 19.480469 L 11.070312 20.96875 C 11.125 21.339844 11.441406 21.605469 11.8125 21.605469 L 13.40625 21.605469 C 13.777344 21.605469 14.09375 21.339844 14.148438 20.96875 L 14.359375 19.480469 C 15.050781 19.324219 15.742188 19.058594 16.324219 18.683594 L 16.644531 18.949219 C 15.792969 20.117188 15.15625 21.496094 14.785156 22.984375 C 14.09375 23.144531 13.40625 23.195312 12.609375 23.195312 Z M 17.332031 18.101562 L 16.800781 17.675781 C 16.535156 17.464844 16.21875 17.464844 15.953125 17.625 C 15.316406 18.046875 14.625 18.3125 13.9375 18.472656 C 13.617188 18.527344 13.40625 18.792969 13.351562 19.109375 L 13.140625 20.542969 L 12.132812 20.542969 L 11.917969 19.109375 C 11.867188 18.792969 11.65625 18.527344 11.335938 18.472656 C 10.59375 18.3125 9.902344 18.046875 9.320312 17.625 C 9.054688 17.464844 8.734375 17.464844 8.472656 17.675781 L 7.304688 18.578125 L 6.613281 17.890625 C 6.933594 17.464844 7.460938 16.828125 7.570312 16.667969 L 7.886719 16.296875 L 7.570312 15.980469 C 7.144531 15.34375 6.878906 14.652344 6.667969 13.910156 C 6.613281 13.589844 6.347656 13.378906 6.03125 13.324219 L 4.597656 13.113281 L 4.597656 12.105469 C 4.914062 12.050781 5.394531 12 5.710938 11.945312 L 6.03125 11.894531 C 6.347656 11.839844 6.558594 11.628906 6.667969 11.308594 C 6.824219 10.621094 7.089844 9.929688 7.515625 9.292969 C 7.675781 9.027344 7.675781 8.65625 7.460938 8.445312 L 6.613281 7.328125 L 7.304688 6.640625 C 7.726562 6.957031 8.417969 7.488281 8.578125 7.59375 L 9 7.808594 L 9.265625 7.542969 C 9.902344 7.117188 10.59375 6.851562 11.390625 6.691406 C 11.707031 6.640625 11.917969 6.375 11.972656 6.054688 L 12.132812 4.675781 L 13.140625 4.675781 L 13.351562 6.109375 C 13.40625 6.429688 13.617188 6.640625 13.9375 6.746094 C 14.679688 6.90625 15.367188 7.171875 15.953125 7.59375 C 16.21875 7.753906 16.535156 7.753906 16.800781 7.542969 L 17.96875 6.640625 L 18.660156 7.328125 L 17.757812 8.496094 C 17.597656 8.761719 17.597656 9.082031 17.757812 9.347656 C 18.179688 9.984375 18.445312 10.621094 18.605469 11.363281 C 18.660156 11.679688 18.925781 11.894531 19.242188 11.945312 L 20.675781 12.160156 L 20.675781 13.167969 C 20.199219 13.21875 19.507812 13.324219 19.242188 13.378906 C 18.925781 13.433594 18.710938 13.644531 18.605469 13.960938 C 18.445312 14.707031 18.179688 15.34375 17.757812 15.980469 C 17.597656 16.246094 17.597656 16.5625 17.757812 16.828125 L 18.179688 17.359375 C 17.863281 17.519531 17.597656 17.835938 17.332031 18.101562 Z M 25.292969 34.921875 C 19.984375 34.921875 15.632812 30.570312 15.632812 25.265625 C 15.632812 19.960938 19.984375 15.609375 25.292969 15.609375 C 30.597656 15.609375 34.949219 19.90625 34.949219 25.265625 C 34.949219 30.625 30.597656 34.921875 25.292969 34.921875 Z M 25.292969 34.921875 " fill-opacity="1" fill-rule="nonzero"/></g><path fill="#ffbd59" d="M 24.65625 5.207031 C 24.65625 5.207031 24.65625 5.261719 24.65625 5.207031 L 27.308594 7.648438 C 27.519531 7.859375 27.839844 7.859375 28.050781 7.59375 C 28.261719 7.382812 28.261719 7.066406 28 6.851562 L 26.351562 5.3125 L 33.199219 5.3125 L 33.199219 14.441406 C 33.199219 14.757812 33.410156 14.972656 33.730469 14.972656 C 34.046875 14.972656 34.261719 14.757812 34.261719 14.441406 L 34.261719 4.835938 C 34.261719 4.515625 34.046875 4.304688 33.730469 4.304688 L 26.40625 4.304688 L 28 2.871094 C 28.210938 2.660156 28.210938 2.34375 28.050781 2.128906 C 27.839844 1.917969 27.519531 1.917969 27.308594 2.078125 L 24.65625 4.464844 C 24.550781 4.570312 24.496094 4.675781 24.496094 4.835938 C 24.496094 4.996094 24.550781 5.152344 24.65625 5.207031 Z M 24.65625 5.207031 " fill-opacity="1" fill-rule="nonzero"/><g clip-path="url(#e5a4733422)"><path fill="#ffbd59" d="M 13.722656 32.21875 C 13.722656 32.058594 13.671875 31.953125 13.566406 31.84375 L 10.910156 29.40625 C 10.699219 29.191406 10.382812 29.191406 10.167969 29.457031 C 9.957031 29.667969 9.957031 29.988281 10.222656 30.199219 L 11.867188 31.738281 L 4.96875 31.738281 L 4.96875 25.371094 C 4.96875 25.054688 4.757812 24.839844 4.4375 24.839844 C 4.121094 24.839844 3.90625 25.054688 3.90625 25.371094 L 3.90625 32.269531 C 3.90625 32.589844 4.121094 32.800781 4.4375 32.800781 L 11.8125 32.800781 L 10.222656 34.234375 C 10.007812 34.445312 10.007812 34.765625 10.167969 34.976562 C 10.382812 35.1875 10.699219 35.1875 10.910156 35.027344 L 13.566406 32.640625 C 13.777344 32.429688 13.722656 32.058594 13.722656 32.21875 Z M 13.722656 32.21875 " fill-opacity="1" fill-rule="nonzero"/></g></svg>