<svg xmlns="http://www.w3.org/2000/svg" xmlns:xlink="http://www.w3.org/1999/xlink" width="50" zoomAndPan="magnify" viewBox="0 0 37.5 37.499999" height="50" preserveAspectRatio="xMidYMid meet" version="1.0"><defs><clipPath id="10368ce78b"><path d="M 0 0.625 L 37 0.625 L 37 36.152344 L 0 36.152344 Z M 0 0.625 " clip-rule="nonzero"/></clipPath></defs><g clip-path="url(#10368ce78b)"><path fill="#ff5757" d="M 24.777344 19.695312 C 24.582031 19.695312 24.367188 19.585938 24.277344 19.371094 L 23.542969 17.898438 C 22.890625 21.191406 20.917969 24.160156 19.621094 25.675781 C 19.144531 26.238281 18.253906 25.503906 18.730469 24.917969 C 20.074219 23.359375 22.003906 20.410156 22.5 17.203125 L 20.855469 18.761719 C 20.292969 19.285156 19.511719 18.4375 20.054688 17.917969 L 22.761719 15.359375 C 23.023438 15.101562 23.5 15.1875 23.671875 15.535156 L 25.296875 18.871094 C 25.492188 19.238281 25.210938 19.695312 24.777344 19.695312 Z M 19.859375 36.382812 L 14.9375 36.382812 C 14.679688 36.382812 14.460938 36.230469 14.375 35.96875 L 13.117188 31.789062 C 12.53125 31.59375 11.949219 31.332031 11.382812 31.050781 L 7.527344 33.132812 C 7.289062 33.261719 7.027344 33.21875 6.832031 33.042969 L 3.367188 29.554688 C 3.171875 29.382812 3.148438 29.101562 3.257812 28.882812 L 5.339844 25.027344 C 5.054688 24.460938 4.816406 23.878906 4.621094 23.269531 L 0.417969 22.015625 C 0.179688 21.949219 0.0078125 21.710938 0.0078125 21.472656 L 0.0078125 16.554688 C 0.0078125 16.292969 0.179688 16.074219 0.417969 15.988281 L 4.621094 14.734375 C 4.816406 14.148438 5.054688 13.5625 5.339844 13 L 3.257812 9.140625 C 3.148438 8.902344 3.171875 8.644531 3.367188 8.449219 L 6.832031 4.980469 C 7.027344 4.808594 7.289062 4.765625 7.527344 4.871094 L 11.382812 6.953125 C 11.949219 6.671875 12.53125 6.433594 13.117188 6.238281 L 14.375 2.03125 C 14.460938 1.792969 14.679688 1.621094 14.9375 1.621094 L 19.859375 1.621094 C 20.097656 1.621094 20.335938 1.792969 20.398438 2.03125 L 21.65625 6.238281 C 22.261719 6.433594 22.847656 6.671875 23.410156 6.953125 L 25.535156 5.804688 C 25.816406 2.898438 28.265625 0.625 31.257812 0.625 C 34.421875 0.625 37 3.203125 37 6.367188 C 37 10.09375 34.832031 9.140625 34.398438 12.824219 C 34.378906 13.085938 34.183594 13.28125 33.964844 13.324219 C 33.964844 14.167969 34.03125 15.015625 33.574219 15.75 C 34.007812 15.882812 34.769531 15.96875 34.769531 16.554688 L 34.769531 21.472656 C 34.769531 21.710938 34.617188 21.949219 34.355469 22.015625 L 30.171875 23.269531 C 29.976562 23.878906 29.71875 24.460938 29.4375 25.027344 L 31.515625 28.882812 C 31.648438 29.101562 31.605469 29.382812 31.429688 29.554688 L 27.941406 33.042969 C 27.769531 33.21875 27.484375 33.261719 27.269531 33.132812 L 23.410156 31.074219 C 22.847656 31.355469 22.261719 31.59375 21.65625 31.789062 L 20.398438 35.96875 C 20.335938 36.230469 20.097656 36.382812 19.859375 36.382812 Z M 25.535156 7.125 C 22.480469 8.773438 24.171875 8.210938 21.027344 7.234375 C 20.832031 7.191406 20.703125 7.039062 20.636719 6.84375 L 19.425781 2.792969 L 15.371094 2.792969 L 14.136719 6.84375 C 14.09375 7.039062 13.941406 7.191406 13.769531 7.234375 C 13.03125 7.472656 12.316406 7.753906 11.644531 8.121094 C 11.472656 8.210938 11.277344 8.210938 11.101562 8.121094 L 7.351562 6.105469 L 4.492188 8.96875 L 6.507812 12.71875 C 6.59375 12.890625 6.59375 13.085938 6.507812 13.257812 C 6.140625 13.929688 5.859375 14.644531 5.621094 15.382812 C 5.578125 15.554688 5.425781 15.707031 5.230469 15.75 L 1.15625 16.984375 L 1.15625 21.039062 L 5.230469 22.253906 C 5.425781 22.316406 5.578125 22.449219 5.621094 22.640625 C 5.859375 23.378906 6.140625 24.074219 6.507812 24.765625 C 6.59375 24.917969 6.59375 25.132812 6.507812 25.308594 L 4.492188 29.058594 L 7.351562 31.917969 L 11.101562 29.902344 C 11.277344 29.816406 11.472656 29.816406 11.644531 29.902344 C 12.316406 30.25 13.03125 30.550781 13.769531 30.769531 C 13.941406 30.835938 14.09375 30.984375 14.136719 31.160156 L 15.371094 35.234375 L 19.425781 35.234375 L 20.636719 31.160156 C 20.703125 30.984375 20.832031 30.835938 21.027344 30.769531 C 21.742188 30.550781 22.457031 30.25 23.152344 29.902344 C 23.304688 29.816406 23.519531 29.816406 23.695312 29.902344 L 27.441406 31.917969 L 30.304688 29.058594 L 28.289062 25.308594 C 28.203125 25.132812 28.179688 24.941406 28.289062 24.765625 C 28.632812 24.074219 28.9375 23.378906 29.15625 22.640625 C 29.21875 22.449219 29.351562 22.316406 29.542969 22.253906 L 33.617188 21.039062 L 33.617188 16.984375 L 32.644531 16.683594 C 30.867188 17.746094 28.546875 16.445312 28.546875 14.363281 L 28.546875 13.324219 C 27.636719 13.128906 28.570312 11.828125 26.769531 9.75 C 26.230469 9.140625 25.6875 8.511719 25.535156 7.125 Z M 32.167969 15.621094 L 32.558594 15.210938 L 29.957031 15.210938 C 30.410156 15.925781 31.453125 16.140625 32.167969 15.621094 Z M 17.386719 29.144531 C 11.796875 29.144531 7.246094 24.59375 7.246094 19 C 7.246094 13.410156 11.796875 8.859375 17.386719 8.859375 C 22.976562 8.859375 27.53125 13.410156 27.53125 19 C 27.53125 24.59375 22.976562 29.144531 17.386719 29.144531 Z M 17.386719 10.03125 C 12.445312 10.03125 8.414062 14.0625 8.414062 19 C 8.414062 23.964844 12.445312 27.996094 17.386719 27.996094 C 22.351562 27.996094 26.378906 23.964844 26.378906 19 C 26.378906 14.0625 22.351562 10.03125 17.386719 10.03125 Z M 19.445312 14.863281 C 18.472656 14.863281 17.691406 14.082031 17.691406 13.105469 C 17.691406 12.152344 18.472656 11.351562 19.445312 11.351562 C 20.398438 11.351562 21.203125 12.152344 21.203125 13.105469 C 21.203125 14.082031 20.398438 14.863281 19.445312 14.863281 Z M 19.445312 12.523438 C 18.644531 12.523438 18.644531 13.714844 19.445312 13.714844 C 20.226562 13.714844 20.226562 12.523438 19.445312 12.523438 Z M 14.785156 26.457031 C 14.308594 26.457031 14.027344 25.828125 14.375 25.460938 L 14.917969 24.941406 C 14.570312 24.613281 13.875 24.09375 14.375 23.597656 C 14.875 23.097656 15.394531 23.792969 15.71875 24.117188 C 16.066406 23.792969 16.5625 23.097656 17.0625 23.597656 C 17.5625 24.09375 16.890625 24.613281 16.542969 24.941406 C 16.890625 25.285156 17.5625 25.785156 17.0625 26.285156 C 16.5625 26.78125 16.066406 26.089844 15.71875 25.761719 C 15.480469 26 15.175781 26.457031 14.785156 26.457031 Z M 32.796875 13.34375 L 29.695312 13.34375 L 29.695312 14.0625 L 32.796875 14.0625 Z M 29.175781 12.195312 L 33.316406 12.195312 C 33.921875 8.707031 35.828125 9.335938 35.828125 6.367188 C 35.828125 3.832031 33.769531 1.792969 31.257812 1.792969 C 28.722656 1.792969 26.664062 3.832031 26.664062 6.367188 C 26.664062 9.335938 28.570312 8.707031 29.175781 12.195312 Z M 27.703125 7.148438 C 27.378906 7.148438 27.117188 6.886719 27.117188 6.5625 C 27.117188 4.285156 28.960938 2.421875 31.257812 2.421875 C 31.992188 2.421875 31.992188 3.570312 31.257812 3.570312 C 29.609375 3.570312 28.265625 4.914062 28.265625 6.5625 C 28.265625 6.886719 28.007812 7.148438 27.703125 7.148438 Z M 11.992188 23.183594 C 11.773438 23.183594 11.601562 23.074219 11.492188 22.902344 L 9.5 19.78125 C 9.109375 19.152344 10.085938 18.546875 10.472656 19.175781 L 11.363281 20.539062 C 11.644531 17.203125 13.269531 14.039062 14.417969 12.390625 C 14.828125 11.761719 15.785156 12.433594 15.371094 13.042969 C 14.203125 14.734375 12.621094 17.898438 12.488281 21.125 L 13.941406 19.414062 C 14.441406 18.828125 15.308594 19.585938 14.828125 20.148438 C 14.484375 20.539062 12.554688 22.925781 12.316406 23.074219 Z M 11.992188 23.183594 " fill-opacity="1" fill-rule="evenodd"/></g></svg>