<svg xmlns="http://www.w3.org/2000/svg" xmlns:xlink="http://www.w3.org/1999/xlink" width="50" zoomAndPan="magnify" viewBox="0 0 37.5 37.499999" height="50" preserveAspectRatio="xMidYMid meet" version="1.0"><defs><clipPath id="12100e541a"><path d="M 6 19 L 30 19 L 30 35.964844 L 6 35.964844 Z M 6 19 " clip-rule="nonzero"/></clipPath><clipPath id="95b4d60964"><path d="M 14 1.179688 L 22 1.179688 L 22 19 L 14 19 Z M 14 1.179688 " clip-rule="nonzero"/></clipPath><clipPath id="bc6e0910ed"><path d="M 22 1.179688 L 33.210938 1.179688 L 33.210938 19 L 22 19 Z M 22 1.179688 " clip-rule="nonzero"/></clipPath><clipPath id="ac6cf6c5ac"><path d="M 2.863281 1.179688 L 14 1.179688 L 14 19 L 2.863281 19 Z M 2.863281 1.179688 " clip-rule="nonzero"/></clipPath></defs><g clip-path="url(#12100e541a)"><path fill="#0097b2" d="M 28.519531 23.042969 L 28.519531 21.933594 L 28.550781 21.933594 C 29.320312 21.933594 29.945312 21.308594 29.945312 20.539062 C 29.945312 19.773438 29.320312 19.148438 28.550781 19.148438 L 7.613281 19.148438 C 6.847656 19.148438 6.222656 19.773438 6.222656 20.539062 C 6.222656 21.308594 6.847656 21.933594 7.613281 21.933594 L 7.648438 21.933594 L 7.648438 23.042969 C 7.648438 23.160156 7.699219 23.269531 7.789062 23.339844 L 16.128906 30.007812 L 16.128906 35.445312 C 16.128906 35.574219 16.195312 35.699219 16.308594 35.765625 C 16.367188 35.804688 16.4375 35.824219 16.503906 35.824219 C 16.5625 35.824219 16.621094 35.808594 16.675781 35.78125 L 19.816406 34.203125 C 19.945312 34.136719 20.027344 34.007812 20.027344 33.863281 L 20.027344 30.011719 L 22.730469 27.847656 L 22.792969 27.90625 L 22.742188 28.359375 L 22.046875 28.738281 C 21.90625 28.816406 21.835938 28.980469 21.878906 29.132812 L 22.144531 30.070312 C 22.1875 30.222656 22.335938 30.328125 22.496094 30.320312 L 23.285156 30.277344 L 23.566406 30.636719 L 23.34375 31.394531 C 23.296875 31.546875 23.367188 31.710938 23.503906 31.792969 L 24.355469 32.265625 C 24.496094 32.34375 24.671875 32.3125 24.777344 32.195312 L 25.304688 31.605469 L 25.761719 31.660156 L 26.140625 32.355469 C 26.199219 32.46875 26.316406 32.535156 26.441406 32.535156 C 26.472656 32.535156 26.503906 32.53125 26.535156 32.519531 L 27.46875 32.253906 C 27.625 32.210938 27.726562 32.066406 27.71875 31.90625 L 27.675781 31.117188 L 28.035156 30.832031 L 28.792969 31.058594 C 28.949219 31.101562 29.113281 31.035156 29.191406 30.894531 L 29.667969 30.046875 C 29.746094 29.90625 29.714844 29.730469 29.59375 29.621094 L 29.007812 29.09375 L 29.0625 28.640625 L 29.753906 28.261719 C 29.894531 28.183594 29.964844 28.019531 29.921875 27.867188 L 29.65625 26.929688 C 29.613281 26.777344 29.46875 26.671875 29.308594 26.679688 L 28.519531 26.722656 L 28.234375 26.363281 L 28.457031 25.605469 C 28.503906 25.453125 28.4375 25.289062 28.296875 25.210938 L 27.445312 24.734375 C 27.304688 24.65625 27.128906 24.6875 27.023438 24.804688 L 26.496094 25.394531 L 26.039062 25.339844 L 25.988281 25.242188 L 28.324219 23.375 C 28.441406 23.3125 28.519531 23.1875 28.519531 23.042969 Z M 6.976562 20.539062 C 6.976562 20.1875 7.261719 19.902344 7.613281 19.902344 L 28.550781 19.902344 C 28.902344 19.902344 29.1875 20.1875 29.1875 20.539062 C 29.1875 20.890625 28.902344 21.175781 28.550781 21.175781 L 7.613281 21.175781 C 7.261719 21.175781 6.976562 20.890625 6.976562 20.539062 Z M 26.59375 26.097656 C 26.703125 26.109375 26.8125 26.066406 26.886719 25.984375 L 27.351562 25.46875 L 27.722656 25.675781 L 27.523438 26.339844 C 27.492188 26.445312 27.515625 26.5625 27.585938 26.652344 L 28.089844 27.289062 C 28.160156 27.378906 28.265625 27.425781 28.378906 27.417969 L 29.070312 27.382812 L 29.1875 27.789062 L 28.578125 28.121094 C 28.476562 28.175781 28.414062 28.273438 28.398438 28.382812 L 28.304688 29.191406 C 28.292969 29.300781 28.332031 29.414062 28.417969 29.488281 L 28.933594 29.949219 L 28.726562 30.320312 L 28.0625 30.125 C 27.953125 30.09375 27.839844 30.113281 27.75 30.183594 L 27.113281 30.6875 C 27.023438 30.757812 26.976562 30.863281 26.980469 30.976562 L 27.019531 31.667969 L 26.613281 31.785156 L 26.28125 31.175781 C 26.226562 31.078125 26.128906 31.011719 26.019531 31 L 25.210938 30.902344 C 25.195312 30.902344 25.183594 30.902344 25.167969 30.902344 C 25.074219 30.902344 24.980469 30.941406 24.914062 31.015625 L 24.449219 31.53125 L 24.082031 31.324219 L 24.277344 30.660156 C 24.308594 30.554688 24.285156 30.4375 24.21875 30.347656 L 23.710938 29.710938 C 23.644531 29.621094 23.535156 29.574219 23.425781 29.582031 L 22.730469 29.617188 L 22.617188 29.210938 L 23.226562 28.878906 C 23.324219 28.824219 23.390625 28.726562 23.402344 28.617188 L 23.496094 27.808594 C 23.511719 27.699219 23.46875 27.585938 23.386719 27.511719 L 22.871094 27.050781 L 23.078125 26.679688 L 23.742188 26.875 C 23.847656 26.90625 23.964844 26.886719 24.050781 26.816406 L 24.691406 26.3125 C 24.777344 26.242188 24.828125 26.132812 24.820312 26.023438 L 24.785156 25.332031 L 25.191406 25.214844 L 25.523438 25.824219 C 25.574219 25.921875 25.671875 25.988281 25.785156 26 Z M 27.761719 22.855469 L 25.613281 24.574219 C 25.527344 24.484375 25.394531 24.445312 25.265625 24.480469 L 24.332031 24.746094 C 24.175781 24.789062 24.074219 24.933594 24.082031 25.09375 L 24.125 25.882812 L 23.765625 26.167969 L 23.007812 25.941406 C 22.851562 25.898438 22.6875 25.964844 22.609375 26.105469 L 22.136719 26.953125 C 22.066406 27.078125 22.082031 27.226562 22.164062 27.332031 L 19.414062 29.535156 C 19.324219 29.605469 19.269531 29.714844 19.269531 29.828125 L 19.269531 33.632812 L 16.882812 34.832031 L 16.882812 29.824219 C 16.882812 29.710938 16.832031 29.601562 16.742188 29.53125 L 8.402344 22.863281 L 8.402344 21.933594 L 27.761719 21.933594 Z M 27.761719 22.855469 " fill-opacity="1" fill-rule="nonzero"/></g><path fill="#0097b2" d="M 4.546875 4.824219 L 8.824219 4.824219 L 8.824219 5.578125 L 4.546875 5.578125 Z M 4.546875 4.824219 " fill-opacity="1" fill-rule="nonzero"/><path fill="#0097b2" d="M 4.546875 6.5 L 8.824219 6.5 L 8.824219 7.253906 L 4.546875 7.253906 Z M 4.546875 6.5 " fill-opacity="1" fill-rule="nonzero"/><path fill="#0097b2" d="M 5.945312 8.175781 L 8.824219 8.175781 L 8.824219 8.929688 L 5.945312 8.929688 Z M 5.945312 8.175781 " fill-opacity="1" fill-rule="nonzero"/><path fill="#0097b2" d="M 4.546875 8.175781 L 5.296875 8.175781 L 5.296875 8.929688 L 4.546875 8.929688 Z M 4.546875 8.175781 " fill-opacity="1" fill-rule="nonzero"/><path fill="#0097b2" d="M 4.546875 3.273438 L 6.871094 3.273438 L 6.871094 4.03125 L 4.546875 4.03125 Z M 4.546875 3.273438 " fill-opacity="1" fill-rule="nonzero"/><g clip-path="url(#95b4d60964)"><path fill="#0097b2" d="M 14.636719 10.820312 L 17.886719 10.820312 L 17.886719 15.328125 L 17.109375 15.328125 C 16.847656 15.328125 16.683594 15.613281 16.8125 15.839844 L 17.96875 17.84375 C 18.101562 18.066406 18.425781 18.066406 18.558594 17.84375 L 19.714844 15.839844 C 19.84375 15.613281 19.679688 15.328125 19.421875 15.328125 L 18.640625 15.328125 L 18.640625 10.820312 L 21.53125 10.820312 C 21.738281 10.820312 21.910156 10.648438 21.910156 10.441406 L 21.910156 3.652344 C 21.910156 3.648438 21.910156 3.640625 21.910156 3.632812 C 21.910156 3.625 21.90625 3.617188 21.90625 3.609375 C 21.90625 3.609375 21.90625 3.605469 21.90625 3.601562 C 21.90625 3.59375 21.902344 3.589844 21.902344 3.582031 C 21.902344 3.582031 21.902344 3.578125 21.902344 3.578125 C 21.898438 3.570312 21.898438 3.5625 21.894531 3.554688 C 21.894531 3.554688 21.894531 3.550781 21.894531 3.550781 C 21.894531 3.542969 21.890625 3.535156 21.886719 3.527344 C 21.882812 3.519531 21.882812 3.511719 21.878906 3.503906 C 21.878906 3.5 21.875 3.5 21.875 3.496094 C 21.871094 3.492188 21.871094 3.484375 21.867188 3.476562 C 21.867188 3.476562 21.867188 3.476562 21.863281 3.476562 C 21.859375 3.46875 21.855469 3.460938 21.851562 3.453125 C 21.851562 3.453125 21.851562 3.449219 21.847656 3.449219 C 21.84375 3.441406 21.839844 3.4375 21.835938 3.429688 C 21.832031 3.421875 21.824219 3.414062 21.820312 3.410156 C 21.820312 3.40625 21.816406 3.40625 21.816406 3.402344 C 21.808594 3.398438 21.804688 3.390625 21.796875 3.386719 L 19.707031 1.292969 C 19.699219 1.285156 19.691406 1.28125 19.6875 1.273438 C 19.683594 1.273438 19.683594 1.273438 19.683594 1.269531 C 19.675781 1.265625 19.667969 1.261719 19.664062 1.253906 C 19.664062 1.253906 19.660156 1.253906 19.660156 1.253906 C 19.65625 1.25 19.648438 1.246094 19.640625 1.242188 C 19.640625 1.242188 19.636719 1.238281 19.636719 1.238281 C 19.628906 1.234375 19.621094 1.230469 19.617188 1.226562 C 19.613281 1.226562 19.613281 1.226562 19.613281 1.222656 C 19.605469 1.222656 19.601562 1.21875 19.59375 1.214844 C 19.589844 1.214844 19.589844 1.214844 19.585938 1.210938 C 19.582031 1.210938 19.574219 1.207031 19.566406 1.203125 C 19.566406 1.203125 19.5625 1.203125 19.5625 1.203125 C 19.554688 1.199219 19.550781 1.199219 19.542969 1.195312 C 19.539062 1.195312 19.539062 1.195312 19.535156 1.195312 C 19.527344 1.191406 19.519531 1.191406 19.511719 1.1875 C 19.503906 1.1875 19.496094 1.1875 19.488281 1.183594 C 19.484375 1.183594 19.484375 1.183594 19.480469 1.183594 C 19.472656 1.183594 19.464844 1.183594 19.460938 1.183594 C 19.457031 1.183594 19.457031 1.183594 19.457031 1.183594 C 19.449219 1.183594 19.445312 1.183594 19.4375 1.183594 L 14.636719 1.183594 C 14.425781 1.183594 14.257812 1.351562 14.257812 1.558594 L 14.257812 10.441406 C 14.257812 10.648438 14.425781 10.820312 14.636719 10.820312 Z M 20.613281 3.269531 L 19.816406 3.265625 L 19.816406 2.472656 Z M 15.011719 1.9375 L 19.058594 1.9375 L 19.058594 3.640625 C 19.058594 3.847656 19.226562 4.019531 19.4375 4.019531 L 21.152344 4.027344 L 21.152344 10.0625 L 15.011719 10.0625 Z M 15.011719 1.9375 " fill-opacity="1" fill-rule="nonzero"/></g><path fill="#0097b2" d="M 17.34375 4.824219 L 20.214844 4.824219 L 20.214844 5.578125 L 17.34375 5.578125 Z M 17.34375 4.824219 " fill-opacity="1" fill-rule="nonzero"/><path fill="#0097b2" d="M 15.9375 4.824219 L 16.695312 4.824219 L 16.695312 5.578125 L 15.9375 5.578125 Z M 15.9375 4.824219 " fill-opacity="1" fill-rule="nonzero"/><path fill="#0097b2" d="M 15.9375 6.5 L 20.214844 6.5 L 20.214844 7.253906 L 15.9375 7.253906 Z M 15.9375 6.5 " fill-opacity="1" fill-rule="nonzero"/><path fill="#0097b2" d="M 15.9375 8.175781 L 20.214844 8.175781 L 20.214844 8.929688 L 15.9375 8.929688 Z M 15.9375 8.175781 " fill-opacity="1" fill-rule="nonzero"/><path fill="#0097b2" d="M 15.9375 3.273438 L 18.265625 3.273438 L 18.265625 4.03125 L 15.9375 4.03125 Z M 15.9375 3.273438 " fill-opacity="1" fill-rule="nonzero"/><g clip-path="url(#bc6e0910ed)"><path fill="#0097b2" d="M 33.300781 3.632812 C 33.300781 3.625 33.300781 3.617188 33.300781 3.609375 C 33.300781 3.605469 33.300781 3.605469 33.300781 3.601562 C 33.296875 3.59375 33.296875 3.589844 33.296875 3.582031 C 33.296875 3.578125 33.296875 3.578125 33.296875 3.578125 C 33.292969 3.570312 33.292969 3.5625 33.289062 3.554688 C 33.289062 3.554688 33.289062 3.550781 33.289062 3.550781 C 33.285156 3.542969 33.285156 3.535156 33.28125 3.527344 C 33.277344 3.519531 33.273438 3.511719 33.273438 3.503906 C 33.269531 3.5 33.269531 3.5 33.269531 3.496094 C 33.265625 3.492188 33.261719 3.484375 33.257812 3.476562 C 33.253906 3.46875 33.25 3.460938 33.246094 3.453125 C 33.246094 3.453125 33.242188 3.449219 33.242188 3.449219 C 33.238281 3.441406 33.234375 3.4375 33.230469 3.429688 C 33.230469 3.429688 33.230469 3.429688 33.226562 3.429688 C 33.222656 3.421875 33.21875 3.414062 33.214844 3.410156 C 33.210938 3.40625 33.210938 3.40625 33.207031 3.402344 C 33.203125 3.398438 33.199219 3.390625 33.191406 3.386719 L 31.097656 1.292969 C 31.09375 1.285156 31.085938 1.28125 31.082031 1.273438 C 31.078125 1.273438 31.078125 1.273438 31.074219 1.269531 C 31.070312 1.265625 31.0625 1.261719 31.054688 1.253906 C 31.046875 1.25 31.042969 1.246094 31.035156 1.242188 C 31.035156 1.242188 31.03125 1.238281 31.03125 1.238281 C 31.023438 1.234375 31.015625 1.230469 31.007812 1.226562 C 31.007812 1.226562 31.007812 1.226562 31.007812 1.222656 C 31 1.222656 30.992188 1.21875 30.988281 1.214844 C 30.984375 1.214844 30.984375 1.214844 30.980469 1.210938 C 30.972656 1.210938 30.964844 1.207031 30.957031 1.203125 C 30.949219 1.199219 30.941406 1.199219 30.933594 1.195312 C 30.933594 1.195312 30.929688 1.195312 30.929688 1.195312 C 30.921875 1.191406 30.914062 1.191406 30.90625 1.1875 C 30.898438 1.1875 30.890625 1.1875 30.882812 1.183594 C 30.878906 1.183594 30.878906 1.183594 30.875 1.183594 C 30.867188 1.183594 30.859375 1.183594 30.851562 1.183594 C 30.84375 1.183594 30.835938 1.179688 30.832031 1.179688 L 26.027344 1.179688 C 25.820312 1.179688 25.648438 1.351562 25.648438 1.558594 L 25.648438 10.441406 C 25.648438 10.648438 25.820312 10.820312 26.027344 10.820312 L 29.464844 10.820312 L 29.464844 11.648438 C 29.464844 12.21875 29 12.683594 28.429688 12.683594 L 25.816406 12.683594 C 24.828125 12.683594 24.027344 13.484375 24.027344 14.472656 L 24.027344 15.328125 L 23.25 15.328125 C 22.988281 15.328125 22.824219 15.613281 22.953125 15.839844 L 24.109375 17.839844 C 24.242188 18.066406 24.566406 18.066406 24.699219 17.839844 L 25.855469 15.839844 C 25.984375 15.613281 25.824219 15.328125 25.5625 15.328125 L 24.78125 15.328125 L 24.78125 14.472656 C 24.78125 13.902344 25.246094 13.4375 25.816406 13.4375 L 28.429688 13.4375 C 29.417969 13.4375 30.222656 12.636719 30.222656 11.648438 L 30.222656 10.820312 L 32.925781 10.820312 C 33.132812 10.820312 33.300781 10.648438 33.300781 10.441406 L 33.300781 3.652344 C 33.300781 3.648438 33.300781 3.640625 33.300781 3.632812 Z M 32.007812 3.269531 L 31.210938 3.265625 L 31.210938 2.472656 Z M 26.40625 10.0625 L 26.40625 1.9375 L 30.453125 1.9375 L 30.453125 3.640625 C 30.453125 3.847656 30.621094 4.019531 30.828125 4.019531 L 32.546875 4.027344 L 32.546875 10.0625 Z M 26.40625 10.0625 " fill-opacity="1" fill-rule="nonzero"/></g><path fill="#0097b2" d="M 27.332031 4.824219 L 31.609375 4.824219 L 31.609375 5.578125 L 27.332031 5.578125 Z M 27.332031 4.824219 " fill-opacity="1" fill-rule="nonzero"/><path fill="#0097b2" d="M 30.832031 6.5 L 31.609375 6.5 L 31.609375 7.253906 L 30.832031 7.253906 Z M 30.832031 6.5 " fill-opacity="1" fill-rule="nonzero"/><path fill="#0097b2" d="M 27.332031 6.5 L 30.28125 6.5 L 30.28125 7.253906 L 27.332031 7.253906 Z M 27.332031 6.5 " fill-opacity="1" fill-rule="nonzero"/><path fill="#0097b2" d="M 27.332031 8.175781 L 31.609375 8.175781 L 31.609375 8.929688 L 27.332031 8.929688 Z M 27.332031 8.175781 " fill-opacity="1" fill-rule="nonzero"/><path fill="#0097b2" d="M 27.332031 3.273438 L 29.65625 3.273438 L 29.65625 4.03125 L 27.332031 4.03125 Z M 27.332031 3.273438 " fill-opacity="1" fill-rule="nonzero"/><g clip-path="url(#ac6cf6c5ac)"><path fill="#0097b2" d="M 6.304688 11.648438 C 6.304688 12.636719 7.109375 13.4375 8.097656 13.4375 L 10.710938 13.4375 C 11.28125 13.4375 11.746094 13.902344 11.746094 14.472656 L 11.746094 15.328125 L 10.964844 15.328125 C 10.707031 15.328125 10.542969 15.613281 10.671875 15.839844 L 11.828125 17.84375 C 11.960938 18.066406 12.285156 18.066406 12.417969 17.84375 L 13.574219 15.839844 C 13.703125 15.613281 13.539062 15.328125 13.277344 15.328125 L 12.5 15.328125 L 12.5 14.472656 C 12.5 13.484375 11.699219 12.683594 10.710938 12.683594 L 8.097656 12.683594 C 7.527344 12.683594 7.0625 12.21875 7.0625 11.648438 L 7.0625 10.820312 L 10.136719 10.820312 C 10.347656 10.820312 10.515625 10.648438 10.515625 10.441406 L 10.515625 3.652344 C 10.515625 3.648438 10.515625 3.640625 10.515625 3.636719 C 10.515625 3.632812 10.515625 3.632812 10.515625 3.632812 C 10.515625 3.625 10.515625 3.617188 10.511719 3.609375 C 10.511719 3.609375 10.511719 3.605469 10.511719 3.601562 C 10.511719 3.597656 10.511719 3.589844 10.507812 3.582031 C 10.507812 3.582031 10.507812 3.578125 10.507812 3.578125 C 10.507812 3.570312 10.503906 3.5625 10.503906 3.554688 C 10.503906 3.554688 10.503906 3.550781 10.5 3.550781 C 10.5 3.542969 10.496094 3.535156 10.496094 3.527344 C 10.492188 3.519531 10.488281 3.511719 10.484375 3.503906 C 10.484375 3.5 10.484375 3.5 10.484375 3.496094 C 10.480469 3.492188 10.476562 3.484375 10.472656 3.476562 C 10.46875 3.46875 10.464844 3.460938 10.460938 3.453125 C 10.457031 3.453125 10.457031 3.449219 10.457031 3.449219 C 10.453125 3.441406 10.449219 3.4375 10.445312 3.429688 C 10.441406 3.429688 10.441406 3.429688 10.441406 3.429688 C 10.4375 3.421875 10.433594 3.414062 10.425781 3.410156 C 10.425781 3.40625 10.425781 3.40625 10.421875 3.402344 C 10.417969 3.398438 10.410156 3.390625 10.40625 3.386719 L 8.3125 1.292969 C 8.304688 1.285156 8.300781 1.28125 8.292969 1.273438 C 8.292969 1.273438 8.289062 1.273438 8.289062 1.269531 C 8.28125 1.265625 8.277344 1.261719 8.269531 1.253906 C 8.261719 1.25 8.253906 1.246094 8.25 1.242188 C 8.246094 1.242188 8.246094 1.238281 8.242188 1.238281 C 8.238281 1.234375 8.230469 1.230469 8.222656 1.226562 C 8.222656 1.226562 8.222656 1.226562 8.21875 1.222656 C 8.214844 1.222656 8.207031 1.21875 8.199219 1.214844 C 8.199219 1.214844 8.195312 1.214844 8.195312 1.210938 C 8.1875 1.210938 8.179688 1.207031 8.171875 1.203125 C 8.164062 1.199219 8.15625 1.199219 8.148438 1.195312 C 8.148438 1.195312 8.144531 1.195312 8.144531 1.195312 C 8.136719 1.191406 8.128906 1.191406 8.117188 1.1875 C 8.109375 1.1875 8.101562 1.1875 8.09375 1.183594 C 8.09375 1.183594 8.089844 1.183594 8.089844 1.183594 C 8.082031 1.183594 8.074219 1.183594 8.066406 1.183594 C 8.066406 1.183594 8.066406 1.183594 8.0625 1.183594 C 8.058594 1.183594 8.050781 1.183594 8.046875 1.183594 L 3.242188 1.183594 C 3.03125 1.183594 2.863281 1.351562 2.863281 1.558594 L 2.863281 10.441406 C 2.863281 10.652344 3.03125 10.820312 3.242188 10.820312 L 6.304688 10.820312 Z M 9.21875 3.269531 L 8.421875 3.265625 L 8.421875 2.472656 Z M 3.621094 1.9375 L 7.667969 1.9375 L 7.667969 3.640625 C 7.667969 3.847656 7.835938 4.019531 8.042969 4.019531 L 9.761719 4.027344 L 9.761719 10.0625 L 3.621094 10.0625 Z M 3.621094 1.9375 " fill-opacity="1" fill-rule="nonzero"/></g><path fill="#0097b2" d="M 24.355469 27.636719 C 24.125 28.050781 24.066406 28.527344 24.195312 28.984375 C 24.417969 29.761719 25.128906 30.273438 25.902344 30.273438 C 26.0625 30.273438 26.222656 30.25 26.382812 30.203125 C 27.324219 29.9375 27.871094 28.957031 27.605469 28.015625 C 27.476562 27.5625 27.179688 27.183594 26.765625 26.953125 C 26.351562 26.722656 25.875 26.667969 25.417969 26.796875 C 24.960938 26.925781 24.585938 27.222656 24.355469 27.636719 Z M 25.902344 27.414062 C 26.085938 27.414062 26.265625 27.460938 26.429688 27.554688 C 26.683594 27.695312 26.867188 27.925781 26.945312 28.203125 C 27.105469 28.78125 26.773438 29.378906 26.195312 29.542969 C 25.917969 29.621094 25.625 29.589844 25.371094 29.445312 C 25.121094 29.304688 24.9375 29.074219 24.859375 28.796875 C 24.777344 28.515625 24.8125 28.222656 24.953125 27.972656 C 25.09375 27.71875 25.328125 27.535156 25.605469 27.457031 C 25.703125 27.429688 25.804688 27.414062 25.902344 27.414062 Z M 25.902344 27.414062 " fill-opacity="1" fill-rule="nonzero"/></svg>