<svg xmlns="http://www.w3.org/2000/svg" xmlns:xlink="http://www.w3.org/1999/xlink" width="50" zoomAndPan="magnify" viewBox="0 0 37.5 37.499999" height="50" preserveAspectRatio="xMidYMid meet" version="1.0"><defs><clipPath id="77781e54d2"><path d="M 0.667969 0.667969 L 36.191406 0.667969 L 36.191406 36.191406 L 0.667969 36.191406 Z M 0.667969 0.667969 " clip-rule="nonzero"/></clipPath></defs><g clip-path="url(#77781e54d2)"><path fill="#ff5757" d="M 1.851562 17.871094 C 1.851562 17.542969 2.121094 17.277344 2.445312 17.277344 L 3.632812 17.277344 L 3.632812 24.398438 L 2.445312 24.398438 C 2.121094 24.398438 1.851562 24.128906 1.851562 23.804688 Z M 5.414062 16.089844 L 8.378906 16.089844 L 8.378906 25.582031 L 5.414062 25.582031 C 5.085938 25.582031 4.820312 25.316406 4.820312 24.988281 L 4.820312 16.683594 C 4.820312 16.359375 5.085938 16.089844 5.414062 16.089844 Z M 6.597656 11.9375 C 6.597656 6.375 11.121094 1.851562 16.683594 1.851562 L 20.242188 1.851562 C 25.804688 1.851562 30.328125 6.375 30.328125 11.9375 L 30.328125 14.90625 L 29.144531 14.90625 L 29.144531 11.9375 C 29.144531 7.03125 25.152344 3.039062 20.242188 3.039062 L 16.683594 3.039062 C 11.777344 3.039062 7.785156 7.03125 7.785156 11.9375 L 7.785156 14.90625 L 6.597656 14.90625 Z M 32.109375 16.683594 L 32.109375 24.988281 C 32.109375 25.316406 31.84375 25.582031 31.515625 25.582031 L 28.550781 25.582031 L 28.550781 16.089844 L 31.515625 16.089844 C 31.84375 16.089844 32.109375 16.359375 32.109375 16.683594 Z M 35.074219 17.871094 L 35.074219 23.804688 C 35.074219 24.128906 34.808594 24.398438 34.480469 24.398438 L 33.296875 24.398438 L 33.296875 17.277344 L 34.480469 17.277344 C 34.808594 17.277344 35.074219 17.542969 35.074219 17.871094 Z M 30.328125 31.515625 C 30.328125 33.152344 29 34.480469 27.363281 34.480469 L 22.617188 34.480469 L 22.617188 33.296875 L 27.363281 33.296875 C 28.34375 33.296875 29.144531 32.5 29.144531 31.515625 L 29.144531 26.769531 L 30.328125 26.769531 Z M 17.871094 35.074219 C 17.21875 35.074219 16.683594 34.542969 16.683594 33.890625 C 16.683594 33.234375 17.21875 32.703125 17.871094 32.703125 L 21.429688 32.703125 L 21.429688 35.074219 Z M 2.445312 25.582031 L 3.742188 25.582031 C 3.988281 26.269531 4.640625 26.769531 5.414062 26.769531 L 8.378906 26.769531 C 9.03125 26.769531 9.566406 26.238281 9.566406 25.582031 L 9.566406 16.089844 C 9.566406 15.65625 9.324219 15.273438 8.972656 15.070312 L 8.972656 11.9375 C 8.972656 7.6875 12.433594 4.226562 16.683594 4.226562 L 20.242188 4.226562 C 24.496094 4.226562 27.957031 7.6875 27.957031 11.9375 L 27.957031 15.070312 C 27.605469 15.273438 27.363281 15.65625 27.363281 16.089844 L 27.363281 25.582031 C 27.363281 26.019531 27.605469 26.398438 27.957031 26.605469 L 27.957031 31.515625 C 27.957031 31.84375 27.691406 32.109375 27.363281 32.109375 L 22.453125 32.109375 C 22.246094 31.757812 21.867188 31.515625 21.429688 31.515625 L 17.871094 31.515625 C 16.5625 31.515625 15.496094 32.578125 15.496094 33.890625 C 15.496094 35.199219 16.5625 36.261719 17.871094 36.261719 L 21.429688 36.261719 C 21.867188 36.261719 22.246094 36.019531 22.453125 35.667969 L 27.363281 35.667969 C 29.652344 35.667969 31.515625 33.804688 31.515625 31.515625 L 31.515625 26.769531 C 32.289062 26.769531 32.941406 26.269531 33.1875 25.582031 L 34.480469 25.582031 C 35.464844 25.582031 36.261719 24.785156 36.261719 23.804688 L 36.261719 17.871094 C 36.261719 16.886719 35.464844 16.089844 34.480469 16.089844 L 33.1875 16.089844 C 32.941406 15.402344 32.289062 14.90625 31.515625 14.90625 L 31.515625 11.9375 C 31.515625 5.722656 26.460938 0.667969 20.242188 0.667969 L 16.683594 0.667969 C 10.46875 0.667969 5.414062 5.722656 5.414062 11.9375 L 5.414062 14.90625 C 4.640625 14.90625 3.988281 15.402344 3.742188 16.089844 L 2.445312 16.089844 C 1.464844 16.089844 0.667969 16.886719 0.667969 17.871094 L 0.667969 23.804688 C 0.667969 24.785156 1.464844 25.582031 2.445312 25.582031 " fill-opacity="1" fill-rule="nonzero"/></g><path fill="#ff5757" d="M 12.203125 21.402344 L 11.9375 21.34375 L 11.9375 20.332031 L 12.199219 20.273438 C 12.910156 20.113281 13.496094 19.621094 13.777344 18.949219 C 13.777344 18.949219 13.800781 18.894531 13.800781 18.894531 C 14.085938 18.199219 14.015625 17.40625 13.613281 16.769531 L 13.492188 16.578125 L 14.207031 15.863281 L 14.433594 16.007812 C 15.046875 16.398438 15.828125 16.457031 16.550781 16.160156 C 16.550781 16.15625 16.558594 16.15625 16.558594 16.152344 C 17.246094 15.863281 17.746094 15.273438 17.898438 14.574219 L 17.957031 14.3125 L 18.96875 14.3125 L 19.03125 14.574219 C 19.1875 15.28125 19.679688 15.871094 20.351562 16.148438 C 20.351562 16.148438 20.40625 16.171875 20.40625 16.171875 C 21.105469 16.457031 21.894531 16.390625 22.53125 15.988281 L 22.722656 15.863281 L 23.4375 16.578125 L 23.292969 16.808594 C 22.902344 17.421875 22.839844 18.203125 23.136719 18.910156 C 23.136719 18.914062 23.144531 18.921875 23.144531 18.929688 C 23.4375 19.617188 24.027344 20.117188 24.726562 20.273438 L 24.988281 20.332031 L 24.988281 21.34375 L 24.726562 21.402344 C 24.019531 21.558594 23.429688 22.050781 23.152344 22.722656 C 23.152344 22.722656 23.128906 22.777344 23.128906 22.777344 C 22.839844 23.472656 22.910156 24.269531 23.3125 24.902344 L 23.4375 25.09375 L 22.722656 25.808594 L 22.492188 25.667969 C 21.878906 25.273438 21.097656 25.214844 20.402344 25.503906 C 20.394531 25.507812 20.378906 25.511719 20.367188 25.519531 C 19.683594 25.808594 19.183594 26.402344 19.03125 27.097656 L 18.96875 27.363281 L 17.957031 27.363281 L 17.898438 27.101562 C 17.742188 26.390625 17.25 25.804688 16.578125 25.523438 C 16.578125 25.523438 16.523438 25.503906 16.523438 25.503906 C 15.828125 25.21875 15.03125 25.285156 14.398438 25.6875 L 14.207031 25.808594 L 13.492188 25.09375 L 13.632812 24.867188 C 14.027344 24.253906 14.085938 23.472656 13.789062 22.761719 C 13.503906 22.066406 12.910156 21.558594 12.203125 21.402344 Z M 12.449219 24.523438 C 12.171875 24.957031 12.230469 25.511719 12.59375 25.871094 L 13.429688 26.707031 C 13.789062 27.070312 14.34375 27.125 14.777344 26.851562 L 15.035156 26.6875 C 15.34375 26.492188 15.730469 26.460938 16.125 26.621094 C 16.4375 26.75 16.667969 27.027344 16.738281 27.359375 L 16.820312 27.703125 C 16.933594 28.203125 17.367188 28.550781 17.875 28.550781 L 19.050781 28.550781 C 19.5625 28.550781 19.996094 28.203125 20.113281 27.703125 L 20.1875 27.355469 C 20.261719 27.027344 20.503906 26.746094 20.859375 26.601562 C 21.203125 26.457031 21.566406 26.480469 21.859375 26.667969 L 22.152344 26.851562 C 22.585938 27.128906 23.136719 27.070312 23.5 26.707031 L 24.335938 25.871094 C 24.695312 25.511719 24.753906 24.957031 24.480469 24.523438 L 24.316406 24.265625 C 24.117188 23.957031 24.085938 23.570312 24.25 23.175781 C 24.378906 22.863281 24.652344 22.632812 24.984375 22.5625 L 25.332031 22.480469 C 25.828125 22.367188 26.175781 21.933594 26.175781 21.425781 L 26.175781 20.25 C 26.175781 19.738281 25.828125 19.304688 25.328125 19.1875 L 24.984375 19.113281 C 24.652344 19.039062 24.375 18.796875 24.226562 18.441406 C 24.082031 18.101562 24.109375 17.734375 24.292969 17.441406 L 24.480469 17.148438 C 24.753906 16.714844 24.695312 16.164062 24.335938 15.800781 L 23.5 14.96875 C 23.136719 14.605469 22.585938 14.546875 22.152344 14.820312 L 21.894531 14.984375 C 21.585938 15.179688 21.199219 15.214844 20.804688 15.050781 C 20.492188 14.921875 20.261719 14.648438 20.1875 14.316406 L 20.109375 13.96875 C 19.996094 13.472656 19.5625 13.125 19.050781 13.125 L 17.875 13.125 C 17.367188 13.125 16.933594 13.472656 16.816406 13.972656 L 16.738281 14.316406 C 16.667969 14.648438 16.421875 14.925781 16.082031 15.066406 C 16.074219 15.070312 16.0625 15.074219 16.050781 15.082031 C 15.714844 15.21875 15.355469 15.1875 15.070312 15.007812 L 14.777344 14.820312 C 14.34375 14.546875 13.789062 14.605469 13.425781 14.96875 L 12.597656 15.800781 C 12.230469 16.160156 12.171875 16.714844 12.449219 17.148438 L 12.613281 17.40625 C 12.808594 17.714844 12.84375 18.101562 12.679688 18.496094 C 12.550781 18.808594 12.273438 19.039062 11.941406 19.113281 L 11.597656 19.191406 C 11.097656 19.304688 10.75 19.738281 10.75 20.25 L 10.75 21.425781 C 10.75 21.933594 11.097656 22.367188 11.601562 22.484375 L 11.945312 22.5625 C 12.273438 22.632812 12.554688 22.878906 12.703125 23.230469 C 12.84375 23.574219 12.820312 23.9375 12.632812 24.230469 L 12.449219 24.523438 " fill-opacity="1" fill-rule="nonzero"/><path fill="#ff5757" d="M 18.464844 18.464844 C 19.773438 18.464844 20.835938 19.527344 20.835938 20.835938 C 20.835938 22.144531 19.773438 23.210938 18.464844 23.210938 C 17.15625 23.210938 16.089844 22.144531 16.089844 20.835938 C 16.089844 19.527344 17.15625 18.464844 18.464844 18.464844 Z M 18.464844 24.398438 C 20.425781 24.398438 22.023438 22.800781 22.023438 20.835938 C 22.023438 18.875 20.425781 17.277344 18.464844 17.277344 C 16.5 17.277344 14.90625 18.875 14.90625 20.835938 C 14.90625 22.800781 16.5 24.398438 18.464844 24.398438 " fill-opacity="1" fill-rule="nonzero"/></svg>