<svg width="192" height="54" viewBox="0 0 192 54" fill="none" xmlns="http://www.w3.org/2000/svg">
<g clip-path="url(#clip0_524_1107)">
<path d="M91.3491 24.9051C88.032 18.1121 82.9833 14.7446 76.2219 14.7446H74.4201C71.1548 14.7895 67.9749 15.8101 65.2776 17.679C62.9536 19.4079 61.077 21.6828 59.8085 24.309C58.5401 26.9351 57.9175 29.8343 57.9941 32.7582V34.6972L58.2297 37.9806C60.5217 47.8373 66.3153 52.7107 75.4897 52.7107C77.8001 52.7226 80.0948 52.3245 82.2702 51.5344C89.4136 48.3027 92.9853 42.3499 92.9853 33.7083C92.9565 30.6988 92.4025 27.7183 91.3491 24.9051ZM72.4974 44.1726C68.6774 42.5244 66.7674 39.1569 66.7674 33.8957V33.7665C66.7909 32.1927 66.9808 30.626 67.334 29.0934C68.9766 24.8793 71.5806 22.7205 75.2287 22.7205C76.2101 22.7343 77.1842 22.8955 78.1191 23.1988C81.9391 24.8728 84.0274 28.2596 84.0274 33.5402V34.2383C84.0369 35.6938 83.822 37.1419 83.3907 38.53C81.7991 42.7247 79.1951 44.806 75.4579 44.806C74.4457 44.7442 73.448 44.5307 72.4974 44.1726Z" fill="white"/>
<path d="M50.4624 51.6895V3.21387C50.4701 3.05794 50.4449 2.90213 50.3887 2.75682C50.3324 2.61152 50.2463 2.48006 50.136 2.3712C50.0258 2.26234 49.894 2.17858 49.7493 2.1255C49.6047 2.07242 49.4506 2.05125 49.2973 2.06338H42.8733C42.1093 2.06338 41.8101 2.57399 41.8101 3.29143V51.5731C41.8101 52.2647 42.0775 52.7818 42.8797 52.7818H49.24C49.393 52.8032 49.5488 52.7908 49.6968 52.7455C49.8447 52.7003 49.9814 52.6232 50.0973 52.5196C50.2133 52.4159 50.306 52.2881 50.369 52.1449C50.4319 52.0017 50.4638 51.8463 50.4624 51.6895Z" fill="white"/>
<path d="M7.85688 3.01343H1.65575C0.77078 3.01343 0.516113 3.48526 0.516113 4.14453V34.9427L0.758047 38.7626C1.00635 41.8456 2.70625 44.7024 4.67355 47.0939C9.13021 52.4456 13.5869 52.7429 18.1581 52.7429C20.5218 52.7052 22.8579 52.2208 25.0469 51.3145C31.4135 47.9277 34.5268 42.2657 34.5268 34.4321V33.3398C34.5314 30.8058 34.1005 28.2905 33.2535 25.9068C30.4012 18.5192 25.3015 14.7898 18.0435 14.7898C14.1599 14.7898 11.1675 15.8045 8.93921 17.6401V4.22209C8.94558 3.34306 8.49355 3.01343 7.85688 3.01343ZM14.0962 44.1789C10.5818 42.492 8.81825 39.2796 8.81825 34.3351V33.2557L9.13021 30.1856C10.4035 25.2217 12.8483 22.8884 16.8657 22.8884C17.9864 22.8596 19.1043 23.0146 20.1764 23.3473C23.8881 25.002 25.7281 28.3112 25.7281 33.4884C25.7307 35.0475 25.549 36.6012 25.1869 38.1162C24.0027 42.6406 21.7298 44.7218 18.0499 44.7218C17.5406 44.7412 15.2677 44.7865 14.0962 44.1789Z" fill="white"/>
<path d="M178.566 23.735C179.458 23.9806 182.717 24.8532 182.717 33.2879V51.5406C182.697 51.6946 182.71 51.8513 182.755 51.9997C182.801 52.148 182.878 52.2844 182.981 52.3991C183.085 52.5138 183.211 52.604 183.353 52.6634C183.494 52.7228 183.647 52.7499 183.8 52.7428H190.084C190.235 52.7553 190.386 52.7346 190.529 52.682C190.671 52.6294 190.8 52.5463 190.908 52.4382C191.015 52.3302 191.099 52.1998 191.152 52.0561C191.205 51.9123 191.228 51.7585 191.217 51.6053V30.9223C191.199 28.914 190.881 26.92 190.275 25.0083C187.633 18.1636 183.023 14.7444 176.535 14.7444H175.797C173.828 14.7014 171.875 15.1044 170.078 15.9239C168.282 16.7434 166.688 17.9589 165.413 19.4821C164.051 17.9476 162.379 16.7298 160.511 15.9121C158.643 15.0944 156.623 14.696 154.59 14.7444H154.22C151.213 14.7337 148.274 15.6561 145.797 17.3879C141.602 20.9493 139.539 25.2992 139.539 30.4117V51.5923C139.534 51.7432 139.559 51.8936 139.613 52.0343C139.666 52.175 139.748 52.303 139.852 52.4107C139.957 52.5183 140.081 52.6033 140.219 52.6604C140.357 52.7175 140.504 52.7455 140.653 52.7428H146.956C147.752 52.7428 148.038 52.1934 148.038 51.5406V32.4089C148.011 30.9715 148.16 29.5363 148.484 28.1366C149.458 24.9049 151.4 23.3731 154.59 23.3731C155.506 23.3758 156.415 23.5489 157.27 23.8837C159.74 25.1764 161.007 27.5355 161.007 31.1486V51.5342C160.997 51.6859 161.017 51.8382 161.066 51.9819C161.115 52.1256 161.192 52.2579 161.292 52.3707C161.392 52.4835 161.514 52.5746 161.65 52.6386C161.786 52.7025 161.933 52.738 162.083 52.7428H168.666C168.815 52.7363 168.961 52.6996 169.096 52.635C169.231 52.5704 169.352 52.4791 169.451 52.3666C169.551 52.254 169.627 52.1224 169.676 51.9795C169.725 51.8366 169.745 51.6852 169.736 51.5342V30.7737L169.997 28.6795C170.85 25.1117 172.817 23.3731 176.16 23.3731C176.974 23.3824 177.784 23.5041 178.566 23.735Z" fill="white"/>
<path d="M132.262 24.9051C128.945 18.1121 123.877 14.7446 117.141 14.7446H115.333C112.067 14.7903 108.888 15.8108 106.19 17.679C103.865 19.4072 101.987 21.6818 100.718 24.308C99.4479 26.9342 98.8243 29.8337 98.9002 32.7582V34.6972L99.1358 37.9806C101.428 47.8373 107.221 52.7107 116.396 52.7107C118.708 52.7231 121.005 52.325 123.183 51.5344C130.326 48.3673 133.917 42.3822 133.917 33.7406C133.889 30.7188 133.328 27.7264 132.262 24.9051ZM113.41 44.1726C109.59 42.5244 107.68 39.1569 107.68 33.8957V33.7665C107.703 32.1927 107.893 30.626 108.246 29.0934C109.889 24.8793 112.493 22.7205 116.141 22.7205C117.123 22.7343 118.097 22.8955 119.032 23.1988C122.883 24.8728 124.94 28.2596 124.94 33.5402V34.2383C124.952 35.694 124.738 37.1426 124.303 38.53C122.712 42.7247 120.108 44.806 116.37 44.806C115.358 44.7435 114.361 44.5301 113.41 44.1726Z" fill="white"/>
</g>
<defs>
<clipPath id="clip0_524_1107">
<rect width="191" height="53" fill="white" transform="translate(0.216797 0.628418)"/>
</clipPath>
</defs>
</svg>
