<svg width="39" height="38" viewBox="0 0 39 38" fill="none" xmlns="http://www.w3.org/2000/svg">
<rect x="0.0820312" width="37.9297" height="37.9297" rx="4" fill="#D9D9D9"/>
<g clip-path="url(#clip0_876_2266)">
<path d="M19.0464 24.4961C18.6276 24.4961 18.2081 24.4903 17.7893 24.4994C17.6529 24.5026 17.5844 24.4619 17.5488 24.33C17.5094 24.1827 17.4538 24.0398 17.3995 23.8963C17.3407 23.7412 17.2366 23.683 17.0783 23.7638C17.0712 23.7677 17.0634 23.7696 17.0557 23.7722C16.8624 23.844 16.6808 24.0508 16.4894 23.9875C16.3175 23.9306 16.1934 23.7257 16.0512 23.5835C15.5832 23.1168 15.1224 22.6424 14.6447 22.1854C14.4999 22.0471 14.476 21.9366 14.5833 21.7737C14.6493 21.6735 14.688 21.5565 14.7417 21.4486C14.8231 21.2844 14.7798 21.1719 14.6085 21.1073C14.6008 21.1047 14.593 21.1034 14.5853 21.1002C14.4036 21.0174 14.1315 21.0265 14.0475 20.8714C13.9589 20.7078 14.0165 20.4635 14.0158 20.2547C14.0139 19.5935 14.0262 18.9323 14.0087 18.2717C14.0035 18.0675 14.0746 17.9847 14.2563 17.9427C14.3733 17.9156 14.4831 17.8619 14.5975 17.8225C14.7669 17.7637 14.8205 17.6602 14.7462 17.4877C14.6648 17.297 14.4612 17.1005 14.5206 16.9234C14.5853 16.7301 14.8076 16.5879 14.966 16.4289C15.432 15.9603 15.9032 15.4969 16.3653 15.0237C16.4668 14.9203 16.5496 14.8938 16.6775 14.9682C16.8094 15.0451 16.9516 15.1026 17.0899 15.1679C17.2379 15.2377 17.3349 15.1808 17.3969 15.0412C17.4066 15.0192 17.4112 14.9953 17.4196 14.9727C17.5536 14.612 17.8102 14.4317 18.1894 14.4317C18.8907 14.4317 19.592 14.4362 20.2933 14.4278C20.4387 14.4259 20.5111 14.4698 20.5479 14.6094C20.5848 14.749 20.6417 14.8835 20.6901 15.0199C20.7509 15.1918 20.8595 15.2319 21.0288 15.1614C21.2247 15.0806 21.4154 14.8718 21.6151 14.9449C21.7941 15.0102 21.9208 15.2202 22.0695 15.3682C22.5258 15.8239 22.9763 16.2854 23.441 16.7327C23.5774 16.8639 23.6317 16.9712 23.516 17.1419C23.4443 17.2472 23.4049 17.3739 23.3473 17.489C23.2698 17.6454 23.3202 17.7494 23.474 17.8147C23.4811 17.818 23.4895 17.818 23.4973 17.8212C23.6854 17.8916 23.9568 17.9117 24.0389 18.0468C24.1372 18.2071 24.0764 18.4669 24.0771 18.6841C24.079 19.3369 24.0674 19.9904 24.0842 20.6425C24.0893 20.852 24.0202 20.9483 23.8269 20.9916C23.7099 21.0174 23.5981 21.0679 23.485 21.1086C23.3273 21.1648 23.2704 21.2669 23.3447 21.4266C23.3512 21.4415 23.357 21.4563 23.3635 21.4712C23.5285 21.8353 23.4706 22.1578 23.1896 22.4388C22.7048 22.9236 22.2168 23.4044 21.7392 23.895C21.6306 24.0062 21.5414 24.0308 21.407 23.9519C21.2828 23.8789 21.1471 23.8233 21.0159 23.7619C20.8601 23.6888 20.7541 23.7393 20.6934 23.8957C20.6901 23.9034 20.6895 23.9112 20.6863 23.9189C20.6145 24.1057 20.5932 24.3708 20.4574 24.4587C20.3081 24.5556 20.0535 24.4923 19.8441 24.4942C19.5778 24.4968 19.3121 24.4942 19.0458 24.4942L19.0464 24.4961ZM22.6686 17.1102C22.6609 17.0307 22.5988 16.9971 22.5555 16.9531C22.2324 16.6267 21.9001 16.3087 21.5853 15.9745C21.4709 15.8537 21.3766 15.8207 21.2389 15.9189C21.0288 16.0689 20.8155 16.0805 20.5996 15.9261C20.568 15.9034 20.5279 15.886 20.4891 15.8789C20.206 15.8252 20.0386 15.6617 19.9934 15.3741C19.972 15.2396 19.8919 15.2002 19.7555 15.2034C19.3127 15.2125 18.8687 15.217 18.4259 15.2021C18.2269 15.1957 18.1105 15.2441 18.0711 15.4516C18.0523 15.5512 18.0207 15.6921 17.9496 15.7309C17.7182 15.8575 17.4713 15.9629 17.2198 16.0437C17.0763 16.0896 16.9542 15.9571 16.8268 15.8983C16.7215 15.8498 16.6497 15.8323 16.5547 15.9312C16.2141 16.2854 15.8638 16.6312 15.5134 16.9751C15.441 17.0462 15.401 17.1108 15.4682 17.2013C15.6647 17.465 15.6123 17.7087 15.4844 17.9989C15.3654 18.2678 15.2523 18.4805 14.9414 18.5257C14.8283 18.5419 14.7856 18.6052 14.7876 18.7254C14.794 19.2167 14.7915 19.7086 14.7889 20.2004C14.7889 20.2987 14.7992 20.375 14.9168 20.3937C15.2394 20.4448 15.3751 20.6555 15.4934 20.9496C15.6039 21.2256 15.664 21.4531 15.4785 21.7032C15.4126 21.7924 15.4229 21.8674 15.5109 21.9527C15.8638 22.2946 16.2096 22.645 16.5547 22.994C16.6219 23.0619 16.6846 23.1213 16.779 23.0464C17.0602 22.8227 17.3252 22.9164 17.6212 23.0412C17.8701 23.1465 18.053 23.2603 18.0976 23.5421C18.1137 23.6462 18.1571 23.7283 18.3025 23.725C18.8021 23.7147 19.3018 23.7199 19.8014 23.7225C19.8932 23.7225 19.9617 23.7037 19.9753 23.6016C20.0199 23.259 20.2577 23.1356 20.5505 23.0134C20.8168 22.9022 21.0392 22.8492 21.2822 23.0302C21.3656 23.0923 21.4438 23.0981 21.5323 23.0056C21.8794 22.6463 22.2356 22.2953 22.5911 21.9443C22.6557 21.8803 22.6958 21.8202 22.6325 21.7381C22.4153 21.4576 22.4948 21.1939 22.624 20.8953C22.7313 20.6484 22.8373 20.459 23.1217 20.4183C23.262 20.3982 23.3131 20.3161 23.3098 20.1662C23.2995 19.6989 23.3021 19.2315 23.3085 18.7642C23.3105 18.6356 23.2904 18.5412 23.147 18.5193C22.849 18.474 22.6867 18.295 22.6279 18.0067C22.6169 17.9524 22.5924 17.8981 22.5607 17.8522C22.436 17.6712 22.4469 17.4993 22.5704 17.3215C22.6156 17.2569 22.6396 17.1774 22.6706 17.1089L22.6686 17.1102Z" fill="#707070"/>
<path d="M27.0969 24.7271C26.5934 24.8512 26.1034 24.9714 25.6142 25.0923C25.4894 25.1233 25.3563 25.1362 25.2412 25.1879C24.9885 25.3017 24.9141 25.1925 24.8637 24.9572C24.7674 24.5073 24.7558 24.5119 25.2082 24.3987C26.1532 24.1628 27.0988 23.9308 28.0406 23.6826C28.2416 23.6296 28.2901 23.6748 28.3134 23.8739C28.4349 24.9223 28.5706 25.9687 28.7063 27.0152C28.7193 27.1173 28.6992 27.1632 28.5926 27.1742C28.4161 27.1923 28.241 27.2162 28.0658 27.2447C27.9346 27.266 27.9462 27.1723 27.9365 27.096C27.8758 26.6248 27.8163 26.153 27.7562 25.6818C27.742 25.5699 27.7252 25.4588 27.7097 25.3469C27.6172 25.3418 27.6049 25.4193 27.5713 25.4659C25.8371 27.8736 23.5122 29.3395 20.579 29.7991C18.605 30.108 16.6944 29.8353 14.8574 29.0454C14.701 28.9782 14.668 28.909 14.7527 28.7623C14.8406 28.6098 14.8729 28.3803 15.0003 28.3073C15.1373 28.2291 15.3183 28.401 15.4792 28.4637C19.6728 30.108 24.3719 28.6912 26.9482 25.0031C27.0025 24.9249 27.073 24.8551 27.0982 24.7271H27.0969Z" fill="#707070"/>
<path d="M12.484 7.46652C13.1045 7.46652 13.725 7.46393 14.3455 7.46652C15.0695 7.46975 15.5607 7.9584 15.5626 8.68103C15.5659 9.9382 15.5665 11.1954 15.5626 12.4525C15.5607 13.1603 15.0669 13.6554 14.3598 13.6574C13.0942 13.6612 11.8293 13.6619 10.5637 13.6574C9.87144 13.6548 9.37439 13.1584 9.3718 12.4668C9.36728 11.1934 9.36728 9.9201 9.3718 8.64677C9.37503 7.97003 9.87273 7.47363 10.5495 7.46781C11.1939 7.462 11.839 7.46652 12.4834 7.46652H12.484ZM14.7896 10.5871C14.7896 9.96664 14.7909 9.34549 14.7896 8.72498C14.7883 8.37789 14.6532 8.24215 14.3061 8.24151C13.0806 8.24021 11.8551 8.24021 10.6296 8.24151C10.2825 8.24151 10.1468 8.37789 10.1461 8.72498C10.1448 9.95048 10.1448 11.176 10.1461 12.4015C10.1461 12.7486 10.2825 12.885 10.6296 12.885C11.8551 12.8863 13.0806 12.8863 14.3061 12.885C14.6526 12.885 14.7889 12.7479 14.7896 12.4015C14.7915 11.7965 14.7896 11.1921 14.7896 10.5871Z" fill="#707070"/>
<path d="M31.0455 19.4889C31.0455 20.1094 31.0487 20.7299 31.0448 21.3504C31.0409 22.0595 30.5504 22.5572 29.8458 22.5591C28.5802 22.563 27.3153 22.563 26.0497 22.5591C25.3556 22.5572 24.8559 22.0621 24.854 21.3731C24.8495 20.0997 24.8495 18.8264 24.854 17.5531C24.8566 16.8738 25.3523 16.3722 26.0278 16.3696C27.3089 16.3638 28.5906 16.3638 29.8723 16.3696C30.5471 16.3728 31.039 16.8738 31.0448 17.5544C31.05 18.1988 31.0461 18.8439 31.0461 19.4883L31.0455 19.4889ZM27.9733 17.142C27.3528 17.142 26.7317 17.1407 26.1112 17.142C25.7641 17.1433 25.6283 17.2784 25.6277 17.6255C25.6264 18.851 25.6264 20.0765 25.6277 21.302C25.6277 21.6491 25.7641 21.7854 26.1112 21.7854C27.3366 21.7867 28.5621 21.7867 29.7876 21.7854C30.1341 21.7854 30.2711 21.6484 30.2711 21.302C30.2724 20.0765 30.2724 18.851 30.2711 17.6255C30.2711 17.2784 30.1347 17.1433 29.7876 17.142C29.1827 17.1401 28.5783 17.142 27.9733 17.142Z" fill="#707070"/>
<path d="M10.1423 31.4634C9.52179 31.4634 8.90128 31.4654 8.28078 31.4634C7.54069 31.4609 7.05011 30.9748 7.04881 30.2392C7.04623 28.9898 7.04623 27.7411 7.04881 26.4916C7.05011 25.7677 7.54005 25.2739 8.26009 25.272C9.51726 25.2687 10.7744 25.2687 12.0316 25.272C12.7413 25.2739 13.2371 25.7651 13.239 26.471C13.2429 27.7365 13.2435 29.0015 13.239 30.267C13.2364 30.9709 12.7381 31.4596 12.0277 31.4634C11.3988 31.4667 10.7706 31.4641 10.1416 31.4641L10.1423 31.4634ZM7.82186 28.3428C7.82186 28.9633 7.82057 29.5845 7.82186 30.205C7.82315 30.5521 7.95824 30.6878 8.30534 30.6885C9.53084 30.6897 10.7563 30.6897 11.9818 30.6885C12.3283 30.6885 12.4647 30.5514 12.4653 30.205C12.4666 28.9795 12.4666 27.754 12.4653 26.5285C12.4653 26.1814 12.3289 26.0456 11.9818 26.045C10.7563 26.0437 9.53084 26.0437 8.30534 26.045C7.95824 26.045 7.82315 26.1814 7.82186 26.5285C7.81992 27.1335 7.82186 27.7378 7.82186 28.3428Z" fill="#707070"/>
<path d="M18.4636 9.83626C18.8107 10.0677 19.1559 10.3036 19.5069 10.5292C19.62 10.6015 19.6329 10.6558 19.5566 10.7728C19.2283 11.277 19.2328 11.2809 18.7267 10.9441C18.0228 10.4755 17.3202 10.0037 16.6138 9.53893C16.4716 9.44521 16.4069 9.39738 16.6002 9.27198C17.4243 8.7368 18.2413 8.18933 19.0544 7.63799C19.1901 7.54556 19.2496 7.56947 19.3343 7.69616C19.6549 8.17253 19.6581 8.16994 19.1766 8.49118C18.9381 8.65019 18.7015 8.81113 18.4152 9.00439C18.9536 9.03089 19.4338 9.00956 19.9121 9.05287C22.6863 9.30624 25.0035 10.4684 26.8689 12.5329C27.4009 13.1211 27.8417 13.7745 28.2295 14.4661C28.3096 14.6083 28.2818 14.6652 28.1429 14.7376C27.6471 14.9981 27.66 14.9974 27.364 14.5217C25.6331 11.7385 23.1433 10.1633 19.8759 9.8285C19.5702 9.79748 19.2645 9.78972 18.9581 9.78972C18.7978 9.78972 18.6382 9.78972 18.4779 9.78972C18.4727 9.80588 18.4682 9.82139 18.463 9.83755L18.4636 9.83626Z" fill="#707070"/>
<path d="M9.33173 23.1458C9.08547 22.4949 8.88768 21.8679 8.76746 21.219C8.38352 19.1428 8.65499 17.1469 9.49268 15.2181C9.54955 15.0869 9.60256 15.043 9.737 15.1199C9.89665 15.2117 10.1326 15.2479 10.2127 15.381C10.3013 15.529 10.1151 15.7139 10.0505 15.882C9.19923 18.1061 9.12231 20.3399 9.95288 22.5873C9.98262 22.6675 9.99102 22.7618 10.0841 22.8323C10.2185 22.2699 10.3607 21.7192 10.4777 21.1634C10.5191 20.9688 10.5837 20.921 10.7776 20.9701C11.2928 21.1007 11.2947 21.0923 11.1719 21.6055C10.9431 22.5608 10.7117 23.5148 10.4907 24.4721C10.4545 24.6304 10.415 24.6485 10.2741 24.5697C9.31751 24.0358 8.35831 23.5084 7.39653 22.9842C7.27566 22.9182 7.26403 22.8665 7.32866 22.745C7.60983 22.2176 7.6053 22.215 8.1379 22.5065C8.50504 22.7075 8.87217 22.9085 9.23995 23.1096C9.25352 23.1173 9.26968 23.1212 9.33109 23.1445L9.33173 23.1458Z" fill="#707070"/>
<path d="M22.1433 19.4581C22.1452 21.1613 20.7594 22.5567 19.0608 22.5619C17.348 22.5671 15.9492 21.1722 15.9512 19.4607C15.9525 17.7614 17.346 16.3698 19.0459 16.3691C20.7478 16.3691 22.1414 17.7582 22.1433 19.4574V19.4581ZM21.3683 19.4691C21.3703 18.1912 20.3277 17.1461 19.0505 17.1441C17.7733 17.1422 16.7268 18.1854 16.7249 19.462C16.7229 20.7392 17.7668 21.7856 19.0427 21.7876C20.3199 21.7895 21.3664 20.7463 21.3677 19.4697L21.3683 19.4691Z" fill="#707070"/>
<path d="M14.2737 9.67979C14.2265 9.73085 14.191 9.77351 14.1516 9.8123C13.3779 10.5866 12.6016 11.3577 11.8331 12.1373C11.7187 12.253 11.656 12.2452 11.5506 12.1334C11.2966 11.8645 11.0335 11.6034 10.7659 11.348C10.667 11.2537 10.6547 11.1832 10.7672 11.1011C10.7737 11.0966 10.7789 11.0895 10.7847 11.0843C10.9185 10.9576 11.04 10.7508 11.1906 10.7269C11.3341 10.7043 11.4562 10.9318 11.5732 11.0604C11.6928 11.1923 11.7555 11.1166 11.8402 11.0313C12.4193 10.4496 13.0056 9.87435 13.5769 9.28551C13.7146 9.14331 13.7974 9.14848 13.9137 9.29262C13.9938 9.39216 14.0947 9.47554 14.1845 9.56797C14.2162 9.60094 14.2427 9.63907 14.2757 9.68044L14.2737 9.67979Z" fill="#707070"/>
<path d="M27.1583 21.1492C27.1311 21.1246 27.1001 21.0994 27.0723 21.0716C26.7931 20.793 26.5165 20.5125 26.234 20.2371C26.1558 20.1609 26.1461 20.1124 26.2269 20.0225C26.6354 19.5675 26.6386 19.5585 27.0516 19.9618C27.1738 20.0814 27.23 20.0284 27.3186 19.9385C27.8964 19.3555 28.4827 18.7809 29.0554 18.1927C29.1879 18.057 29.2609 18.0544 29.3928 18.1921C29.7683 18.5825 29.7748 18.5766 29.3979 18.9535C28.7096 19.6418 28.0212 20.3309 27.3315 21.0186C27.2824 21.0677 27.2456 21.1362 27.1583 21.1498V21.1492Z" fill="#707070"/>
<path d="M11.9514 27.4833C11.912 27.5273 11.8822 27.5648 11.8493 27.5978C11.0646 28.3831 10.2773 29.1671 9.49589 29.9557C9.40023 30.052 9.34399 30.0578 9.24833 29.9576C8.9872 29.6836 8.72155 29.414 8.44555 29.1561C8.32662 29.045 8.35506 28.9803 8.45848 28.8898C8.59745 28.7683 8.71379 28.5589 8.86504 28.5324C9.01241 28.5065 9.13069 28.7353 9.24768 28.8627C9.36468 28.99 9.42673 28.9286 9.51528 28.8394C10.0931 28.2564 10.6794 27.6818 11.252 27.0936C11.3846 26.9572 11.4692 26.9436 11.5888 27.0949C11.6683 27.1951 11.7698 27.2778 11.859 27.3702C11.8913 27.4032 11.9178 27.4413 11.9527 27.4833H11.9514Z" fill="#707070"/>
<path d="M19.0478 21.0128C18.1946 21.0128 17.4972 20.3141 17.4998 19.4602C17.5017 18.607 18.203 17.9128 19.0581 17.918C19.901 17.9225 20.5913 18.6148 20.5945 19.4583C20.5978 20.3128 19.9016 21.0128 19.0478 21.0134V21.0128ZM19.8202 19.4628C19.8189 19.0427 19.4705 18.6936 19.051 18.6917C18.6296 18.6898 18.2793 19.0336 18.2741 19.455C18.2689 19.8849 18.6257 20.243 19.0556 20.2384C19.475 20.2339 19.8221 19.8823 19.8208 19.4628H19.8202Z" fill="#707070"/>
</g>
<defs>
<clipPath id="clip0_876_2266">
<rect width="24" height="24" fill="white" transform="translate(7.04688 7.46484)"/>
</clipPath>
</defs>
</svg>
