<svg xmlns="http://www.w3.org/2000/svg" xmlns:xlink="http://www.w3.org/1999/xlink" viewBox="0 0 463.12 80.25"><defs><style>.cls-1{fill:url(#linear-gradient);}.cls-2{fill:url(#linear-gradient-2);}.cls-3{fill:url(#linear-gradient-3);}.cls-4{fill:url(#linear-gradient-4);}.cls-5{fill:url(#linear-gradient-5);}.cls-6{fill:url(#linear-gradient-6);}.cls-7{fill:#e30613;}.cls-8{fill:#878787;}.cls-9{fill:url(#linear-gradient-7);}.cls-10{fill:#1d1d1b;}.cls-11{fill:#fff;}.cls-12{fill:#3c3c3b;}.cls-13{fill:url(#linear-gradient-8);}.cls-14{fill:#575756;}.cls-15{fill:#b2b2b2;}</style><linearGradient id="linear-gradient" x1="223.81" y1="32.96" x2="260.43" y2="32.96" gradientUnits="userSpaceOnUse"><stop offset="0" stop-color="#e30613"/><stop offset="0.53" stop-color="#fcea10"/><stop offset="1" stop-color="#009fe3"/></linearGradient><linearGradient id="linear-gradient-2" x1="223.81" y1="43.96" x2="260.43" y2="43.96" xlink:href="#linear-gradient"/><linearGradient id="linear-gradient-3" x1="223.81" y1="47" x2="260.43" y2="47" xlink:href="#linear-gradient"/><linearGradient id="linear-gradient-4" x1="223.81" y1="49.58" x2="260.43" y2="49.58" xlink:href="#linear-gradient"/><linearGradient id="linear-gradient-5" x1="223.81" y1="51.71" x2="260.43" y2="51.71" xlink:href="#linear-gradient"/><linearGradient id="linear-gradient-6" x1="223.81" y1="53.45" x2="260.43" y2="53.45" xlink:href="#linear-gradient"/><linearGradient id="linear-gradient-7" x1="218.87" y1="36.92" x2="264.76" y2="8.99" gradientUnits="userSpaceOnUse"><stop offset="0" stop-color="#009fe3"/><stop offset="0.05" stop-color="#08a1dc"/><stop offset="0.12" stop-color="#1fa8c9"/><stop offset="0.21" stop-color="#45b3aa"/><stop offset="0.32" stop-color="#78c37e"/><stop offset="0.44" stop-color="#bad647"/><stop offset="0.54" stop-color="#fcea10"/><stop offset="1" stop-color="#e30613"/></linearGradient><linearGradient id="linear-gradient-8" x1="152.5" y1="55.97" x2="152.5" y2="43.99" xlink:href="#linear-gradient-7"/></defs><g id="Layer_2" data-name="Layer 2"><g id="Layer_1-2" data-name="Layer 1"><path class="cls-1" d="M224.37,55.36V10.57h11.92V55.36Z"/><rect class="cls-2" x="238.04" y="32.56" width="4.04" height="22.8"/><rect class="cls-3" x="243.07" y="38.64" width="4.04" height="16.71"/><rect class="cls-4" x="248.1" y="43.81" width="4.04" height="11.54"/><rect class="cls-5" x="253.13" y="48.06" width="4.04" height="7.3"/><rect class="cls-6" x="258.16" y="51.55" width="4.04" height="3.81"/><path class="cls-7" d="M24.93,42c0,8.14-5,13.36-12.25,13.36H0V9.75H12.32c6.6,0,11.11,5,11.11,12.71C23.43,26.37,22,30,19.59,32,23,33.79,24.93,37.57,24.93,42ZM7.39,17.31V28.52h4c3,0,4.51-2,4.51-5.74s-1.5-5.47-4.75-5.47ZM17.36,42c0-4-2.16-6-5.89-6H7.39V47.8h4.14C15.38,47.8,17.36,45.84,17.36,42Z"/><path class="cls-7" d="M72.45,9.75,63,55.36H55.15L51.66,37.83a124.71,124.71,0,0,1-2-14.79h-.24a139.73,139.73,0,0,1-2,14.79L43.91,55.36H36L26.61,9.75h7.63L38,32.88c.54,3.32,1.44,9.12,1.8,12.44h.24c.42-3.32,1.32-9,1.86-12.57L45.66,10.4h7.75l3.72,22.35C57.67,36.33,58.57,42,59,45.32h.24C59.59,42,60.5,36.2,61,32.88L64.82,9.75Z"/><path class="cls-8" d="M121.93,9.76h3.73v45.6H114V36.56l-9.3,10.86H101L91.73,36.63V55.36H80.06V9.76h3.73L102.86,33Z"/><path class="cls-8" d="M219,55.36h-13L195.82,41.44H191V55.36H179.33V10.57h17.58a18.26,18.26,0,0,1,12.42,4.24A14.05,14.05,0,0,1,214.21,26a14.07,14.07,0,0,1-7.05,12.76ZM191,20.75V31.27h6a5.27,5.27,0,0,0,3.9-1.46A5.21,5.21,0,0,0,202.34,26a5.09,5.09,0,0,0-1.46-3.8,5.33,5.33,0,0,0-3.9-1.42Z"/><path class="cls-8" d="M270.74,55.36V10.57h31.08V21.09H282.41v6.17h13.84V37H282.41v7.81h20.22V55.36Z"/><path class="cls-8" d="M319.53,55.36V21.09H306.09V10.57h38.55V21.09H331.2V55.36Z"/><path class="cls-8" d="M349.79,55.36V10.57h11.67V55.36Z"/><path class="cls-8" d="M398.45,10.57h11.67v45.6h-3.73l-24.3-23.55V55.36H370.42V9.76h3.73L398.45,33Z"/><path class="cls-8" d="M416.77,33a21.51,21.51,0,0,1,7.06-16.49,23.63,23.63,0,0,1,17.3-6.71q12.56,0,19.27,10l-8.14,6.92q-4.41-6.16-11.33-6.17A11.88,11.88,0,0,0,432,23.87,12.51,12.51,0,0,0,428.71,33a12.6,12.6,0,0,0,3.5,9.3,12.63,12.63,0,0,0,9.39,3.53q6.39,0,9.84-4v-2.1H441v-10h22.13V43.75a24.25,24.25,0,0,1-9,9,25.48,25.48,0,0,1-13,3.39,23.77,23.77,0,0,1-17.3-6.68A21.49,21.49,0,0,1,416.77,33Z"/><polygon class="cls-8" points="154.36 9.76 152.5 5.76 150.63 9.76 150.63 9.76 130.27 55.36 142.83 55.36 152.53 31.88 162.17 55.36 174.72 55.36 154.36 9.76"/><path class="cls-9" d="M266.43,16.61q.15-4.42.29-8.84c0-.58,0-1.16,0-1.73.05-1.79.11-3.57.16-5.36a1.8,1.8,0,0,0,0-.4.34.34,0,0,0-.43-.27,1.17,1.17,0,0,0-.31.12L264.58,1l-5,2.69-3.94,2.11-3.71,2a.43.43,0,0,0,0,.8c.92.58,1.85,1.14,2.78,1.71l1.19.74c0,.05,0,.07,0,.09-.75,1-1.49,2-2.27,3a54.78,54.78,0,0,1-5.31,5.78,52.67,52.67,0,0,1-5.45,4.54c-1.38,1-2.79,2-4.24,2.85s-3,1.72-4.49,2.51c-1.17.62-2.39,1.16-3.61,1.7-.94.42-1.89.8-2.85,1.16s-2,.72-3,1.05c-.74.25-1.48.46-2.22.68l-1.1.32v0a1.33,1.33,0,0,0,.2,0c.88-.12,1.76-.24,2.64-.38s2-.33,2.94-.52,1.65-.36,2.47-.57,1.93-.48,2.89-.76,2-.6,2.93-.93,2.11-.74,3.15-1.16,2.24-.92,3.33-1.45c1.59-.78,3.17-1.58,4.73-2.44a52.57,52.57,0,0,0,5.11-3.26,65.75,65.75,0,0,0,5.25-4.17c1.58-1.4,3.08-2.88,4.52-4.42a.19.19,0,0,1,.28,0l1.24.77c.92.57,1.84,1.15,2.76,1.71a.43.43,0,0,0,.7-.35A.76.76,0,0,0,266.43,16.61Z"/><path class="cls-10" d="M224.6,58V56.29h.19V58Z"/><path class="cls-10" d="M228.9,56.29h.2V58H229L228,56.71V58h-.2v-1.7h.07l1.06,1.28Z"/><path class="cls-10" d="M233.23,56.29h.22L232.73,58h-.08l-.72-1.69h.22l.54,1.31Z"/><path class="cls-10" d="M236.28,58V56.29h1.07v.18h-.87V57h.66v.17h-.66v.63h.9V58Z"/><path class="cls-10" d="M240.11,57.63l.14-.11a.55.55,0,0,0,.47.28.36.36,0,0,0,.24-.07.26.26,0,0,0,.09-.21.21.21,0,0,0-.06-.16,1.14,1.14,0,0,0-.22-.13l-.18-.09a.8.8,0,0,1-.28-.19.32.32,0,0,1-.1-.25.39.39,0,0,1,.15-.32.53.53,0,0,1,.35-.12.68.68,0,0,1,.31.08.63.63,0,0,1,.22.21l-.15.1a.43.43,0,0,0-.38-.21.38.38,0,0,0-.21.07.19.19,0,0,0-.08.18.21.21,0,0,0,0,.12.27.27,0,0,0,.08.07l.15.09.19.08a1,1,0,0,1,.29.21.34.34,0,0,1,.1.26.38.38,0,0,1-.16.33.53.53,0,0,1-.38.13.68.68,0,0,1-.35-.09A.65.65,0,0,1,240.11,57.63Z"/><path class="cls-10" d="M244.57,58V56.47H244v-.18h1.37v.18h-.59V58Z"/><path class="cls-10" d="M249.62,56.26h.07V58h-.2v-1.2l-.53.72h-.07l-.54-.72V58h-.2v-1.7h.08l.69,1Z"/><path class="cls-10" d="M252.67,58V56.29h1.07v.18h-.87V57h.66v.17h-.66v.63h.9V58Z"/><path class="cls-10" d="M257.75,56.29h.2V58h-.07l-1.06-1.27V58h-.2v-1.7h.07l1.06,1.28Z"/><path class="cls-10" d="M261.34,58V56.47h-.59v-.18h1.37v.18h-.59V58Z"/><path class="cls-11" d="M226.39,53.78a.87.87,0,0,1-.86-.87.82.82,0,0,1,.34-.68l.11.15a.64.64,0,0,0-.27.53.58.58,0,0,0,.19.47.68.68,0,0,0,.48.19.66.66,0,0,0,.49-.19.62.62,0,0,0,.2-.48.73.73,0,0,0-.08-.33.6.6,0,0,0-.22-.23h-.22v.57h-.18v-.76h.45a.84.84,0,0,1,.31.31.87.87,0,0,1,.12.45.82.82,0,0,1-.25.61A.8.8,0,0,1,226.39,53.78Z"/><path class="cls-11" d="M227.22,48v.23l-.7.52v.35h.7v.2h-1.67v-.59a.56.56,0,0,1,.14-.38.44.44,0,0,1,.35-.15.43.43,0,0,1,.29.1.45.45,0,0,1,.17.25Zm-1.49,1.1h.61v-.38a.31.31,0,0,0-.08-.24.31.31,0,0,0-.44,0,.32.32,0,0,0-.09.24Z"/><path class="cls-11" d="M226.39,45.31a.75.75,0,0,1-.61-.25.87.87,0,0,1,0-1.22.8.8,0,0,1,.61-.26.81.81,0,0,1,.61.26.87.87,0,0,1,0,1.22A.8.8,0,0,1,226.39,45.31Zm0-1.52a.68.68,0,0,0-.48.19.59.59,0,0,0-.19.47.63.63,0,0,0,.19.47.65.65,0,0,0,.48.19.66.66,0,0,0,.49-.19.65.65,0,0,0,0-.94A.67.67,0,0,0,226.38,43.79Z"/><path class="cls-11" d="M225.55,38.63v-.21l1.7.63v.07l-1.33.53,1.33.52v.07l-1.7.64v-.22l1.27-.46-1.29-.52v-.07l1.29-.52Z"/><path class="cls-11" d="M227.22,35.14h-1.49v.59h-.18V34.36h.18V35h1.49Z"/><path class="cls-11" d="M227.22,31.56h-1.67v-.2h.69v-.93h-.69v-.2h1.67v.2h-.8v.93h.8Z"/><path class="cls-12" d="M367.14,61.94h2.32l-6.82,18.31h-.77L356.17,66l-5.7,14.3h-.77l-6.85-18.31h2.35l5,13.73,5.62-14h.76l5.62,14Z"/><path class="cls-12" d="M376.94,71a8.66,8.66,0,0,1,2.7-6.61,9.49,9.49,0,0,1,13.26,0,9.36,9.36,0,0,1,0,13.21,8.93,8.93,0,0,1-6.63,2.7,9.24,9.24,0,0,1-9.33-9.3Zm16.48,0a7,7,0,0,0-2.05-5.21,6.61,6.61,0,0,0-5.07-2.1,6.84,6.84,0,0,0-5.1,2.08,7.72,7.72,0,0,0,0,10.48,6.8,6.8,0,0,0,5.1,2.12,6.63,6.63,0,0,0,5.07-2.12A7.05,7.05,0,0,0,393.42,70.92Z"/><path class="cls-12" d="M418.94,80h-2.49l-5.59-7.56H407V80h-2.13v-18h6.33a6,6,0,0,1,4.18,1.46A4.89,4.89,0,0,1,417,67.15a5.1,5.1,0,0,1-1,3.16,5.25,5.25,0,0,1-2.78,1.84ZM407,63.85v6.63h4.12a3.8,3.8,0,0,0,2.68-.88,3.18,3.18,0,0,0,.95-2.42,3.14,3.14,0,0,0-1-2.41,3.71,3.71,0,0,0-2.66-.92Z"/><path class="cls-12" d="M427.31,80v-18h2.13V78H438V80Z"/><path class="cls-12" d="M446.58,80v-18h5.35a10,10,0,0,1,7.13,2.5,8.45,8.45,0,0,1,2.67,6.48,8.56,8.56,0,0,1-2.68,6.49A9.88,9.88,0,0,1,451.93,80ZM448.71,78h3.19a7.67,7.67,0,0,0,5.56-2,6.83,6.83,0,0,0,2.05-5.13,6.76,6.76,0,0,0-2-5.12,7.75,7.75,0,0,0-5.57-1.95h-3.19Z"/><polygon class="cls-13" points="158.05 55.36 158.05 55.36 152.52 41.87 146.94 55.36 146.94 55.36 158.05 55.36"/><path class="cls-14" d="M6.08,76l-.46-1.07H2.26L1.8,76H0l3.67-8.37h.56L7.89,76ZM5,73.55l-1.1-2.77L2.85,73.55Z"/><path class="cls-14" d="M18.23,73.59a2.24,2.24,0,0,1-.76,1.74,2.82,2.82,0,0,1-1.94.68H11.87V67.79h2.91a2.75,2.75,0,0,1,1.87.64,2.09,2.09,0,0,1,.73,1.65,1.92,1.92,0,0,1-.61,1.48A2,2,0,0,1,18.23,73.59Zm-3.59-4.35H13.49v1.88h1.15a1.17,1.17,0,0,0,.79-.25.88.88,0,0,0,.28-.7.84.84,0,0,0-.28-.68A1.12,1.12,0,0,0,14.64,69.24Zm1.93,4.29a.93.93,0,0,0-.31-.75,1.22,1.22,0,0,0-.86-.28H13.49v2.06H15.4a1.27,1.27,0,0,0,.86-.27A1,1,0,0,0,16.57,73.53Z"/><path class="cls-14" d="M28.94,67.79h1.87l-3.29,8.36H27L24.69,71l-2.31,5.15h-.54l-3.29-8.36h1.87l1.83,4.86,2.15-5H25l2.15,5Z"/><path class="cls-14" d="M41.28,73.59a2.21,2.21,0,0,1-.76,1.74,2.8,2.8,0,0,1-1.94.68H34.93V67.79h2.91a2.77,2.77,0,0,1,1.87.64,2.12,2.12,0,0,1,.73,1.65,2,2,0,0,1-.61,1.48A2,2,0,0,1,41.28,73.59ZM37.7,69.24H36.54v1.88H37.7a1.19,1.19,0,0,0,.79-.25.88.88,0,0,0,.28-.7.84.84,0,0,0-.28-.68A1.14,1.14,0,0,0,37.7,69.24Zm1.93,4.29a1,1,0,0,0-.31-.75,1.24,1.24,0,0,0-.86-.28H36.54v2.06h1.92a1.28,1.28,0,0,0,.86-.27A1,1,0,0,0,39.63,73.53Z"/><path class="cls-14" d="M42.58,72.61V67.79h1.68v4.94a1.86,1.86,0,0,0,.49,1.38,1.79,1.79,0,0,0,1.31.49,1.76,1.76,0,0,0,1.31-.49,1.86,1.86,0,0,0,.49-1.38V67.79h1.68v4.82a3.48,3.48,0,1,1-7,0Z"/><path class="cls-14" d="M50.73,74.34l1.15-.87a2.5,2.5,0,0,0,2,1.19,1.39,1.39,0,0,0,.86-.24.81.81,0,0,0,.31-.67.7.7,0,0,0-.21-.54,3.45,3.45,0,0,0-.84-.48l-.88-.39c-1.33-.59-2-1.38-2-2.37a2.07,2.07,0,0,1,.77-1.68,3,3,0,0,1,1.95-.65,3.05,3.05,0,0,1,1.62.42,3,3,0,0,1,1.1,1.14l-1.15.88a1.84,1.84,0,0,0-1.57-.94,1.21,1.21,0,0,0-.73.21.69.69,0,0,0-.29.58.66.66,0,0,0,.21.51,3.19,3.19,0,0,0,.75.44l.94.41a4.62,4.62,0,0,1,1.54,1,2,2,0,0,1,.48,1.37A2.23,2.23,0,0,1,56,75.48a3.08,3.08,0,0,1-2.06.67A3.63,3.63,0,0,1,52,75.67,3.56,3.56,0,0,1,50.73,74.34Z"/><path class="cls-14" d="M58.25,76V67.79h1.68V76Z"/><path class="cls-14" d="M67.12,67.79H68.8v8.36h-.56l-4.75-5.07V76H61.81V67.64h.55l4.76,5.06Z"/><path class="cls-14" d="M70.68,76V67.79h5.53v1.52H72.36V71h2.83v1.43H72.36v2.08h4V76Z"/><path class="cls-14" d="M77.24,74.34l1.16-.87a2.49,2.49,0,0,0,2,1.19,1.37,1.37,0,0,0,.86-.24.79.79,0,0,0,.31-.67.7.7,0,0,0-.21-.54,3.54,3.54,0,0,0-.83-.48l-.89-.39c-1.32-.59-2-1.38-2-2.37a2.07,2.07,0,0,1,.77-1.68,3,3,0,0,1,2-.65,3.1,3.1,0,0,1,1.62.42A3.06,3.06,0,0,1,83.1,69.2L82,70.08a1.86,1.86,0,0,0-1.57-.94,1.22,1.22,0,0,0-.74.21.68.68,0,0,0-.28.58.69.69,0,0,0,.2.51,3.09,3.09,0,0,0,.76.44l.93.41a4.51,4.51,0,0,1,1.54,1,2,2,0,0,1,.49,1.37,2.23,2.23,0,0,1-.81,1.79,3.12,3.12,0,0,1-2.07.67,3.63,3.63,0,0,1-1.86-.48A3.56,3.56,0,0,1,77.24,74.34Z"/><path class="cls-14" d="M84.13,74.34l1.16-.87a2.49,2.49,0,0,0,2,1.19,1.34,1.34,0,0,0,.85-.24.79.79,0,0,0,.32-.67.71.71,0,0,0-.22-.54,3.54,3.54,0,0,0-.83-.48l-.88-.39c-1.33-.59-2-1.38-2-2.37a2,2,0,0,1,.77-1.68,2.92,2.92,0,0,1,2-.65,3.1,3.1,0,0,1,1.62.42A3,3,0,0,1,90,69.2l-1.14.88a1.85,1.85,0,0,0-1.57-.94,1.19,1.19,0,0,0-.73.21.69.69,0,0,0-.29.58.66.66,0,0,0,.21.51,2.81,2.81,0,0,0,.75.44l.93.41a4.41,4.41,0,0,1,1.54,1,2,2,0,0,1,.49,1.37,2.23,2.23,0,0,1-.81,1.79,3.11,3.11,0,0,1-2.06.67,3.63,3.63,0,0,1-1.86-.48A3.58,3.58,0,0,1,84.13,74.34Z"/><path class="cls-14" d="M101.23,67.79h1.86l-3.28,8.36h-.55L97,71l-2.3,5.15h-.55l-3.28-8.36h1.87l1.82,4.86,2.16-5h.56l2.15,5Z"/><path class="cls-14" d="M103.63,71.9a4,4,0,0,1,1.27-3A4.15,4.15,0,0,1,108,67.64a4.2,4.2,0,0,1,3.1,1.24,4.2,4.2,0,0,1,0,6,4.15,4.15,0,0,1-3.1,1.23,4.11,4.11,0,0,1-3.08-1.23A4,4,0,0,1,103.63,71.9Zm7,0a2.68,2.68,0,0,0-.75-1.94,2.72,2.72,0,0,0-3.77,0,2.88,2.88,0,0,0,0,3.88,2.72,2.72,0,0,0,3.77,0A2.65,2.65,0,0,0,110.63,71.9Z"/><path class="cls-14" d="M120.71,76h-1.89l-2.13-2.9h-1.23V76h-1.68V67.79h3.09a3.12,3.12,0,0,1,2.13.74,2.45,2.45,0,0,1,.83,1.91,2.61,2.61,0,0,1-.38,1.39,2.51,2.51,0,0,1-1.06,1Zm-5.25-6.74v2.36h1.41a1.22,1.22,0,0,0,.91-.33,1.14,1.14,0,0,0,.33-.86,1.09,1.09,0,0,0-.34-.84,1.25,1.25,0,0,0-.9-.33Z"/><path class="cls-14" d="M121.75,76V67.79h1.67v6.7H127V76Z"/><path class="cls-14" d="M128.26,76V67.79H131a4.58,4.58,0,0,1,3.24,1.13,3.74,3.74,0,0,1,1.24,3,3.78,3.78,0,0,1-1.26,3A4.48,4.48,0,0,1,131,76Zm1.68-1.52h1a2.77,2.77,0,0,0,2-.72,2.46,2.46,0,0,0,.76-1.9A2.42,2.42,0,0,0,133,70a2.86,2.86,0,0,0-2-.69h-1Z"/><path class="cls-14" d="M140.33,76V67.79h3.09a3.12,3.12,0,0,1,2.13.74,2.45,2.45,0,0,1,.83,1.91,2.48,2.48,0,0,1-.83,1.92,3.08,3.08,0,0,1-2.13.75H142V76ZM142,71.64h1.41a1.22,1.22,0,0,0,.91-.33,1.18,1.18,0,0,0,.33-.87,1.09,1.09,0,0,0-.34-.84,1.25,1.25,0,0,0-.9-.33H142Z"/><path class="cls-14" d="M147.65,72.61V67.79h1.68v4.94a1.83,1.83,0,0,0,.5,1.38,1.75,1.75,0,0,0,1.3.49,1.78,1.78,0,0,0,1.32-.49,1.9,1.9,0,0,0,.49-1.38V67.79h1.68v4.82a3.36,3.36,0,0,1-3.49,3.54,3.38,3.38,0,0,1-2.5-1A3.41,3.41,0,0,1,147.65,72.61Z"/><path class="cls-14" d="M162.79,73.59a2.21,2.21,0,0,1-.76,1.74,2.8,2.8,0,0,1-1.94.68h-3.66V67.79h2.91a2.78,2.78,0,0,1,1.88.64,2.12,2.12,0,0,1,.72,1.65,1.92,1.92,0,0,1-.61,1.48A2,2,0,0,1,162.79,73.59Zm-3.58-4.35h-1.16v1.88h1.16a1.19,1.19,0,0,0,.79-.25.92.92,0,0,0,.28-.7.87.87,0,0,0-.28-.68A1.14,1.14,0,0,0,159.21,69.24Zm1.93,4.29a.94.94,0,0,0-.32-.75,1.19,1.19,0,0,0-.85-.28h-1.92v2.06H160a1.24,1.24,0,0,0,.85-.27A1,1,0,0,0,161.14,73.53Z"/><path class="cls-14" d="M164.16,76V67.79h1.68v6.7h3.59V76Z"/><path class="cls-14" d="M170.68,76V67.79h1.68V76Z"/><path class="cls-14" d="M173.76,71.9a4,4,0,0,1,1.29-3,4.46,4.46,0,0,1,5.22-.68,3.9,3.9,0,0,1,1.49,1.5l-1.26.89a2.7,2.7,0,0,0-2.36-1.38,2.54,2.54,0,0,0-1.89.77,2.65,2.65,0,0,0-.76,1.94,2.61,2.61,0,0,0,.76,1.93,2.53,2.53,0,0,0,1.89.76,2.7,2.7,0,0,0,2.36-1.38l1.26.89a3.77,3.77,0,0,1-1.49,1.5,4.28,4.28,0,0,1-2.14.54,4.14,4.14,0,0,1-3.1-1.22A4,4,0,0,1,173.76,71.9Z"/><path class="cls-14" d="M188.37,76l-.46-1.07h-3.36L184.09,76h-1.8L186,67.64h.56L190.17,76Zm-1-2.46-1.1-2.77-1.09,2.77Z"/><path class="cls-14" d="M192.22,76v-6.7h-2.63V67.79h6.94v1.52H193.9V76Z"/><path class="cls-14" d="M197.64,76V67.79h1.68V76Z"/><path class="cls-14" d="M200.73,71.9a4,4,0,0,1,1.27-3,4.46,4.46,0,0,1,6.17,0,4.18,4.18,0,0,1,0,6,4.48,4.48,0,0,1-6.17,0A4,4,0,0,1,200.73,71.9Zm7,0A2.68,2.68,0,0,0,207,70a2.73,2.73,0,0,0-3.78,0,2.91,2.91,0,0,0,0,3.88,2.73,2.73,0,0,0,3.78,0A2.65,2.65,0,0,0,207.73,71.9Z"/><path class="cls-14" d="M216.19,67.79h1.68v8.36h-.56l-4.75-5.07V76h-1.68V67.64h.55l4.76,5.06Z"/><rect class="cls-15" y="61.64" width="331.18" height="0.5"/></g></g></svg>