<svg height="80" viewBox="0 0 79.998 80" width="79.998" xmlns="http://www.w3.org/2000/svg"><path d="m182.672 458.68v5a1.667 1.667 0 0 1 -1.672 1.667h-30a1.667 1.667 0 0 1 -1.667-1.667v-5z" fill="#198cca" opacity=".1" stroke="#707070" stroke-miterlimit="10" transform="translate(-126.007 -387.014)"/><path d="m203.006 373.347 1.667 13.333h-23.333l1.667-13.333z" fill="#fff" transform="translate(-153.008 -315.014)"/><path d="m124.005 94.013v5h-60v-35h60z" fill="#198cca" opacity=".1" stroke="#707070" stroke-miterlimit="10" transform="translate(-54.007 -54.013)"/><path d="m87.338 14.014v40h-8.338v-35h-60v35h-8.327v-40a3.343 3.343 0 0 1 3.333-3.333h69.994a3.343 3.343 0 0 1 3.338 3.333z" fill="#fff" transform="translate(-9.006 -9.013)"/><path d="m87.338 288.014v10a3.343 3.343 0 0 1 -3.333 3.333h-70a3.343 3.343 0 0 1 -3.333-3.333v-10z" fill="#198cca" opacity=".1" stroke="#707070" stroke-miterlimit="10" transform="translate(-9.007 -243.014)"/><path d="m124 14.01v5h-60v-5a3.265 3.265 0 0 1 3.2-3.333h53.47a3.265 3.265 0 0 1 3.333 3.2q-.003.064-.003.133z" fill="#fff" transform="translate(-54.003 -9.009)"/><g fill="#198cca"><path d="m202.673 96.014h3.333v3.333h-3.333z" transform="translate(-171.007 -81.013)"/><path d="m362.673 138.68h3.333v3.333h-3.333z" transform="translate(-306.008 -117.013)"/><path d="m245.34 96.014h3.333v3.333h-3.333z" transform="translate(-207.008 -81.013)"/><path d="m288.007 181.347h3.333v3.333h-3.333z" transform="translate(-243.008 -153.013)"/><path d="m330.673 181.347h11.666v3.333h-11.666z" transform="translate(-279.008 -153.013)"/><path d="m288.007 96.014h18.333v3.333h-18.333z" transform="translate(-243.008 -81.013)"/><path d="m202.673 138.68h21.666v3.333h-21.666z" transform="translate(-171.007 -117.013)"/><path d="m362.673 224.014h3.333v3.333h-3.333z" transform="translate(-306.008 -189.014)"/><path d="m202.673 224.014h21.666v3.333h-21.666z" transform="translate(-171.007 -189.014)"/><path d="m202.673 181.347h10v3.333h-10z" transform="translate(-171.007 -153.013)"/><path d="m42.673 277.347h66.665v3.333h-66.665z" transform="translate(-36.007 -234.014)"/><path d="m75 .014v3.333a1.667 1.667 0 0 1 1.667 1.667v50a1.667 1.667 0 0 1 -1.667 1.665h-70a1.667 1.667 0 0 1 -1.66-1.667v-50a1.667 1.667 0 0 1 1.667-1.665v-3.333a5 5 0 0 0 -5 5v50a5 5 0 0 0 5 5h23.111l-1.25 10h-3.528a1.667 1.667 0 0 0 -1.667 1.667v5h-3.333v3.333h43.332v-3.336h-3.333v-5a1.667 1.667 0 0 0 -1.667-1.667h-3.528l-1.25-10h23.106a5 5 0 0 0 5-5v-50a5 5 0 0 0 -5-4.997zm-20 76.664h-30v-3.333h30zm-5.222-6.666h-19.55l1.25-10h17.056z" transform="translate(-.007 -.013)"/><path d="m56.662 11.668h56.665v28.332h3.333v-35a4.86 4.86 0 0 0 -4.716-5q-.142 0-.284 0h-53.332a4.86 4.86 0 0 0 -5 4.716q0 .142 0 .284v35h3.333zm1.667-8.333h53.331a1.525 1.525 0 0 1 1.667 1.665v3.335h-56.665v-3.313a1.532 1.532 0 0 1 1.667-1.687z" transform="translate(-44.996)"/><path d="m160.007 96.014h3.333v25h-3.333z" transform="translate(-135.008 -81.013)"/><path d="m96.007 96.014h6.667v3.333h-6.667z" transform="translate(-81.007 -81.013)"/><path d="m96.007 138.68h6.667v3.333h-6.667z" transform="translate(-81.007 -117.013)"/><path d="m96.007 181.347h6.667v3.333h-6.667z" transform="translate(-81.007 -153.013)"/><path d="m96.007 224.014h6.667v3.333h-6.667z" transform="translate(-81.007 -189.014)"/></g></svg>