<svg width="16" height="13" viewBox="0 0 16 13" fill="none" xmlns="http://www.w3.org/2000/svg">
<path d="M9.33716 8.33331C8.93909 8.59869 8.47672 8.73897 8 8.73897C7.52331 8.73897 7.06094 8.59869 6.66288 8.33331L0.106531 3.96228C0.0701562 3.93803 0.0347187 3.91275 0 3.88675V11.0492C0 11.8703 0.666406 12.5221 1.47291 12.5221H14.5271C15.3482 12.5221 16 11.8557 16 11.0492V3.88672C15.9652 3.91278 15.9297 3.93813 15.8932 3.96241L9.33716 8.33331Z" fill="white"/>
<path d="M0.626562 3.18256L7.18291 7.55363C7.43109 7.71909 7.71553 7.80181 7.99997 7.80181C8.28444 7.80181 8.56891 7.71906 8.81709 7.55363L15.3734 3.18256C15.7658 2.92116 16 2.48366 16 2.01147C16 1.19956 15.3395 0.539062 14.5276 0.539062H1.47241C0.660531 0.539094 0 1.19959 0 2.01225C0 2.48366 0.23425 2.92116 0.626562 3.18256Z" fill="white"/>
</svg>
