<svg height="80" viewBox="0 0 80.053 80" width="80.053" xmlns="http://www.w3.org/2000/svg"><path d="m21.338 319.842h3.335v3.335h-3.335z" fill="#198cca" transform="translate(-18.002 -269.861)"/><path d="m21.338 362.509h3.335v3.335h-3.335z" fill="#198cca" transform="translate(-18.002 -305.857)"/><path d="m62.684 248.274v2.251a70.137 70.137 0 0 0 8.339 3.335c5 1.668 5 5 5 5v10.006h-33.352v-10.002s0-3.335 5-5a70.127 70.127 0 0 0 8.339-3.335v-2.251a9.992 9.992 0 0 1 -6.671-9.423v-5a10.006 10.006 0 1 1 20.013 0v5a9.991 9.991 0 0 1 -6.668 9.419z" fill="#fff" transform="translate(-35.999 -188.87)"/><path d="m276.017 248.274v2.251a70.135 70.135 0 0 0 8.339 3.335c5 1.668 5 5 5 5v10.006h-33.356v-10.002s0-3.335 5-5a70.128 70.128 0 0 0 8.339-3.335v-2.251a9.992 9.992 0 0 1 -6.671-9.423v-5a10.006 10.006 0 1 1 20.013 0v5a9.991 9.991 0 0 1 -6.664 9.419z" fill="#fff" transform="translate(-215.978 -188.87)"/><path d="m169.351 248.274v2.251a70.137 70.137 0 0 0 8.339 3.335c5 1.668 5 5 5 5v10.006h-33.352v-10.002s0-3.335 5-5a70.125 70.125 0 0 0 8.339-3.335v-2.251a9.992 9.992 0 0 1 -6.671-9.423v-5a10.006 10.006 0 1 1 20.013 0v5a9.991 9.991 0 0 1 -6.668 9.419z" fill="#198cca" opacity=".1" transform="translate(-125.989 -188.87)"/><path d="m193.011 10.509 11.674 18.345h-6.671v16.36a9.941 9.941 0 0 0 -10.006 0v-16.36h-6.671z" fill="#fff" transform="translate(-152.985 -8.892)"/><g fill="#198cca"><g opacity=".1" transform="translate(1.668 8.288)"><path d="m363.678 53.175 11.674 18.345h-6.671v6.671a9.851 9.851 0 0 0 3.335 8.339v5h-8.339v-1.4a10.4 10.4 0 0 0 -5-8.939v-9.671h-6.677z" transform="translate(-298.637 -53.175)"/><path d="m22.345 53.175 11.674 18.345h-6.671v9.689a9.981 9.981 0 0 0 -5 8.656v1.668h-8.342v-5a9.851 9.851 0 0 0 3.335-8.339v-6.674h-6.67z" transform="translate(-10.671 -53.175)"/></g><path d="m175.36 260.043h-3.335v-10.007c0-.045-.167-2.19-3.862-3.422a71.122 71.122 0 0 1 -8.557-3.415 1.668 1.668 0 0 1 -.922-1.5v-2.251a1.668 1.668 0 0 1 1.114-1.573 8.339 8.339 0 0 0 5.557-7.85v-5a8.339 8.339 0 0 0 -16.677 0v5a8.339 8.339 0 0 0 5.557 7.85 1.668 1.668 0 0 1 1.114 1.573v2.252a1.668 1.668 0 0 1 -.922 1.5 71.142 71.142 0 0 1 -8.557 3.424c-3.7 1.224-3.862 3.369-3.862 3.459v9.961h-3.338v-10.008c0-.185.07-4.56 6.144-6.584a74.162 74.162 0 0 0 7.2-2.814v-.077a11.674 11.674 0 0 1 -6.671-10.538v-5a11.684 11.684 0 0 1 5.837-10.1 11.817 11.817 0 0 1 11.687.01 11.674 11.674 0 0 1 5.824 10.091v5a11.674 11.674 0 0 1 -6.671 10.538v.077a74.221 74.221 0 0 0 7.2 2.814c6.074 2.025 6.144 6.4 6.144 6.584v10.006z" transform="translate(-116.989 -180.043)"/><path d="m35.34 259.912h-3.34v-10.006c0-.185.07-4.56 6.144-6.584a74.16 74.16 0 0 0 7.2-2.814v-.077a11.674 11.674 0 0 1 -6.671-10.538v-5a11.674 11.674 0 0 1 17.251-10.248l-1.613 2.919a8.339 8.339 0 0 0 -12.3 7.33v5a8.339 8.339 0 0 0 5.557 7.85 1.668 1.668 0 0 1 1.114 1.573v2.251a1.668 1.668 0 0 1 -.922 1.5 71.14 71.14 0 0 1 -8.557 3.424c-3.7 1.224-3.862 3.369-3.862 3.459z" transform="translate(-27 -179.912)"/><path d="m245.338 458.509h3.335v3.335h-3.335z" transform="translate(-206.98 -386.848)"/><path d="m288 458.509h3.335v3.335h-3.335z" transform="translate(-242.975 -386.848)"/><path d="m202.671 458.509h3.335v3.335h-3.335z" transform="translate(-170.984 -386.848)"/><path d="m350.94 259.84h-3.34v-10.007c0-.045-.167-2.19-3.862-3.422a71.125 71.125 0 0 1 -8.553-3.411 1.668 1.668 0 0 1 -.922-1.5v-2.251a1.668 1.668 0 0 1 1.114-1.573 8.339 8.339 0 0 0 5.557-7.85v-4.736a8.672 8.672 0 0 0 -4.179-7.5 7.22 7.22 0 0 0 -2.216-.894 8.385 8.385 0 0 0 -5.91.8l-1.606-2.922a11.814 11.814 0 0 1 8.235-1.136 10.44 10.44 0 0 1 3.21 1.291 12.007 12.007 0 0 1 5.8 10.365v4.736a11.674 11.674 0 0 1 -6.671 10.538v.077a74.22 74.22 0 0 0 7.2 2.814c6.074 2.025 6.144 6.4 6.144 6.584z" transform="translate(-275.891 -179.84)"/><path d="m190.681 31.8h-3.335v-11.67a1.668 1.668 0 0 1 1.668-1.668h3.634l-8.638-13.57-8.637 13.57h3.634a1.668 1.668 0 0 1 1.668 1.668v11.67h-3.335v-10h-5a1.668 1.668 0 0 1 -1.408-2.563l11.668-18.347a1.734 1.734 0 0 1 2.815 0l11.674 18.345a1.668 1.668 0 0 1 -1.407 2.563h-5v10.002z" transform="translate(-143.984 -.168)"/><path d="m6.672 82.809h-3.336v-5a1.668 1.668 0 0 1 .489-1.179 8.292 8.292 0 0 0 2.875-6.854 1.746 1.746 0 0 1 -.03-.308v-5h-5a1.668 1.668 0 0 1 -1.409-2.568l11.674-18.344a1.734 1.734 0 0 1 2.815 0l11.674 18.344a1.668 1.668 0 0 1 -1.407 2.563h-5v3.337h-3.339v-5a1.668 1.668 0 0 1 1.668-1.668h3.634l-8.637-13.57-8.638 13.567h3.634a1.668 1.668 0 0 1 1.668 1.671v6.54a11.523 11.523 0 0 1 -3.335 9.133z" transform="translate(0 -36.164)"/><path d="m364.684 82.812h-3.335v-4.336a11.522 11.522 0 0 1 -3.335-9.134v-6.542a1.668 1.668 0 0 1 1.668-1.668h3.634l-8.637-13.57-8.637 13.57h3.634a1.668 1.668 0 0 1 1.668 1.668v5h-3.335v-3.333h-5a1.668 1.668 0 0 1 -1.409-2.567l11.67-18.341a1.734 1.734 0 0 1 2.815 0l11.674 18.341a1.668 1.668 0 0 1 -1.407 2.563h-5v5a1.672 1.672 0 0 1 -.033.333 8.3 8.3 0 0 0 2.88 6.838 1.668 1.668 0 0 1 .489 1.167z" transform="translate(-287.967 -36.166)"/><path d="m469.338 362.509h3.335v3.335h-3.335z" transform="translate(-395.957 -305.857)"/><path d="m469.338 319.842h3.335v3.335h-3.335z" transform="translate(-395.957 -269.861)"/></g></svg>