<svg width="40" height="40" viewBox="0 0 40 40" fill="none" xmlns="http://www.w3.org/2000/svg">
<circle cx="20" cy="20" r="20" fill="#196DEB"/>
<path fill-rule="evenodd" clip-rule="evenodd" d="M20.9824 28.3536C25.3721 27.9638 28.8137 24.2766 28.8137 19.7855C28.8137 15.0347 24.9623 11.1834 20.2115 11.1834C15.4607 11.1834 11.6094 15.0347 11.6094 19.7855C11.6094 23.9558 14.5768 27.4329 18.5154 28.2206V22.0118H16.4481V19.5265H18.5154V17.693C18.5154 15.5656 19.7643 14.4092 21.5916 14.4092C22.4652 14.4092 23.2158 14.4731 23.4373 14.5051V16.7347H22.1699C21.1732 16.7347 20.9824 17.2203 20.9824 17.9422V19.5265H23.3512L23.0436 22.0118H20.9824V28.3536Z" fill="white"/>
</svg>
