<svg width="40" height="40" viewBox="0 0 40 40" fill="none" xmlns="http://www.w3.org/2000/svg">
<circle cx="20" cy="20" r="20" fill="url(#paint0_linear_1_563)"/>
<path d="M17.3446 19.7855C17.3446 18.2019 18.628 16.9179 20.2115 16.9179C21.7951 16.9179 23.0791 18.2019 23.0791 19.7855C23.0791 21.3691 21.7951 22.6531 20.2115 22.6531C18.628 22.6531 17.3446 21.3691 17.3446 19.7855ZM15.7944 19.7855C15.7944 22.2251 17.7719 24.2026 20.2115 24.2026C22.6511 24.2026 24.6286 22.2251 24.6286 19.7855C24.6286 17.3459 22.6511 15.3684 20.2115 15.3684C17.7719 15.3684 15.7944 17.3459 15.7944 19.7855ZM23.7712 15.1933C23.7712 15.7631 24.2333 16.2258 24.8038 16.2258C25.3735 16.2258 25.8363 15.7631 25.8363 15.1933C25.8363 14.6235 25.3742 14.1614 24.8038 14.1614C24.2333 14.1614 23.7712 14.6235 23.7712 15.1933ZM16.7359 26.7874C15.8972 26.7492 15.4414 26.6096 15.1385 26.4914C14.7369 26.3351 14.4506 26.1489 14.149 25.848C13.8482 25.5471 13.6612 25.2609 13.5056 24.8592C13.3875 24.5563 13.2478 24.1005 13.2096 23.2618C13.1679 22.355 13.1596 22.0826 13.1596 19.7855C13.1596 17.4883 13.1686 17.2167 13.2096 16.3092C13.2478 15.4705 13.3882 15.0154 13.5056 14.7118C13.6619 14.3101 13.8482 14.0239 14.149 13.7223C14.4499 13.4214 14.7362 13.2345 15.1385 13.0789C15.4414 12.9608 15.8972 12.8211 16.7359 12.7829C17.6427 12.7412 17.9151 12.7328 20.2115 12.7328C22.5086 12.7328 22.7804 12.7419 23.6878 12.7829C24.5265 12.8211 24.9816 12.9614 25.2852 13.0789C25.6869 13.2345 25.9732 13.4214 26.2748 13.7223C26.5756 14.0232 26.7618 14.3101 26.9181 14.7118C27.0363 15.0147 27.1759 15.4705 27.2142 16.3092C27.2558 17.2167 27.2642 17.4883 27.2642 19.7855C27.2642 22.0819 27.2558 22.3544 27.2142 23.2618C27.1759 24.1005 27.0356 24.5563 26.9181 24.8592C26.7618 25.2609 26.5756 25.5471 26.2748 25.848C25.9738 26.1489 25.6869 26.3351 25.2852 26.4914C24.9823 26.6096 24.5265 26.7492 23.6878 26.7874C22.7811 26.8291 22.5086 26.8375 20.2115 26.8375C17.9151 26.8375 17.6427 26.8291 16.7359 26.7874ZM16.665 11.2355C15.7492 11.2772 15.1239 11.4224 14.577 11.635C14.0114 11.8546 13.532 12.1492 13.0533 12.6272C12.5752 13.1053 12.2806 13.5847 12.061 14.151C11.8484 14.6979 11.7032 15.3232 11.6615 16.239C11.6191 17.1562 11.6094 17.4494 11.6094 19.7855C11.6094 22.1216 11.6191 22.4147 11.6615 23.332C11.7032 24.2478 11.8484 24.8732 12.061 25.42C12.2806 25.9856 12.5745 26.4658 13.0533 26.9438C13.5313 27.4218 14.0108 27.7157 14.577 27.936C15.1246 28.1486 15.7492 28.2939 16.665 28.3355C17.5829 28.3772 17.8755 28.3876 20.2115 28.3876C22.5483 28.3876 22.8408 28.3779 23.758 28.3355C24.6738 28.2939 25.2992 28.1486 25.846 27.936C26.4116 27.7157 26.891 27.4218 27.3698 26.9438C27.8478 26.4658 28.1418 25.9856 28.3621 25.42C28.5746 24.8732 28.7206 24.2478 28.7615 23.332C28.8033 22.4141 28.813 22.1216 28.813 19.7855C28.813 17.4494 28.8033 17.1562 28.7615 16.239C28.7199 15.3232 28.5746 14.6979 28.3621 14.151C28.1418 13.5854 27.8478 13.106 27.3698 12.6272C26.8918 12.1492 26.4116 11.8546 25.8467 11.635C25.2992 11.4224 24.6738 11.2765 23.7587 11.2355C22.8415 11.1938 22.5483 11.1833 20.2122 11.1833C17.8755 11.1833 17.5829 11.1931 16.665 11.2355Z" fill="white"/>
<defs>
<linearGradient id="paint0_linear_1_563" x1="5.0002" y1="4" x2="36" y2="40.0012" gradientUnits="userSpaceOnUse">
<stop stop-color="#C400A0"/>
<stop offset="0.515625" stop-color="#F33E09"/>
<stop offset="1" stop-color="#FDB219"/>
</linearGradient>
</defs>
</svg>
