<svg width="40" height="40" viewBox="0 0 40 40" fill="none" xmlns="http://www.w3.org/2000/svg">
<circle cx="20" cy="20" r="20" fill="#0084CE"/>
<path d="M26.2332 11.1834H14.19C12.4696 11.1834 11.6094 12.0436 11.6094 13.7641L11.6099 25.807C11.6099 27.5275 12.4698 28.3877 14.1902 28.3877H26.2332C27.9536 28.3877 28.8138 27.5275 28.8138 25.807V13.7641C28.8138 12.0436 27.9536 11.1834 26.2332 11.1834ZM17.3443 24.8035H15.1938V16.9182H17.3443V24.8035ZM16.269 16.0092C15.5766 16.0092 15.0146 15.4429 15.0146 14.7447C15.0146 14.0465 15.5766 13.4802 16.269 13.4802C16.9615 13.4802 17.5235 14.0465 17.5235 14.7447C17.5235 15.4429 16.9622 16.0092 16.269 16.0092ZM25.9465 24.8035H23.796V20.7863C23.796 18.372 20.9285 18.5547 20.9285 20.7863V24.8035H18.778V16.9182H20.9285V18.1834C21.9293 16.3296 25.9465 16.1927 25.9465 19.9584V24.8035Z" fill="white"/>
</svg>
