<svg width="16" height="22" viewBox="0 0 16 22" fill="none" xmlns="http://www.w3.org/2000/svg">
<path fill-rule="evenodd" clip-rule="evenodd" d="M8 0C3.58756 0 0 3.61956 0 8.08415C0 9.59645 0.666074 11.4726 1.63556 13.344C3.77007 17.4649 7.32563 21.6154 7.32563 21.6154C7.49393 21.8121 7.74044 21.9259 8 21.9259C8.25956 21.9259 8.50607 21.8121 8.67437 21.6154C8.67437 21.6154 12.2299 17.4649 14.3644 13.344C15.3339 11.4726 16 9.59645 16 8.08415C16 3.61956 12.4124 0 8 0ZM8 4.74074C6.20089 4.74074 4.74074 6.20089 4.74074 8C4.74074 9.79911 6.20089 11.2593 8 11.2593C9.79911 11.2593 11.2593 9.79911 11.2593 8C11.2593 6.20089 9.79911 4.74074 8 4.74074Z" fill="white"/>
</svg>
