<svg width="30" height="30" viewBox="0 0 30 30" fill="none" xmlns="http://www.w3.org/2000/svg">
<g clip-path="url(#clip0_525_1199)">
<path d="M0.0948541 15.2277C0.179045 10.836 1.81808 7.14099 5.10333 4.21078C7.33887 2.21552 9.98103 1.07102 12.9456 0.678769C20.0141 -0.256175 26.796 4.18929 28.8434 11.0903C31.0198 18.4248 27.1471 26.2357 19.9908 28.951C19.3889 29.1802 18.8032 28.9456 18.59 28.3886C18.3769 27.8351 18.6438 27.2674 19.2564 27.0291C21.7911 26.0423 23.817 24.4231 25.3146 22.1538C29.9057 15.1955 26.5506 5.70812 18.6061 3.16837C11.389 0.861459 3.7079 5.40543 2.31607 12.8026C1.0317 19.6302 5.34694 26.1229 12.1431 27.5898C12.9492 27.7635 13.7643 27.8548 14.59 27.8548C14.8265 27.8548 15.0594 27.8835 15.2672 28.0107C15.6577 28.2507 15.8493 28.7146 15.7329 29.1408C15.6039 29.6155 15.2242 29.9074 14.7172 29.9056C12.1216 29.8985 9.68368 29.268 7.45172 27.9498C3.58968 25.6697 1.22337 22.3061 0.340262 17.9072C0.162923 17.026 0.0912715 16.1304 0.0948541 15.2277Z" fill="#06093D"/>
<path d="M13.7158 12.4787C13.7158 11.6028 13.7158 10.727 13.7158 9.85116C13.7158 9.18846 14.1278 8.73711 14.7261 8.73174C15.3477 8.72636 15.7651 9.17592 15.7669 9.85474C15.7669 11.404 15.7704 12.9515 15.7633 14.5008C15.7633 14.7104 15.8242 14.859 15.9729 15.0041C16.7127 15.7295 17.4417 16.4656 18.1726 17.1982C18.4896 17.5152 18.5846 17.9003 18.4305 18.314C18.2908 18.6901 17.9934 18.914 17.5904 18.9713C17.2733 19.0161 16.9939 18.9033 16.7736 18.6866C15.8385 17.7624 14.9124 16.8328 13.9863 15.9014C13.7875 15.7008 13.7158 15.4501 13.7158 15.1707C13.7176 14.2733 13.7158 13.376 13.7158 12.4787Z" fill="#E78F00"/>
<path d="M25.2607 16.238C25.0977 16.2255 24.8863 16.2613 24.6767 16.1932C24.177 16.0284 23.8939 15.5807 23.9656 15.0541C24.0301 14.5812 24.4331 14.2141 24.9293 14.1926C25.1944 14.1818 25.4631 14.18 25.7282 14.1926C26.2764 14.2177 26.7134 14.678 26.7117 15.2153C26.7117 15.7562 26.2764 16.2075 25.7264 16.238C25.5885 16.2452 25.4488 16.238 25.2625 16.238H25.2607Z" fill="#06093D"/>
<path d="M15.767 4.67111C15.7562 4.85022 15.7921 5.0741 15.7133 5.29441C15.5413 5.778 15.0935 6.06099 14.5883 5.99114C14.1244 5.92666 13.7428 5.50934 13.7195 5.02395C13.707 4.76783 13.7106 4.5117 13.7195 4.25558C13.7392 3.68243 14.196 3.24004 14.7513 3.24541C15.2923 3.25257 15.7401 3.6896 15.7652 4.24304C15.7706 4.37021 15.7652 4.49917 15.7652 4.67111H15.767Z" fill="#06093D"/>
<path d="M4.13971 16.2382C4.01253 16.2382 3.88355 16.2435 3.75637 16.2382C3.20824 16.2077 2.77295 15.751 2.77295 15.2137C2.77295 14.671 3.20465 14.2178 3.75637 14.1928C4.02148 14.1802 4.29018 14.1802 4.55529 14.1928C5.1088 14.2178 5.53155 14.6656 5.53155 15.2155C5.53155 15.7653 5.11059 16.2077 4.55529 16.2382C4.41736 16.2453 4.27764 16.2382 4.13971 16.2382Z" fill="#06093D"/>
<path d="M13.7175 25.7327C13.7301 25.5697 13.6924 25.3565 13.7623 25.147C13.9235 24.658 14.3534 24.3768 14.8747 24.4341C15.3476 24.4861 15.7345 24.8908 15.7614 25.378C15.7757 25.6556 15.7775 25.9333 15.7614 26.2109C15.7309 26.741 15.2706 27.1745 14.7511 27.1834C14.2263 27.1906 13.7498 26.7392 13.7193 26.1983C13.7104 26.0604 13.7193 25.9207 13.7193 25.7327H13.7175Z" fill="#06093D"/>
</g>
<defs>
<clipPath id="clip0_525_1199">
<rect width="29.3522" height="29.3522" fill="white" transform="translate(0.0947266 0.55542)"/>
</clipPath>
</defs>
</svg>
