<svg width="16" height="18" viewBox="0 0 16 18" fill="none" xmlns="http://www.w3.org/2000/svg">
<path d="M14.208 11.9487C13.1709 11.0617 12.1184 10.5244 11.094 11.4101L10.4824 11.9454C10.0348 12.334 9.20274 14.1495 5.98562 10.4487C2.76917 6.75257 4.68323 6.17708 5.13143 5.79186L5.74645 5.25589C6.76545 4.3682 6.38089 3.25072 5.64595 2.10041L5.20244 1.40365C4.46415 0.25602 3.66021 -0.497679 2.63853 0.388671L2.08648 0.871038C1.63494 1.19999 0.372741 2.26923 0.0665717 4.30054C-0.301903 6.73783 0.860468 9.52886 3.52354 12.5912C6.18326 15.6549 8.78737 17.1938 11.2541 17.167C13.3042 17.1449 14.5423 16.0448 14.9295 15.6449L15.4836 15.1618C16.5026 14.2762 15.8695 13.3744 14.8317 12.4854L14.208 11.9487Z" fill="white"/>
</svg>
