<svg height="80" viewBox="0 0 80 80" width="80" xmlns="http://www.w3.org/2000/svg"><g fill="#198cca"><path d="m67.334 89h-56.667v-15a10.765 10.765 0 0 1 5-8.333c4.167-2.767 23.333-10 23.333-10v-3.333c-5.816-2.067-10-10.134-10-16.667v-10c0-6.667 6.717-15 15-15h3.333c8.283 0 15 8.333 15 15v10c0 6.533-4.183 14.6-10 16.667v3.333s19.167 7.233 23.333 10a10.765 10.765 0 0 1 5 8.333v15z" opacity=".1" transform="translate(-9 -9)"/><path d="m3.333 91.178h-3.333v-15a12.4 12.4 0 0 1 5.742-9.72c3.733-2.488 18.425-8.173 22.592-9.763v-1.072c-6.208-2.945-10-11.278-10-17.778v-10c0-5.412 3.855-11.552 9.167-14.6l1.667 2.892c-4.278 2.448-7.5 7.482-7.5 11.7v10c0 5.652 3.65 13.24 8.89 15.1a1.666 1.666 0 0 1 1.11 1.572v3.333a1.667 1.667 0 0 1 -1.078 1.56c-6.57 2.475-19.833 7.717-23 9.833a9.071 9.071 0 0 0 -4.255 6.94z" transform="translate(0 -11.178)"/><path d="m298.334 314h-3.334v-15a9.08 9.08 0 0 0 -4.258-6.947c-3.282-2.188-17.713-7.833-23-9.833a1.667 1.667 0 0 1 -1.075-1.553v-3.333h3.333v2.183c4.167 1.59 18.858 7.275 22.592 9.763a12.4 12.4 0 0 1 5.742 9.72z" transform="translate(-225 -234.001)"/><path d="m85.333 416h3.333v15h-3.333z" transform="translate(-72 -351)"/><path d="m362.667 416h3.333v15h-3.333z" transform="translate(-306 -351)"/><path d="m224 416h3.333v3.333h-3.333z" transform="translate(-189 -351)"/><path d="m266.667 416h3.333v3.333h-3.333z" transform="translate(-225 -351)"/><path d="m181.333 416h3.333v3.333h-3.333z" transform="translate(-153 -351)"/></g><path d="m267.333 14v26.667a3.343 3.343 0 0 1 -3.333 3.333h-20l-6.667 6.667v-6.667h-10a3.343 3.343 0 0 1 -3.333-3.333v-26.667a3.343 3.343 0 0 1 3.333-3.333h36.667a3.343 3.343 0 0 1 3.333 3.333z" fill="#fff" transform="translate(-189 -9)"/><g fill="#198cca"><path d="m228.333 43.333a1.667 1.667 0 0 1 -1.667-1.667v-5h-8.333a5 5 0 0 1 -5-5v-26.666a5 5 0 0 1 5-5h36.667a5 5 0 0 1 5 5v26.667a5 5 0 0 1 -5 5h-19.31l-6.178 6.178a1.666 1.666 0 0 1 -1.179.488zm-10-40a1.667 1.667 0 0 0 -1.667 1.667v26.667a1.667 1.667 0 0 0 1.667 1.667h10a1.667 1.667 0 0 1 1.667 1.666v2.643l3.822-3.822a1.666 1.666 0 0 1 1.178-.488h20a1.667 1.667 0 0 0 1.667-1.667v-26.666a1.667 1.667 0 0 0 -1.667-1.667z" transform="translate(-180)"/><path d="m297.3 75.971a1.667 1.667 0 0 1 -1.178-.488l-5-5 2.357-2.357 3.822 3.822 15.488-15.488 2.357 2.357-16.663 16.665a1.666 1.666 0 0 1 -1.183.489z" transform="translate(-245.638 -47.637)"/><path d="m256 42.667h3.333v3.333h-3.333z" transform="translate(-216 -36)"/><path d="m448 170.667h3.333v3.333h-3.333z" transform="translate(-378 -144)"/></g></svg>