<svg width="160" height="72" viewBox="0 0 160 72" fill="none" xmlns="http://www.w3.org/2000/svg">
<path d="M0 25.8188H157.679" stroke="#FF9F29"/>
<path fill-rule="evenodd" clip-rule="evenodd" d="M12.1607 0.124558C8.5451 0.489395 5.65099 1.76788 3.44606 3.97401C2.15168 5.26931 1.32394 6.57393 0.739108 8.24072C0.101802 10.0567 -0.0657383 11.3099 0.0213766 13.6089C0.13971 16.7299 0.948124 18.9773 2.73205 21.1444C6.23195 25.396 13.3786 26.9899 19.6313 24.9135C22.9723 23.804 25.7955 21.2428 27.0264 18.2047C28.1382 15.4603 28.3347 11.9524 27.537 9.08724C27.1658 7.75351 25.9551 5.50895 25.0446 4.46601C22.9339 2.04865 19.5066 0.467211 15.6185 0.116786C13.8756 -0.04034 13.7922 -0.0400575 12.1607 0.124558ZM74.1626 12.973V25.2661H78.6224H83.0822V12.973V0.679868H78.6224H74.1626V12.973ZM135.447 12.9377L135.485 25.1955L139.682 25.2331L143.879 25.2705L143.919 21.4209L143.959 17.5713L146.618 21.4187L149.277 25.2661H153.939C156.504 25.2661 158.602 25.2365 158.602 25.2003C158.602 25.1641 156.99 22.9915 155.019 20.3723C153.049 17.7532 151.407 15.5363 151.371 15.4459C151.335 15.3556 152.813 13.4914 154.656 11.3035C156.499 9.11551 158.007 7.29174 158.007 7.25048C158.007 7.20936 155.95 7.19241 153.436 7.21304L148.864 7.25034L146.411 10.7122L143.959 14.1741L143.92 7.42697L143.881 0.679868H139.645H135.409L135.447 12.9377ZM59.223 4.55857L58.2157 7.17079L56.5634 7.21063L54.9112 7.25034L54.8703 9.54647L54.8294 11.8426H56.3866H57.9437L57.9887 16.4702C58.0327 20.9809 58.043 21.1193 58.3922 21.9456C59.0766 23.5659 60.9661 24.9773 63.0298 25.41C64.996 25.8223 68.9636 25.3208 70.6725 24.4441L71.4124 24.0644L71.4536 21.9685L71.4948 19.8726L71.0109 19.9736C69.3263 20.3253 67.7824 19.8351 67.2128 18.7679C66.8957 18.1737 66.8783 17.978 66.8783 14.9919V11.8426H69.1825H71.4868V9.51115V7.17969H69.186H66.885L66.8446 4.60096L66.804 2.02222L63.5172 1.98421L60.2304 1.9462L59.223 4.55857ZM15.1502 5.94331C16.0788 6.38841 16.5875 7.3217 16.7996 8.96954C17 10.5274 16.8867 17.3559 16.6484 18.0765C16.2009 19.4294 15.2408 20.1793 13.9553 20.1793C12.8151 20.1793 12.2351 19.8059 11.6511 18.6957L11.2051 17.8479V12.9024V7.95684L11.6511 7.10904C12.392 5.70056 13.7204 5.258 15.1502 5.94331ZM93.4885 7.164C90.0311 7.88464 87.4954 9.63733 86.2084 12.1959C85.4217 13.7601 85.2353 14.6015 85.2534 16.5055C85.2664 17.851 85.3361 18.3249 85.6588 19.2609C86.6563 22.1527 89.1156 24.2174 92.6708 25.1475C93.6979 25.4162 94.2352 25.4586 96.6103 25.4586C98.9685 25.4586 99.53 25.4149 100.55 25.1518C102.118 24.7472 104.229 23.7415 105.176 22.9477C106.219 22.0723 107.223 20.6116 107.707 19.2609C108.065 18.2637 108.113 17.9223 108.11 16.3642C108.107 14.8281 108.054 14.4452 107.702 13.4263C107.19 11.945 106.037 10.3101 104.854 9.3892C103.837 8.59707 101.735 7.60359 100.327 7.24977C98.8271 6.87307 95.1086 6.8263 93.4885 7.164ZM119.156 7.03712C116.764 7.44533 114.755 8.35573 113.212 9.7303C111.331 11.4061 110.466 13.2302 110.327 15.8127C110.079 20.4403 112.808 23.8544 117.794 25.1538C118.823 25.4217 119.356 25.4633 121.734 25.4604C124.89 25.4565 125.94 25.2605 128.044 24.2835C131.451 22.7014 133.191 20.0236 133.191 16.3642C133.191 13.6496 132.386 11.7636 130.444 9.92841C129.064 8.62392 127.87 7.96687 125.817 7.3809C124.666 7.0528 124.169 6.99487 122.18 6.95757C120.913 6.93369 119.552 6.96943 119.156 7.03712ZM30.2186 7.37779C30.1746 7.48688 30.1633 10.6184 30.1933 14.3368C30.2459 20.8321 30.2606 21.1296 30.5664 21.9079C31.2006 23.5215 32.4018 24.7563 33.8323 25.265C34.8288 25.6194 36.7412 25.6468 37.8997 25.3234C39.9438 24.7527 41.879 23.2635 43.0183 21.3845L43.613 20.4039L43.6537 22.8371L43.6943 25.2704L48.1135 25.2329L52.5326 25.1955L52.5708 16.1876L52.6092 7.17969H48.1482H43.6873V12.103C43.6873 16.6805 43.6662 17.085 43.386 17.859C42.8083 19.4547 41.8845 20.3206 40.7596 20.3206C40.0722 20.3206 39.5999 19.9318 39.3726 19.1785C39.2889 18.901 39.2275 16.2614 39.2275 12.9387V7.17969H34.7631C31.0701 7.17969 30.2847 7.21388 30.2186 7.37779ZM97.6917 11.472C97.8421 11.5593 98.1119 11.8532 98.2912 12.1252C98.6047 12.6007 98.6172 12.7585 98.6172 16.2229C98.6172 19.4248 98.5875 19.8779 98.3498 20.2915C97.5775 21.6363 95.6729 21.62 94.9816 20.2628C94.702 19.7137 94.6777 19.4013 94.6777 16.3406C94.6777 12.8824 94.7552 12.3287 95.3219 11.7335C95.8624 11.1659 96.9561 11.0452 97.6917 11.472ZM122.774 11.5503C122.979 11.6884 123.28 12.0174 123.443 12.2813C123.719 12.7259 123.741 13.0151 123.741 16.2229C123.741 20.1027 123.66 20.4941 122.746 21.0235C121.817 21.5622 120.581 21.2382 120.074 20.3229C119.83 19.8825 119.801 19.4488 119.801 16.2106C119.801 12.6826 119.81 12.5788 120.139 12.1108C120.794 11.1789 121.883 10.9475 122.774 11.5503Z" fill="#D2051E"/>
<path d="M55.8623 65.6682L145.455 53.8731" stroke="#D2051E"/>
<path d="M146.37 53.7527L154.598 52.6695" stroke="#D2051E" stroke-dasharray="1 1"/>
<path fill-rule="evenodd" clip-rule="evenodd" d="M62.8571 28.518C61.1003 29.0546 59.9213 29.9562 58.6506 31.7349C57.074 33.9418 56.4039 36.7328 56.7757 39.5438C57.128 42.2064 57.724 43.5585 60.4345 47.8426C62.5452 51.1788 63.0634 52.2167 63.2228 53.4274C63.5075 55.5895 62.3277 57.9621 61.3968 57.0996C61.0624 56.7896 60.8413 54.5893 60.9906 53.0581C61.0588 52.3601 61.0615 51.7958 60.9968 51.8043C60.6394 51.8514 54.8109 53.224 54.7759 53.2693C54.617 53.475 54.6249 56.8505 54.7873 58.135C55.1884 61.308 56.5723 62.9191 59.2818 63.3674C60.7187 63.6052 63.4022 63.1488 64.7497 62.4372C66.6929 61.4114 67.9597 59.8371 68.7713 57.4395C69.7042 54.6837 69.8555 52.0698 69.2098 49.8639C68.7677 48.3542 67.7304 46.3541 65.838 43.3627C63.6459 39.8979 63.1839 38.9912 63.0355 37.8646C62.8271 36.2816 63.3392 34.4553 64.0165 34.3661C64.1497 34.3486 64.3101 34.4294 64.3733 34.5457C64.5914 34.9476 64.7116 36.4989 64.6222 37.7603L64.5324 39.0264L65.1639 38.8663C66.9162 38.4226 70.2359 37.7128 70.3065 37.767C70.3506 37.8009 70.3189 38.6268 70.236 39.6026C70.1529 40.5783 70.0995 41.4863 70.1171 41.6205C70.1447 41.8301 70.2976 41.8447 71.2076 41.7249C72.2337 41.5898 72.265 41.5955 72.2319 41.9123C72.2132 42.0919 71.9804 45.0385 71.7146 48.4601C71.2971 53.8339 71.2532 54.9244 71.3925 56.466C71.5343 58.0331 71.6051 58.356 71.9739 59.1151C72.5149 60.2288 73.1665 60.8255 74.2333 61.184C74.9599 61.4281 75.3062 61.4514 76.5169 61.3374C77.8398 61.2128 79.212 60.8619 79.5869 60.5522C79.674 60.4803 79.8282 59.4146 79.9298 58.1838L80.1146 55.9462L80.3322 56.9199C80.6158 58.1888 81.0436 59.0212 81.7283 59.6365C82.4611 60.2948 83.1201 60.4908 84.1458 60.3558C85.1607 60.2222 86.0913 59.82 86.7895 59.2132L87.3112 58.7597L87.6114 59.0593C87.7764 59.224 87.9193 59.4061 87.9286 59.464C87.9379 59.5219 89.1998 59.404 90.7326 59.2022L93.5196 58.8353L93.4538 57.0898C93.4094 55.9103 93.6074 52.5528 94.0648 46.7349C94.8183 37.1497 94.816 36.992 93.9019 35.5347C92.257 32.9125 88.6997 32.4779 85.6732 34.5295C83.3711 36.0901 81.9413 38.5793 81.6906 41.4628C81.6303 42.1554 81.5987 42.8659 81.6201 43.0419L81.6591 43.3619L84.6364 42.9313L87.6136 42.5006L87.6521 42.066C87.8417 39.9234 88.012 39.1559 88.3371 38.9793C88.4608 38.9124 88.5322 39.0078 88.5693 39.2897C88.6385 39.8149 88.4035 42.3465 88.2642 42.5782C88.2055 42.6757 87.5813 43.136 86.8771 43.6008C83.4803 45.8436 81.749 47.933 80.8117 50.9215C80.4175 52.1783 80.0922 54.3016 80.1854 55.0095C80.2607 55.5817 80.1306 55.6169 79.4482 55.2088C78.9497 54.9107 78.6849 54.8495 78.1766 54.9147L77.5346 54.9971L77.4497 54.2206C77.3795 53.5786 77.5664 50.7204 78.283 41.4784L78.3359 40.7959L79.829 40.5588L81.3223 40.3217L81.5368 37.9307C81.6548 36.6156 81.764 35.3287 81.7794 35.0706L81.8076 34.6015L80.3232 34.7969C79.5067 34.9044 78.8349 34.9623 78.8301 34.9259C78.8253 34.8893 78.9138 33.6049 79.0267 32.0718C79.1398 30.5386 79.222 29.2051 79.2093 29.1082C79.1918 28.9729 78.4921 29.0236 76.1821 29.3277L73.1775 29.7233L72.9864 32.4334C72.7288 36.0837 72.8209 35.8079 71.8332 35.886L71.0175 35.9504L70.9859 35.167C70.7983 30.5069 68.977 28.1398 65.584 28.1456C64.3715 28.1477 63.8253 28.2223 62.8571 28.518ZM108.841 25.8515C108.805 26.3092 108.704 27.6595 108.617 28.8523L108.459 31.0211L107.937 31.1342C107.539 31.2207 107.408 31.1956 107.386 31.0278C107.327 30.575 104.912 31.1595 103.699 31.9205C103.012 32.3513 102.979 32.3589 102.945 32.0973C102.91 31.8346 102.786 31.8396 99.8823 32.2219C98.2178 32.441 96.8598 32.6492 96.8645 32.6845C96.8726 32.7467 94.9334 57.6783 94.8692 58.3355L94.8374 58.6618L97.857 58.2643C100.61 57.9018 100.88 57.8442 100.919 57.6105C100.943 57.4697 101.263 53.4484 101.63 48.6745C101.997 43.9006 102.381 39.7581 102.484 39.4689C102.945 38.1672 104.277 37.4634 105.899 37.6653C106.77 37.7739 106.966 37.6845 106.908 37.2038C106.895 37.0929 107.094 37.0004 107.446 36.9541C107.832 36.9033 107.993 36.9375 107.967 37.0645C107.827 37.7425 106.995 49.959 107.014 51.0491C107.068 54.0343 108.13 55.9481 110.057 56.5304C110.76 56.7426 111.048 56.7424 112.677 56.5281C113.806 56.3794 114.692 56.1926 114.991 56.04L115.475 55.7928L115.644 53.5195C115.738 52.2693 115.831 51.1717 115.853 51.0805C115.874 50.9891 115.559 50.735 115.151 50.5154C114.517 50.1738 114.325 50.1367 113.82 50.2579L113.23 50.3993L113.147 49.768C113.082 49.272 113.874 37.4131 114.045 36.3359C114.08 36.1135 114.276 36.0549 115.544 35.8879C116.811 35.7212 117.009 35.662 117.047 35.4395C117.071 35.2986 117.179 34.1082 117.287 32.7945C117.395 31.4807 117.502 30.2906 117.525 30.1498C117.563 29.9173 117.43 29.9117 116.079 30.0896C114.982 30.234 114.586 30.2392 114.57 30.1092C114.558 30.0124 114.642 28.6964 114.756 27.1849C114.871 25.6735 114.959 24.3892 114.952 24.331C114.945 24.2728 113.582 24.4039 111.923 24.6224L108.907 25.0195L108.841 25.8515ZM150.948 25.2697C150.651 25.4084 150.217 25.6562 149.982 25.8205C149.61 26.0815 149.553 26.0921 149.528 25.9044C149.504 25.7185 149.093 25.7432 146.476 26.0877C143.457 26.4852 143.452 26.4862 143.418 26.8126C143.3 27.9126 140.774 60.5688 140.795 60.7237C140.815 60.8772 141.395 60.8379 143.822 60.5184L146.825 60.1231L147.119 56.1106C147.281 53.9036 147.444 51.8502 147.48 51.5474L147.547 50.9968L147.963 51.2168C149.854 52.2177 151.957 51.5785 153.354 49.5783C154.521 47.9061 154.59 47.5013 155.342 37.9516C155.957 30.1344 156.001 29.2449 155.812 28.2861C155.268 25.5195 153.182 24.2257 150.948 25.2697ZM149.797 31.5575C149.778 31.7371 149.533 34.8786 149.254 38.5383C148.974 42.1981 148.693 45.3596 148.628 45.5641C148.47 46.0691 148.048 46.2039 147.991 45.7675C147.926 45.2566 148.991 31.9885 149.126 31.6284C149.193 31.452 149.378 31.2904 149.539 31.2692C149.77 31.2388 149.824 31.2985 149.797 31.5575ZM117.169 40.0774C117.176 40.1355 117.086 41.4066 116.968 42.9021C116.85 44.3975 116.766 45.7135 116.781 45.8265C116.804 46.0016 117.387 45.9556 120.74 45.5142C124.362 45.0374 124.675 44.9764 124.715 44.7403C124.738 44.5994 124.839 43.3779 124.939 42.0258C125.038 40.6738 125.134 39.4206 125.152 39.2412L125.184 38.9147L121.17 39.4432C118.962 39.7339 117.162 40.0192 117.169 40.0774ZM87.7048 51.1816C87.525 53.3388 87.4069 53.6754 86.7384 53.935C86.3778 54.0751 86.3611 54.0598 86.291 53.5278C86.2061 52.8824 86.382 51.6405 86.6791 50.786C86.9527 49.9996 87.7112 48.7703 87.8044 48.9621C87.8445 49.0446 87.7997 50.0435 87.7048 51.1816Z" fill="#FF9F29"/>
<path fill-rule="evenodd" clip-rule="evenodd" d="M127.201 22.9733C127.214 23.0665 126.076 37.4697 125.638 42.7856C125.231 47.7317 125.301 49.3037 125.995 50.8345C126.823 52.66 128.021 53.6522 129.741 53.9368C131.107 54.163 133.472 53.7737 134.682 53.1236C136.892 51.9357 138.621 49.4576 139.263 46.5602C139.387 46.0016 139.954 39.5548 140.524 32.2339C141.094 24.913 141.363 21.5332 141.381 21.3521L141.415 21.0228L138.215 21.4826L135.015 21.9424L134.203 32.2725C133.64 39.4711 133.138 45.6503 133.087 46.0041C132.915 47.2073 132.056 48.0495 131.761 47.3043C131.693 47.131 131.76 45.4629 131.91 43.5974C132.683 33.9904 133.572 22.418 133.551 22.2538C133.531 22.1038 132.899 22.1493 130.359 22.4837C128.617 22.713 127.196 22.9333 127.201 22.9733Z" fill="#FF9F29"/>
</svg>
