<svg width="40" height="40" viewBox="0 0 40 40" fill="none" xmlns="http://www.w3.org/2000/svg">
<circle cx="20" cy="20" r="20" fill="#03B3FF"/>
<path d="M29.2473 15.8223C28.6143 16.0989 27.934 16.2852 27.22 16.3692C27.949 15.9394 28.5089 15.2584 28.772 14.4469C28.0903 14.8449 27.3348 15.1342 26.5305 15.2902C25.8874 14.6149 24.9692 14.1929 23.9541 14.1929C21.6752 14.1929 20.0006 16.2859 20.5154 18.4587C17.5828 18.314 14.982 16.9309 13.2408 14.8287C12.3161 16.3903 12.7612 18.4333 14.3326 19.4678C13.7548 19.4494 13.21 19.2935 12.7347 19.0331C12.696 20.6427 13.8681 22.1487 15.5655 22.4838C15.0688 22.6165 14.5247 22.6475 13.9713 22.5431C14.42 23.9234 15.7233 24.9276 17.2688 24.9558C15.7849 26.1011 13.9154 26.6127 12.043 26.3954C13.605 27.3812 15.4609 27.9563 17.4537 27.9563C24.0071 27.9563 27.7096 22.5078 27.486 17.621C28.1756 17.1306 28.7742 16.5188 29.2473 15.8223Z" fill="white"/>
</svg>
