<svg width="39" height="39" viewBox="0 0 39 39" fill="none" xmlns="http://www.w3.org/2000/svg">
<rect x="0.695312" y="0.5" width="37.9297" height="37.9297" rx="4" fill="#D9D9D9"/>
<g clip-path="url(#clip0_876_2281)">
<path d="M19.9322 9.7117C22.7307 9.7117 25.5292 9.7117 28.3282 9.7117C28.5105 9.7117 28.6934 9.7105 28.8709 9.76217C29.3793 9.90938 29.7232 10.351 29.7275 10.8827C29.733 11.677 29.7293 12.4713 29.7293 13.2662C29.7293 17.3134 29.7293 21.36 29.7293 25.4072C29.7293 26.3066 29.2708 26.7561 28.352 26.7579C28.0856 26.7579 27.8192 26.7669 27.5539 26.7549C27.3893 26.747 27.3509 26.8071 27.3533 26.9603C27.3619 27.4698 27.3582 27.9793 27.3564 28.4889C27.3533 29.2147 26.8693 29.7085 26.1334 29.7151C25.1676 29.7242 24.2019 29.7224 23.2361 29.7139C23.0557 29.7121 23.0026 29.7626 23.0069 29.9399C23.0191 30.3965 23.013 30.8543 23.0099 31.311C23.0081 31.6072 22.9118 31.7087 22.6155 31.7093C20.8132 31.7117 19.011 31.7117 17.2081 31.7093C16.9252 31.7093 16.8246 31.6048 16.8222 31.326C16.8192 30.8766 16.8118 30.4265 16.8259 29.9771C16.832 29.7776 16.7832 29.7121 16.5661 29.7127C14.0792 29.7212 11.5923 29.7181 9.10598 29.7175C8.94685 29.7175 8.78711 29.7242 8.62982 29.6827C8.08719 29.5397 7.73296 29.0915 7.73174 28.5243C7.7287 27.0631 7.73052 25.6013 7.73052 24.14C7.73052 20.7604 7.73052 17.3801 7.73052 14.0004C7.73052 13.1388 8.20669 12.6732 9.08708 12.672C9.33827 12.672 9.59068 12.6552 9.83944 12.6768C10.0705 12.6972 10.115 12.6107 10.1077 12.4016C10.0918 11.9149 10.101 11.4277 10.1028 10.9404C10.1065 10.2362 10.5729 9.75256 11.285 9.71591C11.4441 9.7075 11.6045 9.7123 11.7642 9.7123C14.4865 9.7123 17.2094 9.7123 19.9316 9.7123L19.9322 9.7117ZM22.7673 26.1324C22.8612 26.1919 22.9386 26.1708 23.0111 26.1708C24.7981 26.172 26.5851 26.1721 28.3721 26.1714C28.9355 26.1714 29.1349 25.9714 29.1349 25.409C29.1349 21.7217 29.1349 18.035 29.1343 14.3477C29.1343 14.004 29.1867 14.0461 28.8379 14.0461C25.2182 14.0449 21.5985 14.0437 17.9788 14.0479C17.7166 14.0479 17.5124 13.9716 17.3331 13.7805C16.9722 13.3954 16.5972 13.0229 16.2278 12.645C16.165 12.5807 16.1095 12.5194 16.0009 12.52C15.134 12.5242 14.267 12.5248 13.4 12.52C13.2708 12.5194 13.25 12.5729 13.2525 12.681C13.258 12.9207 13.2549 13.1605 13.2537 13.4002C13.2519 13.8412 13.0476 14.0431 12.5971 14.0443C12.0416 14.0461 11.4868 14.0527 10.932 14.0401C10.7442 14.0359 10.6918 14.0827 10.6918 14.2726C10.6979 18.0044 10.696 21.7367 10.6967 25.4685C10.6967 25.9515 10.9137 26.169 11.4051 26.169C13.2226 26.1708 15.0401 26.1702 16.8576 26.169C16.9185 26.169 16.9862 26.1841 17.0636 26.13C17.013 26.1048 16.9886 26.0891 16.9618 26.0795C16.371 25.8596 16.2521 25.5478 16.5552 25.0094C17.5179 23.3013 18.4824 21.5943 19.4426 19.8856C19.5518 19.6921 19.6713 19.5323 19.9237 19.5341C20.1676 19.5359 20.2791 19.6957 20.3828 19.8808C21.343 21.5901 22.3063 23.2977 23.269 25.0058C23.5757 25.5508 23.4587 25.8638 22.8697 26.0771C22.8423 26.0873 22.8173 26.1036 22.7667 26.13L22.7673 26.1324ZM8.32436 21.1954C8.32436 23.5855 8.32436 25.9756 8.32436 28.3657C8.32436 28.9407 8.51824 29.1317 9.10232 29.1317C11.5807 29.1317 14.0597 29.1317 16.5381 29.1317C16.5759 29.1317 16.6143 29.1281 16.6521 29.1317C16.7777 29.1462 16.8301 29.1005 16.8234 28.9695C16.8137 28.7905 16.821 28.6102 16.821 28.43C16.821 27.6477 16.9374 27.5299 17.7361 27.4945C17.7922 27.4921 17.8788 27.5203 17.8916 27.4422C17.9239 27.2367 17.866 27.0415 17.7886 26.8528C17.727 26.7038 17.5922 26.7651 17.4898 26.7645C15.4827 26.7609 13.4756 26.7627 11.4679 26.7615C10.5686 26.7615 10.1028 26.3024 10.1028 25.421C10.1028 21.5096 10.1028 17.5988 10.1028 13.6874C10.1028 13.6351 10.0955 13.5817 10.104 13.53C10.1382 13.3209 10.0693 13.2338 9.83822 13.2536C9.58946 13.2752 9.33705 13.2578 9.08586 13.2584C8.53348 13.2596 8.32375 13.4633 8.32375 14.001C8.32375 16.3989 8.32375 18.7963 8.32375 21.1942L8.32436 21.1954ZM19.92 10.3023C17.1216 10.3023 14.3231 10.3023 11.5246 10.3023C11.4332 10.3023 11.3417 10.3005 11.2509 10.3083C10.9357 10.3366 10.7046 10.5547 10.7009 10.8629C10.6918 11.6794 10.6979 12.4966 10.6954 13.3131C10.6954 13.4122 10.7162 13.4639 10.8332 13.4627C11.396 13.4585 11.9587 13.4585 12.5215 13.4627C12.6324 13.4633 12.6666 13.4218 12.6641 13.3173C12.6592 13.0703 12.6617 12.8228 12.6629 12.5753C12.6653 12.1427 12.8678 11.9384 13.3012 11.9372C14.214 11.9354 15.126 11.9396 16.0387 11.9342C16.2601 11.933 16.4332 12.0051 16.5844 12.1625C16.9606 12.5542 17.3459 12.9376 17.7215 13.3305C17.8129 13.426 17.9062 13.4633 18.0391 13.4633C21.6662 13.4603 25.2938 13.4597 28.9209 13.4645C29.0873 13.4645 29.1416 13.4272 29.1391 13.2548C29.1288 12.5356 29.1349 11.8158 29.1349 11.0966C29.1349 10.4862 28.9501 10.3017 28.338 10.3017C25.5322 10.3017 22.7258 10.3017 19.92 10.3017V10.3023ZM19.6158 20.8505C19.553 20.925 19.5353 20.94 19.5249 20.9586C18.7067 22.4109 17.8916 23.8643 17.0673 25.3129C16.9783 25.4691 17.0691 25.4769 17.1709 25.5183C17.9843 25.85 18.4373 26.4466 18.4952 27.3154C18.5056 27.4674 18.5507 27.4999 18.6927 27.4993C19.506 27.4939 20.3194 27.4927 21.1327 27.5005C21.2924 27.5023 21.3266 27.4542 21.3388 27.301C21.4052 26.4532 21.8412 25.8578 22.6459 25.5448C22.8057 25.4829 22.8392 25.4517 22.7496 25.293C21.9485 23.8829 21.1571 22.4673 20.3608 21.0554C20.3316 21.0031 20.3224 20.9256 20.2133 20.9058C20.2133 21.3089 20.2182 21.7031 20.2108 22.0972C20.2084 22.2312 20.2444 22.3081 20.3724 22.3784C20.7583 22.5899 20.9248 23.0159 20.8035 23.4154C20.6815 23.815 20.3102 24.0872 19.9005 24.0758C19.4609 24.0637 19.1317 23.8072 19.022 23.392C18.9153 22.9876 19.0854 22.5893 19.4561 22.3718C19.5237 22.3321 19.6176 22.3201 19.617 22.2078C19.6146 21.7764 19.6158 21.345 19.6158 20.8505ZM19.917 31.1199C20.6773 31.1199 21.4369 31.1157 22.1972 31.1229C22.363 31.1247 22.421 31.0826 22.4191 30.9102C22.4106 30.0342 22.41 29.1576 22.4191 28.281C22.421 28.1007 22.3515 28.0749 22.1929 28.0755C20.6803 28.0803 19.1677 28.0809 17.6556 28.0755C17.491 28.0749 17.4343 28.1109 17.4349 28.284C17.4368 29.1528 17.4301 30.0216 17.4118 30.8904C17.4075 31.0862 17.4776 31.1253 17.6587 31.1235C18.411 31.1151 19.1634 31.1199 19.9158 31.1199H19.917ZM24.4207 26.7573C23.7294 26.7573 23.0374 26.7711 22.346 26.75C22.0942 26.7422 22.0161 26.851 21.9692 27.0565C21.8729 27.4819 21.8747 27.4885 22.3155 27.4939C22.7667 27.4999 23.0014 27.7276 23.0087 28.1734C23.013 28.4204 23.0185 28.6679 23.0063 28.9148C22.9983 29.0747 23.0355 29.1353 23.2154 29.1335C24.1805 29.1239 25.1457 29.1317 26.1108 29.1281C26.5266 29.1263 26.7577 28.895 26.7601 28.4852C26.7632 27.9836 26.7534 27.4813 26.765 26.9802C26.7693 26.8059 26.7223 26.7506 26.54 26.7531C25.8334 26.7633 25.1268 26.7573 24.4195 26.7573H24.4207ZM19.9206 23.4869C20.1023 23.4815 20.2444 23.3313 20.2407 23.1493C20.2377 22.969 20.0828 22.8224 19.9036 22.8302C19.7231 22.838 19.5841 22.9876 19.5877 23.1715C19.5914 23.3674 19.7237 23.4929 19.92 23.4869H19.9206Z" fill="#707070"/>
<path d="M17.2447 17.8002H15.3369C15.2302 17.8002 15.1236 17.8068 15.0175 17.799C14.7016 17.7761 14.4572 17.7972 14.2645 18.1426C14.0304 18.5608 13.3853 18.678 12.9147 18.4887C12.4111 18.2862 12.1282 17.7894 12.2007 17.2348C12.2659 16.7391 12.6671 16.3594 13.2091 16.2801C13.7079 16.2074 14.2377 16.4717 14.4096 16.941C14.4992 17.1867 14.6254 17.2192 14.8535 17.2174C16.0472 17.2071 17.2416 17.2083 18.4354 17.2168C18.6287 17.218 18.6884 17.1603 18.6719 16.9758C18.6591 16.8286 18.6512 16.6754 18.7152 16.533C18.8152 16.3119 18.9951 16.1953 19.2341 16.1905C19.6828 16.1815 20.1315 16.1761 20.5797 16.1905C20.9479 16.2026 21.1473 16.4309 21.1564 16.8076C21.1629 17.0776 21.3052 17.2126 21.5832 17.2126C22.7544 17.2126 23.9256 17.2102 25.0968 17.2156C25.2523 17.2162 25.3297 17.1831 25.3864 17.0197C25.5657 16.5024 26.0882 16.2056 26.6278 16.2825C27.2186 16.3672 27.6197 16.7745 27.6655 17.3363C27.71 17.8795 27.3765 18.3607 26.8466 18.5176C26.2949 18.6816 25.7413 18.4611 25.4639 17.966C25.4175 17.8831 25.395 17.796 25.2596 17.7972C24.3786 17.8038 23.4982 17.8008 22.6142 17.8008C22.6081 17.8981 22.688 17.8969 22.7325 17.9221C24.1799 18.726 25.1413 19.9115 25.6011 21.4851C25.6449 21.6347 25.7004 21.702 25.862 21.6851C25.9742 21.6737 26.0906 21.6815 26.2034 21.6935C26.4997 21.726 26.7076 21.9357 26.7137 22.2313C26.7235 22.6885 26.7247 23.1458 26.7131 23.6024C26.7052 23.9016 26.476 24.1257 26.1705 24.1323C25.7071 24.1431 25.2426 24.1425 24.7792 24.1323C24.4853 24.1263 24.264 23.9388 24.2402 23.6511C24.2 23.1584 24.1988 22.6621 24.2402 22.1694C24.2664 21.8618 24.4853 21.699 24.8487 21.6851C25.0042 21.6791 25.0444 21.6533 24.9895 21.4935C24.3823 19.7198 23.18 18.5518 21.3625 17.999C21.2296 17.9588 21.1808 17.966 21.1607 18.1186C21.1162 18.4575 20.904 18.6365 20.5608 18.6407C20.1352 18.6461 19.709 18.6461 19.2828 18.6407C18.9414 18.6365 18.7134 18.4437 18.6872 18.115C18.6738 17.9444 18.6073 17.9654 18.4866 17.9996C17.0916 18.401 16.0381 19.2295 15.3089 20.4636C15.1132 20.7947 14.9681 21.148 14.851 21.5133C14.8114 21.6371 14.8297 21.6779 14.9748 21.6851C15.4741 21.7092 15.6461 21.896 15.6485 22.3899C15.6503 22.757 15.6534 23.1247 15.6473 23.4918C15.6406 23.9304 15.429 24.1341 14.9827 24.1371C14.595 24.1395 14.2072 24.1395 13.8188 24.1371C13.3737 24.1341 13.1585 23.925 13.1561 23.4924C13.1537 23.1025 13.1537 22.7132 13.1561 22.3232C13.1591 21.902 13.3695 21.6959 13.8024 21.6815C14.1804 21.6695 14.1791 21.6689 14.295 21.312C14.7833 19.8075 15.7357 18.6792 17.1349 17.9137C17.1739 17.8927 17.2117 17.8699 17.2501 17.8482C17.2477 17.832 17.2453 17.8158 17.2434 17.7996L17.2447 17.8002ZM19.9066 18.0621C20.0889 18.0621 20.2712 18.0579 20.4528 18.0639C20.562 18.0675 20.5986 18.0261 20.5943 17.9197C20.5815 17.5839 20.5736 17.2474 20.5705 16.9115C20.5693 16.7998 20.5163 16.7727 20.4157 16.7739C20.0815 16.777 19.7474 16.7788 19.4139 16.7733C19.2883 16.7715 19.2335 16.81 19.2438 16.941C19.2572 17.12 19.2542 17.2997 19.2646 17.4787C19.2755 17.6704 19.1768 17.9221 19.3115 18.0375C19.4511 18.1571 19.7041 18.0543 19.9072 18.0633L19.9066 18.0621ZM25.4578 23.5729C25.4578 23.5663 25.4578 23.5603 25.4578 23.5537C25.6248 23.5537 25.7919 23.5477 25.9583 23.5555C26.0815 23.5609 26.1345 23.5285 26.1297 23.3945C26.1181 23.0731 26.1156 22.7516 26.1217 22.4302C26.1242 22.2944 26.0632 22.2685 25.9443 22.2703C25.6181 22.2751 25.2913 22.2758 24.9651 22.2703C24.8426 22.2679 24.7877 22.2968 24.7926 22.4314C24.8036 22.76 24.806 23.0893 24.8005 23.4185C24.7981 23.5543 24.8585 23.582 24.9792 23.5759C25.1383 23.5681 25.2974 23.5741 25.4572 23.5741L25.4578 23.5729ZM14.437 22.2715C14.2249 22.2715 14.0505 22.2758 13.8761 22.2703C13.7579 22.2661 13.7164 22.3124 13.7207 22.4284C13.7329 22.7642 13.739 23.1001 13.742 23.4366C13.7426 23.5441 13.7859 23.579 13.8926 23.5753C14.2334 23.5645 14.5742 23.5567 14.915 23.5561C15.0351 23.5561 15.0754 23.5129 15.0687 23.3975C15.0589 23.2335 15.0626 23.0688 15.0565 22.9048C15.0486 22.7047 15.1108 22.4428 15.0065 22.3208C14.8839 22.1778 14.6078 22.2968 14.4377 22.2721L14.437 22.2715ZM13.9328 17.4162C13.9316 17.1002 13.6731 16.8448 13.3542 16.8454C13.0354 16.8454 12.7793 17.102 12.7805 17.4186C12.7817 17.7377 13.0366 17.9846 13.3616 17.9816C13.7048 17.9786 13.9341 17.7521 13.9328 17.4162ZM26.4869 16.8454C26.1711 16.8418 25.9035 17.0978 25.8992 17.409C25.8949 17.7179 26.1583 17.9798 26.4747 17.9822C26.8216 17.9846 27.046 17.7683 27.0497 17.4258C27.0533 17.1014 26.8088 16.8497 26.4869 16.8454Z" fill="#707070"/>
<path d="M24.7495 11.868C24.7532 11.409 25.1379 11.0382 25.5994 11.0491C26.053 11.0593 26.4219 11.43 26.4231 11.8764C26.4243 12.3318 26.0421 12.7074 25.5799 12.7049C25.1141 12.7025 24.7459 12.3318 24.7501 11.8686L24.7495 11.868ZM25.8232 11.8932C25.8177 11.7418 25.736 11.6493 25.5878 11.6457C25.4531 11.6427 25.3574 11.7184 25.347 11.8602C25.336 12.011 25.4177 12.1053 25.5671 12.1161C25.7189 12.1269 25.8024 12.0386 25.8232 11.8926V11.8932Z" fill="#707070"/>
<path d="M24.391 11.887C24.3867 12.3448 24.0045 12.7125 23.5399 12.7041C23.0881 12.6963 22.7156 12.3244 22.7144 11.8792C22.7131 11.4262 23.0997 11.0458 23.5588 11.0488C24.0215 11.0512 24.3947 11.4274 24.391 11.887ZM23.7978 11.8912C23.7868 11.7362 23.7014 11.6473 23.5539 11.6455C23.4167 11.6437 23.324 11.7284 23.3167 11.8666C23.3094 12.0138 23.3917 12.1123 23.5435 12.1177C23.6941 12.1231 23.7758 12.0318 23.7972 11.8918L23.7978 11.8912Z" fill="#707070"/>
<path d="M28.4484 11.8679C28.4539 12.3222 28.0746 12.7019 27.6131 12.7043C27.1534 12.7061 26.7668 12.3276 26.7681 11.8758C26.7687 11.4329 27.1424 11.0592 27.5936 11.049C28.0515 11.0394 28.4429 11.4143 28.4484 11.8679ZM27.8558 11.8932C27.8442 11.7538 27.7716 11.6546 27.6216 11.645C27.4826 11.636 27.3863 11.7165 27.3704 11.8517C27.3528 11.9989 27.4351 12.0993 27.5844 12.1155C27.7369 12.1323 27.8192 12.0392 27.8564 11.8926L27.8558 11.8932Z" fill="#707070"/>
</g>
<defs>
<clipPath id="clip0_876_2281">
<rect width="22" height="22" fill="white" transform="translate(7.72998 9.71094)"/>
</clipPath>
</defs>
</svg>
