<svg width="39" height="38" viewBox="0 0 39 38" fill="none" xmlns="http://www.w3.org/2000/svg">
<rect x="0.386719" width="37.9297" height="37.9297" rx="4" fill="#D9D9D9"/>
<g clip-path="url(#clip0_876_2256)">
<path d="M7.40479 27.6857C7.40479 21.9733 7.40479 16.2598 7.40479 10.5474C7.41522 10.5259 7.42983 10.5056 7.43505 10.4818C7.76379 8.91969 8.68842 8.11769 10.163 8.11769C11.9674 8.11769 13.7718 8.11769 15.5752 8.11769C19.6327 8.11769 23.6902 8.11656 27.7478 8.11769C29.2746 8.11769 30.4017 9.30767 30.4027 10.9298C30.4069 16.391 30.4037 21.8511 30.4048 27.3124C30.4048 27.6404 30.3589 27.9594 30.2587 28.2671C29.8819 29.4164 28.9302 30.1166 27.7426 30.1166C21.8514 30.1166 15.9592 30.1166 10.0681 30.1166C9.98562 30.1166 9.90317 30.1166 9.82073 30.1109C8.74895 30.0509 7.80553 29.2433 7.5081 28.1291C7.46845 27.9821 7.43922 27.8327 7.40479 27.6846L7.40479 27.6857ZM18.9293 14.7135C15.4259 14.7135 11.9236 14.7158 8.42021 14.709C8.21775 14.709 8.16035 14.7621 8.1614 14.9884C8.16766 19.0696 8.16557 23.1497 8.16662 27.231C8.16662 28.4696 8.92532 29.2931 10.066 29.2931C15.9561 29.2942 21.8472 29.2931 27.7373 29.2931C27.9325 29.2931 28.1266 29.2772 28.3144 29.2184C29.1514 28.9582 29.6409 28.2298 29.6409 27.2344C29.6419 23.1701 29.6419 19.1058 29.6409 15.0404C29.6409 14.6807 29.6941 14.7135 29.3466 14.7124C25.8735 14.7124 22.4003 14.7124 18.9272 14.7124L18.9293 14.7135ZM18.9043 13.8923C19.2413 13.8923 19.5784 13.8923 19.9145 13.8923C23.0662 13.8923 26.2178 13.89 29.3695 13.8968C29.5741 13.8968 29.6523 13.8617 29.6482 13.6118C29.6325 12.7441 29.644 11.8754 29.6419 11.0067C29.6388 9.77032 28.8811 8.94344 27.7415 8.94344C21.8493 8.94118 15.9582 8.94118 10.066 8.94344C8.92636 8.94344 8.1687 9.77032 8.16557 11.0067C8.16349 11.8664 8.17288 12.7272 8.16035 13.5869C8.15618 13.8244 8.2021 13.8979 8.43795 13.8979C11.9267 13.8889 15.4155 13.8911 18.9043 13.8911V13.8923Z" fill="#707070"/>
<path d="M19.9363 17.6129C19.8476 18.0744 19.7515 18.5823 19.6524 19.0891C19.2527 21.1489 18.852 23.2088 18.4512 25.2697C18.4376 25.341 18.4251 25.4134 18.4063 25.4835C18.3448 25.7154 18.1621 25.8545 17.9743 25.8161C17.7562 25.7708 17.6216 25.5616 17.6685 25.3059C17.7614 24.789 17.8647 24.2754 17.9649 23.7596C18.3677 21.6919 18.7706 19.6241 19.1713 17.5563C19.2151 17.3312 19.3038 17.1559 19.5345 17.1276C19.7599 17.0993 19.9415 17.3029 19.9352 17.614L19.9363 17.6129Z" fill="#707070"/>
<path d="M16.8495 23.6886C16.8516 24.0212 16.5479 24.2203 16.2953 24.0574C16.1618 23.9714 16.047 23.8504 15.9269 23.7407C15.2486 23.1163 14.5713 22.4896 13.893 21.8641C13.5642 21.5609 13.56 21.3324 13.8867 21.0293C14.6318 20.3381 15.378 19.6504 16.1252 18.9626C16.1878 18.9049 16.2536 18.8484 16.3266 18.811C16.4863 18.7296 16.6376 18.7635 16.7545 18.9049C16.8766 19.0543 16.8881 19.2284 16.7869 19.397C16.743 19.4694 16.6783 19.5305 16.6157 19.587C16.0073 20.1503 15.401 20.7171 14.7852 21.2725C14.6433 21.4003 14.6183 21.4636 14.779 21.6062C15.4031 22.1627 16.0136 22.7362 16.6293 23.304C16.7451 23.4104 16.8547 23.5212 16.8505 23.6875L16.8495 23.6886Z" fill="#707070"/>
<path d="M24.1599 21.441C24.1589 21.5903 24.09 21.7046 23.9898 21.7962C23.1988 22.528 22.4077 23.2599 21.6136 23.9872C21.4111 24.1728 21.1815 24.1547 21.0385 23.9624C20.907 23.7859 20.9352 23.5382 21.1262 23.3595C21.7617 22.7667 22.3983 22.1774 23.0422 21.596C23.1748 21.4761 23.1852 21.4184 23.0464 21.2939C22.4255 20.734 21.8129 20.1617 21.1992 19.5927C21.1366 19.535 21.0719 19.4762 21.026 19.4038C20.9206 19.2375 20.931 19.061 21.05 18.9106C21.17 18.7579 21.3266 18.7296 21.4967 18.8156C21.5301 18.8325 21.5635 18.8529 21.5916 18.8789C22.3952 19.6198 23.1988 20.3607 24.0003 21.1028C24.0942 21.1899 24.1579 21.2985 24.1589 21.4387L24.1599 21.441Z" fill="#707070"/>
<path d="M9.00562 11.4301C9.00457 10.7152 9.54099 10.1292 10.1995 10.127C10.8507 10.1247 11.4007 10.7197 11.4017 11.4267C11.4017 12.1336 10.8538 12.7298 10.2026 12.732C9.54829 12.7332 9.00666 12.145 9.00562 11.4301ZM10.6378 11.4233C10.6347 11.1755 10.4343 10.9561 10.2068 10.9527C9.96678 10.9482 9.76327 11.171 9.7664 11.4346C9.76849 11.688 9.96365 11.9006 10.1953 11.9051C10.4301 11.9097 10.642 11.6789 10.6389 11.4233H10.6378Z" fill="#707070"/>
<path d="M18.7802 11.4475C18.7812 12.1669 18.2511 12.7438 17.5874 12.7461C16.9236 12.7484 16.3883 12.1715 16.3872 11.4543C16.3862 10.7383 16.9215 10.1546 17.5811 10.1523C18.2417 10.1512 18.7792 10.7304 18.7802 11.4464V11.4475ZM17.5832 10.9792C17.3484 10.9792 17.1553 11.1851 17.1501 11.4396C17.1449 11.7054 17.34 11.9204 17.5863 11.9192C17.8232 11.9192 18.0131 11.7167 18.0173 11.4611C18.0225 11.1941 17.8284 10.9781 17.5832 10.9792Z" fill="#707070"/>
<path d="M12.698 11.4352C12.7001 10.7146 13.2323 10.1423 13.8971 10.1445C14.5587 10.1468 15.092 10.7282 15.0899 11.4454C15.0879 12.1603 14.5483 12.7417 13.8888 12.7394C13.2271 12.7372 12.697 12.1546 12.699 11.4363L12.698 11.4352ZM13.8867 10.9703C13.6393 10.9737 13.4525 11.1875 13.4609 11.4578C13.4682 11.7135 13.6623 11.9148 13.8981 11.9114C14.133 11.908 14.325 11.6999 14.3271 11.4454C14.3302 11.1796 14.1319 10.9669 13.8867 10.9692V10.9703Z" fill="#707070"/>
</g>
<defs>
<clipPath id="clip0_876_2256">
<rect width="23" height="22" fill="white" transform="translate(7.40479 8.11719)"/>
</clipPath>
</defs>
</svg>
