<svg width="17" height="18" viewBox="0 0 17 18" fill="none" xmlns="http://www.w3.org/2000/svg">
<g clip-path="url(#clip0_44_632)">
<g clip-path="url(#clip1_44_632)">
<path d="M8.5 0.500146C6.24566 0.500146 4.0837 1.39564 2.48956 2.98969C0.8955 4.58374 0 6.74586 0 9.00007C0 11.2543 0.8955 13.4163 2.48956 15.0105C4.08363 16.6045 6.24577 17.5 8.5 17.5C10.7542 17.5 12.9163 16.6045 14.5104 15.0105C16.1045 13.4164 17 11.2543 17 9.00007C17 7.50806 16.6073 6.04224 15.8613 4.74993C15.1152 3.45783 14.0421 2.38475 12.75 1.63869C11.4578 0.892739 9.9921 0.500146 8.5 0.500146ZM13.3247 7.50176L8.2246 12.1767C8.06308 12.3248 7.85061 12.4048 7.63164 12.4001C7.41264 12.3952 7.20389 12.3062 7.04906 12.1512L4.49903 9.60118C4.33496 9.4428 4.24146 9.22523 4.23947 8.99726C4.23748 8.76915 4.32727 8.55002 4.48836 8.38879C4.64958 8.22756 4.86886 8.13792 5.09683 8.13977C5.3248 8.14176 5.5425 8.23525 5.7009 8.39932L7.67546 10.3739L12.1755 6.24868C12.3994 6.04348 12.7156 5.97318 13.0053 6.0644C13.295 6.15547 13.514 6.39425 13.5799 6.69079C13.6458 6.9872 13.5484 7.29641 13.3247 7.50176Z" fill="white"/>
</g>
</g>
<defs>
<clipPath id="clip0_44_632">
<rect width="17" height="17" fill="white" transform="translate(0 0.5)"/>
</clipPath>
<clipPath id="clip1_44_632">
<rect width="17" height="17" fill="white" transform="translate(0 0.5)"/>
</clipPath>
</defs>
</svg>
