<svg width="12" height="8" viewBox="0 0 12 8" fill="none" xmlns="http://www.w3.org/2000/svg">
<path d="M10.2032 6.92324L10.2102 6.92927L10.2176 6.93477C10.5114 7.15276 10.928 7.12878 11.1944 6.86236C11.4873 6.56947 11.4873 6.09459 11.1944 5.8017L6.52773 1.13503L6.52125 1.12856L6.51432 1.12257L6.45824 1.07416L6.45125 1.06813L6.44384 1.06263C6.15004 0.844638 5.73349 0.868611 5.46707 1.13503L0.800399 5.8017L0.793922 5.80818L0.787937 5.81511L0.739525 5.87119L0.733494 5.87818L0.727993 5.88559C0.510003 6.17938 0.533976 6.59594 0.800399 6.86236L0.806875 6.86884L0.813808 6.87482L0.869887 6.92324L0.876874 6.92927L0.884287 6.93477C1.17808 7.15276 1.59464 7.12878 1.86106 6.86236L5.9974 2.72624L10.1337 6.86237L10.1402 6.86884L10.1471 6.87482L10.2032 6.92324Z" fill="white" stroke="white" stroke-width="0.5"/>
</svg>
