<svg width="12" height="8" viewBox="0 0 12 8" fill="none" xmlns="http://www.w3.org/2000/svg">
<path d="M1.79678 1.07676L1.78979 1.07073L1.78238 1.06523C1.48858 0.847243 1.07203 0.871215 0.805607 1.13764C0.512714 1.43053 0.512714 1.90541 0.805607 2.1983L5.47227 6.86497L5.47875 6.87144L5.48568 6.87743L5.54176 6.92584L5.54875 6.93187L5.55616 6.93737C5.84996 7.15536 6.26651 7.13139 6.53293 6.86497L11.1996 2.1983L11.2061 2.19182L11.2121 2.18489L11.2605 2.12881L11.2665 2.12182L11.272 2.11441C11.49 1.82062 11.466 1.40406 11.1996 1.13764L11.1931 1.13116L11.1862 1.12518L11.1301 1.07677L11.1231 1.07073L11.1157 1.06523C10.8219 0.847243 10.4054 0.871216 10.1389 1.13764L6.0026 5.27376L1.86626 1.13763L1.85979 1.13116L1.85286 1.12518L1.79678 1.07676Z" fill="white" stroke="white" stroke-width="0.5"/>
</svg>
