<svg width="12" height="14" viewBox="0 0 12 14" fill="none" xmlns="http://www.w3.org/2000/svg">
<g id="list-check.svg" clip-path="url(#clip0_205_1831)">
<path id="Vector" d="M6 1.3126C4.4087 1.3126 2.88261 1.9431 1.75734 3.06544C0.632117 4.18777 0 5.71006 0 7.2972C0 8.88435 0.632117 10.4066 1.75734 11.529C2.88256 12.6513 4.40878 13.2818 6 13.2818C7.59122 13.2818 9.11739 12.6513 10.2427 11.529C11.3679 10.4066 12 8.88435 12 7.2972C12 6.24672 11.7228 5.21466 11.1962 4.30477C10.6696 3.39505 9.91207 2.63951 9.00002 2.11422C8.08785 1.58901 7.05324 1.3126 6 1.3126ZM9.40565 6.24227L5.8056 9.53376C5.69159 9.63806 5.54161 9.69438 5.38704 9.69107C5.23245 9.68767 5.0851 9.62495 4.97581 9.51584L3.17579 7.72042C3.05997 7.60891 2.99397 7.45573 2.99257 7.29522C2.99116 7.13462 3.05455 6.98033 3.16825 6.86681C3.28206 6.75329 3.43684 6.69019 3.59776 6.69148C3.75868 6.69288 3.91236 6.75871 4.02416 6.87423L5.41797 8.26446L8.59451 5.36001C8.75251 5.21553 8.9757 5.16604 9.18021 5.23026C9.38472 5.29438 9.53931 5.4625 9.5858 5.67129C9.63231 5.87998 9.56356 6.09768 9.40565 6.24227Z" fill="#FFAD00"/>
</g>
<defs>
<clipPath id="clip0_205_1831">
<rect width="12" height="13" fill="white" transform="translate(0 0.328125)"/>
</clipPath>
</defs>
</svg>
