<svg width="40" height="40" viewBox="0 0 40 40" fill="none" xmlns="http://www.w3.org/2000/svg">
<circle cx="20" cy="20" r="20" fill="#F92727"/>
<path d="M29.9954 17.934C30.0403 16.6386 29.7559 15.3529 29.1687 14.1962C28.7702 13.7216 28.2172 13.4013 27.606 13.2911C25.0781 13.0626 22.5397 12.969 20.0017 13.0106C17.473 12.9671 14.9437 13.0577 12.4247 13.2821C11.9266 13.3723 11.4657 13.6051 11.0982 13.9518C10.2806 14.703 10.1897 15.9882 10.0989 17.0742C9.96705 19.0269 9.96705 20.9862 10.0989 22.939C10.1251 23.5502 10.2165 24.157 10.3714 24.7491C10.481 25.2061 10.7026 25.629 11.0165 25.9799C11.3865 26.345 11.8581 26.591 12.3702 26.6859C14.3288 26.9267 16.3024 27.0265 18.2755 26.9845C21.4554 27.0298 24.2444 26.9845 27.5423 26.7311C28.067 26.6421 28.5519 26.3958 28.9324 26.0252C29.1867 25.7717 29.3767 25.4614 29.4866 25.1201C29.8115 24.1269 29.9711 23.0875 29.959 22.043C29.9954 21.5361 29.9954 18.4771 29.9954 17.934ZM17.9484 22.586V16.9837L23.3268 19.7984C21.8188 20.6311 19.829 21.5723 17.9484 22.586Z" fill="white"/>
</svg>
